<?xml version="1.0" encoding="UTF-8" standalone="no"?>
<svg width="416px" height="209px" viewBox="0 0 416 209" version="1.1" xmlns="http://www.w3.org/2000/svg" xmlns:xlink="http://www.w3.org/1999/xlink" xmlns:sketch="http://www.bohemiancoding.com/sketch/ns">
    <!-- Generator: Sketch 3.1.1 (8761) - http://www.bohemiancoding.com/sketch -->
    <title>path-1</title>
    <desc>Created with Sketch.</desc>
    <defs></defs>
    <g id="Page-1" stroke="none" stroke-width="1" fill="none" fill-rule="evenodd" sketch:type="MSPage">
        <g id="main_top-copy" sketch:type="MSLayerGroup" transform="translate(-171.000000, -1571.000000)" fill="#FFFFFF">
            <g id="enter_hover" transform="translate(1.000000, 40.000000)" sketch:type="MSShapeGroup">
                <g id="path-1" transform="translate(171.000000, 1532.000000)">
                    <path d="M406.9,197.1 L413.6,190.4 C414.4,189.6 414.4,188.4 413.6,187.6 C412.8,186.8 411.6,186.8 410.8,187.6 L404.1,194.3 L397.4,187.6 C396.6,186.8 395.4,186.8 394.6,187.6 C393.8,188.4 393.8,189.6 394.6,190.4 L401.3,197.1 L394.6,203.8 C393.8,204.6 393.8,205.8 394.6,206.6 C395,207 395.5,207.2 396,207.2 C396.5,207.2 397,207 397.4,206.6 L404.1,199.9 L410.8,206.6 C411.2,207 411.7,207.2 412.2,207.2 C412.7,207.2 413.2,207 413.6,206.6 C414.4,205.8 414.4,204.6 413.6,203.8 L406.9,197.1 L406.9,197.1 Z" id="Shape"></path>
                    <path d="M12.5,94.5 L19.2,87.8 C20,87 20,85.8 19.2,85 C18.4,84.2 17.2,84.2 16.4,85 L9.7,91.7 L3,85 C2.2,84.2 1,84.2 0.2,85 C-0.6,85.8 -0.6,87 0.2,87.8 L6.9,94.5 L0.2,101.2 C-0.6,102 -0.6,103.2 0.2,104 C0.6,104.4 1.1,104.6 1.6,104.6 C2.1,104.6 2.6,104.4 3,104 L9.7,97.3 L16.4,104 C16.8,104.4 17.3,104.6 17.8,104.6 C18.3,104.6 18.8,104.4 19.2,104 C20,103.2 20,102 19.2,101.2 L12.5,94.5 L12.5,94.5 Z" id="Shape"></path>
                    <g id="layout-path-1" transform="translate(9.000000, 0.000000)">
                        <path d="M377.5,197.7 C377.5,196.7 378.2,195.8 379.3,195.7 C380.3,195.6 381.2,196.4 381.3,197.4 C381.4,198.4 380.6,199.4 379.5,199.5 C378.4,199.6 377.5,198.8 377.5,197.7 L377.5,197.7 Z" id="Shape"></path>
                        <path d="M369.9,197.9 C369.9,196.9 370.8,196 371.8,196 C372.8,196 373.7,196.9 373.7,197.9 C373.7,198.9 372.9,199.8 371.8,199.8 C370.7,199.8 369.9,198.9 369.9,197.9 L369.9,197.9 Z" id="Shape"></path>
                        <path d="M362.3,197.4 C362.4,196.4 363.3,195.6 364.3,195.7 C365.3,195.8 366.1,196.7 366.1,197.7 C366,198.7 365.1,199.5 364.1,199.5 C363,199.4 362.2,198.5 362.3,197.4 L362.3,197.4 Z" id="Shape"></path>
                        <path d="M354.8,196.4 C355,195.4 355.9,194.7 357,194.8 C358,195 358.7,195.9 358.6,196.9 C358.5,197.9 357.5,198.7 356.4,198.5 C355.3,198.4 354.6,197.5 354.8,196.4 L354.8,196.4 Z" id="Shape"></path>
                        <path d="M347.4,194.9 C347.7,193.9 348.7,193.3 349.7,193.5 C350.7,193.7 351.3,194.7 351.1,195.7 C350.9,196.7 349.9,197.4 348.8,197.1 C347.7,197 347.1,195.9 347.4,194.9 L347.4,194.9 Z" id="Shape"></path>
                        <path d="M340.1,192.8 C340.4,191.8 341.5,191.3 342.5,191.6 C343.5,191.9 344,193 343.7,194 C343.4,195 342.3,195.6 341.3,195.2 C340.3,194.8 339.8,193.7 340.1,192.8 L340.1,192.8 Z" id="Shape"></path>
                        <path d="M333,190.1 C333.4,189.1 334.5,188.7 335.5,189.1 C336.5,189.5 336.9,190.5 336.6,191.5 C336.2,192.5 335.1,193 334.1,192.6 C333.1,192.2 332.6,191.1 333,190.1 L333,190.1 Z" id="Shape"></path>
                        <path d="M326.1,187 C326.6,186.1 327.7,185.7 328.6,186.1 C329.5,186.6 329.9,187.7 329.5,188.6 C329.1,189.6 327.9,189.9 327,189.5 C326,189 325.6,187.9 326.1,187 L326.1,187 Z" id="Shape"></path>
                        <path d="M319.4,183.3 C319.9,182.4 321.1,182.1 322,182.6 C322.9,183.1 323.2,184.2 322.7,185.1 C322.2,186 321,186.3 320.1,185.8 C319.2,185.4 318.9,184.2 319.4,183.3 L319.4,183.3 Z" id="Shape"></path>
                        <path d="M313,179.3 C313.6,178.4 314.7,178.2 315.6,178.7 C316.5,179.3 316.7,180.4 316.2,181.3 C315.7,182.2 314.5,182.4 313.6,181.8 C312.7,181.2 312.4,180.2 313,179.3 L313,179.3 Z" id="Shape"></path>
                        <path d="M306.8,175 C307.4,174.2 308.6,174 309.4,174.6 C310.2,175.2 310.4,176.4 309.8,177.2 C309.2,178.1 308,178.2 307.1,177.6 C306.4,177 306.2,175.8 306.8,175 L306.8,175 Z" id="Shape"></path>
                        <path d="M300.9,170.3 C301.6,169.5 302.8,169.4 303.6,170 C304.4,170.6 304.5,171.8 303.9,172.7 C303.3,173.5 302.1,173.6 301.2,173 C300.3,172.4 300.2,171.1 300.9,170.3 L300.9,170.3 Z" id="Shape"></path>
                        <path d="M295.1,165.3 C295.8,164.5 297,164.5 297.8,165.1 C298.6,165.8 298.7,167 298,167.8 C297.3,168.6 296.1,168.7 295.3,168 C294.5,167.3 294.4,166.1 295.1,165.3 L295.1,165.3 Z" id="Shape"></path>
                        <path d="M289.6,160.2 C290.3,159.5 291.5,159.4 292.3,160.1 C293,160.8 293.1,162 292.4,162.8 C291.7,163.6 290.5,163.6 289.7,162.9 C288.9,162.1 288.8,160.9 289.6,160.2 L289.6,160.2 Z" id="Shape"></path>
                        <path d="M284.2,154.8 C285,154.1 286.1,154.1 286.9,154.8 C287.6,155.5 287.6,156.7 286.9,157.5 C286.2,158.2 285,158.2 284.2,157.5 C283.4,156.7 283.5,155.5 284.2,154.8 L284.2,154.8 Z" id="Shape"></path>
                        <path d="M279,149.3 C279.8,148.6 281,148.6 281.7,149.4 C282.4,150.2 282.4,151.4 281.6,152.1 C280.8,152.8 279.6,152.8 278.9,152 C278.2,151.2 278.2,150 279,149.3 L279,149.3 Z" id="Shape"></path>
                        <path d="M273.9,143.6 C274.7,142.9 275.9,143 276.6,143.8 C277.3,144.6 277.2,145.8 276.4,146.5 C275.6,147.2 274.4,147.1 273.7,146.3 C273.1,145.5 273.2,144.3 273.9,143.6 L273.9,143.6 Z" id="Shape"></path>
                        <path d="M269,137.8 C269.8,137.1 271,137.2 271.7,138 C272.4,138.8 272.3,140 271.5,140.7 C270.7,141.4 269.5,141.3 268.8,140.5 C268.1,139.7 268.2,138.5 269,137.8 L269,137.8 Z" id="Shape"></path>
                        <path d="M264.2,132 C265,131.3 266.2,131.5 266.9,132.3 C267.6,133.1 267.4,134.3 266.6,135 C265.8,135.7 264.6,135.5 263.9,134.7 C263.3,133.8 263.4,132.6 264.2,132 L264.2,132 Z" id="Shape"></path>
                        <path d="M259.5,126.1 C260.3,125.5 261.5,125.6 262.2,126.4 C262.8,127.2 262.7,128.4 261.9,129.1 C261.1,129.7 259.9,129.6 259.2,128.8 C258.5,127.9 258.7,126.7 259.5,126.1 L259.5,126.1 Z" id="Shape"></path>
                        <path d="M254.8,120.1 C255.6,119.5 256.8,119.6 257.4,120.4 C258,121.2 257.9,122.4 257.1,123.1 C256.3,123.7 255.1,123.6 254.4,122.8 C253.9,121.9 254,120.7 254.8,120.1 L254.8,120.1 Z" id="Shape"></path>
                        <circle id="Oval" transform="translate(251.382080, 115.004220) rotate(232.770275) translate(-251.382080, -115.004220) " cx="251.38208" cy="115.00422" r="1.89996147"></circle>
                        <circle id="Oval" transform="translate(247.026970, 109.143010) rotate(233.101454) translate(-247.026970, -109.143010) " cx="247.02697" cy="109.14301" r="1.90000024"></circle>
                        <circle id="Oval" transform="translate(242.954780, 103.496940) rotate(233.301989) translate(-242.954780, -103.496940) " cx="242.95478" cy="103.49694" r="1.90000855"></circle>
                        <circle id="Oval" transform="translate(237.314940, 97.405140) rotate(233.318024) translate(-237.314940, -97.405140) " cx="237.31494" cy="97.40514" r="1.90008622"></circle>
                        <circle id="Oval" transform="translate(233.027200, 91.773080) rotate(233.171357) translate(-233.027200, -91.773080) " cx="233.0272" cy="91.77308" r="1.89992449"></circle>
                        <circle id="Oval" transform="translate(228.189890, 85.259190) rotate(232.848192) translate(-228.189890, -85.259190) " cx="228.18989" cy="85.25919" r="1.899909"></circle>
                        <path d="M222.9,77.7 C223.7,77.1 224.9,77.2 225.6,78.1 C226.2,78.9 226.1,80.1 225.3,80.8 C224.5,81.4 223.3,81.3 222.7,80.4 C221.9,79.5 222.1,78.3 222.9,77.7 L222.9,77.7 Z" id="Shape"></path>
                        <path d="M218.2,71.7 C219,71.1 220.2,71.2 220.9,72 C221.6,72.8 221.4,74 220.6,74.7 C219.8,75.3 218.6,75.2 217.9,74.4 C217.3,73.5 217.4,72.4 218.2,71.7 L218.2,71.7 Z" id="Shape"></path>
                        <path d="M213.5,65.8 C214.3,65.1 215.5,65.3 216.2,66.1 C216.9,66.9 216.7,68.1 215.9,68.8 C215.1,69.5 213.9,69.3 213.2,68.5 C212.5,67.6 212.7,66.5 213.5,65.8 L213.5,65.8 Z" id="Shape"></path>
                        <path d="M208.6,60 C209.4,59.3 210.6,59.4 211.3,60.2 C212,61 211.9,62.2 211.1,62.9 C210.3,63.6 209.1,63.5 208.4,62.7 C207.7,61.8 207.8,60.6 208.6,60 L208.6,60 Z" id="Shape"></path>
                        <path d="M203.7,54.2 C204.5,53.5 205.7,53.6 206.4,54.4 C207.1,55.2 207,56.4 206.2,57.1 C205.4,57.8 204.2,57.7 203.5,56.9 C202.8,56.1 202.9,54.9 203.7,54.2 L203.7,54.2 Z" id="Shape"></path>
                        <path d="M198.6,48.6 C199.4,47.9 200.6,47.9 201.3,48.7 C202,49.5 202,50.7 201.2,51.4 C200.4,52.1 199.2,52 198.5,51.3 C197.8,50.5 197.8,49.3 198.6,48.6 L198.6,48.6 Z" id="Shape"></path>
                        <path d="M193.3,43.1 C194,42.4 195.2,42.4 196,43.1 C196.7,43.8 196.7,45.1 196,45.8 C195.2,46.5 194.1,46.5 193.3,45.7 C192.6,45.1 192.6,43.9 193.3,43.1 L193.3,43.1 Z" id="Shape"></path>
                        <path d="M187.9,37.8 C188.6,37 189.8,37 190.6,37.8 C191.4,38.5 191.4,39.7 190.7,40.5 C190,41.2 188.8,41.3 188,40.5 C187.2,39.8 187.2,38.6 187.9,37.8 L187.9,37.8 Z" id="Shape"></path>
                        <path d="M182.3,32.7 C183,31.9 184.2,31.8 185,32.5 C185.8,33.2 185.8,34.4 185.1,35.2 C184.4,36 183.2,36 182.4,35.3 C181.7,34.7 181.6,33.5 182.3,32.7 L182.3,32.7 Z" id="Shape"></path>
                        <path d="M176.5,27.9 C177.1,27.1 178.3,27 179.2,27.6 C180.1,28.2 180.1,29.5 179.5,30.3 C178.8,31.1 177.6,31.2 176.8,30.6 C176,29.9 175.8,28.7 176.5,27.9 L176.5,27.9 Z" id="Shape"></path>
                        <path d="M170.4,23.3 C171,22.5 172.2,22.3 173.1,22.9 C174,23.5 174.1,24.7 173.5,25.6 C172.9,26.4 171.7,26.6 170.9,26 C170,25.3 169.8,24.2 170.4,23.3 L170.4,23.3 Z" id="Shape"></path>
                        <path d="M164.2,19 C164.8,18.1 165.9,17.9 166.8,18.5 C167.7,19.1 167.9,20.3 167.3,21.1 C166.7,22 165.5,22.2 164.7,21.6 C163.8,21.1 163.6,19.9 164.2,19 L164.2,19 Z" id="Shape"></path>
                        <path d="M157.6,15.2 C158.1,14.3 159.3,14 160.2,14.5 C161.1,15 161.4,16.2 160.9,17.1 C160.4,18 159.2,18.3 158.3,17.8 C157.4,17.3 157.1,16.1 157.6,15.2 L157.6,15.2 Z" id="Shape"></path>
                        <path d="M150.9,11.8 C151.3,10.8 152.5,10.4 153.4,10.9 C154.4,11.4 154.7,12.5 154.3,13.4 C153.8,14.3 152.7,14.7 151.8,14.3 C150.8,13.8 150.4,12.7 150.9,11.8 L150.9,11.8 Z" id="Shape"></path>
                        <path d="M143.9,8.9 C144.3,7.9 145.4,7.4 146.4,7.8 C147.4,8.2 147.9,9.3 147.5,10.3 C147.1,11.3 146,11.7 145,11.3 C144,10.9 143.5,9.8 143.9,8.9 L143.9,8.9 Z" id="Shape"></path>
                        <path d="M136.7,6.4 C137,5.4 138.1,4.8 139.1,5.1 C140.1,5.4 140.7,6.5 140.3,7.5 C140,8.5 138.9,9 137.9,8.7 C137,8.5 136.4,7.5 136.7,6.4 L136.7,6.4 Z" id="Shape"></path>
                        <path d="M129.3,4.6 C129.5,3.6 130.5,2.9 131.6,3.2 C132.6,3.4 133.3,4.4 133,5.5 C132.7,6.5 131.7,7.1 130.7,6.9 C129.8,6.6 129.1,5.6 129.3,4.6 L129.3,4.6 Z" id="Shape"></path>
                        <path d="M121.9,3.3 C122.1,2.3 123,1.6 124.1,1.7 C125.1,1.9 125.9,2.8 125.7,3.9 C125.5,4.9 124.5,5.6 123.5,5.5 C122.4,5.3 121.7,4.3 121.9,3.3 L121.9,3.3 Z" id="Shape"></path>
                        <path d="M114.3,2.4 C114.4,1.4 115.3,0.6 116.4,0.7 C117.5,0.8 118.2,1.7 118.1,2.8 C118,3.8 117,4.6 116,4.5 C115,4.4 114.2,3.4 114.3,2.4 L114.3,2.4 Z" id="Shape"></path>
                        <path d="M106.8,1.9 C106.8,0.9 107.7,-5.01820807e-14 108.8,0.1 C109.9,0.1 110.7,1 110.6,2.1 C110.5,3.1 109.6,4 108.6,3.9 C107.5,3.8 106.7,2.9 106.8,1.9 L106.8,1.9 Z" id="Shape"></path>
                        <path d="M99.2,1.9 C99.2,0.9 100,-2.05377382e-13 101.1,-0.1 C102.2,-0.2 103,0.7 103,1.8 C103,2.8 102.2,3.6 101.1,3.7 C100.1,3.7 99.2,2.9 99.2,1.9 L99.2,1.9 Z" id="Shape"></path>
                        <path d="M91.6,2.3 C91.5,1.3 92.3,0.3 93.3,0.2 C94.4,0.1 95.3,0.9 95.3,1.9 C95.4,2.9 94.6,3.8 93.6,3.9 C92.6,4.1 91.7,3.4 91.6,2.3 L91.6,2.3 Z" id="Shape"></path>
                        <path d="M84.1,3.3 C83.9,2.3 84.6,1.3 85.7,1.1 C86.8,0.9 87.7,1.7 87.9,2.7 C88,3.7 87.3,4.6 86.3,4.8 C85.2,5 84.3,4.3 84.1,3.3 L84.1,3.3 Z" id="Shape"></path>
                        <path d="M76.7,4.9 C76.4,3.9 77.1,2.9 78.1,2.6 C79.1,2.3 80.2,3 80.4,4 C80.6,5 80,6 79,6.3 C78,6.5 76.9,5.9 76.7,4.9 L76.7,4.9 Z" id="Shape"></path>
                        <path d="M69.4,7 C69.1,6 69.6,4.9 70.6,4.6 C71.6,4.3 72.7,4.8 73,5.8 C73.3,6.8 72.7,7.9 71.8,8.2 C70.8,8.5 69.7,7.9 69.4,7 L69.4,7 Z" id="Shape"></path>
                        <path d="M62.3,9.6 C61.9,8.6 62.4,7.5 63.4,7.1 C64.4,6.7 65.5,7.2 65.9,8.1 C66.3,9.1 65.8,10.2 64.8,10.6 C63.8,11 62.7,10.6 62.3,9.6 L62.3,9.6 Z" id="Shape"></path>
                        <path d="M55.4,12.8 C54.9,11.9 55.3,10.8 56.3,10.3 C57.3,9.8 58.4,10.2 58.8,11.2 C59.2,12.1 58.8,13.3 57.9,13.7 C57,14.1 55.9,13.7 55.4,12.8 L55.4,12.8 Z" id="Shape"></path>
                        <path d="M48.8,16.5 C48.3,15.6 48.5,14.4 49.5,13.9 C50.4,13.4 51.6,13.7 52.1,14.6 C52.6,15.5 52.3,16.6 51.4,17.2 C50.5,17.6 49.4,17.4 48.8,16.5 L48.8,16.5 Z" id="Shape"></path>
                        <path d="M42.5,20.8 C41.9,20 42.1,18.8 43,18.1 C43.9,17.5 45.1,17.7 45.6,18.6 C46.2,19.5 45.9,20.6 45.1,21.2 C44.3,21.8 43.2,21.6 42.5,20.8 L42.5,20.8 Z" id="Shape"></path>
                        <path d="M36.6,25.4 C35.9,24.6 36.1,23.4 36.9,22.7 C37.7,22 38.9,22.1 39.6,23 C40.2,23.8 40.1,25 39.3,25.7 C38.4,26.3 37.2,26.2 36.6,25.4 L36.6,25.4 Z" id="Shape"></path>
                        <path d="M30.9,30.5 C30.2,29.7 30.2,28.5 31,27.8 C31.8,27.1 33,27.1 33.7,27.9 C34.4,28.7 34.3,29.9 33.6,30.6 C32.8,31.2 31.6,31.2 30.9,30.5 L30.9,30.5 Z" id="Shape"></path>
                        <path d="M25.7,35.9 C24.9,35.2 24.9,34 25.6,33.2 C26.3,32.4 27.6,32.4 28.3,33.1 C29.1,33.8 29,35 28.4,35.8 C27.6,36.6 26.4,36.6 25.7,35.9 L25.7,35.9 Z" id="Shape"></path>
                        <path d="M20.7,41.7 C19.9,41 19.8,39.9 20.5,39 C21.2,38.2 22.4,38.1 23.2,38.7 C24,39.4 24.1,40.6 23.4,41.4 C22.7,42.2 21.5,42.3 20.7,41.7 L20.7,41.7 Z" id="Shape"></path>
                        <path d="M16.2,47.7 C15.3,47.1 15.2,45.9 15.8,45 C16.4,44.1 17.6,44 18.5,44.6 C19.3,45.2 19.5,46.4 18.9,47.2 C18.2,48.1 17,48.3 16.2,47.7 L16.2,47.7 Z" id="Shape"></path>
                        <path d="M11.9,54 C11,53.4 10.7,52.3 11.3,51.4 C11.9,50.5 13.1,50.3 13.9,50.8 C14.8,51.4 15,52.5 14.4,53.4 C14,54.3 12.8,54.6 11.9,54 L11.9,54 Z" id="Shape"></path>
                        <path d="M8.1,60.6 C7.2,60.1 6.9,58.9 7.4,58 C7.9,57.1 9.1,56.8 10,57.3 C10.9,57.8 11.2,59 10.7,59.9 C10.1,60.7 9,61.1 8.1,60.6 L8.1,60.6 Z" id="Shape"></path>
                        <path d="M4.6,67.3 C3.7,66.9 3.3,65.7 3.7,64.8 C4.2,63.8 5.3,63.5 6.2,63.9 C7.1,64.4 7.5,65.5 7,66.4 C6.7,67.4 5.5,67.8 4.6,67.3 L4.6,67.3 Z" id="Shape"></path>
                        <path d="M1.5,74.2 C0.5,73.8 0.1,72.7 0.5,71.7 C0.9,70.7 2,70.3 3,70.7 C4,71.1 4.4,72.2 4,73.2 C3.6,74.2 2.5,74.6 1.5,74.2 L1.5,74.2 Z" id="Shape"></path>
                    </g>
                </g>
            </g>
        </g>
    </g>
</svg>