<?xml version="1.0" encoding="UTF-8" standalone="no"?>
<svg width="109px" height="171px" viewBox="0 0 109 171" version="1.1" xmlns="http://www.w3.org/2000/svg" xmlns:xlink="http://www.w3.org/1999/xlink" xmlns:sketch="http://www.bohemiancoding.com/sketch/ns">
    <!-- Generator: Sketch 3.1.1 (8761) - http://www.bohemiancoding.com/sketch -->
    <title>layout-path-last</title>
    <desc>Created with Sketch.</desc>
    <defs></defs>
    <g id="Page-1" stroke="none" stroke-width="1" fill="none" fill-rule="evenodd" sketch:type="MSPage">
        <g id="main_top-copy" sketch:type="MSLayerGroup" transform="translate(-396.000000, -1989.000000)" fill="#FFFFFF">
            <g id="enter_hover" transform="translate(1.000000, 40.000000)" sketch:type="MSShapeGroup">
                <g id="layout-path-last" transform="translate(395.000000, 1949.000000)">
                    <path d="M95.4,10.2 L88.7,3.5 C87.9,2.7 87.9,1.5 88.7,0.7 C89.5,-0.1 90.7,-0.1 91.5,0.7 L98.2,7.4 L104.9,0.7 C105.7,-0.1 106.9,-0.1 107.7,0.7 C108.5,1.5 108.5,2.7 107.7,3.5 L101,10.2 L107.7,16.9 C108.5,17.7 108.5,18.9 107.7,19.7 C107.3,20.1 106.8,20.3 106.3,20.3 C105.8,20.3 105.3,20.1 104.9,19.7 L98.2,13 L91.5,19.7 C91.1,20.1 90.6,20.3 90.1,20.3 C89.6,20.3 89.1,20.1 88.7,19.7 C87.9,18.9 87.9,17.7 88.7,16.9 L95.4,10.2 L95.4,10.2 Z" id="Shape"></path>
                    <g id="Group" transform="translate(0.000000, 7.000000)">
                        <path d="M80.6,1.7 C80.6,0.6 81.5,-0.2 82.5,-0.2 C83.6,-0.2 84.4,0.7 84.4,1.7 C84.4,2.7 83.5,3.6 82.5,3.5 C81.4,3.6 80.6,2.8 80.6,1.7 L80.6,1.7 Z" id="Shape"></path>
                        <path d="M73,2.1 C72.9,1.1 73.7,0.1 74.8,0.1 C75.9,1.06387121e-13 76.8,0.8 76.8,1.9 C76.8,2.9 76.1,3.8 75,3.9 C74,3.9 73.1,3.2 73,2.1 L73,2.1 Z" id="Shape"></path>
                        <path d="M65.5,3.1 C65.3,2.1 66,1.1 67.1,0.9 C68.2,0.7 69.1,1.5 69.3,2.5 C69.4,3.5 68.7,4.5 67.7,4.6 C66.7,4.9 65.7,4.2 65.5,3.1 L65.5,3.1 Z" id="Shape"></path>
                        <path d="M58.1,4.8 C57.8,3.8 58.4,2.8 59.5,2.5 C60.5,2.2 61.6,2.9 61.8,3.9 C62,4.9 61.4,5.9 60.4,6.2 C59.4,6.4 58.4,5.8 58.1,4.8 L58.1,4.8 Z" id="Shape"></path>
                        <path d="M50.9,7.2 C50.5,6.2 51,5.1 52.1,4.8 C53.1,4.4 54.2,5 54.5,6 C54.8,7 54.3,8.1 53.3,8.4 C52.4,8.7 51.3,8.1 50.9,7.2 L50.9,7.2 Z" id="Shape"></path>
                        <path d="M44,10.2 C43.5,9.3 43.9,8.1 44.9,7.7 C45.9,7.3 47,7.7 47.4,8.6 C47.8,9.6 47.4,10.7 46.5,11.1 C45.6,11.5 44.5,11.1 44,10.2 L44,10.2 Z" id="Shape"></path>
                        <path d="M37.3,13.8 C36.8,12.9 37.1,11.7 38,11.2 C38.9,10.7 40.1,11 40.6,11.9 C41.1,12.8 40.8,13.9 39.9,14.4 C39,15 37.9,14.7 37.3,13.8 L37.3,13.8 Z" id="Shape"></path>
                        <path d="M31.1,18 C30.5,17.2 30.7,16 31.6,15.4 C32.5,14.8 33.7,15 34.2,15.9 C34.8,16.8 34.5,17.9 33.7,18.5 C32.8,19 31.7,18.8 31.1,18 L31.1,18 Z" id="Shape"></path>
                        <path d="M25.2,22.7 C24.5,21.9 24.6,20.7 25.4,20 C26.2,19.3 27.4,19.4 28.1,20.2 C28.8,21 28.7,22.2 27.9,22.8 C27.1,23.6 25.9,23.5 25.2,22.7 L25.2,22.7 Z" id="Shape"></path>
                        <path d="M19.8,28.1 C19,27.4 19,26.2 19.7,25.4 C20.4,24.6 21.7,24.6 22.4,25.4 C23.1,26.1 23.1,27.3 22.4,28 C21.8,28.7 20.6,28.8 19.8,28.1 L19.8,28.1 Z" id="Shape"></path>
                        <path d="M15,33.9 C14.1,33.3 14,32.1 14.7,31.2 C15.4,30.3 16.6,30.2 17.4,30.9 C18.2,31.6 18.3,32.7 17.7,33.5 C17.1,34.4 15.9,34.5 15,33.9 L15,33.9 Z" id="Shape"></path>
                        <path d="M10.9,40.3 C10,39.8 9.7,38.6 10.3,37.7 C10.9,36.8 12.1,36.5 12.9,37.1 C13.8,37.7 14,38.8 13.5,39.7 C12.9,40.5 11.8,40.8 10.9,40.3 L10.9,40.3 Z" id="Shape"></path>
                        <path d="M7.5,47 C6.5,46.6 6.1,45.5 6.6,44.5 C7,43.5 8.2,43.1 9.1,43.6 C10,44.1 10.4,45.2 10,46.1 C9.6,47 8.5,47.4 7.5,47 L7.5,47 Z" id="Shape"></path>
                        <path d="M4.9,54.1 C3.9,53.8 3.3,52.7 3.7,51.7 C4,50.7 5.1,50.1 6.1,50.5 C7.1,50.9 7.6,51.9 7.3,52.9 C6.9,53.9 5.9,54.4 4.9,54.1 L4.9,54.1 Z" id="Shape"></path>
                        <path d="M3.2,61.5 C2.2,61.3 1.5,60.3 1.7,59.3 C1.9,58.2 3,57.6 4,57.8 C5,58 5.6,59 5.4,60 C5.2,61 4.2,61.6 3.2,61.5 L3.2,61.5 Z" id="Shape"></path>
                        <path d="M2.3,69 C1.3,69 0.5,68 0.6,67 C0.7,65.9 1.6,65.1 2.7,65.3 C3.7,65.4 4.5,66.3 4.4,67.3 C4.3,68.3 3.4,69 2.3,69 L2.3,69 Z" id="Shape"></path>
                        <path d="M2.4,76.5 C1.4,76.6 0.4,75.8 0.4,74.7 C0.4,73.6 1.2,72.7 2.2,72.7 C3.2,72.7 4.1,73.5 4.1,74.5 C4.2,75.6 3.4,76.5 2.4,76.5 L2.4,76.5 Z" id="Shape"></path>
                        <path d="M3.3,84.1 C2.3,84.3 1.3,83.6 1.1,82.5 C1,81.4 1.7,80.5 2.7,80.3 C3.7,80.2 4.7,80.9 4.8,81.9 C5,82.9 4.4,83.9 3.3,84.1 L3.3,84.1 Z" id="Shape"></path>
                        <path d="M5.1,91.4 C4.1,91.7 3,91.1 2.7,90.1 C2.4,89.1 3.1,88 4.1,87.8 C5.1,87.6 6.1,88.2 6.4,89.2 C6.6,90.1 6.1,91.1 5.1,91.4 L5.1,91.4 Z" id="Shape"></path>
                        <path d="M7.5,98.6 C6.5,99 5.4,98.5 5,97.5 C4.6,96.5 5.2,95.4 6.1,95.1 C7.1,94.8 8.1,95.3 8.5,96.2 C9,97.1 8.5,98.2 7.5,98.6 L7.5,98.6 Z" id="Shape"></path>
                        <path d="M10.7,105.4 C9.8,105.9 8.6,105.5 8.1,104.5 C7.7,103.5 8.1,102.4 9,102 C9.9,101.6 11.1,102 11.5,102.9 C12,103.8 11.6,105 10.7,105.4 L10.7,105.4 Z" id="Shape"></path>
                        <path d="M14.4,112 C13.5,112.5 12.3,112.3 11.8,111.3 C11.3,110.4 11.6,109.2 12.5,108.7 C13.4,108.2 14.6,108.5 15.1,109.4 C15.5,110.3 15.3,111.5 14.4,112 L14.4,112 Z" id="Shape"></path>
                        <path d="M18.6,118.3 C17.7,118.9 16.6,118.7 16,117.8 C15.4,116.9 15.6,115.7 16.5,115.2 C17.4,114.6 18.5,114.8 19.1,115.7 C19.6,116.5 19.4,117.7 18.6,118.3 L18.6,118.3 Z" id="Shape"></path>
                        <path d="M23.2,124.3 C22.4,125 21.2,124.8 20.5,124 C19.8,123.2 20,122 20.8,121.3 C21.6,120.7 22.8,120.8 23.4,121.6 C24.2,122.4 24,123.6 23.2,124.3 L23.2,124.3 Z" id="Shape"></path>
                        <path d="M28.2,130 C27.4,130.7 26.2,130.7 25.5,129.9 C24.8,129.1 24.9,127.9 25.7,127.2 C26.5,126.5 27.7,126.6 28.3,127.4 C29,128.1 29,129.3 28.2,130 L28.2,130 Z" id="Shape"></path>
                        <path d="M33.5,135.4 C32.8,136.2 31.6,136.2 30.8,135.4 C30,134.7 30,133.5 30.8,132.7 C31.5,132 32.7,132 33.5,132.7 C34.2,133.4 34.2,134.6 33.5,135.4 L33.5,135.4 Z" id="Shape"></path>
                        <path d="M39.1,140.5 C38.4,141.3 37.2,141.4 36.4,140.6 C35.6,139.9 35.6,138.7 36.3,137.9 C37,137.1 38.2,137.1 39,137.8 C39.7,138.6 39.8,139.7 39.1,140.5 L39.1,140.5 Z" id="Shape"></path>
                        <path d="M44.9,145.4 C44.2,146.2 43.1,146.3 42.2,145.7 C41.4,145 41.3,143.8 41.9,143 C42.6,142.2 43.7,142.1 44.6,142.8 C45.4,143.4 45.5,144.6 44.9,145.4 L44.9,145.4 Z" id="Shape"></path>
                        <path d="M50.8,150 C50.2,150.8 49,151 48.2,150.4 C47.4,149.8 47.2,148.6 47.8,147.8 C48.4,147 49.6,146.8 50.4,147.4 C51.3,148 51.4,149.2 50.8,150 L50.8,150 Z" id="Shape"></path>
                        <path d="M57,154.4 C56.4,155.3 55.2,155.5 54.4,154.9 C53.5,154.3 53.3,153.1 53.9,152.3 C54.5,151.5 55.7,151.3 56.5,151.9 C57.3,152.4 57.6,153.6 57,154.4 L57,154.4 Z" id="Shape"></path>
                        <path d="M63.3,158.6 C62.7,159.5 61.6,159.7 60.7,159.2 C59.8,158.6 59.6,157.4 60.2,156.6 C60.8,155.7 61.9,155.5 62.8,156.1 C63.6,156.6 63.8,157.7 63.3,158.6 L63.3,158.6 Z" id="Shape"></path>
                        <path d="M69.7,162.6 C69.2,163.5 68,163.8 67.1,163.2 C66.2,162.7 65.9,161.5 66.5,160.6 C67.1,159.7 68.2,159.5 69.1,160 C70,160.6 70.2,161.7 69.7,162.6 L69.7,162.6 Z" id="Shape"></path>
                    </g>
                </g>
            </g>
        </g>
    </g>
</svg>