<?xml version="1.0" encoding="UTF-8" standalone="no"?>
<svg width="228px" height="180px" viewBox="0 0 228 180" version="1.1" xmlns="http://www.w3.org/2000/svg" xmlns:xlink="http://www.w3.org/1999/xlink" xmlns:sketch="http://www.bohemiancoding.com/sketch/ns">
    <!-- Generator: Sketch 3.1.1 (8761) - http://www.bohemiancoding.com/sketch -->
    <title>layout-path-2</title>
    <desc>Created with Sketch.</desc>
    <defs></defs>
    <g id="Page-1" stroke="none" stroke-width="1" fill="none" fill-rule="evenodd" sketch:type="MSPage">
        <g id="main_top-copy" sketch:type="MSLayerGroup" transform="translate(-681.000000, -1759.000000)" fill="#FFFFFF">
            <g id="enter_hover" transform="translate(1.000000, 40.000000)" sketch:type="MSShapeGroup">
                <g id="layout-path-2" transform="translate(680.000000, 1719.000000)">
                    <path d="M99.5,10.1 L106.2,3.4 C107,2.6 107,1.4 106.2,0.6 C105.4,-0.2 104.2,-0.2 103.4,0.6 L96.7,7.3 L90,0.6 C89.2,-0.2 88,-0.2 87.2,0.6 C86.4,1.4 86.4,2.6 87.2,3.4 L93.9,10.1 L87.2,16.8 C86.4,17.6 86.4,18.8 87.2,19.6 C87.6,20 88.1,20.2 88.6,20.2 C89.1,20.2 89.6,20 90,19.6 L96.7,12.9 L103.4,19.6 C103.8,20 104.3,20.2 104.8,20.2 C105.3,20.2 105.8,20 106.2,19.6 C107,18.8 107,17.6 106.2,16.8 L99.5,10.1 L99.5,10.1 Z" id="Shape"></path>
                    <path d="M13.1,169.4 L19.8,162.7 C20.6,161.9 20.6,160.7 19.8,159.9 C19,159.1 17.8,159.1 17,159.9 L10.3,166.6 L3.6,159.9 C2.8,159.1 1.6,159.1 0.8,159.9 C5.68434189e-14,160.7 5.68434189e-14,161.9 0.8,162.7 L7.5,169.4 L0.8,176.1 C5.68434189e-14,176.9 5.68434189e-14,178.1 0.8,178.9 C1.2,179.3 1.7,179.5 2.2,179.5 C2.7,179.5 3.2,179.3 3.6,178.9 L10.3,172.2 L17,178.9 C17.4,179.3 17.9,179.5 18.4,179.5 C18.9,179.5 19.4,179.3 19.8,178.9 C20.6,178.1 20.6,176.9 19.8,176.1 L13.1,169.4 L13.1,169.4 Z" id="Shape"></path>
                    <g id="Group" transform="translate(27.000000, 29.000000)">
                        <path d="M72,3.8 C71,4.1 69.9,3.5 69.7,2.4 C69.6,1.9 69.7,1.3 70,0.9 C70.3,0.5 70.7,0.2 71.2,0.1 C71.7,-6.83203494e-14 72.2,0.2 72.6,0.4 C73,0.7 73.3,1 73.4,1.5 C73.5,2.5 73,3.5 72,3.8 L72,3.8 Z" id="Shape"></path>
                        <path d="M75.2,10.6 C74.3,11.2 73.2,10.9 72.6,10 C72,9 72.4,7.8 73.4,7.4 C74.4,7 75.4,7.3 75.9,8.1 C76.4,8.8 76.1,10 75.2,10.6 L75.2,10.6 Z" id="Shape"></path>
                        <path d="M80.2,16.2 C79.5,17 78.3,17 77.5,16.2 C76.7,15.4 76.8,14.2 77.6,13.5 C78.4,12.8 79.6,12.9 80.2,13.5 C80.8,14.3 80.9,15.4 80.2,16.2 L80.2,16.2 Z" id="Shape"></path>
                        <path d="M86.1,20.8 C85.5,21.7 84.3,21.9 83.5,21.3 C82.6,20.7 82.4,19.5 83.1,18.6 C83.8,17.7 84.9,17.6 85.7,18.2 C86.5,18.8 86.7,19.9 86.1,20.8 L86.1,20.8 Z" id="Shape"></path>
                        <path d="M92.6,24.6 C92.1,25.5 91,25.9 90,25.4 C89.1,24.9 88.8,23.7 89.3,22.8 C89.8,21.9 91,21.6 91.8,22.1 C92.7,22.5 93.1,23.7 92.6,24.6 L92.6,24.6 Z" id="Shape"></path>
                        <path d="M99.4,27.8 C99,28.8 97.9,29.2 96.9,28.8 C95.9,28.4 95.5,27.2 96,26.3 C96.4,25.4 97.6,24.9 98.5,25.4 C99.4,25.8 99.8,26.9 99.4,27.8 L99.4,27.8 Z" id="Shape"></path>
                        <path d="M106.3,30.7 C105.9,31.7 104.8,32.2 103.9,31.8 C102.9,31.4 102.4,30.3 102.8,29.4 C103.2,28.4 104.3,28 105.2,28.3 C106.2,28.6 106.7,29.7 106.3,30.7 L106.3,30.7 Z" id="Shape"></path>
                        <path d="M113.4,33.2 C113.1,34.2 112,34.7 111,34.4 C110,34.1 109.5,33 109.9,32 C110.3,31 111.3,30.5 112.3,30.9 C113.2,31.2 113.8,32.2 113.4,33.2 L113.4,33.2 Z" id="Shape"></path>
                        <path d="M120.5,35.6 C120.2,36.6 119.1,37.1 118.1,36.8 C117.1,36.5 116.6,35.4 116.9,34.4 C117.2,33.4 118.3,32.9 119.3,33.2 C120.3,33.6 120.9,34.6 120.5,35.6 L120.5,35.6 Z" id="Shape"></path>
                        <path d="M127.7,37.9 C127.4,38.9 126.3,39.4 125.3,39.1 C124.3,38.8 123.8,37.7 124.1,36.7 C124.4,35.7 125.5,35.2 126.5,35.5 C127.5,35.8 128,36.9 127.7,37.9 L127.7,37.9 Z" id="Shape"></path>
                        <circle id="Oval" transform="translate(132.795990, 39.891610) rotate(17.451093) translate(-132.795990, -39.891610) " cx="132.79599" cy="39.89161" r="1.90005321"></circle>
                        <path d="M142,42.4 C141.7,43.4 140.6,43.9 139.6,43.6 C138.6,43.3 138.1,42.2 138.4,41.2 C138.7,40.2 139.8,39.7 140.8,40 C141.8,40.4 142.4,41.4 142,42.4 L142,42.4 Z" id="Shape"></path>
                        <path d="M149.2,44.8 C148.9,45.8 147.8,46.3 146.8,46 C145.8,45.7 145.3,44.6 145.6,43.6 C145.9,42.6 147,42.1 148,42.4 C149,42.7 149.5,43.8 149.2,44.8 L149.2,44.8 Z" id="Shape"></path>
                        <path d="M156.2,47.3 C155.8,48.3 154.8,48.8 153.8,48.4 C152.8,48.1 152.3,47 152.7,46 C153,45 154.1,44.5 155.1,44.9 C156.1,45.3 156.6,46.4 156.2,47.3 L156.2,47.3 Z" id="Shape"></path>
                        <path d="M163.2,50.1 C162.8,51.1 161.7,51.5 160.8,51.1 C159.9,50.7 159.4,49.6 159.8,48.7 C160.2,47.7 161.3,47.2 162.3,47.7 C163.2,48 163.6,49.1 163.2,50.1 L163.2,50.1 Z" id="Shape"></path>
                        <path d="M170.1,53.2 C169.6,54.1 168.5,54.5 167.6,54.1 C166.7,53.7 166.3,52.6 166.7,51.6 C167.1,50.6 168.2,50.2 169.2,50.7 C170.1,51.1 170.5,52.3 170.1,53.2 L170.1,53.2 Z" id="Shape"></path>
                        <path d="M176.7,56.7 C176.2,57.6 175,57.9 174.1,57.4 C173.2,56.9 172.9,55.8 173.4,54.8 C173.9,53.9 175,53.5 176,54.1 C176.9,54.7 177.2,55.8 176.7,56.7 L176.7,56.7 Z" id="Shape"></path>
                        <path d="M183,60.9 C182.4,61.7 181.2,61.9 180.4,61.4 C179.6,60.8 179.4,59.7 179.9,58.8 C180.5,57.9 181.7,57.7 182.5,58.3 C183.4,58.8 183.6,60 183,60.9 L183,60.9 Z" id="Shape"></path>
                        <path d="M188.7,65.8 C188,66.5 186.8,66.5 186.1,65.9 C185.4,65.2 185.3,64.1 186,63.3 C186.7,62.5 187.9,62.4 188.7,63.2 C189.4,63.8 189.4,65 188.7,65.8 L188.7,65.8 Z" id="Shape"></path>
                        <path d="M193.4,71.6 C192.5,72.2 191.4,71.9 190.8,71.2 C190.5,70.8 190.4,70.3 190.5,69.8 C190.6,69.3 190.8,68.9 191.2,68.6 C191.6,68.3 192.1,68.1 192.6,68.2 C193.1,68.3 193.5,68.5 193.9,69 C194.5,69.8 194.2,71.1 193.4,71.6 L193.4,71.6 Z" id="Shape"></path>
                        <path d="M196.7,78.3 C195.7,78.6 194.7,78.1 194.3,77.3 C193.9,76.4 194.3,75.3 195.3,74.9 C196.2,74.4 197.4,74.9 197.8,75.9 C198.2,76.9 197.6,78 196.7,78.3 L196.7,78.3 Z" id="Shape"></path>
                        <path d="M198.2,85.7 C197.2,85.8 196.2,85.1 196.1,84.1 C195.9,83.2 196.6,82.2 197.6,82 C198.6,81.8 199.6,82.5 199.8,83.6 C200,84.6 199.3,85.6 198.2,85.7 L198.2,85.7 Z" id="Shape"></path>
                        <path d="M198.2,93.2 C197.2,93.1 196.4,92.3 196.4,91.3 C196.4,90.3 197.3,89.5 198.4,89.5 C199.4,89.5 200.2,90.4 200.2,91.4 C200.2,92.4 199.2,93.2 198.2,93.2 L198.2,93.2 Z" id="Shape"></path>
                        <path d="M197.3,100.6 C196.8,100.5 196.4,100.2 196.1,99.8 C195.8,99.4 195.7,98.9 195.7,98.4 C195.8,97.4 196.8,96.7 197.8,96.8 C198.8,96.9 199.6,97.9 199.4,99 C199.3,99.5 199.1,100 198.7,100.3 C198.3,100.6 197.8,100.7 197.3,100.6 L197.3,100.6 Z" id="Shape"></path>
                        <path d="M195.4,107.9 C194.4,107.6 193.9,106.5 194.2,105.6 C194.5,104.7 195.5,104.1 196.5,104.3 C197.5,104.6 198.2,105.6 197.8,106.6 C197.4,107.7 196.4,108.2 195.4,107.9 L195.4,107.9 Z" id="Shape"></path>
                        <path d="M192.4,114.8 C191.5,114.3 191.2,113.2 191.5,112.3 C191.9,111.4 193,111 194,111.4 C195,111.8 195.4,112.9 194.9,113.9 C194.6,114.9 193.3,115.3 192.4,114.8 L192.4,114.8 Z" id="Shape"></path>
                        <path d="M188.4,121.1 C187.6,120.5 187.4,119.3 187.9,118.5 C188.5,117.7 189.6,117.5 190.5,118.1 C191.4,118.7 191.6,119.8 190.9,120.7 C190.4,121.6 189.2,121.8 188.4,121.1 L188.4,121.1 Z" id="Shape"></path>
                        <path d="M183.2,126.6 C182.5,125.8 182.5,124.6 183.3,124 C183.7,123.7 184.1,123.5 184.6,123.5 C185.1,123.5 185.5,123.7 185.9,124 C186.3,124.4 186.5,124.8 186.5,125.3 C186.5,125.8 186.3,126.3 185.9,126.6 C185.1,127.4 183.9,127.4 183.2,126.6 L183.2,126.6 Z" id="Shape"></path>
                        <path d="M177.1,131 C176.6,130.1 176.8,128.9 177.7,128.4 C178.1,128.1 178.6,128.1 179.1,128.2 C179.6,128.3 180,128.5 180.3,129 C180.6,129.4 180.7,129.9 180.6,130.4 C180.5,130.9 180.2,131.3 179.7,131.6 C178.8,132.1 177.7,131.9 177.1,131 L177.1,131 Z" id="Shape"></path>
                        <path d="M170.3,134 C170,133 170.5,132 171.4,131.6 C172.3,131.2 173.4,131.7 173.8,132.7 C174.2,133.7 173.8,134.7 172.7,135.1 C171.7,135.5 170.6,135 170.3,134 L170.3,134 Z" id="Shape"></path>
                        <path d="M162.9,135.4 C162.9,134.4 163.6,133.5 164.6,133.4 C165.5,133.2 166.5,133.9 166.7,135 C166.9,136 166.2,137 165.1,137.2 C163.9,137.2 163,136.4 162.9,135.4 L162.9,135.4 Z" id="Shape"></path>
                        <path d="M155.4,135.2 C155.5,134.2 156.4,133.4 157.4,133.5 C158.4,133.5 159.2,134.4 159.2,135.4 C159.2,136.4 158.3,137.3 157.2,137.2 C156.1,137.1 155.3,136.2 155.4,135.2 L155.4,135.2 Z" id="Shape"></path>
                        <path d="M148,134.2 C148.2,133.2 149.2,132.5 150.1,132.6 C151.1,132.7 151.8,133.7 151.7,134.7 C151.6,135.7 150.6,136.4 149.6,136.3 C148.5,136.2 147.8,135.3 148,134.2 L148,134.2 Z" id="Shape"></path>
                        <path d="M140.7,132.4 C141,131.4 142.1,130.8 143,131.1 C144,131.4 144.5,132.4 144.3,133.4 C144.1,134.4 143,135 142,134.7 C140.9,134.4 140.3,133.4 140.7,132.4 L140.7,132.4 Z" id="Shape"></path>
                        <path d="M133.7,129.5 C134.2,128.6 135.3,128.2 136.2,128.6 C137.1,129 137.5,130.1 137.1,131.1 C136.7,132.1 135.6,132.5 134.6,132 C133.7,131.6 133.3,130.5 133.7,129.5 L133.7,129.5 Z" id="Shape"></path>
                        <path d="M127.3,125.6 C127.9,124.7 129,124.6 129.9,125.1 C130.7,125.6 131,126.8 130.4,127.7 C129.9,128.6 128.7,128.8 127.8,128.3 C126.9,127.7 126.7,126.4 127.3,125.6 L127.3,125.6 Z" id="Shape"></path>
                        <path d="M121.6,120.8 C122.3,120 123.5,120 124.2,120.7 C124.9,121.4 125,122.5 124.4,123.3 C123.7,124.1 122.5,124.2 121.7,123.5 C120.9,122.8 120.8,121.6 121.6,120.8 L121.6,120.8 Z" id="Shape"></path>
                        <path d="M116.4,115.4 C117.2,114.7 118.4,114.8 119,115.5 C119.7,116.2 119.6,117.4 118.9,118.1 C118.1,118.8 117,118.8 116.2,118 C115.5,117.3 115.6,116.1 116.4,115.4 L116.4,115.4 Z" id="Shape"></path>
                        <path d="M111.5,109.7 C112.3,109 113.5,109.1 114.2,109.9 C114.9,110.7 114.8,111.9 114,112.6 C113.2,113.3 112,113.2 111.3,112.4 C110.6,111.5 110.7,110.3 111.5,109.7 L111.5,109.7 Z" id="Shape"></path>
                        <path d="M106.6,104 C107.4,103.3 108.6,103.4 109.3,104.2 C110,105 109.9,106.2 109.1,106.9 C108.3,107.6 107.1,107.5 106.5,106.7 C105.7,105.9 105.8,104.7 106.6,104 L106.6,104 Z" id="Shape"></path>
                        <path d="M101.2,98.7 C101.9,97.9 103.1,97.8 103.9,98.6 C104.7,99.3 104.7,100.5 104,101.3 C103.3,102 102.1,102.1 101.4,101.4 C100.6,100.6 100.5,99.5 101.2,98.7 L101.2,98.7 Z" id="Shape"></path>
                        <path d="M95.2,94.3 C95.5,93.9 95.9,93.5 96.4,93.4 C96.9,93.3 97.4,93.4 97.8,93.7 C98.7,94.3 98.9,95.5 98.3,96.3 C97.7,97.1 96.5,97.3 95.7,96.8 C95.3,96.5 95,96.1 94.9,95.6 C94.8,95.2 94.9,94.7 95.2,94.3 L95.2,94.3 Z" id="Shape"></path>
                        <path d="M88.4,91.1 C88.7,90.1 89.8,89.6 90.9,90 C91.9,90.4 92.4,91.6 91.9,92.5 C91.4,93.5 90.4,93.8 89.5,93.5 C88.5,93.2 88,92.1 88.4,91.1 L88.4,91.1 Z" id="Shape"></path>
                        <path d="M81.1,89.3 C81.2,88.3 82.2,87.6 83.3,87.8 C84.4,88 85,89 84.8,90 C84.6,91 83.6,91.6 82.6,91.5 C81.6,91.4 80.9,90.4 81.1,89.3 L81.1,89.3 Z" id="Shape"></path>
                        <path d="M73.6,88.8 C73.6,87.8 74.5,86.9 75.5,87 C76.6,87 77.4,87.9 77.3,88.9 C77.2,89.9 76.4,90.8 75.4,90.7 C74.4,90.7 73.6,89.9 73.6,88.8 L73.6,88.8 Z" id="Shape"></path>
                        <path d="M66.1,89.2 C66,88.2 66.8,87.3 67.8,87.2 C68.9,87.1 69.8,87.9 69.8,88.9 C69.8,89.9 69.1,90.8 68.1,90.9 C67.1,91 66.2,90.2 66.1,89.2 L66.1,89.2 Z" id="Shape"></path>
                        <path d="M58.6,90.4 C58.4,89.4 59.1,88.4 60.1,88.2 C61.1,88 62.1,88.7 62.3,89.7 C62.5,90.7 61.8,91.7 60.8,91.9 C59.8,92.1 58.9,91.4 58.6,90.4 L58.6,90.4 Z" id="Shape"></path>
                        <path d="M51.4,92.2 C51.1,91.2 51.7,90.2 52.7,89.9 C53.7,89.6 54.8,90.2 55,91.2 C55.2,92.2 54.7,93.2 53.7,93.5 C52.7,93.8 51.7,93.2 51.4,92.2 L51.4,92.2 Z" id="Shape"></path>
                        <path d="M44.3,94.7 C43.9,93.7 44.4,92.6 45.4,92.3 C46.4,91.9 47.5,92.4 47.8,93.4 C48.1,94.4 47.6,95.5 46.7,95.8 C45.7,96.1 44.6,95.6 44.3,94.7 L44.3,94.7 Z" id="Shape"></path>
                        <path d="M37.4,97.7 C36.9,96.8 37.4,95.6 38.3,95.2 C39.3,94.8 40.4,95.2 40.8,96.1 C41.2,97.1 40.8,98.2 39.9,98.6 C38.9,99 37.8,98.6 37.4,97.7 L37.4,97.7 Z" id="Shape"></path>
                        <path d="M30.7,101.1 C30.2,100.2 30.5,99 31.4,98.5 C32.3,98 33.5,98.3 34,99.3 C34.5,100.2 34.1,101.4 33.2,101.8 C32.4,102.4 31.2,102.1 30.7,101.1 L30.7,101.1 Z" id="Shape"></path>
                        <path d="M24.3,105 C23.7,104.1 24,102.9 24.9,102.4 C25.8,101.9 27,102.1 27.5,103 C28,103.9 27.8,105 26.9,105.6 C26,106.2 24.8,105.9 24.3,105 L24.3,105 Z" id="Shape"></path>
                        <path d="M18.1,109.3 C17.5,108.5 17.7,107.3 18.5,106.7 C19.4,106.1 20.5,106.3 21.1,107.2 C21.7,108.1 21.5,109.2 20.6,109.8 C19.9,110.3 18.7,110.1 18.1,109.3 L18.1,109.3 Z" id="Shape"></path>
                        <path d="M12.1,113.8 C11.4,113 11.6,111.8 12.4,111.1 C13.2,110.5 14.4,110.6 15.1,111.4 C15.7,112.2 15.6,113.4 14.8,114 C13.9,114.8 12.8,114.7 12.1,113.8 L12.1,113.8 Z" id="Shape"></path>
                        <path d="M6.4,118.7 C5.7,117.9 5.8,116.7 6.6,116 C7.4,115.3 8.6,115.4 9.3,116.2 C10,117 9.9,118.2 9.1,118.8 C8.3,119.6 7.1,119.5 6.4,118.7 L6.4,118.7 Z" id="Shape"></path>
                        <path d="M0.9,123.9 C0.2,123.2 0.2,122 0.9,121.2 C1.7,120.5 2.9,120.5 3.6,121.2 C4.3,122 4.3,123.1 3.6,123.9 C2.8,124.6 1.7,124.6 0.9,123.9 L0.9,123.9 Z" id="Shape"></path>
                    </g>
                </g>
            </g>
        </g>
    </g>
</svg>