<?xml version="1.0" standalone="no"?>
<!DOCTYPE svg PUBLIC "-//W3C//DTD SVG 1.1//EN" "http://www.w3.org/Graphics/SVG/1.1/DTD/svg11.dtd" >
<svg xmlns="http://www.w3.org/2000/svg">
<metadata>
Created by FontPrep 20130207 at Fri Oct  3 23:26:58 2014
 By John Grishin
Copyright (c) JT Types Ltd, 2006. All rights reserved.
</metadata>
<defs>
<font id="46549641e95c01a033e65f1d36773e02" horiz-adv-x='1024' >
  <font-face 
    font-family="BlissPro-Italic"
    font-weight="400"
    font-style="italic"
    font-stretch="normal"
    units-per-em="2048"
    panose-1="2 0 5 6 5 0 0 9 0 4"
    ascent="1638"
    descent="-410"
    x-height="969"
    cap-height="1350"
    bbox="-438 -494 2300 1952"
    underline-thickness="102"
    underline-position="-102"
    slope="-12"
    unicode-range="U+0020-FB02"
  />
<missing-glyph horiz-adv-x="1126" 
d="M522 219q-34 0 -56 23q-22 24 -22 58t23 58t55 23q32 0 55 -24q21 -25 21 -59t-22 -56t-54 -23zM414 572q0 58 42 105q42 48 91 79t91 77t42 93q0 48 -32 74t-81 26q-84 0 -174 -80l-55 72q100 104 240 104q98 0 157 -52t59 -124t-41 -130t-93 -93q-136 -92 -136 -139
q0 -33 35 -72l-86 -57q-59 59 -59 117zM207 98h713v1153h-713v-1153zM102 0v1350h922v-1350h-922z" />
    <glyph glyph-name="fi" unicode="fi" horiz-adv-x="1120" 
d="M1011 1169q-50 0 -79 29t-29 79t39 86t89 36t79 -29t29 -78t-39 -86t-89 -37zM664 0l206 969h179l-209 -969h-176zM641 1450q111 0 188 -47l-57 -139q-61 31 -123 30q-156 0 -192 -200l-21 -125h228l-56 -146h-194q-103 -668 -205 -903q-103 -234 -279 -387l-114 119
q186 180 267 419t153 752h-152l22 146h150l20 129q23 121 70 194q102 158 295 158z" />
    <glyph glyph-name="fl" unicode="fl" horiz-adv-x="1177" 
d="M864 -12q-78 0 -128 44t-50 128q0 33 12 100l254 1190h178l-253 -1188q-8 -35 -9 -63q0 -53 60 -54q35 0 78 15v-148q-64 -24 -142 -24zM641 1450q111 0 188 -47l-57 -139q-61 31 -123 30q-156 0 -192 -200l-21 -125h228l-56 -146h-194q-103 -668 -205 -903
q-103 -234 -279 -387l-114 119q186 180 267 419t153 752h-152l22 146h150l20 129q23 121 70 194q102 158 295 158z" />
    <glyph glyph-name=".notdef" horiz-adv-x="1126" 
d="M522 219q-34 0 -56 23q-22 24 -22 58t23 58t55 23q32 0 55 -24q21 -25 21 -59t-22 -56t-54 -23zM414 572q0 58 42 105q42 48 91 79t91 77t42 93q0 48 -32 74t-81 26q-84 0 -174 -80l-55 72q100 104 240 104q98 0 157 -52t59 -124t-41 -130t-93 -93q-136 -92 -136 -139
q0 -33 35 -72l-86 -57q-59 59 -59 117zM207 98h713v1153h-713v-1153zM102 0v1350h922v-1350h-922z" />
    <glyph glyph-name=".null" horiz-adv-x="0" 
 />
    <glyph glyph-name="nonmarkingreturn" horiz-adv-x="681" 
 />
    <glyph glyph-name="space" unicode=" " horiz-adv-x="366" 
 />
    <glyph glyph-name="exclam" unicode="!" horiz-adv-x="571" 
d="M170 371q8 184 33 334t108 538l23 107h180l-22 -107q-117 -545 -152 -657t-74 -215h-96zM281 102q0 -46 -35 -82t-82 -36t-75 30t-28 77q0 48 34 84t81 36t76 -31t29 -78z" />
    <glyph glyph-name="quotedbl" unicode="&#x22;" horiz-adv-x="907" 
d="M729 989l-123 25l96 450l168 -34zM385 989l-125 25l96 450l170 -34z" />
    <glyph glyph-name="numbersign" unicode="#" horiz-adv-x="1390" 
d="M506 504h268l111 348h-269zM172 0l113 358h-254l14 146h287l110 348h-256l15 145h286l111 351h174l-110 -351h268l110 351h174l-110 -351h252l-15 -145h-284l-109 -348h254l-14 -146h-287l-113 -358h-174l113 358h-268l-113 -358h-174z" />
    <glyph glyph-name="dollar" unicode="$" horiz-adv-x="1083" 
d="M392 182q122 0 199 50t77 165q0 61 -31 113t-76 84q-137 100 -190 143q-115 92 -115 239q0 148 96 242t250 109l39 191h143l-41 -193q117 -14 207 -59l-32 -148q-120 64 -234 64t-179 -44t-65 -141t107 -170q139 -96 191 -142q114 -101 114 -267t-106 -264t-271 -117
l-43 -205h-143l43 205q-133 12 -244 80l64 139q118 -74 240 -74z" />
    <glyph glyph-name="percent" unicode="%" horiz-adv-x="1789" 
d="M1229 98q90 0 146 98t57 218q0 162 -125 161q-89 0 -145 -98t-56 -219q0 -160 123 -160zM1217 -20q-123 0 -192 72t-69 202q0 188 100 314t265 126q123 0 191 -74t67 -200q0 -188 -99 -314t-263 -126zM467 766q92 0 147 97t56 218q0 162 -123 162q-91 0 -147 -98
t-56 -219q0 -160 123 -160zM455 647q-123 0 -192 73t-68 202q0 188 99 314t265 126q123 0 191 -74t67 -203q0 -188 -99 -313t-263 -125zM309 0l1004 1350h160l-1004 -1350h-160z" />
    <glyph glyph-name="ampersand" unicode="&#x26;" horiz-adv-x="1589" 
d="M518 -20q-203 0 -329 101t-126 270t110 280t310 147v4q-170 80 -170 254q0 146 118 236q117 90 313 90t341 -84l-51 -143q-143 78 -297 77q-104 0 -173 -44t-68 -134q0 -164 219 -225l-29 -131q-207 0 -324 -82q-116 -82 -116 -206t76 -192t215 -69q201 0 361 131
t220 389h-170l31 146h569l-59 -146h-201q-37 -174 -119 -306q-151 -242 -410 -326q-118 -37 -241 -37z" />
    <glyph glyph-name="quotesingle" unicode="'" horiz-adv-x="561" 
d="M385 989l-125 25l96 450l170 -34z" />
    <glyph glyph-name="parenleft" unicode="(" horiz-adv-x="679" 
d="M129 272q0 340 133 690t406 617l102 -106q-217 -227 -338 -543t-121 -660q0 -222 36 -372t112 -293l-133 -82q-197 274 -197 749z" />
    <glyph glyph-name="parenright" unicode=")" horiz-adv-x="679" 
d="M545 829q1 -340 -133 -690t-406 -616l-102 106q217 227 338 543t120 659q0 223 -35 373q-36 150 -112 293l133 82q197 -274 197 -750z" />
    <glyph glyph-name="asterisk" unicode="*" horiz-adv-x="997" 
d="M479 690l-127 55q25 57 88 161t76 128q-242 -69 -323 -73l-15 135q39 8 171 5t157 -1q-14 16 -99 103t-122 140l108 80q39 -49 99 -161t69 -123q8 23 41 141t60 174l124 -53q-22 -61 -90 -169t-73 -120q10 2 135 35t190 37l15 -137q-51 -16 -330 0q14 -15 99 -103
t122 -141l-113 -82q-37 51 -93 157t-73 130q-8 -29 -33 -131t-63 -187z" />
    <glyph glyph-name="plus" unicode="+" horiz-adv-x="1087" 
d="M434 0v440h-399v152h399v430h168v-430h402v-152h-402v-440h-168z" />
    <glyph glyph-name="comma" unicode="," horiz-adv-x="481" 
d="M-23 -272l-83 67q92 101 126 199t37 223h179q-1 -305 -259 -489z" />
    <glyph glyph-name="hyphen" unicode="-" horiz-adv-x="700" 
d="M37 430l33 156h512l-33 -156h-512z" />
    <glyph glyph-name="period" unicode="." horiz-adv-x="481" 
d="M238 101q0 -49 -34 -83t-81 -34t-75 30t-28 77q0 48 34 84t81 36t75 -31t28 -79z" />
    <glyph glyph-name="slash" unicode="/" horiz-adv-x="800" 
d="M-31 -66l674 1491h188l-673 -1491h-189z" />
    <glyph glyph-name="zero" unicode="0" horiz-adv-x="1099" 
d="M446 135q106 0 197 112q90 112 141 293t52 382q0 285 -187 284q-106 0 -195 -112q-88 -112 -140 -294q-52 -181 -52 -382q0 -283 184 -283zM1026 901q0 -225 -66 -431t-204 -348t-318 -142t-273 118t-93 340q0 346 149 625q72 133 187 216t251 83q179 0 273 -118t94 -343
z" />
    <glyph glyph-name="one" unicode="1" horiz-adv-x="845" 
d="M274 0l244 1147q-137 -80 -344 -127v151q86 23 210 78t204 111h153l-290 -1360h-177z" />
    <glyph glyph-name="two" unicode="2" horiz-adv-x="1064" 
d="M573 1206q-150 0 -325 -84l-35 146q201 94 379 94t279 -84t101 -215t-62 -222q-64 -91 -159 -160t-195 -137t-185 -167q-86 -100 -117 -223h625l-33 -154h-832q20 143 74 262q53 119 123 196q122 135 302 252q75 48 136 95q137 105 135 227q0 174 -211 174z" />
    <glyph glyph-name="three" unicode="3" horiz-adv-x="1071" 
d="M337 135q150 0 259 66t109 207q0 112 -80 156t-242 44h-158l21 148h88q256 0 366 114q62 62 62 156t-60 137t-184 43q-122 0 -287 -71l-32 141q188 86 369 86q180 0 282 -84t102 -229q0 -256 -288 -353v-4q231 -49 231 -274q0 -190 -151 -314t-379 -125q-228 0 -373 80
l76 144q119 -68 269 -68z" />
    <glyph glyph-name="four" unicode="4" horiz-adv-x="1177" 
d="M283 498l182 2h207l57 262q33 152 78 315zM563 0l74 350h-539l-18 137l801 873h149l-182 -860h203l-33 -150h-203l-74 -350h-178z" />
    <glyph glyph-name="five" unicode="5" horiz-adv-x="1062" 
d="M341 135q150 0 258 78t108 225q0 225 -345 226h-169l141 686h710l-53 -154h-510l-80 -385h60q215 0 325 -99t111 -255q0 -213 -154 -345t-383 -132t-358 79l76 144q113 -68 263 -68z" />
    <glyph glyph-name="six" unicode="6" horiz-adv-x="1150" 
d="M548 131q110 0 190 86q80 87 81 207q0 120 -56 187t-168 67t-194 -85t-82 -205t59 -189q60 -68 170 -68zM544 -20q-192 0 -305 120q-112 120 -112 363q0 385 210 642t542 257q98 0 196 -33l-55 -141q-61 23 -146 22q-216 0 -366 -156t-197 -392h4q51 76 141 122t191 45
q166 0 264 -101q99 -102 99 -290t-137 -323t-329 -135z" />
    <glyph glyph-name="seven" unicode="7" horiz-adv-x="968" 
d="M1001 1350v-74q-522 -610 -682 -1276h-190q166 655 629 1196h-604l-17 154h864z" />
    <glyph glyph-name="eight" unicode="8" horiz-adv-x="1155" 
d="M893 1026q0 92 -65 141q-64 49 -166 49t-178 -58t-74 -150q0 -92 56 -155q56 -64 155 -95q272 82 272 268zM270 334q0 -102 76 -156t192 -53q116 -1 202 65q87 66 87 170t-74 162q-75 59 -216 101q-121 -39 -194 -113t-73 -176zM521 -20q-201 0 -321 93t-120 243t87 242
q87 93 230 140v4q-178 104 -178 289q0 160 126 265q127 106 321 106t306 -89t112 -223t-87 -223q-86 -90 -211 -137v-4q231 -90 232 -307q0 -183 -148 -291t-349 -108z" />
    <glyph glyph-name="nine" unicode="9" horiz-adv-x="1167" 
d="M340 900q0 -254 239 -255q125 0 273 107q10 57 10 120q0 158 -67 248q-68 90 -186 90q-117 0 -193 -94t-76 -216zM352 131q389 0 484 465h-5q-139 -100 -307 -100t-271 97t-103 297t132 336t328 136t315 -130q120 -130 119 -374q0 -418 -183 -648t-499 -230
q-151 0 -260 51l52 143q86 -43 198 -43z" />
    <glyph glyph-name="colon" unicode=":" horiz-adv-x="481" 
d="M262 684q-47 0 -75 30q-27 30 -27 78t34 82q34 35 81 35q47 1 75 -29t27 -78q0 -48 -34 -83t-81 -35zM238 101q0 -49 -34 -83t-81 -34t-75 30t-28 77q0 48 34 84t81 36t75 -31t28 -79z" />
    <glyph glyph-name="semicolon" unicode=";" horiz-adv-x="481" 
d="M237 684q-47 0 -75 30t-27 78q0 48 34 82q34 35 81 35q47 1 76 -29q28 -30 28 -78t-35 -83t-82 -35zM-23 -272l-83 67q92 101 126 199t37 223h179q-1 -305 -259 -489z" />
    <glyph glyph-name="less" unicode="&#x3c;" horiz-adv-x="1224" 
d="M141 457v151l863 377v-156l-699 -294v-5l699 -294v-156z" />
    <glyph glyph-name="equal" unicode="=" horiz-adv-x="1087" 
d="M53 625v151h969v-151h-969zM53 258v152h969v-152h-969z" />
    <glyph glyph-name="greater" unicode="&#x3e;" horiz-adv-x="1224" 
d="M207 80v156l698 294v5l-698 294v156l862 -377v-151z" />
    <glyph glyph-name="question" unicode="?" horiz-adv-x="923" 
d="M711 1071q0 65 -43 101t-119 36q-137 0 -273 -100l-65 129q172 125 369 125q133 0 223 -72t90 -187t-57 -196t-248 -234q-60 -50 -120 -130t-83 -172h-117q4 111 51 201t112 152q65 60 128 112t108 111q44 58 44 124zM287 -16q-47 0 -75 30t-28 77q0 48 34 84t81 36
t75 -31t28 -79t-34 -83q-34 -34 -81 -34z" />
    <glyph glyph-name="at" unicode="@" horiz-adv-x="1579" 
d="M690 188q84 0 152 77t88 253l20 162q-55 39 -133 39q-113 0 -189 -92t-75 -240q0 -199 137 -199zM688 -287q-276 -1 -454 185t-177 491q0 350 216 564q217 214 523 214t498 -178t193 -469q0 -223 -96 -342t-248 -119q-82 0 -135 45t-66 127h-4q-31 -67 -108 -117
t-178 -50t-178 76t-77 260t120 312t288 128t303 -82l-43 -330q-10 -66 -10 -106q0 -139 102 -140q88 0 141 89t54 241q0 225 -144 381t-406 156q-261 1 -434 -177t-173 -460t144 -430q144 -150 366 -150q152 0 260 49l36 -112q-141 -56 -313 -56z" />
    <glyph glyph-name="A" unicode="A" horiz-adv-x="1187" 
d="M373 504h368l-61 399q-16 111 -27 178h-4q-68 -156 -84 -188zM-90 0l717 1354h143l246 -1354h-189l-61 354h-475l-180 -354h-201z" />
    <glyph glyph-name="B" unicode="B" horiz-adv-x="1110" 
d="M412 150q170 0 266 76t96 200q0 90 -61 139t-168 49h-215l-97 -464h179zM530 764q129 0 199 79t70 168q0 187 -207 187h-137l-93 -434h168zM610 1350q188 0 280 -88t91 -220q0 -236 -229 -335v-5q84 -20 145 -89t61 -173q0 -182 -150 -311t-431 -129h-357l287 1350h303z
" />
    <glyph glyph-name="C" unicode="C" horiz-adv-x="1210" 
d="M657 -20q-257 0 -411 148t-154 411q0 356 222 589t560 234q182 0 336 -72l-36 -155q-143 72 -297 71q-262 0 -428 -189t-166 -460q0 -190 102 -306q103 -116 279 -116t342 84l34 -149q-174 -90 -383 -90z" />
    <glyph glyph-name="D" unicode="D" horiz-adv-x="1306" 
d="M1028 805q0 391 -489 391h-84l-222 -1042h134q408 0 573 289q88 155 88 362zM545 1350q231 0 381 -68q293 -129 293 -487q0 -251 -120 -441q-223 -355 -751 -354h-328l287 1350h238z" />
    <glyph glyph-name="E" unicode="E" horiz-adv-x="958" 
d="M20 0l287 1350h654l-62 -154h-444l-90 -430h436l-33 -154h-438l-97 -458h498l-33 -154h-678z" />
    <glyph glyph-name="F" unicode="F" horiz-adv-x="923" 
d="M20 0l287 1350h654l-60 -154h-446l-90 -430h434l-33 -154h-436l-129 -612h-181z" />
    <glyph glyph-name="G" unicode="G" horiz-adv-x="1355" 
d="M667 -20q-259 0 -417 148t-158 417q0 217 94 401t278 300t410 116t404 -82l-37 -156q-154 84 -340 84q-276 0 -447 -186t-171 -457q-1 -215 109 -323t281 -107q171 0 265 49l100 459h179l-121 -565q-170 -98 -429 -98z" />
    <glyph glyph-name="H" unicode="H" horiz-adv-x="1363" 
d="M20 0l287 1350h180l-125 -586h676l125 586h180l-286 -1350h-180l129 608h-676l-129 -608h-181z" />
    <glyph glyph-name="I" unicode="I" horiz-adv-x="507" 
d="M20 0l287 1350h180l-286 -1350h-181z" />
    <glyph glyph-name="J" unicode="J" horiz-adv-x="591" 
d="M-109 -375q-104 0 -184 35l55 145q51 -25 129 -24q117 0 168 92q35 68 52 160l280 1317h180l-284 -1336q-31 -152 -80 -235q-96 -154 -316 -154z" />
    <glyph glyph-name="K" unicode="K" horiz-adv-x="1120" 
d="M20 0l287 1350h180l-131 -621h6l588 621h219l-671 -703l450 -647h-217l-401 590h-4l-125 -590h-181z" />
    <glyph glyph-name="L" unicode="L" horiz-adv-x="886" 
d="M20 0l287 1350h180l-254 -1196h492l-35 -154h-670z" />
    <glyph glyph-name="M" unicode="M" horiz-adv-x="1609" 
d="M20 0l287 1350h172l209 -574q12 -35 45 -127t45 -129h4q94 137 150 209l467 621h190l-286 -1350h-181l150 700q43 207 80 340h-6q-86 -123 -164 -221l-391 -518h-99l-188 508q-63 180 -80 231h-4q-33 -162 -72 -344l-147 -696h-181z" />
    <glyph glyph-name="N" unicode="N" horiz-adv-x="1435" 
d="M20 0l287 1350h170l445 -871q47 -90 90 -190h4q15 94 39 207l180 854h182l-289 -1350h-149l-459 899q-74 147 -90 188h-4q-10 -68 -35 -194l-190 -893h-181z" />
    <glyph glyph-name="O" unicode="O" horiz-adv-x="1470" 
d="M651 135q240 0 387 202t148 460q0 197 -93 303t-263 106t-296 -99t-188 -247t-63 -328q0 -180 94 -288t274 -109zM1378 799q0 -215 -89 -401t-260 -302t-407 -116t-382 147q-147 147 -148 418q0 215 89 400t260 301t407 116t382 -146q148 -146 148 -417z" />
    <glyph glyph-name="P" unicode="P" horiz-adv-x="1048" 
d="M406 637q104 0 174 29q104 32 159 112t56 189q0 160 -142 211q-57 23 -143 22h-55l-119 -563h70zM514 1350q283 0 400 -164q65 -90 65 -232t-91 -264q-153 -203 -509 -203h-76l-102 -487h-181l287 1350h207z" />
    <glyph glyph-name="Q" unicode="Q" horiz-adv-x="1470" 
d="M651 135q240 0 387 202t148 460q0 197 -93 303t-263 106t-296 -99t-188 -247t-63 -328q0 -180 94 -288t274 -109zM92 556q0 204 89 389t260 301t407 116t382 -146q148 -146 148 -438q0 -290 -182 -526t-477 -260q-35 -4 -72 0v-4q12 -6 84 -58q154 -110 289 -108
q90 0 184 28l37 -141q-121 -41 -250 -41q-295 0 -551 285q-18 20 -117 105t-141 153q-90 141 -90 345z" />
    <glyph glyph-name="R" unicode="R" horiz-adv-x="1097" 
d="M467 713q162 1 255 73t93 207q0 95 -61 151t-193 56h-106l-103 -487h115zM573 1350q215 0 321 -98t105 -254q0 -156 -97 -258t-267 -136v-4q31 -51 90 -178l190 -422h-196l-146 342q-78 168 -108 221h-146l-118 -563h-181l287 1350h266z" />
    <glyph glyph-name="S" unicode="S" horiz-adv-x="964" 
d="M318 135q132 0 212 54t80 179t-115 210q-115 86 -206 160q-49 40 -81 106t-32 147q0 164 117 267q117 104 298 104t316 -68l-33 -155q-126 69 -250 69t-192 -51t-68 -131t46 -136q45 -56 108 -100q62 -44 126 -94t110 -131q46 -80 45 -182q0 -197 -132 -300
q-133 -103 -329 -103t-346 90l74 143q121 -78 252 -78z" />
    <glyph glyph-name="T" unicode="T" horiz-adv-x="1007" 
d="M268 0l254 1196h-397l33 154h981l-66 -154h-371l-253 -1196h-181z" />
    <glyph glyph-name="U" unicode="U" horiz-adv-x="1333" 
d="M586 -20q-234 0 -352 105t-117 288q0 63 24 186l168 791h180l-170 -795q-20 -96 -20 -160q0 -129 73 -195t201 -67q173 0 259 89t120 253l187 875h180l-189 -893q-49 -229 -165 -340q-145 -137 -379 -137z" />
    <glyph glyph-name="V" unicode="V" horiz-adv-x="1177" 
d="M428 -8l-281 1358h195l150 -799q39 -219 47 -281h4q55 129 127 256l434 824h203l-744 -1358h-135z" />
    <glyph glyph-name="W" unicode="W" horiz-adv-x="1712" 
d="M334 -8l-187 1358h197l90 -775q16 -137 31 -309h4q51 137 125 283l280 573l-30 228h180l94 -777q16 -119 33 -307h4q43 129 117 287l368 797h199l-663 -1358h-148l-80 594q-25 158 -35 276h-4q-51 -123 -131 -282l-295 -588h-149z" />
    <glyph glyph-name="X" unicode="X" horiz-adv-x="1193" 
d="M-88 0l571 692l-307 658h195l239 -521l426 521h217l-563 -682l314 -668h-193l-248 528l-436 -528h-215z" />
    <glyph glyph-name="Y" unicode="Y" horiz-adv-x="1052" 
d="M332 0l110 522l-297 828h189l219 -652h4l420 652h203l-557 -834l-111 -516h-180z" />
    <glyph glyph-name="Z" unicode="Z" horiz-adv-x="1077" 
d="M-57 0l852 1196h-580l-16 154h903l-846 -1196h653l-35 -154h-931z" />
    <glyph glyph-name="bracketleft" unicode="[" horiz-adv-x="671" 
d="M-27 -477l439 2058h370l-30 -139h-199l-377 -1782h197l-29 -137h-371z" />
    <glyph glyph-name="backslash" unicode="\" horiz-adv-x="878" 
d="M545 -66l-402 1491h176l402 -1491h-176z" />
    <glyph glyph-name="bracketright" unicode="]" horiz-adv-x="671" 
d="M-190 -477l30 137h199l377 1782h-197l29 139h370l-438 -2058h-370z" />
    <glyph glyph-name="asciicircum" unicode="^" horiz-adv-x="1159" 
d="M178 588l324 762h155l324 -762h-156l-243 598h-4l-244 -598h-156z" />
    <glyph glyph-name="underscore" unicode="_" horiz-adv-x="897" 
d="M-182 -246l24 111h914l-25 -111h-913z" />
    <glyph glyph-name="grave" unicode="`" 
d="M326 1087l-166 302h205l100 -302h-139z" />
    <glyph glyph-name="a" unicode="a" horiz-adv-x="960" 
d="M307 127q96 0 186 79q89 79 113 195l15 68h-76q-219 1 -293 -59t-74 -150q0 -133 129 -133zM260 -20q-118 0 -188 72t-70 184q0 164 122 264t384 100l135 2q12 45 12 100q0 147 -178 148q-133 0 -287 -74l-24 137q170 80 324 80q342 0 344 -280q0 -72 -35 -234l-21 -86
q-35 -157 -35 -235t17 -138l-154 -32q-27 82 -28 166q-136 -174 -318 -174z" />
    <glyph glyph-name="b" unicode="b" horiz-adv-x="1034" 
d="M322 131q186 0 310 144t124 368q0 80 -38 138q-38 59 -127 59t-182 -100t-135 -291l-61 -304q51 -14 109 -14zM657 993q123 0 202 -88t79 -243q0 -297 -186 -490t-471 -192q-158 0 -273 43l305 1427h179l-97 -449q-16 -80 -49 -186h4q55 80 137 129t170 49z" />
    <glyph glyph-name="c" unicode="c" horiz-adv-x="897" 
d="M453 -20q-188 0 -299 110t-111 297q0 256 159 431t402 175q135 0 244 -49l-33 -149q-102 49 -209 49q-158 0 -270 -125t-111 -313q-1 -129 63 -203t186 -74t245 72l47 -129q-57 -40 -145 -66t-168 -26z" />
    <glyph glyph-name="d" unicode="d" horiz-adv-x="1024" 
d="M487 131q82 0 146 29l137 653q-82 29 -156 29q-164 0 -276 -118t-113 -308q1 -129 69 -207t193 -78zM458 -20q-178 0 -296 114t-119 312q0 264 163 426t396 161q115 0 201 -30l104 487h178l-301 -1405q-148 -65 -326 -65z" />
    <glyph glyph-name="e" unicode="e" horiz-adv-x="960" 
d="M700 696q0 58 -38 106q-39 48 -134 48t-176 -80t-106 -195l438 7q16 56 16 114zM446 -20q-182 0 -292 110t-111 303q0 256 144 428t364 172q158 0 242 -87t84 -230q0 -102 -43 -225l-611 -9q-2 -16 -2 -49q0 -125 67 -195q68 -70 182 -71q114 0 257 74l49 -131
q-148 -90 -330 -90z" />
    <glyph glyph-name="f" unicode="f" horiz-adv-x="636" 
d="M641 1450q111 0 188 -47l-57 -139q-61 31 -123 30q-156 0 -192 -200l-21 -125h228l-56 -146h-194q-103 -668 -205 -903q-103 -234 -279 -387l-114 119q186 180 267 419t153 752h-152l22 146h150l20 129q23 121 70 194q102 158 295 158z" />
    <glyph glyph-name="g" unicode="g" horiz-adv-x="1034" 
d="M371 131q92 0 190 96t146 320l59 276q-55 18 -137 19q-182 0 -293 -150q-110 -150 -110 -356t145 -205zM270 -330q133 0 208 77t112 243l35 153h-4q-129 -162 -304 -161q-125 0 -199 84t-75 254q0 170 65 322q65 151 205 251q141 100 323 100t333 -55l-207 -969
q-45 -221 -158 -338t-348 -116q-160 -1 -299 73l63 150q117 -68 250 -68z" />
    <glyph glyph-name="h" unicode="h" horiz-adv-x="1026" 
d="M691 993q103 0 163 -59t61 -178q0 -74 -24 -189l-121 -567h-178l121 561q20 102 20 150q0 123 -108 123q-59 0 -128 -40q-170 -98 -233 -382l-88 -412h-176l309 1450h178l-106 -489q-16 -90 -49 -185h4q60 96 156 156t199 61z" />
    <glyph glyph-name="i" unicode="i" horiz-adv-x="456" 
d="M347 1169q-50 0 -79 29q-28 29 -28 79t39 86t89 36t78 -29t29 -78q0 -49 -39 -86t-89 -37zM0 0l207 969h178l-209 -969h-176z" />
    <glyph glyph-name="j" unicode="j" horiz-adv-x="485" 
d="M378 1169q-50 0 -79 28t-29 79t39 87t88 36t78 -28t29 -79t-38 -87t-88 -36zM-328 -457l54 148q42 -19 108 -19t106 47t62 154l234 1096h178l-252 -1172q-59 -283 -334 -282q-88 -1 -156 28z" />
    <glyph glyph-name="k" unicode="k" horiz-adv-x="911" 
d="M0 0l309 1450h178l-180 -842h4l406 361h221l-492 -432l340 -537h-204l-297 481h-4l-105 -481h-176z" />
    <glyph glyph-name="l" unicode="l" horiz-adv-x="540" 
d="M227 -12q-77 0 -128 44q-50 44 -50 128q0 33 12 100l254 1190h179l-254 -1188q-8 -35 -9 -63q0 -53 60 -54q35 0 78 15v-148q-65 -24 -142 -24z" />
    <glyph glyph-name="m" unicode="m" horiz-adv-x="1576" 
d="M678 993q100 0 156 -56t55 -171h4q66 98 161 163t196 65q100 0 160 -57q60 -56 60 -165q2 -57 -24 -197l-123 -575h-176l123 582q18 82 18 135q0 117 -104 117q-119 0 -234 -150q-76 -100 -110 -268l-90 -416h-177l123 582q18 82 19 135q0 117 -105 117q-119 0 -233 -152
q-74 -96 -111 -266l-90 -416h-176l207 969h143l-24 -193h4q66 96 156 157q92 60 192 60z" />
    <glyph glyph-name="n" unicode="n" horiz-adv-x="1026" 
d="M690 993q104 0 164 -59t61 -178q0 -74 -24 -189l-121 -567h-178l121 561q20 102 20 150q0 123 -108 123q-57 0 -125 -38t-132 -123t-104 -261l-88 -412h-176l207 969h143l-24 -193h4q63 94 160 156q96 62 200 61z" />
    <glyph glyph-name="o" unicode="o" horiz-adv-x="1042" 
d="M428 129q147 0 242 141q94 141 94 332q0 242 -201 242q-147 0 -242 -142t-96 -331q0 -242 203 -242zM422 -20q-182 0 -281 106q-98 106 -98 274q0 274 154 454t372 179q181 0 279 -106t98 -275q0 -274 -152 -453t-372 -179z" />
    <glyph glyph-name="p" unicode="p" horiz-adv-x="1036" 
d="M362 131q176 0 286 127t110 313q0 133 -73 202t-202 69q-63 0 -129 -17l-141 -667q61 -27 149 -27zM492 993q220 1 334 -113t114 -294q0 -274 -167 -440t-398 -166q-100 0 -197 28l-104 -493h-178l307 1433q150 45 289 45z" />
    <glyph glyph-name="q" unicode="q" horiz-adv-x="1038" 
d="M373 131q92 0 191 96t147 320l59 276q-63 18 -141 19q-182 0 -293 -150q-110 -150 -110 -356t147 -205zM43 320q0 173 66 324t209 250q144 99 346 99q152 0 309 -55l-305 -1423h-176l92 440q37 158 45 188h-4q-135 -164 -308 -163q-123 0 -199 84t-75 256z" />
    <glyph glyph-name="r" unicode="r" horiz-adv-x="671" 
d="M604 993q66 0 119 -35l-76 -155q-39 23 -84 22q-92 1 -174 -107t-129 -323l-82 -395h-178l207 969h143l-24 -193h4q104 217 274 217z" />
    <glyph glyph-name="s" unicode="s" horiz-adv-x="737" 
d="M213 127q98 0 153 35q54 35 54 91t-33 95t-79 71q-46 31 -92 67t-79 94t-33 133q0 121 85 201t231 79q146 0 258 -43l-29 -145q-113 43 -195 43q-169 0 -169 -127q0 -78 111 -158q46 -33 92 -69t79 -94t33 -134q0 -133 -101 -210t-263 -77t-289 78l59 136
q109 -66 207 -66z" />
    <glyph glyph-name="t" unicode="t" horiz-adv-x="698" 
d="M331 -20q-122 0 -177 52q-56 52 -56 124t15 137l112 530h-159l30 146h162l47 219l189 53l-60 -272h264l-57 -146h-238l-116 -549q-8 -33 -8 -63q0 -82 86 -82q72 0 163 51l45 -131q-120 -69 -242 -69z" />
    <glyph glyph-name="u" unicode="u" horiz-adv-x="1028" 
d="M291 -20q-100 0 -166 60t-66 183q0 68 25 191l117 555h178l-121 -572q-18 -82 -18 -135q0 -127 110 -127q115 0 205 99t123 245l104 490h176l-122 -576q-31 -169 -31 -237t14 -136l-151 -32q-31 94 -25 188h-4q-61 -86 -155 -141t-193 -55z" />
    <glyph glyph-name="v" unicode="v" horiz-adv-x="903" 
d="M272 -6l-194 975h174l80 -467q33 -186 43 -273h4q74 152 129 263l246 477h188l-532 -975h-138z" />
    <glyph glyph-name="w" unicode="w" horiz-adv-x="1380" 
d="M227 -6l-147 975h168l65 -465q20 -139 31 -264h4q45 109 103 229l241 500h127l58 -455q12 -98 28 -274h4q14 39 101 233l225 496h186l-483 -975h-139l-58 469q-20 164 -28 244h-4q-39 -92 -117 -250l-230 -463h-135z" />
    <glyph glyph-name="x" unicode="x" horiz-adv-x="917" 
d="M-102 0l432 496l-256 473h182l190 -355l302 355h194l-420 -486l264 -483h-186l-194 369l-316 -369h-192z" />
    <glyph glyph-name="y" unicode="y" horiz-adv-x="925" 
d="M-74 -336q98 0 186 73q87 73 179 261l-219 971h178l102 -494q12 -59 56 -276h4q47 113 114 252l252 518h187l-510 -1002q-127 -252 -249 -352t-294 -100q-105 -1 -168 36l63 140q55 -27 119 -27z" />
    <glyph glyph-name="z" unicode="z" horiz-adv-x="792" 
d="M-72 0l557 823h-383l-18 146h694l-561 -826h438l-28 -143h-699z" />
    <glyph glyph-name="braceleft" unicode="{" horiz-adv-x="708" 
d="M82 -201q0 43 16 125l84 402q6 33 6 61q0 98 -110 105l28 135q92 4 134 55q25 29 34 86l97 465q29 139 92 211q100 117 321 131v-158q-133 -18 -190 -88q-37 -41 -55 -141l-84 -406q-19 -94 -57 -149t-136 -80v-4q104 -20 105 -137q0 -43 -15 -119l-73 -352
q-34 -141 24 -196q37 -36 121 -50l-51 -156q-151 23 -221 86t-70 174z" />
    <glyph glyph-name="bar" unicode="|" horiz-adv-x="591" 
d="M211 -485v2082h172v-2082h-172z" />
    <glyph glyph-name="braceright" unicode="}" horiz-adv-x="708" 
d="M467 729q0 -98 111 -104l-29 -136q-143 -6 -168 -141l-96 -465q-29 -139 -92 -211q-101 -115 -322 -133v160q133 18 190 88q35 39 58 141l82 406q20 98 53 141q43 63 139 88v4q-102 20 -102 142q0 49 12 114l76 353q10 56 10 108q0 109 -156 135l52 156q290 -38 288 -260
q0 -41 -16 -123l-84 -404q-6 -31 -6 -59z" />
    <glyph glyph-name="asciitilde" unicode="~" horiz-adv-x="1087" 
d="M319 672q75 0 223 -62t202 -61q54 0 93 19q38 19 93 69l92 -111q-133 -135 -279 -135q-74 1 -222 61q-149 60 -203 60t-93 -20t-90 -68l-94 111q137 137 278 137z" />
    <glyph glyph-name="exclamdown" unicode="&#xa1;" horiz-adv-x="571" 
d="M315 764q-47 0 -75 31t-29 77q0 46 35 83q35 36 82 36q46 -1 74 -31t28 -78t-34 -83t-81 -35zM-23 -373l23 107q117 542 152 656t73 214h94q-7 -180 -31 -322t-108 -548l-22 -107h-181z" />
    <glyph glyph-name="cent" unicode="&#xa2;" horiz-adv-x="1073" 
d="M176 594q0 221 124 373t310 180l45 203h142l-41 -199q106 -6 180 -43l-31 -141q-96 45 -198 45q-154 0 -253 -117t-100 -291q0 -116 60 -184t175 -68q114 0 226 66l37 -131q-127 -78 -289 -78l-45 -209h-143l49 227q-116 35 -182 130t-66 237z" />
    <glyph glyph-name="sterling" unicode="&#xa3;" horiz-adv-x="1083" 
d="M813 1362q121 0 229 -49l-61 -142q-74 37 -158 37q-158 0 -229 -143q-31 -59 -43 -158l-21 -143h365l-49 -150h-336q-59 -377 -203 -473v-4q102 12 221 13h355l-23 -150h-805l19 123q53 20 95 66q74 81 113 214q22 72 28 112q7 40 18 99h-154l23 150h151l25 162
q18 141 69 229q115 207 371 207z" />
    <glyph glyph-name="currency" unicode="&#xa4;" horiz-adv-x="1073" 
d="M542 346q132 0 223 95t91 231t-91 230q-91 95 -223 95t-224 -95t-93 -230q0 -135 92 -231q93 -95 225 -95zM78 672q0 144 86 266l-135 133l110 111l135 -135q117 88 267 88t270 -88l131 133l109 -111l-131 -131q84 -119 84 -266t-89 -269l136 -131l-111 -112l-133 135
q-119 -86 -265 -86t-266 86l-135 -135l-110 110l135 133q-88 125 -88 269z" />
    <glyph glyph-name="yen" unicode="&#xa5;" horiz-adv-x="1083" 
d="M311 0l51 246h-319l25 125h323l35 166h-330l27 125h268l-205 688h185l168 -633h4l387 633h196l-446 -688h270l-26 -125h-324l-35 -166h330l-27 -125h-329l-54 -246h-174z" />
    <glyph glyph-name="brokenbar" unicode="&#xa6;" horiz-adv-x="591" 
d="M211 866v731h172v-731h-172zM211 -485v733h172v-733h-172z" />
    <glyph glyph-name="section" unicode="&#xa7;" horiz-adv-x="1118" 
d="M293 657q0 -82 59 -139q59 -58 175 -120t165 -101q113 86 113 207q0 66 -40 119t-89 83t-132 76t-126 76q-125 -78 -125 -201zM831 29q0 -179 -133 -273q-132 -94 -330 -94t-343 96l75 140q132 -86 262 -86t208 51t79 157q0 133 -186 226q-78 39 -155 84t-131 121
t-54 177t57 184t152 132q-74 78 -74 189q0 162 119 255t294 93t306 -68l-33 -151q-122 70 -244 70t-191 -50q-69 -49 -69 -129t56 -134t134 -92t156 -82t134 -124t55 -191q0 -201 -203 -319q59 -72 59 -182z" />
    <glyph glyph-name="dieresis" unicode="&#xa8;" 
d="M672 1248q0 -44 -32 -78t-74 -33q-42 -1 -66 23t-23 69q0 45 31 78t73 33q43 0 67 -24t24 -68zM198 1137q-42 -1 -66 23t-24 69t31 78t73 33t66 -24t24 -69t-32 -77q-30 -32 -72 -33z" />
    <glyph glyph-name="copyright" unicode="&#xa9;" horiz-adv-x="1591" 
d="M803 260q-170 0 -271 113q-100 113 -100 289t106 296q106 121 281 121q109 0 195 -47v-112q-88 51 -201 51t-185 -84t-73 -222q0 -137 69 -219t178 -82t197 54l39 -92q-110 -66 -235 -66zM790 80q242 0 402 167t160 422t-159 422t-403 167t-403 -168q-160 -166 -160 -420
t160 -422t403 -168zM790 1360q294 0 486 -199t192 -491t-192 -492q-192 -198 -486 -198t-487 198t-192 492t193 492t486 198z" />
    <glyph glyph-name="ordfeminine" unicode="&#xaa;" horiz-adv-x="675" 
d="M279 659q59 1 117 53t75 128l8 32h-57q-223 0 -223 -129q0 -84 80 -84zM240 539q-82 0 -132 51t-51 135q1 133 99 195t258 63h86q8 37 8 57q0 90 -117 90q-86 0 -203 -49l-24 113q119 57 238 57q249 0 247 -202q0 -57 -22 -156l-17 -64q-41 -151 -12 -260l-121 -26
q-16 47 -18 100h-4q-96 -104 -215 -104zM-55 281l24 118h606l-26 -118h-604z" />
    <glyph glyph-name="guillemotleft" unicode="&#xab;" horiz-adv-x="1101" 
d="M999 821l-317 -338l207 -338l-125 -77l-277 430l404 422zM549 821l-316 -338l207 -338l-127 -77l-274 430l403 422z" />
    <glyph glyph-name="logicalnot" unicode="&#xac;" horiz-adv-x="1087" 
d="M33 487v152h968v-592h-170v440h-798z" />
    <glyph glyph-name="registered" unicode="&#xae;" horiz-adv-x="1183" 
d="M565 899h37q117 0 117 90q0 55 -43 72q-25 10 -74 10h-37v-172zM623 1141q188 1 188 -153q0 -108 -127 -134v-2q37 -27 160 -244h-99q-109 195 -135 217q-6 4 -12 6h-33v-223h-84v533h142zM641 451q174 1 286 119t111 294q0 176 -111 295q-112 119 -286 119t-286 -119
q-111 -119 -111 -295t111 -295q112 -118 286 -118zM639 369q-211 0 -348 141t-137 354q0 214 138 356t348 142t350 -143t140 -355t-140 -353q-140 -142 -351 -142z" />
    <glyph glyph-name="macron" unicode="&#xaf;" 
d="M113 1171l28 142h533l-31 -142h-530z" />
    <glyph glyph-name="degree" unicode="&#xb0;" horiz-adv-x="784" 
d="M458 844q77 0 129 54t52 137t-52 137t-129 54t-129 -54q-53 -54 -53 -137t52 -137t130 -54zM457 723q-137 0 -227 89q-89 89 -89 224q0 134 90 224q91 90 227 90t226 -89t90 -225t-90 -224q-90 -89 -227 -89z" />
    <glyph glyph-name="plusminus" unicode="&#xb1;" horiz-adv-x="1087" 
d="M440 262v311h-399v152h399v311h168v-311h402v-152h-402v-311h-168zM41 0v152h969v-152h-969z" />
    <glyph glyph-name="twosuperior" unicode="&#xb2;" horiz-adv-x="686" 
d="M578 1415q0 84 -102 84t-216 -59l-39 116q139 70 261 70t186 -54t63 -140q0 -86 -57 -154t-129 -107t-143 -96t-89 -119h361l-21 -129h-544q14 96 55 174t92 123q103 91 212 154q110 63 110 137z" />
    <glyph glyph-name="threesuperior" unicode="&#xb3;" horiz-adv-x="702" 
d="M351 936q91 0 141 34q49 34 49 95q0 104 -174 104h-103l19 115h82q100 2 153 38t53 93q0 86 -116 86q-86 0 -183 -41l-36 113q120 53 242 53t186 -52t63 -132q0 -80 -48 -133t-122 -76v-4q61 -12 100 -54t39 -108q0 -117 -90 -185t-238 -69q-148 0 -243 45l49 115
q86 -37 177 -37z" />
    <glyph glyph-name="acute" unicode="&#xb4;" 
d="M274 1087l156 302h205l-223 -302h-138z" />
    <glyph glyph-name="mu" unicode="&#xb5;" horiz-adv-x="1103" 
d="M250 268q0 -64 37 -98t94 -35q104 0 192 87t121 251l109 496h176l-143 -672q-12 -61 -13 -92q0 -57 62 -58q35 0 65 13v-152q-55 -20 -114 -20q-150 0 -158 141q0 35 2 47h-4q-127 -197 -318 -196q-121 0 -168 90h-4q-16 -121 -45 -258l-65 -297h-178l313 1454h176
l-119 -561q-18 -76 -18 -140z" />
    <glyph glyph-name="paragraph" unicode="&#xb6;" horiz-adv-x="1212" 
d="M129 801q0 241 175 395t450 154h409l-352 -1678h-154l326 1549h-213l-326 -1549h-153l162 768q-147 4 -235 104t-89 257z" />
    <glyph glyph-name="periodcentered" unicode="&#xb7;" horiz-adv-x="481" 
d="M199 406q-47 0 -75 30t-28 77q0 48 34 84t81 36t75 -31t28 -79t-34 -83q-34 -34 -81 -34z" />
    <glyph glyph-name="cedilla" unicode="&#xb8;" 
d="M428 -250q0 72 -160 66l88 184h136l-52 -109q68 -3 107 -39t39 -94q0 -92 -75 -142t-177 -50t-168 28l43 93q39 -20 96 -21q123 0 123 84z" />
    <glyph glyph-name="onesuperior" unicode="&#xb9;" horiz-adv-x="628" 
d="M307 827l133 631q-96 -49 -239 -80v129q143 31 295 117h129l-170 -797h-148z" />
    <glyph glyph-name="ordmasculine" unicode="&#xba;" horiz-adv-x="731" 
d="M354 664q100 0 162 94q61 94 62 215q0 154 -129 153q-99 0 -161 -94t-63 -213q0 -155 129 -155zM348 539q-126 -1 -196 73t-70 191q0 193 108 321t265 127q125 -1 195 -75t71 -193q-1 -190 -109 -317t-264 -127zM-33 281l27 118h629l-25 -118h-631z" />
    <glyph glyph-name="guillemotright" unicode="&#xbb;" horiz-adv-x="1101" 
d="M20 166l316 338l-207 338l127 78l274 -431l-403 -421zM469 166l317 338l-208 338l127 78l274 -431l-401 -421z" />
    <glyph glyph-name="onequarter" unicode="&#xbc;" horiz-adv-x="1814" 
d="M1315 291l16 78q8 45 55 225l-284 -305zM1253 0l35 176h-332l-22 103l487 518h148l-109 -506h111l-23 -115h-112l-37 -176h-146zM317 553l134 631q-96 -49 -240 -80v129q143 31 295 117h129l-170 -797h-148zM283 0l1005 1350h158l-1004 -1350h-159z" />
    <glyph glyph-name="onehalf" unicode="&#xbd;" horiz-adv-x="1814" 
d="M1475 588q1 84 -101 84t-217 -60l-39 117q139 70 261 70q121 -1 185 -55t64 -140t-57 -154t-129 -106q-72 -39 -143 -96t-89 -119h361l-21 -129h-544q14 96 55 174t92 123q103 91 212 154q110 63 110 137zM285 553l133 631q-96 -49 -240 -80v129q143 31 295 117h129
l-170 -797h-147zM219 0l1006 1350h157l-1003 -1350h-160z" />
    <glyph glyph-name="threequarters" unicode="&#xbe;" horiz-adv-x="1814" 
d="M360 895h-102l18 115h82q100 2 154 38q53 36 53 93q0 86 -116 86q-86 0 -183 -41l-37 112q121 54 243 54t185 -52t63 -133q0 -80 -47 -133q-48 -53 -122 -76v-4q61 -12 100 -54t39 -107q0 -117 -90 -186t-238 -69t-243 46l49 114q86 -36 177 -36t140 34t50 95
q0 104 -175 104zM1393 291l16 78q8 45 55 225l-284 -305zM1331 0l35 176h-332l-22 103l487 518h148l-109 -506h111l-23 -115h-113l-36 -176h-146zM365 0l1005 1350h158l-1004 -1350h-159z" />
    <glyph glyph-name="questiondown" unicode="&#xbf;" horiz-adv-x="923" 
d="M598 991q47 1 75 -29q27 -30 27 -78t-34 -83t-80 -35q-47 0 -75 30t-28 78t34 82q34 35 81 35zM305 -385q-133 0 -223 71t-90 183t48 183q48 72 122 136t136 114t121 130q58 80 81 172h116q-4 -94 -38 -174t-82 -132q-92 -98 -207 -192q-115 -95 -115 -198q0 -70 44 -105
t118 -34q133 0 274 98l64 -127q-168 -125 -369 -125z" />
    <glyph glyph-name="Agrave" unicode="&#xc0;" horiz-adv-x="1187" 
d="M649 1425l-166 301h205l100 -301h-139zM373 504h368l-61 399q-16 111 -27 178h-4q-68 -156 -84 -188zM-90 0l717 1354h143l246 -1354h-189l-61 354h-475l-180 -354h-201z" />
    <glyph glyph-name="Aacute" unicode="&#xc1;" horiz-adv-x="1187" 
d="M623 1425l155 301h205l-223 -301h-137zM373 504h368l-61 399q-16 111 -27 178h-4q-68 -156 -84 -188zM-90 0l717 1354h143l246 -1354h-189l-61 354h-475l-180 -354h-201z" />
    <glyph glyph-name="Acircumflex" unicode="&#xc2;" horiz-adv-x="1187" 
d="M422 1425l244 301h151l168 -301h-145l-107 193l-158 -193h-153zM373 504h368l-61 399q-16 111 -27 178h-4q-68 -156 -84 -188zM-90 0l717 1354h143l246 -1354h-189l-61 354h-475l-180 -354h-201z" />
    <glyph glyph-name="Atilde" unicode="&#xc3;" horiz-adv-x="1187" 
d="M584 1700q66 0 145 -48q78 -48 109 -48q57 0 69 84h127q-8 -109 -58 -163q-99 -107 -262 -6q-79 48 -110 48q-55 0 -67 -84h-129q8 109 59 163t117 54zM373 504h368l-61 399q-16 111 -27 178h-4q-68 -156 -84 -188zM-90 0l717 1354h143l246 -1354h-189l-61 354h-475
l-180 -354h-201z" />
    <glyph glyph-name="Adieresis" unicode="&#xc4;" horiz-adv-x="1187" 
d="M896 1442q-42 0 -66 24t-24 67q0 44 32 77q30 32 72 32t66 -22t24 -68q0 -44 -32 -77q-30 -33 -72 -33zM527 1442q-43 0 -67 24t-24 67q0 44 32 77q32 32 74 32t66 -22t23 -68q0 -44 -31 -77t-73 -33zM373 504h368l-61 399q-16 111 -27 178h-4q-68 -156 -84 -188zM-90 0
l717 1354h143l246 -1354h-189l-61 354h-475l-180 -354h-201z" />
    <glyph glyph-name="Aring" unicode="&#xc5;" horiz-adv-x="1187" 
d="M713 1421q43 0 73 36t29 82q0 95 -82 93q-49 0 -79 -36t-30 -82t24 -70q22 -24 65 -23zM373 504h368l-61 399q-16 111 -27 178h-4q-68 -156 -84 -188zM733 1722q95 0 151 -46t56 -126t-47 -135t-121 -74l244 -1341h-189l-61 354h-475l-180 -354h-201l708 1343
q-119 35 -118 158q0 100 68 161q69 60 165 60z" />
    <glyph glyph-name="AE" unicode="&#xc6;" horiz-adv-x="1597" 
d="M430 504h336l86 606h-4q-168 -248 -172 -254zM-135 0l962 1350h697l-45 -154h-441l-59 -430h434l-22 -154h-433l-61 -458h496l-23 -154h-672l47 354h-423l-250 -354h-207z" />
    <glyph glyph-name="Ccedilla" unicode="&#xc7;" horiz-adv-x="1210" 
d="M602 -250q0 72 -160 66l82 176q-200 37 -316 179t-116 368q0 356 222 589t560 234q182 0 336 -72l-36 -155q-143 72 -297 71q-262 0 -428 -189t-166 -460q0 -190 102 -306q103 -116 279 -116t342 84l34 -149q-168 -86 -385 -90l-41 -89q68 -3 107 -39t39 -94
q0 -92 -75 -142t-177 -50t-166 28l43 93q35 -21 92 -21t91 22t34 62z" />
    <glyph glyph-name="Egrave" unicode="&#xc8;" horiz-adv-x="958" 
d="M594 1425l-166 301h205l100 -301h-139zM20 0l287 1350h654l-62 -154h-444l-90 -430h436l-33 -154h-438l-97 -458h498l-33 -154h-678z" />
    <glyph glyph-name="Eacute" unicode="&#xc9;" horiz-adv-x="958" 
d="M543 1425l155 301h205l-223 -301h-137zM20 0l287 1350h654l-62 -154h-444l-90 -430h436l-33 -154h-438l-97 -458h498l-33 -154h-678z" />
    <glyph glyph-name="Ecircumflex" unicode="&#xca;" horiz-adv-x="958" 
d="M354 1425l244 301h152l168 -301h-146l-106 193l-158 -193h-154zM20 0l287 1350h654l-62 -154h-444l-90 -430h436l-33 -154h-438l-97 -458h498l-33 -154h-678z" />
    <glyph glyph-name="Edieresis" unicode="&#xcb;" horiz-adv-x="958" 
d="M834 1442q-42 0 -66 24t-23 67q0 44 31 77q31 32 73 32q41 0 65 -22t24 -68q0 -44 -31 -77t-73 -33zM466 1442q-42 0 -67 24t-25 67q0 44 33 77q31 32 73 32t66 -22t24 -68q0 -44 -32 -77q-30 -33 -72 -33zM20 0l287 1350h654l-62 -154h-444l-90 -430h436l-33 -154h-438
l-97 -458h498l-33 -154h-678z" />
    <glyph glyph-name="Igrave" unicode="&#xcc;" horiz-adv-x="507" 
d="M371 1425l-166 301h205l100 -301h-139zM20 0l287 1350h180l-286 -1350h-181z" />
    <glyph glyph-name="Iacute" unicode="&#xcd;" horiz-adv-x="507" 
d="M330 1425l155 301h205l-223 -301h-137zM20 0l287 1350h180l-286 -1350h-181z" />
    <glyph glyph-name="Icircumflex" unicode="&#xce;" horiz-adv-x="507" 
d="M129 1425l244 301h151l168 -301h-145l-107 193l-157 -193h-154zM20 0l287 1350h180l-286 -1350h-181z" />
    <glyph glyph-name="Idieresis" unicode="&#xcf;" horiz-adv-x="507" 
d="M605 1442q-41 0 -65 24t-24 67q0 44 31 77q31 32 73 32t66 -22t23 -68q0 -44 -31 -77t-73 -33zM236 1442q-42 0 -66 24t-25 67q0 44 32 77q32 32 74 32q41 0 65 -22t24 -68q0 -44 -31 -77t-73 -33zM20 0l287 1350h180l-286 -1350h-181z" />
    <glyph glyph-name="Eth" unicode="&#xd0;" horiz-adv-x="1306" 
d="M1028 801q0 395 -489 395h-84l-95 -442h326l-33 -150h-325l-95 -450h134q407 0 573 288q88 154 88 359zM545 1350q231 0 381 -68q293 -129 293 -494q0 -240 -121 -434q-222 -354 -750 -354h-328l127 604h-159l32 150h160l127 596h238z" />
    <glyph glyph-name="Ntilde" unicode="&#xd1;" horiz-adv-x="1439" 
d="M756 1700q66 0 145 -48q78 -48 109 -48q57 0 69 84h127q-8 -109 -58 -163q-99 -107 -262 -6q-79 48 -110 48q-55 0 -67 -84h-129q8 109 59 163t117 54zM20 0l287 1350h170l445 -871q47 -90 90 -190h4q15 94 39 207l180 854h182l-289 -1350h-149l-459 899q-74 147 -90 188
h-4q-10 -68 -35 -194l-190 -893h-181z" />
    <glyph glyph-name="Ograve" unicode="&#xd2;" horiz-adv-x="1470" 
d="M817 1425l-166 301h205l100 -301h-139zM651 135q240 0 387 202t148 460q0 197 -93 303t-263 106t-296 -99t-188 -247t-63 -328q0 -180 94 -288t274 -109zM1378 799q0 -215 -89 -401t-260 -302t-407 -116t-382 147q-147 147 -148 418q0 215 89 400t260 301t407 116
t382 -146q148 -146 148 -417z" />
    <glyph glyph-name="Oacute" unicode="&#xd3;" horiz-adv-x="1470" 
d="M776 1425l156 301h205l-224 -301h-137zM651 135q240 0 387 202t148 460q0 197 -93 303t-263 106t-296 -99t-188 -247t-63 -328q0 -180 94 -288t274 -109zM1378 799q0 -215 -89 -401t-260 -302t-407 -116t-382 147q-147 147 -148 418q0 215 89 400t260 301t407 116
t382 -146q148 -146 148 -417z" />
    <glyph glyph-name="Ocircumflex" unicode="&#xd4;" horiz-adv-x="1470" 
d="M588 1425l243 301h152l168 -301h-145l-107 193l-158 -193h-153zM651 135q240 0 387 202t148 460q0 197 -93 303t-263 106t-296 -99t-188 -247t-63 -328q0 -180 94 -288t274 -109zM1378 799q0 -215 -89 -401t-260 -302t-407 -116t-382 147q-147 147 -148 418q0 215 89 400
t260 301t407 116t382 -146q148 -146 148 -417z" />
    <glyph glyph-name="Otilde" unicode="&#xd5;" horiz-adv-x="1470" 
d="M750 1700q66 0 145 -48q78 -48 109 -48q57 0 69 84h127q-8 -109 -58 -163q-99 -107 -262 -6q-79 48 -110 48q-55 0 -68 -84h-129q7 109 59 163t118 54zM651 135q240 0 387 202t148 460q0 197 -93 303t-263 106t-296 -99t-188 -247t-63 -328q0 -180 94 -288t274 -109z
M1378 799q0 -215 -89 -401t-260 -302t-407 -116t-382 147q-147 147 -148 418q0 215 89 400t260 301t407 116t382 -146q148 -146 148 -417z" />
    <glyph glyph-name="Odieresis" unicode="&#xd6;" horiz-adv-x="1470" 
d="M1062 1442q-42 0 -66 24t-24 67q0 44 32 77q30 32 72 32t66 -22t24 -68q0 -44 -32 -77q-30 -33 -72 -33zM693 1442q-43 0 -67 24t-24 67q0 44 32 77q32 32 74 32t66 -22t23 -68q0 -44 -31 -77t-73 -33zM651 135q240 0 387 202t148 460q0 197 -93 303t-263 106t-296 -99
t-188 -247t-63 -328q0 -180 94 -288t274 -109zM1378 799q0 -215 -89 -401t-260 -302t-407 -116t-382 147q-147 147 -148 418q0 215 89 400t260 301t407 116t382 -146q148 -146 148 -417z" />
    <glyph glyph-name="multiply" unicode="&#xd7;" horiz-adv-x="1134" 
d="M197 27l-111 112l375 375l-375 375l111 112l374 -374l375 374l111 -112l-373 -375l373 -375l-111 -110l-375 374z" />
    <glyph glyph-name="Oslash" unicode="&#xd8;" horiz-adv-x="1470" 
d="M283 547q0 -129 43 -217l723 800q-88 76 -234 76q-236 0 -384 -194t-148 -465zM657 135q233 0 381 195q147 195 148 467q0 131 -45 219l-723 -803q89 -78 239 -78zM643 -20q-205 0 -338 104l-119 -135l-110 94l121 137q-105 144 -105 364t87 403t257 299t382 116
t343 -100l119 133l111 -92l-121 -138q109 -147 108 -372q0 -332 -203 -573q-204 -240 -532 -240z" />
    <glyph glyph-name="Ugrave" unicode="&#xd9;" horiz-adv-x="1333" 
d="M766 1425l-166 301h205l100 -301h-139zM586 -20q-234 0 -352 105t-117 288q0 63 24 186l168 791h180l-170 -795q-20 -96 -20 -160q0 -129 73 -195t201 -67q173 0 259 89t120 253l187 875h180l-189 -893q-49 -229 -165 -340q-145 -137 -379 -137z" />
    <glyph glyph-name="Uacute" unicode="&#xda;" horiz-adv-x="1333" 
d="M741 1425l156 301h205l-223 -301h-138zM586 -20q-234 0 -352 105t-117 288q0 63 24 186l168 791h180l-170 -795q-20 -96 -20 -160q0 -129 73 -195t201 -67q173 0 259 89t120 253l187 875h180l-189 -893q-49 -229 -165 -340q-145 -137 -379 -137z" />
    <glyph glyph-name="Ucircumflex" unicode="&#xdb;" horiz-adv-x="1333" 
d="M545 1425l243 301h152l168 -301h-145l-107 193l-158 -193h-153zM586 -20q-234 0 -352 105t-117 288q0 63 24 186l168 791h180l-170 -795q-20 -96 -20 -160q0 -129 73 -195t201 -67q173 0 259 89t120 253l187 875h180l-189 -893q-49 -229 -165 -340q-145 -137 -379 -137z
" />
    <glyph glyph-name="Udieresis" unicode="&#xdc;" horiz-adv-x="1333" 
d="M1025 1442q-42 0 -66 24q-23 24 -23 67q0 44 31 77q31 32 73 32t65 -22t23 -68q0 -44 -30 -77t-73 -33zM656 1442q-42 0 -66 24t-25 67q0 44 32 77q32 32 74 32q41 0 65 -22t24 -68q0 -44 -31 -77t-73 -33zM586 -20q-234 0 -352 105t-117 288q0 63 24 186l168 791h180
l-170 -795q-20 -96 -20 -160q0 -129 73 -195t201 -67q173 0 259 89t120 253l187 875h180l-189 -893q-49 -229 -165 -340q-145 -137 -379 -137z" />
    <glyph glyph-name="Yacute" unicode="&#xdd;" horiz-adv-x="1052" 
d="M584 1425l155 301h205l-223 -301h-137zM334 0l110 522l-297 828h189l219 -652h4l420 652h203l-557 -834l-111 -516h-180z" />
    <glyph glyph-name="Thorn" unicode="&#xde;" horiz-adv-x="1044" 
d="M356 410q111 0 176 26q102 33 158 113q55 80 55 188q0 162 -139 213q-61 23 -145 23h-53l-119 -563h67zM467 1122q285 0 399 -164q64 -90 64 -234t-90 -262q-152 -202 -510 -202h-74l-55 -260h-181l287 1350h180l-47 -228h27z" />
    <glyph glyph-name="germandbls" unicode="&#xdf;" horiz-adv-x="1177" 
d="M707 1450q170 0 276 -88t107 -256q0 -55 -19 -152q-145 -6 -227 -59t-82 -143t91 -173q38 -36 76 -76q91 -96 91 -231t-99 -214q-99 -78 -259 -78t-283 77l59 136q115 -66 206 -66t143 38q53 38 53 102q0 63 -40 119t-88 96t-88 108t-40 147q0 129 87 213t238 101
q4 12 4 51q0 96 -55 144t-147 48q-227 0 -285 -270l-279 -1313h-180l287 1344q89 395 453 395z" />
    <glyph glyph-name="agrave" unicode="&#xe0;" horiz-adv-x="960" 
d="M498 1087l-166 302h205l100 -302h-139zM307 127q96 0 186 79q89 79 113 195l15 68h-76q-219 1 -293 -59t-74 -150q0 -133 129 -133zM260 -20q-118 0 -188 72t-70 184q0 164 122 264t384 100l135 2q12 45 12 100q0 147 -178 148q-133 0 -287 -74l-24 137q170 80 324 80
q342 0 344 -280q0 -72 -35 -234l-21 -86q-35 -157 -35 -235t17 -138l-154 -32q-27 82 -28 166q-136 -174 -318 -174z" />
    <glyph glyph-name="aacute" unicode="&#xe1;" horiz-adv-x="960" 
d="M446 1087l156 302h205l-223 -302h-138zM307 127q96 0 186 79q89 79 113 195l15 68h-76q-219 1 -293 -59t-74 -150q0 -133 129 -133zM260 -20q-118 0 -188 72t-70 184q0 164 122 264t384 100l135 2q12 45 12 100q0 147 -178 148q-133 0 -287 -74l-24 137q170 80 324 80
q342 0 344 -280q0 -72 -35 -234l-21 -86q-35 -157 -35 -235t17 -138l-154 -32q-27 82 -28 166q-136 -174 -318 -174z" />
    <glyph glyph-name="acircumflex" unicode="&#xe2;" horiz-adv-x="960" 
d="M252 1087l244 302h151l168 -302h-145l-107 193l-157 -193h-154zM307 127q96 0 186 79q89 79 113 195l15 68h-76q-219 1 -293 -59t-74 -150q0 -133 129 -133zM260 -20q-118 0 -188 72t-70 184q0 164 122 264t384 100l135 2q12 45 12 100q0 147 -178 148q-133 0 -287 -74
l-24 137q170 80 324 80q342 0 344 -280q0 -72 -35 -234l-21 -86q-35 -157 -35 -235t17 -138l-154 -32q-27 82 -28 166q-136 -174 -318 -174z" />
    <glyph glyph-name="atilde" unicode="&#xe3;" horiz-adv-x="960" 
d="M670 1251q57 0 69 84h127q-8 -109 -58 -163t-116 -54t-146 48q-79 48 -110 48q-53 0 -67 -84h-129q8 109 59 163q101 107 262 6q78 -48 109 -48zM307 127q96 0 186 79q89 79 113 195l15 68h-76q-219 1 -293 -59t-74 -150q0 -133 129 -133zM260 -20q-118 0 -188 72
t-70 184q0 164 122 264t384 100l135 2q12 45 12 100q0 147 -178 148q-133 0 -287 -74l-24 137q170 80 324 80q342 0 344 -280q0 -72 -35 -234l-21 -86q-35 -157 -35 -235t17 -138l-154 -32q-27 82 -28 166q-136 -174 -318 -174z" />
    <glyph glyph-name="adieresis" unicode="&#xe4;" horiz-adv-x="960" 
d="M844 1248q0 -44 -32 -78t-74 -33q-42 -1 -66 23t-23 69q0 45 31 78t73 33q43 0 67 -24t24 -68zM370 1137q-42 -1 -66 23t-24 69t31 78t73 33t66 -24t24 -69t-32 -77q-30 -32 -72 -33zM307 127q96 0 186 79q89 79 113 195l15 68h-76q-219 1 -293 -59t-74 -150
q0 -133 129 -133zM260 -20q-118 0 -188 72t-70 184q0 164 122 264t384 100l135 2q12 45 12 100q0 147 -178 148q-133 0 -287 -74l-24 137q170 80 324 80q342 0 344 -280q0 -72 -35 -234l-21 -86q-35 -157 -35 -235t17 -138l-154 -32q-27 82 -28 166q-136 -174 -318 -174z
" />
    <glyph glyph-name="aring" unicode="&#xe5;" horiz-adv-x="960" 
d="M670 1279q0 95 -88 93q-42 0 -74 -36q-31 -36 -31 -82q0 -93 89 -93q44 0 74 36t30 82zM559 1071q-96 0 -150 46q-55 46 -55 135q0 90 69 150t165 60t151 -46t55 -135t-69 -149q-70 -60 -166 -61zM307 127q96 0 186 79q89 79 113 195l15 68h-76q-219 1 -293 -59t-74 -150
q0 -133 129 -133zM260 -20q-118 0 -188 72t-70 184q0 164 122 264t384 100l135 2q12 45 12 100q0 147 -178 148q-133 0 -287 -74l-24 137q170 80 324 80q342 0 344 -280q0 -72 -35 -234l-21 -86q-35 -157 -35 -235t17 -138l-154 -32q-27 82 -28 166q-136 -174 -318 -174z
" />
    <glyph glyph-name="ae" unicode="&#xe6;" horiz-adv-x="1533" 
d="M1098 850q-94 0 -175 -76t-106 -186l438 4q17 42 17 102t-40 108t-134 48zM307 127q100 0 189 76q88 76 114 207l8 41h-100q-340 -6 -340 -191q0 -133 129 -133zM272 -20q-122 0 -196 72t-74 192q0 168 134 253t374 87l129 2q14 58 14 124q0 140 -178 140
q-131 0 -285 -74l-24 137q170 80 332 80q233 0 286 -164h4q127 164 334 164q158 0 241 -87t83 -220t-41 -225l-610 -8q-4 -37 -4 -56q1 -127 67 -199t182 -71q116 0 256 74l52 -131q-147 -90 -302 -90q-301 0 -370 237h-4q-68 -115 -174 -176t-226 -61z" />
    <glyph glyph-name="ccedilla" unicode="&#xe7;" horiz-adv-x="897" 
d="M410 -250q0 74 -160 66l82 178q-133 31 -211 136t-78 257q0 258 159 432t402 174q135 0 244 -49l-33 -149q-102 49 -209 49q-158 0 -270 -125t-111 -313q-1 -129 63 -203t186 -74t245 72l47 -129q-55 -39 -139 -64t-164 -28l-41 -89q68 -3 106 -39t39 -94
q-1 -92 -75 -142t-176 -50t-169 28l43 93q38 -21 94 -21t91 22t35 62z" />
    <glyph glyph-name="egrave" unicode="&#xe8;" horiz-adv-x="960" 
d="M516 1087l-166 302h205l100 -302h-139zM700 696q0 58 -38 106q-39 48 -134 48t-176 -80t-106 -195l438 7q16 56 16 114zM446 -20q-182 0 -292 110t-111 303q0 256 144 428t364 172q158 0 242 -87t84 -230q0 -102 -43 -225l-611 -9q-2 -16 -2 -49q0 -125 67 -195
q68 -70 182 -71q114 0 257 74l49 -131q-148 -90 -330 -90z" />
    <glyph glyph-name="eacute" unicode="&#xe9;" horiz-adv-x="960" 
d="M489 1087l156 302h205l-223 -302h-138zM700 696q0 58 -38 106q-39 48 -134 48t-176 -80t-106 -195l438 7q16 56 16 114zM446 -20q-182 0 -292 110t-111 303q0 256 144 428t364 172q158 0 242 -87t84 -230q0 -102 -43 -225l-611 -9q-2 -16 -2 -49q0 -125 67 -195
q68 -70 182 -71q114 0 257 74l49 -131q-148 -90 -330 -90z" />
    <glyph glyph-name="ecircumflex" unicode="&#xea;" horiz-adv-x="960" 
d="M289 1087l243 302h152l168 -302h-145l-107 193l-158 -193h-153zM700 696q0 58 -38 106q-39 48 -134 48t-176 -80t-106 -195l438 7q16 56 16 114zM446 -20q-182 0 -292 110t-111 303q0 256 144 428t364 172q158 0 242 -87t84 -230q0 -102 -43 -225l-611 -9q-2 -16 -2 -49
q0 -125 67 -195q68 -70 182 -71q114 0 257 74l49 -131q-148 -90 -330 -90z" />
    <glyph glyph-name="edieresis" unicode="&#xeb;" horiz-adv-x="960" 
d="M763 1137q-42 -1 -66 23q-23 24 -23 69t31 78t73 33t66 -24t24 -68t-31 -78q-32 -33 -74 -33zM498 1247q0 -45 -31 -77t-73 -33t-66 23t-23 69q0 45 31 78t73 33q41 0 65 -24t24 -69zM700 696q0 58 -38 106q-39 48 -134 48t-176 -80t-106 -195l438 7q16 56 16 114z
M446 -20q-182 0 -292 110t-111 303q0 256 144 428t364 172q158 0 242 -87t84 -230q0 -102 -43 -225l-611 -9q-2 -16 -2 -49q0 -125 67 -195q68 -70 182 -71q114 0 257 74l49 -131q-148 -90 -330 -90z" />
    <glyph glyph-name="igrave" unicode="&#xec;" horiz-adv-x="456" 
d="M2 0l207 969h176l-207 -969h-176zM276 1087l-165 302h204l101 -302h-140z" />
    <glyph glyph-name="iacute" unicode="&#xed;" horiz-adv-x="456" 
d="M2 0l207 969h176l-207 -969h-176zM225 1087l156 302h205l-224 -302h-137z" />
    <glyph glyph-name="icircumflex" unicode="&#xee;" horiz-adv-x="456" 
d="M35 1087l244 302h151l168 -302h-145l-107 193l-158 -193h-153zM2 0l207 969h176l-207 -969h-176z" />
    <glyph glyph-name="idieresis" unicode="&#xef;" horiz-adv-x="456" 
d="M2 0l207 969h176l-207 -969h-176zM513 1137q-42 -1 -66 23q-23 24 -23 69t31 78t73 33t66 -24t24 -68t-31 -78q-32 -33 -74 -33zM248 1247q0 -45 -31 -77t-73 -33t-66 23t-23 69q0 45 31 78t73 33q41 0 65 -24t24 -69z" />
    <glyph glyph-name="eth" unicode="&#xf0;" horiz-adv-x="1052" 
d="M432 129q143 0 236 133q92 133 96 320q2 122 -53 188t-152 66q-147 0 -241 -134t-93 -321q0 -252 207 -252zM414 -20q-178 0 -275 111q-96 112 -96 284q0 264 148 437t336 173t278 -131h4q-20 225 -195 344l-252 -123l-45 90l183 86q-117 47 -273 54l33 145
q252 -12 418 -111l225 111l45 -90l-182 -88q190 -176 190 -504q0 -376 -152 -582t-390 -206z" />
    <glyph glyph-name="ntilde" unicode="&#xf1;" horiz-adv-x="1021" 
d="M733 1251q57 0 70 84h127q-8 -109 -58 -163t-117 -54q-65 0 -145 48t-110 48q-53 0 -68 -84h-129q8 109 59 163q101 107 263 6q78 -48 108 -48zM690 993q104 0 164 -59t61 -178q0 -74 -24 -189l-121 -567h-178l121 561q20 102 20 150q0 123 -108 123q-57 0 -125 -38
t-132 -123t-104 -261l-88 -412h-176l207 969h143l-24 -193h4q63 94 160 156q96 62 200 61z" />
    <glyph glyph-name="ograve" unicode="&#xf2;" horiz-adv-x="1042" 
d="M549 1087l-166 302h205l100 -302h-139zM426 129q147 0 242 141q94 141 94 332q0 242 -201 242q-147 0 -243 -142t-95 -331q0 -242 203 -242zM420 -20q-182 0 -281 106q-98 106 -98 274q0 274 154 454t372 179q181 0 279 -106t98 -275q0 -274 -152 -453t-372 -179z" />
    <glyph glyph-name="oacute" unicode="&#xf3;" horiz-adv-x="1042" 
d="M518 1087l156 302h205l-224 -302h-137zM426 129q147 0 242 141q94 141 94 332q0 242 -201 242q-147 0 -243 -142t-95 -331q0 -242 203 -242zM420 -20q-182 0 -281 106q-98 106 -98 274q0 274 154 454t372 179q181 0 279 -106t98 -275q0 -274 -152 -453t-372 -179z" />
    <glyph glyph-name="ocircumflex" unicode="&#xf4;" horiz-adv-x="1042" 
d="M334 1087l244 302h151l168 -302h-145l-107 193l-158 -193h-153zM426 129q147 0 242 141q94 141 94 332q0 242 -201 242q-147 0 -243 -142t-95 -331q0 -242 203 -242zM420 -20q-182 0 -281 106q-98 106 -98 274q0 274 154 454t372 179q181 0 279 -106t98 -275
q0 -274 -152 -453t-372 -179z" />
    <glyph glyph-name="otilde" unicode="&#xf5;" horiz-adv-x="1042" 
d="M741 1251q57 0 70 84h127q-8 -109 -58 -163t-116 -54t-146 48t-110 48q-53 0 -68 -84h-129q7 109 59 163q102 107 263 6q78 -48 108 -48zM426 129q147 0 242 141q94 141 94 332q0 242 -201 242q-147 0 -243 -142t-95 -331q0 -242 203 -242zM420 -20q-182 0 -281 106
q-98 106 -98 274q0 274 154 454t372 179q181 0 279 -106t98 -275q0 -274 -152 -453t-372 -179z" />
    <glyph glyph-name="odieresis" unicode="&#xf6;" horiz-adv-x="1042" 
d="M806 1137q-42 -1 -66 23t-24 69t32 78q30 33 72 33t67 -24t25 -68t-32 -78q-32 -33 -74 -33zM541 1247q0 -45 -31 -77t-73 -33q-41 -1 -65 23t-24 69t31 78t73 33t66 -24t23 -69zM426 129q147 0 242 141q94 141 94 332q0 242 -201 242q-147 0 -243 -142t-95 -331
q0 -242 203 -242zM420 -20q-182 0 -281 106q-98 106 -98 274q0 274 154 454t372 179q181 0 279 -106t98 -275q0 -274 -152 -453t-372 -179z" />
    <glyph glyph-name="divide" unicode="&#xf7;" horiz-adv-x="1087" 
d="M520 758q-43 0 -73 32q-29 32 -29 76t29 74q30 31 73 31t73 -31t30 -75q0 -43 -30 -75t-73 -32zM35 440v152h966v-152h-966zM520 59q-43 0 -73 31t-29 76q0 45 29 76q30 30 73 30t73 -30t30 -76q0 -45 -30 -76t-73 -31z" />
    <glyph glyph-name="oslash" unicode="&#xf8;" horiz-adv-x="1042" 
d="M223 371q0 -57 13 -107l456 541q-51 41 -129 41q-147 0 -243 -142t-97 -333zM428 127q147 0 244 142q96 142 96 333q0 61 -16 107l-455 -539q47 -43 131 -43zM43 360q0 274 154 454t372 179q137 0 228 -65l75 92l82 -72l-80 -96q72 -96 72 -240q0 -274 -152 -453
t-372 -179q-137 0 -232 65l-75 -92l-82 72l82 96q-72 96 -72 239z" />
    <glyph glyph-name="ugrave" unicode="&#xf9;" horiz-adv-x="1028" 
d="M547 1087l-166 302h205l100 -302h-139zM291 -20q-100 0 -166 60t-66 183q0 68 25 191l117 555h178l-121 -572q-18 -82 -18 -135q0 -127 110 -127q115 0 205 99t123 245l104 490h176l-122 -576q-31 -169 -31 -237t14 -136l-151 -32q-31 94 -25 188h-4q-61 -86 -155 -141
t-193 -55z" />
    <glyph glyph-name="uacute" unicode="&#xfa;" horiz-adv-x="1028" 
d="M510 1087l156 302h204l-223 -302h-137zM291 -20q-100 0 -166 60t-66 183q0 68 25 191l117 555h178l-121 -572q-18 -82 -18 -135q0 -127 110 -127q115 0 205 99t123 245l104 490h176l-122 -576q-31 -169 -31 -237t14 -136l-151 -32q-31 94 -25 188h-4q-61 -86 -155 -141
t-193 -55z" />
    <glyph glyph-name="ucircumflex" unicode="&#xfb;" horiz-adv-x="1028" 
d="M317 1087l244 302h152l168 -302h-146l-106 193l-158 -193h-154zM291 -20q-100 0 -166 60t-66 183q0 68 25 191l117 555h178l-121 -572q-18 -82 -18 -135q0 -127 110 -127q115 0 205 99t123 245l104 490h176l-122 -576q-31 -169 -31 -237t14 -136l-151 -32q-31 94 -25 188
h-4q-61 -86 -155 -141t-193 -55z" />
    <glyph glyph-name="udieresis" unicode="&#xfc;" horiz-adv-x="1028" 
d="M899 1248q1 -44 -31 -78t-74 -33q-42 -1 -66 23t-24 69t31 78t73 33t66 -24t25 -68zM425 1137q-42 -1 -66 23q-23 24 -23 69t31 78t73 33t65 -24t23 -69t-30 -78q-31 -32 -73 -32zM291 -20q-100 0 -166 60t-66 183q0 68 25 191l117 555h178l-121 -572q-18 -82 -18 -135
q0 -127 110 -127q115 0 205 99t123 245l104 490h176l-122 -576q-31 -169 -31 -237t14 -136l-151 -32q-31 94 -25 188h-4q-61 -86 -155 -141t-193 -55z" />
    <glyph glyph-name="yacute" unicode="&#xfd;" horiz-adv-x="925" 
d="M444 1087l156 302h205l-223 -302h-138zM-74 -336q98 0 186 73q87 73 179 261l-219 971h178l102 -494q12 -59 56 -276h4q47 113 114 252l252 518h187l-510 -1002q-127 -252 -249 -352t-294 -100q-105 -1 -168 36l63 140q55 -27 119 -27z" />
    <glyph glyph-name="thorn" unicode="&#xfe;" horiz-adv-x="1036" 
d="M362 131q172 0 284 121t112 311q0 139 -72 209t-203 70q-63 0 -129 -17l-141 -667q61 -27 149 -27zM492 993q220 -1 334 -115t114 -300q0 -279 -169 -439t-396 -159q-100 0 -197 28l-104 -493h-178l413 1935h178l-100 -467q47 10 105 10z" />
    <glyph glyph-name="ydieresis" unicode="&#xff;" horiz-adv-x="925" 
d="M724 1137q-42 -1 -66 23t-24 69t32 78q30 33 72 33t67 -24t25 -68t-32 -78q-32 -33 -74 -33zM459 1247q0 -45 -31 -77t-73 -33q-41 -1 -65 23t-24 69t31 78t73 33t66 -24t23 -69zM-74 -336q98 0 186 73q87 73 179 261l-219 971h178l102 -494q12 -59 56 -276h4
q47 113 114 252l252 518h187l-510 -1002q-127 -252 -249 -352t-294 -100q-105 -1 -168 36l63 140q55 -27 119 -27z" />
    <glyph glyph-name="Amacron" unicode="&#x100;" horiz-adv-x="1187" 
d="M438 1460l29 142h532l-30 -142h-531zM373 504h368l-61 399q-16 111 -27 178h-4q-68 -156 -84 -188zM-90 0l717 1354h143l246 -1354h-189l-61 354h-475l-180 -354h-201z" />
    <glyph glyph-name="amacron" unicode="&#x101;" horiz-adv-x="960" 
d="M285 1171l28 142h533l-31 -142h-530zM307 127q96 0 186 79q89 79 113 195l15 68h-76q-219 1 -293 -59t-74 -150q0 -133 129 -133zM260 -20q-118 0 -188 72t-70 184q0 164 122 264t384 100l135 2q12 45 12 100q0 147 -178 148q-133 0 -287 -74l-24 137q170 80 324 80
q342 0 344 -280q0 -72 -35 -234l-21 -86q-35 -157 -35 -235t17 -138l-154 -32q-27 82 -28 166q-136 -174 -318 -174z" />
    <glyph glyph-name="Abreve" unicode="&#x102;" horiz-adv-x="1187" 
d="M711 1434q-119 0 -182 70q-62 71 -52 192h127q-4 -142 118 -142t167 142h131q-26 -122 -108 -192t-201 -70zM373 504h368l-61 399q-16 111 -27 178h-4q-68 -156 -84 -188zM-90 0l717 1354h143l246 -1354h-189l-61 354h-475l-180 -354h-201z" />
    <glyph glyph-name="abreve" unicode="&#x103;" horiz-adv-x="960" 
d="M543 1112q-119 0 -181 70q-61 70 -51 190h127q-4 -139 118 -139t165 139h133q-28 -124 -110 -192t-201 -68zM307 127q96 0 186 79q89 79 113 195l15 68h-76q-219 1 -293 -59t-74 -150q0 -133 129 -133zM260 -20q-118 0 -188 72t-70 184q0 164 122 264t384 100l135 2
q12 45 12 100q0 147 -178 148q-133 0 -287 -74l-24 137q170 80 324 80q342 0 344 -280q0 -72 -35 -234l-21 -86q-35 -157 -35 -235t17 -138l-154 -32q-27 82 -28 166q-136 -174 -318 -174z" />
    <glyph glyph-name="Aogonek" unicode="&#x104;" horiz-adv-x="1187" 
d="M373 504h368l-61 399q-16 111 -27 178h-4q-68 -156 -84 -188zM729 -256q0 -66 70 -66q29 0 78 17l12 -109q-63 -22 -146 -22t-126 40q-42 40 -42 105q0 184 250 307l-59 338h-475l-180 -354h-201l717 1356h143l246 -1356q-115 -41 -201 -112t-86 -144z" />
    <glyph glyph-name="aogonek" unicode="&#x105;" horiz-adv-x="960" 
d="M307 127q96 0 186 79q89 79 113 195l15 68h-76q-219 1 -293 -59t-74 -150q0 -133 129 -133zM260 -20q-118 0 -188 72t-70 184q0 164 122 264t384 100l135 2q12 45 12 100q0 147 -178 148q-133 0 -287 -74l-24 137q170 80 324 80q342 0 344 -280q0 -72 -35 -234l-21 -86
q-35 -162 -35 -243t17 -140q-115 -51 -198 -123t-83 -143q0 -66 70 -66q33 0 78 17l14 -109q-69 -22 -149 -22t-123 41t-43 104q0 180 270 318q-16 70 -18 127q-136 -174 -318 -174z" />
    <glyph glyph-name="Cacute" unicode="&#x106;" horiz-adv-x="1210" 
d="M717 1425l155 301h205l-223 -301h-137zM657 -20q-257 0 -411 148t-154 411q0 356 222 589t560 234q182 0 336 -72l-36 -155q-143 72 -297 71q-262 0 -428 -189t-166 -460q0 -190 102 -306q103 -116 279 -116t342 84l34 -149q-174 -90 -383 -90z" />
    <glyph glyph-name="cacute" unicode="&#x107;" horiz-adv-x="897" 
d="M487 1087l156 302h205l-223 -302h-138zM453 -20q-188 0 -299 110t-111 297q0 256 159 431t402 175q135 0 244 -49l-33 -149q-102 49 -209 49q-158 0 -270 -125t-111 -313q-1 -129 63 -203t186 -74t245 72l47 -129q-57 -40 -145 -66t-168 -26z" />
    <glyph glyph-name="Ccircumflex" unicode="&#x108;" horiz-adv-x="1210" 
d="M537 1425l243 301h152l168 -301h-146l-106 193l-158 -193h-153zM657 -20q-257 0 -411 148t-154 411q0 356 222 589t560 234q182 0 336 -72l-36 -155q-143 72 -297 71q-262 0 -428 -189t-166 -460q0 -190 102 -306q103 -116 279 -116t342 84l34 -149q-174 -90 -383 -90z
" />
    <glyph glyph-name="ccircumflex" unicode="&#x109;" horiz-adv-x="897" 
d="M295 1087l244 302h151l168 -302h-145l-107 193l-157 -193h-154zM453 -20q-188 0 -299 110t-111 297q0 256 159 431t402 175q135 0 244 -49l-33 -149q-102 49 -209 49q-158 0 -270 -125t-111 -313q-1 -129 63 -203t186 -74t245 72l47 -129q-57 -40 -145 -66t-168 -26z" />
    <glyph glyph-name="Cdotaccent" unicode="&#x10a;" horiz-adv-x="1210" 
d="M824 1462q-50 0 -79 29t-29 79t40 86q39 36 89 36t78 -28q27 -28 27 -78t-38 -87t-88 -37zM657 -20q-257 0 -411 148t-154 411q0 356 222 589t560 234q182 0 336 -72l-36 -155q-143 72 -297 71q-262 0 -428 -189t-166 -460q0 -190 102 -306q103 -116 279 -116t342 84
l34 -149q-174 -90 -383 -90z" />
    <glyph glyph-name="cdotaccent" unicode="&#x10b;" horiz-adv-x="897" 
d="M599 1169q-50 0 -79 29q-28 29 -28 79t38 86q40 36 90 36t78 -29t29 -78q0 -49 -39 -86t-89 -37zM453 -20q-188 0 -299 110t-111 297q0 256 159 431t402 175q135 0 244 -49l-33 -149q-102 49 -209 49q-158 0 -270 -125t-111 -313q-1 -129 63 -203t186 -74t245 72l47 -129
q-57 -40 -145 -66t-168 -26z" />
    <glyph glyph-name="Ccaron" unicode="&#x10c;" horiz-adv-x="1210" 
d="M743 1427l-165 302h145l106 -195l158 195h154l-244 -302h-154zM657 -20q-257 0 -411 148t-154 411q0 356 222 589t560 234q182 0 336 -72l-36 -155q-143 72 -297 71q-262 0 -428 -189t-166 -460q0 -190 102 -306q103 -116 279 -116t342 84l34 -149q-174 -90 -383 -90z
" />
    <glyph glyph-name="ccaron" unicode="&#x10d;" horiz-adv-x="897" 
d="M502 1090l-166 301h145l107 -195l157 195h154l-244 -301h-153zM453 -20q-188 0 -299 110t-111 297q0 256 159 431t402 175q135 0 244 -49l-33 -149q-102 49 -209 49q-158 0 -270 -125t-111 -313q-1 -129 63 -203t186 -74t245 72l47 -129q-57 -40 -145 -66t-168 -26z" />
    <glyph glyph-name="Dcaron" unicode="&#x10e;" horiz-adv-x="1306" 
d="M627 1427l-166 302h145l107 -195l157 195h154l-244 -302h-153zM1028 805q0 391 -489 391h-84l-222 -1042h134q408 0 573 289q88 155 88 362zM545 1350q231 0 381 -68q293 -129 293 -487q0 -251 -120 -441q-223 -355 -751 -354h-328l287 1350h238z" />
    <glyph glyph-name="dcaron" unicode="&#x10f;" horiz-adv-x="1024" 
d="M1116 1051l125 399h180l-168 -399h-137zM487 131q82 0 146 29l137 653q-82 29 -156 29q-164 0 -276 -118t-113 -308q1 -129 69 -207t193 -78zM458 -20q-178 0 -296 114t-119 312q0 264 163 426t396 161q115 0 201 -30l104 487h178l-301 -1405q-148 -65 -326 -65z" />
    <glyph glyph-name="Dcroat" unicode="&#x110;" horiz-adv-x="1306" 
d="M1028 801q0 395 -489 395h-84l-95 -442h326l-33 -150h-325l-95 -450h134q407 0 573 288q88 154 88 359zM545 1350q231 0 381 -68q293 -129 293 -494q0 -240 -121 -434q-222 -354 -750 -354h-328l127 604h-159l32 150h160l127 596h238z" />
    <glyph glyph-name="dcroat" unicode="&#x111;" horiz-adv-x="1024" 
d="M487 131q82 0 146 29l137 653q-82 29 -156 29q-164 0 -276 -118t-113 -308q1 -129 69 -207t193 -78zM458 -20q-178 0 -296 114t-119 312q0 264 163 426t396 161q115 0 201 -30l39 184h-281l31 141h280l35 162h178l-34 -162h123l-31 -141h-123l-236 -1102
q-148 -65 -326 -65z" />
    <glyph glyph-name="Emacron" unicode="&#x112;" horiz-adv-x="958" 
d="M379 1460l29 142h532l-31 -142h-530zM20 0l287 1350h654l-62 -154h-444l-90 -430h436l-33 -154h-438l-97 -458h498l-33 -154h-678z" />
    <glyph glyph-name="emacron" unicode="&#x113;" horiz-adv-x="960" 
d="M322 1171l28 142h533l-31 -142h-530zM700 696q0 58 -38 106q-39 48 -134 48t-176 -80t-106 -195l438 7q16 56 16 114zM446 -20q-182 0 -292 110t-111 303q0 256 144 428t364 172q158 0 242 -87t84 -230q0 -102 -43 -225l-611 -9q-2 -16 -2 -49q0 -125 67 -195
q68 -70 182 -71q114 0 257 74l49 -131q-148 -90 -330 -90z" />
    <glyph glyph-name="Ebreve" unicode="&#x114;" horiz-adv-x="958" 
d="M643 1434q-119 0 -181 70t-52 192h127q-4 -141 118 -142q121 0 166 142h131q-27 -123 -108 -193q-82 -69 -201 -69zM20 0l287 1350h654l-62 -154h-444l-90 -430h436l-33 -154h-438l-97 -458h498l-33 -154h-678z" />
    <glyph glyph-name="ebreve" unicode="&#x115;" horiz-adv-x="960" 
d="M569 1112q-119 0 -180 70t-51 190h127q-4 -139 118 -139t165 139h133q-27 -124 -110 -192t-202 -68zM700 696q0 58 -38 106q-39 48 -134 48t-176 -80t-106 -195l438 7q16 56 16 114zM446 -20q-182 0 -292 110t-111 303q0 256 144 428t364 172q158 0 242 -87t84 -230
q0 -102 -43 -225l-611 -9q-2 -16 -2 -49q0 -125 67 -195q68 -70 182 -71q114 0 257 74l49 -131q-148 -90 -330 -90z" />
    <glyph glyph-name="Edotaccent" unicode="&#x116;" horiz-adv-x="958" 
d="M649 1462q-51 0 -79 29t-28 79t40 86q39 36 89 36t78 -28q27 -28 27 -78t-38 -87t-89 -37zM20 0l287 1350h654l-62 -154h-444l-90 -430h436l-33 -154h-438l-97 -458h498l-33 -154h-678z" />
    <glyph glyph-name="edotaccent" unicode="&#x117;" horiz-adv-x="960" 
d="M589 1169q-50 0 -79 29t-29 79t39 86t89 36t79 -29t29 -78t-39 -86t-89 -37zM700 696q0 58 -38 106q-39 48 -134 48t-176 -80t-106 -195l438 7q16 56 16 114zM446 -20q-182 0 -292 110t-111 303q0 256 144 428t364 172q158 0 242 -87t84 -230q0 -102 -43 -225l-611 -9
q-2 -16 -2 -49q0 -125 67 -195q68 -70 182 -71q114 0 257 74l49 -131q-148 -90 -330 -90z" />
    <glyph glyph-name="Eogonek" unicode="&#x118;" horiz-adv-x="958" 
d="M385 -256q0 -66 70 -66q31 0 80 17l12 -109q-192 -57 -273 19q-43 41 -43 104q0 164 226 291h-437l287 1350h654l-62 -154h-444l-90 -430h436l-33 -154h-438l-97 -458h498l-33 -154h-34q-279 -129 -279 -256z" />
    <glyph glyph-name="eogonek" unicode="&#x119;" horiz-adv-x="960" 
d="M700 696q0 58 -38 106q-39 48 -134 48t-176 -80t-106 -195l438 7q16 56 16 114zM458 -436q-83 0 -125 40t-42 105q0 143 176 271v4q-193 -8 -309 102t-115 305q0 258 144 430t364 172q158 0 242 -87t84 -230q0 -102 -43 -225l-611 -9q-2 -12 -2 -51q0 -125 67 -195
q68 -70 182 -69q114 0 257 74l49 -129q-125 -64 -228 -158q-104 -94 -104 -165t70 -71q29 0 78 17l12 -109q-63 -22 -146 -22z" />
    <glyph glyph-name="Ecaron" unicode="&#x11a;" horiz-adv-x="966" 
d="M561 1427l-166 302h146l106 -195l158 195h153l-243 -302h-154zM20 0l287 1350h654l-62 -154h-444l-90 -430h436l-33 -154h-438l-97 -458h498l-33 -154h-678z" />
    <glyph glyph-name="ecaron" unicode="&#x11b;" horiz-adv-x="960" 
d="M496 1090l-166 301h145l107 -195l157 195h154l-244 -301h-153zM700 696q0 58 -38 106q-39 48 -134 48t-176 -80t-106 -195l438 7q16 56 16 114zM446 -20q-182 0 -292 110t-111 303q0 256 144 428t364 172q158 0 242 -87t84 -230q0 -102 -43 -225l-611 -9q-2 -16 -2 -49
q0 -125 67 -195q68 -70 182 -71q114 0 257 74l49 -131q-148 -90 -330 -90z" />
    <glyph glyph-name="Gcircumflex" unicode="&#x11c;" horiz-adv-x="1355" 
d="M569 1425l244 301h152l168 -301h-146l-106 193l-158 -193h-154zM667 -20q-259 0 -417 148t-158 417q0 217 94 401t278 300t410 116t404 -82l-37 -156q-154 84 -340 84q-276 0 -447 -186t-171 -457q-1 -215 109 -323t281 -107q171 0 265 49l100 459h179l-121 -565
q-170 -98 -429 -98z" />
    <glyph glyph-name="gcircumflex" unicode="&#x11d;" horiz-adv-x="1005" 
d="M358 1087l244 302h152l168 -302h-146l-106 193l-158 -193h-154zM371 131q92 0 190 96t146 320l59 276q-55 18 -137 19q-182 0 -293 -150q-110 -150 -110 -356t145 -205zM270 -330q133 0 208 77t112 243l35 153h-4q-129 -162 -304 -161q-125 0 -199 84t-75 254
q0 170 65 322q65 151 205 251q141 100 323 100t333 -55l-207 -969q-45 -221 -158 -338t-348 -116q-160 -1 -299 73l63 150q117 -68 250 -68z" />
    <glyph glyph-name="Gbreve" unicode="&#x11e;" horiz-adv-x="1355" 
d="M850 1434q-119 0 -181 70t-53 192h127q-4 -142 118 -142t167 142h131q-27 -123 -108 -193q-82 -69 -201 -69zM667 -20q-259 0 -417 148t-158 417q0 217 94 401t278 300t410 116t404 -82l-37 -156q-154 84 -340 84q-276 0 -447 -186t-171 -457q-1 -215 109 -323t281 -107
q171 0 265 49l100 459h179l-121 -565q-170 -98 -429 -98z" />
    <glyph glyph-name="gbreve" unicode="&#x11f;" horiz-adv-x="1005" 
d="M647 1112q-119 0 -180 70t-51 190h127q-5 -139 117 -139t165 139h133q-28 -124 -110 -192t-201 -68zM371 131q92 0 190 96t146 320l59 276q-55 18 -137 19q-182 0 -293 -150q-110 -150 -110 -356t145 -205zM270 -330q133 0 208 77t112 243l35 153h-4q-129 -162 -304 -161
q-125 0 -199 84t-75 254q0 170 65 322q65 151 205 251q141 100 323 100t333 -55l-207 -969q-45 -221 -158 -338t-348 -116q-160 -1 -299 73l63 150q117 -68 250 -68z" />
    <glyph glyph-name="Gdotaccent" unicode="&#x120;" horiz-adv-x="1355" 
d="M857 1462q-50 0 -79 29q-28 29 -28 79t38 86q40 36 90 36t78 -28t27 -78q0 -50 -38 -87t-88 -37zM667 -20q-259 0 -417 148t-158 417q0 217 94 401t278 300t410 116t404 -82l-37 -156q-154 84 -340 84q-276 0 -447 -186t-171 -457q-1 -215 109 -323t281 -107
q171 0 265 49l100 459h179l-121 -565q-170 -98 -429 -98z" />
    <glyph glyph-name="gdotaccent" unicode="&#x121;" horiz-adv-x="1005" 
d="M650 1169q-50 0 -79 29t-29 79t40 86q39 36 89 36t79 -29q28 -29 28 -78t-39 -86t-89 -37zM371 131q92 0 190 96t146 320l59 276q-55 18 -137 19q-182 0 -293 -150q-110 -150 -110 -356t145 -205zM270 -330q133 0 208 77t112 243l35 153h-4q-129 -162 -304 -161
q-125 0 -199 84t-75 254q0 170 65 322q65 151 205 251q141 100 323 100t333 -55l-207 -969q-45 -221 -158 -338t-348 -116q-160 -1 -299 73l63 150q117 -68 250 -68z" />
    <glyph glyph-name="Gcommaaccent" unicode="&#x122;" horiz-adv-x="1355" 
d="M555 -205q0 39 -25 99h164q25 -49 25 -113q0 -213 -301 -266l-41 118q178 43 178 162zM667 -20q-259 0 -417 148t-158 417q0 217 94 401t278 300t410 116t404 -82l-37 -156q-154 84 -340 84q-276 0 -447 -186t-171 -457q-1 -215 109 -323t281 -107q171 0 265 49l100 459
h179l-121 -565q-170 -98 -429 -98z" />
    <glyph glyph-name="gcommaaccent" unicode="&#x123;" horiz-adv-x="1005" 
d="M371 131q92 0 190 96t146 320l59 276q-55 18 -137 19q-182 0 -293 -146t-111 -340q1 -225 146 -225zM270 -330q133 0 208 77t112 243l35 153h-4q-129 -162 -304 -161q-125 0 -199 86t-75 236q0 284 148 479q73 95 193 153t278 57q158 0 307 -55l-207 -969
q-45 -221 -158 -338t-348 -116q-160 -1 -299 73l63 150q117 -68 250 -68zM514 1188q0 227 309 278l37 -116q-180 -45 -180 -164q0 -43 22 -99h-161q-27 47 -27 101z" />
    <glyph glyph-name="Hcircumflex" unicode="&#x124;" horiz-adv-x="1363" 
d="M559 1425l244 301h151l168 -301h-145l-107 193l-157 -193h-154zM20 0l287 1350h180l-125 -586h676l125 586h180l-286 -1350h-180l129 608h-676l-129 -608h-181z" />
    <glyph glyph-name="hcircumflex" unicode="&#x125;" horiz-adv-x="1026" 
d="M119 1487l243 301h152l168 -301h-145l-107 192l-158 -192h-153zM691 993q103 0 163 -59t61 -178q0 -74 -24 -189l-121 -567h-178l121 561q20 102 20 150q0 123 -108 123q-59 0 -128 -40q-170 -98 -233 -382l-88 -412h-176l309 1450h178l-106 -489q-16 -90 -49 -185h4
q60 96 156 156t199 61z" />
    <glyph glyph-name="Hbar" unicode="&#x126;" horiz-adv-x="1363" 
d="M362 764h676l47 215h-675zM20 0l209 979h-145l31 141h143l49 230h180l-49 -230h676l49 230h180l-49 -230h150l-31 -141h-147l-209 -979h-180l129 608h-676l-129 -608h-181z" />
    <glyph glyph-name="hbar" unicode="&#x127;" horiz-adv-x="1026" 
d="M691 993q103 0 163 -59t61 -178q0 -74 -24 -189l-121 -567h-178l121 561q20 102 20 150q0 123 -108 123q-57 0 -125 -38t-132 -124t-104 -264l-88 -408h-176l242 1137h-127l32 141h125l37 172h178l-36 -172h245l-32 -141h-246l-37 -176q-16 -90 -49 -185h4q60 96 156 156
t199 61z" />
    <glyph glyph-name="Itilde" unicode="&#x128;" horiz-adv-x="507" 
d="M294 1700q66 0 144 -48t109 -48q57 0 69 84h127q-8 -109 -58 -163q-99 -107 -262 -6q-79 48 -110 48q-55 0 -67 -84h-129q8 109 59 163q52 54 118 54zM20 0l287 1350h180l-286 -1350h-181z" />
    <glyph glyph-name="itilde" unicode="&#x129;" horiz-adv-x="456" 
d="M2 0l207 969h176l-207 -969h-176zM451 1251q57 0 69 84h127q-8 -109 -58 -163q-51 -54 -117 -54t-145 48t-110 48q-53 0 -67 -84h-130q8 109 60 163q102 107 262 6q78 -48 109 -48z" />
    <glyph glyph-name="imacron" unicode="&#x12b;" horiz-adv-x="456" 
d="M2 0l207 969h176l-207 -969h-176zM63 1171l29 142h533l-31 -142h-531z" />
    <glyph glyph-name="Ibreve" unicode="&#x12c;" horiz-adv-x="507" 
d="M420 1434q-119 0 -181 70t-53 192h127q-4 -142 118 -142t167 142h131q-27 -123 -108 -193q-82 -69 -201 -69zM20 0l287 1350h180l-286 -1350h-181z" />
    <glyph glyph-name="Iogonek" unicode="&#x12e;" horiz-adv-x="507" 
d="M0 -256q0 -66 70 -66q29 0 77 17l13 -109q-78 -22 -154 -22t-118 41t-42 108q1 139 179 305l282 1332h180l-286 -1350q-201 -141 -201 -256z" />
    <glyph glyph-name="iogonek" unicode="&#x12f;" horiz-adv-x="456" 
d="M348 1169q-51 0 -80 29q-28 29 -28 79t39 86t89 36t78 -30t29 -79q0 -49 -38 -85t-89 -36zM-14 -436q-76 0 -118 41t-42 108q0 139 178 305l203 951h178l-209 -969q-197 -145 -196 -256q0 -66 69 -66q33 0 78 17l14 -109q-79 -22 -155 -22z" />
    <glyph glyph-name="Idotaccent" unicode="&#x130;" horiz-adv-x="507" 
d="M431 1462q-50 0 -79 29q-28 29 -28 79t38 86q40 36 90 36t78 -28t27 -78q0 -50 -38 -87t-88 -37zM20 0l287 1350h180l-286 -1350h-181z" />
    <glyph glyph-name="dotlessi" unicode="&#x131;" horiz-adv-x="456" 
d="M2 0l207 969h176l-207 -969h-176z" />
    <glyph glyph-name="IJ" unicode="&#x132;" horiz-adv-x="1091" 
d="M391 -375q-104 0 -184 35l55 145q51 -25 129 -24q117 0 168 92q35 68 51 160l281 1317h180l-285 -1336q-31 -152 -79 -235q-96 -154 -316 -154zM20 0l287 1350h180l-286 -1350h-181z" />
    <glyph glyph-name="ij" unicode="&#x133;" horiz-adv-x="894" 
d="M808 1169q-50 0 -79 28t-29 79t39 87t88 36t78 -28t29 -79t-38 -87t-88 -36zM102 -457l54 148q42 -19 108 -19t106 47t62 154l234 1096h178l-252 -1172q-59 -283 -334 -282q-88 -1 -156 28zM347 1169q-50 0 -79 29q-28 29 -28 79t39 86t89 36t78 -29t29 -78
q0 -49 -39 -86t-89 -37zM0 0l207 969h178l-209 -969h-176z" />
    <glyph glyph-name="Jcircumflex" unicode="&#x134;" horiz-adv-x="591" 
d="M201 1425l243 301h152l168 -301h-146l-106 193l-158 -193h-153zM-109 -375q-104 0 -184 35l55 145q51 -25 129 -24q117 0 168 92q35 68 52 160l280 1317h180l-284 -1336q-31 -152 -80 -235q-96 -154 -316 -154z" />
    <glyph glyph-name="jcircumflex" unicode="&#x135;" horiz-adv-x="485" 
d="M49 1087l244 302h153l166 -302h-145l-107 193l-157 -193h-154zM-328 -457l49 140q43 -21 109 -21t107 49t63 156l236 1102h178l-252 -1172q-59 -283 -334 -282q-88 -1 -156 28z" />
    <glyph glyph-name="Kcommaaccent" unicode="&#x136;" horiz-adv-x="1120" 
d="M350 -205q0 39 -24 99h163q25 -49 25 -113q0 -213 -301 -266l-41 118q178 43 178 162zM20 0l287 1350h180l-131 -621h6l588 621h219l-671 -703l450 -647h-217l-401 590h-4l-125 -590h-181z" />
    <glyph glyph-name="kcommaaccent" unicode="&#x137;" horiz-adv-x="911" 
d="M287 -205q0 39 -25 99h164q25 -49 25 -113q0 -213 -301 -266l-41 118q178 43 178 162zM0 0l309 1450h178l-180 -842h4l406 361h221l-492 -432l340 -537h-204l-297 481h-4l-105 -481h-176z" />
    <glyph glyph-name="Lacute" unicode="&#x139;" horiz-adv-x="886" 
d="M346 1425l156 301h205l-224 -301h-137zM20 0l287 1350h180l-254 -1196h492l-35 -154h-670z" />
    <glyph glyph-name="lacute" unicode="&#x13a;" horiz-adv-x="540" 
d="M227 -12q-77 0 -128 44q-50 44 -50 128q0 33 12 100l254 1190h179l-254 -1188q-8 -35 -9 -63q0 -53 60 -54q35 0 78 15v-148q-65 -24 -142 -24zM332 1499l133 260h194l-190 -260h-137z" />
    <glyph glyph-name="Lcommaaccent" unicode="&#x13b;" horiz-adv-x="886" 
d="M254 -205q0 39 -25 99h164q25 -49 25 -113q0 -213 -301 -266l-41 118q178 43 178 162zM20 0l287 1350h180l-254 -1196h492l-35 -154h-670z" />
    <glyph glyph-name="lcommaaccent" unicode="&#x13c;" horiz-adv-x="540" 
d="M80 -205q0 39 -25 99h164q25 -49 25 -113q0 -213 -301 -266l-41 118q178 43 178 162zM227 -12q-77 0 -128 44q-50 44 -50 128q0 33 12 100l254 1190h179l-254 -1188q-8 -35 -9 -63q0 -53 60 -54q35 0 78 15v-148q-65 -24 -142 -24z" />
    <glyph glyph-name="Lcaron" unicode="&#x13d;" horiz-adv-x="886" 
d="M621 1051l124 399h181l-168 -399h-137zM20 0l287 1350h180l-254 -1196h492l-35 -154h-670z" />
    <glyph glyph-name="lcaron" unicode="&#x13e;" horiz-adv-x="540" 
d="M522 1051l125 399h180l-168 -399h-137zM227 -12q-77 0 -128 44q-50 44 -50 128q0 33 12 100l254 1190h179l-254 -1188q-8 -35 -9 -63q0 -53 60 -54q35 0 78 15v-148q-65 -24 -142 -24z" />
    <glyph glyph-name="Ldot" unicode="&#x13f;" horiz-adv-x="886" 
d="M799 702q0 -48 -34 -83t-81 -35t-75 30q-27 30 -27 77q0 48 33 84q34 36 81 36t75 -31q28 -30 28 -78zM20 0l287 1350h180l-254 -1196h492l-35 -154h-670z" />
    <glyph glyph-name="ldot" unicode="&#x140;" horiz-adv-x="608" 
d="M534 584q-46 0 -74 30t-28 77q0 48 34 84t81 36t75 -31q28 -30 28 -78t-35 -83q-34 -35 -81 -35zM227 -12q-77 0 -128 44q-50 44 -50 128q0 33 12 100l254 1190h179l-254 -1188q-8 -35 -9 -63q0 -53 60 -54q35 0 78 15v-148q-65 -24 -142 -24z" />
    <glyph glyph-name="Lslash" unicode="&#x141;" horiz-adv-x="892" 
d="M29 0l104 487l-129 -69l37 174l129 70l145 688h181l-123 -584l332 174l-39 -172l-330 -174l-94 -440h491l-35 -154h-669z" />
    <glyph glyph-name="lslash" unicode="&#x142;" horiz-adv-x="552" 
d="M239 -12q-77 0 -127 44t-51 128q0 33 13 100l63 305l-123 -63l39 176l123 63l152 709h178l-129 -604l141 74l-37 -177l-143 -75l-86 -406q-8 -35 -8 -63q0 -53 59 -54q35 0 78 15v-148q-65 -24 -142 -24z" />
    <glyph glyph-name="Nacute" unicode="&#x143;" horiz-adv-x="1439" 
d="M782 1425l156 301h205l-223 -301h-138zM20 0l287 1350h170l445 -871q47 -90 90 -190h4q15 94 39 207l180 854h182l-289 -1350h-149l-459 899q-74 147 -90 188h-4q-10 -68 -35 -194l-190 -893h-181z" />
    <glyph glyph-name="nacute" unicode="&#x144;" horiz-adv-x="1021" 
d="M512 1087l156 302h204l-223 -302h-137zM690 993q104 0 164 -59t61 -178q0 -74 -24 -189l-121 -567h-178l121 561q20 102 20 150q0 123 -108 123q-57 0 -125 -38t-132 -123t-104 -261l-88 -412h-176l207 969h143l-24 -193h4q63 94 160 156q96 62 200 61z" />
    <glyph glyph-name="Ncommaaccent" unicode="&#x145;" horiz-adv-x="1439" 
d="M518 -205q0 39 -24 99h163q25 -49 25 -113q0 -213 -301 -266l-41 118q178 43 178 162zM20 0l287 1350h170l445 -871q47 -90 90 -190h4q15 94 39 207l180 854h182l-289 -1350h-149l-459 899q-74 147 -90 188h-4q-10 -68 -35 -194l-190 -893h-181z" />
    <glyph glyph-name="ncommaaccent" unicode="&#x146;" horiz-adv-x="1021" 
d="M295 -205q0 39 -25 99h164q25 -49 25 -113q0 -213 -301 -266l-41 118q178 43 178 162zM690 993q104 0 164 -59t61 -178q0 -74 -24 -189l-121 -567h-178l121 561q20 102 20 150q0 123 -108 123q-57 0 -125 -38t-132 -123t-104 -261l-88 -412h-176l207 969h143l-24 -193h4
q63 94 160 156q96 62 200 61z" />
    <glyph glyph-name="Ncaron" unicode="&#x147;" horiz-adv-x="1439" 
d="M805 1427l-166 302h145l107 -195l158 195h153l-244 -302h-153zM20 0l287 1350h170l445 -871q47 -90 90 -190h4q15 94 39 207l180 854h182l-289 -1350h-149l-459 899q-74 147 -90 188h-4q-10 -68 -35 -194l-190 -893h-181z" />
    <glyph glyph-name="ncaron" unicode="&#x148;" horiz-adv-x="1021" 
d="M512 1090l-166 301h146l106 -195l158 195h153l-243 -301h-154zM690 993q104 0 164 -59t61 -178q0 -74 -24 -189l-121 -567h-178l121 561q20 102 20 150q0 123 -108 123q-57 0 -125 -38t-132 -123t-104 -261l-88 -412h-176l207 969h143l-24 -193h4q63 94 160 156
q96 62 200 61z" />
    <glyph glyph-name="Eng" unicode="&#x14a;" horiz-adv-x="1435" 
d="M758 -406q-86 0 -164 31l51 148q43 -23 114 -23t113 46t68 167l16 80l-436 854q-66 125 -90 186h-4q-14 -102 -37 -192l-188 -891h-181l287 1350h170l445 -869q51 -100 90 -192h4q16 112 39 207l180 854h182l-315 -1473q-63 -283 -344 -283z" />
    <glyph glyph-name="eng" unicode="&#x14b;" horiz-adv-x="1026" 
d="M690 993q104 0 164 -59t61 -178q0 -74 -24 -189l-146 -684q-63 -283 -333 -282q-90 0 -158 28l53 148q45 -19 109 -19t105 47q40 47 63 154l129 602q20 102 20 150q0 123 -108 123q-59 0 -128 -39t-131 -123t-102 -260l-88 -412h-176l207 969h143l-24 -193h4
q63 94 160 156q96 62 200 61z" />
    <glyph glyph-name="Omacron" unicode="&#x14c;" horiz-adv-x="1470" 
d="M598 1460l29 142h532l-31 -142h-530zM651 135q240 0 387 202t148 460q0 197 -93 303t-263 106t-296 -99t-188 -247t-63 -328q0 -180 94 -288t274 -109zM1378 799q0 -215 -89 -401t-260 -302t-407 -116t-382 147q-147 147 -148 418q0 215 89 400t260 301t407 116t382 -146
q148 -146 148 -417z" />
    <glyph glyph-name="omacron" unicode="&#x14d;" horiz-adv-x="1042" 
d="M350 1171l29 142h532l-30 -142h-531zM426 129q147 0 242 141q94 141 94 332q0 242 -201 242q-147 0 -243 -142t-95 -331q0 -242 203 -242zM420 -20q-182 0 -281 106q-98 106 -98 274q0 274 154 454t372 179q181 0 279 -106t98 -275q0 -274 -152 -453t-372 -179z" />
    <glyph glyph-name="Obreve" unicode="&#x14e;" horiz-adv-x="1470" 
d="M864 1434q-119 0 -181 70t-52 192h127q-4 -142 118 -142t166 142h132q-27 -122 -109 -192t-201 -70zM651 135q240 0 387 202t148 460q0 197 -93 303t-263 106t-296 -99t-188 -247t-63 -328q0 -180 94 -288t274 -109zM1378 799q0 -215 -89 -401t-260 -302t-407 -116
t-382 147q-147 147 -148 418q0 215 89 400t260 301t407 116t382 -146q148 -146 148 -417z" />
    <glyph glyph-name="obreve" unicode="&#x14f;" horiz-adv-x="1042" 
d="M606 1112q-119 0 -180 70t-51 190h127q-4 -139 118 -139t164 139h134q-27 -124 -110 -192t-202 -68zM426 129q147 0 242 141q94 141 94 332q0 242 -201 242q-147 0 -243 -142t-95 -331q0 -242 203 -242zM420 -20q-182 0 -281 106q-98 106 -98 274q0 274 154 454t372 179
q181 0 279 -106t98 -275q0 -274 -152 -453t-372 -179z" />
    <glyph glyph-name="Ohungarumlaut" unicode="&#x150;" horiz-adv-x="1470" 
d="M963 1425l157 301h205l-223 -301h-139zM623 1425l155 301h205l-221 -301h-139zM651 135q240 0 387 202t148 460q0 197 -93 303t-263 106t-296 -99t-188 -247t-63 -328q0 -180 94 -288t274 -109zM1378 799q0 -215 -89 -401t-260 -302t-407 -116t-382 147
q-147 147 -148 418q0 215 89 400t260 301t407 116t382 -146q148 -146 148 -417z" />
    <glyph glyph-name="ohungarumlaut" unicode="&#x151;" horiz-adv-x="1042" 
d="M707 1087l157 302h205l-223 -302h-139zM367 1087l155 302h205l-221 -302h-139zM426 129q147 0 242 141q94 141 94 332q0 242 -201 242q-147 0 -243 -142t-95 -331q0 -242 203 -242zM420 -20q-182 0 -281 106q-98 106 -98 274q0 274 154 454t372 179q181 0 279 -106
t98 -275q0 -274 -152 -453t-372 -179z" />
    <glyph glyph-name="OE" unicode="&#x152;" horiz-adv-x="1744" 
d="M283 553q0 -197 98 -307t295 -111q74 0 164 12l221 1049q-78 12 -184 12q-281 0 -438 -193q-156 -194 -156 -462zM92 547q0 343 215 579t588 236l371 -12h481l-59 -154h-447l-90 -430h436l-33 -154h-436l-96 -458h498l-35 -154h-481l-353 -18q-259 0 -409 150t-150 415z
" />
    <glyph glyph-name="oe" unicode="&#x153;" horiz-adv-x="1667" 
d="M1405 692q0 62 -39 110t-134 48t-175 -80t-105 -195l439 7q14 48 14 110zM428 129q147 0 242 141q94 141 94 332q0 242 -201 242q-147 0 -242 -142t-96 -331q0 -242 203 -242zM1176 127q116 0 256 74l51 -131q-152 -90 -332 -90q-125 0 -215 59t-127 168h-4
q-68 -107 -172 -167t-219 -60q-178 0 -275 106q-96 106 -96 274q0 274 152 454t366 179q238 0 318 -207h4q59 96 159 152t238 55q138 0 220 -87t81 -215q0 -128 -43 -240l-610 -9l-2 -51q0 -123 66 -193q68 -70 184 -71z" />
    <glyph glyph-name="Racute" unicode="&#x154;" horiz-adv-x="1097" 
d="M530 1425l156 301h205l-223 -301h-138zM467 713q162 1 255 73t93 207q0 95 -61 151t-193 56h-106l-103 -487h115zM573 1350q215 0 321 -98t105 -254q0 -156 -97 -258t-267 -136v-4q31 -51 90 -178l190 -422h-196l-146 342q-78 168 -108 221h-146l-118 -563h-181l287 1350
h266z" />
    <glyph glyph-name="racute" unicode="&#x155;" horiz-adv-x="671" 
d="M385 1087l156 302h204l-223 -302h-137zM604 993q66 0 119 -35l-76 -155q-39 23 -84 22q-92 1 -174 -107t-129 -323l-82 -395h-178l207 969h143l-24 -193h4q104 217 274 217z" />
    <glyph glyph-name="Rcommaaccent" unicode="&#x156;" horiz-adv-x="1097" 
d="M350 -205q0 39 -24 99h163q25 -49 25 -113q0 -213 -301 -266l-41 118q178 43 178 162zM467 713q162 1 255 73t93 207q0 95 -61 151t-193 56h-106l-103 -487h115zM573 1350q215 0 321 -98t105 -254q0 -156 -97 -258t-267 -136v-4q31 -51 90 -178l190 -422h-196l-146 342
q-78 168 -108 221h-146l-118 -563h-181l287 1350h266z" />
    <glyph glyph-name="rcommaaccent" unicode="&#x157;" horiz-adv-x="671" 
d="M-111 -485l-41 118q178 43 179 162q0 39 -25 99h164q25 -49 24 -113q0 -213 -301 -266zM604 993q66 0 119 -35l-76 -155q-39 23 -84 22q-92 1 -174 -107t-129 -323l-82 -395h-178l207 969h143l-24 -193h4q104 217 274 217z" />
    <glyph glyph-name="Rcaron" unicode="&#x158;" horiz-adv-x="1097" 
d="M553 1427l-166 302h145l107 -195l158 195h153l-243 -302h-154zM467 713q162 1 255 73t93 207q0 95 -61 151t-193 56h-106l-103 -487h115zM573 1350q215 0 321 -98t105 -254q0 -156 -97 -258t-267 -136v-4q31 -51 90 -178l190 -422h-196l-146 342q-78 168 -108 221h-146
l-118 -563h-181l287 1350h266z" />
    <glyph glyph-name="rcaron" unicode="&#x159;" horiz-adv-x="671" 
d="M385 1090l-166 301h146l106 -195l158 195h153l-243 -301h-154zM604 993q66 0 119 -35l-76 -155q-39 23 -84 22q-92 1 -174 -107t-129 -323l-82 -395h-178l207 969h143l-24 -193h4q104 217 274 217z" />
    <glyph glyph-name="Sacute" unicode="&#x15a;" horiz-adv-x="964" 
d="M526 1425l156 301h205l-223 -301h-138zM318 135q132 0 212 54t80 179t-115 210q-115 86 -206 160q-49 40 -81 106t-32 147q0 164 117 267q117 104 298 104t316 -68l-33 -155q-126 69 -250 69t-192 -51t-68 -131t46 -136q45 -56 108 -100q62 -44 126 -94t110 -131
q46 -80 45 -182q0 -197 -132 -300q-133 -103 -329 -103t-346 90l74 143q121 -78 252 -78z" />
    <glyph glyph-name="sacute" unicode="&#x15b;" horiz-adv-x="737" 
d="M369 1087l155 302h205l-223 -302h-137zM213 127q98 0 153 35q54 35 54 91t-33 95t-79 71q-46 31 -92 67t-79 94t-33 133q0 121 85 201t231 79q146 0 258 -43l-29 -145q-113 43 -195 43q-169 0 -169 -127q0 -78 111 -158q46 -33 92 -69t79 -94t33 -134q0 -133 -101 -210
t-263 -77t-289 78l59 136q109 -66 207 -66z" />
    <glyph glyph-name="Scircumflex" unicode="&#x15c;" horiz-adv-x="964" 
d="M328 1425l243 301h152l168 -301h-146l-106 193l-158 -193h-153zM318 135q132 0 212 54t80 179t-115 210q-115 86 -206 160q-49 40 -81 106t-32 147q0 164 117 267q117 104 298 104t316 -68l-33 -155q-126 69 -250 69t-192 -51t-68 -131t46 -136q45 -56 108 -100
q62 -44 126 -94t110 -131q46 -80 45 -182q0 -197 -132 -300q-133 -103 -329 -103t-346 90l74 143q121 -78 252 -78z" />
    <glyph glyph-name="scircumflex" unicode="&#x15d;" horiz-adv-x="737" 
d="M174 1087l244 302h151l168 -302h-145l-107 193l-157 -193h-154zM213 127q98 0 153 35q54 35 54 91t-33 95t-79 71q-46 31 -92 67t-79 94t-33 133q0 121 85 201t231 79q146 0 258 -43l-29 -145q-113 43 -195 43q-169 0 -169 -127q0 -78 111 -158q46 -33 92 -69t79 -94
t33 -134q0 -133 -101 -210t-263 -77t-289 78l59 136q109 -66 207 -66z" />
    <glyph glyph-name="Scedilla" unicode="&#x15e;" horiz-adv-x="964" 
d="M338 -250q0 72 -160 66l80 168q-154 16 -266 86l74 143q121 -78 252 -78q132 0 212 54t80 179t-115 210q-115 86 -206 160q-49 40 -81 106t-32 147q0 164 117 267q117 104 298 104t316 -68l-33 -155q-126 69 -250 69t-192 -51t-68 -131t46 -136q45 -56 108 -100
q62 -44 126 -94t110 -131q46 -80 45 -182q0 -183 -114 -285t-292 -114l-43 -93q68 -3 107 -39t39 -94q0 -92 -75 -142t-177 -50t-166 28l41 93q39 -20 96 -21q123 0 123 84z" />
    <glyph glyph-name="scedilla" unicode="&#x15f;" horiz-adv-x="737" 
d="M225 -250q0 74 -157 66l79 172q-115 14 -200 69l59 136q109 -66 207 -66t153 35q54 35 54 94q0 99 -158 194q-59 36 -108 104q-50 68 -50 174t85 186t231 79q146 0 258 -43l-29 -145q-113 43 -195 43q-169 0 -169 -127q0 -76 111 -156q46 -33 92 -69q112 -89 112 -222
q0 -134 -89 -208t-230 -84l-41 -91q68 -3 106 -39t37 -94q0 -92 -75 -142t-176 -50t-167 28l43 93q39 -21 94 -21t89 22t34 62z" />
    <glyph glyph-name="Scaron" unicode="&#x160;" horiz-adv-x="964" 
d="M526 1427l-166 302h146l106 -195l158 195h154l-244 -302h-154zM318 135q132 0 212 54t80 179t-115 210q-115 86 -206 160q-49 40 -81 106t-32 147q0 164 117 267q117 104 298 104t316 -68l-33 -155q-126 69 -250 69t-192 -51t-68 -131t46 -136q45 -56 108 -100
q62 -44 126 -94t110 -131q46 -80 45 -182q0 -197 -132 -300q-133 -103 -329 -103t-346 90l74 143q121 -78 252 -78z" />
    <glyph glyph-name="scaron" unicode="&#x161;" horiz-adv-x="737" 
d="M379 1090l-166 301h145l107 -195l158 195h153l-244 -301h-153zM213 127q98 0 153 35q54 35 54 91t-33 95t-79 71q-46 31 -92 67t-79 94t-33 133q0 121 85 201t231 79q146 0 258 -43l-29 -145q-113 43 -195 43q-169 0 -169 -127q0 -78 111 -158q46 -33 92 -69t79 -94
t33 -134q0 -133 -101 -210t-263 -77t-289 78l59 136q109 -66 207 -66z" />
    <glyph glyph-name="Tcommaaccent" unicode="&#x162;" horiz-adv-x="1007" 
d="M143 -485l-41 118q178 43 179 162q0 39 -25 99h164q25 -49 24 -113q0 -213 -301 -266zM268 0l254 1196h-397l33 154h981l-66 -154h-371l-253 -1196h-181z" />
    <glyph glyph-name="tcommaaccent" unicode="&#x163;" horiz-adv-x="698" 
d="M166 -205q0 39 -25 99h164q25 -49 25 -113q0 -213 -301 -266l-41 118q178 43 178 162zM331 -20q-122 0 -177 52q-56 52 -56 124t15 137l112 530h-159l30 146h162l47 219l189 53l-60 -272h264l-57 -146h-238l-116 -549q-8 -33 -8 -63q0 -82 86 -82q72 0 163 51l45 -131
q-120 -69 -242 -69z" />
    <glyph glyph-name="Tcaron" unicode="&#x164;" horiz-adv-x="1007" 
d="M592 1427l-166 302h145l107 -195l158 195h153l-244 -302h-153zM268 0l254 1196h-397l33 154h981l-66 -154h-371l-253 -1196h-181z" />
    <glyph glyph-name="tcaron" unicode="&#x165;" horiz-adv-x="698" 
d="M561 1051l125 399h180l-168 -399h-137zM331 -20q-122 0 -177 52q-56 52 -56 124t15 137l112 530h-159l30 146h162l47 219l189 53l-60 -272h264l-57 -146h-238l-116 -549q-8 -33 -8 -63q0 -82 86 -82q72 0 163 51l45 -131q-120 -69 -242 -69z" />
    <glyph glyph-name="Tbar" unicode="&#x166;" horiz-adv-x="1007" 
d="M268 0l121 582h-237l32 149h238l100 465h-397l33 154h981l-66 -154h-371l-100 -465h244l-33 -149h-244l-120 -582h-181z" />
    <glyph glyph-name="tbar" unicode="&#x167;" horiz-adv-x="698" 
d="M331 -20q-122 0 -177 52q-56 52 -56 124t13 127l36 180h-153l31 141h153l47 219h-159l30 146h162l47 223l189 43l-60 -266h264l-57 -146h-238l-47 -219h195l-33 -141h-190l-39 -182q-10 -39 -10 -70q0 -82 86 -82q72 0 163 51l45 -131q-120 -69 -242 -69z" />
    <glyph glyph-name="Utilde" unicode="&#x168;" horiz-adv-x="1333" 
d="M714 1700q66 0 144 -48t109 -48q57 0 69 84h127q-8 -109 -58 -163q-99 -107 -262 -6q-79 48 -110 48q-55 0 -67 -84h-129q8 109 59 163q52 54 118 54zM586 -20q-234 0 -352 105t-117 288q0 63 24 186l168 791h180l-170 -795q-20 -96 -20 -160q0 -129 73 -195t201 -67
q173 0 259 89t120 253l187 875h180l-189 -893q-49 -229 -165 -340q-145 -137 -379 -137z" />
    <glyph glyph-name="utilde" unicode="&#x169;" horiz-adv-x="1028" 
d="M745 1251q57 0 70 84h127q-8 -109 -58 -163t-116 -54t-146 48q-79 48 -110 48q-53 0 -68 -84h-129q7 109 59 163q102 107 263 6q78 -48 108 -48zM291 -20q-100 0 -166 60t-66 183q0 68 25 191l117 555h178l-121 -572q-18 -82 -18 -135q0 -127 110 -127q115 0 205 99
t123 245l104 490h176l-122 -576q-31 -169 -31 -237t14 -136l-151 -32q-31 94 -25 188h-4q-61 -86 -155 -141t-193 -55z" />
    <glyph glyph-name="Umacron" unicode="&#x16a;" horiz-adv-x="1333" 
d="M567 1460l29 142h532l-30 -142h-531zM586 -20q-234 0 -352 105t-117 288q0 63 24 186l168 791h180l-170 -795q-20 -96 -20 -160q0 -129 73 -195t201 -67q173 0 259 89t120 253l187 875h180l-189 -893q-49 -229 -165 -340q-145 -137 -379 -137z" />
    <glyph glyph-name="umacron" unicode="&#x16b;" horiz-adv-x="1028" 
d="M348 1171l29 142h532l-30 -142h-531zM291 -20q-100 0 -166 60t-66 183q0 68 25 191l117 555h178l-121 -572q-18 -82 -18 -135q0 -127 110 -127q115 0 205 99t123 245l104 490h176l-122 -576q-31 -169 -31 -237t14 -136l-151 -32q-31 94 -25 188h-4q-61 -86 -155 -141
t-193 -55z" />
    <glyph glyph-name="Ubreve" unicode="&#x16c;" horiz-adv-x="1333" 
d="M827 1434q-119 0 -181 70t-52 192h127q-4 -142 118 -142t167 142h131q-27 -122 -109 -192t-201 -70zM586 -20q-234 0 -352 105t-117 288q0 63 24 186l168 791h180l-170 -795q-20 -96 -20 -160q0 -129 73 -195t201 -67q173 0 259 89t120 253l187 875h180l-189 -893
q-49 -229 -165 -340q-145 -137 -379 -137z" />
    <glyph glyph-name="ubreve" unicode="&#x16d;" horiz-adv-x="1028" 
d="M602 1112q-119 0 -180 70t-51 190h127q-4 -139 118 -139t164 139h133q-27 -124 -109 -192t-202 -68zM291 -20q-100 0 -166 60t-66 183q0 68 25 191l117 555h178l-121 -572q-18 -82 -18 -135q0 -127 110 -127q115 0 205 99t123 245l104 490h176l-122 -576
q-31 -169 -31 -237t14 -136l-151 -32q-31 94 -25 188h-4q-61 -86 -155 -141t-193 -55z" />
    <glyph glyph-name="Uring" unicode="&#x16e;" horiz-adv-x="1333" 
d="M737 1520q0 -94 88 -93q43 0 73 36t30 89q0 88 -88 86q-44 0 -73 -36q-30 -36 -30 -82zM819 1337q-96 0 -151 46q-56 46 -56 135q0 90 69 150t165 60t151 -46t55 -134t-68 -150q-69 -61 -165 -61zM586 -20q-234 0 -352 105t-117 288q0 63 24 186l168 791h180l-170 -795
q-20 -96 -20 -160q0 -129 73 -195t201 -67q173 0 259 89t120 253l187 875h180l-189 -893q-49 -229 -165 -340q-145 -137 -379 -137z" />
    <glyph glyph-name="uring" unicode="&#x16f;" horiz-adv-x="1028" 
d="M713 1279q-1 95 -89 93q-42 0 -73 -36t-31 -82q0 -93 89 -93q44 0 74 36t30 82zM602 1071q-96 0 -150 46t-54 135q0 90 68 150q69 60 165 60t151 -46q56 -46 56 -135t-70 -149t-166 -61zM291 -20q-100 0 -166 60t-66 183q0 68 25 191l117 555h178l-121 -572
q-18 -82 -18 -135q0 -127 110 -127q115 0 205 99t123 245l104 490h176l-122 -576q-31 -169 -31 -237t14 -136l-151 -32q-31 94 -25 188h-4q-61 -86 -155 -141t-193 -55z" />
    <glyph glyph-name="Uhungarumlaut" unicode="&#x170;" horiz-adv-x="1333" 
d="M918 1425l157 301h205l-223 -301h-139zM578 1425l155 301h205l-221 -301h-139zM586 -20q-234 0 -352 105t-117 288q0 63 24 186l168 791h180l-170 -795q-20 -96 -20 -160q0 -129 73 -195t201 -67q173 0 259 89t120 253l187 875h180l-189 -893q-49 -229 -165 -340
q-145 -137 -379 -137z" />
    <glyph glyph-name="uhungarumlaut" unicode="&#x171;" horiz-adv-x="1028" 
d="M694 1087l158 302h205l-223 -302h-140zM354 1087l156 302h205l-221 -302h-140zM291 -20q-100 0 -166 60t-66 183q0 68 25 191l117 555h178l-121 -572q-18 -82 -18 -135q0 -127 110 -127q115 0 205 99t123 245l104 490h176l-122 -576q-31 -169 -31 -237t14 -136l-151 -32
q-31 94 -25 188h-4q-61 -86 -155 -141t-193 -55z" />
    <glyph glyph-name="Uogonek" unicode="&#x172;" horiz-adv-x="1333" 
d="M299 395q0 -262 290 -262t363 342l187 875h180l-189 -893q-76 -358 -348 -447q-123 -42 -218 -116t-95 -145t70 -71q31 0 79 17l13 -109q-79 -22 -155 -22t-118 41q-43 41 -43 104q0 152 193 271v4q-180 10 -286 112q-105 102 -105 277q0 63 24 186l168 791h180
l-170 -795q-20 -96 -20 -160z" />
    <glyph glyph-name="uogonek" unicode="&#x173;" horiz-adv-x="1028" 
d="M548 -436q-81 0 -124 41t-43 104q0 182 274 324q-16 84 -14 143h-4q-61 -88 -153 -142t-193 -54q-100 0 -166 60t-66 183q0 68 25 191l117 555h178l-121 -572q-18 -82 -18 -135q0 -127 110 -127q115 0 205 99t123 245l104 490h176l-122 -576q-31 -168 -31 -241t14 -140
q-121 -53 -203 -125t-81 -143q0 -66 69 -66q31 0 80 17l12 -109q-67 -22 -148 -22z" />
    <glyph glyph-name="Wcircumflex" unicode="&#x174;" horiz-adv-x="1712" 
d="M725 1425l244 301h151l168 -301h-145l-107 193l-157 -193h-154zM334 -8l-187 1358h197l90 -775q16 -137 31 -309h4q51 137 125 283l280 573l-30 228h180l94 -777q16 -119 33 -307h4q43 129 117 287l368 797h199l-663 -1358h-148l-80 594q-25 158 -35 276h-4
q-51 -123 -131 -282l-295 -588h-149z" />
    <glyph glyph-name="wcircumflex" unicode="&#x175;" horiz-adv-x="1380" 
d="M489 1087l244 302h152l168 -302h-146l-106 193l-158 -193h-154zM227 -6l-147 975h168l65 -465q20 -139 31 -264h4q45 109 103 229l241 500h127l58 -455q12 -98 28 -274h4q14 39 101 233l225 496h186l-483 -975h-139l-58 469q-20 164 -28 244h-4q-39 -92 -117 -250
l-230 -463h-135z" />
    <glyph glyph-name="Ycircumflex" unicode="&#x176;" horiz-adv-x="1052" 
d="M379 1425l244 301h151l168 -301h-145l-107 193l-158 -193h-153zM334 0l110 522l-297 828h189l219 -652h4l420 652h203l-557 -834l-111 -516h-180z" />
    <glyph glyph-name="ycircumflex" unicode="&#x177;" horiz-adv-x="925" 
d="M252 1087l244 302h151l168 -302h-145l-107 193l-157 -193h-154zM-74 -336q98 0 186 73q87 73 179 261l-219 971h178l102 -494q12 -59 56 -276h4q47 113 114 252l252 518h187l-510 -1002q-127 -252 -249 -352t-294 -100q-105 -1 -168 36l63 140q55 -27 119 -27z" />
    <glyph glyph-name="Ydieresis" unicode="&#x178;" horiz-adv-x="1052" 
d="M867 1442q-41 0 -65 24t-24 67q0 44 31 77q31 32 73 32t66 -22t23 -68q0 -44 -31 -77t-73 -33zM499 1442q-42 0 -67 24q-24 24 -24 67q0 44 31 77q32 32 74 32t66 -22q23 -22 23 -68q0 -44 -30 -77t-73 -33zM334 0l110 522l-297 828h189l219 -652h4l420 652h203
l-557 -834l-111 -516h-180z" />
    <glyph glyph-name="Zacute" unicode="&#x179;" horiz-adv-x="1077" 
d="M549 1425l156 301h204l-223 -301h-137zM-57 0l852 1196h-580l-16 154h903l-846 -1196h653l-35 -154h-931z" />
    <glyph glyph-name="zacute" unicode="&#x17a;" horiz-adv-x="792" 
d="M352 1087l156 302h205l-224 -302h-137zM-72 0l557 823h-383l-18 146h694l-561 -826h438l-28 -143h-699z" />
    <glyph glyph-name="Zdotaccent" unicode="&#x17b;" horiz-adv-x="1077" 
d="M640 1462q-50 0 -79 29t-29 79t39 86t89 36t78 -28t28 -78t-38 -87t-88 -37zM-57 0l852 1196h-580l-16 154h903l-846 -1196h653l-35 -154h-931z" />
    <glyph glyph-name="zdotaccent" unicode="&#x17c;" horiz-adv-x="792" 
d="M474 1169q-50 0 -79 29t-29 79t40 86q39 36 89 36q51 0 79 -29t28 -78t-39 -86t-89 -37zM-72 0l557 823h-383l-18 146h694l-561 -826h438l-28 -143h-699z" />
    <glyph glyph-name="Zcaron" unicode="&#x17d;" horiz-adv-x="1077" 
d="M559 1427l-166 302h146l106 -195l158 195h153l-243 -302h-154zM-57 0l852 1196h-580l-16 154h903l-846 -1196h653l-35 -154h-931z" />
    <glyph glyph-name="zcaron" unicode="&#x17e;" horiz-adv-x="792" 
d="M377 1090l-166 301h145l107 -195l158 195h153l-244 -301h-153zM-72 0l557 823h-383l-18 146h694l-561 -826h438l-28 -143h-699z" />
    <glyph glyph-name="florin" unicode="&#x192;" horiz-adv-x="1073" 
d="M36 -188q90 0 147 55q56 55 89 194l131 582h-204l20 143h215l68 295q82 369 399 369q127 0 225 -55l-63 -146q-61 41 -151 41t-146 -56q-57 -56 -90 -194l-58 -254h261l-52 -143h-241l-140 -623q-82 -369 -397 -368q-129 0 -227 55l63 146q61 -41 151 -41z" />
    <glyph glyph-name="Aringacute" unicode="&#x1fa;" horiz-adv-x="1187" 
d="M713 1421q43 0 73 36t29 82q0 95 -82 93q-49 0 -79 -36t-30 -82t24 -70q22 -24 65 -23zM373 504h368l-61 399q-16 111 -27 178h-4q-68 -156 -84 -188zM940 1550q0 -80 -47 -135t-121 -74l244 -1341h-189l-61 354h-475l-180 -354h-201l708 1343q-119 35 -118 158
q0 93 62 153t157 66l117 232h204l-190 -254q90 -43 90 -148z" />
    <glyph glyph-name="aringacute" unicode="&#x1fb;" horiz-adv-x="960" 
d="M307 127q96 0 186 79q89 79 113 195l15 68h-76q-219 1 -293 -59t-74 -150q0 -133 129 -133zM260 -20q-118 0 -188 72t-70 184q0 164 122 264t384 100l135 2q12 45 12 100q0 147 -178 148q-133 0 -287 -74l-24 137q170 80 324 80q342 0 344 -280q0 -72 -35 -234l-21 -86
q-35 -157 -35 -235t17 -138l-154 -32q-27 82 -28 166q-136 -174 -318 -174zM666 1266q0 94 -88 94q-42 0 -74 -36q-31 -36 -31 -83q0 -94 89 -94q44 0 74 36t30 83zM555 1057q-96 0 -151 47q-54 47 -54 132t60 144t151 68l144 278h204l-221 -294q102 -44 102 -148t-69 -166
q-70 -62 -166 -61z" />
    <glyph glyph-name="AEacute" unicode="&#x1fc;" horiz-adv-x="1597" 
d="M987 1425l156 301h205l-224 -301h-137zM430 504h336l86 606h-4q-168 -248 -172 -254zM-135 0l962 1350h697l-45 -154h-441l-59 -430h434l-22 -154h-433l-61 -458h496l-23 -154h-672l47 354h-423l-250 -354h-207z" />
    <glyph glyph-name="aeacute" unicode="&#x1fd;" horiz-adv-x="1533" 
d="M756 1087l155 302h205l-223 -302h-137zM1098 850q-94 0 -175 -76t-106 -186l438 4q17 42 17 102t-40 108t-134 48zM307 127q100 0 189 76q88 76 114 207l8 41h-100q-340 -6 -340 -191q0 -133 129 -133zM272 -20q-122 0 -196 72t-74 192q0 168 134 253t374 87l129 2
q14 58 14 124q0 140 -178 140q-131 0 -285 -74l-24 137q170 80 332 80q233 0 286 -164h4q127 164 334 164q158 0 241 -87t83 -220t-41 -225l-610 -8q-4 -37 -4 -56q1 -127 67 -199t182 -71q116 0 256 74l52 -131q-147 -90 -302 -90q-301 0 -370 237h-4q-68 -115 -174 -176
t-226 -61z" />
    <glyph glyph-name="Oslashacute" unicode="&#x1fe;" horiz-adv-x="1470" 
d="M776 1425l156 301h205l-224 -301h-137zM283 547q0 -129 43 -217l723 800q-88 76 -234 76q-236 0 -384 -194t-148 -465zM657 135q233 0 381 195q147 195 148 467q0 131 -45 219l-723 -803q89 -78 239 -78zM643 -20q-205 0 -338 104l-119 -135l-110 94l121 137
q-105 144 -105 364t87 403t257 299t382 116t343 -100l119 133l111 -92l-121 -138q109 -147 108 -372q0 -332 -203 -573q-204 -240 -532 -240z" />
    <glyph glyph-name="oslashacute" unicode="&#x1ff;" horiz-adv-x="1042" 
d="M223 371q0 -57 13 -107l456 541q-51 41 -129 41q-147 0 -243 -142t-97 -333zM428 127q147 0 244 142q96 142 96 333q0 61 -16 107l-455 -539q47 -43 131 -43zM43 360q0 274 154 454t372 179q137 0 228 -65l75 92l82 -72l-80 -96q72 -96 72 -240q0 -274 -152 -453
t-372 -179q-137 0 -232 65l-75 -92l-82 72l82 96q-72 96 -72 239zM520 1087l156 302h205l-224 -302h-137z" />
    <glyph glyph-name="Scommaaccent" unicode="&#x218;" horiz-adv-x="964" 
d="M248 -205q0 39 -25 99h164q25 -49 25 -113q0 -213 -301 -266l-41 118q178 43 178 162zM318 135q132 0 212 54t80 179t-115 210q-115 86 -206 160q-49 40 -81 106t-32 147q0 164 117 267q117 104 298 104t316 -68l-33 -155q-126 69 -250 69t-192 -51t-68 -131t46 -136
q45 -56 108 -100q62 -44 126 -94t110 -131q46 -80 45 -182q0 -197 -132 -300q-133 -103 -329 -103t-346 90l74 143q121 -78 252 -78z" />
    <glyph glyph-name="scommaaccent" unicode="&#x219;" horiz-adv-x="737" 
d="M145 -205q0 39 -24 99h164q25 -49 24 -113q0 -213 -301 -266l-41 118q178 43 178 162zM213 127q98 0 153 35q54 35 54 91t-33 95t-79 71q-46 31 -92 67t-79 94t-33 133q0 121 85 201t231 79q146 0 258 -43l-29 -145q-113 43 -195 43q-169 0 -169 -127q0 -78 111 -158
q46 -33 92 -69t79 -94t33 -134q0 -133 -101 -210t-263 -77t-289 78l59 136q109 -66 207 -66z" />
    <glyph glyph-name="circumflex" unicode="&#x2c6;" 
d="M94 1087l244 302h151l168 -302h-145l-106 193l-158 -193h-154z" />
    <glyph glyph-name="caron" unicode="&#x2c7;" 
d="M301 1090l-166 301h146l106 -195l158 195h153l-243 -301h-154z" />
    <glyph glyph-name="breve" unicode="&#x2d8;" 
d="M377 1112q-119 0 -180 70t-52 190h127q-4 -139 118 -139t165 139h133q-28 -124 -110 -192t-201 -68z" />
    <glyph glyph-name="dotaccent" unicode="&#x2d9;" 
d="M392 1169q-50 0 -79 29t-29 79t40 86q39 36 89 36t79 -29q28 -29 28 -78t-39 -86t-89 -37z" />
    <glyph glyph-name="ring" unicode="&#x2da;" 
d="M498 1279q0 95 -88 93q-42 0 -74 -36q-31 -36 -31 -82q0 -93 89 -93q44 0 74 36t30 82zM387 1071q-96 0 -150 46q-55 46 -55 135q0 90 69 150t165 60t151 -46t55 -135t-69 -149q-70 -60 -166 -61z" />
    <glyph glyph-name="ogonek" unicode="&#x2db;" 
d="M322 -436q-76 0 -119 41t-43 104q0 178 270 318l162 -27q-279 -127 -279 -256q0 -66 70 -66q33 0 78 17l14 -109q-77 -22 -153 -22z" />
    <glyph glyph-name="tilde" unicode="&#x2dc;" 
d="M498 1251q57 0 69 84h127q-8 -109 -58 -163t-116 -54t-146 48q-79 48 -110 48q-53 0 -67 -84h-129q8 109 59 163q101 107 262 6q78 -48 109 -48z" />
    <glyph glyph-name="hungarumlaut" unicode="&#x2dd;" 
d="M475 1087l158 302h205l-224 -302h-139zM135 1087l156 302h205l-222 -302h-139z" />
    <glyph glyph-name="uni0315" unicode="&#x315;" 
d="M270 1051l125 399h180l-167 -399h-138z" />
    <glyph glyph-name="uni0326" unicode="&#x326;" 
d="M383 -205q0 39 -25 99h164q25 -49 25 -113q0 -213 -301 -266l-41 118q178 43 178 162z" />
    <glyph glyph-name="Alphatonos" unicode="&#x386;" horiz-adv-x="1241" 
d="M422 504h369l-62 399q-2 18 -8 52t-10 65t-9 61h-4q-61 -141 -86 -188zM-43 0l717 1354h143l248 -1354h-188l-62 354h-475l-182 -354h-201zM84 969l147 381h187l-185 -381h-149z" />
    <glyph glyph-name="Epsilontonos" unicode="&#x388;" horiz-adv-x="1085" 
d="M182 0l287 1350h653l-61 -154h-445l-92 -430h439l-35 -154h-436l-97 -458h498l-33 -154h-678zM31 969l147 381h184l-182 -381h-149z" />
    <glyph glyph-name="Etatonos" unicode="&#x389;" horiz-adv-x="1531" 
d="M182 0l287 1350h180l-125 -586h676l125 586h180l-286 -1350h-181l129 608h-675l-130 -608h-180zM31 969l147 381h184l-182 -381h-149z" />
    <glyph glyph-name="Iotatonos" unicode="&#x38a;" horiz-adv-x="673" 
d="M182 0l287 1350h180l-287 -1350h-180zM31 969l147 381h184l-182 -381h-149z" />
    <glyph glyph-name="Omicrontonos" unicode="&#x38c;" horiz-adv-x="1632" 
d="M798 135q171 0 297 98q126 97 187 245t61 329t-94 291t-264 108q-170 0 -296 -97t-188 -245q-63 -148 -63 -326q0 -180 94 -292t266 -111zM780 -20q-234 0 -384 149q-148 150 -148 420q0 217 89 401t260 298t407 114t382 -148q147 -148 148 -419q0 -217 -89 -403
t-260 -298q-171 -114 -405 -114zM31 969l147 381h184l-182 -381h-149z" />
    <glyph glyph-name="Upsilontonos" unicode="&#x38e;" horiz-adv-x="1406" 
d="M588 0l76 365q23 92 22 180q0 301 -264 805h190q182 -369 207 -627h4q117 266 463 627h221q-295 -302 -455 -524t-206 -453l-80 -373h-178zM31 969l147 381h184l-182 -381h-149z" />
    <glyph glyph-name="Omegatonos" unicode="&#x38f;" horiz-adv-x="1622" 
d="M303 154q70 0 156 -15v4q-84 78 -141 200q-56 122 -56 263q0 312 201 534t516 222q260 0 403 -148t144 -374q0 -416 -420 -699v-4q78 16 162 17h118l-30 -154h-500l25 123q455 281 454 700q0 166 -95 275t-271 108q-223 0 -371 -176t-149 -452q0 -131 54 -251t154 -204
l-24 -123h-494l31 154h133zM31 969l147 381h184l-182 -381h-149z" />
    <glyph glyph-name="iotadieresistonos" unicode="&#x390;" horiz-adv-x="532" 
d="M593 1141q-40 -1 -62 23q-21 24 -21 65t30 71t70 31q40 -1 62 -23t22 -63t-30 -73q-31 -31 -71 -31zM165 1141q-40 -1 -63 23q-22 24 -22 65t31 71t71 31q40 -1 62 -23t22 -63t-30 -73q-31 -31 -71 -31zM260 1087l119 328h164l-168 -328h-115zM248 -12q-82 0 -137 47
t-56 131q0 39 11 90l153 713h176l-151 -707q-6 -31 -6 -55q0 -61 67 -62q37 0 80 15v-152q-55 -20 -137 -20z" />
    <glyph glyph-name="Alpha" unicode="&#x391;" horiz-adv-x="1198" 
d="M379 504h369l-62 399q-16 111 -27 178h-4q-68 -156 -84 -188zM-84 0l717 1354h143l246 -1354h-188l-62 354h-475l-180 -354h-201z" />
    <glyph glyph-name="Beta" unicode="&#x392;" horiz-adv-x="1101" 
d="M418 150q170 0 266 76t96 200q0 90 -61 139t-168 49h-215l-96 -464h178zM537 764q129 0 199 79t69 168q0 187 -207 187h-137l-92 -434h168zM616 1350q188 0 280 -88t91 -220q0 -236 -229 -335v-5q84 -20 145 -89t62 -173q0 -182 -151 -311t-431 -129h-356l286 1350h303z
" />
    <glyph glyph-name="Gamma" unicode="&#x393;" horiz-adv-x="919" 
d="M25 0l288 1350h670l-65 -154h-457l-254 -1196h-182z" />
    <glyph glyph-name="Epsilon" unicode="&#x395;" horiz-adv-x="929" 
d="M27 0l286 1350h654l-62 -154h-444l-90 -430h436l-33 -154h-438l-96 -458h497l-32 -154h-678z" />
    <glyph glyph-name="Zeta" unicode="&#x396;" horiz-adv-x="1071" 
d="M-51 0l852 1196h-580l-16 154h903l-846 -1196h653l-34 -154h-932z" />
    <glyph glyph-name="Eta" unicode="&#x397;" horiz-adv-x="1374" 
d="M27 0l286 1350h181l-125 -586h675l125 586h181l-287 -1350h-180l129 608h-676l-129 -608h-180z" />
    <glyph glyph-name="Theta" unicode="&#x398;" horiz-adv-x="1486" 
d="M430 610l33 150h588l-33 -150h-588zM659 135q240 0 390 203t149 459q0 195 -95 303t-274 106q-241 0 -391 -202t-149 -457q0 -195 94 -303t276 -109zM630 -20q-236 0 -383 147q-148 147 -149 418q0 333 207 575t535 242q252 0 400 -146t149 -417q1 -215 -89 -401
t-262 -302t-408 -116z" />
    <glyph glyph-name="Iota" unicode="&#x399;" horiz-adv-x="518" 
d="M27 0l286 1350h181l-287 -1350h-180z" />
    <glyph glyph-name="Kappa" unicode="&#x39a;" horiz-adv-x="1097" 
d="M27 0l286 1350h181l-132 -621h7l587 621h220l-672 -703l450 -647h-217l-401 590h-4l-125 -590h-180z" />
    <glyph glyph-name="Lambda" unicode="&#x39b;" horiz-adv-x="1200" 
d="M-86 0l713 1356h149l248 -1356h-190l-144 881q-18 119 -28 200h-5q-51 -115 -98 -211l-442 -870h-203z" />
    <glyph glyph-name="Mu" unicode="&#x39c;" horiz-adv-x="1619" 
d="M27 0l286 1350h172l209 -574q12 -35 45 -127t45 -129h4q94 137 150 209l467 621h190l-286 -1350h-181l150 700q43 207 80 340h-6q-86 -123 -164 -221l-391 -518h-99l-188 508q-63 180 -80 231h-4q-33 -162 -72 -344l-147 -696h-180z" />
    <glyph glyph-name="Nu" unicode="&#x39d;" horiz-adv-x="1445" 
d="M27 0l286 1350h170l445 -871q47 -90 90 -190h4q15 94 39 207l180 854h182l-288 -1350h-150l-459 899q-74 147 -90 188h-4q-10 -68 -35 -194l-190 -893h-180z" />
    <glyph glyph-name="Xi" unicode="&#x39e;" horiz-adv-x="1083" 
d="M233 1196l35 154h848l-65 -154h-818zM205 614l35 154h647l-35 -154h-647zM-43 0l35 154h891l-33 -154h-893z" />
    <glyph glyph-name="Omicron" unicode="&#x39f;" horiz-adv-x="1480" 
d="M657 135q240 0 387 202t148 460q0 197 -93 303t-263 106t-296 -99t-188 -247t-63 -328q0 -180 94 -288t274 -109zM1384 799q0 -215 -89 -401t-260 -302t-407 -116t-382 147q-147 147 -148 418q0 215 89 400t260 301t407 116t383 -146t147 -417z" />
    <glyph glyph-name="Pi" unicode="&#x3a0;" horiz-adv-x="1337" 
d="M27 0l288 1350h996l-289 -1350h-180l254 1196h-635l-254 -1196h-180z" />
    <glyph glyph-name="Rho" unicode="&#x3a1;" horiz-adv-x="1032" 
d="M412 637q104 0 174 29q104 32 159 112t56 189q0 160 -142 211q-57 23 -143 22h-55l-119 -563h70zM520 1350q283 0 401 -164q65 -90 65 -232t-92 -264q-153 -203 -509 -203h-76l-102 -487h-180l286 1350h207z" />
    <glyph glyph-name="Sigma" unicode="&#x3a3;" horiz-adv-x="1036" 
d="M-76 0l541 729l-246 621h840l-66 -154h-528l190 -487l-417 -555h616l-33 -154h-897z" />
    <glyph glyph-name="Tau" unicode="&#x3a4;" horiz-adv-x="1017" 
d="M274 0l254 1196h-397l33 154h981l-66 -154h-370l-254 -1196h-181z" />
    <glyph glyph-name="Upsilon" unicode="&#x3a5;" horiz-adv-x="1171" 
d="M451 545q0 295 -265 805h191q182 -369 207 -627h4q117 266 463 627h221q-295 -302 -455 -524t-207 -453l-80 -373h-180l78 365q23 92 23 180z" />
    <glyph glyph-name="Phi" unicode="&#x3a6;" horiz-adv-x="1556" 
d="M766 242q223 10 360 162t138 370q0 143 -81 225t-235 99zM590 246l182 858q-225 -12 -361 -164t-137 -371q0 -143 80 -226t236 -97zM88 559q0 301 200 498t517 203l26 120h179l-27 -123q209 -20 338 -145t129 -328q0 -300 -201 -496t-518 -204l-24 -125h-179l27 127
q-209 20 -338 145t-129 328z" />
    <glyph glyph-name="Chi" unicode="&#x3a7;" horiz-adv-x="1204" 
d="M-82 0l571 692l-307 658h195l239 -521l426 521h218l-564 -682l314 -668h-193l-248 528l-436 -528h-215z" />
    <glyph glyph-name="Psi" unicode="&#x3a8;" horiz-adv-x="1466" 
d="M367 890q0 -150 60 -216t189 -72l160 748h180l-159 -748q215 8 323 176t168 572h178q-61 -486 -223 -694t-481 -218l-92 -438h-183l95 442q-195 18 -294 118q-190 192 -16 790h177q-82 -310 -82 -460z" />
    <glyph glyph-name="uni03A9" unicode="&#x3a9;" horiz-adv-x="1482" 
d="M164 154q70 0 155 -15v4q-84 78 -140 200t-56 263q0 312 201 534t516 222q260 0 403 -148t143 -374q0 -416 -419 -699v-4q78 16 161 17h119l-30 -154h-500l24 123q455 281 455 700q0 166 -95 275t-272 108q-223 0 -371 -176t-149 -452q1 -131 55 -251t154 -204l-24 -123
h-494l31 154h133z" />
    <glyph glyph-name="Iotadieresis" unicode="&#x3aa;" horiz-adv-x="518" 
d="M609 1442q-41 0 -65 24t-24 67q0 44 31 77q31 32 73 32t66 -22t23 -68q0 -44 -31 -77t-73 -33zM241 1442q-42 0 -67 24q-24 24 -24 67q0 44 31 77q32 32 74 32t66 -22q23 -22 23 -68q0 -44 -30 -77t-73 -33zM27 0l286 1350h181l-287 -1350h-180z" />
    <glyph glyph-name="Upsilondieresis" unicode="&#x3ab;" horiz-adv-x="1171" 
d="M914 1442q-42 0 -66 24t-23 67q0 44 31 77q31 32 73 32q41 0 65 -22t24 -68q0 -44 -31 -77t-73 -33zM546 1442q-42 0 -67 24t-25 67q0 44 32 77q32 32 74 32t66 -22t24 -68q0 -44 -32 -77q-30 -33 -72 -33zM451 545q0 295 -265 805h191q182 -369 207 -627h4
q117 266 463 627h221q-295 -302 -455 -524t-207 -453l-80 -373h-180l78 365q23 92 23 180z" />
    <glyph glyph-name="alphatonos" unicode="&#x3ac;" horiz-adv-x="1155" 
d="M655 1087h-145l190 343h209zM367 131q168 0 317 377q-19 257 -84 309q-31 25 -76 25q-80 0 -148 -81t-107 -196q-38 -115 -38 -223q1 -211 136 -211zM326 -20q-127 0 -202 97t-75 260t59 311q58 148 168 247q111 98 244 98q240 0 271 -299h4q70 150 147 287l133 -80
q-129 -213 -244 -424q0 -172 24 -250t97 -77q27 0 52 8v-156q-31 -12 -78 -12q-109 0 -159 75t-54 220h-4q-61 -131 -159 -218t-224 -87z" />
    <glyph glyph-name="epsilontonos" unicode="&#x3ad;" horiz-adv-x="907" 
d="M400 -20q-190 0 -287 74t-97 184t64 178t168 90v4q-131 49 -131 184t112 217q113 82 283 82t307 -55l-31 -145q-120 57 -242 57t-186 -41t-63 -113q0 -129 221 -129q88 0 127 2l-31 -137q-94 4 -131 4q-129 0 -207 -43t-78 -121t57 -114q56 -36 146 -35q166 0 330 80
l35 -129q-176 -94 -366 -94zM606 1087h-145l190 343h209z" />
    <glyph glyph-name="etatonos" unicode="&#x3ae;" horiz-adv-x="1079" 
d="M727 1087h-145l190 343h209zM213 784q0 49 -49 50q-31 0 -62 -13v146q66 27 134 27t108 -39q41 -38 41 -115q0 -29 -8 -60h4q68 96 163 154t197 59q103 0 163 -59t61 -178q0 -74 -25 -189l-223 -1052h-176l221 1046q20 102 20 150q0 123 -108 123q-57 0 -125 -38
q-69 -38 -133 -123t-103 -261l-88 -412h-176l154 721q10 41 10 63z" />
    <glyph glyph-name="iotatonos" unicode="&#x3af;" horiz-adv-x="532" 
d="M395 1087h-145l190 343h209zM248 -12q-82 0 -137 47t-56 131q0 39 11 90l153 713h176l-151 -707q-6 -31 -6 -55q0 -61 67 -62q37 0 80 15v-152q-55 -20 -137 -20z" />
    <glyph glyph-name="upsilondieresistonos" unicode="&#x3b0;" horiz-adv-x="1079" 
d="M824 1141q-40 -1 -62 23t-21 65q0 41 30 71t70 31q41 -1 63 -23t22 -63t-31 -73t-71 -31zM396 1141q-40 -1 -62 23t-23 65q0 41 31 71t71 31q41 -1 63 -23t22 -63t-31 -73t-71 -31zM492 1087l118 328h164l-168 -328h-114zM441 -20q-167 0 -261 82t-94 231q0 92 54 259
t55 224q0 57 -54 58q-18 0 -53 -11v146q160 61 243 -22q46 -46 46 -129t-54 -254t-55 -251q0 -184 178 -184q164 0 259 168q94 168 94 401q-4 172 -49 271h178q47 -106 51 -283q-1 -403 -243 -601q-128 -105 -295 -105z" />
    <glyph glyph-name="alpha" unicode="&#x3b1;" horiz-adv-x="1155" 
d="M367 131q168 0 317 377q-19 257 -84 309q-31 25 -76 25q-80 0 -148 -81t-107 -196q-38 -115 -38 -223q1 -211 136 -211zM326 -20q-127 0 -202 97t-75 260t59 311q58 148 168 247q111 98 244 98q240 0 271 -299h4q70 150 147 287l133 -80q-129 -213 -244 -424
q0 -172 24 -250t97 -77q27 0 52 8v-156q-31 -12 -78 -12q-109 0 -159 75t-54 220h-4q-61 -131 -159 -218t-224 -87z" />
    <glyph glyph-name="beta" unicode="&#x3b2;" horiz-adv-x="1050" 
d="M842 1176q0 53 -29 89t-88 38q-129 3 -249 -167t-177 -403q543 147 543 443zM260 432q0 -154 48 -230t162 -75q114 0 194 101t79 247q0 84 -42 136q-43 53 -113 53t-318 -89q-10 -61 -10 -143zM451 -20q-373 0 -373 452q0 152 44 325q103 406 335 590q131 103 272 103
t218 -72t77 -192q0 -260 -297 -420v-4q99 -16 149 -90t50 -187q0 -201 -131 -353t-344 -152z" />
    <glyph glyph-name="gamma" unicode="&#x3b3;" horiz-adv-x="1052" 
d="M295 434q0 406 -191 406q-31 0 -63 -9v152q57 10 121 10t130 -44q66 -43 98 -115q59 -131 60 -300q1 -168 -30 -315h4q209 487 496 772l116 -125q-328 -334 -559 -827q-66 -141 -110 -346l-39 -178h-187q33 160 82 342q72 367 72 577z" />
    <glyph glyph-name="delta" unicode="&#x3b4;" horiz-adv-x="1079" 
d="M772 483q0 98 -43 168t-125 137q-170 -42 -271 -154t-101 -247q-1 -254 225 -258q137 -2 226 101t89 253zM317 1170q1 132 95 206t222 74t244 -33t189 -71l-59 -144q-182 96 -334 98q-84 2 -129 -32t-45 -92t47 -113t113 -109t134 -116t114 -156t46 -205
q0 -207 -141 -353t-345 -144t-312 106q-106 104 -106 289t115 325q116 140 314 193v4q-162 141 -162 273z" />
    <glyph glyph-name="epsilon" unicode="&#x3b5;" horiz-adv-x="907" 
d="M400 -20q-190 0 -287 74t-97 184t64 178t168 90v4q-131 49 -131 184t112 217q113 82 283 82t307 -55l-31 -145q-120 57 -242 57t-186 -41t-63 -113q0 -129 221 -129q88 0 127 2l-31 -137q-94 4 -131 4q-129 0 -207 -43t-78 -121t57 -114q56 -36 146 -35q166 0 330 80
l35 -129q-176 -94 -366 -94z" />
    <glyph glyph-name="zeta" unicode="&#x3b6;" horiz-adv-x="897" 
d="M557 -80q0 47 -50 79q-50 31 -122 57q-73 26 -145 62t-122 110t-50 201q0 126 59 267t159 254q196 223 462 353v6q-229 -53 -443 -60l-14 150q350 0 680 49v-121q-317 -182 -518 -407t-201 -480q0 -88 51 -145t124 -86t145 -57t122 -74q51 -47 51 -119q1 -154 -196 -334
l-127 90q135 125 135 205z" />
    <glyph glyph-name="eta" unicode="&#x3b7;" horiz-adv-x="1079" 
d="M213 784q0 49 -49 50q-31 0 -62 -13v146q66 27 134 27t108 -39q41 -38 41 -115q0 -29 -8 -60h4q68 96 163 154t197 59q103 0 163 -59t61 -178q0 -74 -25 -189l-223 -1052h-176l221 1046q20 102 20 150q0 123 -108 123q-57 0 -125 -38q-69 -38 -133 -123t-103 -261
l-88 -412h-176l154 721q10 41 10 63z" />
    <glyph glyph-name="theta" unicode="&#x3b8;" horiz-adv-x="1083" 
d="M426 1111q0 -81 31 -133q73 -123 352 -167q10 78 10 133q0 158 -53 257t-158 99q-80 0 -131 -54t-51 -135zM383 -20q-158 0 -244 72t-86 194q0 66 40 182t40 167q0 52 -16 110h172q16 -45 16 -104t-37 -169t-37 -166q0 -137 160 -137t258 153t142 380q-543 86 -543 423
q0 157 99 261t259 104q195 0 294 -141t99 -396q0 -147 -33 -301q-84 -379 -300 -539q-126 -93 -283 -93z" />
    <glyph glyph-name="iota" unicode="&#x3b9;" horiz-adv-x="532" 
d="M248 -12q-82 0 -137 47t-56 131q0 39 11 90l153 713h176l-151 -707q-6 -31 -6 -55q0 -61 67 -62q37 0 80 15v-152q-55 -20 -137 -20z" />
    <glyph glyph-name="kappa" unicode="&#x3ba;" horiz-adv-x="1028" 
d="M4 0l209 969h176l-70 -328q-16 -82 -32 -135l4 -2q119 156 309 280t367 203l71 -145q-285 -125 -491 -291l307 -551h-203l-241 444q-166 -147 -193 -276l-35 -168h-178z" />
    <glyph glyph-name="lambda" unicode="&#x3bb;" horiz-adv-x="1003" 
d="M318 1298q-64 0 -119 -20l-33 137q84 35 168 35q152 0 226 -114t107 -416q32 -302 81 -522q49 -222 143 -398h-195q-125 252 -170 739h-4l-393 -739h-199l559 991q-23 182 -65 245q-42 62 -106 62z" />
    <glyph glyph-name="uni03BC" unicode="&#x3bc;" horiz-adv-x="1114" 
d="M256 268q0 -64 37 -98t94 -35q104 0 193 87q88 87 120 251l109 496h176l-143 -672q-12 -61 -13 -92q0 -57 62 -58q35 0 65 13v-152q-55 -20 -114 -20q-150 0 -158 141q0 35 2 47h-4q-127 -197 -317 -196q-121 0 -168 90h-4q-16 -121 -46 -258l-65 -297h-178l313 1454h176
l-119 -561q-18 -76 -18 -140z" />
    <glyph glyph-name="nu" unicode="&#x3bd;" horiz-adv-x="964" 
d="M702 852q0 66 -8 117h185q8 -47 8 -105q0 -250 -130 -448t-397 -422h-124l-166 975h178l121 -770h4q161 155 245 311t84 342z" />
    <glyph glyph-name="xi" unicode="&#x3be;" horiz-adv-x="884" 
d="M541 -90q0 45 -49 76q-49 30 -121 54t-143 54q-72 30 -120 96q-48 64 -48 178t87 210q88 98 226 131v4q-139 53 -140 192q0 240 410 391v7q-223 -43 -377 -46l-12 148q348 0 692 39v-111q-258 -92 -391 -188t-133 -219q0 -150 240 -150q31 0 104 4l-27 -143q-35 4 -94 4
q-161 -1 -281 -65t-120 -191q0 -72 50 -118q50 -47 122 -71t142 -49t121 -71q50 -46 50 -121q0 -156 -197 -330l-126 90q135 125 135 195z" />
    <glyph glyph-name="omicron" unicode="&#x3bf;" horiz-adv-x="1052" 
d="M434 129q147 0 242 141q94 141 94 332q0 242 -201 242q-147 0 -242 -142t-96 -331q0 -242 203 -242zM428 -20q-182 0 -281 106q-98 106 -98 274q0 274 154 454t372 179q181 0 279 -106t98 -275q0 -274 -152 -453t-372 -179z" />
    <glyph glyph-name="pi" unicode="&#x3c0;" horiz-adv-x="1169" 
d="M811 197q0 -49 55 -50q25 0 62 11v-152q-59 -18 -129 -18q-172 0 -172 153q0 43 16 119l119 563h-330l-176 -823h-178l176 823h-168l33 146h1055l-60 -146h-174l-121 -575q-8 -27 -8 -51z" />
    <glyph glyph-name="rho" unicode="&#x3c1;" horiz-adv-x="1067" 
d="M436 131q160 0 253 136t93 327q0 246 -222 248q-108 0 -172 -86t-99 -252l-64 -299q86 -74 211 -74zM965 588q1 -248 -145 -428t-376 -180q-154 0 -247 73h-4l-115 -538h-176l217 1034q49 227 161 336t290 109t287 -107q108 -106 108 -299z" />
    <glyph glyph-name="sigmafinal" unicode="&#x3c2;" horiz-adv-x="851" 
d="M455 -82q0 53 -42 93q-41 40 -101 73t-119 74q-59 40 -101 116t-43 179q-1 229 147 386t367 154q150 0 254 -49l-33 -149q-98 49 -215 49q-157 0 -247 -113t-90 -265t144 -237q60 -35 120 -69q144 -81 143 -219q0 -139 -188 -316l-125 92q4 5 21 23t23 26t21 23
q14 16 30 40t21 36q4 12 9 26q4 14 4 27z" />
    <glyph glyph-name="sigma" unicode="&#x3c3;" horiz-adv-x="1124" 
d="M438 129q139 0 222 130q83 131 83 291t-77 269h-23q-193 0 -303 -129t-109 -319q-1 -117 53 -179t154 -63zM424 -20q-168 0 -271 102t-104 280q0 270 161 438t406 169h566l-60 -150h-135q-66 0 -147 8v-4q84 -131 84 -295q0 -216 -136 -382t-364 -166z" />
    <glyph glyph-name="tau" unicode="&#x3c4;" horiz-adv-x="874" 
d="M444 -20q-127 0 -185 52t-58 142q0 43 16 119l113 530h-267l31 146h819l-57 -146h-348l-117 -549q-8 -33 -8 -61q0 -84 88 -84t170 47l45 -131q-115 -65 -242 -65z" />
    <glyph glyph-name="upsilon" unicode="&#x3c5;" horiz-adv-x="1079" 
d="M441 -20q-167 0 -261 82t-94 231q0 92 54 259t55 224q0 57 -54 58q-18 0 -53 -11v146q160 61 243 -22q46 -46 46 -129t-54 -254t-55 -251q0 -184 178 -184q164 0 259 168q94 168 94 401q-4 172 -49 271h178q47 -106 51 -283q-1 -403 -243 -601q-128 -105 -295 -105z" />
    <glyph glyph-name="phi" unicode="&#x3c6;" horiz-adv-x="1353" 
d="M1071 639q0 90 -42 147t-114 58q-125 0 -161 -182l-115 -533q186 6 309 147t123 363zM49 394q0 175 80 333t203 258l172 -37q-274 -246 -275 -540q0 -248 236 -275l115 543q70 317 329 317q162 0 252 -103t90 -259q0 -269 -177 -455t-468 -194l-98 -467h-176l102 471
q-188 27 -287 130q-98 103 -98 278z" />
    <glyph glyph-name="chi" unicode="&#x3c7;" horiz-adv-x="964" 
d="M178 989q130 0 186 -118t80 -420h5l344 518h190l-504 -738q33 -358 62 -463t112 -106q31 0 54 6v-145q-43 -16 -97 -17q-133 0 -188 125t-80 447h-4l-381 -563h-193l543 782q-29 341 -58 427q-29 87 -69 103t-100 0v146q43 16 98 16z" />
    <glyph glyph-name="psi" unicode="&#x3c8;" horiz-adv-x="1400" 
d="M178 866q0 45 -14 103h176q16 -53 16 -133t-55 -237t-55 -247q0 -211 246 -225l284 1323h176l-282 -1323q216 18 332 183t116 390q0 164 -55 269h178q57 -111 57 -265q0 -287 -159 -492q-78 -98 -208 -160t-294 -70l-98 -467h-177l99 467q-190 12 -294 105
q-103 93 -104 245q0 100 58 266q57 166 57 268z" />
    <glyph glyph-name="omega" unicode="&#x3c9;" horiz-adv-x="1517" 
d="M339 -20q-132 0 -211 96t-79 271t94 348t246 288l174 -33q-336 -285 -336 -608q0 -94 39 -152t119 -57q133 0 207 163t86 423h192q-55 -160 -55 -338q0 -248 168 -248q119 0 187 115t67 272q0 227 -154 430l177 33q156 -190 155 -459q0 -229 -115 -387t-315 -157
q-125 0 -198 76t-82 200h-5q-43 -124 -136 -200t-225 -76z" />
    <glyph glyph-name="iotadieresis" unicode="&#x3ca;" horiz-adv-x="532" 
d="M641 1248q0 -44 -32 -78t-74 -33q-41 -1 -65 23t-24 69t31 78t73 33t66 -24t25 -68zM167 1137q-42 -1 -66 23q-23 24 -23 69t31 78t73 33t65 -24t23 -69t-30 -78q-31 -32 -73 -32zM248 -12q-82 0 -137 47t-56 131q0 39 11 90l153 713h176l-151 -707q-6 -31 -6 -55
q0 -61 67 -62q37 0 80 15v-152q-55 -20 -137 -20z" />
    <glyph glyph-name="upsilondieresis" unicode="&#x3cb;" horiz-adv-x="1079" 
d="M879 1248q0 -44 -32 -78t-74 -33q-41 -1 -65 23t-24 69t31 78t73 33t66 -24t25 -68zM508 1247q0 -45 -31 -77t-73 -33t-66 23t-23 69q0 45 31 78t73 33q41 0 65 -24t24 -69zM441 -20q-167 0 -261 82t-94 231q0 92 54 259t55 224q0 57 -54 58q-18 0 -53 -11v146
q160 61 243 -22q46 -46 46 -129t-54 -254t-55 -251q0 -184 178 -184q164 0 259 168q94 168 94 401q-4 172 -49 271h178q47 -106 51 -283q-1 -403 -243 -601q-128 -105 -295 -105z" />
    <glyph glyph-name="omicrontonos" unicode="&#x3cc;" horiz-adv-x="1052" 
d="M680 1087h-145l190 343h209zM434 129q147 0 242 141q94 141 94 332q0 242 -201 242q-147 0 -242 -142t-96 -331q0 -242 203 -242zM428 -20q-182 0 -281 106q-98 106 -98 274q0 274 154 454t372 179q181 0 279 -106t98 -275q0 -274 -152 -453t-372 -179z" />
    <glyph glyph-name="upsilontonos" unicode="&#x3cd;" horiz-adv-x="1079" 
d="M441 -20q-167 0 -261 82t-94 231q0 92 54 259t55 224q0 57 -54 58q-18 0 -53 -11v146q160 61 243 -22q46 -46 46 -129t-54 -254t-55 -251q0 -184 178 -184q164 0 259 168q94 168 94 401q-4 172 -49 271h178q47 -106 51 -283q-1 -403 -243 -601q-128 -105 -295 -105z
M627 1087h-146l191 343h209z" />
    <glyph glyph-name="omegatonos" unicode="&#x3ce;" horiz-adv-x="1517" 
d="M903 1087h-145l190 343h209zM339 -20q-132 0 -211 96t-79 271t94 348t246 288l174 -33q-336 -285 -336 -608q0 -94 39 -152t119 -57q133 0 207 163t86 423h192q-55 -160 -55 -338q0 -248 168 -248q119 0 187 115t67 272q0 227 -154 430l177 33q156 -190 155 -459
q0 -229 -115 -387t-315 -157q-125 0 -198 76t-82 200h-5q-43 -124 -136 -200t-225 -76z" />
    <glyph glyph-name="uni0400" unicode="&#x400;" horiz-adv-x="929" 
d="M600 1425l-166 301h205l100 -301h-139zM27 0l286 1350h654l-62 -154h-444l-90 -430h436l-33 -154h-438l-96 -458h497l-32 -154h-678z" />
    <glyph glyph-name="afii10023" unicode="&#x401;" horiz-adv-x="950" 
d="M841 1442q-42 0 -66 24q-23 24 -23 67q0 44 30 77q31 32 73 32t66 -22q23 -22 23 -68q0 -44 -30 -77t-73 -33zM472 1442q-42 0 -66 24t-25 67q0 44 32 77q31 32 73 32t66 -22t24 -68q0 -44 -32 -77q-30 -33 -72 -33zM27 0l286 1350h654l-62 -154h-444l-90 -430h436
l-33 -154h-438l-96 -458h497l-32 -154h-678z" />
    <glyph glyph-name="afii10051" unicode="&#x402;" horiz-adv-x="1454" 
d="M1262 410q0 -182 -114 -302t-306 -120q-109 0 -187 35l56 141q51 -23 118 -23q113 0 182 70t68 197q0 233 -329 233q-74 0 -166 -16l-133 -625h-181l254 1200h-395l33 150h1034l-57 -150h-434l-89 -418q74 12 152 13q234 1 364 -101t130 -284z" />
    <glyph glyph-name="afii10052" unicode="&#x403;" horiz-adv-x="917" 
d="M575 1425l156 301h205l-223 -301h-138zM25 0l288 1350h670l-65 -154h-457l-254 -1196h-182z" />
    <glyph glyph-name="afii10053" unicode="&#x404;" horiz-adv-x="1216" 
d="M653 -20q-266 0 -410 148t-145 409q0 360 214 592t554 233q190 0 344 -72l-34 -153q-147 72 -308 71q-211 0 -359 -123t-200 -323h658l-31 -148h-649q-4 -49 -4 -73q0 -178 95 -293q96 -115 280 -115t348 86l36 -149q-176 -90 -389 -90z" />
    <glyph glyph-name="afii10054" unicode="&#x405;" horiz-adv-x="966" 
d="M324 135q131 0 212 54q80 54 80 179t-115 210q-115 86 -206 160q-49 40 -81 106t-32 147q0 164 117 267q117 104 298 104t316 -68l-32 -155q-127 69 -251 69t-192 -51t-68 -131t46 -136q45 -56 108 -100q62 -44 126 -94t110 -131q46 -80 45 -182q0 -197 -132 -300
q-133 -103 -329 -103t-346 90l74 143q121 -78 252 -78z" />
    <glyph glyph-name="afii10055" unicode="&#x406;" horiz-adv-x="518" 
d="M27 0l286 1350h181l-287 -1350h-180z" />
    <glyph glyph-name="afii10056" unicode="&#x407;" horiz-adv-x="518" 
d="M609 1442q-41 0 -65 24t-24 67q0 44 31 77q31 32 73 32t66 -22t23 -68q0 -44 -31 -77t-73 -33zM241 1442q-42 0 -67 24q-24 24 -24 67q0 44 31 77q32 32 74 32t66 -22q23 -22 23 -68q0 -44 -30 -77t-73 -33zM27 0l286 1350h181l-287 -1350h-180z" />
    <glyph glyph-name="afii10057" unicode="&#x408;" horiz-adv-x="602" 
d="M-102 -375q-105 0 -185 35l56 145q51 -25 129 -24q117 0 168 92q35 68 51 160l280 1317h181l-285 -1336q-31 -152 -80 -235q-96 -154 -315 -154z" />
    <glyph glyph-name="afii10058" unicode="&#x409;" horiz-adv-x="1779" 
d="M1055 152q178 0 279 80t102 239q0 115 -93 160q-63 35 -202 35h-103l-108 -514h125zM-31 158q93 0 183 110t188 373q98 262 229 709h615l-115 -535h74q199 0 299 -49q176 -90 176 -287q0 -227 -151 -353t-427 -126h-323l256 1200h-273q-244 -836 -419 -1057
q-123 -156 -308 -155q-38 0 -79 10l38 164q29 -4 37 -4z" />
    <glyph glyph-name="afii10059" unicode="&#x40a;" horiz-adv-x="1923" 
d="M1200 152q176 0 278 79q101 80 101 240q0 115 -92 160q-63 35 -201 35h-117l-110 -514h141zM1286 815q197 0 299 -49q176 -90 176 -287q-1 -227 -151 -353t-426 -126h-338l129 608h-641l-129 -608h-180l288 1350h181l-125 -586h641l125 586h180l-115 -535h86z" />
    <glyph glyph-name="afii10060" unicode="&#x40b;" horiz-adv-x="1490" 
d="M1276 471q0 -51 -21 -158l-67 -313h-178l63 289q23 106 23 162q0 203 -279 202q-104 0 -231 -26l-133 -627h-181l256 1200h-397l33 150h1026l-60 -150h-421l-88 -414q117 20 227 21q204 0 316 -88t112 -248z" />
    <glyph glyph-name="afii10061" unicode="&#x40c;" horiz-adv-x="1191" 
d="M520 752q80 0 139 81t121 217q61 136 113 199q88 113 227 113q59 0 111 -19l-33 -159q-35 12 -65 12q-63 0 -107 -56t-94 -162q-52 -108 -106 -188t-121 -106v-4q43 -16 71 -60t53 -126l162 -494h-198l-140 465q-41 137 -100 137h-219l-129 -602h-180l288 1350h181
l-127 -598h153zM655 1425l156 301h205l-223 -301h-138z" />
    <glyph glyph-name="uni040D" unicode="&#x40d;" horiz-adv-x="1433" 
d="M791 1425l-166 301h204l101 -301h-139zM25 0l288 1350h181l-181 -844q-23 -113 -47 -205h4q72 90 238 266l723 783h178l-287 -1350h-182l184 862q4 21 23 100q18 78 22 95h-4q-51 -66 -227 -252l-745 -805h-168z" />
    <glyph glyph-name="afii10062" unicode="&#x40e;" horiz-adv-x="1081" 
d="M690 1563q141 0 250 202l129 -61q-74 -141 -166 -210t-217 -69t-200 69t-89 202l146 33q18 -166 147 -166zM47 4l37 152q37 -12 74 -13q74 1 134 57t140 191l-258 959h191l188 -766h4l453 766h198l-635 -1043q-104 -174 -196 -248t-209 -73q-70 0 -121 18z" />
    <glyph glyph-name="afii10145" unicode="&#x40f;" horiz-adv-x="1320" 
d="M25 0l288 1350h181l-254 -1192h622l252 1192h180l-288 -1350h-396l-80 -377h-172l80 377h-413z" />
    <glyph glyph-name="afii10017" unicode="&#x410;" horiz-adv-x="1198" 
d="M379 504h369l-62 399q-16 111 -27 178h-4q-68 -156 -84 -188zM-84 0l717 1354h143l246 -1354h-188l-62 354h-475l-180 -354h-201z" />
    <glyph glyph-name="afii10018" unicode="&#x411;" horiz-adv-x="1124" 
d="M395 152q184 0 283 82q98 83 98 229q0 111 -84 153q-61 37 -211 37h-137l-106 -501h157zM485 805q199 0 306 -53q167 -86 167 -293t-152 -333t-425 -126h-356l288 1350h725l-59 -150h-518l-84 -395h108z" />
    <glyph glyph-name="afii10019" unicode="&#x412;" horiz-adv-x="1110" 
d="M418 150q170 0 266 76t96 200q0 90 -61 139t-168 49h-215l-96 -464h178zM537 764q129 0 199 79t69 168q0 187 -207 187h-137l-92 -434h168zM616 1350q188 0 280 -88t91 -220q0 -236 -229 -335v-5q84 -20 145 -89t62 -173q0 -182 -151 -311t-431 -129h-356l286 1350h303z
" />
    <glyph glyph-name="afii10020" unicode="&#x413;" horiz-adv-x="878" 
d="M25 0l288 1350h670l-65 -154h-457l-254 -1196h-182z" />
    <glyph glyph-name="afii10021" unicode="&#x414;" horiz-adv-x="1302" 
d="M227 154h561l224 1046h-291q-205 -725 -494 -1042v-4zM-168 -377l113 531h65q190 194 328 484t256 712h629l-254 -1196h164l-113 -531h-180l80 377h-828l-80 -377h-180z" />
    <glyph glyph-name="afii10022" unicode="&#x415;" horiz-adv-x="950" 
d="M27 0l286 1350h654l-62 -154h-444l-90 -430h436l-33 -154h-438l-96 -458h497l-32 -154h-678z" />
    <glyph glyph-name="afii10024" unicode="&#x416;" horiz-adv-x="1808" 
d="M265 1196q-44 0 -79 -12l35 162q49 16 98 16q109 0 158 -87t72 -332q6 -77 35 -136t86 -59h137l129 602h176l-127 -602h145q80 0 139 80q57 82 119 218t111 199q90 117 230 117q66 0 108 -19l-33 -157q-31 10 -65 10q-63 0 -117 -68q-35 -43 -84 -148t-102 -186
t-117 -108v-4q74 -27 123 -188l157 -494h-194l-135 465q-39 135 -111 135h-205l-127 -600h-176l127 600h-186q-88 0 -174 -141l-275 -459h-202l309 506q106 170 207 192v4q-51 46 -76 226t-49 224t-67 44z" />
    <glyph glyph-name="afii10025" unicode="&#x417;" horiz-adv-x="1077" 
d="M893 387q0 -183 -131 -295q-130 -112 -358 -112t-377 83l34 156q137 -84 299 -84q343 0 345 268q0 211 -310 211q-70 0 -110 -2l32 152q39 -4 105 -4q358 0 358 254q0 90 -66 141q-67 51 -198 51t-283 -69l-34 139q176 86 361 86t296 -92t111 -228t-72 -228
q-72 -93 -213 -130v-4q211 -70 211 -293z" />
    <glyph glyph-name="afii10026" unicode="&#x418;" horiz-adv-x="1433" 
d="M25 0l288 1350h181l-181 -844q-23 -113 -47 -205h4q72 90 238 266l723 783h178l-287 -1350h-182l184 862q4 21 23 100q18 78 22 95h-4q-51 -66 -227 -252l-745 -805h-168z" />
    <glyph glyph-name="afii10027" unicode="&#x419;" horiz-adv-x="1433" 
d="M862 1563q141 0 250 202l129 -61q-74 -141 -166 -210t-217 -69t-200 69t-89 202l146 33q18 -166 147 -166zM25 0l288 1350h181l-181 -844q-23 -113 -47 -205h4q72 90 238 266l723 783h178l-287 -1350h-182l184 862q4 21 23 100q18 78 22 95h-4q-51 -66 -227 -252
l-745 -805h-168z" />
    <glyph glyph-name="afii10028" unicode="&#x41a;" horiz-adv-x="1202" 
d="M520 752q80 0 139 81t121 217q61 136 113 199q88 113 227 113q59 0 111 -19l-33 -159q-35 12 -65 12q-63 0 -107 -56t-94 -162q-52 -108 -106 -188t-121 -106v-4q43 -16 71 -60t53 -126l162 -494h-198l-140 465q-41 137 -100 137h-219l-129 -602h-180l288 1350h181
l-127 -598h153z" />
    <glyph glyph-name="afii10029" unicode="&#x41b;" horiz-adv-x="1224" 
d="M-31 158q93 0 183 110t188 373q98 262 229 709h631l-287 -1350h-182l258 1200h-289q-244 -836 -419 -1057q-123 -156 -308 -155q-38 0 -79 10l38 164q29 -4 37 -4z" />
    <glyph glyph-name="afii10030" unicode="&#x41c;" horiz-adv-x="1619" 
d="M27 0l286 1350h172l209 -574q12 -35 45 -127t45 -129h4q94 137 150 209l467 621h190l-286 -1350h-181l150 700q43 207 80 340h-6q-86 -123 -164 -221l-391 -518h-99l-188 508q-63 180 -80 231h-4q-33 -162 -72 -344l-147 -696h-180z" />
    <glyph glyph-name="afii10031" unicode="&#x41d;" horiz-adv-x="1374" 
d="M27 0l286 1350h181l-125 -586h675l125 586h181l-287 -1350h-180l129 608h-676l-129 -608h-180z" />
    <glyph glyph-name="afii10032" unicode="&#x41e;" horiz-adv-x="1480" 
d="M657 135q240 0 387 202t148 460q0 197 -93 303t-263 106t-296 -99t-188 -247t-63 -328q0 -180 94 -288t274 -109zM1384 799q0 -215 -89 -401t-260 -302t-407 -116t-382 147q-147 147 -148 418q0 215 89 400t260 301t407 116t383 -146t147 -417z" />
    <glyph glyph-name="afii10033" unicode="&#x41f;" horiz-adv-x="1333" 
d="M25 0l288 1350h996l-289 -1350h-180l254 1196h-635l-254 -1196h-180z" />
    <glyph glyph-name="afii10034" unicode="&#x420;" horiz-adv-x="1032" 
d="M412 637q104 0 174 29q104 32 159 112t56 189q0 160 -142 211q-57 23 -143 22h-55l-119 -563h70zM520 1350q283 0 401 -164q65 -90 65 -232t-92 -264q-153 -203 -509 -203h-76l-102 -487h-180l286 1350h207z" />
    <glyph glyph-name="afii10035" unicode="&#x421;" horiz-adv-x="1208" 
d="M664 -20q-258 0 -412 148t-154 411q0 356 222 589t561 234q182 0 336 -72l-37 -155q-143 72 -297 71q-262 0 -428 -189t-166 -460q0 -190 102 -306q103 -116 279 -116t342 84l35 -149q-174 -90 -383 -90z" />
    <glyph glyph-name="afii10036" unicode="&#x422;" horiz-adv-x="1007" 
d="M268 0l254 1196h-397l33 154h981l-66 -154h-371l-253 -1196h-181z" />
    <glyph glyph-name="afii10037" unicode="&#x423;" horiz-adv-x="1081" 
d="M41 4l37 152q37 -12 74 -13q74 1 134 57t140 191l-258 959h190l189 -766h4l453 766h198l-635 -1043q-104 -174 -196 -248t-209 -73q-68 0 -121 18z" />
    <glyph glyph-name="afii10038" unicode="&#x424;" horiz-adv-x="1501" 
d="M578 305l159 750q-209 -10 -333 -137t-123 -332q0 -250 297 -281zM1223 774q0 254 -305 279l-160 -750q211 8 338 135t127 336zM96 573q0 271 174 449t500 188l37 170h180l-37 -176q221 -22 338 -130t117 -290q0 -272 -176 -450t-506 -187l-39 -184h-180l41 193
q-219 23 -334 129t-115 288z" />
    <glyph glyph-name="afii10039" unicode="&#x425;" horiz-adv-x="1204" 
d="M-82 0l571 692l-307 658h195l239 -521l426 521h218l-564 -682l314 -668h-193l-248 528l-436 -528h-215z" />
    <glyph glyph-name="afii10040" unicode="&#x426;" horiz-adv-x="1351" 
d="M25 0l288 1350h181l-256 -1196h600l254 1196h180l-254 -1196h166l-115 -531h-176l80 377h-948z" />
    <glyph glyph-name="afii10041" unicode="&#x427;" horiz-adv-x="1228" 
d="M627 543q-205 0 -317 88t-111 248q0 51 20 157l68 314h178l-64 -289q-23 -106 -22 -162q0 -203 278 -203q106 0 234 27l133 627h180l-286 -1350h-181l119 563q-113 -20 -229 -20z" />
    <glyph glyph-name="afii10042" unicode="&#x428;" horiz-adv-x="1732" 
d="M25 0l288 1350h181l-256 -1196h428l254 1196h182l-256 -1196h426l254 1196h182l-289 -1350h-1394z" />
    <glyph glyph-name="afii10043" unicode="&#x429;" horiz-adv-x="1773" 
d="M25 0l288 1350h181l-256 -1196h419l256 1196h181l-256 -1196h422l253 1196h181l-254 -1196h166l-113 -531h-178l80 377h-1370z" />
    <glyph glyph-name="afii10044" unicode="&#x42a;" horiz-adv-x="1390" 
d="M666 152q178 0 279 80t102 239q0 113 -93 160q-63 35 -202 35h-117l-109 -514h140zM754 815q197 0 299 -49q176 -90 176 -287q0 -227 -151 -353t-427 -126h-338l254 1200h-395l-16 150h624l-112 -535h86z" />
    <glyph glyph-name="afii10045" unicode="&#x42b;" horiz-adv-x="1492" 
d="M999 0l287 1350h180l-286 -1350h-181zM365 152q178 0 279 80t101 239q0 113 -92 160q-63 35 -202 35h-103l-110 -514h127zM451 815q201 0 299 -49q178 -90 178 -287q0 -227 -152 -353t-428 -126h-323l288 1350h181l-115 -535h72z" />
    <glyph glyph-name="afii10046" unicode="&#x42c;" horiz-adv-x="1120" 
d="M395 152q178 0 280 79q101 80 101 240q0 113 -92 160q-63 35 -203 35h-133l-110 -514h157zM483 815q197 0 299 -49q176 -90 176 -287q0 -227 -150 -353t-427 -126h-356l288 1350h181l-115 -535h104z" />
    <glyph glyph-name="afii10047" unicode="&#x42d;" horiz-adv-x="1204" 
d="M400 133q206 0 341 130t166 351h-624l30 148h607q6 202 -104 324t-302 122q-137 0 -289 -63l-35 137q164 80 351 80q268 0 416 -165t149 -429q0 -348 -192 -568t-525 -220q-224 -1 -369 83l33 156q141 -86 347 -86z" />
    <glyph glyph-name="afii10048" unicode="&#x42e;" horiz-adv-x="1943" 
d="M1147 135q233 0 370 203q136 203 136 467q0 189 -88 295t-248 106t-279 -101t-175 -251t-56 -328t89 -284q89 -107 251 -107zM1314 1362q246 0 388 -144t143 -403q-1 -344 -197 -590t-513 -245q-236 0 -377 143t-142 403q0 29 5 86h-285l-131 -612h-180l288 1350h181
l-123 -582h274q63 260 243 427t426 167z" />
    <glyph glyph-name="afii10049" unicode="&#x42f;" horiz-adv-x="1134" 
d="M629 709h162l104 491h-168q-145 2 -235 -74t-91 -211q0 -96 65 -151t163 -55zM213 920q0 198 139 314t346 116h410l-287 -1350h-180l119 559h-197q-86 0 -176 -145l-254 -414h-203l291 463q84 131 164 170v4q-80 43 -126 117t-46 166z" />
    <glyph glyph-name="afii10065" unicode="&#x430;" horiz-adv-x="970" 
d="M313 127q96 0 186 79q89 79 113 195l15 68h-76q-219 1 -293 -59t-74 -150q0 -133 129 -133zM266 -20q-118 0 -188 72t-70 184q0 164 122 264t384 100l135 2q12 45 13 100q0 147 -179 148q-133 0 -286 -74l-25 137q170 80 324 80q342 0 344 -280q0 -72 -35 -234l-21 -86
q-34 -157 -34 -235t16 -138l-154 -32q-27 82 -28 166q-136 -174 -318 -174z" />
    <glyph glyph-name="afii10066" unicode="&#x431;" horiz-adv-x="1040" 
d="M451 129q137 0 219 126t82 298q0 98 -45 163t-136 64q-137 0 -231 -126t-94 -287q0 -117 56 -178q57 -60 149 -60zM442 -20q-172 0 -272 112t-100 319q0 206 72 438q97 309 264 411q91 55 184 83t220 61q126 33 167 44l41 -158q-47 -12 -121 -32q-73 -20 -107 -30
q-214 -57 -281 -96q-168 -97 -247 -407h4q62 98 154 149t188 52q156 0 241 -104t85 -259q0 -231 -140 -407t-352 -176z" />
    <glyph glyph-name="afii10067" unicode="&#x432;" horiz-adv-x="987" 
d="M418 555q143 0 217 46q74 45 76 117q4 140 -197 140q-78 0 -149 -22l-60 -281h113zM424 428h-145l-60 -287q67 -27 179 -27t179 51q67 50 66 130q0 133 -219 133zM533 993q179 0 269 -70q89 -71 88 -175t-69 -168t-178 -84v-4q180 -42 180 -188q-1 -146 -115 -235
t-324 -89t-361 69l190 893q141 51 320 51z" />
    <glyph glyph-name="afii10068" unicode="&#x433;" horiz-adv-x="825" 
d="M193 252q0 -125 189 -125q103 0 214 61l55 -131q-139 -77 -298 -77t-249 70t-90 178q0 110 58 179t139 103q82 34 164 64q82 28 139 68t57 99q0 106 -155 107q-100 0 -226 -45l-38 135q138 55 286 55q148 1 230 -67t82 -172t-58 -168q-58 -66 -139 -101q-82 -35 -164 -63
t-139 -70q-57 -41 -57 -100z" />
    <glyph glyph-name="afii10069" unicode="&#x434;" horiz-adv-x="1038" 
d="M416 129q152 0 244 167t112 415q-100 70 -213 69q-151 0 -239 -126t-89 -289q1 -236 185 -236zM412 -20q-174 0 -269 105q-94 105 -94 280q0 237 140 399t348 162q131 0 239 -60h4q-12 428 -319 428q-90 0 -185 -32l-38 145q106 43 229 43q246 0 366 -169t119 -450
q0 -491 -238 -725q-128 -126 -302 -126z" />
    <glyph glyph-name="afii10070" unicode="&#x435;" horiz-adv-x="970" 
d="M534 850q-95 0 -176 -80t-106 -195l438 7q41 142 -22 220q-39 48 -134 48zM453 -20q-182 0 -293 110t-111 303q1 256 145 428t363 172q158 0 242 -87t84 -230q0 -102 -43 -225l-611 -9q-2 -16 -2 -49q0 -125 67 -195q68 -70 182 -71q114 0 257 74l49 -131
q-147 -90 -329 -90z" />
    <glyph glyph-name="afii10072" unicode="&#x436;" horiz-adv-x="1484" 
d="M543 563h108l84 406h172l-84 -406h113q61 1 106 57t92 152q46 96 80 139q66 78 170 78q53 0 99 -16l-35 -150q-68 34 -121 -28q-18 -25 -58 -99t-83 -128t-96 -74v-5q57 -39 90 -151l98 -338h-180l-80 307q-33 117 -80 117h-139l-90 -424h-172l88 424h-127q-50 0 -98 -62
t-104 -159q-56 -98 -99 -144q-68 -74 -177 -73q-57 0 -94 16l43 150q20 -10 55 -10q34 0 60 30t74 114q110 189 207 218v4q-49 37 -78 141l-86 320h180l70 -291q29 -115 92 -115z" />
    <glyph glyph-name="afii10073" unicode="&#x437;" horiz-adv-x="849" 
d="M690 296q0 -146 -112 -231t-289 -85q-176 0 -307 73l32 135q118 -68 238 -68q260 1 260 173q0 143 -242 143q-49 0 -96 -4l29 137q45 -2 144 -2t164 45t65 112q0 68 -54 98q-52 30 -144 30t-202 -47l-37 131q133 57 281 57t239 -63q93 -64 93 -170t-62 -171t-158 -93v-4
q158 -50 158 -196z" />
    <glyph glyph-name="afii10074" unicode="&#x438;" horiz-adv-x="1038" 
d="M297 -20q-100 0 -166 60t-65 183q0 68 24 191l117 555h178l-121 -572q-18 -82 -18 -135q0 -127 110 -127q115 0 205 99t123 245l104 490h177l-123 -576q-31 -169 -31 -237t14 -136l-151 -32q-31 94 -25 188h-4q-61 -86 -155 -141t-193 -55z" />
    <glyph glyph-name="afii10075" unicode="&#x439;" horiz-adv-x="1038" 
d="M604 1245q80 0 138 52t112 151l125 -62q-76 -142 -165 -208t-212 -66t-197 68t-88 200l142 31q18 -166 145 -166zM297 -20q-100 0 -166 60t-65 183q0 68 24 191l117 555h178l-121 -572q-18 -82 -18 -135q0 -127 110 -127q115 0 205 99t123 245l104 490h177l-123 -576
q-31 -169 -31 -237t14 -136l-151 -32q-31 94 -25 188h-4q-61 -86 -155 -141t-193 -55z" />
    <glyph glyph-name="afii10076" unicode="&#x43a;" horiz-adv-x="948" 
d="M414 563q61 1 101 59t80 155t77 143q57 74 168 73q53 0 102 -16l-35 -152q-20 11 -57 11t-63 -34q-27 -34 -59 -106q-76 -168 -161 -202v-5q59 -39 95 -151l104 -338h-180l-84 307q-33 115 -84 115h-148l-92 -422h-176l207 969h176l-86 -406h115z" />
    <glyph glyph-name="afii10077" unicode="&#x43b;" horiz-adv-x="1089" 
d="M735 993q125 0 246 -35l-119 -555q-33 -153 -33 -225t25 -153l-170 -37q-33 78 -33 167t27 216l98 463q-25 6 -65 6q-96 0 -160 -82q-51 -70 -153 -330t-169 -346q-70 -94 -211 -94q-55 0 -102 14l39 152q20 -6 47 -7q68 1 108 59t142 312t174 342q109 133 309 133z" />
    <glyph glyph-name="afii10078" unicode="&#x43c;" horiz-adv-x="1312" 
d="M1104 172q0 -78 20 -147l-172 -37q-26 80 -26 184t96 506h-4q-70 -90 -121 -152l-235 -286h-87q-102 328 -149 442h-4q-43 -238 -85 -377t-114 -229t-207 -90q-49 0 -100 14l35 150q20 -6 49 -7q74 0 124 76t92 253t99 497h150q104 -223 192 -525h5q59 82 129 168
l290 357h176l-120 -566q-33 -153 -33 -231z" />
    <glyph glyph-name="afii10079" unicode="&#x43d;" horiz-adv-x="1044" 
d="M2 0l207 969h178l-80 -373h424l80 373h178l-207 -969h-178l92 438h-424l-92 -438h-178z" />
    <glyph glyph-name="afii10080" unicode="&#x43e;" horiz-adv-x="1052" 
d="M434 129q147 0 242 141q94 141 94 332q0 242 -201 242q-147 0 -242 -142t-96 -331q0 -242 203 -242zM428 -20q-182 0 -281 106q-98 106 -98 274q0 274 154 454t372 179q181 0 279 -106t98 -275q0 -274 -152 -453t-372 -179z" />
    <glyph glyph-name="afii10081" unicode="&#x43f;" horiz-adv-x="1036" 
d="M697 993q103 0 163 -59t62 -178q0 -74 -25 -189l-121 -567h-178l121 561q20 102 20 150q0 123 -108 123q-57 0 -125 -38t-132 -123t-104 -261l-88 -412h-176l207 969h143l-24 -193h4q62 94 160 156t201 61z" />
    <glyph glyph-name="afii10082" unicode="&#x440;" horiz-adv-x="1046" 
d="M369 131q175 0 285 127t110 313q0 133 -73 202t-202 69q-63 0 -129 -17l-141 -667q61 -27 150 -27zM498 993q220 1 334 -113t114 -294q0 -274 -167 -440t-398 -166q-100 0 -197 28l-104 -493h-178l307 1433q150 45 289 45z" />
    <glyph glyph-name="afii10083" unicode="&#x441;" horiz-adv-x="907" 
d="M459 -20q-188 0 -299 110t-111 297q0 256 159 431t402 175q135 0 244 -49l-33 -149q-102 49 -209 49q-158 0 -270 -125t-111 -313q-1 -129 63 -203t186 -74t245 72l47 -129q-57 -40 -145 -66t-168 -26z" />
    <glyph glyph-name="afii10084" unicode="&#x442;" horiz-adv-x="1585" 
d="M682 993q100 0 156 -56t55 -171h4q66 98 161 163t196 65q100 0 160 -57q60 -56 61 -165q2 -57 -25 -197l-123 -575h-176l123 582q18 82 18 135q0 117 -104 117q-119 0 -234 -150q-76 -100 -110 -268l-90 -416h-176l122 582q18 82 19 135q0 117 -105 117q-119 0 -233 -152
q-74 -96 -111 -266l-90 -416h-176l207 969h143l-24 -193h4q66 96 156 157q92 60 192 60z" />
    <glyph glyph-name="afii10085" unicode="&#x443;" horiz-adv-x="935" 
d="M-68 -336q98 0 186 73q87 73 179 261l-219 971h178l102 -494q12 -59 56 -276h4q47 113 114 252l252 518h187l-510 -1002q-127 -252 -249 -352t-294 -100q-105 -1 -168 36l64 140q55 -27 118 -27z" />
    <glyph glyph-name="afii10086" unicode="&#x444;" horiz-adv-x="1376" 
d="M774 129q139 0 225 158t91 344q0 211 -134 211q-129 0 -178 -201l-104 -491q51 -21 100 -21zM358 125q133 0 179 201l104 489q-45 23 -98 23q-139 0 -227 -159t-89 -343q-3 -98 31 -154t100 -57zM298 -27q-114 1 -184 95t-69 256q0 162 58 312t172 250q114 101 257 101
q70 0 142 -26l28 137q72 352 314 352q72 0 133 -25l-49 -143q-35 12 -83 12t-81 -42t-57 -136q-5 -14 -23 -99t-27 -110h5q70 86 184 86t184 -94t70 -256q0 -161 -58 -311t-174 -251q-115 -101 -258 -101q-74 0 -141 26q-80 -322 -163 -406t-212 -85q-70 -1 -127 24l49 144
q33 -12 70 -13q70 0 109 54q27 30 44 74t42 138t34 125h-4q-71 -88 -185 -88z" />
    <glyph glyph-name="afii10087" unicode="&#x445;" horiz-adv-x="929" 
d="M-96 0l432 496l-256 473h182l191 -355l301 355h194l-420 -486l265 -483h-187l-194 369l-316 -369h-192z" />
    <glyph glyph-name="afii10088" unicode="&#x446;" horiz-adv-x="1112" 
d="M301 -20q-104 0 -170 60t-65 183q0 80 24 191l117 555h178l-123 -572q-16 -74 -16 -135q0 -127 112 -127t202 96q89 96 122 240l104 498h179l-107 -504q-37 -182 -37 -248t34 -83t138 -5l-96 -465h-164l68 328q-147 20 -148 188h-4q-141 -200 -348 -200z" />
    <glyph glyph-name="afii10089" unicode="&#x447;" horiz-adv-x="1003" 
d="M389 356q-141 0 -206 58t-64 157q0 49 20 146l56 252h176l-64 -283q-10 -47 -10 -82q0 -100 137 -100q98 0 174 37t84 71l78 357h176l-207 -969h-178l60 270q20 96 36 162h-4q-123 -76 -264 -76z" />
    <glyph glyph-name="afii10090" unicode="&#x448;" horiz-adv-x="1503" 
d="M285 -20q-100 0 -160 61q-59 61 -59 186q0 76 24 187l117 555h178l-123 -572q-16 -86 -16 -131q0 -131 102 -131q96 1 172 105t105 239l104 490h178l-123 -572q-16 -86 -16 -137q0 -125 99 -125q99 -1 175 103t105 241l104 490h176l-120 -576q-33 -161 -33 -233t14 -140
l-151 -32q-27 82 -25 182h-4q-131 -190 -301 -190q-88 0 -144 49t-63 147h-4q-137 -196 -311 -196z" />
    <glyph glyph-name="afii10091" unicode="&#x449;" horiz-adv-x="1574" 
d="M285 -20q-100 0 -160 61q-59 61 -59 186q0 76 24 187l117 555h178l-123 -572q-16 -86 -16 -131q0 -131 102 -131q96 1 172 105t105 239l104 490h178l-123 -572q-16 -86 -16 -137q0 -125 99 -125q99 -1 175 103t105 241l104 490h176l-106 -504q-37 -182 -37 -248t35 -83
t139 -5l-96 -465h-164l68 328q-143 20 -150 178h-4q-131 -190 -305 -190q-88 0 -144 49t-63 147h-4q-137 -196 -311 -196z" />
    <glyph glyph-name="afii10092" unicode="&#x44a;" horiz-adv-x="1200" 
d="M645 465q-76 0 -139 -14l-62 -304q68 -27 174 -27t181 55q76 54 75 149q0 141 -229 141zM688 606q178 0 274 -74t95 -194q0 -158 -127 -258t-336 -100t-348 69l162 770h-312l-14 150h536l-79 -377q96 14 149 14z" />
    <glyph glyph-name="afii10093" unicode="&#x44b;" horiz-adv-x="1325" 
d="M885 0l207 969h176l-207 -969h-176zM635 322q0 143 -215 143q-63 0 -131 -14l-64 -304q69 -27 171 -27t170 55q68 54 69 147zM457 606q172 0 266 -75t94 -193q0 -156 -121 -257t-320 -101t-349 69l196 920h178l-79 -377q72 14 135 14z" />
    <glyph glyph-name="afii10094" unicode="&#x44c;" horiz-adv-x="980" 
d="M428 465q-76 0 -139 -14l-64 -304q71 -27 177 -27t181 55q75 54 74 149q0 141 -229 141zM471 606q178 0 273 -74t96 -194q0 -158 -127 -258t-335 -100t-351 69l196 920h178l-79 -377q96 14 149 14z" />
    <glyph glyph-name="afii10095" unicode="&#x44d;" horiz-adv-x="909" 
d="M380 850q-109 0 -212 -49l-39 127q121 66 258 65q203 0 313 -125t109 -349q0 -224 -138 -382t-374 -157q-156 -1 -287 71l33 137q99 -68 239 -68t229 82q89 81 116 228h-416l29 133h395q-2 137 -74 212t-181 75z" />
    <glyph glyph-name="afii10096" unicode="&#x44e;" horiz-adv-x="1454" 
d="M842 129q141 1 236 149t96 338q0 227 -193 228q-143 0 -239 -148t-95 -340q0 -227 195 -227zM1356 625q0 -277 -154 -461t-371 -184q-168 0 -261 95t-101 247q-4 55 4 100h-203l-90 -422h-178l207 969h178l-82 -389h195q57 186 192 300t304 114q168 0 264 -103
q96 -102 96 -266z" />
    <glyph glyph-name="afii10097" unicode="&#x44f;" horiz-adv-x="993" 
d="M496 508h166l69 323q-76 25 -170 25q-93 0 -157 -58t-64 -149q0 -57 39 -99t117 -42zM164 652q0 150 112 246q114 95 290 95t364 -59l-201 -934h-176l80 375h-158q-47 0 -86 -48t-87 -133t-89 -133q-68 -74 -182 -73q-49 0 -94 16l43 150q77 -25 115 22q25 31 60 88
q34 57 68 104q35 46 74 68v4q-133 62 -133 212z" />
    <glyph glyph-name="uni0450" unicode="&#x450;" horiz-adv-x="970" 
d="M528 1087l-166 302h205l101 -302h-140zM534 850q-95 0 -176 -80t-106 -195l438 7q41 142 -22 220q-39 48 -134 48zM453 -20q-182 0 -293 110t-111 303q1 256 145 428t363 172q158 0 242 -87t84 -230q0 -102 -43 -225l-611 -9q-2 -16 -2 -49q0 -125 67 -195
q68 -70 182 -71q114 0 257 74l49 -131q-147 -90 -329 -90z" />
    <glyph glyph-name="afii10071" unicode="&#x451;" horiz-adv-x="970" 
d="M769 1137q-42 -1 -66 23q-23 24 -23 69t31 78t73 33t66 -24t24 -68t-31 -78q-32 -33 -74 -33zM504 1247q0 -45 -31 -77t-73 -33t-66 23t-23 69q0 45 31 78t73 33q41 0 65 -24t24 -69zM534 850q-95 0 -176 -80t-106 -195l438 7q41 142 -22 220q-39 48 -134 48zM453 -20
q-182 0 -293 110t-111 303q1 256 145 428t363 172q158 0 242 -87t84 -230q0 -102 -43 -225l-611 -9q-2 -16 -2 -49q0 -125 67 -195q68 -70 182 -71q114 0 257 74l49 -131q-147 -90 -329 -90z" />
    <glyph glyph-name="afii10099" unicode="&#x452;" horiz-adv-x="1046" 
d="M664 956q134 0 202 -99t68 -261q0 -289 -152 -549t-426 -352l-57 141q209 74 330 290t121 460q0 213 -150 213q-113 0 -227 -150q-78 -102 -115 -274l-80 -375h-176l242 1137h-117l33 141h116l37 172h176l-36 -172h280l-33 -141h-280l-43 -213q-23 -98 -51 -185h4
q143 217 334 217z" />
    <glyph glyph-name="afii10100" unicode="&#x453;" horiz-adv-x="825" 
d="M193 252q0 -125 189 -125q103 0 214 61l55 -131q-139 -77 -298 -77t-249 70t-90 178q0 110 58 179t139 103q82 34 164 64q82 28 139 68t57 99q0 106 -155 107q-100 0 -226 -45l-38 135q138 55 286 55q148 1 230 -67t82 -172t-58 -168q-58 -66 -139 -101q-82 -35 -164 -63
t-139 -70q-57 -41 -57 -100zM397 1087l156 302h205l-223 -302h-138z" />
    <glyph glyph-name="afii10101" unicode="&#x454;" horiz-adv-x="915" 
d="M450 -20q-175 0 -288 110t-113 303q0 254 153 427t394 173q135 0 248 -49l-35 -145q-96 51 -213 51t-215 -80t-133 -207h424l-27 -133h-416q-2 -8 -2 -43q1 -125 63 -196t179 -71t244 75l49 -125q-137 -90 -312 -90z" />
    <glyph glyph-name="afii10102" unicode="&#x455;" horiz-adv-x="747" 
d="M220 127q98 0 152 35t54 91t-33 95t-79 71q-46 31 -92 67t-79 94t-32 133q0 121 85 201t231 79q146 0 257 -43l-29 -145q-113 43 -195 43q-170 0 -169 -127q0 -77 111 -158q46 -33 93 -68q47 -37 79 -95t32 -134q0 -133 -101 -210t-263 -77t-289 78l59 136
q110 -66 208 -66z" />
    <glyph glyph-name="afii10103" unicode="&#x456;" horiz-adv-x="464" 
d="M351 1169q-50 0 -79 29q-28 29 -28 79t39 86t89 36t79 -29t29 -78t-40 -86q-39 -37 -89 -37zM4 0l207 969h178l-209 -969h-176z" />
    <glyph glyph-name="afii10104" unicode="&#x457;" horiz-adv-x="464" 
d="M4 0l207 969h176l-207 -969h-176zM621 1248q0 -44 -32 -78t-74 -33q-41 -1 -65 23t-24 69t31 78t73 33t66 -24q25 -24 25 -68zM250 1247q0 -45 -31 -77t-73 -33t-66 23t-23 69q0 45 31 78t73 33q41 0 65 -24t24 -69z" />
    <glyph glyph-name="afii10105" unicode="&#x458;" horiz-adv-x="497" 
d="M383 1169q-51 0 -79 28t-28 79t39 87t89 36t78 -28t28 -79t-38 -87t-89 -36zM-322 -457l54 148q42 -19 108 -19t106 47t62 154l234 1096h178l-252 -1172q-59 -283 -334 -282q-88 -1 -156 28z" />
    <glyph glyph-name="afii10106" unicode="&#x459;" horiz-adv-x="1529" 
d="M995 465q-59 0 -135 -14l-63 -306q74 -25 172 -25t168 56q70 55 69 148q0 141 -211 141zM735 993q117 0 238 -35l-80 -364q92 10 135 10q172 0 265 -73t93 -193q0 -160 -118 -259t-320 -99t-346 69l168 785q-29 6 -59 6q-96 0 -160 -82q-51 -70 -153 -330t-169 -346
q-70 -94 -211 -94q-55 0 -102 14l39 152q20 -6 47 -7q68 1 108 59t142 312t174 342q109 133 309 133z" />
    <glyph glyph-name="afii10107" unicode="&#x45a;" horiz-adv-x="1517" 
d="M1192 324q0 141 -211 141q-61 0 -133 -14l-64 -306q72 -25 170 -25t168 56q70 55 70 148zM1016 604q172 0 264 -73t92 -193q0 -158 -120 -258t-321 -100t-345 69l84 389h-398l-92 -438h-178l207 969h178l-80 -373h395l80 373h179l-82 -377q74 12 137 12z" />
    <glyph glyph-name="afii10108" unicode="&#x45b;" horiz-adv-x="1034" 
d="M678 956q104 0 173 -59t69 -174q0 -55 -27 -191l-113 -532h-178l111 526q20 90 20 150q0 123 -124 123t-238 -152q-74 -94 -113 -276l-78 -371h-178l242 1137h-125l33 141h124l37 172h176l-36 -172h252l-33 -141h-250l-45 -213q-23 -98 -51 -185h4q63 97 153 157
q91 60 195 60z" />
    <glyph glyph-name="afii10109" unicode="&#x45c;" horiz-adv-x="946" 
d="M414 563q61 1 101 59t80 155t77 143q57 74 168 73q53 0 102 -16l-35 -152q-20 11 -57 11t-63 -34q-27 -34 -59 -106q-76 -168 -161 -202v-5q59 -39 95 -151l104 -338h-180l-84 307q-33 115 -84 115h-148l-92 -422h-176l207 969h176l-86 -406h115zM496 1087l155 302h205
l-223 -302h-137z" />
    <glyph glyph-name="uni045D" unicode="&#x45d;" horiz-adv-x="1038" 
d="M551 1087l-166 302h205l100 -302h-139zM297 -20q-100 0 -166 60t-65 183q0 68 24 191l117 555h178l-121 -572q-18 -82 -18 -135q0 -127 110 -127q115 0 205 99t123 245l104 490h177l-123 -576q-31 -169 -31 -237t14 -136l-151 -32q-31 94 -25 188h-4q-61 -86 -155 -141
t-193 -55z" />
    <glyph glyph-name="afii10110" unicode="&#x45e;" horiz-adv-x="935" 
d="M535 1245q80 0 138 52t111 151l125 -62q-76 -142 -165 -208t-212 -66q-122 0 -196 68t-88 200l141 31q18 -166 146 -166zM-68 -336q98 0 186 73q87 73 179 261l-219 971h178l102 -494q12 -59 56 -276h4q47 113 114 252l252 518h187l-510 -1002q-127 -252 -249 -352
t-294 -100q-105 -1 -168 36l64 140q55 -27 118 -27z" />
    <glyph glyph-name="afii10193" unicode="&#x45f;" horiz-adv-x="1038" 
d="M297 -20q-100 0 -166 60t-65 183q0 80 24 191l117 555h178l-123 -572q-16 -74 -16 -135q0 -127 110 -127q115 0 205 99t121 245l104 490h179l-123 -576q-33 -160 -33 -236t16 -137l-153 -32q-27 86 -25 188h-4q-61 -88 -153 -142t-193 -54zM221 -430l109 332h133
l-68 -332h-174z" />
    <glyph glyph-name="afii10146" unicode="&#x462;" horiz-adv-x="1234" 
d="M510 152q186 0 284 81q97 82 97 226q0 113 -90 155q-59 33 -205 33h-137l-107 -495h158zM606 799q195 0 295 -51q172 -86 172 -292q-1 -206 -153 -331t-424 -125h-357l221 1040h-262l33 150h262l41 194h180l-41 -194h332l-59 -150h-305l-52 -241h117z" />
    <glyph glyph-name="afii10194" unicode="&#x463;" horiz-adv-x="1054" 
d="M731 317q0 139 -227 140q-78 0 -146 -15l-59 -299q65 -27 173 -27t184 55q76 54 75 146zM547 596q178 0 271 -72t93 -192q0 -154 -126 -253t-333 -99t-352 69l166 780h-250l33 140h248l57 270h178l-57 -270h324l-58 -140h-297l-53 -247q96 14 156 14z" />
    <glyph glyph-name="afii10147" unicode="&#x472;" horiz-adv-x="1513" 
d="M1229 766v37q0 188 -95 297q-95 108 -297 108q-201 0 -339 -124t-187 -318h918zM680 133q207 0 347 136t181 345h-923q-4 -53 -4 -77q0 -188 96 -296t303 -108zM664 -20q-268 0 -420 146t-152 415q0 345 206 583t550 238q268 0 420 -146t151 -415q1 -345 -205 -583
t-550 -238z" />
    <glyph glyph-name="afii10195" unicode="&#x473;" horiz-adv-x="1054" 
d="M564 848q-112 0 -192 -78t-116 -207h514l2 55q0 114 -48 172t-160 58zM439 125q114 0 197 84t116 221h-516q-4 -25 -5 -76q0 -115 47 -172t161 -57zM428 -20q-190 0 -285 102q-94 102 -94 278q2 287 152 460t374 173q189 0 283 -103t94 -278q0 -284 -150 -458t-374 -174z
" />
    <glyph glyph-name="afii10148" unicode="&#x474;" horiz-adv-x="1259" 
d="M1229 1362q70 0 135 -21l-33 -161q-31 14 -89 14t-114 -49q-57 -49 -122 -168q-143 -258 -443 -985h-176l-223 1358h188l117 -779q18 -117 37 -301h4q188 514 338 797q86 159 173 227t208 68z" />
    <glyph glyph-name="afii10196" unicode="&#x475;" horiz-adv-x="950" 
d="M262 -6l-160 975h172l64 -467q20 -154 33 -271h4q127 371 231 567t275 195q66 0 123 -20l-35 -148q-25 12 -66 13q-88 0 -172 -158t-301 -686h-168z" />
    <glyph glyph-name="afii10050" unicode="&#x490;" horiz-adv-x="960" 
d="M25 0l288 1350h553l68 319l178 49l-108 -518h-543l-256 -1200h-180z" />
    <glyph glyph-name="afii10098" unicode="&#x491;" horiz-adv-x="800" 
d="M2 0l207 969h457l63 286l170 50l-104 -494h-443l-172 -811h-178z" />
    <glyph glyph-name="Wgrave" unicode="&#x1e80;" horiz-adv-x="1712" 
d="M924 1425l-166 301h205l100 -301h-139zM334 -8l-187 1358h197l90 -775q16 -137 31 -309h4q51 137 125 283l280 573l-30 228h180l94 -777q16 -119 33 -307h4q43 129 117 287l368 797h199l-663 -1358h-148l-80 594q-25 158 -35 276h-4q-51 -123 -131 -282l-295 -588h-149z
" />
    <glyph glyph-name="wgrave" unicode="&#x1e81;" horiz-adv-x="1380" 
d="M731 1087l-166 302h205l100 -302h-139zM227 -6l-147 975h168l65 -465q20 -139 31 -264h4q45 109 103 229l241 500h127l58 -455q12 -98 28 -274h4q14 39 101 233l225 496h186l-483 -975h-139l-58 469q-20 164 -28 244h-4q-39 -92 -117 -250l-230 -463h-135z" />
    <glyph glyph-name="Wacute" unicode="&#x1e82;" horiz-adv-x="1712" 
d="M905 1425l156 301h205l-224 -301h-137zM334 -8l-187 1358h197l90 -775q16 -137 31 -309h4q51 137 125 283l280 573l-30 228h180l94 -777q16 -119 33 -307h4q43 129 117 287l368 797h199l-663 -1358h-148l-80 594q-25 158 -35 276h-4q-51 -123 -131 -282l-295 -588h-149z
" />
    <glyph glyph-name="wacute" unicode="&#x1e83;" horiz-adv-x="1380" 
d="M680 1087l156 302h204l-223 -302h-137zM227 -6l-147 975h168l65 -465q20 -139 31 -264h4q45 109 103 229l241 500h127l58 -455q12 -98 28 -274h4q14 39 101 233l225 496h186l-483 -975h-139l-58 469q-20 164 -28 244h-4q-39 -92 -117 -250l-230 -463h-135z" />
    <glyph glyph-name="Wdieresis" unicode="&#x1e84;" horiz-adv-x="1712" 
d="M1191 1442q-42 0 -66 24q-23 24 -23 67q0 44 31 77q31 32 73 32t65 -22t23 -68q0 -44 -30 -77t-73 -33zM822 1442q-42 0 -66 24t-25 67q0 44 32 77q32 32 74 32q41 0 65 -22t24 -68q0 -44 -31 -77t-73 -33zM334 -8l-187 1358h197l90 -775q16 -137 31 -309h4
q51 137 125 283l280 573l-30 228h180l94 -777q16 -119 33 -307h4q43 129 117 287l368 797h199l-663 -1358h-148l-80 594q-25 158 -35 276h-4q-51 -123 -131 -282l-295 -588h-149z" />
    <glyph glyph-name="wdieresis" unicode="&#x1e85;" horiz-adv-x="1380" 
d="M972 1137q-42 -1 -66 23t-24 69t31 78t73 33t67 -24t25 -68t-32 -78q-32 -33 -74 -33zM707 1247q0 -45 -31 -77t-73 -33q-41 -1 -65 23t-24 69t31 78t73 33t66 -24t23 -69zM227 -6l-147 975h168l65 -465q20 -139 31 -264h4q45 109 103 229l241 500h127l58 -455
q12 -98 28 -274h4q14 39 101 233l225 496h186l-483 -975h-139l-58 469q-20 164 -28 244h-4q-39 -92 -117 -250l-230 -463h-135z" />
    <glyph glyph-name="Ygrave" unicode="&#x1ef2;" horiz-adv-x="1052" 
d="M602 1425l-166 301h205l100 -301h-139zM334 0l110 522l-297 828h189l219 -652h4l420 652h203l-557 -834l-111 -516h-180z" />
    <glyph glyph-name="ygrave" unicode="&#x1ef3;" horiz-adv-x="925" 
d="M473 1087l-166 302h205l100 -302h-139zM-74 -336q98 0 186 73q87 73 179 261l-219 971h178l102 -494q12 -59 56 -276h4q47 113 114 252l252 518h187l-510 -1002q-127 -252 -249 -352t-294 -100q-105 -1 -168 36l63 140q55 -27 119 -27z" />
    <glyph glyph-name="endash" unicode="&#x2013;" horiz-adv-x="921" 
d="M0 449v139h922v-139h-922z" />
    <glyph glyph-name="emdash" unicode="&#x2014;" horiz-adv-x="1638" 
d="M0 449v139h1638v-139h-1638z" />
    <glyph glyph-name="quoteleft" unicode="&#x2018;" horiz-adv-x="440" 
d="M221 1085q0 201 146 371l98 -41q-76 -135 -76 -278q0 -78 23 -172l-168 -47q-23 76 -23 167z" />
    <glyph glyph-name="quoteright" unicode="&#x2019;" horiz-adv-x="450" 
d="M262 1237q0 74 -20 172l168 47q23 -86 22 -168q0 -197 -145 -370l-99 40q74 135 74 279z" />
    <glyph glyph-name="quotesinglbase" unicode="&#x201a;" horiz-adv-x="450" 
d="M-53 -258q74 135 73 278q0 74 -20 173l168 47q23 -86 22 -168q0 -197 -145 -371z" />
    <glyph glyph-name="quotedblleft" unicode="&#x201c;" horiz-adv-x="808" 
d="M760 1137q0 -78 22 -172l-168 -47q-23 76 -22 167q0 201 145 371l99 -41q-76 -135 -76 -278zM221 1085q0 201 146 371l98 -41q-76 -135 -76 -278q0 -78 23 -172l-168 -47q-23 76 -23 167z" />
    <glyph glyph-name="quotedblright" unicode="&#x201d;" horiz-adv-x="821" 
d="M262 1237q0 74 -20 172l168 47q23 -86 22 -168q0 -196 -145 -370l-99 40q74 135 74 279zM633 1237q0 74 -21 172l168 47q23 -86 23 -168q-1 -196 -146 -370l-100 40q76 135 76 279z" />
    <glyph glyph-name="quotedblbase" unicode="&#x201e;" horiz-adv-x="821" 
d="M45 -299l-98 41q74 135 73 278q0 74 -20 173l168 47q23 -86 22 -168q0 -197 -145 -371zM391 20q0 74 -20 173l168 47q23 -86 22 -168q0 -197 -145 -371l-101 41q76 135 76 278z" />
    <glyph glyph-name="dagger" unicode="&#x2020;" horiz-adv-x="997" 
d="M903 805l-309 24q-6 -31 -38 -213t-73 -374l-69 -338h-170l59 282q44 219 95 416t57 227q-39 0 -157 -11t-165 -11l37 180l309 -31l51 330h179q-10 -49 -45 -166t-46 -164q33 2 153 16t169 13z" />
    <glyph glyph-name="daggerdbl" unicode="&#x2021;" horiz-adv-x="997" 
d="M776 203l-309 28q-13 -49 -27 -171t-20 -156h-178q10 55 45 173t43 154q-33 -2 -153 -14t-169 -12l37 180l309 -25q6 23 21 129t45 211t35 129q-39 0 -157 -11t-165 -11l37 180l309 -31l49 330h181q-10 -49 -45 -166t-46 -164q31 2 151 16t171 13l-37 -180l-309 24
q-14 -68 -34 -183q-19 -116 -41 -192t-25 -94q36 0 154 12t165 11z" />
    <glyph glyph-name="bullet" unicode="&#x2022;" horiz-adv-x="634" 
d="M308 424q-93 0 -156 66q-64 66 -64 162q0 95 62 161t157 66q93 0 157 -66t64 -161t-63 -162q-64 -66 -157 -66z" />
    <glyph glyph-name="ellipsis" unicode="&#x2026;" horiz-adv-x="1826" 
d="M1389 -16q-47 0 -75 30t-28 77q0 48 35 84t81 36t75 -31t29 -78q0 -46 -36 -82q-35 -36 -81 -36zM790 -16q-46 0 -74 30t-28 77q0 48 34 84t81 36t76 -31t29 -78q0 -46 -36 -82q-35 -36 -82 -36zM194 -16q-46 0 -74 30t-28 77q0 48 34 84t81 36t76 -31t29 -78
q0 -46 -36 -82q-35 -36 -82 -36z" />
    <glyph glyph-name="perthousand" unicode="&#x2030;" horiz-adv-x="2473" 
d="M1950 98q90 0 145 98t55 218q0 162 -122 161q-90 0 -146 -98t-57 -219q0 -160 125 -160zM1935 -20q-123 0 -191 72t-67 202q-1 188 99 314t264 126q124 0 192 -74t68 -200q0 -188 -99 -315q-100 -125 -266 -125zM1229 98q90 0 146 98t57 218q0 162 -125 161
q-89 0 -145 -98t-56 -219q0 -160 123 -160zM1217 -20q-123 0 -192 72t-69 202q0 188 100 314t265 126q123 0 191 -74t67 -200q0 -188 -99 -314t-263 -126zM467 766q92 0 147 97t56 218q0 162 -123 162q-91 0 -147 -98t-56 -219q0 -160 123 -160zM455 647q-123 0 -192 73
t-68 202q0 188 99 314t265 126q123 0 191 -74t67 -203q0 -188 -99 -313t-263 -125zM309 0l1004 1350h160l-1004 -1350h-160z" />
    <glyph glyph-name="guilsinglleft" unicode="&#x2039;" horiz-adv-x="653" 
d="M549 821l-316 -338l207 -338l-127 -77l-274 430l403 422z" />
    <glyph glyph-name="guilsinglright" unicode="&#x203a;" horiz-adv-x="653" 
d="M20 166l316 338l-207 338l127 78l274 -431l-403 -421z" />
    <glyph glyph-name="fraction" unicode="&#x2044;" horiz-adv-x="278" 
d="M-438 0l1005 1350h158l-1004 -1350h-159z" />
    <glyph glyph-name="zerosuperior" unicode="&#x2070;" horiz-adv-x="765" 
d="M440 936q84 0 140 121q55 121 55 264q0 182 -107 182q-82 0 -137 -121t-55 -264q0 -182 104 -182zM434 813q-124 0 -188 83t-64 222q0 220 98 364t255 144q123 0 187 -83t64 -222q0 -219 -97 -363t-255 -145z" />
    <glyph glyph-name="foursuperior" unicode="&#x2074;" horiz-adv-x="765" 
d="M535 1118l16 78q21 105 55 225l-284 -305zM473 827l35 177h-332l-22 102l487 518h147l-108 -506h111l-23 -114h-113l-37 -177h-145z" />
    <glyph glyph-name="fivesuperior" unicode="&#x2075;" horiz-adv-x="700" 
d="M335 936q89 0 142 36t53 106t-63 98q-43 16 -111 16h-131l86 418h461l-35 -127h-305l-39 -180h21q86 0 135 -19q135 -55 135 -190t-95 -208t-237 -73t-241 43l47 117q88 -37 177 -37z" />
    <glyph glyph-name="sixsuperior" unicode="&#x2076;" horiz-adv-x="731" 
d="M326 1067q0 -59 30 -96t88 -37q59 0 99 41q39 41 39 99t-30 92t-89 34t-98 -37t-39 -96zM444 813q-124 0 -198 75t-74 218q0 219 126 370t316 150q94 0 164 -33l-43 -116q-59 27 -123 26q-96 1 -168 -67t-102 -166h4q66 53 161 53t160 -61t65 -175t-83 -194
q-82 -80 -205 -80z" />
    <glyph glyph-name="sevensuperior" unicode="&#x2077;" horiz-adv-x="626" 
d="M731 1610v-78q-289 -324 -387 -705h-164q94 360 361 656h-340l-19 127h549z" />
    <glyph glyph-name="eightsuperior" unicode="&#x2078;" horiz-adv-x="765" 
d="M641 1415q0 43 -31 67t-82 24t-87 -28t-35 -77q0 -84 102 -117q133 39 133 131zM328 1039q0 -51 36 -77t94 -26t105 30t47 91q0 80 -141 121q-63 -18 -102 -54t-39 -85zM762 1060q0 -120 -90 -184t-219 -63q-131 0 -205 54t-74 153q0 156 172 217v2q-94 63 -94 165
t80 162t202 60t192 -54t69 -147q0 -137 -154 -194v-2q121 -49 121 -169z" />
    <glyph glyph-name="ninesuperior" unicode="&#x2079;" horiz-adv-x="735" 
d="M449 1229q70 0 141 53q4 18 4 78t-37 102q-37 43 -92 43t-93 -42t-38 -111q0 -123 115 -123zM311 936q207 0 267 217l-5 2q-67 -47 -163 -47t-161 60t-65 180t81 199t207 79t202 -81t76 -224q0 -233 -117 -371t-318 -137q-100 0 -172 31l43 119q49 -27 125 -27z" />
    <glyph glyph-name="plussuperior" unicode="&#x207a;" horiz-adv-x="835" 
d="M451 889v270h-252v123h252v262h129v-262h251v-123h-251v-270h-129z" />
    <glyph glyph-name="minussuperior" unicode="&#x207b;" horiz-adv-x="835" 
d="M199 1159v123h632v-123h-632z" />
    <glyph glyph-name="equalsuperior" unicode="&#x207c;" horiz-adv-x="835" 
d="M199 1292v121h632v-121h-632zM199 1028v121h632v-121h-632z" />
    <glyph glyph-name="parenleftsuperior" unicode="&#x207d;" horiz-adv-x="483" 
d="M186 1096q0 356 316 616l80 -90q-250 -233 -250 -520q0 -186 76 -303l-103 -70q-55 66 -87 166t-32 201z" />
    <glyph glyph-name="parenrightsuperior" unicode="&#x207e;" horiz-adv-x="483" 
d="M326 1337q0 190 -76 303l102 72q119 -145 119 -366q0 -357 -315 -617l-80 88q250 236 250 520z" />
    <glyph glyph-name="n.superior" unicode="&#x207f;" horiz-adv-x="716" 
d="M547 1251q74 0 120 -43q46 -42 46 -112t-17 -152l-84 -391h-143l86 410q10 57 10 88q0 70 -65 69q-63 0 -136 -68t-102 -206l-61 -293h-146l146 680h121l-17 -119h4q100 137 238 137z" />
    <glyph glyph-name="zeroinferior" unicode="&#x2080;" horiz-adv-x="765" 
d="M217 -260q84 0 139 121t56 264q0 182 -107 182q-82 0 -137 -121t-55 -264q0 -182 104 -182zM211 -383q-123 0 -187 83t-65 222q0 220 97 364t255 144q123 0 188 -83t64 -222q0 -219 -97 -363t-255 -145z" />
    <glyph glyph-name="oneinferior" unicode="&#x2081;" horiz-adv-x="628" 
d="M94 -369l133 631q-96 -49 -239 -80v129q143 31 295 117h129l-170 -797h-148z" />
    <glyph glyph-name="twoinferior" unicode="&#x2082;" horiz-adv-x="686" 
d="M367 219q1 84 -101 84t-217 -59l-39 116q140 70 262 70t185 -54t63 -140t-57 -154t-129 -107t-143 -96t-89 -119h361l-21 -129h-544q14 96 55 174t92 123q103 91 212 154q110 63 110 137z" />
    <glyph glyph-name="threeinferior" unicode="&#x2083;" horiz-adv-x="702" 
d="M126 -260q91 0 140 34t49 95q0 104 -174 104h-102l18 115h82q100 2 154 38q53 36 53 93q0 86 -117 86q-86 0 -182 -41l-37 113q121 53 243 53t185 -52q64 -52 64 -132t-48 -133t-122 -76v-4q61 -13 100 -55t39 -107q0 -117 -90 -185q-91 -68 -239 -69q-148 0 -242 45
l49 115q86 -37 177 -37z" />
    <glyph glyph-name="fourinferior" unicode="&#x2084;" horiz-adv-x="765" 
d="M311 -78l17 78q12 75 55 225l-285 -305zM250 -369l35 176h-332l-23 103l488 518h147l-108 -506h110l-22 -115h-113l-37 -176h-145z" />
    <glyph glyph-name="fiveinferior" unicode="&#x2085;" horiz-adv-x="700" 
d="M114 -260q89 0 142 36t53 106t-63 98q-43 16 -111 16h-131l86 418h461l-35 -127h-305l-39 -181h21q86 0 135 -18q135 -55 135 -190t-95 -208t-238 -73t-241 43l48 117q88 -37 177 -37z" />
    <glyph glyph-name="sixinferior" unicode="&#x2086;" horiz-adv-x="731" 
d="M354 -122q0 126 -118 126q-58 0 -98 -37t-40 -96t30 -96t89 -37t98 41t39 99zM217 -383q-123 0 -198 75t-74 218q0 219 126 370t316 150q94 0 164 -33l-43 -116q-59 27 -123 26q-96 1 -168 -67t-102 -166h4q67 53 161 53t159 -61t65 -175t-82 -194t-205 -80z" />
    <glyph glyph-name="seveninferior" unicode="&#x2087;" horiz-adv-x="626" 
d="M510 414v-78q-289 -324 -387 -705h-164q94 360 360 656h-339l-19 127h549z" />
    <glyph glyph-name="eightinferior" unicode="&#x2088;" horiz-adv-x="765" 
d="M418 219q0 43 -31 67t-82 24t-87 -28t-36 -77q1 -84 103 -117q133 39 133 131zM104 -157q0 -51 36 -77t94 -26t106 30q47 30 47 91q0 80 -141 121q-62 -18 -102 -54t-40 -85zM539 -136q1 -120 -89 -184t-220 -63q-130 0 -204 54t-75 153q0 156 172 217v2q-94 63 -94 165
t80 162q79 60 201 60t192 -54t69 -147q0 -137 -153 -194v-2q121 -49 121 -169z" />
    <glyph glyph-name="nineinferior" unicode="&#x2089;" horiz-adv-x="735" 
d="M225 33q70 0 142 53q4 18 4 78t-37 102q-37 43 -92 43q-56 0 -94 -42t-37 -111q-1 -123 114 -123zM88 -260q207 0 266 217l-4 2q-66 -47 -163 -47t-161 60t-65 180q0 120 81 199t207 79t202 -81t75 -224q0 -233 -116 -371q-117 -137 -318 -137q-100 0 -172 31l43 119
q49 -27 125 -27z" />
    <glyph glyph-name="parenleftinferior" unicode="&#x208d;" horiz-adv-x="483" 
d="M-31 -100q0 356 316 616l80 -90q-250 -233 -250 -520q0 -186 75 -303l-102 -70q-55 66 -87 166t-32 201z" />
    <glyph glyph-name="parenrightinferior" unicode="&#x208e;" horiz-adv-x="483" 
d="M109 141q0 190 -76 303l102 72q119 -145 119 -366q0 -357 -315 -617l-80 88q250 236 250 520z" />
    <glyph glyph-name="Euro" unicode="&#x20ac;" horiz-adv-x="1083" 
d="M188 561v12q0 111 21 205h-137l18 125h152q74 213 231 336q159 123 343 123t294 -72l-31 -157q-115 71 -245 71t-232 -81q-104 -81 -162 -220h496l-43 -125h-494q-20 -84 -20 -188v-29h479l-43 -125h-426q39 -299 285 -299q129 0 256 78l37 -145q-137 -90 -326 -90
t-305 116t-141 340h-154l16 125h131z" />
    <glyph glyph-name="afii61289" unicode="&#x2113;" horiz-adv-x="958" 
d="M776 1118q0 96 -85 96t-162 -110t-121 -324l-37 -174q173 88 289 234t116 278zM446 -20q-154 0 -229 74q-74 74 -74 212q0 43 9 84q-45 -16 -140 -41l-22 156q96 23 184 55l64 301q57 269 180 405t289 136q117 0 183 -65t66 -171q0 -194 -171 -390t-453 -320
q-10 -57 -10 -107q0 -170 139 -170q113 0 252 97l65 -136q-178 -120 -332 -120z" />
    <glyph glyph-name="afii61352" unicode="&#x2116;" horiz-adv-x="2050" 
d="M1608 664q100 0 162 94t63 213q0 156 -129 155q-98 0 -162 -94t-63 -213q0 -155 129 -155zM1602 539q-125 -1 -196 73t-71 191q0 193 109 321t264 127q125 -1 196 -75t70 -193q0 -190 -108 -317t-264 -127zM1223 281l24 118h631l-27 -118h-628zM20 0l287 1350h168
l336 -836q49 -123 68 -192h4q14 111 32 204l175 824h180l-287 -1350h-149l-355 870q-39 98 -63 181h-4q-12 -117 -29 -195l-182 -856h-181z" />
    <glyph glyph-name="uni2117" unicode="&#x2117;" horiz-adv-x="1591" 
d="M702 653h99q166 0 166 154t-160 154h-105v-308zM702 270h-118v797h217q135 0 211 -70q76 -69 76 -189t-76 -191t-217 -70h-93v-277zM790 80q242 0 402 167t160 422t-159 422t-403 167t-403 -168q-160 -166 -160 -420t160 -422t403 -168zM790 1360q294 0 486 -199
t192 -491t-192 -492q-192 -198 -486 -198t-487 198t-192 492t193 492t486 198z" />
    <glyph glyph-name="trademark" unicode="&#x2122;" horiz-adv-x="1722" 
d="M840 541v809h127l194 -287q55 -80 86 -143h6q29 55 84 141l193 289h133v-809h-143v426q0 119 6 163h-4q-35 -68 -74 -122l-162 -240h-72l-161 240q-41 66 -72 122h-4q6 -68 6 -163v-426h-143zM377 541v688h-225v121h616l-31 -121h-215v-688h-145z" />
    <glyph glyph-name="estimated" unicode="&#x212e;" horiz-adv-x="1544" 
d="M352 664h848v311q-139 199 -423 199t-425 -199v-311zM770 -20q-299 0 -509 173t-210 465t211 462q211 171 516 171q176 0 316 -57q140 -56 227 -152q178 -198 170 -458h-1139v-328q66 -94 180 -146t248 -53q274 0 428 187h185q-211 -264 -623 -264z" />
    <glyph glyph-name="onethird" unicode="&#x2153;" horiz-adv-x="1814" 
d="M1279 106q91 0 140 34t49 96q0 104 -174 104h-102l18 115h82q100 2 154 38q53 36 53 93q0 86 -117 86q-86 0 -182 -41l-37 112q121 53 243 53t185 -52t63 -132t-47 -133q-48 -53 -122 -76v-4q61 -12 100 -54t39 -107q0 -117 -90 -186q-90 -68 -238 -68t-243 45l49 114
q86 -37 177 -37zM270 553l133 631q-96 -49 -239 -80v129q143 31 295 117h129l-170 -797h-148zM248 0l1005 1350h158l-1003 -1350h-160z" />
    <glyph glyph-name="twothirds" unicode="&#x2154;" horiz-adv-x="1814" 
d="M1365 106q91 0 140 34t49 96q0 104 -174 104h-102l18 115h82q100 2 154 38q53 36 53 93q0 86 -117 86q-86 0 -182 -41l-37 112q121 53 243 53t185 -52t63 -132t-47 -133q-48 -53 -122 -76v-4q61 -12 100 -54t39 -107q0 -117 -90 -186q-90 -68 -238 -68t-243 45l49 114
q86 -37 177 -37zM547 1141q1 84 -101 84t-217 -60l-39 117q140 70 262 70t185 -54t63 -141q0 -85 -57 -153t-129 -107t-142 -96t-89 -119h360l-20 -129h-545q14 96 55 174t92 123q103 91 212 154q110 63 110 137zM354 0l1006 1350h158l-1004 -1350h-160z" />
    <glyph glyph-name="oneeighth" unicode="&#x215b;" horiz-adv-x="1814" 
d="M1501 586q0 42 -31 66q-32 24 -82 24t-86 -28t-36 -77q0 -83 102 -116q133 39 133 131zM1329 348q-141 -40 -141 -138q0 -50 36 -77t94 -27t105 30t47 91q0 80 -141 121zM1314 -16q-130 0 -205 54t-75 152q0 156 172 218v2q-94 63 -94 164q0 102 80 162t202 60t192 -54
t69 -146q0 -137 -154 -195v-2q121 -49 121 -169t-89 -183t-219 -63zM264 553l133 631q-96 -49 -239 -80v129q143 31 295 117h129l-170 -797h-148zM242 0l1005 1350h158l-1004 -1350h-159z" />
    <glyph glyph-name="threeeighths" unicode="&#x215c;" horiz-adv-x="1814" 
d="M512 791q0 104 -174 104h-102l18 115h82q100 2 153 38t54 93q0 86 -117 86q-86 0 -182 -41l-37 112q121 54 243 54t185 -52t63 -133q0 -80 -48 -133t-122 -76v-4q60 -12 100 -54t40 -107q0 -117 -90 -186t-239 -69t-243 46l49 114q85 -36 177 -36t141 34t49 95zM1530 586
q0 42 -31 66t-82 24t-87 -28t-36 -77q1 -83 103 -116q133 39 133 131zM1346 106q58 0 106 30q47 30 47 91q0 80 -141 121q-142 -41 -142 -138q0 -50 36 -77t94 -27zM1651 230q1 -120 -89 -183t-220 -63t-204 54t-75 152q0 156 172 218v2q-94 63 -94 164q0 102 80 162
q79 60 201 60t192 -54t69 -146q0 -137 -153 -195v-2q121 -49 121 -169zM307 0l1006 1350h157l-1003 -1350h-160z" />
    <glyph glyph-name="fiveeighths" unicode="&#x215d;" horiz-adv-x="1814" 
d="M1542 586q0 42 -31 66t-81 24t-88 -28q-36 -28 -35 -77q0 -83 102 -116q133 39 133 131zM1370 348q-141 -40 -141 -138q0 -50 36 -77t94 -27t105 30t47 91q0 80 -141 121zM1355 -16q-130 0 -205 54t-75 152q0 156 172 218v2q-94 63 -94 164q0 102 80 162t202 60
q121 0 191 -54t70 -146q0 -137 -154 -195v-2q121 -49 121 -169t-89 -183t-219 -63zM506 803q0 112 -174 115h-131l86 417h461l-35 -127h-305l-39 -180h20q86 0 135 -18q135 -54 135 -190t-95 -209q-96 -73 -238 -73t-240 44l47 116q88 -36 177 -36t143 35q53 36 53 106z
M309 0l1006 1350h158l-1004 -1350h-160z" />
    <glyph glyph-name="seveneighths" unicode="&#x215e;" horiz-adv-x="1814" 
d="M801 1335v-78q-289 -324 -387 -704h-164q94 360 360 655h-340l-18 127h549zM1501 586q0 42 -31 66q-32 24 -82 24t-86 -28t-36 -77q0 -83 102 -116q133 39 133 131zM1329 348q-141 -40 -141 -138q0 -50 36 -77t94 -27t105 30t47 91q0 80 -141 121zM1314 -16
q-130 0 -205 54t-75 152q0 156 172 218v2q-94 63 -94 164q0 102 80 162t202 60t192 -54t69 -146q0 -137 -154 -195v-2q121 -49 121 -169t-89 -183t-219 -63zM246 0l1005 1350h158l-1003 -1350h-160z" />
    <glyph glyph-name="partialdiff" unicode="&#x2202;" horiz-adv-x="1060" 
d="M418 129q141 0 242 140t135 366q-113 86 -248 86t-231 -97t-97 -245q-3 -113 49 -181t150 -69zM397 -20q-168 0 -266 104t-94 274q2 232 147 372t357 140q141 0 262 -75h4v71q-6 182 -88 266t-207 82q-125 0 -264 -86l-66 127q178 106 346 107q207 0 334 -141t127 -396
q0 -371 -166 -608t-426 -237z" />
    <glyph glyph-name="Delta" unicode="&#x2206;" horiz-adv-x="1210" 
d="M190 154h639l-127 718q-18 100 -32 213h-4q-37 -86 -101 -204zM-82 0l719 1356h143l258 -1356h-1120z" />
    <glyph glyph-name="product" unicode="&#x220f;" horiz-adv-x="1333" 
d="M16 -369l332 1569h-180l33 150h1247l-59 -150h-185l-332 -1569h-180l332 1569h-496l-331 -1569h-181z" />
    <glyph glyph-name="summation" unicode="&#x2211;" horiz-adv-x="1196" 
d="M-96 -369l688 891l-332 828h1065l-70 -150h-731l277 -702l-557 -717h741l-33 -150h-1048z" />
    <glyph glyph-name="minus" unicode="&#x2212;" horiz-adv-x="1087" 
d="M35 440v152h969v-152h-969z" />
    <glyph glyph-name="radical" unicode="&#x221a;" horiz-adv-x="1368" 
d="M436 -250l-112 889l-201 -59l-41 155l395 117l70 -606q10 -121 20 -291h4q47 125 121 270l701 1469h194l-948 -1944h-203z" />
    <glyph glyph-name="infinity" unicode="&#x221e;" horiz-adv-x="1572" 
d="M1156 365q77 0 125 50t48 133t-49 134t-125 51t-137 -47t-139 -137q76 -90 138 -137t139 -47zM418 365q78 0 139 47t135 137q-76 90 -136 137t-137 47t-126 -51t-49 -134t48 -133t126 -50zM403 203q-157 0 -249 100q-92 101 -92 245t92 246q94 102 249 101q113 0 201 -60
t180 -169q90 109 178 169t207 60q156 0 249 -101q93 -102 93 -246t-93 -244t-249 -101q-119 0 -207 60t-178 167q-94 -109 -181 -168t-200 -59z" />
    <glyph glyph-name="integral" unicode="&#x222b;" horiz-adv-x="641" 
d="M-137 -330q74 0 119 48t67 153l250 1223q71 356 367 356q109 0 188 -47l-59 -139q-61 30 -131 30q-140 -1 -185 -200l-250 -1223q-27 -131 -69 -197q-100 -160 -295 -159q-109 0 -189 45l58 141q55 -31 129 -31z" />
    <glyph glyph-name="approxequal" unicode="&#x2248;" horiz-adv-x="1087" 
d="M319 846q75 0 223 -62t202 -61q54 0 93 19q38 19 93 69l92 -111q-133 -135 -279 -135q-74 -1 -222 61q-149 62 -203 62t-92 -20t-91 -70l-94 111q137 137 278 137zM319 469q75 0 223 -60q148 -61 220 -61t168 88l92 -110q-135 -137 -279 -138q-74 0 -222 62t-219 61
q-71 0 -167 -88l-94 111q135 135 278 135z" />
    <glyph glyph-name="notequal" unicode="&#x2260;" horiz-adv-x="1087" 
d="M53 258v152h348l105 215h-453v151h527l94 193h178l-94 -193h264v-151h-338l-104 -215h442v-152h-516l-100 -205h-179l101 205h-275z" />
    <glyph glyph-name="lessequal" unicode="&#x2264;" horiz-adv-x="1087" 
d="M88 561v160l862 311v-155l-680 -234v-4l680 -236v-155zM43 0v152h969v-152h-969z" />
    <glyph glyph-name="greaterequal" unicode="&#x2265;" horiz-adv-x="1087" 
d="M94 248v155l680 236v4l-680 234v155l862 -311v-160zM33 0v152h968v-152h-968z" />
    <glyph glyph-name="lozenge" unicode="&#x25ca;" horiz-adv-x="956" 
d="M254 582l119 -437h4l313 457l-119 436h-4zM270 0l-170 592l406 592h166l170 -592l-406 -592h-166z" />
    <glyph glyph-name="Imacron" horiz-adv-x="507" 
d="M147 1460l29 142h533l-31 -142h-531zM20 0l287 1350h180l-286 -1350h-181z" />
    <glyph glyph-name="ibreve" horiz-adv-x="456" 
d="M2 0l207 969h176l-207 -969h-176zM324 1112q-119 0 -181 70q-61 70 -51 190h127q-4 -139 118 -139t165 139h133q-27 -124 -109 -192t-202 -68z" />
    <glyph glyph-name="zero.numr" horiz-adv-x="765" 
d="M389 662q84 0 139 120t56 265q0 182 -107 182q-82 0 -137 -121t-55 -264q0 -182 104 -182zM383 539q-123 0 -187 83t-65 222q0 219 97 363t255 145q123 0 188 -83t64 -222q0 -219 -97 -363t-255 -145z" />
    <glyph glyph-name="Adieresis.small" horiz-adv-x="1050" 
d="M791 1194q-41 0 -65 24t-24 68t31 78q31 33 73 33t66 -24q24 -23 25 -67q0 -44 -32 -78t-74 -34zM423 1194q-42 0 -66 24q-23 24 -23 68t31 78q31 33 73 33t65 -24q23 -25 23 -69t-30 -77t-73 -33zM311 391h332l-47 244q-23 129 -35 213h-4q-18 -43 -104 -201zM-90 0
l616 1094h136l235 -1094h-180l-47 250h-439l-135 -250h-186z" />
    <glyph glyph-name="Atilde.small" horiz-adv-x="1050" 
d="M311 391h332l-47 244q-23 129 -35 213h-4q-18 -43 -104 -201zM-90 0l616 1094h136l235 -1094h-180l-47 250h-439l-135 -250h-186zM484 1419q66 0 144 -48t109 -48q57 0 70 84h127q-8 -109 -58 -163t-116 -54t-146 48t-110 48q-53 0 -68 -84h-129q7 109 59 163t118 54z
" />
    <glyph glyph-name="Acircumflex.small" horiz-adv-x="1050" 
d="M319 1159l244 301h152l168 -301h-146l-106 193l-158 -193h-154zM311 391h332l-47 244q-23 129 -35 213h-4q-18 -43 -104 -201zM-90 0l616 1094h136l235 -1094h-180l-47 250h-439l-135 -250h-186z" />
    <glyph glyph-name="Aacute.small" horiz-adv-x="1050" 
d="M311 391h332l-47 244q-23 129 -35 213h-4q-18 -43 -104 -201zM-90 0l616 1094h136l235 -1094h-180l-47 250h-439l-135 -250h-186zM528 1159l156 301h205l-223 -301h-138z" />
    <glyph glyph-name="Agrave.small" horiz-adv-x="1050" 
d="M311 391h332l-47 244q-23 129 -35 213h-4q-18 -43 -104 -201zM-90 0l616 1094h136l235 -1094h-180l-47 250h-439l-135 -250h-186zM530 1159l-165 301h204l101 -301h-140z" />
    <glyph glyph-name="Z.small" horiz-adv-x="952" 
d="M-41 0l682 938h-481l-23 147h807l-682 -938h541l-31 -147h-813z" />
    <glyph glyph-name="Y.small" horiz-adv-x="929" 
d="M256 0l92 432l-225 653h172l160 -503h4l348 503h188l-471 -661l-92 -424h-176z" />
    <glyph glyph-name="X.small" horiz-adv-x="1075" 
d="M-82 0l508 565l-285 520h185l221 -409l362 409h203l-487 -544l299 -541h-185l-235 434l-383 -434h-203z" />
    <glyph glyph-name="W.small" horiz-adv-x="1523" 
d="M307 -4l-192 1089h174l94 -567q25 -150 33 -264h4q66 143 121 246l194 374l-37 211h162l105 -567q25 -147 36 -266h5q57 129 124 266l277 567h182l-557 -1089h-131l-86 465q-23 123 -31 188h-4q-18 -39 -94 -186l-246 -467h-133z" />
    <glyph glyph-name="V.small" horiz-adv-x="1021" 
d="M336 -4l-221 1089h174l106 -591q16 -86 41 -256h4q51 115 129 247l342 600h183l-629 -1089h-129z" />
    <glyph glyph-name="U.small" horiz-adv-x="1193" 
d="M489 -23q-169 0 -283 80t-114 242q0 74 23 180l129 606h178l-139 -651q-14 -74 -15 -110q0 -96 62 -148t168 -51q174 0 254 123q45 63 71 190l138 647h178l-142 -661q-41 -182 -100 -264q-127 -183 -408 -183z" />
    <glyph glyph-name="T.small" horiz-adv-x="901" 
d="M233 0l199 938h-344l35 147h864l-59 -147h-318l-198 -938h-179z" />
    <glyph glyph-name="S.small" horiz-adv-x="890" 
d="M310 125q126 0 180 49q52 50 52 114t-41 109t-101 79t-118 72t-100 102t-43 153q1 137 101 220t258 83t293 -59l-35 -142q-116 57 -224 57q-210 1 -210 -151q0 -97 143 -179q59 -34 117 -73t101 -103q42 -64 42 -149q0 -145 -103 -236q-104 -91 -290 -91t-338 81l59 138
q131 -74 257 -74z" />
    <glyph glyph-name="R.small" horiz-adv-x="991" 
d="M432 561q121 1 197 61t76 147q0 175 -199 175h-100l-80 -383h106zM512 1085q168 1 269 -73t101 -203t-80 -221q-81 -92 -220 -125v-4q49 -51 120 -199l123 -260h-186l-109 233q-61 135 -108 187h-127l-90 -420h-176l231 1085h252z" />
    <glyph glyph-name="Q.small" horiz-adv-x="1249" 
d="M543 127q174 0 297 154t123 370q0 137 -74 222t-209 85q-174 0 -297 -154t-123 -370q0 -137 74 -222t209 -85zM780 -274q-114 0 -214 60t-206 173q-20 19 -85 75t-99 94t-65 119q-33 81 -33 179q0 288 177 484t439 196q199 0 325 -122t126 -325q0 -271 -161 -463
t-402 -208h-43v-2q18 -10 56 -37q37 -27 61 -41q65 -39 144 -39q78 0 144 18l33 -135q-83 -26 -197 -26z" />
    <glyph glyph-name="P.small" horiz-adv-x="937" 
d="M410 520q134 0 208 66t74 188q0 74 -50 122t-148 48h-88l-91 -424h95zM496 1085q182 0 277 -87t95 -226q0 -178 -126 -287t-359 -108h-98l-80 -377h-176l231 1085h236z" />
    <glyph glyph-name="O.small" horiz-adv-x="1249" 
d="M543 127q174 0 297 154t123 370q0 137 -74 222t-209 85q-174 0 -297 -154t-123 -370q0 -137 74 -222t209 -85zM528 -20q-198 0 -324 122t-126 324q0 288 177 484t439 196q199 0 325 -122t126 -325q1 -287 -177 -483t-440 -196z" />
    <glyph glyph-name="N.small" horiz-adv-x="1259" 
d="M29 0l231 1085h158l313 -591q74 -139 111 -224h4q14 96 49 252l119 563h178l-231 -1085h-148l-317 600q-76 131 -113 231h-6q-10 -74 -49 -251l-123 -580h-176z" />
    <glyph glyph-name="M.small" horiz-adv-x="1427" 
d="M29 0l231 1085h162l149 -391q74 -201 91 -254h4q74 102 182 236l334 409h178l-232 -1085h-178l107 500q33 158 69 303h-4q-72 -98 -155 -203l-289 -362h-90l-125 325q-66 174 -86 240h-4q-8 -49 -49 -250l-119 -553h-176z" />
    <glyph glyph-name="L.small" horiz-adv-x="784" 
d="M29 0l231 1085h176l-198 -938h413l-35 -147h-587z" />
    <glyph glyph-name="K.small" horiz-adv-x="991" 
d="M29 0l231 1085h176l-106 -503h4l479 503h201l-543 -569l381 -516h-199l-342 471h-6l-100 -471h-176z" />
    <glyph glyph-name="J.small" horiz-adv-x="544" 
d="M-82 -131q125 0 162 180l221 1036h176l-227 -1071q-61 -295 -328 -295q-94 0 -164 31l49 137q45 -18 111 -18z" />
    <glyph glyph-name="I.small" horiz-adv-x="503" 
d="M29 0l231 1085h176l-231 -1085h-176z" />
    <glyph glyph-name="H.small" horiz-adv-x="1218" 
d="M29 0l231 1085h176l-98 -460h536l101 460h176l-231 -1085h-179l103 477h-537l-102 -477h-176z" />
    <glyph glyph-name="G.small" horiz-adv-x="1150" 
d="M563 -20q-227 0 -356 128t-129 343q0 274 178 464t444 191q176 0 330 -68l-39 -143q-121 63 -272 63q-187 0 -323 -138t-136 -363q0 -156 82 -244t233 -88q88 0 168 33l76 358h178l-100 -467q-164 -69 -334 -69z" />
    <glyph glyph-name="F.small" horiz-adv-x="839" 
d="M29 0l231 1085h588l-57 -147h-385l-72 -336h381l-31 -141h-381l-98 -461h-176z" />
    <glyph glyph-name="E.small" horiz-adv-x="903" 
d="M29 0l231 1085h588l-55 -141h-387l-68 -323h381l-33 -144h-379l-69 -336h432l-31 -141h-610z" />
    <glyph glyph-name="D.small" horiz-adv-x="1142" 
d="M373 147q217 1 351 135t134 349q0 143 -94 225t-262 82h-99l-165 -791h135zM510 1085q240 -1 384 -121t144 -335q0 -273 -184 -451t-506 -178h-319l231 1085h250z" />
    <glyph glyph-name="C.small" horiz-adv-x="1030" 
d="M528 -20q-194 0 -322 124t-128 336q0 278 175 472t443 194q156 0 283 -62l-39 -141q-115 55 -235 55q-181 0 -313 -139t-132 -368q0 -156 80 -240t222 -84t276 72l36 -140q-152 -79 -346 -79z" />
    <glyph glyph-name="B.small" horiz-adv-x="989" 
d="M471 614q93 0 157 56t64 147q0 133 -164 133h-120l-72 -336h135zM387 135q125 -1 201 57t76 139q0 156 -183 154h-172l-73 -350h151zM553 1085q143 -1 230 -65t87 -186q0 -90 -52 -161t-142 -110v-4q74 -17 121 -73t47 -136q0 -146 -124 -248t-347 -102h-344l231 1085
h293z" />
    <glyph glyph-name="A.small" horiz-adv-x="1050" 
d="M311 391h332l-47 244q-23 129 -35 213h-4q-18 -43 -104 -201zM-90 0l616 1094h136l235 -1094h-180l-47 250h-439l-135 -250h-186z" />
    <glyph glyph-name="four.OT" horiz-adv-x="1073" 
d="M182 147q101 0 197 3h188l68 321q37 154 61 240h-4zM449 -399l83 399h-532l-25 123l805 872h142l-179 -845h181l-31 -150h-182l-76 -356z" />
    <glyph glyph-name="three.OT" horiz-adv-x="1073" 
d="M702 686q0 178 -222 178q-112 0 -285 -84l-45 131q188 101 362 101t273 -82t99 -219t-78 -231q-79 -94 -196 -136v-4q100 -25 161 -94q60 -70 60 -183q-1 -205 -161 -333t-430 -129q-154 0 -275 47l51 141q102 -41 226 -41q190 0 300 89t109 212q0 98 -70 148
q-71 49 -229 49h-174l19 139q241 4 373 80t132 221z" />
    <glyph glyph-name="two.OT" horiz-adv-x="1073" 
d="M686 738q0 52 -46 89t-130 37q-137 0 -289 -71l-37 135q168 84 338 84t258 -74t88 -188q0 -154 -174 -264q-76 -48 -154 -94t-150 -110q-71 -64 -99 -139h510l-31 -143h-723q18 119 74 215q55 97 126 153t149 107t142 86t106 80t42 97z" />
    <glyph glyph-name="one.OT" horiz-adv-x="1073" 
d="M416 0l166 780q-61 -34 -171 -74t-192 -55v148q92 23 226 82t214 114h146l-213 -995h-176z" />
    <glyph glyph-name="zero.OT" horiz-adv-x="1073" 
d="M446 127q135 0 229 139q93 139 93 332q0 123 -53 194t-156 70q-135 0 -228 -138t-93 -331q0 -123 53 -195t155 -71zM430 -20q-174 0 -274 110t-101 291q0 279 152 455t368 176q175 0 275 -110t100 -292q0 -278 -152 -454t-368 -176z" />
    <glyph glyph-name="yen.OP" horiz-adv-x="1073" 
d="M315 0l37 176h-256l25 123h256l26 125h-260l25 125h197l-175 495h172l150 -454h4l311 454h189l-352 -495h196l-24 -125h-261l-26 -125h262l-25 -123h-264l-37 -176h-170z" />
    <glyph glyph-name="sterling.OP" horiz-adv-x="1073" 
d="M704 1063q140 0 222 -43l-56 -137q-61 33 -146 33t-141 -56q-56 -55 -73 -153l-16 -109h321l-43 -131h-299q-37 -236 -125 -330l2 -4q45 4 137 4h316l-19 -137h-692l14 115q145 53 189 352h-115l21 131h112l19 123q27 166 129 254q103 88 243 88z" />
    <glyph glyph-name="dollar.OP" horiz-adv-x="1073" 
d="M389 170q240 0 242 147q0 91 -139 154q-56 27 -114 59t-99 86q-41 55 -41 150q0 96 80 172t231 90l31 146h137l-29 -148q127 -18 203 -53l-29 -144q-120 57 -232 57q-216 1 -216 -118q0 -79 139 -150q57 -30 115 -62t100 -90q41 -58 41 -136q0 -127 -87 -205t-245 -94
l-31 -162h-139l35 160q-135 10 -246 67l58 133q115 -59 235 -59z" />
    <glyph glyph-name="Euro.OP" horiz-adv-x="1073" 
d="M205 442q0 76 16 158h-117l19 117h133q61 158 187 252q127 94 275 94t265 -62l-35 -143q-217 118 -382 7q-79 -52 -126 -148h389l-38 -117h-396q-16 -78 -16 -158h391l-41 -116h-340q35 -201 234 -201q115 0 227 70l37 -138q-131 -77 -287 -77t-258 90t-129 256h-135
l16 116h111z" />
    <glyph glyph-name="nine.OP" horiz-adv-x="1087" 
d="M252 545q0 -256 239 -256q129 0 259 90q18 61 18 176t-59 211t-183 96t-198 -88q-76 -88 -76 -229zM422 141q-154 -1 -252 105t-98 280q0 218 129 352t329 134t311 -135q110 -135 109 -340q0 -335 -210 -595q-105 -132 -285 -226t-416 -124l-19 148q238 29 423 156
t270 323l-4 2q-133 -80 -287 -80z" />
    <glyph glyph-name="eight.OP" horiz-adv-x="1130" 
d="M864 1026q0 92 -64 141q-65 49 -168 49t-178 -58t-75 -150q1 -92 57 -155q56 -64 154 -95q274 82 274 268zM510 125q116 -1 201 65q86 66 86 170t-75 162q-75 59 -214 101q-121 -39 -194 -113q-72 -74 -72 -176t75 -156q77 -53 193 -53zM490 -20q-202 0 -322 93t-119 243
q0 150 88 242q88 93 230 140v4q-179 104 -179 276t127 278t321 106t305 -89q112 -89 112 -223t-86 -223q-86 -90 -211 -137v-4q231 -90 231 -307q0 -184 -147 -292q-148 -107 -350 -107z" />
    <glyph glyph-name="seven.OP" horiz-adv-x="966" 
d="M942 995v-67q-221 -256 -407 -608t-267 -689l-205 -41q93 358 263 688t368 572h-604l-22 145h874z" />
    <glyph glyph-name="six.OP" horiz-adv-x="1087" 
d="M256 370q0 -96 60 -170t174 -73q114 0 197 90t83 236q0 104 -58 172q-58 67 -148 67t-165 -45q-74 -45 -110 -121q-33 -60 -33 -156zM473 -20q-178 0 -290 124t-111 349q0 326 204 588q102 133 274 227t392 125l21 -150q-243 -31 -433 -177t-254 -366h5q53 58 138 100
t181 42q154 0 252 -98t98 -288q0 -188 -131 -332t-346 -144z" />
    <glyph glyph-name="five.OP" horiz-adv-x="966" 
d="M188 -252q180 0 297 89t117 233t-90 189q-90 46 -254 46h-145l139 690h692l-51 -145h-498l-82 -408h45q195 0 311 -86t115 -266q0 -209 -156 -349t-446 -140q-160 0 -266 45l53 141q92 -39 219 -39z" />
    <glyph glyph-name="four.OP" horiz-adv-x="1073" 
d="M172 147q98 0 197 3h188l68 321q37 154 61 240h-4zM438 -399l86 399h-534l-25 123l805 872h141l-178 -845h180l-30 -150h-183l-73 -356z" />
    <glyph glyph-name="three.OP" horiz-adv-x="1011" 
d="M670 686q0 178 -222 178q-112 0 -288 -84l-43 131q184 101 360 101q177 0 275 -82t98 -219t-78 -231t-197 -136v-4q100 -25 162 -94q61 -70 62 -183q0 -205 -162 -333t-430 -129q-158 0 -275 47l50 141q106 -41 227 -41q188 0 298 89t109 212q0 98 -69 148
q-70 49 -230 49h-172l19 139q240 4 373 80t133 221z" />
    <glyph glyph-name="two.OP" horiz-adv-x="1019" 
d="M664 738q0 52 -48 89t-156 37t-263 -71l-35 135q164 84 335 84t260 -74t89 -188q0 -154 -174 -264q-76 -48 -155 -94t-149 -110t-100 -139h510l-30 -143h-723q16 119 72 215q56 97 126 153q130 105 285 189q156 84 156 181z" />
    <glyph glyph-name="one.OP" horiz-adv-x="782" 
d="M252 0l168 780q-145 -82 -314 -121v150q199 53 392 186h145l-213 -995h-178z" />
    <glyph glyph-name="zero.OP" horiz-adv-x="1073" 
d="M446 127q135 0 226 138q90 138 90 333q0 121 -51 193t-152 71q-135 0 -226 -138t-91 -331q0 -121 52 -193t152 -73zM432 -20q-174 0 -272 108t-99 293q1 279 149 455t363 176q175 0 273 -109t98 -293q0 -278 -148 -454t-364 -176z" />
    <glyph glyph-name="yen.LT" horiz-adv-x="1083" 
d="M311 0l51 246h-319l25 125h323l35 166h-330l27 125h268l-205 688h185l168 -633h4l387 633h196l-446 -688h270l-26 -125h-324l-35 -166h330l-27 -125h-329l-54 -246h-174z" />
    <glyph glyph-name="sterling.LT" horiz-adv-x="1083" 
d="M813 1362q121 0 229 -49l-61 -142q-74 37 -158 37q-158 0 -229 -143q-31 -59 -43 -158l-21 -143h365l-49 -150h-336q-59 -377 -203 -473v-4q102 12 221 13h355l-23 -150h-805l19 123q53 20 95 66q74 81 113 214q22 72 28 112q7 40 18 99h-154l23 150h151l25 162
q18 141 69 229q115 207 371 207z" />
    <glyph glyph-name="five.OT" horiz-adv-x="1073" 
d="M225 -252q180 0 297 89t117 233t-90 189q-90 46 -254 46h-145l139 690h694l-53 -145h-498l-82 -408h45q195 0 311 -86t115 -266q-1 -209 -157 -349t-445 -140q-160 0 -264 45l51 141q92 -39 219 -39z" />
    <glyph glyph-name="six.OT" horiz-adv-x="1073" 
d="M483 127q113 0 196 90t83 236q0 104 -58 172q-58 67 -149 67q-90 0 -164 -44q-75 -44 -109 -116t-34 -164t61 -166q61 -75 174 -75zM467 -20q-178 0 -290 124t-111 349q0 326 204 588q102 133 274 227t392 125l20 -150q-242 -31 -432 -176t-256 -367h4q54 58 140 100
t182 42q154 0 252 -100t98 -286q0 -188 -131 -332t-346 -144z" />
    <glyph glyph-name="seven.OT" horiz-adv-x="1073" 
d="M1020 995v-67q-222 -256 -408 -608t-266 -689l-205 -41q94 360 263 690t368 570h-604l-23 145h875z" />
    <glyph glyph-name="eight.OT" horiz-adv-x="1073" 
d="M352 1008q0 -92 56 -155q56 -64 155 -95q274 82 275 268q0 92 -65 141t-168 49t-178 -58t-75 -150zM213 334q0 -102 76 -156q77 -54 193 -53q116 -1 202 65t86 170t-75 162q-75 59 -216 101q-121 -39 -193 -113t-73 -176zM464 -20q-202 0 -322 93t-120 243t88 242
q87 93 230 140v4q-178 104 -178 289q0 160 127 265q127 106 320 106t305 -89t112 -223t-86 -223q-86 -90 -211 -137v-4q231 -90 232 -307q1 -183 -147 -291t-350 -108z" />
    <glyph glyph-name="nine.OT" horiz-adv-x="1073" 
d="M518 862q-124 0 -198 -88t-74 -216t54 -198t185 -71q131 0 256 90q19 61 19 177t-60 211t-182 95zM416 141q-154 -1 -253 105t-100 280q1 218 131 352t330 134t310 -135q111 -135 110 -340q0 -335 -210 -595q-105 -132 -285 -226t-416 -124l-21 148q240 29 425 156
t268 323l-5 2q-130 -80 -284 -80z" />
    <glyph glyph-name="Euro.OT" horiz-adv-x="1073" 
d="M205 442q0 76 16 158h-117l19 117h133q61 158 187 252q127 94 275 94t265 -62l-35 -143q-217 118 -382 7q-79 -52 -126 -148h389l-38 -117h-396q-16 -78 -16 -158h391l-41 -116h-340q35 -201 234 -201q115 0 227 70l37 -138q-131 -77 -287 -77t-258 90t-129 256h-135
l16 116h111z" />
    <glyph glyph-name="dollar.OT" horiz-adv-x="1073" 
d="M389 170q240 0 242 147q0 91 -139 154q-56 27 -114 59t-99 86q-41 55 -41 150q0 96 80 172t231 90l31 146h137l-29 -148q127 -18 203 -53l-29 -144q-120 57 -232 57q-216 1 -216 -118q0 -79 139 -150q57 -30 115 -62t100 -90q41 -58 41 -136q0 -127 -87 -205t-245 -94
l-31 -162h-139l35 160q-135 10 -246 67l58 133q115 -59 235 -59z" />
    <glyph glyph-name="sterling.OT" horiz-adv-x="1073" 
d="M704 1063q140 0 222 -43l-56 -137q-61 33 -146 33t-141 -56q-56 -55 -73 -153l-16 -109h321l-43 -131h-299q-37 -236 -125 -330l2 -4q45 4 137 4h316l-19 -137h-692l14 115q145 53 189 352h-115l21 131h112l19 123q27 166 129 254q103 88 243 88z" />
    <glyph glyph-name="yen.OT" horiz-adv-x="1073" 
d="M315 0l37 176h-256l25 123h256l26 125h-260l25 125h197l-175 495h172l150 -454h4l311 454h189l-352 -495h196l-24 -125h-261l-26 -125h262l-25 -123h-264l-37 -176h-170z" />
    <glyph glyph-name="zero.small" horiz-adv-x="944" 
d="M377 127q125 0 216 189t91 416t-145 226q-82 0 -154 -92t-112 -229t-40 -275q1 -235 144 -235zM374 -20q-155 0 -240 99t-85 274t51 340t169 289t273 124q156 0 240 -99t84 -275t-51 -340t-169 -288t-272 -124z" />
    <glyph glyph-name="one.small" horiz-adv-x="724" 
d="M215 0l191 891q-131 -66 -285 -98v149q81 20 189 64t171 88h146l-234 -1094h-178z" />
    <glyph glyph-name="two.small" horiz-adv-x="911" 
d="M635 825q0 61 -44 97t-120 36q-127 0 -278 -73l-35 141q172 80 324 80t245 -74q92 -74 92 -201q0 -163 -177 -283q-77 -52 -158 -104q-80 -52 -154 -129q-74 -78 -105 -174h525l-31 -141h-717q20 141 78 251q57 110 127 172q133 118 281 204q147 85 147 198z" />
    <glyph glyph-name="three.small" horiz-adv-x="915" 
d="M627 822q-1 136 -199 136q-100 0 -240 -63l-32 137q164 74 320 74t245 -74q90 -74 90 -182t-62 -181t-165 -112v-4q176 -51 176 -210t-123 -261t-315 -102t-332 81l67 132q121 -66 249 -66t200 57t72 150q0 145 -254 145h-148l19 144h86q109 0 179 17q70 16 119 66
q48 50 48 116z" />
    <glyph glyph-name="four.small" horiz-adv-x="1009" 
d="M367 412h184l43 200q16 78 55 224l-399 -426q39 2 117 2zM457 0l57 268h-442l-17 123l676 703h137l-145 -682h162l-31 -144h-162l-57 -268h-178z" />
    <glyph glyph-name="five.small" horiz-adv-x="909" 
d="M565 352q0 166 -268 166h-154l121 567h608l-47 -141h-424l-59 -287h31q180 -1 278 -81q99 -80 99 -229t-125 -259t-315 -109q-190 0 -324 82l71 132q101 -63 229 -63t204 60q76 61 75 162z" />
    <glyph glyph-name="six.small" horiz-adv-x="983" 
d="M446 125q86 0 150 66q63 67 63 157t-45 144t-133 53q-88 1 -150 -61q-63 -62 -63 -154t46 -149q46 -56 132 -56zM442 -20q-166 0 -261 108t-95 289q0 319 182 524t447 205q100 0 184 -31l-51 -135q-63 20 -135 21q-162 0 -280 -111t-159 -266h5q100 104 244 104
q143 0 229 -87t86 -243t-115 -266q-115 -112 -281 -112z" />
    <glyph glyph-name="seven.small" horiz-adv-x="829" 
d="M840 1085v-71q-430 -485 -559 -1014h-183q133 522 500 938h-477l-17 147h736z" />
    <glyph glyph-name="eight.small" horiz-adv-x="987" 
d="M534 965q-78 0 -136 -44q-56 -43 -56 -111q0 -139 158 -187q90 23 149 73t59 122q0 73 -48 110t-126 37zM430 121q88 0 156 49t67 135q0 129 -217 193q-88 -27 -149 -82t-61 -136t58 -120t146 -39zM831 317q-1 -157 -121 -247t-292 -90t-272 76q-99 77 -99 198
q0 225 254 317v4q-137 77 -137 215t103 227t269 89t260 -76q93 -76 93 -184t-69 -181t-171 -112v-4q182 -74 182 -232z" />
    <glyph glyph-name="nine.small" horiz-adv-x="999" 
d="M299 728q-1 -187 189 -187q100 0 208 69q4 41 4 86q0 125 -52 195t-143 70t-149 -71t-57 -162zM309 125q145 0 240 94q94 94 129 248h-4q-111 -70 -242 -70t-222 80t-91 241q-1 160 109 274t277 114t270 -111t104 -317q0 -266 -130 -473q-65 -101 -178 -163t-253 -62
t-244 49l49 135q84 -39 186 -39z" />
    <glyph glyph-name="Euro.small" horiz-adv-x="927" 
d="M135 459q0 80 17 162h-115l18 118h131q66 171 197 269t281 98t264 -64l-37 -147q-101 63 -203 63q-207 0 -313 -219h397l-39 -118h-403q-18 -86 -21 -162h393l-40 -117h-340q33 -215 233 -215q111 0 227 70l39 -138q-135 -79 -291 -79t-260 96q-102 96 -127 266h-133
l17 117h108z" />
    <glyph glyph-name="dollar.small" horiz-adv-x="927" 
d="M332 170q216 0 215 158q0 90 -126 170q-52 33 -106 68q-127 86 -127 210q0 123 81 200t216 89l33 156h146l-35 -158q78 -10 174 -47l-27 -148q-111 58 -208 58q-197 1 -197 -125q0 -79 126 -154q52 -31 105 -67t90 -96q37 -62 37 -142q0 -127 -87 -212t-234 -99l-35 -168
h-144l35 168q-123 18 -211 69l60 131q107 -61 219 -61z" />
    <glyph glyph-name="sterling.small" horiz-adv-x="927" 
d="M657 1106q119 0 213 -47l-55 -137q-68 37 -147 36q-176 0 -215 -233l-17 -100h316l-50 -144h-286q-41 -250 -140 -338v-4q47 2 168 2h297l-24 -141h-701l19 123q166 57 209 358h-129l24 144h123l21 125q16 113 63 188q100 168 311 168z" />
    <glyph glyph-name="yen.small" horiz-adv-x="927" 
d="M29 186l24 121h266l25 119h-270l24 121h217l-165 538h174l133 -489h4l307 489h195l-365 -538h215l-27 -121h-270l-24 -119h274l-25 -121h-274l-39 -186h-174l39 186h-264z" />
    <glyph glyph-name="six.LT" horiz-adv-x="1083" 
d="M276 388q0 -120 58 -189q58 -68 171 -68t193 86q80 87 80 207t-56 187t-168 67t-195 -85t-83 -205zM502 -20q-194 0 -305 120t-111 363q0 385 209 642t541 257q100 0 196 -33l-55 -141q-59 23 -143 22q-217 0 -368 -158t-198 -390h4q50 76 142 122t190 45q168 0 266 -101
q98 -102 98 -290t-136 -323t-330 -135z" />
    <glyph glyph-name="seven.LT" horiz-adv-x="1083" 
d="M1069 1350v-74q-522 -610 -682 -1276h-190q162 651 628 1196h-604l-16 154h864z" />
    <glyph glyph-name="eight.LT" horiz-adv-x="1083" 
d="M358 1008q0 -92 56 -155q56 -64 155 -95q274 82 275 268q0 92 -65 141t-168 49t-178 -58t-75 -150zM221 334q0 -102 76 -156q75 -54 191 -53q116 -1 202 65t86 170t-75 162q-75 59 -214 101q-121 -39 -193 -113t-73 -176zM470 -20q-202 0 -320 93t-119 243q0 150 87 242
q87 93 228 140v4q-178 104 -178 289q0 160 127 265q127 106 321 106t307 -89q111 -89 111 -223t-86 -223q-86 -90 -213 -137v-4q231 -90 232 -307q1 -183 -147 -291t-350 -108z" />
    <glyph glyph-name="nine.LT" horiz-adv-x="1083" 
d="M293 900q0 -254 239 -255q125 0 273 107q10 57 10 120q0 160 -67 250q-68 90 -186 90t-194 -95t-75 -217zM305 131q389 0 483 465h-4q-139 -100 -307 -100t-271 97q-104 97 -104 297t132 336t328 136t316 -130t119 -374q0 -418 -183 -648t-499 -230q-151 0 -260 51
l51 143q86 -43 199 -43z" />
    <glyph glyph-name="Euro.LT" horiz-adv-x="1083" 
d="M188 561v12q0 111 21 205h-137l18 125h152q74 213 231 336q159 123 343 123t294 -72l-31 -157q-115 71 -245 71t-232 -81q-104 -81 -162 -220h496l-43 -125h-494q-20 -84 -20 -188v-29h479l-43 -125h-426q39 -299 285 -299q129 0 256 78l37 -145q-137 -90 -326 -90
t-305 116t-141 340h-154l16 125h131z" />
    <glyph glyph-name="dollar.LT" horiz-adv-x="1083" 
d="M392 182q122 0 199 50t77 165q0 61 -31 113t-76 84q-137 100 -190 143q-115 92 -115 239q0 148 96 242t250 109l39 191h143l-41 -193q117 -14 207 -59l-32 -148q-120 64 -234 64t-179 -44t-65 -141t107 -170q139 -96 191 -142q114 -101 114 -267t-106 -264t-271 -117
l-43 -205h-143l43 205q-133 12 -244 80l64 139q118 -74 240 -74z" />
    <glyph glyph-name="plusinferior" horiz-adv-x="835" 
d="M233 -307v270h-251v123h251v262h129v-262h252v-123h-252v-270h-129z" />
    <glyph glyph-name="minusinferior" horiz-adv-x="835" 
d="M-18 -37v123h632v-123h-632z" />
    <glyph glyph-name="equalinferior" horiz-adv-x="835" 
d="M-18 96v121h632v-121h-632zM-18 -168v121h632v-121h-632z" />
    <glyph glyph-name="five.LT" horiz-adv-x="1083" 
d="M342 135q150 0 260 78t109 225q0 225 -346 226h-170l141 686h711l-52 -154h-512l-80 -385h62q215 0 326 -99t110 -255q0 -213 -155 -345t-383 -132t-357 79l76 144q110 -68 260 -68z" />
    <glyph glyph-name="four.LT" horiz-adv-x="1083" 
d="M240 498l182 2h207l57 262q37 168 80 315zM522 0l74 350h-539l-20 137l801 873h149l-182 -860h196l-32 -150h-197l-74 -350h-176z" />
    <glyph glyph-name="three.LT" horiz-adv-x="1087" 
d="M349 135q150 0 258 66t108 207q0 112 -80 156t-240 44h-157l18 148h90q255 0 367 114q61 62 61 156t-61 137t-183 43t-286 -71l-33 141q187 86 369 86t283 -84t102 -229q0 -256 -289 -353v-4q229 -51 229 -274q0 -190 -149 -315q-150 -124 -380 -124t-372 80l76 144
q119 -68 269 -68z" />
    <glyph glyph-name="two.LT" horiz-adv-x="1083" 
d="M575 1206q-150 0 -325 -84l-35 146q205 94 381 94t277 -84t101 -215t-62 -222q-64 -91 -159 -160t-195 -137t-185 -167q-86 -100 -117 -223h627l-35 -154h-832q20 143 74 262q53 119 123 196q122 135 302 252q75 48 136 95q137 105 135 227q0 174 -211 174z" />
    <glyph glyph-name="Amacron.small" horiz-adv-x="1050" 
d="M311 391h332l-47 244q-23 129 -35 213h-4q-18 -43 -104 -201zM-90 0l616 1094h136l235 -1094h-180l-47 250h-439l-135 -250h-186zM342 1243l29 141h532l-31 -141h-530z" />
    <glyph glyph-name="Ccircumflex.small" horiz-adv-x="1030" 
d="M381 1159l244 301h151l168 -301h-145l-107 193l-157 -193h-154zM528 -20q-194 0 -322 124t-128 336q0 278 175 472t443 194q156 0 283 -62l-39 -141q-115 55 -235 55q-181 0 -313 -139t-132 -368q0 -156 80 -240t222 -84t276 72l36 -140q-152 -79 -346 -79z" />
    <glyph glyph-name="Abreve.small" horiz-adv-x="1050" 
d="M311 391h332l-47 244q-23 129 -35 213h-4q-18 -43 -104 -201zM-90 0l616 1094h136l235 -1094h-180l-47 250h-439l-135 -250h-186zM600 1184q-119 0 -180 70t-51 190h127q-4 -139 118 -139t164 139h133q-27 -123 -109 -192q-83 -68 -202 -68z" />
    <glyph glyph-name="Ccaron.small" horiz-adv-x="1030" 
d="M528 -20q-194 0 -322 124t-128 336q0 278 175 472t443 194q156 0 283 -62l-39 -141q-115 55 -235 55q-181 0 -313 -139t-132 -368q0 -156 80 -240t222 -84t276 72l36 -140q-152 -79 -346 -79zM598 1161l-166 301h146l106 -194l158 194h153l-243 -301h-154z" />
    <glyph glyph-name="Cdotaccent.small" horiz-adv-x="1030" 
d="M693 1227q-50 1 -79 29q-28 28 -28 78t39 86t89 36t79 -29t29 -77t-40 -86q-39 -37 -89 -37zM528 -20q-194 0 -322 124t-128 336q0 278 175 472t443 194q156 0 283 -62l-39 -141q-115 55 -235 55q-181 0 -313 -139t-132 -368q0 -156 80 -240t222 -84t276 72l36 -140
q-152 -79 -346 -79z" />
    <glyph glyph-name="Ccedilla.small" horiz-adv-x="1030" 
d="M475 -250q0 72 -160 66l86 180q-151 41 -237 158t-86 286q0 278 175 472t443 194q156 0 283 -62l-39 -141q-115 55 -235 55q-181 0 -313 -139t-132 -368q0 -156 80 -240t222 -84t276 72l36 -140q-172 -88 -346 -77l-41 -91q68 -3 107 -39t39 -94q0 -92 -75 -142t-177 -50
t-168 28l43 93q39 -20 96 -21q123 0 123 84z" />
    <glyph glyph-name="Dcaron.small" horiz-adv-x="1142" 
d="M373 147q217 1 351 135t134 349q0 143 -94 225t-262 82h-99l-165 -791h135zM510 1085q240 -1 384 -121t144 -335q0 -273 -184 -451t-506 -178h-319l231 1085h250zM543 1161l-166 301h145l107 -194l157 194h154l-244 -301h-153z" />
    <glyph glyph-name="Dcroat.small" horiz-adv-x="1142" 
d="M373 147q217 1 351 135t134 349q0 143 -94 225t-262 82h-99l-67 -320h268l-31 -141h-266l-69 -330h135zM510 1085q240 -1 384 -121t144 -335q0 -273 -184 -451t-506 -178h-319l100 477h-137l31 141h137l100 467h250z" />
    <glyph glyph-name="Egrave.small" horiz-adv-x="903" 
d="M29 0l231 1085h588l-55 -141h-387l-68 -323h381l-33 -144h-379l-69 -336h432l-31 -141h-610zM496 1159l-166 301h205l100 -301h-139z" />
    <glyph glyph-name="Eacute.small" horiz-adv-x="903" 
d="M29 0l231 1085h588l-55 -141h-387l-68 -323h381l-33 -144h-379l-69 -336h432l-31 -141h-610zM475 1159l156 301h205l-224 -301h-137z" />
    <glyph glyph-name="Ecircumflex.small" horiz-adv-x="903" 
d="M285 1159l243 301h152l168 -301h-146l-106 193l-158 -193h-153zM29 0l231 1085h588l-55 -141h-387l-68 -323h381l-33 -144h-379l-69 -336h432l-31 -141h-610z" />
    <glyph glyph-name="Ecaron.small" horiz-adv-x="903" 
d="M29 0l231 1085h588l-55 -141h-387l-68 -323h381l-33 -144h-379l-69 -336h432l-31 -141h-610zM477 1161l-166 301h146l106 -194l158 194h153l-243 -301h-154z" />
    <glyph glyph-name="Edieresis.small" horiz-adv-x="903" 
d="M759 1194q-42 0 -66 24q-23 24 -23 68t30 78q31 33 73 33t67 -24q24 -23 24 -67t-32 -78t-73 -34zM390 1194q-42 0 -66 24t-23 68q0 44 31 78q31 33 73 33q41 0 65 -24q24 -25 24 -69t-31 -77t-73 -33zM29 0l231 1085h588l-55 -141h-387l-68 -323h381l-33 -144h-379
l-69 -336h432l-31 -141h-610z" />
    <glyph glyph-name="Emacron.small" horiz-adv-x="903" 
d="M29 0l231 1085h588l-55 -141h-387l-68 -323h381l-33 -144h-379l-69 -336h432l-31 -141h-610zM307 1243l29 141h532l-30 -141h-531z" />
    <glyph glyph-name="Aring.small" horiz-adv-x="1050" 
d="M522 1266q0 -94 87 -95q44 0 74 36t30 89q1 90 -87 88q-44 0 -74 -36q-30 -34 -30 -82zM311 391h332l-47 244q-23 129 -35 213h-4q-18 -43 -104 -201zM397 1253q0 97 69 159t165 62t151 -46q56 -48 56 -128t-50 -136t-126 -72l235 -1092h-180l-47 250h-439l-135 -250
h-186l616 1092q-57 14 -93 57t-36 104z" />
    <glyph glyph-name="Ebreve.small" horiz-adv-x="903" 
d="M29 0l231 1085h588l-55 -141h-387l-68 -323h381l-33 -144h-379l-69 -336h432l-31 -141h-610zM557 1184q-119 0 -180 70t-51 190h127q-5 -139 117 -139t165 139h133q-27 -123 -109 -192q-83 -68 -202 -68z" />
    <glyph glyph-name="Aringacute.small" horiz-adv-x="1050" 
d="M522 1266q0 -94 87 -95q44 0 74 36t30 89q1 90 -87 88q-44 0 -74 -36q-30 -34 -30 -82zM311 391h332l-47 244q-23 129 -35 213h-4q-18 -43 -104 -201zM397 1270q-1 78 63 138t158 65l130 256h204l-207 -279q93 -43 93 -137q0 -93 -50 -149t-126 -72l235 -1092h-180
l-47 250h-439l-135 -250h-186l616 1092q-57 14 -93 57t-36 121z" />
    <glyph glyph-name="Aogonek.small" horiz-adv-x="1050" 
d="M311 391h332l-47 244q-23 129 -35 213h-4q-18 -43 -104 -201zM604 -256q0 -66 70 -66q33 0 78 17l14 -109q-193 -57 -272 19q-43 41 -43 104q0 186 260 309l-41 232h-439l-135 -250h-186l618 1094h134l235 -1094q-119 -45 -206 -114t-87 -142z" />
    </font>
</defs>
</svg>
