<?xml version="1.0" encoding="UTF-8" standalone="no"?>
<svg width="56px" height="61px" viewBox="0 0 56 61" version="1.1" xmlns="http://www.w3.org/2000/svg" xmlns:xlink="http://www.w3.org/1999/xlink" xmlns:sketch="http://www.bohemiancoding.com/sketch/ns">
    <!-- Generator: Sketch 3.1 (8751) - http://www.bohemiancoding.com/sketch -->
    <title>icon-drink</title>
    <desc>Created with Sketch.</desc>
    <defs></defs>
    <g id="Page-1" stroke="none" stroke-width="1" fill="none" fill-rule="evenodd" sketch:type="MSPage">
        <g id="Главная" sketch:type="MSArtboardGroup" transform="translate(-222.000000, -722.000000)">
            <g id="Icons" sketch:type="MSLayerGroup" transform="translate(169.000000, 499.000000)">
                <g id="icon-drink" transform="translate(53.000000, 223.000000)" sketch:type="MSShapeGroup">
                    <path d="M19.9,60.1 C17.4,60.1 15.4,58.3 15.1,55.8 L12.8,35.1 L9.3,38.6 L6.2,35.6 C2.3,31.7 0.1,26.4 0.1,20.9 C0.1,15.3 2.3,10.1 6.2,6.2 C10.1,2.3 15.4,0.1 20.9,0.1 C26.5,0.1 31.7,2.3 35.6,6.2 L38.6,9.2 L36.6,11.2 L49.4,11.2 C50.7,11.2 52,11.8 52.9,12.8 C53.8,13.8 54.2,15.1 54.1,16.5 L50.6,47.7 C53.4,49.4 55.2,52.4 55.2,55.9 L55.2,60.2 L19.9,60.2 L19.9,60.1 Z" id="Shape" fill="#FFFFFF"></path>
                    <path d="M9.3,32.6 C2.8,26.1 2.8,15.7 9.3,9.2 C15.8,2.7 26.2,2.7 32.7,9.2 C25.9,15.9 18.3,23.6 9.3,32.6 L9.3,32.6 Z" id="Shape" fill="#ABD169"></path>
                    <path d="M11.1,30.8 C5.6,25.3 5.6,16.5 11.1,11 C16.6,5.5 25.4,5.5 30.9,11 C25.2,16.7 18.7,23.2 11.1,30.8 L11.1,30.8 Z" id="Shape" fill="#FFAA00"></path>
                    <path d="M21,6.9 C24.6,6.9 28.2,8.3 30.9,11 C25.2,16.7 18.7,23.2 11.1,30.8 C5.6,25.3 5.6,16.5 11.1,11 C13.8,8.3 17.4,6.9 21,6.9 L21,6.9 Z M21,6.1 L21,6.1 C17.1,6.1 13.4,7.6 10.6,10.4 C7.8,13.2 6.3,16.9 6.3,20.8 C6.3,24.7 7.8,28.4 10.6,31.2 L11.1,31.7 L11.6,31.2 C19.2,23.6 25.7,17.1 31.4,11.4 L31.9,10.9 L31.4,10.4 C28.6,7.7 24.9,6.1 21,6.1 L21,6.1 L21,6.1 Z" id="Shape" fill="#161616"></path>
                    <path d="M19.4,55.4 C19.4,55.6 19.6,55.8 19.9,55.8 L32,55.8 L32.9,55.8 L45,55.8 C45.2,55.8 45.5,55.6 45.5,55.4 L49.2,22.6 L15.7,22.6 L19.4,55.4 L19.4,55.4 Z" id="Shape" fill="#FFAA00"></path>
                    <path d="M19.4,55.4 C19.4,55.6 19.6,55.8 19.9,55.8 L32,55.8 L32.9,55.8 L45,55.8 C45.2,55.8 45.5,55.6 45.5,55.4 L49.2,22.6 L15.7,22.6 L19.4,55.4 L19.4,55.4 Z" id="Shape" stroke="#161616" stroke-width="0.7714"></path>
                    <path d="M49.6,15.5 L33,15.5 L32.1,15.5 L15.5,15.5 C15.3,15.5 15.1,15.7 15.1,15.9 L15.8,22.6 L49.3,22.6 L50.1,15.9 C50,15.7 49.8,15.5 49.6,15.5 L49.6,15.5 Z" id="Shape" fill="#FFFFFF"></path>
                    <path d="M49.6,15.5 L33,15.5 L32.1,15.5 L15.5,15.5 C15.3,15.5 15.1,15.7 15.1,15.9 L15.8,22.6 L49.3,22.6 L50.1,15.9 C50,15.7 49.8,15.5 49.6,15.5 L49.6,15.5 Z" id="Shape" stroke="#161616" stroke-width="0.7714"></path>
                    <path d="M40.5,55.8 C40.5,52.9 42.9,50.5 45.8,50.5 C48.7,50.5 51.1,52.9 51.1,55.8 L40.5,55.8 L40.5,55.8 Z" id="Shape" stroke="#161616" stroke-width="0.7714" fill="#FFFFFF"></path>
                    <path d="M21,4.3 C25.2,4.3 29.5,5.9 32.7,9.1 C32.1,9.7 31.5,10.3 30.9,10.9 L30.9,10.9 C29.5,12.3 28,13.8 26.4,15.4 L32.1,15.4 L33,15.4 L49.6,15.4 C49.8,15.4 50,15.6 50,15.8 L49.2,22.5 L46.1,50.5 C48.9,50.6 51.1,52.9 51.1,55.8 L45.1,55.8 L40.6,55.8 L33,55.8 L32.1,55.8 L20,55.8 C19.8,55.8 19.5,55.6 19.5,55.4 L16.2,25.8 C14,28 11.7,30.3 9.4,32.6 C2.9,26.1 2.9,15.7 9.4,9.2 C12.5,6 16.8,4.3 21,4.3 L21,4.3 Z M21,2.3 C16,2.3 11.4,4.2 7.9,7.7 C0.7,14.9 0.7,26.7 7.9,34 C8.3,34.4 8.8,34.6 9.3,34.6 L9.3,34.6 C9.8,34.6 10.4,34.4 10.7,34 L14.5,30.2 L17.4,55.6 C17.5,56.9 18.6,57.8 19.9,57.8 L32,57.8 L32.9,57.8 L40.5,57.8 L45,57.8 L51,57.8 C52.1,57.8 53,56.9 53,55.8 C53,52.7 51,50 48.2,48.9 L51.1,22.7 L51.9,16 C52,15.3 51.8,14.6 51.3,14.1 C50.8,13.6 50.2,13.3 49.5,13.3 L33,13.3 L32.1,13.3 L31.3,13.3 C31.6,13 32,12.6 32.3,12.3 L32.4,12.2 L32.9,11.7 C33.3,11.3 33.7,10.9 34.1,10.5 C34.9,9.7 34.9,8.4 34.1,7.6 C30.6,4.3 25.9,2.3 21,2.3 L21,4.3 L21,2.3 L21,2.3 Z" id="Shape" fill="#161616"></path>
                    <path d="M15.8,22.6 L49.2,22.6" id="Shape" stroke="#161616" stroke-width="0.7714"></path>
                    <path d="M23.2,13.4 L24.6,8.9" id="Shape" stroke="#161616" stroke-width="0.7714"></path>
                    <path d="M19.1,12.7 L18.2,8.9" id="Shape" stroke="#161616" stroke-width="0.7714"></path>
                    <path d="M14.6,14.1 L12.4,11.8" id="Shape" stroke="#161616" stroke-width="0.7714"></path>
                    <path d="M13,18.5 L9.6,17.5" id="Shape" stroke="#161616" stroke-width="0.7714"></path>
                    <path d="M13.8,22.6 L9.3,23.7" id="Shape" stroke="#161616" stroke-width="0.7714"></path>
                </g>
            </g>
        </g>
    </g>
</svg>