<?xml version="1.0" encoding="UTF-8" standalone="no"?>
<svg width="64px" height="52px" viewBox="0 0 64 52" version="1.1" xmlns="http://www.w3.org/2000/svg" xmlns:xlink="http://www.w3.org/1999/xlink" xmlns:sketch="http://www.bohemiancoding.com/sketch/ns">
    <!-- Generator: Sketch 3.1.1 (8761) - http://www.bohemiancoding.com/sketch -->
    <title>icon-doors</title>
    <desc>Created with Sketch.</desc>
    <defs></defs>
    <g id="Page-1" stroke="none" stroke-width="1" fill="none" fill-rule="evenodd" sketch:type="MSPage">
        <g id="main_top-copy" sketch:type="MSLayerGroup" transform="translate(-207.000000, -1213.000000)">
            <g id="enter_hover" transform="translate(1.000000, 40.000000)" sketch:type="MSShapeGroup">
                <g id="icon-doors" transform="translate(206.000000, 1174.000000)">
                    <path d="M57.8,12.2 L52.5,12.2 C50.6,12.2 50,11.3 48.4,7.9 C47,4.7 44.8,-0.1 38.7,-0.1 L34.3,-0.1 C33.3,-0.1 32.4,0.2 31.7,0.6 C30.9,0.1 30,-0.1 29.1,-0.1 L24.7,-0.1 C18.6,-0.1 16.4,4.7 15,7.9 C13.5,11.3 12.8,12.2 10.9,12.2 L5.6,12.2 C2.7,12.2 0.4,14.5 0.4,17.4 L0.4,45.3 C0.4,48.2 2.7,50.5 5.6,50.5 L29.2,50.5 C30.2,50.5 31.1,50.2 31.8,49.8 C32.6,50.3 33.5,50.5 34.4,50.5 L58,50.5 C60.9,50.5 63.2,48.2 63.2,45.3 L63.2,17.4 C63,14.5 60.7,12.2 57.8,12.2 L57.8,12.2 Z" id="Shape" fill="#FFFFFF"></path>
                    <g id="Group" transform="translate(2.000000, 2.000000)">
                        <path d="M55.8,45.1 C56.8,45.1 57.5,44.3 57.5,43.4 L57.5,15.5 C57.5,14.5 56.7,13.8 55.8,13.8 L50.5,13.8 C41.9,13.8 44.6,1.5 36.7,1.5 L32.3,1.5 C31.3,1.5 30.6,2.3 30.6,3.2 L30.6,43.5 C30.6,44.5 31.4,45.2 32.3,45.2 L55.8,45.2 L55.8,45.1 Z" id="Shape" fill="#FBAA00"></path>
                        <path d="M36.6,1.3 C44.5,1.3 41.8,13.6 50.4,13.6 L55.7,13.6 C56.7,13.6 57.4,14.4 57.4,15.3 L57.4,43.2 C57.4,44.2 56.6,44.9 55.7,44.9 L32.1,44.9 C31.1,44.9 30.4,44.1 30.4,43.2 L30.4,2.9 C30.4,1.9 31.2,1.2 32.1,1.2 C32.2,1.3 33.7,1.3 36.6,1.3 L36.6,1.3 Z M36.6,-0.5 L32.2,-0.5 C30.2,-0.5 28.6,1.1 28.6,3.1 L28.6,43.4 C28.6,45.4 30.2,47 32.2,47 L55.8,47 C57.8,47 59.4,45.4 59.4,43.4 L59.4,15.5 C59.4,13.5 57.8,11.9 55.8,11.9 L50.5,11.9 C47.4,11.9 46.4,10 44.9,6.6 C43.5,3.4 41.7,-0.5 36.6,-0.5 L36.6,-0.5 L36.6,-0.5 Z" id="Shape" fill="#2C3236"></path>
                        <path d="M54,40.2 C54,41.3 53.5,41.6 52.6,41.6 L35.3,41.6 C34.4,41.6 33.9,41.3 33.9,40.2 L33.9,6.2 C33.9,5.1 34.4,4.8 35.3,4.8 L36.6,4.8 C38,4.8 38.5,5.4 40,8.7 C41.5,12.1 43.8,17.1 50.4,17.1 L52.6,17.1 C53.5,17.1 54,17.4 54,18.5 L54,40.2 L54,40.2 Z" id="Shape" stroke="#2C3236" stroke-width="0.7985"></path>
                        <path d="M36.9,38.2 L51,38.2" id="Shape" stroke="#2C3236" stroke-width="0.7985"></path>
                        <path d="M36.9,34.9 L51,34.9" id="Shape" stroke="#2C3236" stroke-width="0.7985"></path>
                        <path d="M36.9,31.6 L51,31.6" id="Shape" stroke="#2C3236" stroke-width="0.7985"></path>
                        <path d="M36.9,28.3 L51,28.3" id="Shape" stroke="#2C3236" stroke-width="0.7985"></path>
                        <path d="M36.9,25 L51,25" id="Shape" stroke="#2C3236" stroke-width="0.7985"></path>
                        <path d="M36.9,21.7 L51,21.7" id="Shape" stroke="#2C3236" stroke-width="0.7985"></path>
                        <path d="M36.9,18.5 L43.6,18.5" id="Shape" stroke="#2C3236" stroke-width="0.7985"></path>
                        <path d="M36.9,15.2 L39.9,15.2" id="Shape" stroke="#2C3236" stroke-width="0.7985"></path>
                        <path d="M36.9,11.9 L38.1,11.9" id="Shape" stroke="#2C3236" stroke-width="0.7985"></path>
                        <path d="M3.4,45.1 C2.4,45.1 1.7,44.3 1.7,43.4 L1.7,15.5 C1.7,14.5 2.5,13.8 3.4,13.8 L8.7,13.8 C17.3,13.8 14.6,1.5 22.5,1.5 L26.9,1.5 C27.9,1.5 28.6,2.3 28.6,3.2 L28.6,43.5 C28.6,44.5 27.8,45.2 26.9,45.2 L3.4,45.2 L3.4,45.1 Z" id="Shape" fill="#FBAA00"></path>
                        <path d="M26.9,1.3 C27.9,1.3 28.6,2.1 28.6,3 L28.6,43.3 C28.6,44.3 27.8,45 26.9,45 L3.3,45 C2.3,45 1.6,44.2 1.6,43.3 L1.6,15.4 C1.6,14.4 2.4,13.7 3.3,13.7 L8.6,13.7 C17.2,13.7 14.5,1.4 22.4,1.4 C25.5,1.3 26.9,1.3 26.9,1.3 L26.9,1.3 Z M26.9,-0.5 L22.5,-0.5 C17.4,-0.5 15.7,3.4 14.3,6.6 C12.8,10 11.8,11.9 8.7,11.9 L3.4,11.9 C1.4,11.9 -0.2,13.5 -0.2,15.5 L-0.2,43.4 C-0.2,45.4 1.4,47 3.4,47 L27,47 C29,47 30.6,45.4 30.6,43.4 L30.6,3.1 C30.5,1.1 28.9,-0.5 26.9,-0.5 L26.9,-0.5 L26.9,-0.5 Z" id="Shape" fill="#2C3236"></path>
                        <path d="M5.1,40.2 C5.1,41.3 5.6,41.6 6.5,41.6 L23.8,41.6 C24.7,41.6 25.2,41.3 25.2,40.2 L25.2,6.2 C25.2,5.1 24.7,4.8 23.8,4.8 L22.5,4.8 C21.1,4.8 20.6,5.4 19.1,8.7 C17.6,12.1 15.3,17.1 8.7,17.1 L6.5,17.1 C5.6,17.1 5.1,17.4 5.1,18.5 L5.1,40.2 L5.1,40.2 Z" id="Shape" stroke="#2C3236" stroke-width="0.7985"></path>
                        <path d="M22.2,38.2 L8.2,38.2" id="Shape" stroke="#2C3236" stroke-width="0.7985"></path>
                        <path d="M22.2,34.9 L8.2,34.9" id="Shape" stroke="#2C3236" stroke-width="0.7985"></path>
                        <path d="M22.2,31.6 L8.2,31.6" id="Shape" stroke="#2C3236" stroke-width="0.7985"></path>
                        <path d="M22.2,28.3 L8.2,28.3" id="Shape" stroke="#2C3236" stroke-width="0.7985"></path>
                        <path d="M22.2,25 L8.2,25" id="Shape" stroke="#2C3236" stroke-width="0.7985"></path>
                        <path d="M22.2,21.7 L8.2,21.7" id="Shape" stroke="#2C3236" stroke-width="0.7985"></path>
                        <path d="M22.2,18.5 L15.6,18.5" id="Shape" stroke="#2C3236" stroke-width="0.7985"></path>
                        <path d="M22.2,15.2 L19.2,15.2" id="Shape" stroke="#2C3236" stroke-width="0.7985"></path>
                        <path d="M22.2,11.9 L21.1,11.9" id="Shape" stroke="#2C3236" stroke-width="0.7985"></path>
                    </g>
                </g>
            </g>
        </g>
    </g>
</svg>