<?xml version="1.0" encoding="UTF-8" standalone="no"?>
<svg width="63px" height="84px" viewBox="0 0 63 84" version="1.1" xmlns="http://www.w3.org/2000/svg" xmlns:xlink="http://www.w3.org/1999/xlink" xmlns:sketch="http://www.bohemiancoding.com/sketch/ns">
    <!-- Generator: Sketch 3.1 (8751) - http://www.bohemiancoding.com/sketch -->
    <title>icon-cactus</title>
    <desc>Created with Sketch.</desc>
    <defs></defs>
    <g id="Page-1" stroke="none" stroke-width="1" fill="none" fill-rule="evenodd" sketch:type="MSPage">
        <g id="Главная" sketch:type="MSArtboardGroup" transform="translate(-280.000000, -498.000000)">
            <g id="Icons" sketch:type="MSLayerGroup" transform="translate(169.000000, 499.000000)">
                <g id="icon-cactus" transform="translate(111.000000, 0.000000)" sketch:type="MSShapeGroup">
                    <path d="M31.3,82.8 C25,82.8 17.7,80.9 17.7,75.7 L17.7,65.2 L4.6,65.2 C2.2,65.2 0.3,63.4 0.3,60.9 L0.3,31.9 C0.3,26.9 4.4,22.8 9.4,22.8 C13,22.8 16.2,25 17.6,28 L17.6,13.2 C17.6,5.7 23.7,-0.4 31.2,-0.4 C38.7,-0.4 44.8,5.7 44.8,13.2 C46.3,10.1 49.4,8 53,8 C58,8 62.1,12.1 62.1,17.1 L62.1,45.5 C62.1,48 60.3,49.8 57.8,49.8 L44.7,49.8 L44.7,75.8 C44.9,81 37.6,82.8 31.3,82.8 L31.3,82.8 Z" id="Shape" fill="#FFFFFF"></path>
                    <path d="M58.7,17.1 C58.7,14.1 56.2,11.6 53.2,11.6 C50.2,11.6 47.7,14.1 47.7,17.1 L47.7,17.1 L47.7,26.5 L47.7,34.5 C47.7,35 47.4,35.2 47,35.2 L42,35.2 C41.6,35.2 41.4,35 41.3,34.6 L41.3,13.3 C41.3,7.8 36.8,3.3 31.3,3.3 C25.8,3.3 21.3,7.8 21.3,13.3 L21.3,50 C21.3,50.5 21,50.7 20.6,50.7 L15.6,50.7 C15.2,50.7 14.9,50.5 14.9,50 L14.9,41.4 L14.9,32 C14.9,29 12.4,26.5 9.4,26.5 C6.4,26.5 3.9,29 3.9,32 L3.9,61 C3.9,61.5 4.2,61.7 4.6,61.7 L20.6,61.7 C21,61.7 21.3,61.9 21.3,62.4 L21.3,75.8 C21.3,77.8 25.8,79.3 31.3,79.3 C36.8,79.3 41.3,77.7 41.3,75.8 L41.3,46.9 C41.3,46.4 41.6,46.2 42,46.2 L55.8,46.2 L58,46.2 C58.4,46.2 58.7,46 58.7,45.5 L58.7,41.2 L58.7,17.1 L58.7,17.1 Z" id="Shape" fill="#ABD169"></path>
                    <path d="M58.7,17.1 C58.7,14.1 56.2,11.6 53.2,11.6 C50.2,11.6 47.7,14.1 47.7,17.1 L47.7,17.1 L47.7,26.5 L47.7,34.5 C47.7,35 47.4,35.2 47,35.2 L42,35.2 C41.6,35.2 41.4,35 41.3,34.6 L41.3,13.3 C41.3,7.8 36.8,3.3 31.3,3.3 C25.8,3.3 21.3,7.8 21.3,13.3 L21.3,50 C21.3,50.5 21,50.7 20.6,50.7 L15.6,50.7 C15.2,50.7 14.9,50.5 14.9,50 L14.9,41.4 L14.9,32 C14.9,29 12.4,26.5 9.4,26.5 C6.4,26.5 3.9,29 3.9,32 L3.9,61 C3.9,61.5 4.2,61.7 4.6,61.7 L20.6,61.7 C21,61.7 21.3,61.9 21.3,62.4 L21.3,75.8 C21.3,77.8 25.8,79.3 31.3,79.3 C36.8,79.3 41.3,77.7 41.3,75.8 L41.3,46.9 C41.3,46.4 41.6,46.2 42,46.2 L55.8,46.2 L58,46.2 C58.4,46.2 58.7,46 58.7,45.5 L58.7,41.2 L58.7,17.1 L58.7,17.1 Z" id="Shape" stroke="#161616" stroke-width="2.5286"></path>
                    <path d="M26.2,13.2 L26.2,17" id="Shape" stroke="#161616" stroke-width="0.9615"></path>
                    <path d="M31.3,13.2 L31.3,17" id="Shape" stroke="#161616" stroke-width="0.9615"></path>
                    <path d="M36.4,13.2 L36.4,17" id="Shape" stroke="#161616" stroke-width="0.9615"></path>
                    <path d="M26.2,24.3 L26.2,28.1" id="Shape" stroke="#161616" stroke-width="0.9615"></path>
                    <path d="M31.3,24.3 L31.3,28.1" id="Shape" stroke="#161616" stroke-width="0.9615"></path>
                    <path d="M9.4,33.4 L9.4,37.2" id="Shape" stroke="#161616" stroke-width="0.9615"></path>
                    <path d="M9.4,42.6 L9.4,46.4" id="Shape" stroke="#161616" stroke-width="0.9615"></path>
                    <path d="M9.4,51.7 L9.4,55.5" id="Shape" stroke="#161616" stroke-width="0.9615"></path>
                    <path d="M53.1,17.9 L53.1,21.8" id="Shape" stroke="#161616" stroke-width="0.9615"></path>
                    <path d="M53.1,27.1 L53.1,30.9" id="Shape" stroke="#161616" stroke-width="0.9615"></path>
                    <path d="M53.1,36.2 L53.1,40" id="Shape" stroke="#161616" stroke-width="0.9615"></path>
                    <path d="M42.2,38.9 L42.2,42.7" id="Shape" stroke="#161616" stroke-width="0.9615"></path>
                    <path d="M48.2,38.9 L48.2,42.7" id="Shape" stroke="#161616" stroke-width="0.9615"></path>
                    <path d="M14.5,34.2 L14.5,38" id="Shape" stroke="#161616" stroke-width="0.9615"></path>
                    <path d="M36.4,24.3 L36.4,28.1" id="Shape" stroke="#161616" stroke-width="0.9615"></path>
                    <path d="M26.2,35.3 L26.2,39.2" id="Shape" stroke="#161616" stroke-width="0.9615"></path>
                    <path d="M31.3,35.3 L31.3,39.2" id="Shape" stroke="#161616" stroke-width="0.9615"></path>
                    <path d="M36.4,35.3 L36.4,39.2" id="Shape" stroke="#161616" stroke-width="0.9615"></path>
                    <path d="M26.2,46.4 L26.2,50.2" id="Shape" stroke="#161616" stroke-width="0.9615"></path>
                    <path d="M31.3,46.4 L31.3,50.2" id="Shape" stroke="#161616" stroke-width="0.9615"></path>
                    <path d="M36.4,46.4 L36.4,50.2" id="Shape" stroke="#161616" stroke-width="0.9615"></path>
                    <path d="M26.2,57.4 L26.2,61.3" id="Shape" stroke="#161616" stroke-width="0.9615"></path>
                    <path d="M15.5,54.2 L15.5,58" id="Shape" stroke="#161616" stroke-width="0.9615"></path>
                    <path d="M20.9,54.2 L20.9,58" id="Shape" stroke="#161616" stroke-width="0.9615"></path>
                    <path d="M31.3,57.4 L31.3,61.3" id="Shape" stroke="#161616" stroke-width="0.9615"></path>
                    <path d="M36.4,57.4 L36.4,61.3" id="Shape" stroke="#161616" stroke-width="0.9615"></path>
                    <path d="M26.2,68.5 L26.2,72.3" id="Shape" stroke="#161616" stroke-width="0.9615"></path>
                    <path d="M31.3,68.5 L31.3,72.3" id="Shape" stroke="#161616" stroke-width="0.9615"></path>
                    <path d="M36.4,68.5 L36.4,72.3" id="Shape" stroke="#161616" stroke-width="0.9615"></path>
                </g>
            </g>
        </g>
    </g>
</svg>