<?xml version="1.0" encoding="UTF-8" standalone="no"?>
<svg width="61px" height="100px" viewBox="0 0 61 100" version="1.1" xmlns="http://www.w3.org/2000/svg" xmlns:xlink="http://www.w3.org/1999/xlink" xmlns:sketch="http://www.bohemiancoding.com/sketch/ns">
    <!-- Generator: Sketch 3.1 (8751) - http://www.bohemiancoding.com/sketch -->
    <title>icon-fire-extinguisher</title>
    <desc>Created with Sketch.</desc>
    <defs></defs>
    <g id="Page-1" stroke="none" stroke-width="1" fill="none" fill-rule="evenodd" sketch:type="MSPage">
        <g id="Главная" sketch:type="MSArtboardGroup" transform="translate(-416.000000, -901.000000)">
            <g id="Icons" sketch:type="MSLayerGroup" transform="translate(169.000000, 499.000000)">
                <g id="icon-fire-extinguisher" transform="translate(248.000000, 402.000000)" sketch:type="MSShapeGroup">
                    <path d="M58,0.2 L26,10.3 C23.4,8.4 20.4,6.7 17.9,6.7 C7.3,6.7 1.7,15.7 0.3,20.7 L-0.1,21.1 L-0.1,22.8 L-0.1,27.1 L-0.1,90.5 C-0.1,96.9 9.2,99.2 17.8,99.2 C26.5,99.2 35.7,96.9 35.7,90.5 L35.7,27.1 L35.7,22.8 L35.7,21.1 L35.3,20.7 C35.3,20.6 35.2,20.5 35.2,20.3 L57.8,27.5 C59,27.9 60,27.2 60,25.9 L60,1.9 C60.2,0.6 59.2,-0.1 58,0.2 L58,0.2 Z" id="Shape" fill="#FFFFFF"></path>
                    <path d="M3.9,22.8 C3.9,21.1 7.9,11.1 17.5,11.1 C20.6,11.1 31.1,19.7 31.1,22.8 L3.9,22.8 L3.9,22.8 Z" id="Shape" stroke="#161616" stroke-width="0.9571"></path>
                    <path d="M17.5,17 C9.4,17 3.9,22.9 3.9,22.9 L3.9,90.6 C3.9,93 10,95 17.5,95 C25,95 31.1,93 31.1,90.6 L31.1,22.9 C31.1,22.8 25.6,17 17.5,17 L17.5,17 Z" id="Shape" fill="#F57C4F"></path>
                    <path d="M17.5,17 C9.4,17 3.9,22.9 3.9,22.9 L3.9,90.6 C3.9,93 10,95 17.5,95 C25,95 31.1,93 31.1,90.6 L31.1,22.9 C31.1,22.8 25.6,17 17.5,17 L17.5,17 Z" id="Shape" stroke="#161616" stroke-width="0.9571"></path>
                    <path d="M17.5,11.1 C7.9,11.1 3.9,21.2 3.9,22.8 L3.9,90.5 C3.9,92.9 10,94.9 17.5,94.9 C25,94.9 31.1,92.9 31.1,90.5 L31.1,22.8 C31.1,19.7 20.6,11.1 17.5,11.1 L17.5,11.1 Z" id="Shape" stroke="#161616" stroke-width="2.5169"></path>
                    <path d="M31,14.6 C29.8,14.2 29.8,13.6 31,13.2 L39.9,10.4 C41.1,10 43.1,9.4 44.3,9 L53.2,6.2 C54.4,5.8 55.4,6.5 55.4,7.8 L55.4,11.6 L55.4,16.3 L55.4,20.1 C55.4,21.4 54.4,22.1 53.2,21.7 L44.3,18.9 C43.1,18.5 41.1,17.9 39.9,17.5 L31,14.6 L31,14.6 Z" id="Shape" fill="#26C0D5"></path>
                    <path d="M31,14.6 C29.8,14.2 29.8,13.6 31,13.2 L39.9,10.4 C41.1,10 43.1,9.4 44.3,9 L53.2,6.2 C54.4,5.8 55.4,6.5 55.4,7.8 L55.4,11.6 L55.4,16.3 L55.4,20.1 C55.4,21.4 54.4,22.1 53.2,21.7 L44.3,18.9 C43.1,18.5 41.1,17.9 39.9,17.5 L31,14.6 L31,14.6 Z" id="Shape" stroke="#161616" stroke-width="2.5169"></path>
                    <ellipse id="Oval" fill="#FFFFFF" cx="17.6" cy="56" rx="7.6" ry="14"></ellipse>
                    <ellipse id="Oval" stroke="#161616" stroke-width="0.9571" cx="17.6" cy="56" rx="7.6" ry="14"></ellipse>
                </g>
            </g>
        </g>
    </g>
</svg>