<?xml version="1.0" encoding="UTF-8" standalone="no"?>
<svg width="59px" height="71px" viewBox="0 0 59 71" version="1.1" xmlns="http://www.w3.org/2000/svg" xmlns:xlink="http://www.w3.org/1999/xlink" xmlns:sketch="http://www.bohemiancoding.com/sketch/ns">
    <!-- Generator: Sketch 3.1.1 (8761) - http://www.bohemiancoding.com/sketch -->
    <title>icon-torch</title>
    <desc>Created with Sketch.</desc>
    <defs></defs>
    <g id="Page-1" stroke="none" stroke-width="1" fill="none" fill-rule="evenodd" sketch:type="MSPage">
        <g id="main_top-copy" sketch:type="MSLayerGroup" transform="translate(-472.000000, -1344.000000)">
            <g id="enter_hover" transform="translate(1.000000, 40.000000)" sketch:type="MSShapeGroup">
                <g id="icon-torch" transform="translate(471.000000, 1305.000000)">
                    <path d="M2.1,68.1 C-0.5,65.5 0.2,61.8 2.2,59.6 L25.6,33.8 C24.6,31.6 24.1,29.3 24.1,26.8 C24.1,12 38.9,1.5 39.5,1.1 L41.5,-0.3 L43.5,1.1 C43.6,1.2 45.9,2.8 48.7,5.6 C53.4,10.3 58.9,17.7 58.9,26.8 C58.9,31.5 57.1,35.8 53.8,39.1 C50.5,42.4 46.1,44.2 41.5,44.2 C40.1,44.2 38.7,44 37.3,43.7 L10.5,68 C8.4,69.9 4.7,70.7 2.1,68.1 L2.1,68.1 Z" id="Shape" fill="#FFFFFF"></path>
                    <g id="Group" transform="translate(3.000000, 2.000000)">
                        <path d="M38.6,38.7 C30.9,38.7 24.7,32.5 24.7,24.8 C24.7,11.7 38.6,2 38.6,2 C38.6,2 52.5,11.7 52.5,24.8 C52.5,32.4 46.3,38.7 38.6,38.7 L38.6,38.7 Z" id="Shape" fill="#F66534"></path>
                        <path d="M38.6,1.9 C38.6,1.9 52.5,11.6 52.5,24.7 C52.5,32.4 46.3,38.6 38.6,38.6 C30.9,38.6 24.7,32.4 24.7,24.7 C24.7,11.6 38.6,1.9 38.6,1.9 L38.6,1.9 Z M38.6,0.1 C38.2,0.1 37.9,0.2 37.5,0.4 C37.3,0.5 33.8,3 30.2,7.2 C25.4,12.9 22.8,18.9 22.8,24.7 C22.8,33.4 29.9,40.5 38.6,40.5 C47.3,40.5 54.4,33.4 54.4,24.7 C54.4,18.9 51.8,12.8 47,7.2 C43.4,3 39.8,0.5 39.7,0.4 C39.3,0.2 39,0.1 38.6,0.1 L38.6,0.1 L38.6,0.1 Z" id="Shape" fill="#2C3236"></path>
                        <path d="M38.6,33.8 C42.6,33.8 45.9,30.5 45.9,26.5 C45.9,19.5 38.6,11.6 38.6,11.6 C38.6,11.6 31.3,19.5 31.3,26.5 C31.3,30.5 34.6,33.8 38.6,33.8 L38.6,33.8 Z" id="Shape" fill="#FFFFFF"></path>
                        <path d="M43,5.7 L43,10.6" id="Shape" stroke="#2C3236" stroke-width="1.8427"></path>
                        <path d="M3.2,65.2 L-0.1,61.9 L33.5,24.9 L40.1,31.8 L3.2,65.2 Z" id="Shape" fill="#DFDFDF"></path>
                        <path d="M1.6,63.6 C-0.1,61.9 1.8,59.9 1.8,59.9 L33.7,24.8 L40.4,31.5 L5.3,63.3 C5.2,63.3 3.2,65.3 1.6,63.6 L1.6,63.6 Z" id="Shape" stroke="#2C3236" stroke-width="1.8427"></path>
                        <circle id="Oval" fill="#2C3236" cx="38.3" cy="26.3" r="7.3"></circle>
                        <circle id="Oval" stroke="#2C3236" stroke-width="0.7985" cx="38.3" cy="26.3" r="7.3"></circle>
                        <path d="M7.5,57.6 L30.9,34.2" id="Shape" stroke="#2C3236" stroke-width="0.7985"></path>
                    </g>
                </g>
            </g>
        </g>
    </g>
</svg>