<?xml version="1.0" encoding="UTF-8" standalone="no"?>
<svg width="66px" height="70px" viewBox="0 0 66 70" version="1.1" xmlns="http://www.w3.org/2000/svg" xmlns:xlink="http://www.w3.org/1999/xlink" xmlns:sketch="http://www.bohemiancoding.com/sketch/ns">
    <!-- Generator: Sketch 3.1 (8751) - http://www.bohemiancoding.com/sketch -->
    <title>icon-skull</title>
    <desc>Created with Sketch.</desc>
    <defs></defs>
    <g id="Page-1" stroke="none" stroke-width="1" fill="none" fill-rule="evenodd" sketch:type="MSPage">
        <g id="Главная" sketch:type="MSArtboardGroup" transform="translate(-476.000000, -558.000000)">
            <g id="Body" sketch:type="MSLayerGroup" transform="translate(290.000000, 374.000000)">
                <g id="icon-skull" transform="translate(186.000000, 185.000000)" sketch:type="MSShapeGroup">
                    <g id="Group" transform="translate(5.000000, 5.000000)" fill="#FFFFFF">
                        <path d="M0.4,27.6 C0.4,36.6 4.7,44.5 11.3,49.6 L11.3,49.6 C12.3,50.3 12.7,50.9 12.7,52.7 L12.7,54.6 L12.7,57.3 C12.7,57.7 12.9,57.9 13.3,57.9 L17.2,57.9 C17.6,57.9 17.8,57.7 17.8,57.3 L17.8,55.2 C17.8,54.8 18,54.6 18.4,54.6 L18.5,54.6 C18.9,54.6 19.1,54.8 19.1,55.2 L19.1,57.3 C19.1,57.7 19.3,57.9 19.7,57.9 L23.6,57.9 C24,57.9 24.2,57.7 24.2,57.3 L24.2,55.2 C24.2,54.8 24.4,54.6 24.8,54.6 L24.9,54.6 C25.3,54.6 25.5,54.8 25.5,55.2 L25.5,57.3 C25.5,57.7 25.7,57.9 26.1,57.9 L28.1,57.9 L28.1,0.1 C12.7,0.1 0.4,12.4 0.4,27.6 L0.4,27.6 Z" id="Shape"></path>
                        <path d="M55.5,27.6 C55.5,12.4 43.2,0 27.9,0 L27.9,57.8 L29.9,57.8 C30.3,57.8 30.5,57.6 30.5,57.2 L30.5,55.1 C30.5,54.7 30.7,54.5 31.1,54.5 L31.2,54.5 C31.6,54.5 31.8,54.7 31.8,55.1 L31.8,57.2 C31.8,57.6 32,57.8 32.4,57.8 L36.3,57.8 C36.7,57.8 36.9,57.6 36.9,57.2 L36.9,55.1 C36.9,54.7 37.1,54.5 37.5,54.5 L37.6,54.5 C38,54.5 38.2,54.7 38.2,55.1 L38.2,57.2 C38.2,57.6 38.4,57.8 38.8,57.8 L42.7,57.8 C43.1,57.8 43.3,57.6 43.3,57.2 L43.3,54.5 L43.3,52.6 C43.3,50.8 43.7,50.2 44.7,49.5 L44.7,49.5 C51.2,44.6 55.5,36.6 55.5,27.6 L55.5,27.6 Z" id="Shape"></path>
                    </g>
                    <path d="M32.9,-0.3 C14.7,-0.3 0,14.5 0,32.6 C0,40.6 2.9,48.3 8.1,54.3 L8.2,54.4 L12.3,58.3 L12.3,59.7 L12.3,65.1 L12.9,65.1 C13.9,67.1 15.9,68.4 18.3,68.4 L22.2,68.4 C22.6,68.4 23,68.4 23.4,68.3 C23.8,68.4 24.2,68.4 24.6,68.4 L28.5,68.4 C28.9,68.4 29.3,68.4 29.7,68.3 C30.1,68.4 30.5,68.4 30.9,68.4 L34.8,68.4 C35.2,68.4 35.6,68.4 36,68.3 C36.4,68.4 36.8,68.4 37.2,68.4 L41.1,68.4 C41.5,68.4 41.9,68.4 42.3,68.3 C42.7,68.4 43.1,68.4 43.5,68.4 L47.4,68.4 C49.7,68.4 51.8,67.1 52.8,65.1 L53.4,65.1 L53.4,58.4 L57.3,54.8 L57.4,54.7 C62.8,48.7 65.8,40.9 65.8,32.8 C65.8,14.5 51,-0.3 32.9,-0.3 L32.9,-0.3 Z" id="Shape" fill="#FFFFFF"></path>
                    <path d="M43.6,66.5 C43.2,66.5 42.8,66.4 42.4,66.3 C42,66.4 41.6,66.5 41.2,66.5 L37.3,66.5 C36.9,66.5 36.5,66.4 36.1,66.3 C35.7,66.4 35.3,66.5 34.9,66.5 L31,66.5 C30.6,66.5 30.2,66.4 29.8,66.3 C29.4,66.4 29,66.5 28.6,66.5 L24.7,66.5 C24.3,66.5 23.9,66.4 23.5,66.3 C23.1,66.4 22.7,66.5 22.3,66.5 L18.4,66.5 C16.3,66.5 14.7,65.1 14.3,63.2 L14,63.2 L14,59.6 L14,57.7 L14,57.4 L9.4,53.1 C4.5,47.5 1.7,40.3 1.7,32.6 C1.7,15.4 15.7,1.5 32.8,1.5 C50,1.5 64,15.5 64,32.6 C64,40.4 61.2,47.7 56.1,53.4 L51.7,57.4 L51.7,57.7 L51.7,63.1 L51.6,63.1 C51.2,65 49.6,66.4 47.5,66.4 L43.6,66.4 L43.6,66.5 Z" id="Shape" fill="#FEF3E6"></path>
                    <path d="M60.4,32.6 C60.4,17.4 48.1,5 32.8,5 L32.8,5 C17.6,5 5.2,17.3 5.2,32.6 C5.2,41.6 9.5,49.5 16.1,54.6 L16.1,54.6 C17.1,55.3 17.5,55.9 17.5,57.7 L17.5,59.6 L17.5,62.3 C17.5,62.7 17.7,62.9 18.1,62.9 L22,62.9 C22.4,62.9 22.6,62.7 22.6,62.3 L22.6,60.2 C22.6,59.8 22.8,59.6 23.2,59.6 L23.3,59.6 C23.7,59.6 23.9,59.8 23.9,60.2 L23.9,62.3 C23.9,62.7 24.1,62.9 24.5,62.9 L28.4,62.9 C28.8,62.9 29,62.7 29,62.3 L29,60.2 C29,59.8 29.2,59.6 29.6,59.6 L29.7,59.6 C30.1,59.6 30.3,59.8 30.3,60.2 L30.3,62.3 C30.3,62.7 30.5,62.9 30.9,62.9 L34.8,62.9 C35.2,62.9 35.4,62.7 35.4,62.3 L35.4,60.2 C35.4,59.8 35.6,59.6 36,59.6 L36.1,59.6 C36.5,59.6 36.7,59.8 36.7,60.2 L36.7,62.3 C36.7,62.7 36.9,62.9 37.3,62.9 L41.2,62.9 C41.6,62.9 41.8,62.7 41.8,62.3 L41.8,60.2 C41.8,59.8 42,59.6 42.4,59.6 L42.5,59.6 C42.9,59.6 43.1,59.8 43.1,60.2 L43.1,62.3 C43.1,62.7 43.3,62.9 43.7,62.9 L47.6,62.9 C48,62.9 48.2,62.7 48.2,62.3 L48.2,59.6 L48.2,57.7 C48.2,55.9 48.6,55.3 49.6,54.6 L49.6,54.6 C56.1,49.6 60.4,41.6 60.4,32.6 L60.4,32.6 Z" id="Shape" fill="#FFFFFF"></path>
                    <path d="M29.9,52.3 C29.3,52.3 29,51.8 29.3,51.3 L32.3,46.1 C32.6,45.5 33.1,45.5 33.5,46.1 L36.5,51.3 C36.8,51.9 36.6,52.3 35.9,52.3 L29.9,52.3 L29.9,52.3 Z" id="Shape" fill="#231E20"></path>
                    <path d="M28.7,33.9 C28,31.7 25.6,30.5 23.5,31.2 L23.3,31.3 L23.3,31 C23.3,28.7 21.4,26.8 19.1,26.8 C16.8,26.8 14.9,28.7 14.9,31 L14.9,31.3 L14.7,31.2 C12.5,30.5 10.2,31.7 9.5,33.9 C8.8,36.1 10,38.4 12.2,39.1 L12.4,39.2 L12.3,39.4 C11,41.3 11.4,43.9 13.2,45.2 C15.1,46.5 17.7,46.1 19,44.3 L19.1,44.1 L19.2,44.3 C20.5,46.2 23.1,46.6 25,45.2 C26.9,43.9 27.3,41.3 25.9,39.4 L25.8,39.2 L26,39.1 C28.3,38.5 29.5,36.1 28.7,33.9 L28.7,33.9 Z" id="Shape" fill="#F57C4F"></path>
                    <path d="M28.7,33.9 C28,31.7 25.6,30.5 23.5,31.2 L23.3,31.3 L23.3,31 C23.3,28.7 21.4,26.8 19.1,26.8 C16.8,26.8 14.9,28.7 14.9,31 L14.9,31.3 L14.7,31.2 C12.5,30.5 10.2,31.7 9.5,33.9 C8.8,36.1 10,38.4 12.2,39.1 L12.4,39.2 L12.3,39.4 C11,41.3 11.4,43.9 13.2,45.2 C15.1,46.5 17.7,46.1 19,44.3 L19.1,44.1 L19.2,44.3 C20.5,46.2 23.1,46.6 25,45.2 C26.9,43.9 27.3,41.3 25.9,39.4 L25.8,39.2 L26,39.1 C28.3,38.5 29.5,36.1 28.7,33.9 L28.7,33.9 Z" id="Shape" stroke="#161616" stroke-width="0.9615"></path>
                    <circle id="Oval" fill="#231E20" cx="19.1" cy="37.1" r="4.1"></circle>
                    <path d="M56.3,33.9 C55.6,31.7 53.2,30.5 51.1,31.2 L50.9,31.3 L50.9,31 C50.9,28.7 49,26.8 46.7,26.8 C44.4,26.8 42.5,28.7 42.5,31 L42.5,31.3 L42.3,31.2 C40.1,30.5 37.8,31.7 37.1,33.9 C36.4,36.1 37.6,38.4 39.8,39.1 L40,39.2 L39.9,39.4 C38.6,41.3 39,43.9 40.8,45.2 C42.7,46.5 45.3,46.1 46.6,44.3 L46.7,44.1 L46.8,44.3 C48.1,46.2 50.7,46.6 52.6,45.2 C54.5,43.8 54.9,41.3 53.5,39.4 L53.3,39.2 L53.5,39.1 C55.8,38.5 57,36.1 56.3,33.9 L56.3,33.9 Z" id="Shape" fill="#F57C4F"></path>
                    <path d="M56.3,33.9 C55.6,31.7 53.2,30.5 51.1,31.2 L50.9,31.3 L50.9,31 C50.9,28.7 49,26.8 46.7,26.8 C44.4,26.8 42.5,28.7 42.5,31 L42.5,31.3 L42.3,31.2 C40.1,30.5 37.8,31.7 37.1,33.9 C36.4,36.1 37.6,38.4 39.8,39.1 L40,39.2 L39.9,39.4 C38.6,41.3 39,43.9 40.8,45.2 C42.7,46.5 45.3,46.1 46.6,44.3 L46.7,44.1 L46.8,44.3 C48.1,46.2 50.7,46.6 52.6,45.2 C54.5,43.8 54.9,41.3 53.5,39.4 L53.3,39.2 L53.5,39.1 C55.8,38.5 57,36.1 56.3,33.9 L56.3,33.9 Z" id="Shape" stroke="#161616" stroke-width="0.9615"></path>
                    <path d="M50.8,37.1 C50.8,39.4 49,41.2 46.7,41.2 C44.4,41.2 42.6,39.3 42.6,37.1 C42.6,34.8 44.4,33 46.7,33 C49,32.9 50.8,34.8 50.8,37.1 L50.8,37.1 Z" id="Shape" fill="#231E20"></path>
                    <path d="M32.9,5.1 C48.1,5.1 60.5,17.4 60.5,32.7 C60.5,41.7 56.2,49.6 49.6,54.7 C48.6,55.4 48.2,56 48.2,57.8 L48.2,59.7 L48.2,62.4 C48.2,62.8 48,63 47.6,63 L43.7,63 C43.3,63 43.1,62.8 43.1,62.4 L43.1,60.3 C43.1,59.9 42.9,59.7 42.5,59.7 L42.4,59.7 C42,59.7 41.8,59.9 41.8,60.3 L41.8,62.4 C41.8,62.8 41.6,63 41.2,63 L37.3,63 C36.9,63 36.7,62.8 36.7,62.4 L36.7,60.3 C36.7,59.9 36.5,59.7 36.1,59.7 L36,59.7 C35.6,59.7 35.4,59.9 35.4,60.3 L35.4,62.4 C35.4,62.8 35.2,63 34.8,63 L30.9,63 C30.5,63 30.3,62.8 30.3,62.4 L30.3,60.3 C30.3,59.9 30.1,59.7 29.7,59.7 L29.6,59.7 C29.2,59.7 29,59.9 29,60.3 L29,62.4 C29,62.8 28.8,63 28.4,63 L24.5,63 C24.1,63 23.9,62.8 23.9,62.4 L23.9,60.3 C23.9,59.9 23.7,59.7 23.3,59.7 L23.2,59.7 C22.8,59.7 22.6,59.9 22.6,60.3 L22.6,62.4 C22.6,62.8 22.4,63 22,63 L18.1,63 C17.7,63 17.5,62.8 17.5,62.4 L17.5,59.7 L17.5,57.8 C17.5,56 17.1,55.4 16.1,54.7 L16.1,54.7 C9.5,49.7 5.2,41.7 5.2,32.7 C5.3,17.4 17.6,5.1 32.9,5.1 L32.9,5.1 L32.9,5.1 Z M32.9,2.6 L32.9,2.6 C16.3,2.6 2.8,16.1 2.8,32.7 C2.8,42.2 7.1,50.9 14.7,56.6 L14.8,56.7 C14.9,56.8 15,56.9 15,56.9 C15,57 15.1,57.2 15.1,57.8 L15.1,59.7 L15.1,60 L15.1,62.4 C15.1,64.2 16.4,65.5 18.2,65.5 L22.1,65.5 C22.5,65.5 22.9,65.4 23.3,65.3 C23.7,65.5 24.1,65.5 24.5,65.5 L28.4,65.5 C28.8,65.5 29.2,65.4 29.6,65.3 C30,65.5 30.4,65.5 30.8,65.5 L34.7,65.5 C35.1,65.5 35.5,65.4 35.9,65.3 C36.3,65.5 36.7,65.5 37.1,65.5 L41,65.5 C41.4,65.5 41.8,65.4 42.2,65.3 C42.6,65.5 43,65.5 43.4,65.5 L47.3,65.5 C49.1,65.5 50.4,64.1 50.4,62.4 L50.4,60 L50.4,59.8 L50.4,57.9 C50.4,57.3 50.5,57.1 50.5,57 L50.7,56.8 L50.8,56.8 C58.4,51.1 62.7,42.3 62.7,32.8 C63,16 49.5,2.6 32.9,2.6 L32.9,2.6 L32.9,2.6 Z" id="Shape" fill="#161616"></path>
                    <circle id="Oval" fill="#F57C4F" cx="32.9" cy="16.9" r="0.9"></circle>
                    <circle id="Oval" fill="#F57C4F" cx="32.9" cy="20.9" r="0.9"></circle>
                    <circle id="Oval" fill="#F57C4F" cx="32.9" cy="25.9" r="0.9"></circle>
                    <circle id="Oval" fill="#F57C4F" cx="32.9" cy="29.9" r="0.9"></circle>
                    <circle id="Oval" fill="#F57C4F" cx="41.9" cy="43.9" r="0.9"></circle>
                    <path d="M30.1,19.5 C30.1,19.5 26.8,12.3 21.8,12.3 C18.6,12.3 15,14.5 15,18.4 C15,20.7 16.9,24.2 21.1,24.2" id="Shape" stroke="#161616" stroke-width="0.9615"></path>
                    <path d="M30.1,14.6 C30.1,14.6 26.4,10.8 30.3,8.1" id="Shape" stroke="#161616" stroke-width="0.9615"></path>
                    <path d="M25.6,17.7 C22.9,19.6 23.3,26 30.1,25.7" id="Shape" stroke="#161616" stroke-width="0.9615"></path>
                    <path d="M40.8,17.7 C43.5,19.6 43.1,26 36.3,25.7" id="Shape" stroke="#161616" stroke-width="0.9615"></path>
                    <path d="M14.2,23.3 C14.2,23.3 11.4,23.8 9.9,27.3" id="Shape" stroke="#161616" stroke-width="0.9615"></path>
                    <path d="M35.7,19.5 C35.7,19.5 39,12.3 44,12.3 C47.2,12.3 50.8,14.5 50.8,18.4 C50.8,20.7 48.9,24.2 44.7,24.2" id="Shape" stroke="#161616" stroke-width="0.9615"></path>
                    <path d="M35.7,14.6 C35.7,14.6 39.4,10.8 35.5,8.1" id="Shape" stroke="#161616" stroke-width="0.9615"></path>
                    <path d="M51.7,23.3 C51.7,23.3 54.5,23.8 56,27.3" id="Shape" stroke="#161616" stroke-width="0.9615"></path>
                    <circle id="Oval" fill="#F57C4F" cx="57.6" cy="29.6" r="0.6"></circle>
                    <circle id="Oval" fill="#F57C4F" cx="8.6" cy="29.6" r="0.6"></circle>
                    <path d="M46.3,48.7 C46.3,48.7 46.6,55.4 39.3,54.6" id="Shape" stroke="#161616" stroke-width="0.9615"></path>
                    <path d="M19.4,48.7 C19.4,48.7 19.1,55.4 26.4,54.6" id="Shape" stroke="#161616" stroke-width="0.9615"></path>
                    <circle id="Oval" fill="#FFFFFF" cx="46.5" cy="29.5" r="0.5"></circle>
                    <path d="M39.9,34.2 C40.1,34.3 40.3,34.5 40.2,34.8 C40.1,35 39.9,35.2 39.6,35.1 C39.4,35 39.2,34.8 39.3,34.5 C39.4,34.2 39.6,34.1 39.9,34.2 L39.9,34.2 Z" id="Shape" fill="#FFFFFF"></path>
                    <circle id="Oval" fill="#FFFFFF" cx="42.5" cy="42.5" r="0.5"></circle>
                    <path d="M50.5,43.4 C50.4,43.2 50.4,42.9 50.6,42.7 C50.8,42.5 51.1,42.6 51.3,42.8 C51.5,43 51.4,43.3 51.2,43.5 C50.9,43.7 50.7,43.6 50.5,43.4 L50.5,43.4 Z" id="Shape" fill="#FFFFFF"></path>
                    <circle id="Oval" fill="#FFFFFF" cx="53.5" cy="35.5" r="0.5"></circle>
                    <circle id="Oval" fill="#FFFFFF" cx="18.5" cy="29.5" r="0.5"></circle>
                    <circle id="Oval" fill="#FFFFFF" cx="26.5" cy="34.5" r="0.5"></circle>
                    <path d="M24,42.7 C23.8,42.5 23.6,42.4 23.3,42.6 C23.1,42.7 23,43 23.2,43.2 C23.3,43.4 23.6,43.5 23.8,43.3 C24.1,43.2 24.1,42.9 24,42.7 L24,42.7 Z" id="Shape" fill="#FFFFFF"></path>
                    <path d="M15.3,43.4 C15.5,43.2 15.4,42.9 15.2,42.7 C15,42.5 14.7,42.6 14.5,42.8 C14.3,43 14.4,43.3 14.6,43.5 C14.9,43.7 15.1,43.6 15.3,43.4 L15.3,43.4 Z" id="Shape" fill="#FFFFFF"></path>
                    <path d="M11.9,35.4 C12.1,35.5 12.4,35.3 12.5,35.1 C12.6,34.9 12.4,34.6 12.2,34.5 C12,34.4 11.7,34.6 11.6,34.8 C11.5,35.1 11.6,35.3 11.9,35.4 L11.9,35.4 Z" id="Shape" fill="#FFFFFF"></path>
                </g>
            </g>
        </g>
    </g>
</svg>