<?xml version="1.0" encoding="UTF-8" standalone="no"?>
<svg width="92px" height="91px" viewBox="0 0 92 91" version="1.1" xmlns="http://www.w3.org/2000/svg" xmlns:xlink="http://www.w3.org/1999/xlink" xmlns:sketch="http://www.bohemiancoding.com/sketch/ns">
    <!-- Generator: Sketch 3.1.1 (8761) - http://www.bohemiancoding.com/sketch -->
    <title>icon-mask</title>
    <desc>Created with Sketch.</desc>
    <defs></defs>
    <g id="Page-1" stroke="none" stroke-width="1" fill="none" fill-rule="evenodd" sketch:type="MSPage">
        <g id="main_top-copy" sketch:type="MSLayerGroup" transform="translate(-847.000000, -1116.000000)">
            <g id="enter_hover" transform="translate(1.000000, 40.000000)" sketch:type="MSShapeGroup">
                <g id="icon-mask" transform="translate(847.000000, 1076.000000)">
                    <path d="M45.1,91 C33,91 21.6,86.3 13,77.7 C4.4,69.1 -0.3,57.7 -0.3,45.6 C-0.3,33.5 4.4,22.1 13,13.5 C21.6,4.9 33,0.2 45.1,0.2 C57.2,0.2 68.6,4.9 77.2,13.5 C85.8,22.1 90.5,33.5 90.5,45.6 C90.5,57.7 85.8,69.1 77.2,77.7 C68.6,86.2 57.2,91 45.1,91 L45.1,91 Z" id="Shape" fill="#FFFFFF"></path>
                    <circle id="Oval" fill="#F66534" cx="44.9" cy="45.9" r="41.9"></circle>
                    <circle id="Oval" fill="#8ECC00" cx="45" cy="46" r="38"></circle>
                    <path d="M45.1,7.5 C54.8,7.5 64.6,11.2 72,18.6 C86.9,33.5 86.9,57.5 72,72.4 C64.6,79.8 54.8,83.5 45.1,83.5 C35.4,83.5 25.6,79.8 18.2,72.4 C3.3,57.5 3.3,33.5 18.2,18.6 C25.6,11.2 35.4,7.5 45.1,7.5 L45.1,7.5 Z M45.1,6.6 L45.1,7.5 L45.1,6.6 C34.7,6.6 24.9,10.6 17.6,18 C10.2,25.4 6.2,35.1 6.2,45.5 C6.2,55.9 10.2,65.7 17.6,73 C25,80.4 34.7,84.4 45.1,84.4 C55.5,84.4 65.3,80.4 72.6,73 C87.8,57.8 87.8,33.1 72.6,18 C65.3,10.7 55.5,6.6 45.1,6.6 L45.1,6.6 L45.1,6.6 Z" id="Shape" fill="#2C3236"></path>
                    <path d="M45.1,3.6 C55.8,3.6 66.6,7.7 74.8,15.9 C91.2,32.3 91.2,58.8 74.8,75.2 C66.6,83.4 55.9,87.5 45.1,87.5 C34.4,87.5 23.6,83.4 15.4,75.2 C-1,58.8 -1,32.3 15.4,15.9 C23.6,7.7 34.4,3.6 45.1,3.6 L45.1,3.6 Z M45.1,1.8 L45.1,3.6 L45.1,1.8 C33.4,1.8 22.4,6.4 14.1,14.6 C5.8,22.9 1.3,33.9 1.3,45.6 C1.3,57.3 5.9,68.3 14.1,76.6 C22.4,84.9 33.4,89.4 45.1,89.4 C56.8,89.4 67.8,84.8 76.1,76.6 C93.2,59.5 93.2,31.8 76.1,14.7 C67.8,6.3 56.8,1.8 45.1,1.8 L45.1,1.8 L45.1,1.8 Z" id="Shape" fill="#2C3236"></path>
                    <g id="Group" transform="translate(30.000000, 52.000000)" stroke="#2C3236" stroke-width="0.8916">
                        <path d="M8.1,15.7 C3.8,15.7 0.2,12.2 0.2,7.8 C0.2,3.5 3.7,-0.1 8.1,-0.1 L22.2,-0.1 C26.7,-0.1 30.1,3.3 30.1,7.8 C30.1,12.1 26.6,15.7 22.2,15.7 L8.1,15.7 L8.1,15.7 Z" id="Shape"></path>
                        <path d="M22.1,3.5 C24.8,3.5 26.5,5.5 26.5,7.9 C26.5,10.3 24.5,12.3 22.1,12.3 L22.1,12.3 L8,12.3 C5.6,12.3 3.6,10.3 3.6,7.9 C3.6,5.5 5.6,3.5 8,3.5 L8,3.5 L22.1,3.5 L22.1,3.5 Z" id="Shape"></path>
                    </g>
                    <path d="M58.2,33.9 C62.1,33.9 64.7,36.7 65.4,37.6 C66.5,38.9 66.5,40.7 65.5,42 C65,42.6 62.4,45.8 58.2,45.8 C54,45.8 51.4,42.7 50.9,42 C49.9,40.6 49.9,38.9 51,37.6 C51.7,36.7 54.3,33.9 58.2,33.9 L58.2,33.9 Z M58.2,33 C53.9,33 51.1,36.1 50.3,37 C49,38.6 48.9,40.8 50.2,42.5 C50.7,43.2 53.5,46.6 58.2,46.6 C62.9,46.6 65.7,43.2 66.2,42.5 C67.5,40.8 67.4,38.6 66.1,37 C65.3,36 62.5,33 58.2,33 L58.2,33 L58.2,33 Z" id="Shape" fill="#2C3236"></path>
                    <g id="Group" transform="translate(52.000000, 36.000000)">
                        <path d="M6.2,7.1 C3.1,7.1 1.2,4.7 1,4.4 C0.7,4 0.7,3.6 1,3.2 C1.5,2.6 3.4,0.5 6.2,0.5 C9,0.5 10.9,2.6 11.4,3.2 C11.7,3.6 11.7,4 11.4,4.4 C11.1,4.7 9.2,7.1 6.2,7.1 L6.2,7.1 Z" id="Shape" fill="#FFFFFF"></path>
                        <path d="M6.2,0.9 C9,0.9 10.9,3.3 11,3.4 C11.1,3.6 11.2,3.8 11,4 C10.8,4.2 9,6.5 6.2,6.5 C3.4,6.5 1.6,4.2 1.4,4 C1.2,3.7 1.3,3.5 1.4,3.4 C1.5,3.3 3.3,0.9 6.2,0.9 L6.2,0.9 Z M6.2,0 C3.2,0 1.2,2.2 0.7,2.9 C0.3,3.4 0.3,4.1 0.7,4.7 C0.9,5 3,7.6 6.2,7.6 C9.5,7.6 11.5,5 11.7,4.7 C12.1,4.1 12.1,3.5 11.7,3 C11.1,2.2 9.1,0 6.2,0 L6.2,0 L6.2,0 Z" id="Shape" fill="#2C3236"></path>
                    </g>
                    <path d="M32,33.9 C35.9,33.9 38.5,36.7 39.2,37.6 C40.3,38.9 40.3,40.7 39.3,42 C38.8,42.6 36.3,45.8 32,45.8 C27.8,45.8 25.2,42.7 24.7,42 C23.7,40.6 23.7,38.9 24.8,37.6 C25.5,36.7 28.1,33.9 32,33.9 L32,33.9 Z M32,33 C27.7,33 24.9,36.1 24.1,37 C22.8,38.6 22.7,40.8 24,42.5 C24.5,43.2 27.3,46.6 32,46.6 C36.7,46.6 39.5,43.2 40,42.5 C41.3,40.8 41.2,38.6 39.9,37 C39.2,36 36.4,33 32,33 L32,33 L32,33 Z" id="Shape" fill="#2C3236"></path>
                    <g id="Group" transform="translate(26.000000, 36.000000)">
                        <path d="M6,7.1 C3,7.1 1,4.7 0.8,4.4 C0.5,4 0.5,3.6 0.8,3.2 C1.3,2.6 3.2,0.5 6,0.5 C8.8,0.5 10.7,2.6 11.2,3.2 C11.5,3.6 11.5,4 11.2,4.4 C11,4.7 9.1,7.1 6,7.1 L6,7.1 Z" id="Shape" fill="#FFFFFF"></path>
                        <path d="M6,0.9 C8.8,0.9 10.7,3.3 10.8,3.4 C10.9,3.6 11,3.8 10.8,4 C10.6,4.2 8.8,6.5 6,6.5 C3.2,6.5 1.4,4.2 1.2,4 C1,3.7 1.1,3.5 1.2,3.4 C1.3,3.3 3.2,0.9 6,0.9 L6,0.9 Z M6,0 C3,0 1,2.2 0.5,2.9 C0.1,3.4 0.1,4.1 0.5,4.6 C0.7,4.9 2.8,7.5 6,7.5 C9.3,7.5 11.3,4.9 11.5,4.6 C11.9,4 11.9,3.4 11.5,2.9 C11,2.2 9,0 6,0 L6,0 L6,0 Z" id="Shape" fill="#2C3236"></path>
                    </g>
                    <path d="M72,18.7 C57.1,3.8 33.1,3.8 18.2,18.7 C16.6,20.3 15.2,22 14,23.7 L76.2,23.7 C75,21.9 73.6,20.2 72,18.7 L72,18.7 Z" id="Shape" fill="#F66534"></path>
                    <circle id="Oval" stroke="#2C3236" stroke-width="0.8916" fill="#FFFFFF" cx="32.4" cy="39.4" r="3.4"></circle>
                    <path d="M59.8,27.2 L30.5,27.2 C23.5,27.2 17.9,32.9 17.9,39.8 C17.9,45.6 21.8,50.4 27,51.9 C27,51.9 28.2,52.2 28.2,51.2 L28.2,49.4 C28.2,48.6 27.6,48.4 27.2,48.3 C23.8,47 21.3,43.7 21.3,39.8 C21.3,34.8 25.4,30.7 30.4,30.7 L59.7,30.7 C65.2,30.7 68.8,34.8 68.8,39.8 C68.8,43.7 66.3,47.1 62.8,48.4 C62.5,48.5 62,48.9 62,49.6 L62,51.4 C62,52 62.6,52.1 62.9,52 C68.3,50.6 72.4,45.7 72.4,39.8 C72.4,32.6 66.9,27.2 59.8,27.2 L59.8,27.2 Z" id="Shape" fill="#F66534"></path>
                    <circle id="Oval" stroke="#2C3236" stroke-width="0.8916" fill="#FFFFFF" cx="58.4" cy="39.4" r="3.4"></circle>
                    <path d="M59.8,27.2 L30.5,27.2 C23.5,27.2 17.9,32.9 17.9,39.8 C17.9,45.6 21.8,50.4 27,51.9 C27,51.9 28.2,52.2 28.2,51.2 L28.2,49.4 C28.2,48.6 27.6,48.4 27.2,48.3 C23.8,47 21.3,43.7 21.3,39.8 C21.3,34.8 25.4,30.7 30.4,30.7 L59.7,30.7 C65.2,30.7 68.8,34.8 68.8,39.8 C68.8,43.7 66.3,47.1 62.8,48.4 C62.5,48.5 62,48.9 62,49.6 L62,51.4 C62,52 62.6,52.1 62.9,52 C68.3,50.6 72.4,45.7 72.4,39.8 C72.4,32.6 66.9,27.2 59.8,27.2 L59.8,27.2 Z" id="Shape" stroke="#2C3236" stroke-width="0.8916"></path>
                    <circle id="Oval" stroke="#2C3236" stroke-width="0.8916" cx="19.4" cy="60.4" r="8.4"></circle>
                    <circle id="Oval" fill="#F66534" cx="18.8" cy="60.8" r="3.8"></circle>
                    <circle id="Oval" fill="#8ECC00" cx="45" cy="16" r="7"></circle>
                    <circle id="Oval" fill="#8ECC00" cx="29.2" cy="19.2" r="4.2"></circle>
                    <circle id="Oval" stroke="#2C3236" stroke-width="0.8916" cx="18.8" cy="60.8" r="3.8"></circle>
                    <circle id="Oval" stroke="#2C3236" stroke-width="0.8916" cx="45" cy="16" r="7"></circle>
                    <circle id="Oval" stroke="#2C3236" stroke-width="0.8916" cx="29.2" cy="19.2" r="4.2"></circle>
                    <circle id="Oval" fill="#F66534" cx="28.8" cy="18.8" r="1.8"></circle>
                    <circle id="Oval" stroke="#2C3236" stroke-width="0.8916" cx="28.8" cy="18.8" r="1.8"></circle>
                    <path d="M11.4,27.2 L78.6,27.2" id="Shape" stroke="#2C3236" stroke-width="0.8916"></path>
                    <path d="M13.9,23.7 L76.8,23.7" id="Shape" stroke="#2C3236" stroke-width="0.8916"></path>
                    <path d="M56.4,59.9 C56.4,57.5 54.7,55.5 52,55.5 L37.9,55.5 C35.5,55.5 33.5,57.5 33.5,59.9 L56.4,59.9 L56.4,59.9 Z" id="Shape" stroke="#2C3236" stroke-width="0.8916" fill="#FFFFFF"></path>
                    <path d="M14.5,27.2 C11.3,32.6 9.4,38.9 9.4,45.6 C9.4,49.7 10.1,53.6 11.3,57.2" id="Shape" stroke="#2C3236" stroke-width="0.8916"></path>
                    <path d="M14,53.7 C13.3,51.1 12.9,48.3 12.9,45.5 C12.9,38.7 15,32.3 18.7,27.1" id="Shape" stroke="#2C3236" stroke-width="0.8916"></path>
                    <path d="M33.7,59.9 L56.4,59.9" id="Shape" stroke="#2C3236" stroke-width="0.8916"></path>
                    <path d="M42.7,30.7 L42.7,47.8 C42.7,49.1 43.7,50.1 45,50.1 C46.3,50.1 47.3,49.1 47.3,47.8 L47.3,30.7 L42.7,30.7 L42.7,30.7 Z" id="Shape" stroke="#2C3236" stroke-width="0.8916"></path>
                    <path d="M38.7,59.9 L38.7,75.2 C38.7,78.7 41.5,81.5 45,81.5 C48.5,81.5 51.3,78.7 51.3,75.2 L51.3,59.9 L38.7,59.9 L38.7,59.9 Z" id="Shape" fill="#F66534"></path>
                    <path d="M38.7,59.9 L38.7,75.2 C38.7,78.7 41.5,81.5 45,81.5 C48.5,81.5 51.3,78.7 51.3,75.2 L51.3,59.9 L38.7,59.9 L38.7,59.9 Z" id="Shape" stroke="#2C3236" stroke-width="0.8916"></path>
                    <path d="M18.8,60.5 C23,67.9 30.1,73.3 38.6,75.2" id="Shape" stroke="#2C3236" stroke-width="0.8916"></path>
                    <circle id="Oval" stroke="#2C3236" stroke-width="0.8916" cx="71.4" cy="60.4" r="8.4"></circle>
                    <circle id="Oval" fill="#F66534" cx="70.8" cy="60.8" r="3.8"></circle>
                    <circle id="Oval" fill="#8ECC00" cx="61.2" cy="19.2" r="4.2"></circle>
                    <circle id="Oval" fill="#F66534" cx="60.8" cy="18.8" r="1.8"></circle>
                    <circle id="Oval" stroke="#2C3236" stroke-width="0.8916" cx="60.8" cy="18.8" r="1.8"></circle>
                    <path d="M75.7,27.2 C78.9,32.6 80.8,38.9 80.8,45.6 C80.8,49.7 80.1,53.6 78.9,57.2" id="Shape" stroke="#2C3236" stroke-width="0.8916"></path>
                    <path d="M76.3,53.7 C77,51.1 77.4,48.3 77.4,45.5 C77.4,38.7 75.3,32.3 71.6,27.1" id="Shape" stroke="#2C3236" stroke-width="0.8916"></path>
                    <path d="M71.4,60.5 C67.2,67.9 60.1,73.3 51.6,75.2" id="Shape" stroke="#2C3236" stroke-width="0.8916"></path>
                    <circle id="Oval" stroke="#2C3236" stroke-width="0.8916" cx="70.8" cy="60.8" r="3.8"></circle>
                    <circle id="Oval" stroke="#2C3236" stroke-width="0.8916" cx="61.2" cy="19.2" r="4.2"></circle>
                    <path d="M45,63.2 L45,77.2" id="Shape" stroke="#2C3236" stroke-width="0.8916"></path>
                    <path d="M54.4,16.6 C54.4,17.6 53.6,18.3 52.7,18.3 L37.7,18.3 C36.7,18.3 36,17.5 36,16.6 L36,16.2 C36,15.2 36.8,14.5 37.7,14.5 L52.7,14.5 C53.7,14.5 54.4,15.3 54.4,16.2 L54.4,16.6 L54.4,16.6 Z" id="Shape" fill="#F66534"></path>
                    <path d="M54.4,16.6 C54.4,17.6 53.6,18.3 52.7,18.3 L37.7,18.3 C36.7,18.3 36,17.5 36,16.6 L36,16.2 C36,15.2 36.8,14.5 37.7,14.5 L52.7,14.5 C53.7,14.5 54.4,15.3 54.4,16.2 L54.4,16.6 L54.4,16.6 Z" id="Shape" stroke="#2C3236" stroke-width="0.8916"></path>
                    <circle id="Oval" fill="#F66534" cx="32.1" cy="40.1" r="1.1"></circle>
                    <circle id="Oval" fill="#F66534" cx="58.1" cy="40.1" r="1.1"></circle>
                </g>
            </g>
        </g>
    </g>
</svg>