<?xml version="1.0" encoding="UTF-8" standalone="no"?>
<svg width="60px" height="81px" viewBox="0 0 60 81" version="1.1" xmlns="http://www.w3.org/2000/svg" xmlns:xlink="http://www.w3.org/1999/xlink" xmlns:sketch="http://www.bohemiancoding.com/sketch/ns">
    <!-- Generator: Sketch 3.1.1 (8761) - http://www.bohemiancoding.com/sketch -->
    <title>icon-bat</title>
    <desc>Created with Sketch.</desc>
    <defs></defs>
    <g id="Page-1" stroke="none" stroke-width="1" fill="none" fill-rule="evenodd" sketch:type="MSPage">
        <g id="main_top-copy" sketch:type="MSLayerGroup" transform="translate(-592.000000, -1032.000000)">
            <g id="enter_hover" transform="translate(1.000000, 40.000000)" sketch:type="MSShapeGroup">
                <g id="icon-bat" transform="translate(591.000000, 992.000000)">
                    <path d="M9.9,26.7 C10.9,25.3 12.4,25.1 13,25 C21.6,24 27.5,21.5 30.1,17.8 C31.4,16 32.2,13.4 32.3,12.9 C32.4,12.5 32.6,11.9 33,11.4 C33.5,10.7 34.5,9.8 36.4,9.8 C37.8,9.8 41.1,9.4 42.3,8.5 C42.9,8 43.5,7.4 44.1,6.5 C44.3,6.2 44.5,6 44.6,5.8 C44.7,5.6 44.8,5.5 44.9,5.4 C46.2,3.5 48,3.7 48.7,3.8 L48.8,3.8 C51,4 51.4,3.3 52.2,2.2 L52.6,1.6 C53.4,0.4 54.9,-0.2 56.1,0.1 C56.7,0.2 58.3,0.8 58.7,3.2 C59.2,6.5 60.5,17.8 54.7,26.1 C52.3,29.6 49.6,31 47.1,32.4 C44.5,33.8 42.1,35.2 39.4,38.9 L42.4,41 C43.6,41.8 43.9,43.4 43.2,44.5 C42.3,45.8 40.9,45.8 40.1,45.9 L40,45.9 C39.9,46.3 39.6,46.8 39.3,47.3 C38.9,47.8 38.5,48.2 38.2,48.5 L38.2,48.6 C38.4,49.3 38.9,50.7 38,52 C37.2,53.1 35.7,53.3 34.5,52.5 L31.5,50.4 C29,54.2 28.6,56.9 28.1,59.9 C27.6,62.8 27.2,65.7 24.7,69.2 C18.9,77.5 7.8,80.2 4.6,80.8 C2.2,81.3 1.1,80 0.8,79.5 C0.1,78.4 0.2,76.8 1,75.7 L1.4,75.1 C2.2,73.9 2.7,73.3 1.8,71.3 L1.7,71.2 C1.4,70.5 0.6,68.9 1.9,67.1 C2,67 2.1,66.9 2.2,66.7 C2.3,66.5 2.5,66.3 2.7,66 C3.3,65.1 3.7,64.3 3.9,63.6 C4.3,62.2 3.6,59 3.1,57.6 C2.5,55.8 2.9,54.6 3.4,53.8 C3.8,53.2 4.3,52.9 4.6,52.7 C5.1,52.4 7.2,50.7 8.4,48.9 C11,45.2 11.3,38.8 9.3,30.4 C9.2,29.6 8.9,28.2 9.9,26.7 L9.9,26.7 Z" id="Shape" fill="#FFFFFF"></path>
                    <path d="M4.2,78.7 C5,78.5 17.2,76.4 23.1,67.9 C27.7,61.3 24.4,57 30.3,48.6 C30.7,48.1 31.6,47.8 32.3,48.3 C32.3,48.3 35.4,50.5 35.8,50.7 C35.9,50.8 36.3,51 36.5,50.7 C37.1,49.8 35.7,48.3 36.4,47.4 C36.6,47.1 37.3,46.8 37.8,46.1 C38.3,45.4 38.4,44.6 38.6,44.3 C39.3,43.3 41.1,44.2 41.8,43.3 C42,43.1 41.7,42.8 41.6,42.7 C41.3,42.5 38.1,40.3 38.1,40.3 C37.4,39.8 37.3,38.9 37.7,38.3 C43.6,29.9 48.8,31.5 53.4,25 C59.3,16.5 57.2,4.4 57,3.6 C56.7,1.7 55.2,1.9 54.6,2.8 C53.4,4.5 52.5,6.2 48.9,5.9 C48.2,5.8 47.5,5.7 46.8,6.7 C46.4,7.2 45.4,9.1 43.7,10.3 C41.8,11.7 37.8,12 36.6,12 C35.1,12 34.7,12.8 34.5,13.6 C34.3,14.3 33.4,17.1 32,19.2 C28.3,24.5 20.1,26.5 13.5,27.2 C12.9,27.3 12.3,27.4 11.8,28 C11.3,28.7 11.5,29.3 11.6,29.9 C13.1,36.4 14.1,44.7 10.4,50.1 C8.9,52.2 6.6,54 6,54.4 C5.3,54.8 4.7,55.5 5.2,56.9 C5.6,58 6.7,61.9 6,64.1 C5.4,66.1 4,67.7 3.7,68.2 C3,69.2 3.4,69.8 3.7,70.4 C5.2,73.6 4,75.1 2.7,76.8 C2,77.6 2.2,79.1 4.2,78.7 L4.2,78.7 Z" id="Shape" fill="#2C3236"></path>
                    <g id="Group" transform="translate(6.000000, 6.000000)">
                        <circle id="Oval" fill="#FFFFFF" cx="13.6" cy="27.6" r="0.6"></circle>
                        <circle id="Oval" fill="#FFFFFF" cx="25.6" cy="27.6" r="0.6"></circle>
                        <circle id="Oval" fill="#FFFFFF" cx="17.6" cy="38.6" r="0.6"></circle>
                        <circle id="Oval" fill="#FFFFFF" cx="37.6" cy="18.6" r="0.6"></circle>
                        <circle id="Oval" fill="#FFFFFF" cx="13.6" cy="53.6" r="0.6"></circle>
                        <circle id="Oval" fill="#F66534" cx="27.3" cy="39.3" r="1.3"></circle>
                        <circle id="Oval" fill="#F66534" cx="29.3" cy="36.3" r="1.3"></circle>
                        <circle id="Oval" fill="#2C3236" cx="27.4" cy="39.4" r="0.4"></circle>
                        <circle id="Oval" fill="#2C3236" cx="29.4" cy="36.4" r="0.4"></circle>
                        <path d="M29.2,18 C29.2,18 37.4,26.5 41.5,20.6 C43.1,18.3 41.9,15.9 40.6,14.9 C38.8,13.7 36.9,14.1 36.9,14.1" id="Shape" stroke="#FFFFFF" stroke-width="0.7985"></path>
                        <path d="M33.1,15.7 C35.4,14.2 35.5,10.5 31.3,9.7" id="Shape" stroke="#FFFFFF" stroke-width="0.7985"></path>
                        <path d="M47.7,11.1 C46.2,13.4 44.1,13.5 44.1,13.5" id="Shape" stroke="#FFFFFF" stroke-width="0.7985"></path>
                        <path d="M40.9,5.7 C41.4,5.7 41.8,6 42,6.5 L42,6.6 L42.1,6.6 C42.3,6.4 42.6,6.4 42.8,6.4 C43.2,6.4 43.5,6.6 43.7,6.9 C44.1,7.4 44,8.2 43.5,8.6 L43.4,8.6 L43.5,8.6 C44,9 44.2,9.7 43.8,10.2 C43.6,10.5 43.2,10.7 42.8,10.7 C42.6,10.7 42.3,10.6 42.1,10.5 L42,10.5 L42,10.6 C41.8,11.1 41.4,11.4 40.9,11.4 C40.8,11.4 40.7,11.4 40.6,11.3 C40,11.1 39.6,10.4 39.8,9.8 L39.8,9.7 L39.7,9.7 L39.7,9.7 C39.1,9.7 38.5,9.2 38.5,8.5 C38.5,7.8 39,7.3 39.7,7.3 L39.8,7.3 L39.8,7.2 C39.6,6.6 39.9,5.9 40.5,5.7 C40.7,5.7 40.8,5.7 40.9,5.7 L40.9,5.7 Z M40.9,4.9 L40.9,4.9 C40.7,4.9 40.5,4.9 40.3,5 C39.5,5.3 39,5.9 39,6.7 C38.8,6.8 38.6,6.9 38.4,7.1 C38,7.5 37.8,8 37.8,8.5 C37.8,9.3 38.3,10 39,10.3 C39,10.5 39.1,10.8 39.2,11 C39.4,11.5 39.9,11.8 40.4,12 C40.6,12.1 40.8,12.1 41,12.1 C41.6,12.1 42.1,11.8 42.5,11.4 L42.9,11.4 C43.5,11.4 44.2,11.1 44.5,10.6 C44.8,10.2 44.9,9.6 44.8,9.1 C44.8,8.9 44.7,8.6 44.5,8.4 C44.6,8.2 44.7,8 44.7,7.7 C44.8,7.2 44.6,6.7 44.3,6.2 C43.9,5.7 43.3,5.4 42.7,5.4 C42.5,5.4 42.4,5.4 42.2,5.5 C42,5.1 41.5,4.9 40.9,4.9 L40.9,4.9 L40.9,4.9 Z" id="Shape" fill="#FFFFFF"></path>
                        <path d="M48.6,0 C48.6,0 48.8,2.9 46.5,4.6" id="Shape" stroke="#FFFFFF" stroke-width="0.7985"></path>
                        <path d="M26,19.5 C26,19.5 33.1,24.9 29.5,30.1 C27.8,32.5 25.3,33 23.1,31.5 C18.1,28 23.7,24.2 23.7,24.2" id="Shape" stroke="#FFFFFF" stroke-width="0.7985"></path>
                        <path d="M24.5,17.2 C24.5,17.2 24.4,22.1 19.8,20.3" id="Shape" stroke="#FFFFFF" stroke-width="0.7985"></path>
                        <path d="M10,45.4 C10,45.4 20.8,50.2 16.6,56.1 C15,58.4 12.4,58.1 11,57.2 C9.2,56 8.9,54 8.9,54" id="Shape" stroke="#FFFFFF" stroke-width="0.7985"></path>
                        <path d="M9.2,49.8 C8.6,52.4 5.2,53.9 2.9,50.2" id="Shape" stroke="#FFFFFF" stroke-width="0.7985"></path>
                        <path d="M9.9,65.1 C11.6,62.9 11,60.9 11,60.9" id="Shape" stroke="#FFFFFF" stroke-width="0.7985"></path>
                        <path d="M4.7,57.4 C5.2,57.4 5.6,57.7 5.8,58.2 L5.8,58.3 L5.9,58.3 C6.1,58.1 6.4,58.1 6.6,58.1 C7,58.1 7.3,58.3 7.5,58.6 C7.9,59.1 7.8,59.9 7.3,60.3 L7.2,60.3 L7.3,60.3 C7.8,60.7 8,61.4 7.6,61.9 C7.4,62.2 7,62.4 6.6,62.4 C6.4,62.4 6.1,62.3 5.9,62.2 L5.8,62.2 L5.8,62.3 C5.6,62.8 5.2,63.1 4.7,63.1 C4.6,63.1 4.5,63.1 4.4,63 C3.8,62.8 3.4,62.1 3.6,61.5 L3.6,61.4 L3.5,61.4 L3.5,61.4 C2.9,61.4 2.3,60.9 2.3,60.2 C2.3,59.5 2.8,59 3.5,59 L3.6,59 L3.6,58.9 C3.4,58.3 3.7,57.6 4.3,57.4 C4.4,57.4 4.6,57.4 4.7,57.4 L4.7,57.4 Z M4.7,56.6 L4.7,56.6 C4.5,56.6 4.3,56.6 4.1,56.7 C3.6,56.9 3.2,57.2 3,57.7 C2.9,57.9 2.8,58.2 2.8,58.4 C2.6,58.5 2.4,58.6 2.2,58.8 C1.8,59.2 1.6,59.7 1.6,60.2 C1.6,61 2.1,61.7 2.8,62 C2.8,62.2 2.9,62.5 3,62.7 C3.2,63.2 3.7,63.5 4.2,63.7 C4.4,63.8 4.6,63.8 4.8,63.8 C5.4,63.8 5.9,63.5 6.3,63.1 L6.7,63.1 C7.3,63.1 8,62.8 8.3,62.3 C8.8,61.6 8.8,60.8 8.4,60.1 C8.8,59.4 8.7,58.6 8.3,57.9 C7.9,57.4 7.3,57.1 6.7,57.1 C6.5,57.1 6.4,57.1 6.2,57.2 C5.8,56.8 5.3,56.6 4.7,56.6 L4.7,56.6 L4.7,56.6 Z" id="Shape" fill="#FFFFFF"></path>
                        <path d="M-0.2,69.8 C-0.2,69.8 2.6,68.9 3.4,66.2" id="Shape" stroke="#FFFFFF" stroke-width="0.7985"></path>
                        <path d="M10.4,41.9 C10.4,41.9 17.9,46.7 21.6,41.6 C23.3,39.2 22.9,36.6 20.8,35.1 C15.8,31.6 14.1,38.2 14.1,38.2" id="Shape" stroke="#FFFFFF" stroke-width="0.7985"></path>
                        <path d="M7.7,41.2 C7.7,41.2 12.3,39.4 9,35.7" id="Shape" stroke="#FFFFFF" stroke-width="0.7985"></path>
                        <path d="M18.7,28.5 C18.9,27.1 17.2,21.5 11,24.1" id="Shape" stroke="#FFFFFF" stroke-width="0.7985"></path>
                        <path d="M16.3,32 C15,32.7 9.2,33 9.5,26.3" id="Shape" stroke="#FFFFFF" stroke-width="0.7985"></path>
                    </g>
                </g>
            </g>
        </g>
    </g>
</svg>