<?xml version="1.0" encoding="UTF-8" standalone="no"?>
<svg width="75px" height="50px" viewBox="0 0 75 50" version="1.1" xmlns="http://www.w3.org/2000/svg" xmlns:xlink="http://www.w3.org/1999/xlink" xmlns:sketch="http://www.bohemiancoding.com/sketch/ns">
    <!-- Generator: Sketch 3.1.1 (8761) - http://www.bohemiancoding.com/sketch -->
    <title>icon-pyramid</title>
    <desc>Created with Sketch.</desc>
    <defs></defs>
    <g id="Page-1" stroke="none" stroke-width="1" fill="none" fill-rule="evenodd" sketch:type="MSPage">
        <g id="main_top-copy" sketch:type="MSLayerGroup" transform="translate(-807.000000, -982.000000)">
            <g id="enter_hover" transform="translate(1.000000, 40.000000)" sketch:type="MSShapeGroup">
                <g id="icon-pyramid" transform="translate(806.000000, 942.000000)">
                    <path d="M4.8,49.8 C2.3,49.8 0.3,47.8 0.3,45.3 L0.3,39.1 C0.3,36.6 2.3,34.6 4.8,34.6 L6.3,34.6 L6.3,30.3 C6.3,27.8 8.3,25.8 10.8,25.8 L12.3,25.8 L12.3,21.5 C12.3,19 14.3,17 16.8,17 L18.3,17 L18.3,12.7 C18.3,10.2 20.3,8.2 22.8,8.2 L24.3,8.2 L24.3,4.5 C24.3,2 26.3,0 28.8,0 L46.2,0 C48.7,0 50.7,2 50.7,4.5 L50.7,8.2 L52.2,8.2 C54.7,8.2 56.7,10.2 56.7,12.7 L56.7,17 L58.2,17 C60.7,17 62.7,19 62.7,21.5 L62.7,25.8 L64.2,25.8 C66.7,25.8 68.7,27.8 68.7,30.3 L68.7,34.6 L70.2,34.6 C72.7,34.6 74.7,36.6 74.7,39.1 L74.7,45.3 C74.7,47.8 72.7,49.8 70.2,49.8 L4.8,49.8 L4.8,49.8 Z" id="Shape" fill="#FFFFFF"></path>
                    <path d="M70.2,46.3 C70.8,46.3 71.2,45.8 71.2,45.3 L71.2,39.1 C71.2,38.5 70.7,38.1 70.2,38.1 L66.3,38.1 C65.7,38.1 65.3,37.6 65.3,37.1 L65.3,30.3 C65.3,29.7 64.8,29.3 64.3,29.3 L60.4,29.3 C59.8,29.3 59.4,28.8 59.4,28.3 L59.4,21.5 C59.4,20.9 58.9,20.5 58.4,20.5 L54.5,20.5 C53.9,20.5 53.5,20 53.5,19.5 L53.5,17.9 L53.5,15.1 L53.5,12.7 C53.5,12.1 53,11.7 52.5,11.7 L48.6,11.7 C48,11.7 47.6,11.2 47.6,10.7 L47.6,9.6 L47.6,7.5 L47.6,4.6 C47.6,4 47.1,3.6 46.6,3.6 L29.2,3.6 C28.6,3.6 28.2,4.1 28.2,4.6 L28.2,7.5 L28.2,9.6 L28.2,10.7 C28.2,11.3 27.7,11.7 27.2,11.7 L23.3,11.7 C22.7,11.7 22.3,12.2 22.3,12.7 L22.3,15.1 L22.3,17.9 L22.3,19.5 C22.3,20.1 21.8,20.5 21.3,20.5 L17.4,20.5 C16.8,20.5 16.4,21 16.4,21.5 L16.4,28.3 C16.4,28.9 15.9,29.3 15.4,29.3 L11.5,29.3 C10.9,29.3 10.5,29.8 10.5,30.3 L10.5,37.1 C10.5,37.7 10,38.1 9.5,38.1 L5.6,38.1 C5,38.1 4.6,38.6 4.6,39.1 L4.6,45.3 C4.6,45.9 5.1,46.3 5.6,46.3 L70.2,46.3 L70.2,46.3 Z" id="Shape" fill="#FBAA00"></path>
                    <path d="M46.2,3.2 C46.8,3.2 47.2,3.7 47.2,4.2 L47.2,7.1 L47.2,9.2 L47.2,10.3 C47.2,10.9 47.7,11.3 48.2,11.3 L52.1,11.3 C52.7,11.3 53.1,11.8 53.1,12.3 L53.1,14.7 L53.1,17.5 L53.1,19.1 C53.1,19.7 53.6,20.1 54.1,20.1 L58,20.1 C58.6,20.1 59,20.6 59,21.1 L59,27.9 C59,28.5 59.5,28.9 60,28.9 L63.9,28.9 C64.5,28.9 64.9,29.4 64.9,29.9 L64.9,36.7 C64.9,37.3 65.4,37.7 65.9,37.7 L69.8,37.7 C70.4,37.7 70.8,38.2 70.8,38.7 L70.8,44.9 C70.8,45.5 70.3,45.9 69.8,45.9 L4.4,45.9 C3.8,45.9 3.4,45.4 3.4,44.9 L3.4,38.7 C3.4,38.1 3.9,37.7 4.4,37.7 L8.3,37.7 C8.9,37.7 9.3,37.2 9.3,36.7 L9.3,29.9 C9.3,29.3 9.8,28.9 10.3,28.9 L14.2,28.9 C14.8,28.9 15.2,28.4 15.2,27.9 L15.2,21.1 C15.2,20.5 15.7,20.1 16.2,20.1 L20.1,20.1 C20.7,20.1 21.1,19.6 21.1,19.1 L21.1,17.5 L21.1,14.7 L21.1,12.3 C21.1,11.7 21.6,11.3 22.1,11.3 L26,11.3 C26.6,11.3 27,10.8 27,10.3 L27,9.2 L27,7.1 L27,4.2 C27,3.6 27.5,3.2 28,3.2 L46.2,3.2 L46.2,3.2 Z M46.2,1.4 L46.2,1.4 L28.8,1.4 C27.2,1.4 25.9,2.7 25.9,4.3 L25.9,7.2 L25.9,9.3 L25.9,9.6 L22.8,9.6 C21.2,9.6 19.9,10.9 19.9,12.5 L19.9,14.9 L19.9,17.7 L19.9,18.5 L16.8,18.5 C15.2,18.5 13.9,19.8 13.9,21.4 L13.9,27.4 L10.8,27.4 C9.2,27.4 7.9,28.7 7.9,30.3 L7.9,36.3 L4.8,36.3 C3.2,36.3 1.9,37.6 1.9,39.2 L1.9,45.4 C1.9,47 3.2,48.3 4.8,48.3 L70.2,48.3 C71.8,48.3 73.1,47 73.1,45.4 L73.1,39.2 C73.1,37.6 71.8,36.3 70.2,36.3 L67.1,36.3 L67.1,30.3 C67.1,28.7 65.8,27.4 64.2,27.4 L61.1,27.4 L61.1,21.4 C61.1,19.8 59.8,18.5 58.2,18.5 L55.1,18.5 L55.1,17.7 L55.1,14.9 L55.1,12.5 C55.1,10.9 53.8,9.6 52.2,9.6 L49.1,9.6 L49.1,9.3 L49.1,7.2 L49.1,4.3 C49.1,2.7 47.8,1.4 46.2,1.4 L46.2,1.4 L46.2,1.4 Z" id="Shape" fill="#2C3236"></path>
                    <path d="M27.3,11 L27.3,46.9 L47.6,46.9 L47.6,11" id="Shape" fill="#DFDFDF"></path>
                    <path d="M29,11.2 L29,46.3" id="Shape" stroke="#2C3236" stroke-width="0.7985"></path>
                    <path d="M46,11.2 L46,46.3" id="Shape" stroke="#2C3236" stroke-width="0.7985"></path>
                    <path d="M27.3,19.9 L20.2,19.9" id="Shape" stroke="#2C3236" stroke-width="0.7985"></path>
                    <path d="M27.3,28.8 L13.2,28.8" id="Shape" stroke="#2C3236" stroke-width="0.7985"></path>
                    <path d="M47.6,19.9 L54.7,19.9" id="Shape" stroke="#2C3236" stroke-width="0.7985"></path>
                    <path d="M47.6,28.8 L61.8,28.8" id="Shape" stroke="#2C3236" stroke-width="0.7985"></path>
                    <path d="M27.3,37.8 L3.7,37.8" id="Shape" stroke="#2C3236" stroke-width="0.7985"></path>
                    <path d="M47.6,37.8 L71.2,37.8" id="Shape" stroke="#2C3236" stroke-width="0.7985"></path>
                    <rect id="Rectangle-path" stroke="#2C3236" stroke-width="0.7985" x="27" y="11" width="20.3" height="35.9"></rect>
                    <path d="M37.5,6.9 C36.4,6.9 35.6,7.8 35.6,8.8 L35.6,11 L39.4,11 L39.4,8.8 C39.4,7.7 38.5,6.9 37.5,6.9 L37.5,6.9 Z" id="Shape" fill="#2C3236"></path>
                    <path d="M30.6,13.2 L44.3,13.2" id="Shape" stroke="#2C3236" stroke-width="0.7985"></path>
                    <path d="M30.6,15.5 L44.3,15.5" id="Shape" stroke="#2C3236" stroke-width="0.7985"></path>
                    <path d="M30.6,17.7 L44.3,17.7" id="Shape" stroke="#2C3236" stroke-width="0.7985"></path>
                    <path d="M30.6,19.9 L44.3,19.9" id="Shape" stroke="#2C3236" stroke-width="0.7985"></path>
                    <path d="M30.6,22.1 L44.3,22.1" id="Shape" stroke="#2C3236" stroke-width="0.7985"></path>
                    <path d="M30.6,24.4 L44.3,24.4" id="Shape" stroke="#2C3236" stroke-width="0.7985"></path>
                    <path d="M30.6,26.6 L44.3,26.6" id="Shape" stroke="#2C3236" stroke-width="0.7985"></path>
                    <path d="M30.6,28.8 L44.3,28.8" id="Shape" stroke="#2C3236" stroke-width="0.7985"></path>
                    <path d="M30.6,31.1 L44.3,31.1" id="Shape" stroke="#2C3236" stroke-width="0.7985"></path>
                    <path d="M30.6,33.3 L44.3,33.3" id="Shape" stroke="#2C3236" stroke-width="0.7985"></path>
                    <path d="M30.6,35.5 L44.3,35.5" id="Shape" stroke="#2C3236" stroke-width="0.7985"></path>
                    <path d="M30.6,37.7 L44.3,37.7" id="Shape" stroke="#2C3236" stroke-width="0.7985"></path>
                    <path d="M30.6,40 L44.3,40" id="Shape" stroke="#2C3236" stroke-width="0.7985"></path>
                    <path d="M30.6,42.2 L44.3,42.2" id="Shape" stroke="#2C3236" stroke-width="0.7985"></path>
                    <path d="M30.6,44.4 L44.3,44.4" id="Shape" stroke="#2C3236" stroke-width="0.7985"></path>
                </g>
            </g>
        </g>
    </g>
</svg>