<?xml version="1.0" encoding="UTF-8" standalone="no"?>
<svg width="140px" height="145px" viewBox="0 0 140 145" version="1.1" xmlns="http://www.w3.org/2000/svg" xmlns:xlink="http://www.w3.org/1999/xlink" xmlns:sketch="http://www.bohemiancoding.com/sketch/ns">
    <!-- Generator: Sketch 3.1 (8751) - http://www.bohemiancoding.com/sketch -->
    <title>layout-1-path-1</title>
    <desc>Created with Sketch.</desc>
    <defs></defs>
    <g id="Page-1" stroke="none" stroke-width="1" fill="none" fill-rule="evenodd" sketch:type="MSPage">
        <g id="Главная" sketch:type="MSArtboardGroup" transform="translate(-411.000000, -1598.000000)" fill="#FFFFFF">
            <g id="lines" sketch:type="MSLayerGroup" transform="translate(1.000000, 542.000000)">
                <g id="layout-1" transform="translate(0.000000, 712.000000)" sketch:type="MSShapeGroup">
                    <g id="layout-1-path-1" transform="translate(411.000000, 345.000000)">
                        <g id="Group" transform="translate(0.000000, 35.000000)">
                            <path d="M5.6,3.7 C4.6,3.3 4.2,2.1 4.7,1.2 C5.2,0.2 6.4,-0.1 7.3,0.4 C8.2,0.9 8.5,2 8.1,2.9 C7.7,3.8 6.6,4.1 5.6,3.7 L5.6,3.7 Z" id="Shape"></path>
                            <path d="M3.2,10.8 C2.2,10.6 1.6,9.5 1.9,8.5 C2.2,7.5 3.3,6.9 4.3,7.2 C5.3,7.5 5.8,8.5 5.6,9.5 C5.3,10.5 4.3,11 3.2,10.8 L3.2,10.8 Z" id="Shape"></path>
                            <path d="M2,18.1 C1,18 0.2,17.1 0.4,16 C0.5,14.9 1.5,14.2 2.5,14.4 C3.5,14.6 4.2,15.5 4.1,16.5 C3.9,17.5 3,18.2 2,18.1 L2,18.1 Z" id="Shape"></path>
                            <path d="M1.7,25.6 C0.7,25.6 -0.2,24.8 -0.2,23.7 C-0.2,22.6 0.7,21.8 1.7,21.9 C2.7,21.9 3.5,22.8 3.5,23.8 C3.5,24.7 2.7,25.6 1.7,25.6 L1.7,25.6 Z" id="Shape"></path>
                            <path d="M2.2,33 C1.2,33.1 0.2,32.4 0.1,31.3 C-0.1,30.2 0.8,29.3 1.8,29.2 C2.9,29.1 3.7,29.9 3.8,30.9 C4,32 3.3,32.9 2.2,33 L2.2,33 Z" id="Shape"></path>
                            <path d="M3.6,40.3 C2.6,40.6 1.5,39.9 1.3,38.9 C1.1,37.9 1.8,36.9 2.8,36.7 C3.8,36.5 4.8,37.1 5,38.1 C5.2,39.1 4.6,40.1 3.6,40.3 L3.6,40.3 Z" id="Shape"></path>
                            <path d="M5.8,47.5 C4.8,47.9 3.8,47.4 3.4,46.3 C3.1,45.3 3.6,44.2 4.6,43.9 C5.6,43.6 6.7,44.1 7,45.1 C7.3,46 6.8,47.1 5.8,47.5 L5.8,47.5 Z" id="Shape"></path>
                            <path d="M8.8,54.3 C7.9,54.8 6.7,54.4 6.3,53.4 C5.8,52.5 6.3,51.3 7.2,50.9 C8.2,50.5 9.2,50.9 9.7,51.8 C10.1,52.7 9.7,53.8 8.8,54.3 L8.8,54.3 Z" id="Shape"></path>
                            <path d="M12.5,60.7 C11.6,61.3 10.4,61.1 9.9,60.1 C9.4,59.2 9.7,58 10.6,57.5 C11.5,57 12.6,57.3 13.2,58.1 C13.6,59 13.4,60.1 12.5,60.7 L12.5,60.7 Z" id="Shape"></path>
                            <path d="M17,66.7 C16.2,67.4 15,67.2 14.3,66.4 C13.6,65.6 13.8,64.4 14.6,63.8 C15.4,63.2 16.6,63.3 17.2,64.1 C17.9,64.9 17.8,66 17,66.7 L17,66.7 Z" id="Shape"></path>
                            <path d="M22.1,72.2 C21.4,73 20.2,73 19.4,72.2 C18.7,71.4 18.7,70.2 19.5,69.5 C20.3,68.8 21.4,68.8 22.1,69.5 C22.8,70.3 22.8,71.4 22.1,72.2 L22.1,72.2 Z" id="Shape"></path>
                            <path d="M27.7,77 C27.1,77.8 25.9,78 25,77.3 C24.2,76.7 24.1,75.4 24.8,74.6 C25.5,73.8 26.6,73.8 27.4,74.4 C28.2,75.1 28.3,76.2 27.7,77 L27.7,77 Z" id="Shape"></path>
                            <path d="M33.8,81.4 C33.2,82.3 32.1,82.5 31.2,81.9 C30.3,81.3 30.1,80.2 30.7,79.3 C31.3,78.5 32.5,78.2 33.3,78.8 C34.1,79.3 34.3,80.5 33.8,81.4 L33.8,81.4 Z" id="Shape"></path>
                            <path d="M40.2,85.1 C39.7,86 38.6,86.4 37.7,85.8 C36.8,85.3 36.5,84.1 37,83.2 C37.5,82.3 38.7,82 39.5,82.5 C40.4,83 40.7,84.2 40.2,85.1 L40.2,85.1 Z" id="Shape"></path>
                            <path d="M47,88.3 C46.6,89.3 45.5,89.7 44.5,89.3 C43.5,88.9 43.1,87.7 43.6,86.8 C44,85.9 45.1,85.4 46.1,85.9 C46.9,86.3 47.4,87.3 47,88.3 L47,88.3 Z" id="Shape"></path>
                            <path d="M54,90.9 C53.7,91.9 52.6,92.5 51.6,92.1 C50.6,91.7 50.1,90.6 50.5,89.6 C50.9,88.6 51.9,88.1 52.9,88.5 C53.8,88.9 54.3,89.9 54,90.9 L54,90.9 Z" id="Shape"></path>
                            <path d="M61.1,93.1 C60.8,94.1 59.8,94.7 58.8,94.5 C57.8,94.2 57.2,93.1 57.5,92.1 C57.8,91.1 58.8,90.5 59.8,90.8 C60.8,91 61.4,92 61.1,93.1 L61.1,93.1 Z" id="Shape"></path>
                            <path d="M68.4,94.8 C68.2,95.8 67.2,96.5 66.2,96.3 C65.2,96 64.6,95 64.8,94 C65,93 66,92.4 67,92.6 C67.9,92.8 68.6,93.7 68.4,94.8 L68.4,94.8 Z" id="Shape"></path>
                            <path d="M75.7,96.1 C75.5,97.1 74.6,97.9 73.6,97.7 C72.6,97.5 71.9,96.5 72.1,95.5 C72.3,94.5 73.2,93.8 74.2,94 C75.2,94.1 75.9,95 75.7,96.1 L75.7,96.1 Z" id="Shape"></path>
                            <path d="M83.1,97 C83,98 82.1,98.8 81,98.6 C80,98.5 79.2,97.5 79.4,96.5 C79.5,95.5 80.5,94.7 81.5,94.9 C82.5,95 83.2,96 83.1,97 L83.1,97 Z" id="Shape"></path>
                            <path d="M90.5,97.6 C90.4,98.6 89.6,99.4 88.5,99.3 C87.5,99.2 86.7,98.3 86.8,97.3 C86.9,96.3 87.8,95.5 88.8,95.6 C89.8,95.6 90.6,96.5 90.5,97.6 L90.5,97.6 Z" id="Shape"></path>
                            <path d="M98,97.8 C98,98.8 97.1,99.7 96.1,99.6 C95.1,99.6 94.2,98.7 94.3,97.7 C94.3,96.7 95.2,95.8 96.2,95.9 C97.2,95.9 98,96.8 98,97.8 L98,97.8 Z" id="Shape"></path>
                        </g>
                        <g id="Group" transform="translate(4.000000, 0.000000)">
                            <path d="M17.6,18.7 C17.2,18.7 16.8,18.6 16.5,18.3 L0.3,2.1 C-0.3,1.5 -0.3,0.6 0.3,1.13742349e-13 C0.9,-0.6 1.8,-0.6 2.4,1.13742349e-13 L18.6,16.2 C19.2,16.8 19.2,17.7 18.6,18.3 C18.4,18.6 18,18.7 17.6,18.7 L17.6,18.7 Z" id="Shape"></path>
                            <path d="M1.4,18.7 C1,18.7 0.6,18.6 0.3,18.3 C-0.3,17.7 -0.3,16.8 0.3,16.2 L16.5,1.13742349e-13 C17.1,-0.6 18,-0.6 18.6,1.13742349e-13 C19.2,0.6 19.2,1.5 18.6,2.1 L2.4,18.3 C2.2,18.6 1.8,18.7 1.4,18.7 L1.4,18.7 Z" id="Shape"></path>
                        </g>
                        <g id="Group" transform="translate(119.000000, 124.000000)">
                            <path d="M17.8,19.4 C17.4,19.4 17,19.3 16.7,19 L0.5,2.8 C-0.1,2.2 -0.1,1.3 0.5,0.7 C1.1,0.1 2,0.1 2.6,0.7 L18.8,16.9 C19.4,17.5 19.4,18.4 18.8,19 C18.6,19.3 18.2,19.4 17.8,19.4 L17.8,19.4 Z" id="Shape"></path>
                            <path d="M1.7,19.4 C1.3,19.4 0.9,19.3 0.6,19 C-1.42108547e-13,18.4 -1.42108547e-13,17.5 0.6,16.9 L16.8,0.7 C17.4,0.1 18.3,0.1 18.9,0.7 C19.5,1.3 19.5,2.2 18.9,2.8 L2.7,19 C2.4,19.3 2,19.4 1.7,19.4 L1.7,19.4 Z" id="Shape"></path>
                        </g>
                    </g>
                </g>
            </g>
        </g>
    </g>
</svg>