<?xml version="1.0" encoding="UTF-8" standalone="no"?>
<svg width="267px" height="134px" viewBox="0 0 267 134" version="1.1" xmlns="http://www.w3.org/2000/svg" xmlns:xlink="http://www.w3.org/1999/xlink" xmlns:sketch="http://www.bohemiancoding.com/sketch/ns">
    <!-- Generator: Sketch 3.1 (8751) - http://www.bohemiancoding.com/sketch -->
    <title>layout-0-path-2</title>
    <desc>Created with Sketch.</desc>
    <defs></defs>
    <g id="Page-1" stroke="none" stroke-width="1" fill="none" fill-rule="evenodd" sketch:type="MSPage">
        <g id="Главная" sketch:type="MSArtboardGroup" transform="translate(-800.000000, -890.000000)" fill="#FFFFFF">
            <g id="lines" sketch:type="MSLayerGroup" transform="translate(1.000000, 542.000000)">
                <g id="layout-0" transform="translate(1.000000, 0.000000)" sketch:type="MSShapeGroup">
                    <g id="layout-0-path-2" transform="translate(799.000000, 348.000000)">
                        <g id="Group" transform="translate(246.000000, 0.000000)">
                            <path d="M18,20.2 C17.5,20.2 17,20 16.6,19.6 L0.4,3.4 C-0.4,2.6 -0.4,1.4 0.4,0.6 C1.2,-0.2 2.4,-0.2 3.2,0.6 L19.4,16.8 C20.2,17.6 20.2,18.8 19.4,19.6 C19,20 18.5,20.2 18,20.2 L18,20.2 Z" id="Shape"></path>
                            <path d="M1.8,20.2 C1.3,20.2 0.8,20 0.4,19.6 C-0.4,18.8 -0.4,17.6 0.4,16.8 L16.6,0.6 C17.4,-0.2 18.6,-0.2 19.4,0.6 C20.2,1.4 20.2,2.6 19.4,3.4 L3.2,19.6 C2.8,20 2.3,20.2 1.8,20.2 L1.8,20.2 Z" id="Shape"></path>
                        </g>
                        <g id="Group" transform="translate(0.000000, 50.000000)">
                            <path d="M17.9,20.5 C17.4,20.5 16.9,20.3 16.5,19.9 L0.3,3.7 C-0.5,2.9 -0.5,1.7 0.3,0.9 C1.1,0.1 2.3,0.1 3.1,0.9 L19.3,17.1 C20.1,17.9 20.1,19.1 19.3,19.9 C18.9,20.3 18.4,20.5 17.9,20.5 L17.9,20.5 Z" id="Shape"></path>
                            <path d="M1.7,20.5 C1.2,20.5 0.7,20.3 0.3,19.9 C-0.5,19.1 -0.5,17.9 0.3,17.1 L16.5,0.9 C17.3,0.1 18.5,0.1 19.3,0.9 C20.1,1.7 20.1,2.9 19.3,3.7 L3.1,19.9 C2.7,20.3 2.2,20.5 1.7,20.5 L1.7,20.5 Z" id="Shape"></path>
                        </g>
                        <g id="Group" transform="translate(35.000000, 40.000000)">
                            <path d="M2.8,45.1 C2.1,45.8 0.9,45.8 0.1,45 C-0.6,44.2 -0.6,43 0.2,42.3 C1,41.6 2.1,41.7 2.9,42.4 C3.6,43.2 3.5,44.4 2.8,45.1 L2.8,45.1 Z" id="Shape"></path>
                            <path d="M8.2,50.4 C7.5,51.2 6.3,51.2 5.5,50.5 C4.7,49.8 4.7,48.6 5.5,47.8 C6.2,47.1 7.4,47 8.2,47.7 C8.8,48.5 8.9,49.6 8.2,50.4 L8.2,50.4 Z" id="Shape"></path>
                            <path d="M13.8,55.4 C13.1,56.2 11.9,56.3 11.1,55.6 C10.3,54.9 10.2,53.7 10.9,52.9 C11.6,52.1 12.8,52 13.6,52.7 C14.4,53.4 14.5,54.6 13.8,55.4 L13.8,55.4 Z" id="Shape"></path>
                            <path d="M19.7,60.1 C19.1,60.9 17.9,61.1 17,60.5 C16.2,59.8 16,58.7 16.7,57.8 C17.4,57 18.5,56.8 19.3,57.5 C20.1,58.1 20.3,59.2 19.7,60.1 L19.7,60.1 Z" id="Shape"></path>
                            <path d="M25.8,64.4 C25.2,65.3 24,65.5 23.2,64.9 C22.3,64.3 22.1,63.1 22.7,62.3 C23.3,61.5 24.5,61.2 25.3,61.8 C26.2,62.4 26.4,63.6 25.8,64.4 L25.8,64.4 Z" id="Shape"></path>
                            <path d="M32.1,68.5 C31.6,69.4 30.4,69.7 29.5,69.1 C28.6,68.6 28.4,67.4 28.9,66.5 C29.5,65.6 30.6,65.4 31.5,65.9 C32.4,66.5 32.7,67.6 32.1,68.5 L32.1,68.5 Z" id="Shape"></path>
                            <path d="M38.6,72.3 C38.1,73.2 36.9,73.6 36,73 C35.1,72.5 34.8,71.3 35.3,70.4 C35.8,69.5 37,69.2 37.9,69.7 C38.8,70.2 39.1,71.4 38.6,72.3 L38.6,72.3 Z" id="Shape"></path>
                            <path d="M45.3,75.7 C44.8,76.6 43.7,77 42.8,76.6 C41.9,76.1 41.5,75 42,74.1 C42.5,73.2 43.6,72.8 44.5,73.3 C45.4,73.6 45.8,74.8 45.3,75.7 L45.3,75.7 Z" id="Shape"></path>
                            <path d="M52.1,78.8 C51.7,79.8 50.6,80.2 49.6,79.8 C48.6,79.4 48.2,78.2 48.7,77.3 C49.1,76.4 50.2,75.9 51.2,76.4 C52.1,76.8 52.6,77.9 52.1,78.8 L52.1,78.8 Z" id="Shape"></path>
                            <path d="M59.1,81.6 C58.7,82.6 57.6,83.1 56.7,82.7 C55.7,82.3 55.2,81.2 55.6,80.3 C56,79.3 57.1,78.9 58,79.2 C59,79.6 59.5,80.7 59.1,81.6 L59.1,81.6 Z" id="Shape"></path>
                            <path d="M66.2,84.1 C65.9,85.1 64.8,85.6 63.8,85.3 C62.8,85 62.3,83.9 62.6,82.9 C62.9,81.9 64,81.4 65,81.7 C66,82 66.5,83.1 66.2,84.1 L66.2,84.1 Z" id="Shape"></path>
                            <path d="M73.4,86.2 C73.1,87.2 72.1,87.8 71.1,87.5 C70.1,87.2 69.5,86.2 69.8,85.2 C70.1,84.2 71.1,83.6 72.1,83.9 C73.1,84.2 73.7,85.2 73.4,86.2 L73.4,86.2 Z" id="Shape"></path>
                            <path d="M80.7,88 C80.5,89 79.5,89.7 78.4,89.4 C77.4,89.2 76.7,88.2 77,87.1 C77.2,86.1 78.3,85.5 79.3,85.7 C80.3,86 81,87 80.7,88 L80.7,88 Z" id="Shape"></path>
                            <path d="M88.1,89.4 C87.9,90.4 86.9,91.1 85.9,90.9 C84.9,90.7 84.2,89.7 84.4,88.7 C84.6,87.7 85.6,87 86.6,87.2 C87.6,87.4 88.3,88.4 88.1,89.4 L88.1,89.4 Z" id="Shape"></path>
                            <path d="M95.6,90.5 C95.5,91.5 94.5,92.3 93.5,92.1 C92.5,92 91.7,91 91.9,90 C92,89 93,88.2 94,88.4 C95,88.5 95.7,89.5 95.6,90.5 L95.6,90.5 Z" id="Shape"></path>
                            <path d="M103.1,91.2 C103,92.2 102.1,93 101.1,92.9 C100,92.8 99.3,91.9 99.4,90.9 C99.5,89.9 100.4,89.1 101.4,89.2 C102.4,89.2 103.1,90.2 103.1,91.2 L103.1,91.2 Z" id="Shape"></path>
                            <path d="M110.6,91.5 C110.6,92.5 109.7,93.4 108.7,93.4 C107.6,93.4 106.8,92.5 106.9,91.4 C106.9,90.4 107.8,89.6 108.8,89.6 C109.8,89.6 110.6,90.5 110.6,91.5 L110.6,91.5 Z" id="Shape"></path>
                            <path d="M118.1,91.4 C118.1,92.4 117.3,93.3 116.3,93.4 C115.2,93.4 114.4,92.6 114.4,91.5 C114.4,90.5 115.2,89.6 116.2,89.6 C117.2,89.6 118,90.4 118.1,91.4 L118.1,91.4 Z" id="Shape"></path>
                            <path d="M125.6,90.9 C125.7,91.9 124.9,92.8 123.9,92.9 C122.8,93 121.9,92.2 121.9,91.2 C121.8,90.2 122.6,89.3 123.6,89.2 C124.6,89.1 125.5,89.9 125.6,90.9 L125.6,90.9 Z" id="Shape"></path>
                            <path d="M133.1,90 C133.3,91 132.5,92 131.5,92.1 C130.5,92.3 129.5,91.5 129.4,90.5 C129.3,89.5 130,88.5 131,88.4 C131.9,88.3 132.9,89 133.1,90 L133.1,90 Z" id="Shape"></path>
                            <path d="M140.4,88.6 C140.6,89.6 140,90.6 138.9,90.8 C137.9,91 136.9,90.3 136.7,89.3 C136.5,88.3 137.2,87.3 138.2,87.1 C139.2,87 140.2,87.6 140.4,88.6 L140.4,88.6 Z" id="Shape"></path>
                            <path d="M147.7,86.8 C148,87.8 147.4,88.9 146.4,89.1 C145.4,89.4 144.3,88.8 144.1,87.7 C143.9,86.7 144.5,85.7 145.4,85.4 C146.4,85.3 147.5,85.8 147.7,86.8 L147.7,86.8 Z" id="Shape"></path>
                            <path d="M154.9,84.6 C155.3,85.6 154.7,86.6 153.7,87 C152.7,87.3 151.6,86.8 151.3,85.8 C151,84.8 151.5,83.7 152.5,83.4 C153.5,83.1 154.6,83.6 154.9,84.6 L154.9,84.6 Z" id="Shape"></path>
                            <path d="M161.9,81.8 C162.3,82.8 161.9,83.9 160.9,84.3 C159.9,84.7 158.8,84.3 158.4,83.3 C158,82.3 158.5,81.2 159.4,80.8 C160.4,80.4 161.5,80.8 161.9,81.8 L161.9,81.8 Z" id="Shape"></path>
                            <path d="M168.7,78.5 C169.2,79.4 168.8,80.6 167.9,81.1 C167,81.6 165.8,81.2 165.4,80.2 C164.9,79.2 165.4,78.2 166.2,77.7 C167.1,77.3 168.2,77.6 168.7,78.5 L168.7,78.5 Z" id="Shape"></path>
                            <path d="M175.2,74.8 C175.8,75.7 175.5,76.9 174.6,77.4 C173.7,77.9 172.5,77.6 172,76.7 C171.5,75.8 171.8,74.7 172.7,74.1 C173.5,73.7 174.6,73.9 175.2,74.8 L175.2,74.8 Z" id="Shape"></path>
                            <path d="M181.4,70.6 C182,71.4 181.9,72.6 181,73.2 C180.1,73.8 178.9,73.6 178.4,72.7 C177.8,71.8 178,70.7 178.9,70.1 C179.7,69.6 180.8,69.7 181.4,70.6 L181.4,70.6 Z" id="Shape"></path>
                            <path d="M187.3,65.9 C188,66.7 187.9,67.9 187.1,68.6 C186.3,69.3 185.1,69.2 184.4,68.4 C183.8,67.6 183.9,66.4 184.6,65.8 C185.4,65 186.6,65.1 187.3,65.9 L187.3,65.9 Z" id="Shape"></path>
                            <path d="M192.8,60.7 C193.5,61.4 193.5,62.6 192.8,63.4 C192.1,64.2 190.9,64.1 190.1,63.4 C189.4,62.6 189.4,61.5 190.1,60.7 C190.8,60 192,60 192.8,60.7 L192.8,60.7 Z" id="Shape"></path>
                            <path d="M197.8,55.1 C198.6,55.8 198.7,57 198,57.8 C197.3,58.6 196.1,58.7 195.3,58 C194.5,57.3 194.5,56.1 195.1,55.4 C195.8,54.6 197,54.5 197.8,55.1 L197.8,55.1 Z" id="Shape"></path>
                            <path d="M202.3,49.2 C203.1,49.8 203.4,51 202.7,51.8 C202.1,52.6 200.9,52.8 200,52.2 C199.2,51.6 199,50.4 199.6,49.6 C200.3,48.8 201.5,48.6 202.3,49.2 L202.3,49.2 Z" id="Shape"></path>
                            <path d="M206.4,42.8 C207.3,43.3 207.6,44.5 207,45.4 C206.4,46.3 205.3,46.6 204.4,46 C203.5,45.4 203.3,44.3 203.8,43.4 C204.4,42.6 205.5,42.3 206.4,42.8 L206.4,42.8 Z" id="Shape"></path>
                            <path d="M210,36.2 C210.9,36.7 211.3,37.8 210.8,38.7 C210.3,39.7 209.2,40 208.3,39.5 C207.4,39 207.1,37.9 207.5,37 C207.9,36.1 209,35.8 210,36.2 L210,36.2 Z" id="Shape"></path>
                            <path d="M213,29.3 C214,29.7 214.5,30.8 214,31.8 C213.6,32.8 212.4,33.2 211.5,32.8 C210.5,32.4 210.1,31.3 210.5,30.3 C211,29.4 212,29 213,29.3 L213,29.3 Z" id="Shape"></path>
                            <path d="M215.6,22.3 C216.6,22.6 217.1,23.7 216.8,24.7 C216.5,25.7 215.4,26.2 214.4,25.9 C213.4,25.5 212.9,24.5 213.2,23.5 C213.5,22.5 214.6,22 215.6,22.3 L215.6,22.3 Z" id="Shape"></path>
                            <path d="M217.7,15.1 C218.7,15.4 219.3,16.4 219.1,17.4 C218.8,18.4 217.8,19 216.8,18.7 C215.8,18.4 215.2,17.4 215.5,16.4 C215.6,15.4 216.6,14.8 217.7,15.1 L217.7,15.1 Z" id="Shape"></path>
                            <path d="M219.3,7.7 C220.3,7.9 221,8.9 220.8,9.9 C220.6,10.9 219.6,11.6 218.6,11.4 C217.6,11.2 216.9,10.2 217.1,9.2 C217.3,8.2 218.3,7.5 219.3,7.7 L219.3,7.7 Z" id="Shape"></path>
                            <path d="M220.5,0.3 C221.5,0.4 222.3,1.4 222.1,2.4 C221.9,3.4 221,4.2 219.9,4 C218.9,3.8 218.2,2.9 218.3,1.9 C218.5,0.9 219.4,0.2 220.5,0.3 L220.5,0.3 Z" id="Shape"></path>
                        </g>
                    </g>
                </g>
            </g>
        </g>
    </g>
</svg>