<?xml version="1.0" encoding="UTF-8" standalone="no"?>
<svg width="240px" height="99px" viewBox="0 0 240 99" version="1.1" xmlns="http://www.w3.org/2000/svg" xmlns:xlink="http://www.w3.org/1999/xlink" xmlns:sketch="http://www.bohemiancoding.com/sketch/ns">
    <!-- Generator: Sketch 3.1 (8751) - http://www.bohemiancoding.com/sketch -->
    <title>layout-1-path-first</title>
    <desc>Created with Sketch.</desc>
    <defs></defs>
    <g id="Page-1" stroke="none" stroke-width="1" fill="none" fill-rule="evenodd" sketch:type="MSPage">
        <g id="Главная" sketch:type="MSArtboardGroup" transform="translate(-1.000000, -1301.000000)" fill="#FFFFFF">
            <g id="lines" sketch:type="MSLayerGroup" transform="translate(1.000000, 542.000000)">
                <g id="layout-1" transform="translate(0.000000, 712.000000)" sketch:type="MSShapeGroup">
                    <g id="layout-1-path-first" transform="translate(0.000000, 48.000000)">
                        <g id="Group">
                            <path d="M226.9,37.5 C227.9,37.2 228.9,37.8 229.3,38.8 C229.6,39.9 228.9,40.9 227.9,41.1 C226.9,41.3 225.9,40.7 225.7,39.7 C225.3,38.8 225.9,37.8 226.9,37.5 L226.9,37.5 Z" id="Shape"></path>
                            <path d="M223.8,30.6 C224.7,30.1 225.9,30.4 226.4,31.4 C226.9,32.4 226.5,33.6 225.6,34 C224.7,34.4 223.5,34.1 223.1,33.2 C222.6,32.3 222.9,31.2 223.8,30.6 L223.8,30.6 Z" id="Shape"></path>
                            <path d="M219.4,24.5 C220.2,23.8 221.4,24 222.1,24.8 C222.4,25.2 222.6,25.7 222.5,26.2 C222.4,26.7 222.2,27.1 221.7,27.4 C221.3,27.7 220.8,27.8 220.3,27.7 C219.8,27.6 219.4,27.4 219.1,27 C218.5,26.3 218.6,25.1 219.4,24.5 L219.4,24.5 Z" id="Shape"></path>
                            <path d="M214.1,19.1 C214.8,18.3 216,18.3 216.8,19 C217.6,19.8 217.6,21 216.8,21.7 C216,22.4 214.9,22.4 214.2,21.7 C213.5,21 213.4,19.8 214.1,19.1 L214.1,19.1 Z" id="Shape"></path>
                            <path d="M208.2,14.3 C208.8,13.4 210,13.3 210.9,13.9 C211.8,14.5 211.9,15.8 211.3,16.6 C210.6,17.4 209.5,17.5 208.7,16.9 C207.8,16.4 207.6,15.2 208.2,14.3 L208.2,14.3 Z" id="Shape"></path>
                            <path d="M201.8,10.3 C202.3,9.4 203.5,9.1 204.4,9.6 C205.3,10.1 205.6,11.3 205.1,12.2 C204.5,13.1 203.4,13.3 202.5,12.9 C201.6,12.4 201.3,11.2 201.8,10.3 L201.8,10.3 Z" id="Shape"></path>
                            <path d="M195,7 C195.4,6 196.5,5.6 197.5,6.1 C198.5,6.5 198.9,7.7 198.4,8.6 C197.9,9.5 196.8,10 195.9,9.5 C195,9.1 194.6,8 195,7 L195,7 Z" id="Shape"></path>
                            <path d="M187.9,4.5 C188.2,3.5 189.3,2.9 190.3,3.3 C191.3,3.6 191.9,4.7 191.5,5.7 C191.1,6.7 190.1,7.2 189.1,6.9 C188.1,6.6 187.6,5.5 187.9,4.5 L187.9,4.5 Z" id="Shape"></path>
                            <path d="M180.5,2.8 C180.7,1.8 181.7,1.1 182.7,1.3 C183.8,1.5 184.4,2.5 184.2,3.5 C184,4.5 183,5.2 182,4.9 C181,4.8 180.3,3.8 180.5,2.8 L180.5,2.8 Z" id="Shape"></path>
                            <path d="M173,1.9 C173.1,0.9 174,-4.3298698e-14 175.1,0.2 C176.2,0.3 176.9,1.2 176.8,2.3 C176.7,3.3 175.8,4.1 174.7,4 C173.7,3.8 173,2.9 173,1.9 L173,1.9 Z" id="Shape"></path>
                            <path d="M165.5,1.8 C165.4,0.8 166.3,-0.2 167.3,-0.2 C168.4,-0.2 169.3,0.6 169.2,1.7 C169.2,2.7 168.4,3.6 167.4,3.6 C166.4,3.7 165.5,2.9 165.5,1.8 L165.5,1.8 Z" id="Shape"></path>
                            <path d="M158,2.8 C157.8,1.8 158.5,0.8 159.6,0.6 C160.7,0.4 161.6,1.2 161.8,2.2 C161.9,3.2 161.2,4.2 160.2,4.3 C159.1,4.4 158.2,3.8 158,2.8 L158,2.8 Z" id="Shape"></path>
                            <path d="M150.6,4.7 C150.3,3.7 150.8,2.6 151.9,2.3 C152.9,2 154,2.6 154.3,3.6 C154.6,4.6 154,5.6 153,5.9 C152,6.2 151,5.6 150.6,4.7 L150.6,4.7 Z" id="Shape"></path>
                            <path d="M143.6,7.5 C143.1,6.6 143.6,5.4 144.6,5 C145.6,4.6 146.7,5 147.1,6 C147.5,7 147.1,8.1 146.1,8.5 C145.2,8.8 144.1,8.4 143.6,7.5 L143.6,7.5 Z" id="Shape"></path>
                            <path d="M137,11.2 C136.5,10.3 136.7,9.1 137.7,8.6 C138.6,8 139.8,8.3 140.3,9.3 C140.8,10.2 140.5,11.4 139.6,11.9 C138.7,12.4 137.6,12.1 137,11.2 L137,11.2 Z" id="Shape"></path>
                            <path d="M130.7,15.4 C130.1,14.6 130.3,13.4 131.2,12.8 C132.1,12.2 133.2,12.4 133.8,13.3 C134.4,14.2 134.2,15.3 133.3,15.9 C132.5,16.4 131.4,16.2 130.7,15.4 L130.7,15.4 Z" id="Shape"></path>
                            <path d="M124.8,20 C124.1,19.2 124.3,18 125.1,17.4 C125.9,16.7 127.1,16.9 127.8,17.7 C128.4,18.5 128.3,19.7 127.5,20.3 C126.6,20.9 125.4,20.8 124.8,20 L124.8,20 Z" id="Shape"></path>
                            <path d="M119.1,25 C118.4,24.2 118.4,23 119.2,22.3 C120,21.6 121.2,21.7 121.9,22.4 C122.6,23.2 122.5,24.4 121.8,25 C121,25.8 119.8,25.7 119.1,25 L119.1,25 Z" id="Shape"></path>
                            <path d="M113.7,30.3 C112.9,29.6 112.9,28.4 113.6,27.6 C114.3,26.8 115.6,26.9 116.3,27.6 C117,28.3 117,29.5 116.3,30.2 C115.7,31 114.5,31.1 113.7,30.3 L113.7,30.3 Z" id="Shape"></path>
                            <path d="M108.6,35.9 C107.8,35.2 107.7,34 108.4,33.2 C109.1,32.4 110.3,32.3 111.1,33 C111.9,33.7 111.9,34.9 111.3,35.7 C110.6,36.5 109.4,36.6 108.6,35.9 L108.6,35.9 Z" id="Shape"></path>
                            <path d="M103.8,41.7 C103,41 102.9,39.9 103.5,39 C104.2,38.2 105.4,38.1 106.2,38.7 C107,39.4 107.1,40.6 106.5,41.4 C105.8,42.3 104.6,42.4 103.8,41.7 L103.8,41.7 Z" id="Shape"></path>
                            <path d="M99.2,47.7 C98.4,47.1 98.2,45.9 98.8,45 C99.4,44.2 100.6,44 101.5,44.7 C102.3,45.3 102.5,46.5 101.8,47.3 C101.2,48.2 100,48.3 99.2,47.7 L99.2,47.7 Z" id="Shape"></path>
                            <path d="M94.6,53.8 C93.8,53.2 93.6,52 94.2,51.2 C94.8,50.4 96,50.2 96.8,50.8 C97.6,51.4 97.8,52.6 97.2,53.4 C96.7,54.2 95.5,54.4 94.6,53.8 L94.6,53.8 Z" id="Shape"></path>
                            <circle id="Oval" transform="translate(91.045450, 57.733510) rotate(126.177757) translate(-91.045450, -57.733510) " cx="91.04545" cy="57.73351" r="1.90002463"></circle>
                            <path d="M85.7,66 C84.9,65.4 84.7,64.2 85.3,63.4 C85.9,62.6 87.1,62.4 87.9,63 C88.7,63.6 88.9,64.8 88.3,65.6 C87.7,66.4 86.5,66.6 85.7,66 L85.7,66 Z" id="Shape"></path>
                            <path d="M81,71.9 C80.2,71.2 80.1,70.1 80.7,69.2 C81.3,68.4 82.5,68.3 83.4,68.9 C84.2,69.5 84.4,70.7 83.7,71.6 C83,72.4 81.8,72.6 81,71.9 L81,71.9 Z" id="Shape"></path>
                            <path d="M76.1,77.6 C75.3,76.9 75.3,75.7 76,75 C76.7,74.2 77.8,74.1 78.6,74.8 C79.4,75.5 79.5,76.7 78.8,77.5 C78,78.3 76.8,78.4 76.1,77.6 L76.1,77.6 Z" id="Shape"></path>
                            <path d="M70.8,83 C70.1,82.2 70.1,81 70.9,80.3 C71.6,79.6 72.8,79.6 73.6,80.3 C74.3,81 74.3,82.2 73.5,83 C72.6,83.8 71.5,83.8 70.8,83 L70.8,83 Z" id="Shape"></path>
                            <path d="M64.8,87.7 C64.2,86.8 64.4,85.7 65.2,85.1 C66,84.5 67.2,84.6 67.8,85.4 C68.5,86.2 68.3,87.4 67.4,88.1 C66.6,88.8 65.4,88.6 64.8,87.7 L64.8,87.7 Z" id="Shape"></path>
                            <path d="M58.3,91.6 C57.8,90.6 58.2,89.6 59.1,89.1 C60,88.6 61.1,88.9 61.6,89.8 C62.1,90.7 61.8,91.9 60.9,92.4 C60,92.9 58.8,92.5 58.3,91.6 L58.3,91.6 Z" id="Shape"></path>
                            <path d="M51.3,94.3 C51,93.3 51.6,92.2 52.5,91.9 C53.4,91.6 54.5,92.1 54.9,93.1 C55.3,94.1 54.7,95.1 53.7,95.5 C52.6,95.8 51.6,95.3 51.3,94.3 L51.3,94.3 Z" id="Shape"></path>
                            <path d="M43.9,95.6 C43.8,94.6 44.5,93.6 45.5,93.5 C46.5,93.4 47.4,94.1 47.6,95.1 C47.8,96.1 47.1,97.2 46,97.2 C44.9,97.4 43.9,96.6 43.9,95.6 L43.9,95.6 Z" id="Shape"></path>
                            <path d="M36.3,95.7 C36.3,95.2 36.6,94.7 36.9,94.4 C37.3,94.1 37.7,93.8 38.2,93.8 C39.2,93.8 40,94.6 40,95.7 C40,96.7 39.2,97.6 38.1,97.6 C37.6,97.6 37.1,97.4 36.7,97 C36.5,96.7 36.3,96.2 36.3,95.7 L36.3,95.7 Z" id="Shape"></path>
                            <path d="M28.8,94.7 C29,93.7 30,93 30.9,93.2 C31.9,93.4 32.6,94.2 32.5,95.3 C32.4,96.3 31.4,97.1 30.3,96.9 C29.3,96.8 28.6,95.8 28.8,94.7 L28.8,94.7 Z" id="Shape"></path>
                            <path d="M21.5,93 C21.8,92 22.8,91.4 23.8,91.7 C24.8,92 25.4,93 25.1,94 C24.9,95 23.8,95.6 22.8,95.3 C21.8,95 21.2,94 21.5,93 L21.5,93 Z" id="Shape"></path>
                            <path d="M14.3,90.7 C14.7,89.7 15.7,89.2 16.7,89.5 C17.7,89.8 18.2,90.9 17.9,91.9 C17.6,92.9 16.5,93.4 15.5,93.1 C14.4,92.7 13.9,91.6 14.3,90.7 L14.3,90.7 Z" id="Shape"></path>
                            <path d="M7.3,87.8 C7.7,86.8 8.8,86.4 9.8,86.8 C10.7,87.2 11.2,88.3 10.8,89.3 C10.4,90.3 9.3,90.7 8.3,90.3 C7.3,89.9 6.8,88.8 7.3,87.8 L7.3,87.8 Z" id="Shape"></path>
                            <path d="M0.4,84.6 C0.9,83.7 2,83.3 2.9,83.7 C3.8,84.2 4.2,85.3 3.8,86.2 C3.4,87.1 2.2,87.5 1.3,87.1 C0.3,86.7 -0.1,85.6 0.4,84.6 L0.4,84.6 Z" id="Shape"></path>
                        </g>
                        <g id="Group" transform="translate(220.000000, 54.000000)">
                            <path d="M17.8,19.8 C17.3,19.8 16.8,19.6 16.4,19.2 L0.2,3 C-0.6,2.2 -0.6,1 0.2,0.2 C1,-0.6 2.2,-0.6 3,0.2 L19.2,16.4 C20,17.2 20,18.4 19.2,19.2 C18.9,19.6 18.4,19.8 17.8,19.8 L17.8,19.8 Z" id="Shape"></path>
                            <path d="M1.7,19.8 C1.2,19.8 0.7,19.6 0.3,19.2 C-0.5,18.4 -0.5,17.2 0.3,16.4 L16.5,0.2 C17.3,-0.6 18.5,-0.6 19.3,0.2 C20.1,1 20.1,2.2 19.3,3 L3.1,19.2 C2.7,19.6 2.2,19.8 1.7,19.8 L1.7,19.8 Z" id="Shape"></path>
                        </g>
                    </g>
                </g>
            </g>
        </g>
    </g>
</svg>