<?xml version="1.0" encoding="UTF-8" standalone="no"?>
<svg width="345px" height="69px" viewBox="0 0 345 69" version="1.1" xmlns="http://www.w3.org/2000/svg" xmlns:xlink="http://www.w3.org/1999/xlink" xmlns:sketch="http://www.bohemiancoding.com/sketch/ns">
    <!-- Generator: Sketch 3.1 (8751) - http://www.bohemiancoding.com/sketch -->
    <title>layout-0-path-1</title>
    <desc>Created with Sketch.</desc>
    <defs></defs>
    <g id="Page-1" stroke="none" stroke-width="1" fill="none" fill-rule="evenodd" sketch:type="MSPage">
        <g id="Главная" sketch:type="MSArtboardGroup" transform="translate(-592.000000, -603.000000)" fill="#FFFFFF">
            <g id="lines" sketch:type="MSLayerGroup" transform="translate(1.000000, 542.000000)">
                <g id="layout-0" transform="translate(1.000000, 0.000000)" sketch:type="MSShapeGroup">
                    <g id="layout-0-path-1" transform="translate(591.000000, 62.000000)">
                        <g id="Group-+-Group" transform="translate(0.000000, 12.000000)">
                            <g id="Group">
                                <path d="M17.3,18.8 C16.9,18.8 16.5,18.7 16.2,18.4 L-2.84217094e-14,2.1 C-0.6,1.5 -0.6,0.6 -2.84217094e-14,-2.84217094e-14 C0.6,-0.6 1.5,-0.6 2.1,-2.84217094e-14 L18.3,16.2 C18.9,16.8 18.9,17.7 18.3,18.3 C18.1,18.6 17.7,18.8 17.3,18.8 L17.3,18.8 Z" id="Shape"></path>
                                <path d="M1.1,18.8 C0.7,18.8 0.3,18.7 -2.84217094e-14,18.4 C-0.6,17.8 -0.6,16.9 -2.84217094e-14,16.3 L16.2,0.1 C16.8,-0.5 17.7,-0.5 18.3,0.1 C18.9,0.7 18.9,1.6 18.3,2.2 L2.1,18.4 C1.9,18.6 1.5,18.8 1.1,18.8 L1.1,18.8 Z" id="Shape"></path>
                            </g>
                            <g id="Group" transform="translate(325.000000, 36.000000)">
                                <path d="M17.3,19.6 C16.9,19.6 16.5,19.5 16.2,19.2 L-2.84217094e-14,3 C-0.6,2.4 -0.6,1.5 -2.84217094e-14,0.9 C0.6,0.3 1.5,0.3 2.1,0.9 L18.3,17.1 C18.9,17.7 18.9,18.6 18.3,19.2 C18.1,19.5 17.7,19.6 17.3,19.6 L17.3,19.6 Z" id="Shape"></path>
                                <path d="M1.1,19.6 C0.7,19.6 0.3,19.5 -2.84217094e-14,19.2 C-0.6,18.6 -0.6,17.7 -2.84217094e-14,17.1 L16.2,0.9 C16.8,0.3 17.7,0.3 18.3,0.9 C18.9,1.5 18.9,2.4 18.3,3 L2.1,19.2 C1.9,19.5 1.5,19.6 1.1,19.6 L1.1,19.6 Z" id="Shape"></path>
                            </g>
                        </g>
                        <g id="Group" transform="translate(37.000000, 0.000000)">
                            <path d="M3.5,34.7 C3,35.6 1.8,35.9 0.9,35.4 C3.33066907e-15,34.9 -0.3,33.7 0.2,32.8 C0.8,31.9 1.9,31.7 2.8,32.1 C3.7,32.6 4,33.7 3.5,34.7 L3.5,34.7 Z" id="Shape"></path>
                            <path d="M10.3,38 C9.9,38.9 8.7,39.4 7.8,39 C6.8,38.5 6.4,37.4 6.9,36.5 C7.4,35.6 8.5,35.2 9.4,35.6 C10.3,36 10.7,37 10.3,38 L10.3,38 Z" id="Shape"></path>
                            <path d="M17.3,40.6 C17,41.6 15.9,42.1 14.9,41.8 C13.9,41.5 13.4,40.4 13.7,39.4 C14.1,38.4 15.1,37.9 16.1,38.2 C17.1,38.5 17.7,39.6 17.3,40.6 L17.3,40.6 Z" id="Shape"></path>
                            <path d="M24.6,42.5 C24.4,43.5 23.4,44.2 22.3,43.9 C21.3,43.7 20.6,42.6 20.9,41.6 C21.2,40.6 22.2,40 23.2,40.2 C24.2,40.5 24.8,41.5 24.6,42.5 L24.6,42.5 Z" id="Shape"></path>
                            <path d="M32.1,43.7 C32,44.7 31,45.5 30,45.4 C28.9,45.2 28.2,44.3 28.4,43.2 C28.6,42.2 29.5,41.5 30.5,41.6 C31.4,41.7 32.2,42.7 32.1,43.7 L32.1,43.7 Z" id="Shape"></path>
                            <path d="M39.6,44.2 C39.6,45.2 38.7,46.1 37.6,46 C36.5,45.9 35.7,45 35.8,44 C35.9,43 36.8,42.2 37.8,42.2 C38.8,42.3 39.6,43.2 39.6,44.2 L39.6,44.2 Z" id="Shape"></path>
                            <path d="M47.1,44.1 C47.2,45.1 46.3,46 45.3,46.1 C44.2,46.1 43.4,45.3 43.4,44.3 C43.4,43.3 44.2,42.4 45.2,42.4 C46.2,42.3 47,43.1 47.1,44.1 L47.1,44.1 Z" id="Shape"></path>
                            <path d="M54.6,43.4 C54.7,44.4 54,45.4 52.9,45.5 C51.8,45.6 50.9,44.8 50.8,43.8 C50.7,42.8 51.5,41.9 52.5,41.7 C53.5,41.7 54.4,42.4 54.6,43.4 L54.6,43.4 Z" id="Shape"></path>
                            <path d="M62,42.3 C62.2,43.3 61.5,44.3 60.5,44.5 C59.5,44.7 58.5,44 58.3,42.9 C58.1,41.9 58.8,40.9 59.8,40.8 C60.9,40.6 61.8,41.3 62,42.3 L62,42.3 Z" id="Shape"></path>
                            <path d="M69.4,40.8 C69.6,41.8 69,42.8 68,43 C67,43.2 66,42.6 65.8,41.6 C65.6,40.6 66.2,39.6 67.2,39.4 C68.1,39.1 69.1,39.8 69.4,40.8 L69.4,40.8 Z" id="Shape"></path>
                            <path d="M76.7,38.9 C77,39.9 76.4,40.9 75.4,41.2 C74.4,41.5 73.4,40.9 73.1,39.9 C72.8,38.9 73.4,37.9 74.4,37.6 C75.4,37.3 76.4,37.9 76.7,38.9 L76.7,38.9 Z" id="Shape"></path>
                            <path d="M83.9,36.8 C84.2,37.8 83.7,38.9 82.7,39.2 C81.7,39.5 80.6,38.9 80.3,37.9 C80,36.9 80.6,35.9 81.6,35.6 C82.5,35.2 83.6,35.8 83.9,36.8 L83.9,36.8 Z" id="Shape"></path>
                            <path d="M91.1,34.5 C91.4,35.5 90.9,36.6 89.9,36.9 C88.9,37.2 87.8,36.7 87.5,35.7 C87.2,34.7 87.7,33.6 88.7,33.3 C89.6,32.9 90.7,33.5 91.1,34.5 L91.1,34.5 Z" id="Shape"></path>
                            <path d="M98.2,32 C98.6,33 98,34.1 97.1,34.4 C96.1,34.8 95,34.2 94.7,33.2 C94.4,32.2 94.9,31.2 95.8,30.8 C96.7,30.5 97.8,31 98.2,32 L98.2,32 Z" id="Shape"></path>
                            <path d="M105.2,29.3 C105.6,30.3 105.1,31.4 104.1,31.7 C103.1,32.1 102,31.6 101.7,30.6 C101.3,29.6 101.8,28.5 102.8,28.2 C103.8,27.9 104.8,28.4 105.2,29.3 L105.2,29.3 Z" id="Shape"></path>
                            <circle id="Oval" transform="translate(110.667140, 26.796040) rotate(-21.070421) translate(-110.667140, -26.796040) " cx="110.66714" cy="26.79604" r="1.89992007"></circle>
                            <circle id="Oval" transform="translate(117.966110, 24.737450) rotate(-21.297083) translate(-117.966110, -24.737450) " cx="117.96611" cy="24.73745" r="1.89998017"></circle>
                            <circle id="Oval" cx="124.9" cy="21.9" r="1.9"></circle>
                            <path d="M133.3,18.5 C133.7,19.5 133.2,20.6 132.2,20.9 C131.2,21.3 130.1,20.8 129.8,19.8 C129.4,18.8 129.9,17.7 130.9,17.4 C131.8,17 132.9,17.5 133.3,18.5 L133.3,18.5 Z" id="Shape"></path>
                            <path d="M140.3,15.8 C140.7,16.8 140.2,17.9 139.2,18.2 C138.2,18.5 137.1,18.1 136.8,17.1 C136.4,16.1 136.9,15 137.9,14.7 C138.9,14.4 140,14.9 140.3,15.8 L140.3,15.8 Z" id="Shape"></path>
                            <path d="M147.4,13.3 C147.7,14.3 147.2,15.4 146.3,15.7 C145.3,16 144.3,15.5 143.9,14.6 C143.5,13.6 144.1,12.5 145,12.2 C146,11.8 147.1,12.3 147.4,13.3 L147.4,13.3 Z" id="Shape"></path>
                            <path d="M154.6,10.9 C154.9,11.9 154.4,13 153.4,13.3 C152.4,13.6 151.4,13.1 151,12.1 C150.7,11.1 151.2,10 152.2,9.7 C153.2,9.4 154.2,9.9 154.6,10.9 L154.6,10.9 Z" id="Shape"></path>
                            <path d="M161.7,8.7 C162,9.7 161.4,10.7 160.4,11 C159.4,11.3 158.4,10.7 158.1,9.7 C157.8,8.7 158.3,7.6 159.4,7.3 C160.4,7.1 161.5,7.7 161.7,8.7 L161.7,8.7 Z" id="Shape"></path>
                            <path d="M169,6.7 C169.3,7.7 168.7,8.7 167.7,9 C166.7,9.3 165.7,8.7 165.4,7.7 C165.1,6.7 165.7,5.7 166.7,5.4 C167.7,5 168.7,5.7 169,6.7 L169,6.7 Z" id="Shape"></path>
                            <path d="M176.3,4.9 C176.5,5.9 175.9,6.9 174.9,7.1 C173.9,7.3 172.9,6.7 172.6,5.7 C172.4,4.7 173,3.7 174,3.4 C175.1,3.3 176.1,3.9 176.3,4.9 L176.3,4.9 Z" id="Shape"></path>
                            <path d="M183.7,3.5 C183.9,4.5 183.2,5.5 182.2,5.7 C181.2,5.9 180.2,5.2 180,4.2 C179.8,3.2 180.5,2.2 181.5,2 C182.6,1.8 183.5,2.5 183.7,3.5 L183.7,3.5 Z" id="Shape"></path>
                            <path d="M191.2,2.5 C191.3,3.5 190.6,4.5 189.6,4.6 C188.6,4.7 187.6,4 187.5,3 C187.4,2 188.1,1 189.1,0.9 C190.1,0.7 191.1,1.4 191.2,2.5 L191.2,2.5 Z" id="Shape"></path>
                            <path d="M198.7,1.9 C198.7,2.9 198,3.8 196.9,3.9 C195.9,3.9 195,3.2 194.9,2.1 C194.8,1.1 195.6,0.1 196.7,0.1 C197.7,0.1 198.6,0.9 198.7,1.9 L198.7,1.9 Z" id="Shape"></path>
                            <path d="M206.2,1.8 C206.2,2.8 205.3,3.6 204.3,3.6 C203.3,3.6 202.4,2.8 202.4,1.7 C202.4,0.7 203.2,-0.2 204.3,-0.2 C205.4,-0.1 206.2,0.8 206.2,1.8 L206.2,1.8 Z" id="Shape"></path>
                            <path d="M213.7,2.2 C213.6,3.2 212.7,4 211.7,3.9 C210.7,3.8 209.9,2.9 210,1.9 C210.1,0.9 211,0.1 212,0.2 C213,0.3 213.8,1.2 213.7,2.2 L213.7,2.2 Z" id="Shape"></path>
                            <path d="M221.2,3.3 C221,4.3 220,5 219,4.8 C218,4.6 217.3,3.7 217.4,2.7 C217.5,1.7 218.5,0.9 219.6,1.1 C220.7,1.3 221.3,2.3 221.2,3.3 L221.2,3.3 Z" id="Shape"></path>
                            <path d="M228.5,5 C228.2,6 227.2,6.6 226.2,6.4 C225.2,6.2 224.6,5.2 224.8,4.1 C225,3.1 226,2.5 227.1,2.7 C228.2,2.9 228.8,4 228.5,5 L228.5,5 Z" id="Shape"></path>
                            <path d="M235.7,7.2 C235.3,8.2 234.3,8.7 233.3,8.4 C232.3,8.1 231.8,7 232.1,6 C232.4,5 233.5,4.5 234.5,4.8 C235.5,5.2 236,6.3 235.7,7.2 L235.7,7.2 Z" id="Shape"></path>
                            <path d="M242.6,10.1 C242.2,11 241.1,11.5 240.1,11 C239.2,10.6 238.7,9.5 239.1,8.6 C239.5,7.6 240.6,7.2 241.6,7.6 C242.6,8 243.1,9.2 242.6,10.1 L242.6,10.1 Z" id="Shape"></path>
                            <path d="M249.3,13.5 C248.8,14.4 247.6,14.8 246.8,14.3 C245.9,13.8 245.6,12.7 246,11.7 C246.5,10.8 247.6,10.4 248.5,10.9 C249.5,11.5 249.8,12.6 249.3,13.5 L249.3,13.5 Z" id="Shape"></path>
                            <path d="M255.7,17.5 C255.1,18.4 254,18.6 253.1,18 C252.2,17.5 252,16.3 252.5,15.4 C253,14.5 254.2,14.2 255.1,14.8 C256.1,15.4 256.3,16.6 255.7,17.5 L255.7,17.5 Z" id="Shape"></path>
                            <path d="M261.9,21.8 C261.3,22.6 260.1,22.8 259.3,22.2 C258.5,21.6 258.3,20.4 258.9,19.6 C259.5,18.8 260.7,18.6 261.5,19.2 C262.3,19.8 262.5,21 261.9,21.8 L261.9,21.8 Z" id="Shape"></path>
                            <path d="M267.7,26.6 C267,27.4 265.8,27.5 265,26.8 C264.2,26.1 264.1,25 264.8,24.2 C265.5,23.4 266.6,23.3 267.5,24 C268.3,24.6 268.4,25.8 267.7,26.6 L267.7,26.6 Z" id="Shape"></path>
                            <path d="M273.2,31.7 C272.5,32.5 271.3,32.4 270.6,31.8 C269.8,31.1 269.8,29.9 270.5,29.2 C271.2,28.4 272.4,28.4 273.2,29.1 C273.9,29.7 273.9,31 273.2,31.7 L273.2,31.7 Z" id="Shape"></path>
                            <path d="M278.5,37.1 C277.7,37.8 276.6,37.8 275.9,37 C275.2,36.2 275.2,35.1 276,34.3 C276.7,33.6 278,33.6 278.7,34.4 C279.3,35.2 279.2,36.4 278.5,37.1 L278.5,37.1 Z" id="Shape"></path>
                        </g>
                    </g>
                </g>
            </g>
        </g>
    </g>
</svg>