<?xml version="1.0" encoding="UTF-8" standalone="no"?>
<svg width="322px" height="105px" viewBox="0 0 322 105" version="1.1" xmlns="http://www.w3.org/2000/svg" xmlns:xlink="http://www.w3.org/1999/xlink" xmlns:sketch="http://www.bohemiancoding.com/sketch/ns">
    <!-- Generator: Sketch 3.1 (8751) - http://www.bohemiancoding.com/sketch -->
    <title>layout-1-path-last</title>
    <desc>Created with Sketch.</desc>
    <defs></defs>
    <g id="Page-1" stroke="none" stroke-width="1" fill="none" fill-rule="evenodd" sketch:type="MSPage">
        <g id="Главная" sketch:type="MSArtboardGroup" transform="translate(-1114.000000, -1253.000000)" fill="#FFFFFF">
            <g id="lines" sketch:type="MSLayerGroup" transform="translate(1.000000, 542.000000)">
                <g id="layout-1" transform="translate(0.000000, 712.000000)" sketch:type="MSShapeGroup">
                    <g id="layout-1-path-last" transform="translate(1113.000000, 0.000000)">
                        <g id="Group" transform="translate(38.000000, 0.000000)">
                            <path d="M284.2,38.8 C285.1,38.4 286.3,38.9 286.7,39.9 C286.9,40.4 286.8,41 286.6,41.4 C286.4,41.8 286,42.2 285.4,42.3 C284.9,42.4 284.4,42.3 284,42.1 C283.6,41.9 283.3,41.5 283.1,41.1 C282.8,40.3 283.3,39.2 284.2,38.8 L284.2,38.8 Z" id="Shape"></path>
                            <path d="M280.2,32.3 C281,31.7 282.3,31.8 282.9,32.7 C283.5,33.6 283.3,34.8 282.4,35.4 C281.5,35.9 280.3,35.7 279.8,34.9 C279.3,34.1 279.4,33 280.2,32.3 L280.2,32.3 Z" id="Shape"></path>
                            <path d="M275,26.9 C275.7,26.1 276.9,26.1 277.7,26.8 C278.5,27.5 278.5,28.8 277.7,29.5 C276.9,30.2 275.8,30.2 275.1,29.5 C274.3,28.8 274.3,27.6 275,26.9 L275,26.9 Z" id="Shape"></path>
                            <path d="M269.1,22.1 C269.7,21.2 270.9,21.1 271.8,21.7 C272.7,22.3 272.8,23.6 272.2,24.4 C271.5,25.2 270.4,25.3 269.6,24.8 C268.7,24.2 268.5,23 269.1,22.1 L269.1,22.1 Z" id="Shape"></path>
                            <path d="M262.7,18.1 C263.2,17.2 264.4,16.9 265.3,17.4 C266.2,17.9 266.5,19.1 265.9,20 C265.3,20.9 264.2,21.1 263.3,20.6 C262.4,20.1 262.2,19 262.7,18.1 L262.7,18.1 Z" id="Shape"></path>
                            <path d="M256,14.6 C256.4,13.7 257.6,13.3 258.6,13.7 C259.6,14.2 259.9,15.4 259.4,16.3 C258.9,17.2 257.8,17.6 256.9,17.1 C255.9,16.6 255.5,15.5 256,14.6 L256,14.6 Z" id="Shape"></path>
                            <path d="M249,11.5 C249.4,10.5 250.5,10 251.5,10.5 C252.5,10.9 252.9,12 252.5,13 C252.1,14 251,14.4 250,14 C249.1,13.5 248.6,12.5 249,11.5 L249,11.5 Z" id="Shape"></path>
                            <path d="M241.9,8.9 C242.2,7.9 243.3,7.4 244.3,7.7 C245.3,8.1 245.8,9.1 245.5,10.1 C245.1,11.1 244.1,11.6 243.1,11.3 C242.1,10.9 241.6,9.9 241.9,8.9 L241.9,8.9 Z" id="Shape"></path>
                            <path d="M234.6,6.7 C234.9,5.7 235.9,5.1 237,5.4 C238,5.7 238.6,6.8 238.3,7.8 C238,8.8 236.9,9.3 236,9.1 C235,8.7 234.4,7.7 234.6,6.7 L234.6,6.7 Z" id="Shape"></path>
                            <path d="M227.3,4.8 C227.5,3.8 228.5,3.2 229.6,3.4 C230.6,3.6 231.3,4.7 231,5.7 C230.7,6.7 229.7,7.3 228.7,7.1 C227.7,6.8 227.1,5.8 227.3,4.8 L227.3,4.8 Z" id="Shape"></path>
                            <path d="M219.8,3.4 C220,2.4 221,1.7 222,1.9 C223.1,2.1 223.7,3.1 223.5,4.1 C223.3,5.1 222.3,5.8 221.3,5.6 C220.4,5.4 219.7,4.4 219.8,3.4 L219.8,3.4 Z" id="Shape"></path>
                            <path d="M212.3,2.4 C212.4,1.4 213.4,0.6 214.4,0.8 C215.5,0.9 216.2,1.9 216,2.9 C215.9,3.9 214.9,4.7 213.9,4.5 C213,4.3 212.2,3.4 212.3,2.4 L212.3,2.4 Z" id="Shape"></path>
                            <path d="M204.8,1.7 C204.9,0.7 205.8,-0.1 206.8,-0.1 C207.9,0 208.7,0.9 208.6,1.9 C208.5,2.9 207.6,3.7 206.6,3.6 C205.5,3.7 204.7,2.8 204.8,1.7 L204.8,1.7 Z" id="Shape"></path>
                            <path d="M197.2,1.5 C197.2,0.5 198,-0.4 199.1,-0.4 C200.2,-0.4 201,0.5 201,1.5 C201,2.5 200.1,3.4 199.1,3.3 C198,3.4 197.2,2.6 197.2,1.5 L197.2,1.5 Z" id="Shape"></path>
                            <path d="M189.6,1.8 C189.5,0.8 190.3,-0.1 191.4,-0.2 C192.5,-0.3 193.4,0.5 193.4,1.6 C193.4,2.6 192.6,3.5 191.6,3.6 C190.6,3.7 189.7,2.9 189.6,1.8 L189.6,1.8 Z" id="Shape"></path>
                            <path d="M182.1,2.6 C182,1.6 182.7,0.6 183.8,0.5 C184.9,0.4 185.8,1.1 185.9,2.2 C186,3.2 185.3,4.2 184.2,4.3 C183.1,4.3 182.2,3.6 182.1,2.6 L182.1,2.6 Z" id="Shape"></path>
                            <path d="M174.6,3.9 C174.4,2.9 175,1.9 176.1,1.7 C177.2,1.5 178.1,2.2 178.3,3.2 C178.5,4.2 177.8,5.2 176.8,5.4 C175.8,5.6 174.8,4.9 174.6,3.9 L174.6,3.9 Z" id="Shape"></path>
                            <path d="M167.3,5.8 C167,4.8 167.6,3.7 168.6,3.4 C169.6,3.1 170.7,3.7 170.9,4.7 C171.2,5.7 170.6,6.7 169.6,7 C168.6,7.4 167.6,6.8 167.3,5.8 L167.3,5.8 Z" id="Shape"></path>
                            <path d="M160,8.1 C159.7,7.1 160.2,6 161.2,5.7 C162.2,5.4 163.3,5.9 163.6,6.9 C163.9,7.9 163.4,9 162.4,9.3 C161.4,9.6 160.4,9.1 160,8.1 L160,8.1 Z" id="Shape"></path>
                            <path d="M153,10.8 C152.6,9.8 153.1,8.7 154.1,8.3 C155.1,7.9 156.2,8.4 156.6,9.4 C157,10.4 156.5,11.4 155.5,11.8 C154.5,12.3 153.4,11.8 153,10.8 L153,10.8 Z" id="Shape"></path>
                            <path d="M146,14 C145.5,13.1 145.9,11.9 146.9,11.5 C147.9,11.1 149,11.5 149.4,12.4 C149.8,13.3 149.4,14.5 148.5,14.9 C147.6,15.3 146.5,14.9 146,14 L146,14 Z" id="Shape"></path>
                            <path d="M139.3,17.5 C138.8,16.6 139.1,15.4 140.1,14.9 C141,14.4 142.2,14.7 142.7,15.7 C143.2,16.6 142.8,17.8 141.9,18.2 C141,18.7 139.8,18.4 139.3,17.5 L139.3,17.5 Z" id="Shape"></path>
                            <path d="M132.8,21.4 C132.2,20.5 132.5,19.3 133.4,18.8 C134.3,18.2 135.5,18.5 136,19.4 C136.5,20.3 136.3,21.5 135.4,22 C134.5,22.5 133.4,22.3 132.8,21.4 L132.8,21.4 Z" id="Shape"></path>
                            <path d="M126.6,25.7 C126,24.9 126.2,23.7 127,23.1 C127.9,22.5 129.1,22.7 129.6,23.5 C130.2,24.4 130,25.5 129.1,26.1 C128.4,26.7 127.2,26.5 126.6,25.7 L126.6,25.7 Z" id="Shape"></path>
                            <path d="M120.6,30.4 C119.9,29.6 120,28.4 120.9,27.7 C121.7,27 122.9,27.2 123.6,28 C124.2,28.8 124.1,30 123.3,30.6 C122.5,31.3 121.3,31.2 120.6,30.4 L120.6,30.4 Z" id="Shape"></path>
                            <path d="M115,35.4 C114.3,34.6 114.3,33.4 115.1,32.7 C115.9,32 117.1,32 117.8,32.8 C118.5,33.6 118.4,34.8 117.7,35.5 C116.9,36.2 115.7,36.2 115,35.4 L115,35.4 Z" id="Shape"></path>
                            <path d="M109.6,40.8 C108.8,40.1 108.8,38.9 109.6,38.1 C110.3,37.3 111.6,37.3 112.3,38.1 C113,38.8 113,40 112.3,40.8 C111.5,41.5 110.3,41.5 109.6,40.8 L109.6,40.8 Z" id="Shape"></path>
                            <path d="M104.5,46.4 C103.7,45.7 103.6,44.5 104.4,43.7 C105.1,42.9 106.3,42.8 107.1,43.5 C107.9,44.2 107.9,45.4 107.2,46.2 C106.5,47 105.3,47.1 104.5,46.4 L104.5,46.4 Z" id="Shape"></path>
                            <path d="M99.6,52.2 C98.8,51.5 98.7,50.3 99.3,49.5 C100,48.7 101.2,48.6 102,49.2 C102.8,49.9 102.9,51.1 102.2,51.9 C101.6,52.7 100.4,52.8 99.6,52.2 L99.6,52.2 Z" id="Shape"></path>
                            <path d="M94.9,58.1 C94.1,57.5 93.9,56.3 94.6,55.4 C95.2,54.6 96.4,54.4 97.3,55.1 C98.1,55.7 98.3,56.9 97.6,57.8 C96.9,58.6 95.7,58.8 94.9,58.1 L94.9,58.1 Z" id="Shape"></path>
                            <path d="M90.3,64.2 C89.5,63.6 89.3,62.4 89.9,61.5 C90.5,60.7 91.7,60.5 92.5,61.1 C93.3,61.7 93.5,62.9 92.9,63.7 C92.3,64.6 91.2,64.8 90.3,64.2 L90.3,64.2 Z" id="Shape"></path>
                            <path d="M85.8,70.2 C85,69.6 84.8,68.4 85.4,67.6 C86,66.8 87.2,66.6 88,67.2 C88.8,67.8 89,69 88.4,69.8 C87.8,70.7 86.6,70.9 85.8,70.2 L85.8,70.2 Z" id="Shape"></path>
                            <path d="M81.1,76.2 C80.3,75.5 80.1,74.4 80.8,73.6 C81.4,72.8 82.6,72.6 83.4,73.3 C84.2,73.9 84.4,75.1 83.7,76 C83.1,76.8 81.9,76.9 81.1,76.2 L81.1,76.2 Z" id="Shape"></path>
                            <path d="M76.2,82.1 C75.4,81.4 75.4,80.2 76,79.4 C76.7,78.6 77.9,78.5 78.7,79.2 C79.5,79.9 79.6,81.1 78.9,81.9 C78.2,82.7 77,82.8 76.2,82.1 L76.2,82.1 Z" id="Shape"></path>
                            <path d="M71,87.5 C70.3,86.7 70.3,85.6 71,84.8 C71.7,84.1 72.9,84.1 73.7,84.8 C74.5,85.5 74.5,86.7 73.7,87.5 C73,88.3 71.7,88.3 71,87.5 L71,87.5 Z" id="Shape"></path>
                            <path d="M65.3,92.5 C64.7,91.7 64.8,90.5 65.6,89.9 C66.4,89.3 67.6,89.4 68.2,90.2 C68.9,91 68.8,92.2 67.9,92.9 C67.1,93.5 65.9,93.3 65.3,92.5 L65.3,92.5 Z" id="Shape"></path>
                            <path d="M58.9,96.6 C58.4,95.7 58.7,94.6 59.6,94.1 C60.5,93.6 61.6,93.9 62.2,94.7 C62.8,95.6 62.5,96.7 61.5,97.3 C60.5,97.8 59.3,97.5 58.9,96.6 L58.9,96.6 Z" id="Shape"></path>
                            <path d="M51.9,99.5 C51.6,98.5 52.1,97.5 53,97.1 C53.9,96.7 55,97.2 55.4,98.2 C55.8,99.2 55.3,100.3 54.3,100.7 C53.3,101 52.2,100.5 51.9,99.5 L51.9,99.5 Z" id="Shape"></path>
                            <path d="M44.5,101.2 C44.4,100.2 45.1,99.2 46,99.1 C47,98.9 48,99.6 48.2,100.6 C48.4,101.6 47.8,102.6 46.7,102.8 C45.6,102.9 44.6,102.2 44.5,101.2 L44.5,101.2 Z" id="Shape"></path>
                            <path d="M36.9,101.6 C36.9,100.6 37.7,99.7 38.7,99.7 C39.7,99.7 40.6,100.5 40.6,101.5 C40.7,102.6 39.8,103.4 38.8,103.4 C37.8,103.6 36.9,102.7 36.9,101.6 L36.9,101.6 Z" id="Shape"></path>
                            <path d="M29.4,101.1 C29.5,100.1 30.5,99.3 31.5,99.5 C32.5,99.6 33.3,100.5 33.2,101.5 C33.1,102.5 32.2,103.3 31.1,103.2 C30,103.1 29.2,102.1 29.4,101.1 L29.4,101.1 Z" id="Shape"></path>
                            <path d="M21.9,99.8 C22.1,98.8 23.1,98.1 24.1,98.3 C25.1,98.5 25.8,99.5 25.6,100.5 C25.4,101.5 24.4,102.2 23.4,102 C22.4,101.8 21.7,100.8 21.9,99.8 L21.9,99.8 Z" id="Shape"></path>
                            <path d="M14.6,97.9 C14.9,96.9 15.9,96.3 16.9,96.6 C17.9,96.9 18.5,97.9 18.2,98.9 C17.9,99.9 16.9,100.5 15.9,100.2 C14.9,99.9 14.3,98.9 14.6,97.9 L14.6,97.9 Z" id="Shape"></path>
                            <path d="M7.4,95.5 C7.8,94.5 8.8,94 9.8,94.4 C10.8,94.8 11.3,95.8 11,96.8 C10.7,97.8 9.6,98.3 8.6,98 C7.6,97.5 7,96.5 7.4,95.5 L7.4,95.5 Z" id="Shape"></path>
                            <path d="M0.3,92.7 C0.7,91.7 1.8,91.3 2.8,91.7 C3.8,92.1 4.2,93.2 3.9,94.1 C3.5,95.1 2.4,95.5 1.4,95.2 C0.4,94.8 -0.1,93.7 0.3,92.7 L0.3,92.7 Z" id="Shape"></path>
                        </g>
                        <g id="Group" transform="translate(0.000000, 77.000000)">
                            <path d="M18.2,20.3 C17.7,20.3 17.2,20.1 16.8,19.7 L0.6,3.5 C-0.2,2.7 -0.2,1.5 0.6,0.7 C1.4,-0.1 2.6,-0.1 3.4,0.7 L19.6,16.9 C20.4,17.7 20.4,18.9 19.6,19.7 C19.3,20.1 18.7,20.3 18.2,20.3 L18.2,20.3 Z" id="Shape"></path>
                            <path d="M2,20.3 C1.5,20.3 1,20.1 0.6,19.7 C-0.2,18.9 -0.2,17.7 0.6,16.9 L16.8,0.7 C17.6,-0.1 18.8,-0.1 19.6,0.7 C20.4,1.5 20.4,2.7 19.6,3.5 L3.4,19.7 C3.1,20.1 2.6,20.3 2,20.3 L2,20.3 Z" id="Shape"></path>
                        </g>
                    </g>
                </g>
            </g>
        </g>
    </g>
</svg>