<?xml version="1.0" encoding="UTF-8" standalone="no"?>
<svg width="242px" height="88px" viewBox="0 0 242 88" version="1.1" xmlns="http://www.w3.org/2000/svg" xmlns:xlink="http://www.w3.org/1999/xlink" xmlns:sketch="http://www.bohemiancoding.com/sketch/ns">
    <!-- Generator: Sketch 3.1 (8751) - http://www.bohemiancoding.com/sketch -->
    <title>layout-0-path-first</title>
    <desc>Created with Sketch.</desc>
    <defs></defs>
    <g id="Page-1" stroke="none" stroke-width="1" fill="none" fill-rule="evenodd" sketch:type="MSPage">
        <g id="Главная" sketch:type="MSArtboardGroup" transform="translate(-1.000000, -542.000000)" fill="#FFFFFF">
            <g id="lines" sketch:type="MSLayerGroup" transform="translate(1.000000, 542.000000)">
                <g id="layout-0" transform="translate(1.000000, 0.000000)" sketch:type="MSShapeGroup">
                    <g id="layout-0-path-first">
                        <g id="Group">
                            <path d="M227.7,43.9 C228.7,43.6 229.8,44.2 230.1,45.2 C230.3,46.3 229.7,47.3 228.7,47.5 C227.7,47.7 226.7,47.1 226.5,46.1 C226.2,45.2 226.7,44.2 227.7,43.9 L227.7,43.9 Z" id="Shape"></path>
                            <path d="M224.8,37 C225.7,36.5 226.8,36.9 227.3,37.9 C227.5,38.4 227.6,38.9 227.4,39.4 C227.2,39.9 226.9,40.2 226.4,40.4 C225.9,40.6 225.4,40.6 225,40.4 C224.5,40.2 224.2,39.9 223.9,39.5 C223.5,38.6 223.9,37.5 224.8,37 L224.8,37 Z" id="Shape"></path>
                            <path d="M220.8,30.7 C221.6,30.1 222.9,30.2 223.4,31.1 C224,32 223.8,33.2 222.9,33.7 C222,34.3 220.9,34 220.3,33.2 C219.8,32.5 220,31.4 220.8,30.7 L220.8,30.7 Z" id="Shape"></path>
                            <path d="M216,25 C216.7,24.3 218,24.3 218.7,25.1 C219.4,25.9 219.3,27.1 218.5,27.8 C217.7,28.5 216.5,28.4 215.9,27.6 C215.2,26.9 215.2,25.8 216,25 L216,25 Z" id="Shape"></path>
                            <path d="M210.5,20 C211.2,19.2 212.4,19.1 213.2,19.8 C214,20.5 214,21.7 213.3,22.5 C212.6,23.3 211.4,23.3 210.7,22.7 C209.9,21.9 209.9,20.8 210.5,20 L210.5,20 Z" id="Shape"></path>
                            <path d="M204.6,15.5 C205.2,14.6 206.4,14.4 207.2,15 C208.1,15.6 208.2,16.8 207.6,17.6 C207,18.4 205.8,18.6 205,18 C204.2,17.5 204,16.3 204.6,15.5 L204.6,15.5 Z" id="Shape"></path>
                            <path d="M198.2,11.6 C198.7,10.7 199.8,10.4 200.8,10.9 C201.7,11.4 202,12.6 201.5,13.5 C201,14.4 199.8,14.7 199,14.2 C198,13.7 197.7,12.5 198.2,11.6 L198.2,11.6 Z" id="Shape"></path>
                            <path d="M191.5,8.4 C191.9,7.4 193,7 194,7.4 C195,7.9 195.4,9 194.9,9.9 C194.4,10.8 193.3,11.2 192.4,10.8 C191.5,10.4 191.1,9.3 191.5,8.4 L191.5,8.4 Z" id="Shape"></path>
                            <path d="M184.5,5.8 C184.8,4.8 185.9,4.2 186.9,4.6 C187.9,5 188.4,6.1 188,7 C187.6,8 186.6,8.5 185.6,8.1 C184.7,7.8 184.2,6.8 184.5,5.8 L184.5,5.8 Z" id="Shape"></path>
                            <path d="M177.3,3.8 C177.5,2.8 178.5,2.1 179.6,2.4 C180.6,2.7 181.2,3.7 181,4.7 C180.7,5.7 179.7,6.3 178.7,6.1 C177.7,5.8 177,4.8 177.3,3.8 L177.3,3.8 Z" id="Shape"></path>
                            <path d="M169.9,2.6 C170,1.6 171,0.8 172,1 C173.1,1.2 173.8,2.1 173.6,3.1 C173.4,4.1 172.5,4.8 171.5,4.7 C170.5,4.5 169.8,3.6 169.9,2.6 L169.9,2.6 Z" id="Shape"></path>
                            <path d="M162.5,2.1 C162.5,1.1 163.4,0.2 164.4,0.3 C165.5,0.3 166.3,1.2 166.2,2.3 C166.1,3.3 165.3,4.1 164.3,4.1 C163.2,4 162.4,3.1 162.5,2.1 L162.5,2.1 Z" id="Shape"></path>
                            <path d="M155,2.4 C154.9,1.4 155.7,0.4 156.7,0.4 C157.8,0.3 158.6,1.2 158.7,2.2 C158.7,3.3 157.9,4.1 157,4.2 C156,4.2 155.1,3.4 155,2.4 L155,2.4 Z" id="Shape"></path>
                            <path d="M147.6,3.4 C147.4,2.4 148.1,1.3 149.1,1.2 C150.2,1 151.1,1.8 151.3,2.8 C151.4,3.8 150.8,4.8 149.8,4.9 C148.8,5.1 147.8,4.4 147.6,3.4 L147.6,3.4 Z" id="Shape"></path>
                            <path d="M140.4,5.2 C140.1,4.2 140.7,3.2 141.7,2.9 C142.7,2.6 143.8,3.2 144,4.2 C144.2,5.2 143.7,6.2 142.7,6.5 C141.7,6.8 140.7,6.2 140.4,5.2 L140.4,5.2 Z" id="Shape"></path>
                            <path d="M133.4,7.8 C133,6.8 133.4,5.7 134.4,5.3 C135.4,4.9 136.5,5.4 136.8,6.4 C137.2,7.4 136.7,8.4 135.8,8.8 C134.9,9.2 133.8,8.8 133.4,7.8 L133.4,7.8 Z" id="Shape"></path>
                            <path d="M126.6,11 C126.1,10.1 126.5,8.9 127.4,8.5 C128.3,8 129.5,8.4 129.9,9.4 C130.3,10.3 130,11.5 129.1,11.9 C128.2,12.3 127.1,11.9 126.6,11 L126.6,11 Z" id="Shape"></path>
                            <path d="M120.1,14.5 C119.6,13.6 119.9,12.5 120.8,12 C121.7,11.5 122.9,11.8 123.4,12.8 C123.9,13.7 123.6,14.9 122.7,15.3 C121.7,15.8 120.6,15.4 120.1,14.5 L120.1,14.5 Z" id="Shape"></path>
                            <path d="M113.7,18.4 C113.1,17.5 113.4,16.3 114.3,15.8 C115.2,15.3 116.4,15.6 116.9,16.5 C117.4,17.4 117.2,18.5 116.3,19.1 C115.4,19.5 114.2,19.3 113.7,18.4 L113.7,18.4 Z" id="Shape"></path>
                            <path d="M107.4,22.5 C106.8,21.6 107,20.5 107.9,19.9 C108.8,19.3 109.9,19.6 110.5,20.5 C111.1,21.4 110.8,22.5 110,23.1 C109.2,23.6 108,23.3 107.4,22.5 L107.4,22.5 Z" id="Shape"></path>
                            <path d="M101.3,26.8 C100.7,26 100.9,24.8 101.7,24.2 C102.5,23.6 103.7,23.8 104.3,24.7 C104.9,25.6 104.7,26.7 103.9,27.3 C103.1,27.8 101.9,27.6 101.3,26.8 L101.3,26.8 Z" id="Shape"></path>
                            <path d="M95.3,31.2 C94.7,30.4 94.8,29.2 95.7,28.6 C96.5,28 97.7,28.1 98.3,29 C98.9,29.8 98.8,31 97.9,31.6 C97.1,32.2 95.9,32.1 95.3,31.2 L95.3,31.2 Z" id="Shape"></path>
                            <path d="M89.4,35.8 C88.8,35 88.9,33.8 89.7,33.2 C90.5,32.6 91.7,32.7 92.3,33.5 C92.9,34.3 92.8,35.5 92,36.1 C91.2,36.8 90,36.6 89.4,35.8 L89.4,35.8 Z" id="Shape"></path>
                            <circle id="Oval" transform="translate(85.337550, 39.474270) rotate(141.361667) translate(-85.337550, -39.474270) " cx="85.33755" cy="39.47427" r="1.89999294"></circle>
                            <circle id="Oval" transform="translate(79.474720, 43.800080) rotate(141.080686) translate(-79.474720, -43.800080) " cx="79.47472" cy="43.80008" r="1.89992328"></circle>
                            <circle id="Oval" transform="translate(72.816310, 48.766490) rotate(141.125431) translate(-72.816310, -48.766490) " cx="72.81631" cy="48.76649" r="1.89994681"></circle>
                            <path d="M66.1,54.4 C65.5,53.6 65.6,52.4 66.4,51.8 C67.2,51.2 68.4,51.3 69,52.1 C69.6,52.9 69.5,54.1 68.7,54.7 C67.9,55.4 66.7,55.3 66.1,54.4 L66.1,54.4 Z" id="Shape"></path>
                            <path d="M60.2,59 C59.6,58.2 59.7,57 60.5,56.4 C61.3,55.8 62.5,55.9 63.1,56.8 C63.7,57.6 63.6,58.8 62.8,59.4 C62,60 60.8,59.8 60.2,59 L60.2,59 Z" id="Shape"></path>
                            <path d="M54.2,63.4 C53.6,62.6 53.8,61.4 54.6,60.8 C55.4,60.2 56.6,60.4 57.2,61.2 C57.8,62 57.6,63.2 56.8,63.8 C55.9,64.5 54.8,64.3 54.2,63.4 L54.2,63.4 Z" id="Shape"></path>
                            <path d="M48,67.7 C47.4,66.8 47.6,65.7 48.5,65.1 C49.3,64.5 50.5,64.8 51.1,65.6 C51.7,66.5 51.5,67.6 50.6,68.2 C49.8,68.8 48.6,68.5 48,67.7 L48,67.7 Z" id="Shape"></path>
                            <path d="M41.7,71.7 C41.2,70.8 41.4,69.6 42.3,69.1 C43.2,68.6 44.3,68.8 44.9,69.7 C45.5,70.6 45.2,71.7 44.3,72.3 C43.4,72.9 42.3,72.6 41.7,71.7 L41.7,71.7 Z" id="Shape"></path>
                            <path d="M35.2,75.3 C34.7,74.4 35.1,73.3 35.9,72.8 C36.8,72.3 37.9,72.6 38.4,73.5 C38.9,74.4 38.6,75.6 37.7,76.1 C36.9,76.7 35.7,76.2 35.2,75.3 L35.2,75.3 Z" id="Shape"></path>
                            <path d="M28.5,78.6 C28.1,77.6 28.5,76.5 29.4,76.1 C30.3,75.7 31.4,76.1 31.9,77 C32.4,77.9 32,79.1 31,79.5 C30,80 28.9,79.5 28.5,78.6 L28.5,78.6 Z" id="Shape"></path>
                            <path d="M21.6,81.4 C21.3,80.4 21.7,79.3 22.7,79 C23.6,78.7 24.7,79.2 25.1,80.1 C25.5,81.1 25,82.1 24,82.5 C23,82.9 21.9,82.4 21.6,81.4 L21.6,81.4 Z" id="Shape"></path>
                            <path d="M14.4,83.6 C14.1,82.6 14.7,81.5 15.7,81.3 C16.7,81 17.7,81.6 18,82.6 C18.3,83.6 17.7,84.6 16.7,84.9 C15.7,85.2 14.7,84.6 14.4,83.6 L14.4,83.6 Z" id="Shape"></path>
                            <path d="M7.1,85.1 C6.9,84.1 7.6,83.2 8.6,82.9 C9.6,82.7 10.6,83.3 10.8,84.4 C11,85.4 10.4,86.4 9.3,86.7 C8.3,86.9 7.3,86.2 7.1,85.1 L7.1,85.1 Z" id="Shape"></path>
                            <path d="M-0.3,86 C-0.4,85 0.4,84.1 1.4,84 C2.4,83.9 3.3,84.6 3.4,85.7 C3.5,86.7 2.8,87.7 1.7,87.8 C0.7,87.8 -0.2,87 -0.3,86 L-0.3,86 Z" id="Shape"></path>
                        </g>
                        <g id="Group" transform="translate(220.000000, 58.000000)">
                            <path d="M7.6,10.1 L0.9,16.8 C0.1,17.6 0.1,18.8 0.9,19.6 C1.3,20 1.8,20.2 2.3,20.2 C2.8,20.2 3.3,20 3.7,19.6 L10.4,12.9 L17.1,19.6 C17.5,20 18,20.2 18.5,20.2 C19,20.2 19.5,20 19.9,19.6 C20.7,18.8 20.7,17.6 19.9,16.8 L13.2,10.1 L19.9,3.4 C20.7,2.6 20.7,1.4 19.9,0.6 C19.1,-0.2 17.9,-0.2 17.1,0.6 L10.4,7.3 L3.7,0.6 C2.9,-0.2 1.7,-0.2 0.9,0.6 C0.1,1.4 0.1,2.6 0.9,3.4 L7.6,10.1 Z" id="Shape"></path>
                        </g>
                    </g>
                </g>
            </g>
        </g>
    </g>
</svg>