<?xml version="1.0" encoding="UTF-8" standalone="no"?>
<svg width="586px" height="175px" viewBox="0 0 586 175" version="1.1" xmlns="http://www.w3.org/2000/svg" xmlns:xlink="http://www.w3.org/1999/xlink" xmlns:sketch="http://www.bohemiancoding.com/sketch/ns">
    <!-- Generator: Sketch 3.1 (8751) - http://www.bohemiancoding.com/sketch -->
    <title>layout-0-path-last</title>
    <desc>Created with Sketch.</desc>
    <defs></defs>
    <g id="Page-1" stroke="none" stroke-width="1" fill="none" fill-rule="evenodd" sketch:type="MSPage">
        <g id="Главная" sketch:type="MSArtboardGroup" transform="translate(-2.000000, -954.000000)" fill="#FFFFFF">
            <g id="lines" sketch:type="MSLayerGroup" transform="translate(1.000000, 542.000000)">
                <g id="layout-0" transform="translate(1.000000, 0.000000)" sketch:type="MSShapeGroup">
                    <g id="layout-0-path-last" transform="translate(1.000000, 412.000000)">
                        <g id="Group">
                            <path d="M3.4,11.3 C3.6,12.3 2.9,13.3 1.9,13.5 C0.9,13.7 -0.1,13 -0.3,12 C-0.5,11 0.1,10 1.2,9.8 C2.2,9.7 3.2,10.3 3.4,11.3 L3.4,11.3 Z" id="Shape"></path>
                            <path d="M10.9,9.8 C11.1,10.8 10.4,11.8 9.4,12 C8.4,12.2 7.4,11.5 7.2,10.5 C7,9.5 7.7,8.5 8.7,8.3 C9.7,8.2 10.7,8.8 10.9,9.8 L10.9,9.8 Z" id="Shape"></path>
                            <path d="M18.3,8.5 C18.5,9.5 17.8,10.5 16.8,10.7 C15.8,10.9 14.8,10.2 14.6,9.1 C14.4,8.1 15.1,7.1 16.1,6.9 C17.2,6.8 18.1,7.5 18.3,8.5 L18.3,8.5 Z" id="Shape"></path>
                            <path d="M25.8,7.3 C26,8.3 25.3,9.3 24.2,9.5 C23.2,9.7 22.2,9 22,7.9 C21.8,6.9 22.5,5.9 23.6,5.7 C24.7,5.6 25.6,6.3 25.8,7.3 L25.8,7.3 Z" id="Shape"></path>
                            <path d="M33.3,6.1 C33.4,7.1 32.7,8.1 31.7,8.2 C30.7,8.4 29.7,7.7 29.6,6.6 C29.4,5.6 30.2,4.6 31.2,4.4 C32.2,4.3 33.1,5.1 33.3,6.1 L33.3,6.1 Z" id="Shape"></path>
                            <path d="M40.8,5.2 C40.9,6.2 40.2,7.2 39.2,7.3 C38.2,7.4 37.2,6.7 37.1,5.7 C37,4.7 37.7,3.7 38.7,3.6 C39.7,3.4 40.7,4.1 40.8,5.2 L40.8,5.2 Z" id="Shape"></path>
                            <path d="M48.3,4.2 C48.4,5.2 47.7,6.2 46.6,6.3 C45.6,6.4 44.6,5.7 44.5,4.7 C44.4,3.7 45.1,2.7 46.2,2.6 C47.3,2.5 48.2,3.2 48.3,4.2 L48.3,4.2 Z" id="Shape"></path>
                            <path d="M55.9,3.6 C56,4.6 55.2,5.6 54.2,5.6 C53.2,5.7 52.2,4.9 52.1,3.9 C52,2.9 52.8,2 53.8,1.9 C54.8,1.8 55.8,2.5 55.9,3.6 L55.9,3.6 Z" id="Shape"></path>
                            <path d="M63.4,2.9 C63.5,3.9 62.7,4.9 61.7,4.9 C60.7,5 59.8,4.2 59.7,3.2 C59.6,2.2 60.4,1.2 61.4,1.2 C62.4,1.1 63.3,1.9 63.4,2.9 L63.4,2.9 Z" id="Shape"></path>
                            <path d="M71,2.5 C71.1,3.5 70.3,4.4 69.2,4.5 C68.2,4.5 67.3,3.7 67.2,2.7 C67.1,1.7 67.9,0.8 69,0.7 C70,0.6 70.9,1.4 71,2.5 L71,2.5 Z" id="Shape"></path>
                            <path d="M78.5,2.1 C78.5,3.1 77.7,4 76.7,4.1 C75.7,4.1 74.8,3.3 74.7,2.3 C74.7,1.3 75.5,0.4 76.5,0.3 C77.6,0.3 78.5,1.1 78.5,2.1 L78.5,2.1 Z" id="Shape"></path>
                            <path d="M86.1,2 C86.1,3 85.3,3.9 84.2,3.9 C83.2,3.9 82.3,3.1 82.3,2 C82.3,1 83.1,0.1 84.2,0.1 C85.2,0.1 86.1,0.9 86.1,2 L86.1,2 Z" id="Shape"></path>
                            <path d="M93.7,1.9 C93.7,2.9 92.8,3.8 91.8,3.8 C90.8,3.8 89.9,3 89.9,1.9 C89.9,0.9 90.7,0 91.8,0 C92.8,0.1 93.7,0.9 93.7,1.9 L93.7,1.9 Z" id="Shape"></path>
                            <path d="M101.3,2.1 C101.3,3.1 100.4,4 99.4,3.9 C98.4,3.9 97.5,3 97.5,2 C97.5,0.9 98.4,0.1 99.4,0.2 C100.5,0.1 101.3,1 101.3,2.1 L101.3,2.1 Z" id="Shape"></path>
                            <path d="M108.8,2.3 C108.7,3.3 107.9,4.2 106.8,4.1 C105.8,4.1 105,3.2 105,2.1 C105,1.1 105.9,0.2 107,0.3 C108.1,0.4 108.9,1.3 108.8,2.3 L108.8,2.3 Z" id="Shape"></path>
                            <path d="M116.4,2.8 C116.3,3.8 115.4,4.6 114.4,4.5 C113.4,4.4 112.6,3.5 112.6,2.5 C112.7,1.5 113.6,0.7 114.6,0.8 C115.7,0.8 116.5,1.8 116.4,2.8 L116.4,2.8 Z" id="Shape"></path>
                            <path d="M123.9,3.4 C123.8,4.4 122.9,5.2 121.8,5.1 C120.8,5 120,4.1 120.1,3.1 C120.2,2.1 121.1,1.3 122.2,1.4 C123.3,1.5 124,2.4 123.9,3.4 L123.9,3.4 Z" id="Shape"></path>
                            <path d="M131.5,4.2 C131.4,5.2 130.4,6 129.4,5.8 C128.4,5.7 127.6,4.7 127.7,3.7 C127.8,2.7 128.7,1.9 129.8,2.1 C130.8,2.2 131.6,3.2 131.5,4.2 L131.5,4.2 Z" id="Shape"></path>
                            <path d="M139,5.2 C138.9,6.2 137.9,7 136.9,6.8 C135.9,6.7 135.1,5.7 135.3,4.7 C135.4,3.7 136.4,2.9 137.4,3.1 C138.4,3.2 139.1,4.1 139,5.2 L139,5.2 Z" id="Shape"></path>
                            <path d="M146.5,6.3 C146.3,7.3 145.4,8 144.3,7.8 C143.3,7.6 142.6,6.7 142.7,5.6 C142.9,4.6 143.8,3.9 144.9,4.1 C145.9,4.3 146.6,5.3 146.5,6.3 L146.5,6.3 Z" id="Shape"></path>
                            <path d="M153.9,7.6 C153.7,8.6 152.7,9.3 151.7,9.1 C150.7,8.9 150,8 150.2,6.9 C150.4,5.9 151.4,5.2 152.4,5.4 C153.4,5.6 154.1,6.6 153.9,7.6 L153.9,7.6 Z" id="Shape"></path>
                            <path d="M161.3,9.2 C161.1,10.2 160.1,10.9 159.1,10.6 C158.1,10.4 157.4,9.4 157.6,8.4 C157.8,7.4 158.8,6.7 159.8,7 C160.9,7.1 161.6,8.1 161.3,9.2 L161.3,9.2 Z" id="Shape"></path>
                            <path d="M168.7,10.8 C168.5,11.8 167.4,12.4 166.4,12.2 C165.4,12 164.7,11 165,10 C165.2,9 166.3,8.3 167.3,8.6 C168.4,8.8 169,9.8 168.7,10.8 L168.7,10.8 Z" id="Shape"></path>
                            <path d="M176.1,12.7 C175.8,13.7 174.8,14.3 173.8,14 C172.8,13.7 172.2,12.7 172.4,11.7 C172.7,10.7 173.7,10.1 174.7,10.4 C175.7,10.7 176.3,11.7 176.1,12.7 L176.1,12.7 Z" id="Shape"></path>
                            <path d="M183.4,14.8 C183.1,15.8 182.1,16.4 181.1,16.1 C180.1,15.8 179.5,14.7 179.8,13.7 C180.1,12.7 181.1,12.1 182.1,12.4 C183.1,12.7 183.7,13.8 183.4,14.8 L183.4,14.8 Z" id="Shape"></path>
                            <path d="M190.6,17 C190.3,18 189.2,18.5 188.2,18.2 C187.2,17.9 186.7,16.8 187,15.8 C187.3,14.8 188.4,14.2 189.4,14.6 C190.4,15 190.9,16 190.6,17 L190.6,17 Z" id="Shape"></path>
                            <path d="M197.8,19.5 C197.5,20.5 196.4,21 195.4,20.7 C194.4,20.4 193.9,19.3 194.2,18.3 C194.5,17.3 195.6,16.8 196.6,17.1 C197.6,17.4 198.1,18.5 197.8,19.5 L197.8,19.5 Z" id="Shape"></path>
                            <path d="M204.9,22.1 C204.5,23.1 203.4,23.5 202.5,23.2 C201.5,22.9 201,21.8 201.4,20.8 C201.8,19.8 202.9,19.3 203.9,19.7 C204.8,20 205.2,21.1 204.9,22.1 L204.9,22.1 Z" id="Shape"></path>
                            <path d="M211.9,24.9 C211.5,25.9 210.4,26.3 209.4,25.9 C208.4,25.5 208,24.4 208.4,23.4 C208.8,22.4 209.9,22 210.9,22.4 C211.8,22.8 212.3,23.9 211.9,24.9 L211.9,24.9 Z" id="Shape"></path>
                            <path d="M218.9,27.9 C218.5,28.9 217.4,29.3 216.4,28.9 C215.5,28.5 215,27.4 215.4,26.4 C215.8,25.4 216.9,25 217.9,25.4 C218.8,25.8 219.3,27 218.9,27.9 L218.9,27.9 Z" id="Shape"></path>
                            <path d="M225.8,31 C225.3,31.9 224.2,32.3 223.3,31.9 C222.4,31.5 221.9,30.4 222.4,29.4 C222.8,28.5 224,28 224.9,28.5 C225.8,28.9 226.2,30.1 225.8,31 L225.8,31 Z" id="Shape"></path>
                            <path d="M232.5,34.4 C232,35.3 230.9,35.7 230,35.2 C229.1,34.7 228.7,33.6 229.1,32.7 C229.6,31.8 230.7,31.4 231.6,31.9 C232.6,32.4 233,33.5 232.5,34.4 L232.5,34.4 Z" id="Shape"></path>
                            <path d="M239.2,37.9 C238.7,38.8 237.6,39.2 236.6,38.7 C235.7,38.2 235.3,37.1 235.8,36.1 C236.3,35.2 237.4,34.8 238.3,35.3 C239.4,35.9 239.7,37 239.2,37.9 L239.2,37.9 Z" id="Shape"></path>
                            <path d="M245.9,41.6 C245.4,42.5 244.2,42.8 243.3,42.3 C242.4,41.8 242.1,40.7 242.6,39.8 C243.1,38.9 244.3,38.6 245.2,39.1 C246.1,39.5 246.4,40.7 245.9,41.6 L245.9,41.6 Z" id="Shape"></path>
                            <path d="M252.4,45.4 C251.9,46.3 250.7,46.6 249.8,46.1 C248.9,45.6 248.6,44.4 249.1,43.5 C249.6,42.6 250.8,42.3 251.7,42.8 C252.6,43.4 252.9,44.6 252.4,45.4 L252.4,45.4 Z" id="Shape"></path>
                            <path d="M258.8,49.5 C258.2,50.4 257.1,50.6 256.2,50.1 C255.3,49.5 255.1,48.4 255.6,47.5 C256.1,46.6 257.3,46.4 258.2,46.9 C259.1,47.4 259.4,48.6 258.8,49.5 L258.8,49.5 Z" id="Shape"></path>
                            <path d="M265.2,53.6 C264.6,54.5 263.5,54.7 262.6,54.1 C261.7,53.5 261.5,52.4 262,51.5 C262.6,50.6 263.8,50.4 264.6,51 C265.5,51.5 265.8,52.7 265.2,53.6 L265.2,53.6 Z" id="Shape"></path>
                            <path d="M271.4,57.9 C270.8,58.8 269.6,59 268.8,58.4 C267.9,57.8 267.7,56.6 268.3,55.8 C268.9,54.9 270.1,54.7 270.9,55.3 C271.8,55.8 272,57 271.4,57.9 L271.4,57.9 Z" id="Shape"></path>
                            <path d="M277.6,62.3 C277,63.1 275.8,63.3 275,62.7 C274.2,62.1 274,60.9 274.6,60.1 C275.2,59.3 276.4,59.1 277.2,59.7 C278,60.3 278.2,61.5 277.6,62.3 L277.6,62.3 Z" id="Shape"></path>
                            <path d="M283.6,66.9 C283,67.7 281.8,67.9 281,67.2 C280.2,66.6 280,65.4 280.6,64.5 C281.2,63.7 282.4,63.5 283.2,64.2 C284.1,64.9 284.3,66 283.6,66.9 L283.6,66.9 Z" id="Shape"></path>
                            <path d="M289.6,71.5 C288.9,72.3 287.8,72.4 287,71.8 C286.2,71.2 286,70 286.7,69.2 C287.3,68.4 288.5,68.2 289.4,68.9 C290.1,69.5 290.2,70.7 289.6,71.5 L289.6,71.5 Z" id="Shape"></path>
                            <path d="M295.5,76.3 C294.8,77.1 293.6,77.2 292.8,76.6 C292,75.9 291.9,74.8 292.5,73.9 C293.2,73.1 294.4,73 295.2,73.6 C296,74.3 296.1,75.5 295.5,76.3 L295.5,76.3 Z" id="Shape"></path>
                            <path d="M301.2,81.2 C300.5,82 299.3,82.1 298.5,81.4 C297.7,80.7 297.6,79.5 298.3,78.7 C299,77.9 300.2,77.8 301,78.5 C301.8,79.2 301.9,80.4 301.2,81.2 L301.2,81.2 Z" id="Shape"></path>
                            <path d="M306.9,86.2 C306.2,87 305,87 304.2,86.4 C303.4,85.7 303.3,84.5 304,83.7 C304.7,82.9 305.9,82.8 306.7,83.5 C307.6,84.2 307.6,85.4 306.9,86.2 L306.9,86.2 Z" id="Shape"></path>
                            <path d="M312.6,91.3 C311.9,92.1 310.7,92.1 309.9,91.4 C309.1,90.7 309.1,89.5 309.8,88.7 C310.5,87.9 311.7,87.9 312.5,88.6 C313.2,89.3 313.3,90.5 312.6,91.3 L312.6,91.3 Z" id="Shape"></path>
                            <path d="M318.1,96.4 C317.4,97.2 316.2,97.2 315.4,96.5 C314.6,95.8 314.6,94.6 315.3,93.8 C316,93 317.2,93 318,93.7 C318.8,94.5 318.8,95.7 318.1,96.4 L318.1,96.4 Z" id="Shape"></path>
                            <path d="M323.6,101.7 C322.9,102.5 321.7,102.5 320.9,101.8 C320.1,101.1 320.1,99.9 320.8,99.1 C321.5,98.3 322.7,98.3 323.5,99 C324.3,99.7 324.3,100.9 323.6,101.7 L323.6,101.7 Z" id="Shape"></path>
                            <path d="M329,107 C328.3,107.7 327.1,107.8 326.3,107 C325.6,106.3 325.5,105.1 326.3,104.3 C327,103.6 328.2,103.5 329,104.3 C329.8,105.1 329.7,106.2 329,107 L329,107 Z" id="Shape"></path>
                            <circle id="Oval" transform="translate(332.968820, 110.787180) rotate(44.886559) translate(-332.968820, -110.787180) " cx="332.96882" cy="110.78718" r="1.8999855"></circle>
                            <path d="M339.7,117.7 C339,118.4 337.8,118.4 337,117.7 C336.3,117 336.3,115.8 337,115 C337.7,114.3 338.9,114.3 339.7,115 C340.5,115.7 340.5,116.9 339.7,117.7 L339.7,117.7 Z" id="Shape"></path>
                            <circle id="Oval" transform="translate(343.721200, 121.971180) rotate(45.364627) translate(-343.721200, -121.971180) " cx="343.7212" cy="121.97118" r="1.90002025"></circle>
                            <path d="M350.5,128.4 C349.8,129.2 348.6,129.2 347.8,128.4 C347,127.6 347,126.5 347.8,125.7 C348.5,125 349.7,125 350.5,125.7 C351.2,126.4 351.2,127.6 350.5,128.4 L350.5,128.4 Z" id="Shape"></path>
                            <path d="M356.1,133.5 C355.4,134.3 354.2,134.4 353.4,133.7 C352.6,133 352.5,131.8 353.2,131 C353.9,130.2 355.1,130.2 355.9,130.8 C356.7,131.5 356.7,132.7 356.1,133.5 L356.1,133.5 Z" id="Shape"></path>
                            <path d="M361.9,138.3 C361.3,139.1 360.1,139.3 359.2,138.6 C358.4,137.9 358.2,136.8 358.9,136 C359.6,135.2 360.8,135.1 361.6,135.7 C362.4,136.3 362.6,137.4 361.9,138.3 L361.9,138.3 Z" id="Shape"></path>
                            <path d="M368,142.8 C367.4,143.7 366.2,143.8 365.4,143.2 C364.5,142.6 364.3,141.4 365,140.6 C365.6,139.8 366.8,139.6 367.6,140.2 C368.4,140.7 368.6,141.9 368,142.8 L368,142.8 Z" id="Shape"></path>
                            <path d="M374.3,147 C373.7,147.9 372.6,148.1 371.7,147.6 C370.8,147 370.6,145.9 371.1,145 C371.7,144.1 372.9,143.9 373.7,144.4 C374.6,144.9 374.9,146.1 374.3,147 L374.3,147 Z" id="Shape"></path>
                            <path d="M380.8,150.9 C380.3,151.8 379.1,152.1 378.2,151.6 C377.3,151.1 377,149.9 377.5,149 C378,148.1 379.2,147.8 380.1,148.3 C381,148.8 381.3,150 380.8,150.9 L380.8,150.9 Z" id="Shape"></path>
                            <path d="M387.5,154.5 C387,155.4 385.9,155.8 385,155.3 C384.1,154.8 383.7,153.7 384.2,152.7 C384.7,151.8 385.8,151.4 386.7,151.9 C387.6,152.4 388,153.5 387.5,154.5 L387.5,154.5 Z" id="Shape"></path>
                            <path d="M394.3,157.7 C393.9,158.7 392.7,159.1 391.8,158.6 C390.8,158.1 390.4,157 390.9,156.1 C391.4,155.2 392.5,154.8 393.4,155.2 C394.3,155.7 394.7,156.8 394.3,157.7 L394.3,157.7 Z" id="Shape"></path>
                            <path d="M401.3,160.7 C400.9,161.7 399.8,162.1 398.8,161.7 C397.8,161.3 397.4,160.2 397.8,159.2 C398.2,158.2 399.3,157.8 400.3,158.2 C401.2,158.6 401.7,159.7 401.3,160.7 L401.3,160.7 Z" id="Shape"></path>
                            <path d="M408.4,163.3 C408.1,164.3 407,164.8 406,164.4 C405,164 404.5,162.9 404.9,162 C405.3,161 406.3,160.5 407.3,160.9 C408.2,161.3 408.7,162.4 408.4,163.3 L408.4,163.3 Z" id="Shape"></path>
                            <path d="M415.6,165.7 C415.3,166.7 414.2,167.2 413.2,166.9 C412.2,166.6 411.6,165.5 412,164.5 C412.3,163.5 413.4,163 414.4,163.3 C415.3,163.6 415.9,164.7 415.6,165.7 L415.6,165.7 Z" id="Shape"></path>
                            <path d="M422.9,167.7 C422.7,168.7 421.6,169.3 420.6,169 C419.6,168.7 419,167.7 419.2,166.7 C419.5,165.7 420.5,165.1 421.5,165.4 C422.5,165.6 423.1,166.7 422.9,167.7 L422.9,167.7 Z" id="Shape"></path>
                            <path d="M430.3,169.3 C430.1,170.3 429.1,171 428.1,170.7 C427.1,170.5 426.4,169.5 426.6,168.4 C426.8,167.4 427.8,166.7 428.8,167 C429.8,167.3 430.5,168.3 430.3,169.3 L430.3,169.3 Z" id="Shape"></path>
                            <path d="M437.7,170.6 C437.5,171.6 436.6,172.3 435.5,172.1 C434.5,171.9 433.8,170.9 433.9,169.9 C434.1,168.9 435.1,168.2 436.1,168.4 C437.2,168.6 437.9,169.6 437.7,170.6 L437.7,170.6 Z" id="Shape"></path>
                            <path d="M445.3,171.6 C445.2,172.6 444.3,173.4 443.2,173.2 C442.1,173.1 441.4,172.1 441.5,171.1 C441.6,170.1 442.6,169.3 443.6,169.5 C444.6,169.6 445.4,170.6 445.3,171.6 L445.3,171.6 Z" id="Shape"></path>
                            <path d="M452.8,172.2 C452.7,173.2 451.8,174.1 450.8,174 C449.7,173.9 449,173 449,172 C449.1,171 450,170.2 451,170.3 C452.1,170.3 452.9,171.2 452.8,172.2 L452.8,172.2 Z" id="Shape"></path>
                            <path d="M460.4,172.4 C460.4,173.4 459.5,174.3 458.5,174.3 C457.4,174.3 456.6,173.4 456.6,172.3 C456.6,171.3 457.5,170.4 458.5,170.5 C459.6,170.6 460.4,171.4 460.4,172.4 L460.4,172.4 Z" id="Shape"></path>
                            <path d="M468,172.2 C468.1,173.2 467.2,174.2 466.2,174.2 C465.1,174.2 464.3,173.4 464.2,172.3 C464.2,171.3 465,170.4 466,170.4 C467,170.4 467.9,171.2 468,172.2 L468,172.2 Z" id="Shape"></path>
                            <path d="M475.5,171.7 C475.6,172.7 474.8,173.7 473.8,173.8 C472.7,173.9 471.8,173.1 471.7,172 C471.6,171 472.4,170.1 473.4,170 C474.5,169.9 475.4,170.6 475.5,171.7 L475.5,171.7 Z" id="Shape"></path>
                            <path d="M483,170.7 C483.2,171.7 482.4,172.7 481.4,172.9 C480.3,173 479.4,172.3 479.3,171.3 C479.2,170.3 479.9,169.3 480.9,169.2 C481.9,169 482.9,169.7 483,170.7 L483,170.7 Z" id="Shape"></path>
                            <path d="M490.5,169.3 C490.7,170.3 490.1,171.3 489,171.6 C488,171.8 487,171.1 486.8,170.1 C486.6,169.1 487.3,168.1 488.3,167.9 C489.3,167.7 490.2,168.3 490.5,169.3 L490.5,169.3 Z" id="Shape"></path>
                            <path d="M497.8,167.5 C498.1,168.5 497.5,169.6 496.5,169.8 C495.5,170.1 494.4,169.4 494.2,168.4 C494,167.4 494.6,166.4 495.6,166.1 C496.5,165.9 497.5,166.5 497.8,167.5 L497.8,167.5 Z" id="Shape"></path>
                            <path d="M505.1,165.3 C505.4,166.3 504.9,167.4 503.9,167.7 C502.9,168.1 501.8,167.5 501.5,166.5 C501.2,165.5 501.8,164.5 502.7,164.1 C503.6,163.8 504.7,164.3 505.1,165.3 L505.1,165.3 Z" id="Shape"></path>
                            <path d="M512.1,162.6 C512.5,163.6 512,164.7 511,165.1 C510,165.5 508.9,165 508.5,164 C508.1,163 508.6,162 509.6,161.6 C510.6,161.2 511.7,161.6 512.1,162.6 L512.1,162.6 Z" id="Shape"></path>
                            <path d="M519,159.5 C519.5,160.4 519.1,161.6 518.1,162 C517.1,162.5 516,162.1 515.6,161.1 C515.2,160.2 515.6,159 516.5,158.6 C517.5,158.1 518.6,158.5 519,159.5 L519,159.5 Z" id="Shape"></path>
                            <path d="M525.7,155.9 C526.2,156.8 525.9,158 525,158.5 C524.1,159 522.9,158.7 522.4,157.8 C521.9,156.9 522.2,155.7 523.1,155.2 C524.1,154.7 525.2,155 525.7,155.9 L525.7,155.9 Z" id="Shape"></path>
                            <path d="M532.2,151.9 C532.8,152.8 532.5,153.9 531.6,154.5 C530.7,155.1 529.5,154.8 529,154 C528.5,153.1 528.7,151.9 529.6,151.4 C530.4,150.8 531.6,151.1 532.2,151.9 L532.2,151.9 Z" id="Shape"></path>
                            <path d="M538.3,147.5 C538.9,148.3 538.8,149.5 537.9,150.2 C537,150.8 535.9,150.7 535.3,149.8 C534.7,149 534.9,147.8 535.7,147.1 C536.5,146.5 537.7,146.7 538.3,147.5 L538.3,147.5 Z" id="Shape"></path>
                            <path d="M544.2,142.7 C544.9,143.5 544.8,144.7 544,145.4 C543.2,146.1 542,146 541.4,145.2 C540.7,144.4 540.8,143.2 541.6,142.5 C542.3,141.9 543.5,142 544.2,142.7 L544.2,142.7 Z" id="Shape"></path>
                            <path d="M549.7,137.6 C550.4,138.3 550.4,139.5 549.7,140.3 C548.9,141 547.8,141 547,140.3 C546.3,139.5 546.3,138.3 547,137.6 C547.8,136.8 549,136.9 549.7,137.6 L549.7,137.6 Z" id="Shape"></path>
                            <path d="M554.9,132.1 C555.7,132.8 555.7,134 555,134.8 C554.3,135.6 553.1,135.7 552.4,134.9 C551.6,134.2 551.6,133 552.3,132.2 C553,131.5 554.2,131.4 554.9,132.1 L554.9,132.1 Z" id="Shape"></path>
                        </g>
                        <g id="Group" transform="translate(565.000000, 102.000000)">
                            <path d="M17.8,20.2 C17.3,20.2 16.8,20 16.4,19.6 L0.2,3.4 C-0.6,2.6 -0.6,1.4 0.2,0.6 C1,-0.2 2.2,-0.2 3,0.6 L19.2,16.8 C20,17.6 20,18.8 19.2,19.6 C18.8,20 18.3,20.2 17.8,20.2 L17.8,20.2 Z" id="Shape"></path>
                            <path d="M1.6,20.2 C1.1,20.2 0.6,20 0.2,19.6 C-0.6,18.8 -0.6,17.6 0.2,16.8 L16.4,0.6 C17.2,-0.2 18.4,-0.2 19.2,0.6 C20,1.4 20,2.6 19.2,3.4 L3,19.6 C2.6,20 2.1,20.2 1.6,20.2 L1.6,20.2 Z" id="Shape"></path>
                        </g>
                    </g>
                </g>
            </g>
        </g>
    </g>
</svg>