<?xml version="1.0" standalone="no"?>
<!DOCTYPE svg PUBLIC "-//W3C//DTD SVG 1.1//EN" "http://www.w3.org/Graphics/SVG/1.1/DTD/svg11.dtd" >
<svg xmlns="http://www.w3.org/2000/svg">
<metadata>
Created by FontPrep 20130207 at Fri Oct  3 23:26:56 2014
 By John Grishin
Copyright (c) JT Types Ltd, 2006. All rights reserved.
</metadata>
<defs>
<font id="0b9d6c96e31ecac81ddf6cbd2e5bd06c" horiz-adv-x='1024' >
  <font-face 
    font-family="BlissPro-Bold"
    font-weight="700"
    font-stretch="normal"
    units-per-em="2048"
    panose-1="2 0 8 3 5 0 0 2 0 4"
    ascent="1638"
    descent="-410"
    x-height="969"
    cap-height="1350"
    bbox="-365 -494 2464 1952"
    underline-thickness="102"
    underline-position="-102"
    unicode-range="U+0020-FB02"
  />
<missing-glyph horiz-adv-x="1126" 
d="M522 219q-34 0 -56 23q-22 24 -22 58t23 58t55 23q32 0 55 -24q21 -25 21 -59t-22 -56t-54 -23zM414 572q0 58 42 105q42 48 91 79t91 77t42 93q0 48 -32 74t-81 26q-84 0 -174 -80l-55 72q100 104 240 104q98 0 157 -52t59 -124t-41 -130t-93 -93q-136 -92 -136 -139
q0 -33 35 -72l-86 -57q-59 59 -59 117zM207 98h713v1153h-713v-1153zM102 0v1350h922v-1350h-922z" />
    <glyph glyph-name="fi" unicode="fi" horiz-adv-x="1196" 
d="M952 1126q-63 0 -106 42t-43 104t43 104q44 43 108 43t107 -42t43 -103t-44 -105q-45 -43 -108 -43zM829 0v969h246v-969h-246zM193 0v778h-144v191h144v135q0 166 89 256t240 90q111 0 203 -43l-49 -195q-76 27 -119 27q-119 0 -119 -133v-137h252l-59 -191h-193v-778
h-245z" />
    <glyph glyph-name="fl" unicode="fl" horiz-adv-x="1292" 
d="M834 219v1231h243v-1165q0 -88 72 -88q31 0 61 12l47 -189q-82 -35 -180 -34q-243 0 -243 233zM193 0v778h-144v191h144v135q0 166 89 256t240 90q111 0 203 -43l-49 -195q-76 27 -119 27q-119 0 -119 -133v-137h252l-59 -191h-193v-778h-245z" />
    <glyph glyph-name=".notdef" horiz-adv-x="1126" 
d="M522 219q-34 0 -56 23q-22 24 -22 58t23 58t55 23q32 0 55 -24q21 -25 21 -59t-22 -56t-54 -23zM414 572q0 58 42 105q42 48 91 79t91 77t42 93q0 48 -32 74t-81 26q-84 0 -174 -80l-55 72q100 104 240 104q98 0 157 -52t59 -124t-41 -130t-93 -93q-136 -92 -136 -139
q0 -33 35 -72l-86 -57q-59 59 -59 117zM207 98h713v1153h-713v-1153zM102 0v1350h922v-1350h-922z" />
    <glyph glyph-name=".null" horiz-adv-x="0" 
 />
    <glyph glyph-name="nonmarkingreturn" horiz-adv-x="681" 
 />
    <glyph glyph-name="space" unicode=" " horiz-adv-x="442" 
 />
    <glyph glyph-name="exclam" unicode="!" horiz-adv-x="550" 
d="M274 -18q-57 0 -96 41t-39 100t39 99t96 40q58 0 98 -40t40 -99t-40 -100t-98 -41zM154 1253v97h243v-99q0 -385 -9 -535t-42 -319h-143q-33 172 -41 322t-8 534z" />
    <glyph glyph-name="quotedbl" unicode="&#x22;" horiz-adv-x="808" 
d="M502 971l-25 479h228l-21 -479h-182zM133 971l-27 479h230l-23 -479h-180z" />
    <glyph glyph-name="numbersign" unicode="#" horiz-adv-x="1464" 
d="M584 530h231l62 289h-230zM88 340v190h266l62 289h-226v191h269l73 340h230l-74 -340h230l73 340h232l-74 -340h225v-191h-266l-64 -289h228v-190h-268l-72 -340h-232l74 340h-231l-72 -340h-231l73 340h-225z" />
    <glyph glyph-name="dollar" unicode="$" horiz-adv-x="1116" 
d="M432 -176v211q-170 18 -307 108l96 183q147 -96 283 -97q207 0 207 144q-1 67 -57 117t-137 92t-162 88q-81 47 -137 128q-56 80 -56 196t82 212t233 115v201h178v-197q139 -14 238 -68v-204q-160 82 -305 82q-80 0 -127 -34t-47 -97q0 -64 56 -114t137 -90t161 -86
t136 -127t56 -208t-92 -222t-258 -120v-213h-178z" />
    <glyph glyph-name="percent" unicode="%" horiz-adv-x="1820" 
d="M383 0l852 1350h199l-850 -1350h-201zM1382 127q66 0 100 58q34 59 34 157t-34 156t-100 57q-66 0 -100 -57q-34 -58 -35 -156q1 -98 35 -156t100 -59zM1382 -20q-145 0 -236 93t-91 268t91 268t236 93q144 0 236 -93t92 -268t-92 -268t-236 -93zM438 786q66 0 100 58
t33 157q0 98 -33 156q-34 57 -100 57t-100 -57t-35 -155q1 -98 35 -158q34 -58 100 -58zM438 639q-145 0 -236 93t-91 268q0 174 91 268t236 94q144 0 236 -93t92 -269t-92 -268q-92 -93 -236 -93z" />
    <glyph glyph-name="ampersand" unicode="&#x26;" horiz-adv-x="1562" 
d="M778 1057q0 53 -38 91t-108 38t-107 -36q-36 -36 -36 -87q0 -88 123 -211q166 88 166 205zM362 389q0 -93 66 -153t186 -60t240 94q-170 154 -332 338q-160 -84 -160 -219zM111 373q0 250 280 381q-55 63 -81 96t-49 89q-24 56 -23 118q0 129 107 217q108 88 288 88
q181 0 287 -86t106 -221q0 -207 -274 -348q123 -135 282 -289q121 129 170 291l207 -52q-76 -229 -219 -376q115 -98 215 -99q27 0 55 8l45 -180q-57 -23 -139 -22q-170 0 -350 147q-199 -156 -457 -155q-201 0 -325 110t-125 283z" />
    <glyph glyph-name="quotesingle" unicode="'" horiz-adv-x="440" 
d="M131 971l-25 479h228l-21 -479h-182z" />
    <glyph glyph-name="parenleft" unicode="(" horiz-adv-x="712" 
d="M406 548q0 -336 57 -536q57 -201 196 -372l-161 -123q-199 215 -274 463q-74 248 -74 570t74 570t274 467l164 -123q-140 -178 -198 -379t-58 -537z" />
    <glyph glyph-name="parenright" unicode=")" horiz-adv-x="712" 
d="M307 549q0 335 -57 537t-199 378l164 123q199 -219 273 -468t75 -571q0 -322 -75 -568q-75 -248 -273 -463l-162 123q139 172 197 372t57 537z" />
    <glyph glyph-name="asterisk" unicode="*" horiz-adv-x="999" 
d="M412 676q-4 68 20 188t27 142q-20 -14 -99 -89t-161 -118l-88 151q57 37 176 77t133 46q-237 79 -307 123l88 152q61 -31 156 -116t102 -89q-2 14 -26 136t-19 191h174q4 -68 -21 -188t-26 -139q2 2 100 87t162 118l86 -154q-57 -37 -176 -76t-133 -45q14 -6 133 -46
t176 -77l-88 -153q-61 31 -155 115t-107 92q-1 -6 25 -132t22 -196h-174z" />
    <glyph glyph-name="plus" unicode="+" horiz-adv-x="1126" 
d="M449 0v412h-367v202h367v402h227v-402h371v-202h-371v-412h-227z" />
    <glyph glyph-name="comma" unicode="," horiz-adv-x="538" 
d="M164 68q0 63 -12 135l225 39q14 -59 14 -129q0 -231 -180 -430l-141 67q94 160 94 318z" />
    <glyph glyph-name="hyphen" unicode="-" horiz-adv-x="749" 
d="M106 406v204h539v-204h-539z" />
    <glyph glyph-name="period" unicode="." horiz-adv-x="538" 
d="M406 123q0 -59 -40 -100t-97 -41q-56 0 -96 41t-40 100t40 99t96 40q57 0 97 -40t40 -99z" />
    <glyph glyph-name="slash" unicode="/" horiz-adv-x="813" 
d="M27 -72l516 1497h243l-516 -1497h-243z" />
    <glyph glyph-name="zero" unicode="0" horiz-adv-x="1171" 
d="M586 186q121 0 174 121t53 365t-53 364t-174 119q-121 0 -174 -120q-54 -119 -54 -363t54 -365t174 -121zM586 -20q-229 0 -359 178q-129 178 -129 513t129 513t359 178t358 -178q129 -178 129 -513t-129 -513t-358 -178z" />
    <glyph glyph-name="one" unicode="1" horiz-adv-x="911" 
d="M457 0v1106l-314 -141l-82 190l451 205h186v-1360h-241z" />
    <glyph glyph-name="two" unicode="2" horiz-adv-x="1099" 
d="M725 994q0 77 -59 119t-150 42q-156 0 -348 -92l-66 190q226 109 444 109t328 -97t111 -257q0 -106 -54 -196t-136 -155q-82 -66 -167 -128t-157 -145t-94 -175h620v-209h-940q12 160 69 289q56 129 129 205q137 143 304 255q166 111 166 245z" />
    <glyph glyph-name="three" unicode="3" horiz-adv-x="1138" 
d="M743 395q0 133 -141 170q-57 16 -166 17h-178v196h143q301 0 301 197q0 84 -52 132t-154 48q-152 0 -326 -92l-66 190q209 109 422 109t325 -104t112 -259q0 -205 -207 -292v-5q116 -24 182 -104t66 -199q0 -186 -140 -303t-409 -116q-217 -1 -387 75l69 195
q141 -63 301 -64q305 0 305 209z" />
    <glyph glyph-name="four" unicode="4" horiz-adv-x="1204" 
d="M682 530v193q0 31 12 264l-342 -461l170 4h160zM80 330v164l668 866h176v-830h200v-200h-200v-330h-242v330h-602z" />
    <glyph glyph-name="five" unicode="5" horiz-adv-x="1083" 
d="M711 420q0 141 -125 188q-78 31 -246 31h-168v711h809l-61 -209h-508v-307h53q323 0 443 -186q62 -95 63 -214q0 -203 -138 -329t-417 -125q-203 -1 -346 73l67 193q129 -60 267 -60t223 60q84 60 84 174z" />
    <glyph glyph-name="six" unicode="6" horiz-adv-x="1157" 
d="M610 178q102 0 156 62t53 177q0 115 -58 181t-157 66q-61 0 -131 -27t-115 -66q4 -189 77 -291t175 -102zM672 864q174 0 291 -112t117 -316t-132 -330q-131 -126 -346 -126t-359 162q-145 162 -145 480t166 529t445 211q166 0 301 -64l-64 -190q-108 55 -238 55
t-230 -99t-126 -298q146 98 320 98z" />
    <glyph glyph-name="seven" unicode="7" horiz-adv-x="1021" 
d="M991 1350v-86q-430 -500 -575 -1264h-258q139 680 497 1141h-561l-61 209h958z" />
    <glyph glyph-name="eight" unicode="8" horiz-adv-x="1175" 
d="M774 991q0 78 -51 129t-137 51t-138 -47q-52 -46 -53 -126t63 -127t175 -80q141 74 141 200zM592 170q98 0 163 49t64 137q0 114 -101 168q-65 36 -194 76q-68 -29 -116 -86t-50 -145q0 -87 68 -143t166 -56zM1077 377q1 -177 -129 -287t-362 -110t-361 102
q-127 102 -127 272q0 119 65 207t171 133v4q-197 111 -197 297q0 160 125 263q125 104 332 104q206 0 322 -104t116 -244q0 -201 -205 -307v-5q250 -96 250 -325z" />
    <glyph glyph-name="nine" unicode="9" horiz-adv-x="1144" 
d="M547 678q143 0 246 115q-2 164 -71 267t-173 103t-161 -67q-56 -68 -56 -180t56 -176q57 -62 159 -62zM436 -20q-178 0 -321 67l61 197q127 -66 256 -66q317 0 356 397h-2q-126 -96 -298 -96q-172 -1 -291 105t-119 314t131 336t348 128t353 -159t136 -497t-154 -532
q-155 -194 -456 -194z" />
    <glyph glyph-name="colon" unicode=":" horiz-adv-x="538" 
d="M406 123q0 -59 -40 -100t-97 -41q-56 0 -96 41t-40 100t40 99t96 40q57 0 97 -40t40 -99zM133 783q0 57 40 99t96 42q57 0 97 -41t40 -99t-40 -100q-40 -41 -97 -41q-56 0 -96 41t-40 99z" />
    <glyph glyph-name="semicolon" unicode=";" horiz-adv-x="538" 
d="M164 68q0 63 -12 135l225 39q14 -59 14 -129q0 -231 -180 -430l-141 67q94 160 94 318zM252 643q-57 0 -96 40t-39 99q0 58 39 100t96 42t97 -41t40 -99t-40 -100q-40 -41 -97 -41z" />
    <glyph glyph-name="less" unicode="&#x3c;" horiz-adv-x="1112" 
d="M94 436v193l877 362v-207l-664 -249v-5l664 -249v-207z" />
    <glyph glyph-name="equal" unicode="=" horiz-adv-x="1126" 
d="M82 616v203h965v-203h-965zM82 203v203h965v-203h-965z" />
    <glyph glyph-name="greater" unicode="&#x3e;" horiz-adv-x="1112" 
d="M141 74v207l664 249v5l-664 249v207l877 -362v-193z" />
    <glyph glyph-name="question" unicode="?" horiz-adv-x="987" 
d="M397 -18q-57 0 -96 41t-39 100t39 99t96 40t97 -40t41 -99q-1 -59 -41 -100t-97 -41zM594 1041q0 52 -38 83t-103 31q-131 0 -260 -115l-111 158q190 164 412 164q178 0 275 -84t97 -215q0 -79 -42 -145t-101 -111t-119 -85t-101 -83q-42 -43 -42 -88t28 -82l-206 -76
q-63 76 -63 158t38 139q39 57 93 97q53 40 109 78t95 81t39 95z" />
    <glyph glyph-name="at" unicode="@" horiz-adv-x="1591" 
d="M594 393q0 -182 127 -182q79 1 139 75t78 230l18 146q-53 33 -118 32q-102 0 -173 -83t-71 -218zM68 391q0 350 219 563t533 213t509 -178t195 -477q0 -221 -96 -337t-262 -116t-201 168h-2q-31 -63 -109 -114t-184 -51t-189 79q-84 79 -84 263t126 312q125 128 309 128
t325 -86l-41 -318q-10 -72 -10 -112q0 -125 88 -125q78 0 123 79t45 216q0 229 -137 379q-137 149 -397 149t-428 -169q-169 -169 -169 -441q-1 -272 139 -417q140 -144 355 -144q161 0 270 51l43 -137q-145 -55 -329 -56q-281 1 -461 187t-180 491z" />
    <glyph glyph-name="A" unicode="A" horiz-adv-x="1294" 
d="M471 539h334l-94 268q-43 121 -68 209h-4q-14 -53 -70 -211zM16 0l523 1356h196l543 -1356h-266l-131 338h-482l-127 -338h-256z" />
    <glyph glyph-name="B" unicode="B" horiz-adv-x="1161" 
d="M410 786h116q100 0 154 50t55 130q0 81 -53 131t-158 50h-114v-361zM410 203h157q252 0 252 196q0 85 -60 135t-165 50h-184v-381zM164 0v1350h395q205 0 313 -100t107 -242q0 -90 -43 -165t-121 -114v-4q117 -29 185 -118t69 -208q0 -167 -125 -283t-348 -116h-432z" />
    <glyph glyph-name="C" unicode="C" horiz-adv-x="1284" 
d="M788 -20q-324 0 -502 187t-180 489q0 302 197 504t516 202q205 0 355 -66v-229q-166 88 -365 88t-320 -140t-121 -352t122 -345q122 -132 308 -132t351 95l68 -195q-195 -106 -429 -106z" />
    <glyph glyph-name="D" unicode="D" horiz-adv-x="1425" 
d="M410 209h155q252 0 372 132t120 344t-127 334t-369 122h-151v-932zM164 0v1350h420q352 0 544 -180t193 -488q0 -306 -205 -494t-555 -188h-397z" />
    <glyph glyph-name="E" unicode="E" horiz-adv-x="1028" 
d="M164 0v1350h745l-67 -209h-432v-353h432v-208h-432v-371h501v-209h-747z" />
    <glyph glyph-name="F" unicode="F" horiz-adv-x="983" 
d="M164 0v1350h751l-67 -209h-438v-353h430v-208h-430v-580h-246z" />
    <glyph glyph-name="G" unicode="G" horiz-adv-x="1449" 
d="M1303 655v-567q-217 -109 -492 -108q-326 0 -515 187q-190 187 -190 491t205 504t537 200q203 0 391 -68v-229q-180 90 -373 90q-238 0 -368 -133t-129 -354q0 -222 123 -352t337 -130q137 0 226 41v428h248z" />
    <glyph glyph-name="H" unicode="H" horiz-adv-x="1464" 
d="M164 0v1350h246v-557h645v557h248v-1350h-248v584h-645v-584h-246z" />
    <glyph glyph-name="I" unicode="I" horiz-adv-x="573" 
d="M164 0v1350h246v-1350h-246z" />
    <glyph glyph-name="J" unicode="J" horiz-adv-x="673" 
d="M119 -172q85 0 115 51t30 148v1323h246v-1356q0 -170 -94 -272t-287 -101q-106 0 -192 33l49 199q49 -25 133 -25z" />
    <glyph glyph-name="K" unicode="K" horiz-adv-x="1226" 
d="M164 0v1350h246v-576h6l463 576h284l-542 -656l573 -694h-301l-477 592h-6v-592h-246z" />
    <glyph glyph-name="L" unicode="L" horiz-adv-x="925" 
d="M164 0v1350h246v-1141h479v-209h-725z" />
    <glyph glyph-name="M" unicode="M" horiz-adv-x="1681" 
d="M164 0v1350h223l354 -510q84 -123 113 -174h4q53 94 111 182l323 502h226v-1350h-248v762q0 125 4 178h-4q-23 -45 -92 -152l-267 -413h-112l-295 424q-76 111 -92 139h-4q2 -53 2 -170v-768h-246z" />
    <glyph glyph-name="N" unicode="N" horiz-adv-x="1533" 
d="M1370 0h-223l-586 770q-20 27 -151 205h-4q4 -53 4 -209v-766h-246v1350h244l565 -740q111 -150 149 -209h4q-4 143 -4 228v721h248v-1350z" />
    <glyph glyph-name="O" unicode="O" horiz-adv-x="1572" 
d="M785 186q189 0 305 129q114 129 114 353t-112 356q-112 131 -304 131t-306 -129t-114 -355t114 -356q114 -129 303 -129zM785 -20q-298 0 -488 190q-191 190 -191 498t190 502q190 192 489 192q301 0 491 -194t190 -500t-191 -497q-192 -191 -490 -191z" />
    <glyph glyph-name="P" unicode="P" horiz-adv-x="1116" 
d="M483 666q271 0 271 241q0 143 -107 207q-59 35 -168 35h-69v-483h73zM164 0v1350h325q186 0 304 -58q219 -109 219 -385q0 -129 -62 -234t-196 -161q-121 -47 -287 -47h-57v-465h-246z" />
    <glyph glyph-name="Q" unicode="Q" horiz-adv-x="1572" 
d="M785 186q189 0 305 129q114 129 114 353t-112 356q-112 131 -304 131t-306 -129t-114 -355t114 -356q114 -129 303 -129zM785 1362q301 0 491 -194t190 -486t-156 -473q-156 -182 -411 -217q104 -119 275 -119q76 0 135 23l57 -189q-88 -41 -221 -41q-330 0 -561 340
q-217 56 -347 234t-131 430q0 308 190 500t489 192z" />
    <glyph glyph-name="R" unicode="R" horiz-adv-x="1206" 
d="M410 727h110q86 0 150 35q94 53 94 174t-90 174q-57 39 -152 39h-112v-422zM164 0v1350h368q174 0 289 -56q201 -94 201 -329q0 -131 -72 -221t-192 -128v-4q59 -33 168 -219l225 -393h-283l-194 342q-92 170 -148 184h-116v-526h-246z" />
    <glyph glyph-name="S" unicode="S" horiz-adv-x="1091" 
d="M725 341q0 77 -60 132q-59 55 -145 96t-172 89t-146 132t-61 199q0 157 118 265t317 108t333 -68v-225q-166 86 -321 86q-80 0 -132 -35q-52 -34 -52 -106t60 -124t146 -92t171 -89t145 -137t61 -205q0 -175 -135 -281q-136 -106 -362 -106t-392 116l97 189
q141 -98 305 -99q94 0 160 39t65 116z" />
    <glyph glyph-name="T" unicode="T" horiz-adv-x="1097" 
d="M422 0v1141h-393v209h1067l-68 -209h-360v-1141h-246z" />
    <glyph glyph-name="U" unicode="U" horiz-adv-x="1425" 
d="M712 -20q-384 0 -507 262q-51 102 -51 262v846h245v-830q0 -109 37 -182q74 -152 277 -152t276 152q37 74 37 184v828h246v-846q0 -162 -51 -264q-125 -260 -509 -260z" />
    <glyph glyph-name="V" unicode="V" horiz-adv-x="1329" 
d="M664 342h4q57 170 100 276l281 732h266l-547 -1358h-207l-547 1358h269l282 -734q23 -63 61 -167t38 -107z" />
    <glyph glyph-name="W" unicode="W" horiz-adv-x="1933" 
d="M492 -8l-478 1358h279l248 -777q20 -61 65 -227h4q27 94 70 225l182 543l-84 236h250l260 -764q55 -156 76 -238h6q45 180 62 234l233 768h254l-455 -1358h-209l-202 571q-55 156 -74 225h-6q-29 -104 -72 -223l-205 -573h-204z" />
    <glyph glyph-name="X" unicode="X" horiz-adv-x="1296" 
d="M23 0l483 678l-445 672h279l319 -486l342 486h271l-473 -666l452 -684h-274l-332 498l-352 -498h-270z" />
    <glyph glyph-name="Y" unicode="Y" horiz-adv-x="1200" 
d="M475 0v535l-461 815h271l315 -596h4l314 596h266l-461 -818v-532h-248z" />
    <glyph glyph-name="Z" unicode="Z" horiz-adv-x="1167" 
d="M1120 209v-209h-1067l670 1141h-576l-63 209h1030l-657 -1141h663z" />
    <glyph glyph-name="bracketleft" unicode="[" horiz-adv-x="622" 
d="M139 -481v2064h436v-186h-206v-1692h206v-186h-436z" />
    <glyph glyph-name="backslash" unicode="\" horiz-adv-x="821" 
d="M547 -72l-518 1497h245l517 -1497h-244z" />
    <glyph glyph-name="bracketright" unicode="]" horiz-adv-x="622" 
d="M47 -481v186h207v1692h-207v186h438v-2064h-438z" />
    <glyph glyph-name="asciicircum" unicode="^" horiz-adv-x="1067" 
d="M119 588l313 762h201l313 -762h-205l-206 549h-5l-204 -549h-207z" />
    <glyph glyph-name="underscore" unicode="_" horiz-adv-x="905" 
d="M0 -266v131h905v-131h-905z" />
    <glyph glyph-name="grave" unicode="`" horiz-adv-x="786" 
d="M330 1087l-199 302h266l119 -302h-186z" />
    <glyph glyph-name="a" unicode="a" horiz-adv-x="1007" 
d="M476 172q83 0 171 72v207l-131 -5q-92 -2 -146 -32t-55 -109q0 -133 161 -133zM68 289q0 180 163 264q94 49 250 55l166 6v31q0 162 -186 162q-127 0 -254 -68l-80 158q174 96 375 96q389 0 389 -352v-393q0 -182 18 -248h-204l-37 92q-122 -112 -270 -112t-239 86
t-91 223z" />
    <glyph glyph-name="b" unicode="b" horiz-adv-x="1091" 
d="M481 182q131 0 210 88t79 224t-68 217q-68 80 -186 80q-70 0 -147 -31v-561q51 -17 112 -17zM442 -20q-188 0 -317 67v1403h244v-485q96 29 188 28q201 0 333 -127q132 -128 132 -364t-163 -379t-417 -143z" />
    <glyph glyph-name="c" unicode="c" horiz-adv-x="917" 
d="M544 -20q-212 0 -342 140t-130 360t146 366t366 147q158 0 260 -65v-207q-104 76 -236 76t-210 -88q-76 -89 -76 -231t74 -222t188 -80q116 0 237 66l72 -168q-137 -94 -349 -94z" />
    <glyph glyph-name="d" unicode="d" horiz-adv-x="1101" 
d="M618 182q72 0 115 17v579q-66 14 -117 15q-131 0 -213 -84q-81 -85 -81 -227t80 -221t216 -79zM606 -20q-226 0 -381 131q-153 131 -153 362t149 376q150 144 381 144q74 0 131 -12v469h246v-1399q-147 -71 -373 -71z" />
    <glyph glyph-name="e" unicode="e" horiz-adv-x="1009" 
d="M317 588h375q-2 92 -49 155t-135 63t-138 -62q-50 -64 -53 -156zM940 418h-621q4 -114 79 -180t199 -66t241 66l73 -168q-145 -90 -342 -90q-247 0 -371 144t-124 363t116 363q117 143 320 143q202 0 316 -138t114 -380v-57z" />
    <glyph glyph-name="f" unicode="f" horiz-adv-x="708" 
d="M193 0v778h-144v191h144v135q0 166 89 256t240 90q111 0 203 -43l-49 -195q-76 27 -119 27q-119 0 -119 -133v-137h252l-59 -191h-193v-778h-245z" />
    <glyph glyph-name="g" unicode="g" horiz-adv-x="1032" 
d="M495 449q77 0 125 47t48 127t-48 133t-124 53t-123 -47t-47 -128t46 -133t123 -52zM248 -159q0 -71 72 -113t187 -41q115 -1 183 33t68 91t-75 85t-195 43q-120 14 -162 30q-78 -57 -78 -128zM494 -485q-226 -1 -346 77t-119 207q0 77 48 139t126 95q-63 39 -63 131
t116 172q-76 45 -119 125t-43 176q0 145 104 251t291 105q119 0 193 -43q12 -4 25 4q84 84 233 84q37 0 66 -4l-50 -176q-36 10 -76 10t-67 -16q86 -92 86 -242t-112 -248t-289 -98q-66 0 -119 17q-25 -41 -25 -77t47 -59t163 -34t262 -58q71 -23 118 -78t47 -141
q0 -139 -135 -229q-136 -90 -362 -90z" />
    <glyph glyph-name="h" unicode="h" horiz-adv-x="1112" 
d="M125 0v1450h244v-588q156 131 305 131t237 -81t88 -271v-641h-243v565q0 103 -32 159t-132 56t-223 -102v-678h-244z" />
    <glyph glyph-name="i" unicode="i" horiz-adv-x="487" 
d="M244 1126q-63 0 -107 42q-43 42 -43 104t43 104q43 43 108 43t107 -42t43 -103q0 -60 -44 -104t-107 -44zM121 0v969h246v-969h-246z" />
    <glyph glyph-name="j" unicode="j" horiz-adv-x="516" 
d="M272 1126q-63 0 -106 42t-43 104t43 104q44 43 108 43t107 -42t43 -103t-44 -105q-45 -43 -108 -43zM150 -106v1075h245v-1112q0 -162 -89 -252t-245 -90q-106 -1 -186 34l45 201q47 -22 110 -22q64 0 92 39t28 127z" />
    <glyph glyph-name="k" unicode="k" horiz-adv-x="1009" 
d="M125 0v1450h244v-817h4l317 336h279l-398 -422l430 -547h-284l-344 449h-4v-449h-244z" />
    <glyph glyph-name="l" unicode="l" horiz-adv-x="583" 
d="M125 219v1231h244v-1165q0 -88 71 -88q31 0 62 12l47 -189q-82 -35 -180 -34q-244 0 -244 233z" />
    <glyph glyph-name="m" unicode="m" horiz-adv-x="1705" 
d="M113 0v969h204l25 -109q170 133 326 133q184 0 258 -149q178 150 348 149q141 0 231 -85t90 -265v-643h-243v575q0 97 -31 151t-131 54t-215 -96q2 -10 2 -37v-647h-246v573q0 99 -29 153t-127 54t-219 -96v-684h-243z" />
    <glyph glyph-name="n" unicode="n" horiz-adv-x="1099" 
d="M113 0v969h209l24 -109q170 133 318 133t236 -81q89 -81 89 -271v-641h-246v565q0 102 -31 159q-32 56 -132 56t-224 -102v-678h-243z" />
    <glyph glyph-name="o" unicode="o" 
d="M555 176q113 0 173 86t60 225t-60 225t-173 85q-113 0 -173 -85q-60 -84 -60 -224t60 -226t173 -86zM555 -20q-215 0 -349 143t-134 363t134 364t349 143q215 0 350 -143q135 -142 135 -362t-135 -364t-350 -144z" />
    <glyph glyph-name="p" unicode="p" horiz-adv-x="1081" 
d="M487 182q133 0 203 81t70 229t-77 224q-77 77 -212 77q-55 0 -115 -17v-569q66 -25 131 -25zM113 -485v1417q178 61 366 61q256 0 393 -135q138 -136 138 -366t-140 -371t-364 -141q-76 0 -150 22v-487h-243z" />
    <glyph glyph-name="q" unicode="q" horiz-adv-x="1093" 
d="M556 182q102 0 181 54v538q-66 18 -123 19q-139 0 -216 -88q-76 -89 -76 -227t66 -217t168 -79zM506 -20q-178 0 -306 124t-128 365q0 240 156 382t382 142t371 -61v-1417h-244v524q-98 -59 -231 -59z" />
    <glyph glyph-name="r" unicode="r" horiz-adv-x="745" 
d="M113 0v969h206l27 -109q133 133 266 133q80 0 138 -39l-86 -206q-53 33 -111 32q-86 0 -197 -96v-684h-243z" />
    <glyph glyph-name="s" unicode="s" horiz-adv-x="860" 
d="M383 172q170 0 170 102q0 45 -47 76q-47 32 -114 54q-68 22 -134 53t-113 92t-47 151q0 131 100 212t260 81q161 0 292 -47v-207q-144 61 -278 61t-134 -87q0 -41 47 -70t114 -53t133 -54q66 -32 114 -97q46 -65 47 -158q0 -152 -112 -227q-112 -74 -298 -74t-340 94
l76 178q125 -80 264 -80z" />
    <glyph glyph-name="t" unicode="t" horiz-adv-x="790" 
d="M504 -20q-150 0 -224 70t-73 190v538h-174v191h174v225l244 72v-297h292l-59 -191h-233v-479q1 -67 23 -95t86 -28t132 47l74 -168q-112 -75 -262 -75z" />
    <glyph glyph-name="u" unicode="u" horiz-adv-x="1095" 
d="M356 397q0 -209 166 -209q121 0 199 86v695h246v-729q0 -180 16 -240h-209l-37 100q-135 -120 -301 -120q-86 0 -168 44q-157 84 -155 349v596h243v-572z" />
    <glyph glyph-name="v" unicode="v" horiz-adv-x="995" 
d="M406 -6l-396 975h248l240 -660h4l235 660h246l-393 -975h-184z" />
    <glyph glyph-name="w" unicode="w" horiz-adv-x="1531" 
d="M365 -6l-351 975h248l205 -658h4l205 658h190l213 -658h4l201 658h242l-359 -975h-180l-213 657h-4l-217 -657h-188z" />
    <glyph glyph-name="x" unicode="x" horiz-adv-x="1011" 
d="M14 0l363 487l-350 482h256l227 -316l229 316h254l-354 -482l358 -487h-256l-233 324l-238 -324h-256z" />
    <glyph glyph-name="y" unicode="y" horiz-adv-x="1060" 
d="M174 -485q-96 0 -199 45l62 192q71 -39 151 -39t145 67t120 226l-437 963h260l287 -684h4l232 684h252l-371 -1000q-55 -145 -114 -240q-96 -159 -242 -199q-54 -15 -150 -15z" />
    <glyph glyph-name="z" unicode="z" horiz-adv-x="849" 
d="M827 190v-190h-796l448 778h-370l-50 191h777l-445 -779h436z" />
    <glyph glyph-name="braceleft" unicode="{" horiz-adv-x="741" 
d="M246 -111v447q0 80 -35 110t-98 31v164q63 2 98 32t35 109v447q0 158 83 251t285 103l43 -215q-94 -10 -136 -53t-42 -131v-371q0 -231 -157 -252v-4q158 -20 157 -252v-371q0 -88 42 -131t136 -53l-43 -215q-204 9 -286 103t-82 251z" />
    <glyph glyph-name="bar" unicode="|" horiz-adv-x="577" 
d="M170 -483v2080h240v-2080h-240z" />
    <glyph glyph-name="braceright" unicode="}" horiz-adv-x="741" 
d="M264 -66v371q0 231 158 252v4q-158 20 -158 252v371q0 88 -42 131t-136 53l43 215q203 -10 286 -103t83 -251v-447q0 -80 34 -110t99 -31v-164q-63 -2 -99 -32t-34 -109v-447q0 -159 -83 -251t-286 -103l-43 215q94 10 136 53t42 131z" />
    <glyph glyph-name="asciitilde" unicode="~" horiz-adv-x="1126" 
d="M787 590q79 0 174 86l118 -156q-145 -145 -313 -145q-82 0 -215 58q-133 59 -211 59t-174 -86l-117 155q145 145 311 146q82 -1 215 -59t212 -58z" />
    <glyph glyph-name="exclamdown" unicode="&#xa1;" horiz-adv-x="550" 
d="M154 -375v101q0 383 8 531t41 321h143q33 -170 42 -320t9 -534v-99h-243zM274 711q-57 0 -96 41t-39 100t39 100t96 41q58 0 98 -41t40 -100t-40 -100t-98 -41z" />
    <glyph glyph-name="cent" unicode="&#xa2;" horiz-adv-x="1116" 
d="M498 0v217q-164 37 -253 161t-89 291t96 296t252 165v220h176v-199q131 -2 219 -59v-193q-98 68 -225 68t-204 -78t-77 -208t72 -207q73 -77 191 -77t227 58l61 -176q-121 -63 -270 -70v-209h-176z" />
    <glyph glyph-name="sterling" unicode="&#xa3;" horiz-adv-x="1116" 
d="M123 0v156q186 57 186 432h-145v200h145v123q0 105 30 189t76 132q125 130 335 130q137 0 274 -53l-53 -197q-81 43 -187 43t-170 -68t-63 -204v-95h385l-64 -200h-321q-4 -305 -121 -406v-4q131 23 252 23h334v-201h-893z" />
    <glyph glyph-name="currency" unicode="&#xa4;" horiz-adv-x="1116" 
d="M557 375q119 0 202 86t83 208t-83 208t-202 86t-202 -86t-83 -208t83 -208t202 -86zM94 669q0 134 72 244l-139 138l145 147l137 -141q115 76 249 76t249 -76l133 137l145 -145l-137 -136q72 -111 72 -245t-74 -248l139 -135l-147 -146l-135 137q-113 -70 -246 -70
t-244 70l-139 -141l-145 148l141 137q-76 115 -76 249z" />
    <glyph glyph-name="yen" unicode="&#xa5;" horiz-adv-x="1116" 
d="M436 0v229h-319v154h319v152h-319v153h245l-313 662h262l246 -594h2l244 594h264l-315 -662h247v-153h-319v-152h319v-154h-319v-229h-244z" />
    <glyph glyph-name="brokenbar" unicode="&#xa6;" horiz-adv-x="577" 
d="M170 852v745h240v-745h-240zM170 -483v745h240v-745h-240z" />
    <glyph glyph-name="section" unicode="&#xa7;" horiz-adv-x="1142" 
d="M430 805q-78 -57 -78 -150t90 -154q56 -38 160 -87q104 -50 139 -68q86 59 86 151t-90 151q-55 38 -163 88q-107 51 -144 69zM520 -139q219 0 219 147q0 68 -61 117q-60 49 -148 84t-176 78t-149 120t-62 185q0 188 160 293q-111 100 -111 253q0 152 110 248
q108 96 300 96t334 -73l-4 -211q-162 86 -320 86q-78 0 -129 -35t-51 -101t62 -116q62 -49 153 -86q90 -37 179 -80q90 -43 152 -123t62 -183t-46 -180t-124 -122q111 -96 111 -231q0 -183 -128 -273t-349 -90t-373 113l94 174q147 -90 295 -90z" />
    <glyph glyph-name="dieresis" unicode="&#xa8;" horiz-adv-x="786" 
d="M588 1114q-51 0 -88 37t-37 89t36 89t88 37t89 -37t37 -89t-37 -89t-88 -37zM198 1114q-52 0 -89 37t-37 89t37 89t89 37t89 -37t37 -89t-37 -89t-89 -37z" />
    <glyph glyph-name="copyright" unicode="&#xa9;" horiz-adv-x="1576" 
d="M803 256q-172 0 -277 114q-104 114 -104 291t110 297t285 121q121 0 203 -45v-139q-94 53 -203 53t-177 -78t-69 -204q0 -126 66 -204q66 -77 170 -77t188 51l49 -114q-119 -66 -241 -66zM788 104q233 0 386 159q152 159 151 407q1 248 -151 406t-386 159
q-234 0 -386 -159q-152 -158 -152 -406t152 -407t386 -159zM787 -20q-298 0 -488 196t-190 494t190 494t488 196q299 0 489 -197t190 -493t-190 -494q-191 -196 -489 -196z" />
    <glyph glyph-name="ordfeminine" unicode="&#xaa;" horiz-adv-x="753" 
d="M254 772q0 -38 26 -60t79 -22t108 45v123l-84 -2q-129 -4 -129 -84zM467 1008q-1 92 -143 92q-74 0 -160 -45l-66 123q117 74 275 73q281 0 280 -256v-268q0 -119 17 -174h-158l-25 59q-84 -74 -188 -74t-170 61t-66 165t79 162t223 61l102 4v17zM57 270v146h639v-146
h-639z" />
    <glyph glyph-name="guillemotleft" unicode="&#xab;" horiz-adv-x="1239" 
d="M1106 823l-254 -329l254 -330l-176 -98l-348 428l348 428zM600 823l-254 -329l254 -330l-176 -98l-348 428l348 428z" />
    <glyph glyph-name="logicalnot" unicode="&#xac;" horiz-adv-x="1126" 
d="M817 92v410h-735v203h965v-613h-230z" />
    <glyph glyph-name="registered" unicode="&#xae;" horiz-adv-x="1175" 
d="M516 903h29q109 0 108 82q0 55 -43 68q-23 8 -63 8h-31v-158zM414 606v535h159q51 0 89 -11q100 -33 100 -135q0 -57 -36 -94t-91 -49v-4q35 -16 160 -242h-117q-6 12 -28 50t-35 62q-54 99 -76 105h-23v-217h-102zM584 465q166 0 274 116q108 115 107 285
q0 170 -108 285q-107 115 -273 115t-272 -115t-107 -285q1 -170 107 -286t272 -115zM582 369q-211 0 -349 142q-137 142 -137 355q0 212 137 354t349 142t354 -142q141 -142 141 -354t-142 -354q-142 -143 -353 -143z" />
    <glyph glyph-name="macron" unicode="&#xaf;" horiz-adv-x="786" 
d="M100 1165v185h584v-185h-584z" />
    <glyph glyph-name="degree" unicode="&#xb0;" horiz-adv-x="757" 
d="M379 874q67 0 109 46t42 114q0 70 -43 116t-109 46t-108 -46q-43 -46 -43 -116t43 -115t109 -45zM377 723q-139 0 -229 89q-89 89 -89 224q-1 134 91 224t229 90t228 -89t91 -225t-91 -224q-91 -89 -230 -89z" />
    <glyph glyph-name="plusminus" unicode="&#xb1;" horiz-adv-x="1126" 
d="M82 0v203h965v-203h-965zM449 303v281h-367v202h367v281h227v-281h371v-202h-371v-281h-227z" />
    <glyph glyph-name="twosuperior" unicode="&#xb2;" horiz-adv-x="714" 
d="M426 1391q0 78 -100 77q-74 0 -207 -59l-49 150q160 75 295 75t203 -59t67 -165q0 -106 -108 -196q-46 -38 -93 -70q-118 -82 -139 -155h346v-166h-596q4 105 44 189t95 135q54 51 110 92t94 79t38 73z" />
    <glyph glyph-name="threesuperior" unicode="&#xb3;" horiz-adv-x="712" 
d="M225 1298q160 0 160 97q0 80 -102 80q-76 0 -185 -45l-47 145q150 59 277 59q126 0 196 -57t70 -147q0 -131 -135 -187v-4q78 -14 121 -62t43 -124q0 -106 -89 -174q-88 -68 -240 -68t-263 53l51 146q88 -41 186 -41q143 0 144 98q0 57 -60 78q-33 12 -104 12h-101v141
h78z" />
    <glyph glyph-name="acute" unicode="&#xb4;" horiz-adv-x="786" 
d="M268 1087l119 302h264l-196 -302h-187z" />
    <glyph glyph-name="mu" unicode="&#xb5;" horiz-adv-x="1183" 
d="M733 434v535h244v-633q0 -78 20 -106q21 -28 59 -28t64 13l47 -195q-75 -34 -161 -34t-143 48q-56 48 -70 134h-5q-82 -188 -258 -188q-109 0 -165 69h-5q8 -115 9 -264v-270h-244v1454h244v-586q0 -90 45 -142q45 -53 124 -53t137 62t58 184z" />
    <glyph glyph-name="paragraph" unicode="&#xb6;" horiz-adv-x="1294" 
d="M545 -328v746q-197 16 -317 143t-120 325t134 331q133 133 350 133h536v-1678h-196v1520h-191v-1520h-196z" />
    <glyph glyph-name="periodcentered" unicode="&#xb7;" horiz-adv-x="538" 
d="M406 514q0 -59 -40 -100t-97 -41q-56 0 -96 41t-40 100t40 99t96 40q57 0 97 -40t40 -99z" />
    <glyph glyph-name="cedilla" unicode="&#xb8;" horiz-adv-x="786" 
d="M305 -315q98 0 98 65q0 41 -41 55t-124 15l55 180h180l-31 -100q172 -14 172 -152q0 -82 -74 -132t-214 -50q-82 -1 -154 22l35 113q49 -16 98 -16z" />
    <glyph glyph-name="onesuperior" unicode="&#xb9;" horiz-adv-x="714" 
d="M360 823v609l-237 -89l-64 154l338 133h154v-807h-191z" />
    <glyph glyph-name="ordmasculine" unicode="&#xba;" horiz-adv-x="802" 
d="M401 694q72 0 114 56t42 145q0 88 -42 144q-42 57 -114 57q-71 0 -113 -56t-42 -145t42 -145t113 -56zM401 539q-153 0 -249 100t-97 256q1 156 97 256t250 100t249 -100q97 -100 97 -256t-96 -256t-251 -100zM63 270v146h676v-146h-676z" />
    <glyph glyph-name="guillemotright" unicode="&#xbb;" horiz-adv-x="1239" 
d="M639 164l254 330l-254 329l176 99l348 -428l-348 -428zM133 164l254 330l-254 329l176 99l348 -428l-348 -428z" />
    <glyph glyph-name="onequarter" unicode="&#xbc;" horiz-adv-x="1931" 
d="M1405 315h49v56q0 96 6 196l-190 -254q35 2 135 2zM1067 172v117l395 518h183v-492h108v-143h-108v-172h-191v172h-387zM422 553v608l-238 -88l-63 154l338 133h153v-807h-190zM420 0l850 1350h200l-852 -1350h-198z" />
    <glyph glyph-name="onehalf" unicode="&#xbd;" horiz-adv-x="1931" 
d="M1559 567q0 78 -101 78q-74 0 -207 -59l-49 149q160 76 295 76t203 -59t68 -167t-108 -194q-46 -37 -93 -69q-118 -81 -140 -156h347v-166h-596q4 104 44 188t95 136t110 92q55 41 94 79q38 38 38 72zM391 553v608l-237 -88l-64 154l338 133h154v-807h-191zM383 0
l850 1350h201l-852 -1350h-199z" />
    <glyph glyph-name="threequarters" unicode="&#xbe;" horiz-adv-x="1931" 
d="M328 1026q159 0 159 96q0 80 -102 80q-76 0 -184 -45l-47 146q150 59 276 59t197 -57q70 -57 69 -148q0 -131 -135 -186v-4q78 -15 121 -63t43 -124q0 -106 -89 -174q-88 -68 -240 -68t-263 54l51 145q88 -41 187 -41q143 0 143 99q0 57 -59 77q-33 12 -105 13h-100v141
h78zM1436 315h49v56q0 96 6 196l-191 -254q35 2 136 2zM1098 172v117l395 518h182v-492h109v-143h-109v-172h-190v172h-387zM477 0l850 1350h201l-852 -1350h-199z" />
    <glyph glyph-name="questiondown" unicode="&#xbf;" horiz-adv-x="968" 
d="M455 -387q-178 0 -276 84q-97 84 -97 215q0 96 63 176t139 125q202 120 201 211q0 43 -26 82l207 76q63 -76 63 -165t-59 -159t-129 -111t-129 -96q-60 -55 -60 -112t38 -89t104 -30q129 -1 262 114l110 -157q-190 -164 -411 -164zM550 711q-56 0 -96 41t-40 100t40 100
t96 41t96 -41t40 -100t-40 -100t-96 -41z" />
    <glyph glyph-name="Agrave" unicode="&#xc0;" horiz-adv-x="1294" 
d="M575 1425l-198 301h266l119 -301h-187zM471 539h334l-94 268q-43 121 -68 209h-4q-14 -53 -70 -211zM16 0l523 1356h196l543 -1356h-266l-131 338h-482l-127 -338h-256z" />
    <glyph glyph-name="Aacute" unicode="&#xc1;" horiz-adv-x="1294" 
d="M514 1425l119 301h264l-197 -301h-186zM471 539h334l-94 268q-43 121 -68 209h-4q-14 -53 -70 -211zM16 0l523 1356h196l543 -1356h-266l-131 338h-482l-127 -338h-256z" />
    <glyph glyph-name="Acircumflex" unicode="&#xc2;" horiz-adv-x="1294" 
d="M334 1425l205 301h196l207 -301h-192l-113 162l-111 -162h-192zM471 539h334l-94 268q-43 121 -68 209h-4q-14 -53 -70 -211zM16 0l523 1356h196l543 -1356h-266l-131 338h-482l-127 -338h-256z" />
    <glyph glyph-name="Atilde" unicode="&#xc3;" horiz-adv-x="1294" 
d="M317 1475v79q-1 80 47 125t118 45t158 -45q89 -45 116 -45t35 18t8 60h159v-82q0 -80 -47 -124t-115 -44t-158 44t-118 44q-27 0 -35 -17t-8 -58h-160zM471 539h334l-94 268q-43 121 -68 209h-4q-14 -53 -70 -211zM16 0l523 1356h196l543 -1356h-266l-131 338h-482
l-127 -338h-256z" />
    <glyph glyph-name="Adieresis" unicode="&#xc4;" horiz-adv-x="1294" 
d="M834 1436q-51 0 -89 35q-37 35 -37 89t37 91t89 37t88 -38t36 -89t-36 -88t-88 -37zM443 1436q-52 0 -89 37t-37 88t37 89t89 38t89 -37t37 -89t-37 -89t-89 -37zM471 539h334l-94 268q-43 121 -68 209h-4q-14 -53 -70 -211zM16 0l523 1356h196l543 -1356h-266l-131 338
h-482l-127 -338h-256z" />
    <glyph glyph-name="Aring" unicode="&#xc5;" horiz-adv-x="1294" 
d="M636 1430q38 0 60 24t23 70q0 92 -84 92q-37 0 -61 -25t-24 -67t24 -69q24 -25 62 -25zM471 539h334l-94 270q-49 135 -68 211h-4q-16 -63 -70 -213zM395 1535q0 79 67 133t173 54t173 -54t66 -144q0 -137 -133 -183l537 -1341h-266l-131 338h-482l-127 -338h-256
l516 1337q-137 43 -137 198z" />
    <glyph glyph-name="AE" unicode="&#xc6;" horiz-adv-x="1720" 
d="M567 539h303l-47 315q-14 90 -22 158h-2q-10 -25 -80 -170zM1534 788v-208h-424l64 -371h428v-209h-641l-58 338h-446l-183 -338h-260l729 1350h856l-67 -209h-518l61 -353h459z" />
    <glyph glyph-name="Ccedilla" unicode="&#xc7;" horiz-adv-x="1284" 
d="M635 -315q100 0 100 65q0 41 -41 55t-125 15l54 176q-248 43 -382 222q-135 180 -135 460t197 482t516 202q205 0 355 -66v-229q-166 88 -365 88t-320 -140t-121 -352t122 -345q122 -132 327 -132q168 0 332 95l68 -195q-193 -106 -418 -106l-27 -80q172 -14 172 -152
q0 -82 -73 -132t-214 -50q-85 -1 -153 22l35 113q49 -16 96 -16z" />
    <glyph glyph-name="Egrave" unicode="&#xc8;" horiz-adv-x="1028" 
d="M442 1425l-198 301h266l119 -301h-187zM164 0v1350h745l-67 -209h-432v-353h432v-208h-432v-371h501v-209h-747z" />
    <glyph glyph-name="Eacute" unicode="&#xc9;" horiz-adv-x="1028" 
d="M401 1425l119 301h264l-196 -301h-187zM164 0v1350h745l-67 -209h-432v-353h432v-208h-432v-371h501v-209h-747z" />
    <glyph glyph-name="Ecircumflex" unicode="&#xca;" horiz-adv-x="1028" 
d="M219 1425l205 301h197l206 -301h-192l-113 162l-110 -162h-193zM164 0v1350h745l-67 -209h-432v-353h432v-208h-432v-371h501v-209h-747z" />
    <glyph glyph-name="Edieresis" unicode="&#xcb;" horiz-adv-x="1028" 
d="M724 1436q-52 0 -88 36t-36 88q0 54 37 91t88 37t88 -38t37 -89t-37 -88t-89 -37zM335 1436q-52 0 -89 37t-37 88t37 89t88 38t89 -37t38 -89t-37 -89t-89 -37zM164 0v1350h745l-67 -209h-432v-353h432v-208h-432v-371h501v-209h-747z" />
    <glyph glyph-name="Igrave" unicode="&#xcc;" horiz-adv-x="573" 
d="M223 1425l-198 301h266l119 -301h-187zM164 0v1350h246v-1350h-246z" />
    <glyph glyph-name="Iacute" unicode="&#xcd;" horiz-adv-x="573" 
d="M156 1425l118 301h265l-197 -301h-186zM164 0v1350h246v-1350h-246z" />
    <glyph glyph-name="Icircumflex" unicode="&#xce;" horiz-adv-x="573" 
d="M-18 1425l204 301h197l207 -301h-193l-112 162l-111 -162h-192zM164 0v1350h246v-1350h-246z" />
    <glyph glyph-name="Idieresis" unicode="&#xcf;" horiz-adv-x="573" 
d="M481 1436q-51 0 -88 36t-37 88q0 54 37 91t88 37t88 -38t37 -89t-37 -88t-88 -37zM91 1436q-52 0 -89 37t-37 88t37 89t89 38t89 -37t37 -89t-37 -89t-89 -37zM164 0v1350h246v-1350h-246z" />
    <glyph glyph-name="Eth" unicode="&#xd0;" horiz-adv-x="1425" 
d="M410 209h155q252 0 372 132t120 344t-127 334t-369 122h-151v-357h309v-200h-309v-375zM164 0v584h-148v200h148v566h420q352 0 544 -180t193 -488q0 -306 -205 -494t-555 -188h-397z" />
    <glyph glyph-name="Ntilde" unicode="&#xd1;" horiz-adv-x="1533" 
d="M446 1475v79q0 80 48 125t116 45q70 0 159 -45t116 -45t35 18t8 60h159v-82q0 -80 -47 -124t-115 -44q-69 0 -159 44t-117 44t-35 -17t-8 -58h-160zM1370 0h-223l-586 770q-20 27 -151 205h-4q4 -53 4 -209v-766h-246v1350h244l565 -740q111 -150 149 -209h4
q-4 143 -4 228v721h248v-1350z" />
    <glyph glyph-name="Ograve" unicode="&#xd2;" horiz-adv-x="1572" 
d="M707 1425l-199 301h266l119 -301h-186zM785 186q189 0 305 129q114 129 114 353t-112 356q-112 131 -304 131t-306 -129t-114 -355t114 -356q114 -129 303 -129zM785 -20q-298 0 -488 190q-191 190 -191 498t190 502q190 192 489 192q301 0 491 -194t190 -500t-191 -497
q-192 -191 -490 -191z" />
    <glyph glyph-name="Oacute" unicode="&#xd3;" horiz-adv-x="1572" 
d="M688 1425l119 301h264l-197 -301h-186zM785 186q189 0 305 129q114 129 114 353t-112 356q-112 131 -304 131t-306 -129t-114 -355t114 -356q114 -129 303 -129zM785 -20q-298 0 -488 190q-191 190 -191 498t190 502q190 192 489 192q301 0 491 -194t190 -500t-191 -497
q-192 -191 -490 -191z" />
    <glyph glyph-name="Ocircumflex" unicode="&#xd4;" horiz-adv-x="1572" 
d="M483 1425l205 301h197l207 -301h-193l-113 162l-110 -162h-193zM785 186q189 0 305 129q114 129 114 353t-112 356q-112 131 -304 131t-306 -129t-114 -355t114 -356q114 -129 303 -129zM785 -20q-298 0 -488 190q-191 190 -191 498t190 502q190 192 489 192
q301 0 491 -194t190 -500t-191 -497q-192 -191 -490 -191z" />
    <glyph glyph-name="Otilde" unicode="&#xd5;" horiz-adv-x="1572" 
d="M469 1475v79q0 80 47 125t117 45t159 -45q90 -45 116 -45t34 18t8 60h160v-82q0 -80 -47 -124t-115 -44t-160 44q-90 44 -116 44t-35 -17q-8 -17 -8 -58h-160zM785 186q189 0 305 129q114 129 114 353t-112 356q-112 131 -304 131t-306 -129t-114 -355t114 -356
q114 -129 303 -129zM785 -20q-298 0 -488 190q-191 190 -191 498t190 502q190 192 489 192q301 0 491 -194t190 -500t-191 -497q-192 -191 -490 -191z" />
    <glyph glyph-name="Odieresis" unicode="&#xd6;" horiz-adv-x="1572" 
d="M986 1436q-52 0 -88 36t-36 88q0 54 37 91t88 37t88 -38t37 -89t-37 -88t-89 -37zM597 1436q-52 0 -89 37t-37 88t37 89t88 38t89 -37t38 -89t-37 -89t-89 -37zM785 186q189 0 305 129q114 129 114 353t-112 356q-112 131 -304 131t-306 -129t-114 -355t114 -356
q114 -129 303 -129zM785 -20q-298 0 -488 190q-191 190 -191 498t190 502q190 192 489 192q301 0 491 -194t190 -500t-191 -497q-192 -191 -490 -191z" />
    <glyph glyph-name="multiply" unicode="&#xd7;" horiz-adv-x="1218" 
d="M240 -10l-146 145l371 373l-373 373l146 145l372 -373l371 371l145 -145l-368 -371l368 -369l-145 -147l-371 370z" />
    <glyph glyph-name="Oslash" unicode="&#xd8;" horiz-adv-x="1587" 
d="M793 1157q-187 0 -305 -130t-117 -357q0 -162 63 -277l578 701q-96 63 -219 63zM793 184q190 0 307 130t117 356q0 169 -72 288l-580 -706q94 -68 228 -68zM113 682q0 294 190 488q190 192 490 192q199 0 352 -96l121 149l151 -115l-121 -149q178 -190 178 -489
q0 -298 -190 -490q-192 -192 -491 -192q-207 0 -365 98l-117 -146l-153 115l121 148q-166 193 -166 487z" />
    <glyph glyph-name="Ugrave" unicode="&#xd9;" horiz-adv-x="1425" 
d="M639 1425l-199 301h267l118 -301h-186zM712 -20q-384 0 -507 262q-51 102 -51 262v846h245v-830q0 -109 37 -182q74 -152 277 -152t276 152q37 74 37 184v828h246v-846q0 -162 -51 -264q-125 -260 -509 -260z" />
    <glyph glyph-name="Uacute" unicode="&#xda;" horiz-adv-x="1425" 
d="M606 1425l119 301h264l-196 -301h-187zM712 -20q-384 0 -507 262q-51 102 -51 262v846h245v-830q0 -109 37 -182q74 -152 277 -152t276 152q37 74 37 184v828h246v-846q0 -162 -51 -264q-125 -260 -509 -260z" />
    <glyph glyph-name="Ucircumflex" unicode="&#xdb;" horiz-adv-x="1425" 
d="M414 1425l204 301h197l207 -301h-193l-112 162l-111 -162h-192zM712 -20q-384 0 -507 262q-51 102 -51 262v846h245v-830q0 -109 37 -182q74 -152 277 -152t276 152q37 74 37 184v828h246v-846q0 -162 -51 -264q-125 -260 -509 -260z" />
    <glyph glyph-name="Udieresis" unicode="&#xdc;" horiz-adv-x="1425" 
d="M915 1436q-51 0 -88 36t-37 88q0 54 37 91t88 37t89 -38t36 -89q0 -51 -37 -88t-88 -37zM525 1436q-52 0 -89 37t-37 88t37 89t89 38t89 -37t37 -89t-37 -89t-89 -37zM712 -20q-384 0 -507 262q-51 102 -51 262v846h245v-830q0 -109 37 -182q74 -152 277 -152t276 152
q37 74 37 184v828h246v-846q0 -162 -51 -264q-125 -260 -509 -260z" />
    <glyph glyph-name="Yacute" unicode="&#xdd;" horiz-adv-x="1200" 
d="M479 1425l119 301h264l-196 -301h-187zM475 0v535l-461 815h271l315 -596h4l314 596h266l-461 -818v-532h-248z" />
    <glyph glyph-name="Thorn" unicode="&#xde;" horiz-adv-x="1116" 
d="M483 446q271 0 271 242q0 143 -107 205q-57 37 -168 37h-69v-484h73zM164 0v1350h246v-220h79q186 0 304 -57q219 -111 219 -385q0 -129 -62 -234q-124 -208 -483 -208h-57v-246h-246z" />
    <glyph glyph-name="germandbls" unicode="&#xdf;" horiz-adv-x="1257" 
d="M113 -289v1262q0 139 43 238t115 149q134 90 316 90q181 0 313 -118t132 -357q0 -35 -2 -51q-190 -43 -190 -146q0 -73 124 -149q52 -33 103 -73t87 -106t36 -153q0 -160 -114 -239q-114 -78 -290 -78t-311 86l76 178q119 -72 237 -72q162 0 162 115q0 83 -124 159
q-52 33 -103 70t-87 95t-36 132q0 184 193 267q-1 108 -57 176t-158 68t-162 -61q-59 -60 -60 -192v-1290h-243z" />
    <glyph glyph-name="agrave" unicode="&#xe0;" horiz-adv-x="1007" 
d="M442 1087l-198 302h266l119 -302h-187zM476 172q83 0 171 72v207l-131 -5q-92 -2 -146 -32t-55 -109q0 -133 161 -133zM68 289q0 180 163 264q94 49 250 55l166 6v31q0 162 -186 162q-127 0 -254 -68l-80 158q174 96 375 96q389 0 389 -352v-393q0 -182 18 -248h-204
l-37 92q-122 -112 -270 -112t-239 86t-91 223z" />
    <glyph glyph-name="aacute" unicode="&#xe1;" horiz-adv-x="1007" 
d="M381 1087l119 302h264l-197 -302h-186zM476 172q83 0 171 72v207l-131 -5q-92 -2 -146 -32t-55 -109q0 -133 161 -133zM68 289q0 180 163 264q94 49 250 55l166 6v31q0 162 -186 162q-127 0 -254 -68l-80 158q174 96 375 96q389 0 389 -352v-393q0 -182 18 -248h-204
l-37 92q-122 -112 -270 -112t-239 86t-91 223z" />
    <glyph glyph-name="acircumflex" unicode="&#xe2;" horiz-adv-x="1007" 
d="M201 1087l205 302h196l207 -302h-193l-112 162l-111 -162h-192zM476 172q83 0 171 72v207l-131 -5q-92 -2 -146 -32t-55 -109q0 -133 161 -133zM68 289q0 180 163 264q94 49 250 55l166 6v31q0 162 -186 162q-127 0 -254 -68l-80 158q174 96 375 96q389 0 389 -352v-393
q0 -182 18 -248h-204l-37 92q-122 -112 -270 -112t-239 86t-91 223z" />
    <glyph glyph-name="atilde" unicode="&#xe3;" horiz-adv-x="1007" 
d="M184 1120v80q0 80 47 125t117 45t159 -45t116 -45t35 17t8 61h159v-80q0 -80 -47 -125q-48 -45 -116 -45t-158 45t-117 45t-35 -17t-8 -61h-160zM476 172q83 0 171 72v207l-131 -5q-92 -2 -146 -32t-55 -109q0 -133 161 -133zM68 289q0 180 163 264q94 49 250 55l166 6
v31q0 162 -186 162q-127 0 -254 -68l-80 158q174 96 375 96q389 0 389 -352v-393q0 -182 18 -248h-204l-37 92q-122 -112 -270 -112t-239 86t-91 223z" />
    <glyph glyph-name="adieresis" unicode="&#xe4;" horiz-adv-x="1007" 
d="M699 1114q-52 0 -88 37t-36 89t36 89t88 37t89 -37t37 -89t-37 -89t-89 -37zM310 1114q-52 0 -89 37t-37 89t37 89t89 37t89 -37t37 -89t-37 -89t-89 -37zM476 172q83 0 171 72v207l-131 -5q-92 -2 -146 -32t-55 -109q0 -133 161 -133zM68 289q0 180 163 264
q94 49 250 55l166 6v31q0 162 -186 162q-127 0 -254 -68l-80 158q174 96 375 96q389 0 389 -352v-393q0 -182 18 -248h-204l-37 92q-122 -112 -270 -112t-239 86t-91 223z" />
    <glyph glyph-name="aring" unicode="&#xe5;" horiz-adv-x="1007" 
d="M505 1176q37 0 61 26t24 68t-24 68t-62 26t-60 -25t-22 -69t22 -70q23 -24 61 -24zM506 1071q-106 0 -173 53q-67 54 -67 146t67 145t173 53t173 -53t67 -145t-67 -146q-67 -53 -173 -53zM476 172q83 0 171 72v207l-131 -5q-92 -2 -146 -32t-55 -109q0 -133 161 -133z
M68 289q0 180 163 264q94 49 250 55l166 6v31q0 162 -186 162q-127 0 -254 -68l-80 158q174 96 375 96q389 0 389 -352v-393q0 -182 18 -248h-204l-37 92q-122 -112 -270 -112t-239 86t-91 223z" />
    <glyph glyph-name="ae" unicode="&#xe6;" horiz-adv-x="1593" 
d="M903 596h369q-4 88 -49 149t-132 61t-135 -60t-53 -150zM461 172q135 0 233 107q-23 63 -26 147h-172q-180 0 -181 -125q0 -61 40 -95t106 -34zM662 645q0 162 -218 162q-112 0 -237 -70l-80 160q174 96 383 96t289 -145h4q109 145 303 145t304 -136t110 -382v-49h-615
q2 -118 74 -186t198 -68t242 66l72 -168q-145 -90 -340 -90q-250 0 -379 159q-141 -159 -364 -159q-152 0 -246 84t-94 234t116 224t295 74h183v49z" />
    <glyph glyph-name="ccedilla" unicode="&#xe7;" horiz-adv-x="917" 
d="M426 -315q100 0 100 65q0 54 -79 65q-30 3 -87 5l54 176q-164 43 -253 172t-89 309q0 223 146 369t366 147q158 0 260 -65v-207q-104 76 -236 76t-210 -88q-76 -89 -76 -231t74 -222t188 -80q116 0 237 66l72 -168q-55 -39 -141 -66t-160 -26h-2l-27 -82
q172 -14 172 -152q-1 -82 -73 -132t-213 -50q-86 -1 -154 22l35 113q49 -16 96 -16z" />
    <glyph glyph-name="egrave" unicode="&#xe8;" horiz-adv-x="1009" 
d="M453 1087l-199 302h266l119 -302h-186zM317 588h375q-2 92 -49 155t-135 63t-138 -62q-50 -64 -53 -156zM940 418h-621q4 -114 79 -180t199 -66t241 66l73 -168q-145 -90 -342 -90q-247 0 -371 144t-124 363t116 363q117 143 320 143q202 0 316 -138t114 -380v-57z" />
    <glyph glyph-name="eacute" unicode="&#xe9;" horiz-adv-x="1009" 
d="M391 1087l119 302h264l-196 -302h-187zM317 588h375q-2 92 -49 155t-135 63t-138 -62q-50 -64 -53 -156zM940 418h-621q4 -114 79 -180t199 -66t241 66l73 -168q-145 -90 -342 -90q-247 0 -371 144t-124 363t116 363q117 143 320 143q202 0 316 -138t114 -380v-57z" />
    <glyph glyph-name="ecircumflex" unicode="&#xea;" horiz-adv-x="1009" 
d="M211 1087l205 302h196l207 -302h-192l-113 162l-111 -162h-192zM317 588h375q-2 92 -49 155t-135 63t-138 -62q-50 -64 -53 -156zM940 418h-621q4 -114 79 -180t199 -66t241 66l73 -168q-145 -90 -342 -90q-247 0 -371 144t-124 363t116 363q117 143 320 143
q202 0 316 -138t114 -380v-57z" />
    <glyph glyph-name="edieresis" unicode="&#xeb;" horiz-adv-x="1009" 
d="M711 1114q-51 0 -88 37t-37 89t36 89t88 37t89 -37t37 -89t-37 -89t-88 -37zM320 1366q52 0 90 -37t36 -89q0 -52 -37 -89t-89 -37t-89 37t-37 89t37 89t89 37zM317 588h375q-2 92 -49 155t-135 63t-138 -62q-50 -64 -53 -156zM940 418h-621q4 -114 79 -180t199 -66
t241 66l73 -168q-145 -90 -342 -90q-247 0 -371 144t-124 363t116 363q117 143 320 143q202 0 316 -138t114 -380v-57z" />
    <glyph glyph-name="igrave" unicode="&#xec;" horiz-adv-x="487" 
d="M121 0v969h246v-969h-246zM182 1087l-198 302h266l119 -302h-187z" />
    <glyph glyph-name="iacute" unicode="&#xed;" horiz-adv-x="487" 
d="M121 0v969h246v-969h-246zM121 1087l119 302h264l-197 -302h-186z" />
    <glyph glyph-name="icircumflex" unicode="&#xee;" horiz-adv-x="487" 
d="M-59 1087l204 302h197l207 -302h-193l-112 162l-111 -162h-192zM121 0v969h246v-969h-246z" />
    <glyph glyph-name="idieresis" unicode="&#xef;" horiz-adv-x="487" 
d="M121 0v969h246v-969h-246zM440 1114q-51 0 -88 37t-37 89t36 89t88 37t89 -37t37 -89t-37 -89t-88 -37zM50 1114q-52 0 -89 37t-37 89t37 89t89 37t89 -37t37 -89t-37 -89t-89 -37z" />
    <glyph glyph-name="eth" unicode="&#xf0;" horiz-adv-x="1132" 
d="M558 174q112 0 171 82t59 222t-63 222t-175 82t-170 -84t-58 -223t62 -220t174 -81zM72 477q0 221 117 361q118 139 323 139q98 0 182 -41t135 -105h5q-51 221 -234 328l-281 -129l-51 111l176 76q-86 33 -247 36l45 197q268 -8 440 -115l242 115l53 -111l-186 -84
q248 -219 247 -655q0 -322 -136 -472t-350 -148q-214 0 -347 138t-133 359z" />
    <glyph glyph-name="ntilde" unicode="&#xf1;" horiz-adv-x="1099" 
d="M207 1120v80q0 80 47 125t117 45q71 0 159 -45t115 -45t35 17t8 61h160v-80q0 -80 -47 -125t-115 -45t-160 45q-90 45 -116 45t-35 -17q-8 -17 -8 -61h-160zM113 0v969h209l24 -109q170 133 318 133t236 -81q89 -81 89 -271v-641h-246v565q0 102 -31 159q-32 56 -132 56
t-224 -102v-678h-243z" />
    <glyph glyph-name="ograve" unicode="&#xf2;" 
d="M487 1087l-198 302h266l119 -302h-187zM555 176q113 0 173 86t60 225t-60 225t-173 85q-113 0 -173 -85q-60 -84 -60 -224t60 -226t173 -86zM555 -20q-215 0 -349 143t-134 363t134 364t349 143q215 0 350 -143q135 -142 135 -362t-135 -364t-350 -144z" />
    <glyph glyph-name="oacute" unicode="&#xf3;" 
d="M438 1087l119 302h264l-196 -302h-187zM555 176q113 0 173 86t60 225t-60 225t-173 85q-113 0 -173 -85q-60 -84 -60 -224t60 -226t173 -86zM555 -20q-215 0 -349 143t-134 363t134 364t349 143q215 0 350 -143q135 -142 135 -362t-135 -364t-350 -144z" />
    <glyph glyph-name="ocircumflex" unicode="&#xf4;" 
d="M250 1087l205 302h196l207 -302h-192l-113 162l-111 -162h-192zM555 176q113 0 173 86t60 225t-60 225t-173 85q-113 0 -173 -85q-60 -84 -60 -224t60 -226t173 -86zM555 -20q-215 0 -349 143t-134 363t134 364t349 143q215 0 350 -143q135 -142 135 -362t-135 -364
t-350 -144z" />
    <glyph glyph-name="otilde" unicode="&#xf5;" 
d="M233 1120v80q-1 80 47 125t118 45t158 -45q89 -45 116 -45t35 17t8 61h159v-80q0 -80 -47 -125t-115 -45t-158 45t-118 45q-27 0 -35 -17t-8 -61h-160zM555 176q113 0 173 86t60 225t-60 225t-173 85q-113 0 -173 -85q-60 -84 -60 -224t60 -226t173 -86zM555 -20
q-215 0 -349 143t-134 363t134 364t349 143q215 0 350 -143q135 -142 135 -362t-135 -364t-350 -144z" />
    <glyph glyph-name="odieresis" unicode="&#xf6;" 
d="M749 1114q-52 0 -89 37q-36 37 -36 89t36 89t88 37t90 -37q36 -37 36 -89t-36 -89t-89 -37zM359 1366q51 0 89 -37t38 -89t-38 -89q-37 -37 -89 -37t-89 37t-37 89t37 89t89 37zM555 176q113 0 173 86t60 225t-60 225t-173 85q-113 0 -173 -85q-60 -84 -60 -224t60 -226
t173 -86zM555 -20q-215 0 -349 143t-134 363t134 364t349 143q215 0 350 -143q135 -142 135 -362t-135 -364t-350 -144z" />
    <glyph glyph-name="divide" unicode="&#xf7;" horiz-adv-x="1126" 
d="M570 33q-52 0 -89 37t-37 90t37 90t89 37t88 -37t36 -90t-36 -90t-88 -37zM82 412v202h965v-202h-965zM570 737q-52 0 -89 37t-37 90t37 90t89 37t88 -37t36 -90t-36 -90t-88 -37z" />
    <glyph glyph-name="oslash" unicode="&#xf8;" 
d="M555 801q-113 0 -176 -88q-63 -89 -63 -205t30 -184l338 434q-55 43 -129 43zM555 172q113 0 176 88t63 202t-28 189l-340 -436q53 -43 129 -43zM72 490q0 216 134 360t349 143q139 0 254 -71l76 98l104 -80l-78 -98q129 -146 129 -360t-135 -358t-350 -144
q-141 0 -256 71l-82 -106l-102 80l84 106q-127 143 -127 359z" />
    <glyph glyph-name="ugrave" unicode="&#xf9;" horiz-adv-x="1095" 
d="M477 1087l-198 302h266l119 -302h-187zM356 397q0 -209 166 -209q121 0 199 86v695h246v-729q0 -180 16 -240h-209l-37 100q-135 -120 -301 -120q-86 0 -168 44q-157 84 -155 349v596h243v-572z" />
    <glyph glyph-name="uacute" unicode="&#xfa;" horiz-adv-x="1095" 
d="M424 1087l119 302h264l-197 -302h-186zM356 397q0 -209 166 -209q121 0 199 86v695h246v-729q0 -180 16 -240h-209l-37 100q-135 -120 -301 -120q-86 0 -168 44q-157 84 -155 349v596h243v-572z" />
    <glyph glyph-name="ucircumflex" unicode="&#xfb;" horiz-adv-x="1095" 
d="M242 1087l204 302h197l207 -302h-193l-112 162l-111 -162h-192zM356 397q0 -209 166 -209q121 0 199 86v695h246v-729q0 -180 16 -240h-209l-37 100q-135 -120 -301 -120q-86 0 -168 44q-157 84 -155 349v596h243v-572z" />
    <glyph glyph-name="udieresis" unicode="&#xfc;" horiz-adv-x="1095" 
d="M740 1114q-52 0 -88 37t-36 89t36 89t88 37t89 -37t37 -89t-37 -89t-89 -37zM351 1114q-52 0 -89 37t-37 89t37 89t89 37t89 -37t37 -89t-37 -89t-89 -37zM356 397q0 -209 166 -209q121 0 199 86v695h246v-729q0 -180 16 -240h-209l-37 100q-135 -120 -301 -120
q-86 0 -168 44q-157 84 -155 349v596h243v-572z" />
    <glyph glyph-name="yacute" unicode="&#xfd;" horiz-adv-x="1060" 
d="M424 1087l119 302h264l-197 -302h-186zM174 -485q-96 0 -199 45l62 192q71 -39 151 -39t145 67t120 226l-437 963h260l287 -684h4l232 684h252l-371 -1000q-55 -145 -114 -240q-96 -159 -242 -199q-54 -15 -150 -15z" />
    <glyph glyph-name="thorn" unicode="&#xfe;" horiz-adv-x="1091" 
d="M500 182q130 0 200 83t70 229t-77 222q-77 77 -208 77q-63 0 -116 -19v-567q57 -25 131 -25zM125 -485v1935h244v-473q66 16 153 16q238 0 369 -134t131 -360q0 -227 -138 -373t-370 -146q-72 0 -145 22v-487h-244z" />
    <glyph glyph-name="ydieresis" unicode="&#xff;" horiz-adv-x="1060" 
d="M743 1114q-51 0 -88 37t-37 89t36 89t88 37t89 -37t37 -89t-37 -89t-88 -37zM353 1114q-52 0 -89 37t-37 89t37 89t89 37t89 -37t37 -89t-37 -89t-89 -37zM174 -485q-96 0 -199 45l62 192q71 -39 151 -39t145 67t120 226l-437 963h260l287 -684h4l232 684h252l-371 -1000
q-55 -145 -114 -240q-96 -159 -242 -199q-54 -15 -150 -15z" />
    <glyph glyph-name="Amacron" unicode="&#x100;" horiz-adv-x="1294" 
d="M346 1442v186h584v-186h-584zM471 539h334l-94 268q-43 121 -68 209h-4q-14 -53 -70 -211zM16 0l523 1356h196l543 -1356h-266l-131 338h-482l-127 -338h-256z" />
    <glyph glyph-name="amacron" unicode="&#x101;" horiz-adv-x="1007" 
d="M213 1165v185h584v-185h-584zM476 172q83 0 171 72v207l-131 -5q-92 -2 -146 -32t-55 -109q0 -133 161 -133zM68 289q0 180 163 264q94 49 250 55l166 6v31q0 162 -186 162q-127 0 -254 -68l-80 158q174 96 375 96q389 0 389 -352v-393q0 -182 18 -248h-204l-37 92
q-122 -112 -270 -112t-239 86t-91 223z" />
    <glyph glyph-name="Abreve" unicode="&#x102;" horiz-adv-x="1294" 
d="M637 1419q-129 0 -210 77t-89 210h170q6 -61 40 -98t91 -37t91 37t40 98h168q-8 -133 -90 -210t-211 -77zM471 539h334l-94 268q-43 121 -68 209h-4q-14 -53 -70 -211zM16 0l523 1356h196l543 -1356h-266l-131 338h-482l-127 -338h-256z" />
    <glyph glyph-name="abreve" unicode="&#x103;" horiz-adv-x="1007" 
d="M505 1108q-130 0 -211 76t-89 209h170q6 -61 40 -97t91 -36t91 36t40 97h168q-8 -133 -89 -209t-211 -76zM476 172q83 0 171 72v207l-131 -5q-92 -2 -146 -32t-55 -109q0 -133 161 -133zM68 289q0 180 163 264q94 49 250 55l166 6v31q0 162 -186 162q-127 0 -254 -68
l-80 158q174 96 375 96q389 0 389 -352v-393q0 -182 18 -248h-204l-37 92q-122 -112 -270 -112t-239 86t-91 223z" />
    <glyph glyph-name="Aogonek" unicode="&#x104;" horiz-adv-x="1294" 
d="M471 539h334l-94 268q-43 121 -68 209h-4q-14 -53 -70 -211zM1024 -223q0 -72 70 -72q33 0 75 12l27 -131q-82 -24 -172 -24t-146 47t-57 127q0 141 189 270l-129 332h-482l-127 -338h-256l523 1356h196l543 -1356q-118 -33 -186 -96t-68 -127z" />
    <glyph glyph-name="aogonek" unicode="&#x105;" horiz-adv-x="1007" 
d="M476 172q83 0 171 72v207l-131 -5q-92 -2 -146 -32t-55 -109q0 -133 161 -133zM782 -295q31 0 74 12l29 -131q-86 -24 -175 -24t-146 47q-56 47 -56 127q0 143 192 272l-32 84q-122 -112 -270 -112t-239 86t-91 223q0 180 163 264q94 49 250 55l166 6v31q0 162 -186 162
q-127 0 -254 -68l-80 158q174 96 375 96q389 0 389 -352v-401q0 -176 18 -242q-199 -96 -198 -221q0 -72 71 -72z" />
    <glyph glyph-name="Cacute" unicode="&#x106;" horiz-adv-x="1284" 
d="M590 1425l119 301h264l-197 -301h-186zM788 -20q-324 0 -502 187t-180 489q0 302 197 504t516 202q205 0 355 -66v-229q-166 88 -365 88t-320 -140t-121 -352t122 -345q122 -132 308 -132t351 95l68 -195q-195 -106 -429 -106z" />
    <glyph glyph-name="cacute" unicode="&#x107;" horiz-adv-x="917" 
d="M395 1087l119 302h264l-196 -302h-187zM544 -20q-212 0 -342 140t-130 360t146 366t366 147q158 0 260 -65v-207q-104 76 -236 76t-210 -88q-76 -89 -76 -231t74 -222t188 -80q116 0 237 66l72 -168q-137 -94 -349 -94z" />
    <glyph glyph-name="Ccircumflex" unicode="&#x108;" horiz-adv-x="1284" 
d="M414 1425l204 301h197l207 -301h-193l-112 162l-111 -162h-192zM788 -20q-324 0 -502 187t-180 489q0 302 197 504t516 202q205 0 355 -66v-229q-166 88 -365 88t-320 -140t-121 -352t122 -345q122 -132 308 -132t351 95l68 -195q-195 -106 -429 -106z" />
    <glyph glyph-name="ccircumflex" unicode="&#x109;" horiz-adv-x="917" 
d="M215 1087l205 302h196l207 -302h-192l-113 162l-110 -162h-193zM544 -20q-212 0 -342 140t-130 360t146 366t366 147q158 0 260 -65v-207q-104 76 -236 76t-210 -88q-76 -89 -76 -231t74 -222t188 -80q116 0 237 66l72 -168q-137 -94 -349 -94z" />
    <glyph glyph-name="Cdotaccent" unicode="&#x10a;" horiz-adv-x="1284" 
d="M748 1444q-63 0 -108 43q-44 43 -44 103t44 104t109 43q65 0 107 -41q42 -42 41 -104q0 -62 -43 -105t-106 -43zM788 -20q-324 0 -502 187t-180 489q0 302 197 504t516 202q205 0 355 -66v-229q-166 88 -365 88t-320 -140t-121 -352t122 -345q122 -132 308 -132t351 95
l68 -195q-195 -106 -429 -106z" />
    <glyph glyph-name="cdotaccent" unicode="&#x10b;" horiz-adv-x="917" 
d="M520 1126q-63 0 -107 42t-44 104t44 104q44 43 107 43q62 0 106 -42t44 -104t-43 -105q-44 -42 -107 -42zM544 -20q-212 0 -342 140t-130 360t146 366t366 147q158 0 260 -65v-207q-104 76 -236 76t-210 -88q-76 -89 -76 -231t74 -222t188 -80q116 0 237 66l72 -168
q-137 -94 -349 -94z" />
    <glyph glyph-name="Ccaron" unicode="&#x10c;" horiz-adv-x="1284" 
d="M621 1425l-207 301h194l113 -161l110 161h191l-205 -301h-196zM788 -20q-324 0 -502 187t-180 489q0 302 197 504t516 202q205 0 355 -66v-229q-166 88 -365 88t-320 -140t-121 -352t122 -345q122 -132 308 -132t351 95l68 -195q-195 -106 -429 -106z" />
    <glyph glyph-name="ccaron" unicode="&#x10d;" horiz-adv-x="917" 
d="M422 1087l-207 302h195l112 -160l111 160h190l-205 -302h-196zM544 -20q-212 0 -342 140t-130 360t146 366t366 147q158 0 260 -65v-207q-104 76 -236 76t-210 -88q-76 -89 -76 -231t74 -222t188 -80q116 0 237 66l72 -168q-137 -94 -349 -94z" />
    <glyph glyph-name="Dcaron" unicode="&#x10e;" horiz-adv-x="1425" 
d="M518 1425l-207 301h195l112 -161l111 161h191l-205 -301h-197zM410 209h155q252 0 372 132t120 344t-127 334t-369 122h-151v-932zM164 0v1350h420q352 0 544 -180t193 -488q0 -306 -205 -494t-555 -188h-397z" />
    <glyph glyph-name="dcaron" unicode="&#x10f;" horiz-adv-x="1116" 
d="M1051 1051l73 401h242l-131 -401h-184zM618 182q72 0 115 17v579q-66 14 -117 15q-131 0 -213 -84q-81 -85 -81 -227t80 -221t216 -79zM606 -20q-226 0 -381 131q-153 131 -153 362t149 376q150 144 381 144q74 0 131 -12v469h246v-1399q-147 -71 -373 -71z" />
    <glyph glyph-name="Dcroat" unicode="&#x110;" horiz-adv-x="1425" 
d="M410 209h155q252 0 372 132t120 344t-127 334t-369 122h-151v-357h309v-200h-309v-375zM164 0v584h-148v200h148v566h420q352 0 544 -180t193 -488q0 -306 -205 -494t-555 -188h-397z" />
    <glyph glyph-name="dcroat" unicode="&#x111;" horiz-adv-x="1116" 
d="M614 182q66 0 119 17v585q-51 14 -117 15q-135 0 -218 -82q-83 -83 -83 -223t83 -226t216 -86zM599 -20q-228 0 -378 131q-149 131 -149 363t150 375q151 142 386 142q74 0 125 -10v147h-274v181h274v141h246v-141h115v-181h-115v-1071q-152 -77 -380 -77z" />
    <glyph glyph-name="Emacron" unicode="&#x112;" horiz-adv-x="1028" 
d="M238 1442v186h583v-186h-583zM164 0v1350h745l-67 -209h-432v-353h432v-208h-432v-371h501v-209h-747z" />
    <glyph glyph-name="emacron" unicode="&#x113;" horiz-adv-x="1009" 
d="M223 1165v185h584v-185h-584zM317 588h375q-2 92 -49 155t-135 63t-138 -62q-50 -64 -53 -156zM940 418h-621q4 -114 79 -180t199 -66t241 66l73 -168q-145 -90 -342 -90q-247 0 -371 144t-124 363t116 363q117 143 320 143q202 0 316 -138t114 -380v-57z" />
    <glyph glyph-name="Ebreve" unicode="&#x114;" horiz-adv-x="1028" 
d="M516 1419q-129 0 -210 77t-89 210h170q6 -61 40 -98t91 -37t91 37t40 98h168q-8 -133 -90 -210t-211 -77zM164 0v1350h745l-67 -209h-432v-353h432v-208h-432v-371h501v-209h-747z" />
    <glyph glyph-name="ebreve" unicode="&#x115;" horiz-adv-x="1009" 
d="M515 1108q-130 0 -211 76t-89 209h170q6 -61 40 -97t91 -36t91 36t40 97h168q-8 -133 -89 -209t-211 -76zM317 588h375q-2 92 -49 155t-135 63t-138 -62q-50 -64 -53 -156zM940 418h-621q4 -114 79 -180t199 -66t241 66l73 -168q-145 -90 -342 -90q-247 0 -371 144
t-124 363t116 363q117 143 320 143q202 0 316 -138t114 -380v-57z" />
    <glyph glyph-name="Edotaccent" unicode="&#x116;" horiz-adv-x="1028" 
d="M516 1444q-63 0 -107 43t-44 103t44 104q45 44 109 43q64 0 106 -41q42 -42 42 -104t-44 -105t-106 -43zM164 0v1350h745l-67 -209h-432v-353h432v-208h-432v-371h501v-209h-747z" />
    <glyph glyph-name="edotaccent" unicode="&#x117;" horiz-adv-x="1009" 
d="M516 1126q-63 0 -107 42t-44 104t44 104q44 43 107 43q62 0 106 -42t44 -104t-43 -105q-44 -42 -107 -42zM317 588h375q-2 92 -49 155t-135 63t-138 -62q-50 -64 -53 -156zM940 418h-621q4 -114 79 -180t199 -66t241 66l73 -168q-145 -90 -342 -90q-247 0 -371 144
t-124 363t116 363q117 143 320 143q202 0 316 -138t114 -380v-57z" />
    <glyph glyph-name="Eogonek" unicode="&#x118;" horiz-adv-x="1028" 
d="M164 0v1350h745l-67 -209h-432v-353h432v-208h-432v-371h501v-209h-41q-94 -45 -150 -103t-56 -120q0 -72 71 -72q31 0 76 12l27 -131q-86 -24 -175 -24t-146 47q-56 47 -56 127q0 139 180 264h-477z" />
    <glyph glyph-name="eogonek" unicode="&#x119;" horiz-adv-x="1009" 
d="M315 588h375q-4 92 -50 155t-135 63t-139 -62q-50 -64 -51 -156zM420 -264q0 135 149 241v5q-8 -2 -28 -2q-236 8 -353 150q-116 142 -116 359t116 361q117 143 320 143q202 0 316 -138t114 -380v-57h-621q4 -114 78 -180t199 -66t242 66l73 -168q-117 -60 -203 -138
t-85 -152q0 -74 71 -75q33 0 76 12l27 -131q-84 -24 -173 -24t-146 47q-56 47 -56 127z" />
    <glyph glyph-name="Ecaron" unicode="&#x11a;" horiz-adv-x="1028" 
d="M428 1425l-207 301h195l112 -161l111 161h190l-204 -301h-197zM164 0v1350h745l-67 -209h-432v-353h432v-208h-432v-371h501v-209h-747z" />
    <glyph glyph-name="ecaron" unicode="&#x11b;" horiz-adv-x="1009" 
d="M418 1087l-207 302h195l112 -160l111 160h190l-205 -302h-196zM317 588h375q-2 92 -49 155t-135 63t-138 -62q-50 -64 -53 -156zM940 418h-621q4 -114 79 -180t199 -66t241 66l73 -168q-145 -90 -342 -90q-247 0 -371 144t-124 363t116 363q117 143 320 143
q202 0 316 -138t114 -380v-57z" />
    <glyph glyph-name="Gcircumflex" unicode="&#x11c;" horiz-adv-x="1449" 
d="M465 1425l205 301h196l207 -301h-192l-113 162l-111 -162h-192zM1303 655v-567q-217 -109 -492 -108q-326 0 -515 187q-190 187 -190 491t205 504t537 200q203 0 391 -68v-229q-180 90 -373 90q-238 0 -368 -133t-129 -354q0 -222 123 -352t337 -130q137 0 226 41v428
h248z" />
    <glyph glyph-name="gcircumflex" unicode="&#x11d;" horiz-adv-x="1032" 
d="M195 1087l204 302h197l207 -302h-193l-112 162l-111 -162h-192zM495 449q77 0 125 47t48 127t-48 133t-124 53t-123 -47t-47 -128t46 -133t123 -52zM248 -159q0 -71 72 -113t187 -41q115 -1 183 33t68 91t-75 85t-195 43q-120 14 -162 30q-78 -57 -78 -128zM494 -485
q-226 -1 -346 77t-119 207q0 77 48 139t126 95q-63 39 -63 131t116 172q-76 45 -119 125t-43 176q0 145 104 251t291 105q119 0 193 -43q12 -4 25 4q84 84 233 84q37 0 66 -4l-50 -176q-36 10 -76 10t-67 -16q86 -92 86 -242t-112 -248t-289 -98q-66 0 -119 17
q-25 -41 -25 -77t47 -59t163 -34t262 -58q71 -23 118 -78t47 -141q0 -139 -135 -229q-136 -90 -362 -90z" />
    <glyph glyph-name="Gbreve" unicode="&#x11e;" horiz-adv-x="1449" 
d="M754 1419q-129 0 -210 77t-89 210h170q6 -61 40 -98t91 -37t91 37t40 98h168q-8 -133 -90 -210t-211 -77zM1303 655v-567q-217 -109 -492 -108q-326 0 -515 187q-190 187 -190 491t205 504t537 200q203 0 391 -68v-229q-180 90 -373 90q-238 0 -368 -133t-129 -354
q0 -222 123 -352t337 -130q137 0 226 41v428h248z" />
    <glyph glyph-name="gbreve" unicode="&#x11f;" horiz-adv-x="1032" 
d="M499 1108q-130 0 -211 76t-89 209h170q6 -61 40 -97t91 -36t91 36t40 97h168q-8 -133 -89 -209t-211 -76zM495 449q77 0 125 47t48 127t-48 133t-124 53t-123 -47t-47 -128t46 -133t123 -52zM248 -159q0 -71 72 -113t187 -41q115 -1 183 33t68 91t-75 85t-195 43
q-120 14 -162 30q-78 -57 -78 -128zM494 -485q-226 -1 -346 77t-119 207q0 77 48 139t126 95q-63 39 -63 131t116 172q-76 45 -119 125t-43 176q0 145 104 251t291 105q119 0 193 -43q12 -4 25 4q84 84 233 84q37 0 66 -4l-50 -176q-36 10 -76 10t-67 -16q86 -92 86 -242
t-112 -248t-289 -98q-66 0 -119 17q-25 -41 -25 -77t47 -59t163 -34t262 -58q71 -23 118 -78t47 -141q0 -139 -135 -229q-136 -90 -362 -90z" />
    <glyph glyph-name="Gdotaccent" unicode="&#x120;" horiz-adv-x="1449" 
d="M768 1444q-63 0 -108 43q-44 43 -44 103t44 104t109 43q65 0 107 -41q42 -42 42 -104t-44 -105t-106 -43zM1303 655v-567q-217 -109 -492 -108q-326 0 -515 187q-190 187 -190 491t205 504t537 200q203 0 391 -68v-229q-180 90 -373 90q-238 0 -368 -133t-129 -354
q0 -222 123 -352t337 -130q137 0 226 41v428h248z" />
    <glyph glyph-name="gdotaccent" unicode="&#x121;" horiz-adv-x="1032" 
d="M500 1126q-63 0 -108 42q-44 42 -44 104t44 104q44 43 108 43t106 -42q43 -42 43 -104q0 -63 -43 -105t-106 -42zM495 449q77 0 125 47t48 127t-48 133t-124 53t-123 -47t-47 -128t46 -133t123 -52zM248 -159q0 -71 72 -113t187 -41q115 -1 183 33t68 91t-75 85t-195 43
q-120 14 -162 30q-78 -57 -78 -128zM494 -485q-226 -1 -346 77t-119 207q0 77 48 139t126 95q-63 39 -63 131t116 172q-76 45 -119 125t-43 176q0 145 104 251t291 105q119 0 193 -43q12 -4 25 4q84 84 233 84q37 0 66 -4l-50 -176q-36 10 -76 10t-67 -16q86 -92 86 -242
t-112 -248t-289 -98q-66 0 -119 17q-25 -41 -25 -77t47 -59t163 -34t262 -58q71 -23 118 -78t47 -141q0 -139 -135 -229q-136 -90 -362 -90z" />
    <glyph glyph-name="Gcommaaccent" unicode="&#x122;" horiz-adv-x="1443" 
d="M610 -485l-59 147q152 31 151 125q0 51 -40 107h208q47 -70 48 -148q-1 -194 -308 -231zM1296 655v-567q-217 -109 -491 -108q-326 0 -515 187q-190 187 -190 491t205 504t537 200q203 0 391 -68v-229q-180 90 -373 90q-238 0 -368 -133t-130 -354q0 -222 123 -352
t338 -130q137 0 226 41v428h247z" />
    <glyph glyph-name="gcommaaccent" unicode="&#x123;" horiz-adv-x="1032" 
d="M495 449q77 0 125 47t48 127t-48 133t-124 53t-123 -47t-47 -128t46 -133t123 -52zM248 -159q0 -71 72 -113t187 -41q115 -1 183 33t68 91t-75 85t-195 43q-120 14 -162 30q-78 -57 -78 -128zM494 -485q-226 -1 -346 77t-119 207q0 77 48 139t126 95q-63 39 -63 131
t116 172q-76 45 -119 125t-43 176q0 145 104 251t291 105q119 0 193 -43q12 -4 25 4q84 84 233 84q37 0 66 -4l-50 -176q-36 10 -76 10t-67 -16q86 -92 86 -242t-112 -248t-289 -98q-66 0 -119 17q-25 -41 -25 -77t47 -59t163 -34t262 -58q71 -23 118 -78t47 -141
q0 -139 -135 -229q-136 -90 -362 -90zM340 1235q0 195 307 231l58 -147q-150 -31 -150 -125q0 -52 41 -107h-209q-47 70 -47 148z" />
    <glyph glyph-name="Hcircumflex" unicode="&#x124;" horiz-adv-x="1464" 
d="M430 1425l205 301h196l207 -301h-192l-113 162l-110 -162h-193zM164 0v1350h246v-557h645v557h248v-1350h-248v584h-645v-584h-246z" />
    <glyph glyph-name="hcircumflex" unicode="&#x125;" horiz-adv-x="1112" 
d="M-55 1487l205 301h196l207 -301h-193l-112 162l-111 -162h-192zM127 0v1450h244v-588q156 131 305 131t237 -81t88 -271v-641h-243v565q0 103 -32 159t-132 56t-223 -102v-678h-244z" />
    <glyph glyph-name="Hbar" unicode="&#x126;" horiz-adv-x="1464" 
d="M410 793h645v184h-645v-184zM164 0v977h-135v188h135v185h246v-185h645v185h248v-185h133v-188h-133v-977h-248v584h-645v-584h-246z" />
    <glyph glyph-name="hbar" unicode="&#x127;" horiz-adv-x="1099" 
d="M113 0v1114h-117v186h117v150h243v-150h258v-186h-258v-252q160 131 308 131t236 -81q89 -81 89 -271v-641h-246v565q0 102 -31 159q-32 56 -132 56t-224 -102v-678h-243z" />
    <glyph glyph-name="Itilde" unicode="&#x128;" horiz-adv-x="573" 
d="M-35 1475v79q0 80 47 125t117 45t159 -45q90 -45 116 -45t34 18t8 60h160v-82q0 -80 -47 -124t-115 -44t-159 44q-90 44 -117 44t-35 -17t-8 -58h-160zM164 0v1350h246v-1350h-246z" />
    <glyph glyph-name="itilde" unicode="&#x129;" horiz-adv-x="487" 
d="M121 0v969h246v-969h-246zM-76 1120v80q0 80 47 125t117 45t159 -45t115 -45t35 17q8 17 9 61h159v-80q0 -80 -47 -125q-48 -45 -116 -45t-158 45t-117 45t-35 -17t-8 -61h-160z" />
    <glyph glyph-name="imacron" unicode="&#x12b;" horiz-adv-x="487" 
d="M121 0v969h246v-969h-246zM-47 1165v185h584v-185h-584z" />
    <glyph glyph-name="Ibreve" unicode="&#x12c;" horiz-adv-x="573" 
d="M283 1419q-129 0 -210 77t-89 210h170q6 -61 40 -98t91 -37t91 37t40 98h168q-8 -133 -90 -210t-211 -77zM164 0v1350h246v-1350h-246z" />
    <glyph glyph-name="Iogonek" unicode="&#x12e;" horiz-adv-x="573" 
d="M164 1350h246v-1350q-178 -92 -179 -219q0 -76 74 -76q31 0 74 12l27 -131q-80 -24 -170 -24t-148 49q-57 49 -57 139q0 141 133 256v1344z" />
    <glyph glyph-name="iogonek" unicode="&#x12f;" horiz-adv-x="487" 
d="M244 1126q-63 0 -107 42q-43 42 -43 104t43 104q43 43 108 43t107 -42t43 -103q0 -60 -44 -104t-107 -44zM262 -295q33 0 76 12l27 -131q-80 -24 -171 -24t-149 49q-57 49 -57 139q0 137 133 256v963h246v-969q-175 -94 -177 -219q0 -76 72 -76z" />
    <glyph glyph-name="Idotaccent" unicode="&#x130;" horiz-adv-x="573" 
d="M289 1444q-63 0 -108 43q-44 43 -44 103t44 104t109 43q64 0 106 -41q42 -42 42 -104t-43 -105t-106 -43zM164 0v1350h246v-1350h-246z" />
    <glyph glyph-name="dotlessi" unicode="&#x131;" horiz-adv-x="487" 
d="M121 0v969h246v-969h-246z" />
    <glyph glyph-name="IJ" unicode="&#x132;" horiz-adv-x="1247" 
d="M692 -172q84 0 115 51t31 148v1323h245v-1356q0 -170 -94 -272t-287 -101q-106 0 -192 33l49 199q49 -25 133 -25zM164 0v1350h246v-1350h-246z" />
    <glyph glyph-name="ij" unicode="&#x133;" horiz-adv-x="1003" 
d="M760 1126q-63 0 -107 42q-43 42 -43 104t43 104q43 43 108 43t107 -42t43 -103q0 -60 -44 -104t-107 -44zM637 -106v1075h246v-1112q0 -162 -89 -252t-245 -90q-107 -1 -187 34l46 201q48 -22 110 -22t90 39t29 127zM244 1126q-63 0 -107 42q-43 42 -43 104t43 104
q43 43 108 43t107 -42t43 -103q0 -60 -44 -104t-107 -44zM121 0v969h246v-969h-246z" />
    <glyph glyph-name="Jcircumflex" unicode="&#x134;" horiz-adv-x="673" 
d="M78 1425l205 301h196l207 -301h-192l-113 162l-111 -162h-192zM119 -172q85 0 115 51t30 148v1323h246v-1356q0 -170 -94 -272t-287 -101q-106 0 -192 33l49 199q49 -25 133 -25z" />
    <glyph glyph-name="jcircumflex" unicode="&#x135;" horiz-adv-x="516" 
d="M-45 1087l203 302h196l207 -302h-192l-113 162l-111 -162h-190zM29 -291q73 0 97 46t24 136v1078h245v-1100q0 -176 -93 -264t-211 -88t-216 43l45 174q70 -25 109 -25z" />
    <glyph glyph-name="Kcommaaccent" unicode="&#x136;" horiz-adv-x="1226" 
d="M741 -254q0 -194 -307 -231l-59 147q152 31 151 125q0 51 -41 107h209q47 -70 47 -148zM164 0v1350h246v-576h6l463 576h284l-542 -656l573 -694h-301l-477 592h-6v-592h-246z" />
    <glyph glyph-name="kcommaaccent" unicode="&#x137;" horiz-adv-x="1009" 
d="M645 -254q0 -194 -307 -231l-59 147q152 31 151 125q0 51 -41 107h209q47 -70 47 -148zM125 0v1450h244v-817h4l317 336h279l-398 -422l430 -547h-284l-344 449h-4v-449h-244z" />
    <glyph glyph-name="Lacute" unicode="&#x139;" horiz-adv-x="925" 
d="M176 1425l119 301h264l-197 -301h-186zM164 0v1350h246v-1141h479v-209h-725z" />
    <glyph glyph-name="lacute" unicode="&#x13a;" horiz-adv-x="583" 
d="M125 219v1231h244v-1165q0 -88 71 -88q31 0 62 12l47 -189q-82 -35 -180 -34q-244 0 -244 233zM131 1499l102 260h256l-170 -260h-188z" />
    <glyph glyph-name="Lcommaaccent" unicode="&#x13b;" horiz-adv-x="925" 
d="M655 -254q0 -194 -307 -231l-59 147q152 31 151 125q0 51 -41 107h209q47 -70 47 -148zM164 0v1350h246v-1141h479v-209h-725z" />
    <glyph glyph-name="lcommaaccent" unicode="&#x13c;" horiz-adv-x="583" 
d="M248 -213q0 51 -41 107h209q47 -70 47 -148q0 -194 -307 -231l-60 147q152 31 152 125zM115 219v1231h243v-1165q0 -88 72 -88q31 0 62 12l47 -189q-82 -35 -181 -34q-243 0 -243 233z" />
    <glyph glyph-name="Lcaron" unicode="&#x13d;" horiz-adv-x="925" 
d="M551 1051l74 401h241l-131 -401h-184zM164 0v1350h246v-1141h479v-209h-725z" />
    <glyph glyph-name="lcaron" unicode="&#x13e;" horiz-adv-x="583" 
d="M440 1051l74 401h242l-131 -401h-185zM125 219v1231h244v-1165q0 -88 71 -88q31 0 62 12l47 -189q-82 -35 -180 -34q-244 0 -244 233z" />
    <glyph glyph-name="Ldot" unicode="&#x13f;" horiz-adv-x="925" 
d="M879 721q-1 -59 -41 -100t-96 -41t-96 41t-40 100t40 99t96 40t96 -40t41 -99zM164 0v1350h246v-1141h479v-209h-725z" />
    <glyph glyph-name="ldot" unicode="&#x140;" horiz-adv-x="679" 
d="M723 705q0 -59 -40 -101t-96 -41q-56 0 -97 41q-40 40 -40 100t40 100t96 40t97 -40q40 -40 40 -99zM125 219v1231h244v-1165q0 -88 71 -88q31 0 62 12l47 -189q-82 -35 -180 -34q-244 0 -244 233z" />
    <glyph glyph-name="Lslash" unicode="&#x141;" horiz-adv-x="927" 
d="M164 1350h248v-529l282 170v-227l-282 -170v-385h479v-209h-727v449l-123 -72v227l123 74v672z" />
    <glyph glyph-name="lslash" unicode="&#x142;" horiz-adv-x="641" 
d="M180 1450h246v-539l141 80v-227l-141 -84v-395q0 -49 17 -67t51 -19q34 0 63 12l49 -191q-82 -35 -182 -34q-244 0 -244 233v316l-127 -76v229l127 78v684z" />
    <glyph glyph-name="Nacute" unicode="&#x143;" horiz-adv-x="1533" 
d="M653 1425l119 301h264l-196 -301h-187zM1370 0h-223l-586 770q-20 27 -151 205h-4q4 -53 4 -209v-766h-246v1350h244l565 -740q111 -150 149 -209h4q-4 143 -4 228v721h248v-1350z" />
    <glyph glyph-name="nacute" unicode="&#x144;" horiz-adv-x="1099" 
d="M403 1087l119 302h264l-196 -302h-187zM113 0v969h209l24 -109q170 133 318 133t236 -81q89 -81 89 -271v-641h-246v565q0 102 -31 159q-32 56 -132 56t-224 -102v-678h-243z" />
    <glyph glyph-name="Ncommaaccent" unicode="&#x145;" horiz-adv-x="1533" 
d="M709 -213q0 51 -41 107h209q47 -70 47 -148q-1 -194 -308 -231l-59 147q152 31 152 125zM1370 0h-223l-586 770q-20 27 -151 205h-4q4 -53 4 -209v-766h-246v1350h244l565 -740q111 -150 149 -209h4q-4 143 -4 228v721h248v-1350z" />
    <glyph glyph-name="ncommaaccent" unicode="&#x146;" horiz-adv-x="1099" 
d="M465 -213q0 51 -41 107h209q47 -70 47 -148q0 -194 -307 -231l-60 147q152 31 152 125zM113 0v969h209l24 -109q170 133 318 133t236 -81q89 -81 89 -271v-641h-246v565q0 102 -31 159q-32 56 -132 56t-224 -102v-678h-243z" />
    <glyph glyph-name="Ncaron" unicode="&#x147;" horiz-adv-x="1533" 
d="M674 1425l-207 301h195l112 -161l111 161h190l-205 -301h-196zM1370 0h-223l-586 770q-20 27 -151 205h-4q4 -53 4 -209v-766h-246v1350h244l565 -740q111 -150 149 -209h4q-4 143 -4 228v721h248v-1350z" />
    <glyph glyph-name="ncaron" unicode="&#x148;" horiz-adv-x="1099" 
d="M428 1087l-207 302h195l112 -160l111 160h190l-204 -302h-197zM113 0v969h209l24 -109q170 133 318 133t236 -81q89 -81 89 -271v-641h-246v565q0 102 -31 159q-32 56 -132 56t-224 -102v-678h-243z" />
    <glyph glyph-name="Eng" unicode="&#x14a;" horiz-adv-x="1544" 
d="M164 0v1350h244l575 -740q104 -135 152 -209h4q-4 72 -4 228v721h247v-1389q0 -174 -94 -272t-270 -99q-113 0 -201 35l51 199q51 -27 130 -27t108 49t29 144v41l-574 739q-20 27 -151 205h-4q4 -53 4 -209v-766h-246z" />
    <glyph glyph-name="eng" unicode="&#x14b;" horiz-adv-x="1099" 
d="M743 565q0 102 -31 159q-32 56 -132 56t-224 -102v-678h-243v969h209l24 -109q170 133 318 133t236 -81q89 -81 89 -271v-698q0 -162 -89 -252t-245 -90q-106 -1 -186 34l45 201q48 -22 110 -22t91 39t28 127v585z" />
    <glyph glyph-name="Omacron" unicode="&#x14c;" horiz-adv-x="1572" 
d="M500 1442v186h583v-186h-583zM785 186q189 0 305 129q114 129 114 353t-112 356q-112 131 -304 131t-306 -129t-114 -355t114 -356q114 -129 303 -129zM785 -20q-298 0 -488 190q-191 190 -191 498t190 502q190 192 489 192q301 0 491 -194t190 -500t-191 -497
q-192 -191 -490 -191z" />
    <glyph glyph-name="omacron" unicode="&#x14d;" 
d="M262 1165v185h584v-185h-584zM555 176q113 0 173 86t60 225t-60 225t-173 85q-113 0 -173 -85q-60 -84 -60 -224t60 -226t173 -86zM555 -20q-215 0 -349 143t-134 363t134 364t349 143q215 0 350 -143q135 -142 135 -362t-135 -364t-350 -144z" />
    <glyph glyph-name="Obreve" unicode="&#x14e;" horiz-adv-x="1572" 
d="M788 1419q-130 0 -210 77t-89 210h170q6 -61 40 -98q33 -37 91 -37t92 37t40 98h168q-8 -133 -90 -210t-212 -77zM785 186q189 0 305 129q114 129 114 353t-112 356q-112 131 -304 131t-306 -129t-114 -355t114 -356q114 -129 303 -129zM785 -20q-298 0 -488 190
q-191 190 -191 498t190 502q190 192 489 192q301 0 491 -194t190 -500t-191 -497q-192 -191 -490 -191z" />
    <glyph glyph-name="obreve" unicode="&#x14f;" 
d="M554 1108q-130 0 -211 76t-89 209h170q6 -61 40 -97t91 -36t91 36t40 97h168q-8 -133 -89 -209t-211 -76zM555 176q113 0 173 86t60 225t-60 225t-173 85q-113 0 -173 -85q-60 -84 -60 -224t60 -226t173 -86zM555 -20q-215 0 -349 143t-134 363t134 364t349 143
q215 0 350 -143q135 -142 135 -362t-135 -364t-350 -144z" />
    <glyph glyph-name="Ohungarumlaut" unicode="&#x150;" horiz-adv-x="1572" 
d="M883 1425l118 301h267l-199 -301h-186zM528 1425l119 301h266l-198 -301h-187zM785 186q189 0 305 129q114 129 114 353t-112 356q-112 131 -304 131t-306 -129t-114 -355t114 -356q114 -129 303 -129zM785 -20q-298 0 -488 190q-191 190 -191 498t190 502
q190 192 489 192q301 0 491 -194t190 -500t-191 -497q-192 -191 -490 -191z" />
    <glyph glyph-name="ohungarumlaut" unicode="&#x151;" 
d="M659 1087l119 302h266l-198 -302h-187zM305 1087l119 302h266l-198 -302h-187zM555 176q113 0 173 86t60 225t-60 225t-173 85q-113 0 -173 -85q-60 -84 -60 -224t60 -226t173 -86zM555 -20q-215 0 -349 143t-134 363t134 364t349 143q215 0 350 -143q135 -142 135 -362
t-135 -364t-350 -144z" />
    <glyph glyph-name="OE" unicode="&#x152;" horiz-adv-x="1875" 
d="M788 186q138 0 222 23v919q-94 27 -211 27q-170 0 -273 -98q-152 -129 -152 -397t171 -392q105 -82 243 -82zM1257 1141v-353h433v-208h-433v-371h500v-209h-506q-104 0 -255 -10t-203 -10q-260 0 -431 131q-250 182 -249 553q0 182 69 330q70 148 199 243
q172 125 426 125l461 -12h487l-67 -209h-431z" />
    <glyph glyph-name="oe" unicode="&#x153;" horiz-adv-x="1728" 
d="M1034 588h375q-2 92 -48 155t-135 63q-90 0 -140 -62q-50 -64 -52 -156zM554 174q112 0 172 86t60 226t-60 226t-172 87q-112 0 -172 -86q-60 -85 -60 -225t60 -227t172 -87zM562 -20q-224 0 -357 144t-133 363t132 363t339 143q242 0 358 -184h4q109 184 314 184
t321 -139t117 -379v-57h-621q4 -114 79 -180t200 -66t241 66l72 -168q-145 -90 -340 -90q-254 0 -381 186h-4q-117 -186 -341 -186z" />
    <glyph glyph-name="Racute" unicode="&#x154;" horiz-adv-x="1206" 
d="M414 1425l118 301h265l-197 -301h-186zM410 727h110q86 0 150 35q94 53 94 174t-90 174q-57 39 -152 39h-112v-422zM164 0v1350h368q174 0 289 -56q201 -94 201 -329q0 -131 -72 -221t-192 -128v-4q59 -33 168 -219l225 -393h-283l-194 342q-92 170 -148 184h-116v-526
h-246z" />
    <glyph glyph-name="racute" unicode="&#x155;" horiz-adv-x="745" 
d="M274 1087l119 302h264l-196 -302h-187zM113 0v969h206l27 -109q133 133 266 133q80 0 138 -39l-86 -206q-53 33 -111 32q-86 0 -197 -96v-684h-243z" />
    <glyph glyph-name="Rcommaaccent" unicode="&#x156;" horiz-adv-x="1206" 
d="M537 -213q0 51 -41 107h209q47 -70 47 -148q-1 -194 -308 -231l-59 147q152 31 152 125zM410 727h110q86 0 150 35q94 53 94 174t-90 174q-57 39 -152 39h-112v-422zM164 0v1350h368q174 0 289 -56q201 -94 201 -329q0 -131 -72 -221t-192 -128v-4q59 -33 168 -219
l225 -393h-283l-194 342q-92 170 -148 184h-116v-526h-246z" />
    <glyph glyph-name="rcommaaccent" unicode="&#x157;" horiz-adv-x="745" 
d="M98 -485l-59 147q152 31 151 125q0 51 -40 107h208q47 -70 48 -148q-1 -194 -308 -231zM113 0v969h206l27 -109q133 133 266 133q80 0 138 -39l-86 -206q-53 33 -111 32q-86 0 -197 -96v-684h-243z" />
    <glyph glyph-name="Rcaron" unicode="&#x158;" horiz-adv-x="1206" 
d="M438 1425l-207 301h195l113 -161l110 161h191l-205 -301h-197zM410 727h110q86 0 150 35q94 53 94 174t-90 174q-57 39 -152 39h-112v-422zM164 0v1350h368q174 0 289 -56q201 -94 201 -329q0 -131 -72 -221t-192 -128v-4q59 -33 168 -219l225 -393h-283l-194 342
q-92 170 -148 184h-116v-526h-246z" />
    <glyph glyph-name="rcaron" unicode="&#x159;" horiz-adv-x="745" 
d="M295 1087l-207 302h195l112 -160l111 160h190l-204 -302h-197zM115 0v969h207l26 -109q133 133 266 133q80 0 138 -39l-86 -206q-53 33 -111 32q-86 0 -197 -96v-684h-243z" />
    <glyph glyph-name="Sacute" unicode="&#x15a;" horiz-adv-x="1085" 
d="M442 1425l119 301h264l-196 -301h-187zM725 341q0 77 -60 132q-59 55 -145 96t-172 89t-146 132t-61 199q0 157 118 265t317 108t333 -68v-225q-166 86 -321 86q-80 0 -132 -35q-52 -34 -52 -106t60 -124t146 -92t171 -89t145 -137t61 -205q0 -175 -135 -281
q-136 -106 -362 -106t-392 116l97 189q141 -98 305 -99q94 0 160 39t65 116z" />
    <glyph glyph-name="sacute" unicode="&#x15b;" horiz-adv-x="860" 
d="M334 1087l119 302h264l-197 -302h-186zM383 172q170 0 170 102q0 45 -47 76q-47 32 -114 54q-68 22 -134 53t-113 92t-47 151q0 131 100 212t260 81q161 0 292 -47v-207q-144 61 -278 61t-134 -87q0 -41 47 -70t114 -53t133 -54q66 -32 114 -97q46 -65 47 -158
q0 -152 -112 -227q-112 -74 -298 -74t-340 94l76 178q125 -80 264 -80z" />
    <glyph glyph-name="Scircumflex" unicode="&#x15c;" horiz-adv-x="1085" 
d="M246 1425l205 301h196l207 -301h-192l-113 162l-111 -162h-192zM725 341q0 77 -60 132q-59 55 -145 96t-172 89t-146 132t-61 199q0 157 118 265t317 108t333 -68v-225q-166 86 -321 86q-80 0 -132 -35q-52 -34 -52 -106t60 -124t146 -92t171 -89t145 -137t61 -205
q0 -175 -135 -281q-136 -106 -362 -106t-392 116l97 189q141 -98 305 -99q94 0 160 39t65 116z" />
    <glyph glyph-name="scircumflex" unicode="&#x15d;" horiz-adv-x="860" 
d="M133 1087l205 302h197l206 -302h-192l-113 162l-110 -162h-193zM383 172q170 0 170 102q0 45 -47 76q-47 32 -114 54q-68 22 -134 53t-113 92t-47 151q0 131 100 212t260 81q161 0 292 -47v-207q-144 61 -278 61t-134 -87q0 -41 47 -70t114 -53t133 -54q66 -32 114 -97
q46 -65 47 -158q0 -152 -112 -227q-112 -74 -298 -74t-340 94l76 178q125 -80 264 -80z" />
    <glyph glyph-name="Scedilla" unicode="&#x15e;" horiz-adv-x="1077" 
d="M430 -315q100 0 100 65q0 41 -41 55t-124 15l51 164q-182 18 -318 112l97 189q141 -98 305 -99q94 0 160 39t65 116q0 77 -60 132q-59 55 -145 96t-172 89t-146 132t-61 199q0 157 118 265t317 108t333 -68v-225q-166 86 -321 86q-80 0 -132 -35q-52 -34 -52 -106
t60 -124t146 -92t171 -89t145 -137t61 -205q-1 -158 -109 -259t-284 -122l-27 -86q174 -14 174 -152q1 -82 -73 -132t-215 -50q-82 -1 -154 22l35 113q49 -16 96 -16z" />
    <glyph glyph-name="scedilla" unicode="&#x15f;" horiz-adv-x="860" 
d="M317 -315q100 0 101 65q0 54 -80 65q-31 3 -88 5l51 166q-145 16 -258 88l76 178q125 -80 264 -80q170 0 170 102q0 45 -47 76q-47 32 -114 54q-68 22 -134 53t-113 92t-47 151q0 131 100 212t260 81q161 0 292 -47v-207q-144 61 -278 61t-134 -87q0 -41 47 -70t114 -53
t133 -54q66 -32 114 -97q46 -65 47 -158q0 -133 -86 -207t-226 -88l-26 -86q172 -14 172 -152q0 -82 -73 -132t-214 -50q-86 -1 -154 22l35 113q49 -16 96 -16z" />
    <glyph glyph-name="Scaron" unicode="&#x160;" horiz-adv-x="1085" 
d="M440 1425l-207 301h195l113 -161l110 161h191l-205 -301h-197zM725 341q0 77 -60 132q-59 55 -145 96t-172 89t-146 132t-61 199q0 157 118 265t317 108t333 -68v-225q-166 86 -321 86q-80 0 -132 -35q-52 -34 -52 -106t60 -124t146 -92t171 -89t145 -137t61 -205
q0 -175 -135 -281q-136 -106 -362 -106t-392 116l97 189q141 -98 305 -99q94 0 160 39t65 116z" />
    <glyph glyph-name="scaron" unicode="&#x161;" horiz-adv-x="860" 
d="M338 1087l-207 302h195l112 -160l111 160h190l-204 -302h-197zM383 172q170 0 170 102q0 45 -47 76q-47 32 -114 54q-68 22 -134 53t-113 92t-47 151q0 131 100 212t260 81q161 0 292 -47v-207q-144 61 -278 61t-134 -87q0 -41 47 -70t114 -53t133 -54q66 -32 114 -97
q46 -65 47 -158q0 -152 -112 -227q-112 -74 -298 -74t-340 94l76 178q125 -80 264 -80z" />
    <glyph glyph-name="Tcommaaccent" unicode="&#x162;" horiz-adv-x="1097" 
d="M698 -254q0 -194 -307 -231l-59 147q152 31 151 125q0 51 -41 107h209q47 -70 47 -148zM422 0v1141h-393v209h1067l-68 -209h-360v-1141h-246z" />
    <glyph glyph-name="tcommaaccent" unicode="&#x163;" horiz-adv-x="790" 
d="M338 -213q0 51 -41 107h209q47 -70 47 -148q0 -194 -307 -231l-60 147q152 31 152 125zM504 -20q-150 0 -224 70t-73 190v538h-174v191h174v225l244 72v-297h292l-59 -191h-233v-479q1 -67 23 -95t86 -28t132 47l74 -168q-112 -75 -262 -75z" />
    <glyph glyph-name="Tcaron" unicode="&#x164;" horiz-adv-x="1097" 
d="M451 1425l-207 301h194l113 -161l111 161h190l-205 -301h-196zM422 0v1141h-393v209h1067l-68 -209h-360v-1141h-246z" />
    <glyph glyph-name="tcaron" unicode="&#x165;" horiz-adv-x="790" 
d="M537 1051l73 401h242l-131 -401h-184zM504 -20q-150 0 -224 70t-73 190v538h-174v191h174v225l244 72v-297h292l-59 -191h-233v-479q1 -67 23 -95t86 -28t132 47l74 -168q-112 -75 -262 -75z" />
    <glyph glyph-name="Tbar" unicode="&#x166;" horiz-adv-x="1097" 
d="M422 0v532h-242v201h242v408h-393v209h1067l-68 -209h-360v-408h241v-201h-241v-532h-246z" />
    <glyph glyph-name="tbar" unicode="&#x167;" horiz-adv-x="790" 
d="M33 414v186h174v178h-174v191h174v225l244 72v-297h292l-59 -191h-233v-178h190v-186h-190v-115q1 -67 23 -95t84 -28t136 49l72 -166q-116 -79 -264 -79t-222 70t-73 190v174h-174z" />
    <glyph glyph-name="Utilde" unicode="&#x168;" horiz-adv-x="1425" 
d="M395 1475v79q0 80 47 125t117 45t159 -45q90 -45 116 -45t34 18t9 60h159v-82q0 -80 -47 -124t-115 -44t-159 44q-90 44 -117 44t-35 -17t-8 -58h-160zM712 -20q-384 0 -507 262q-51 102 -51 262v846h245v-830q0 -109 37 -182q74 -152 277 -152t276 152q37 74 37 184v828
h246v-846q0 -162 -51 -264q-125 -260 -509 -260z" />
    <glyph glyph-name="utilde" unicode="&#x169;" horiz-adv-x="1095" 
d="M225 1120v80q0 80 47 125t117 45t159 -45t116 -45q26 0 34 17t9 61h159v-80q0 -80 -47 -125t-115 -45t-159 45q-90 45 -117 45t-35 -17t-8 -61h-160zM356 397q0 -209 166 -209q121 0 199 86v695h246v-729q0 -180 16 -240h-209l-37 100q-135 -120 -301 -120q-86 0 -168 44
q-157 84 -155 349v596h243v-572z" />
    <glyph glyph-name="Umacron" unicode="&#x16a;" horiz-adv-x="1425" 
d="M426 1442v186h584v-186h-584zM712 -20q-384 0 -507 262q-51 102 -51 262v846h245v-830q0 -109 37 -182q74 -152 277 -152t276 152q37 74 37 184v828h246v-846q0 -162 -51 -264q-125 -260 -509 -260z" />
    <glyph glyph-name="umacron" unicode="&#x16b;" horiz-adv-x="1095" 
d="M254 1165v185h584v-185h-584zM356 397q0 -209 166 -209q121 0 199 86v695h246v-729q0 -180 16 -240h-209l-37 100q-135 -120 -301 -120q-86 0 -168 44q-157 84 -155 349v596h243v-572z" />
    <glyph glyph-name="Ubreve" unicode="&#x16c;" horiz-adv-x="1425" 
d="M715 1419q-129 0 -210 77t-89 210h170q6 -61 40 -98t91 -37t91 37t40 98h168q-8 -133 -90 -210t-211 -77zM712 -20q-384 0 -507 262q-51 102 -51 262v846h245v-830q0 -109 37 -182q74 -152 277 -152t276 152q37 74 37 184v828h246v-846q0 -162 -51 -264
q-125 -260 -509 -260z" />
    <glyph glyph-name="ubreve" unicode="&#x16d;" horiz-adv-x="1095" 
d="M544 1108q-130 0 -211 76t-89 209h170q6 -61 40 -97t91 -36t91 36t40 97h168q-8 -133 -89 -209t-211 -76zM356 397q0 -209 166 -209q121 0 199 86v695h246v-729q0 -180 16 -240h-209l-37 100q-135 -120 -301 -120q-86 0 -168 44q-157 84 -155 349v596h243v-572z" />
    <glyph glyph-name="Uring" unicode="&#x16e;" horiz-adv-x="1425" 
d="M719 1444q37 0 61 24t23 68q0 43 -24 69q-23 25 -61 25t-61 -24t-22 -70q0 -92 84 -92zM719 1337q-106 1 -173 55t-67 145t67 145t173 54t173 -54q66 -54 66 -145t-66 -145t-173 -55zM712 -20q-384 0 -507 262q-51 102 -51 262v846h245v-830q0 -109 37 -182
q74 -152 277 -152t276 152q37 74 37 184v828h246v-846q0 -162 -51 -264q-125 -260 -509 -260z" />
    <glyph glyph-name="uring" unicode="&#x16f;" horiz-adv-x="1095" 
d="M546 1176q38 0 62 26t23 68q0 42 -24 68q-23 26 -61 26t-61 -25t-23 -69t23 -70q23 -24 61 -24zM547 1071q-106 0 -173 53q-67 54 -67 146t67 145t173 53t173 -53q66 -53 66 -145t-66 -146q-67 -53 -173 -53zM356 397q0 -209 166 -209q121 0 199 86v695h246v-729
q0 -180 16 -240h-209l-37 100q-135 -120 -301 -120q-86 0 -168 44q-157 84 -155 349v596h243v-572z" />
    <glyph glyph-name="Uhungarumlaut" unicode="&#x170;" horiz-adv-x="1425" 
d="M786 1425l119 301h266l-198 -301h-187zM432 1425l119 301h266l-199 -301h-186zM712 -20q-384 0 -507 262q-51 102 -51 262v846h245v-830q0 -109 37 -182q74 -152 277 -152t276 152q37 74 37 184v828h246v-846q0 -162 -51 -264q-125 -260 -509 -260z" />
    <glyph glyph-name="uhungarumlaut" unicode="&#x171;" horiz-adv-x="1095" 
d="M618 1087l119 302h267l-199 -302h-187zM264 1087l119 302h266l-198 -302h-187zM356 397q0 -209 166 -209q121 0 199 86v695h246v-729q0 -180 16 -240h-209l-37 100q-135 -120 -301 -120q-86 0 -168 44q-157 84 -155 349v596h243v-572z" />
    <glyph glyph-name="Uogonek" unicode="&#x172;" horiz-adv-x="1425" 
d="M561 -264q0 129 150 239v5q-385 0 -506 262q-51 102 -51 262v846h245v-830q0 -109 37 -182q74 -152 277 -152t276 152q37 74 37 184v828h246v-846q0 -162 -51 -264q-61 -137 -220 -211q-93 -43 -165 -114t-72 -141t70 -69q32 0 75 12l27 -131q-84 -24 -173 -24t-146 47
q-56 47 -56 127z" />
    <glyph glyph-name="uogonek" unicode="&#x173;" horiz-adv-x="1095" 
d="M356 397q0 -209 166 -209q121 0 199 86v695h246v-703q0 -209 16 -268q-205 -97 -205 -226q0 -67 72 -67q33 0 76 12l26 -131q-214 -62 -318 23q-56 47 -56 127q-1 143 194 272l-35 92q-135 -121 -301 -120q-86 0 -168 44q-157 84 -155 349v596h243v-572z" />
    <glyph glyph-name="Wcircumflex" unicode="&#x174;" horiz-adv-x="1933" 
d="M672 1425l205 301h196l207 -301h-193l-112 162l-111 -162h-192zM492 -8l-478 1358h279l248 -777q20 -61 65 -227h4q27 94 70 225l182 543l-84 236h250l260 -764q55 -156 76 -238h6q45 180 62 234l233 768h254l-455 -1358h-209l-202 571q-55 156 -74 225h-6
q-29 -104 -72 -223l-205 -573h-204z" />
    <glyph glyph-name="wcircumflex" unicode="&#x175;" horiz-adv-x="1531" 
d="M467 1087l205 302h196l207 -302h-192l-113 162l-111 -162h-192zM365 -6l-351 975h248l205 -658h4l205 658h190l213 -658h4l201 658h242l-359 -975h-180l-213 657h-4l-217 -657h-188z" />
    <glyph glyph-name="Ycircumflex" unicode="&#x176;" horiz-adv-x="1200" 
d="M299 1425l205 301h196l207 -301h-192l-113 162l-110 -162h-193zM475 0v535l-461 815h271l315 -596h4l314 596h266l-461 -818v-532h-248z" />
    <glyph glyph-name="ycircumflex" unicode="&#x177;" horiz-adv-x="1060" 
d="M244 1087l205 302h196l207 -302h-193l-112 162l-111 -162h-192zM174 -485q-96 0 -199 45l62 192q71 -39 151 -39t145 67t120 226l-437 963h260l287 -684h4l232 684h252l-371 -1000q-55 -145 -114 -240q-96 -159 -242 -199q-54 -15 -150 -15z" />
    <glyph glyph-name="Ydieresis" unicode="&#x178;" horiz-adv-x="1200" 
d="M798 1436q-52 0 -88 36t-36 88q0 54 37 91t88 37t88 -38t37 -89t-37 -88t-89 -37zM409 1436q-52 0 -90 37q-37 37 -36 88q0 51 36 89q37 38 89 38t89 -37q38 -37 38 -89t-37 -89t-89 -37zM475 0v535l-461 815h271l315 -596h4l314 596h266l-461 -818v-532h-248z" />
    <glyph glyph-name="Zacute" unicode="&#x179;" horiz-adv-x="1167" 
d="M485 1425l119 301h264l-196 -301h-187zM1120 209v-209h-1067l670 1141h-576l-63 209h1030l-657 -1141h663z" />
    <glyph glyph-name="zacute" unicode="&#x17a;" horiz-adv-x="849" 
d="M322 1087l118 302h265l-197 -302h-186zM827 190v-190h-796l448 778h-370l-50 191h777l-445 -779h436z" />
    <glyph glyph-name="Zdotaccent" unicode="&#x17b;" horiz-adv-x="1167" 
d="M608 1444q-63 0 -107 43t-44 103t44 104q45 44 109 43q64 0 106 -41q42 -42 42 -104t-44 -105t-106 -43zM1120 209v-209h-1067l670 1141h-576l-63 209h1030l-657 -1141h663z" />
    <glyph glyph-name="zdotaccent" unicode="&#x17c;" horiz-adv-x="849" 
d="M446 1126q-63 0 -107 42t-44 104t44 104q44 43 107 43q62 0 106 -42t44 -104t-43 -105q-44 -42 -107 -42zM827 190v-190h-796l448 778h-370l-50 191h777l-445 -779h436z" />
    <glyph glyph-name="Zcaron" unicode="&#x17d;" horiz-adv-x="1167" 
d="M504 1425l-207 301h195l112 -161l111 161h190l-205 -301h-196zM1120 209v-209h-1067l670 1141h-576l-63 209h1030l-657 -1141h663z" />
    <glyph glyph-name="zcaron" unicode="&#x17e;" horiz-adv-x="849" 
d="M348 1087l-207 302h195l113 -160l110 160h191l-205 -302h-197zM827 190v-190h-796l448 778h-370l-50 191h777l-445 -779h436z" />
    <glyph glyph-name="florin" unicode="&#x192;" horiz-adv-x="1116" 
d="M164 -131q161 0 174 199l49 544h-199v193h218l18 219q14 186 94 285q102 141 313 141q145 0 267 -61l-92 -197q-74 41 -158 41q-156 0 -174 -201l-21 -227h258l-57 -193h-219l-47 -534q-38 -426 -406 -426q-145 0 -266 61l92 197q72 -41 156 -41z" />
    <glyph glyph-name="Aringacute" unicode="&#x1fa;" horiz-adv-x="1294" 
d="M636 1430q38 0 60 24t23 70q0 92 -84 92q-37 0 -61 -25t-24 -67t24 -69q24 -25 62 -25zM471 539h334l-94 270q-49 135 -68 211h-4q-16 -63 -70 -213zM395 1530q0 74 50 125t137 63l92 234h266l-174 -258q109 -55 108 -170q0 -137 -133 -183l537 -1341h-266l-131 338h-482
l-127 -338h-256l516 1337q-63 19 -100 69t-37 124z" />
    <glyph glyph-name="aringacute" unicode="&#x1fb;" horiz-adv-x="1007" 
d="M476 172q83 0 171 72v207l-131 -5q-92 -2 -146 -32t-55 -109q0 -133 161 -133zM398 -20q-148 0 -239 86t-91 223q0 180 163 264q94 49 250 55l166 6v31q0 162 -186 162q-127 0 -254 -68l-80 158q174 96 375 96q389 0 389 -352v-401q0 -174 18 -240h-204l-37 92
q-122 -112 -270 -112zM505 1161q37 0 61 26q24 27 24 69t-24 68t-62 26t-60 -25t-22 -70t22 -69t61 -25zM506 1057q-106 0 -173 53t-67 137t47 135t127 66l107 276h266l-192 -290q123 -49 122 -179q1 -92 -65 -145t-172 -53z" />
    <glyph glyph-name="AEacute" unicode="&#x1fc;" horiz-adv-x="1720" 
d="M901 1425l119 301h264l-197 -301h-186zM567 539h303l-47 315q-14 90 -22 158h-2q-10 -25 -80 -170zM1534 788v-208h-424l64 -371h428v-209h-641l-58 338h-446l-183 -338h-260l729 1350h856l-67 -209h-518l61 -353h459z" />
    <glyph glyph-name="aeacute" unicode="&#x1fd;" horiz-adv-x="1591" 
d="M702 1087l119 302h264l-196 -302h-187zM903 596h369q-4 88 -49 149t-132 61t-135 -60t-53 -150zM461 172q135 0 233 107q-23 63 -26 147h-172q-180 0 -181 -125q0 -61 40 -95t106 -34zM662 645q0 162 -218 162q-112 0 -237 -70l-80 160q174 96 383 96t289 -145h4
q109 145 303 145t304 -136t110 -382v-49h-615q2 -118 74 -186t198 -68t242 66l72 -168q-145 -90 -340 -90q-250 0 -379 159q-141 -159 -364 -159q-152 0 -246 84t-94 234t116 224t295 74h183v49z" />
    <glyph glyph-name="Oslashacute" unicode="&#x1fe;" horiz-adv-x="1587" 
d="M690 1425l119 301h264l-196 -301h-187zM793 1157q-187 0 -305 -130t-117 -357q0 -162 63 -277l578 701q-96 63 -219 63zM793 184q190 0 307 130t117 356q0 169 -72 288l-580 -706q94 -68 228 -68zM113 682q0 294 190 488q190 192 490 192q199 0 352 -96l121 149l151 -115
l-121 -149q178 -190 178 -489q0 -298 -190 -490q-192 -192 -491 -192q-207 0 -365 98l-117 -146l-153 115l121 148q-166 193 -166 487z" />
    <glyph glyph-name="oslashacute" unicode="&#x1ff;" 
d="M555 801q-113 0 -176 -88q-63 -89 -63 -205t30 -184l338 434q-55 43 -129 43zM555 172q113 0 176 88t63 202t-28 189l-340 -436q53 -43 129 -43zM72 490q0 216 134 360t349 143q139 0 254 -71l76 98l104 -80l-78 -98q129 -146 129 -360t-135 -358t-350 -144
q-141 0 -256 71l-82 -106l-102 80l84 106q-127 143 -127 359zM438 1087l119 302h264l-196 -302h-187z" />
    <glyph glyph-name="Scommaaccent" unicode="&#x218;" horiz-adv-x="1085" 
d="M455 -213q0 51 -41 107h209q47 -70 47 -148q-1 -194 -308 -231l-59 147q152 31 152 125zM725 341q0 77 -60 132q-59 55 -145 96t-172 89t-146 132t-61 199q0 157 118 265t317 108t333 -68v-225q-166 86 -321 86q-80 0 -132 -35q-52 -34 -52 -106t60 -124t146 -92t171 -89
t145 -137t61 -205q0 -175 -135 -281q-136 -106 -362 -106t-392 116l97 189q141 -98 305 -99q94 0 160 39t65 116z" />
    <glyph glyph-name="scommaaccent" unicode="&#x219;" horiz-adv-x="860" 
d="M571 -254q0 -194 -307 -231l-59 147q152 31 151 125q0 51 -41 107h209q47 -70 47 -148zM383 172q170 0 170 102q0 45 -47 76q-47 32 -114 54q-68 22 -134 53t-113 92t-47 151q0 131 100 212t260 81q161 0 292 -47v-207q-144 61 -278 61t-134 -87q0 -41 47 -70t114 -53
t133 -54q66 -32 114 -97q46 -65 47 -158q0 -152 -112 -227q-112 -74 -298 -74t-340 94l76 178q125 -80 264 -80z" />
    <glyph glyph-name="circumflex" unicode="&#x2c6;" horiz-adv-x="786" 
d="M88 1087l205 302h196l207 -302h-192l-113 162l-110 -162h-193z" />
    <glyph glyph-name="caron" unicode="&#x2c7;" horiz-adv-x="786" 
d="M295 1087l-207 302h195l112 -160l111 160h190l-204 -302h-197z" />
    <glyph glyph-name="breve" unicode="&#x2d8;" horiz-adv-x="786" 
d="M392 1108q-130 0 -211 76t-89 209h170q6 -61 40 -97t91 -36t91 36t40 97h168q-8 -133 -89 -209t-211 -76z" />
    <glyph glyph-name="dotaccent" unicode="&#x2d9;" horiz-adv-x="786" 
d="M393 1126q-63 0 -107 42t-44 104t44 104q44 43 107 43t107 -42t43 -104q0 -62 -43 -105q-44 -42 -107 -42z" />
    <glyph glyph-name="ring" unicode="&#x2da;" horiz-adv-x="786" 
d="M392 1364q-38 0 -60 -25t-23 -69q1 -44 23 -70q22 -24 60 -24t62 26t23 68q1 42 -23 68t-62 26zM393 1071q-106 0 -173 53q-66 54 -66 146t66 145q67 53 173 53t173 -53t67 -145t-67 -146t-173 -53z" />
    <glyph glyph-name="ogonek" unicode="&#x2db;" horiz-adv-x="786" 
d="M391 -223q0 -72 70 -72q33 0 76 12l26 -131q-84 -24 -173 -24t-145 47t-57 127q0 150 220 291l190 -27q-207 -100 -207 -223z" />
    <glyph glyph-name="tilde" unicode="&#x2dc;" horiz-adv-x="786" 
d="M72 1120v80q0 80 47 125t117 45t158 -45t116 -45q27 0 35 17t8 61h160v-80q0 -80 -47 -125q-48 -45 -116 -45t-158 45t-118 45q-26 0 -34 -17t-9 -61h-159z" />
    <glyph glyph-name="hungarumlaut" unicode="&#x2dd;" horiz-adv-x="786" 
d="M502 1087l119 302h266l-199 -302h-186zM147 1087l119 302h266l-198 -302h-187z" />
    <glyph glyph-name="uni0315" unicode="&#x315;" horiz-adv-x="786" 
d="M244 1051l73 401h242l-131 -401h-184z" />
    <glyph glyph-name="uni0326" unicode="&#x326;" horiz-adv-x="786" 
d="M575 -254q0 -194 -307 -231l-59 147q152 31 151 125q0 51 -41 107h209q47 -70 47 -148z" />
    <glyph glyph-name="Alphatonos" unicode="&#x386;" horiz-adv-x="1298" 
d="M473 539h334l-94 268q-16 51 -68 209h-4q-14 -53 -70 -211zM18 0l525 1356h194l543 -1356h-266l-131 338h-482l-127 -338h-256zM29 969l75 381h242l-125 -381h-192z" />
    <glyph glyph-name="Epsilontonos" unicode="&#x388;" horiz-adv-x="1302" 
d="M434 0v1350h748l-68 -209h-432v-353h432v-208h-432v-371h502v-209h-750zM2 969l78 381h239l-122 -381h-195z" />
    <glyph glyph-name="Etatonos" unicode="&#x389;" horiz-adv-x="1712" 
d="M408 0v1350h247v-557h645v557h246v-1350h-246v584h-645v-584h-247zM2 969l78 381h239l-122 -381h-195z" />
    <glyph glyph-name="Iotatonos" unicode="&#x38a;" horiz-adv-x="847" 
d="M2 969l78 381h239l-122 -381h-195zM434 0v1350h248v-1350h-248z" />
    <glyph glyph-name="Omicrontonos" unicode="&#x38c;" horiz-adv-x="1751" 
d="M549 671q0 -225 114 -355t303 -130t303 129q113 129 113 353t-112 356q-113 131 -303 131t-304 -129t-114 -355zM965 -20q-299 0 -490 190q-190 190 -190 498t190 502q191 192 491 192t490 -194t190 -500t-190 -496q-192 -192 -491 -192zM2 969l78 381h239l-122 -381
h-195z" />
    <glyph glyph-name="Upsilontonos" unicode="&#x38e;" horiz-adv-x="1613" 
d="M864 0v365q0 190 -119 421t-366 564h274q262 -340 332 -605h6q51 248 332 605h270q-123 -166 -191 -268q-204 -302 -256 -488q-34 -119 -34 -238v-356h-248zM2 969l78 381h239l-122 -381h-195z" />
    <glyph glyph-name="Omegatonos" unicode="&#x38f;" horiz-adv-x="1726" 
d="M291 0v209h96q84 0 178 -23l2 7q-123 94 -196 230q-74 136 -74 298q0 265 176 453t485 188q310 0 486 -187t176 -454q0 -162 -73 -298t-195 -230v-7q94 23 180 23h94v-209h-553v166q145 115 215 244q70 128 70 312t-106 308t-294 125q-186 0 -291 -125t-105 -307t69 -312
q70 -130 213 -245v-166h-553zM2 969l78 381h239l-122 -381h-195z" />
    <glyph glyph-name="iotadieresistonos" unicode="&#x390;" horiz-adv-x="589" 
d="M525 1122q-48 0 -80 33t-31 82q0 49 31 82q32 33 80 33t81 -33t33 -82t-33 -82t-81 -33zM168 1087l90 343h182l-139 -343h-133zM50 1122q-48 0 -80 33t-31 82q0 49 31 82q32 33 80 33t81 -33t33 -82t-33 -82t-81 -33zM373 -14q-258 0 -258 247v736h245v-688q0 -84 82 -84
q35 0 68 14l49 -193q-75 -32 -186 -32z" />
    <glyph glyph-name="Alpha" unicode="&#x391;" horiz-adv-x="1298" 
d="M473 539h334l-94 268q-43 121 -68 209h-4q-14 -53 -70 -211zM18 0l523 1356h196l543 -1356h-266l-131 338h-482l-127 -338h-256z" />
    <glyph glyph-name="Beta" unicode="&#x392;" horiz-adv-x="1165" 
d="M412 786h116q100 0 154 50t55 130q0 81 -53 131t-158 50h-114v-361zM412 203h157q252 0 252 196q0 85 -60 135t-165 50h-184v-381zM166 0v1350h395q205 0 313 -100t107 -242q0 -90 -43 -165t-121 -114v-4q117 -29 185 -118t69 -208q0 -167 -125 -283t-348 -116h-432z" />
    <glyph glyph-name="Gamma" unicode="&#x393;" horiz-adv-x="937" 
d="M166 0v1350h766l-68 -209h-450v-1141h-248z" />
    <glyph glyph-name="Epsilon" unicode="&#x395;" horiz-adv-x="1034" 
d="M166 0v1350h745l-67 -209h-432v-353h432v-208h-432v-371h501v-209h-747z" />
    <glyph glyph-name="Zeta" unicode="&#x396;" horiz-adv-x="1169" 
d="M1122 209v-209h-1067l670 1141h-575l-64 209h1030l-657 -1141h663z" />
    <glyph glyph-name="Eta" unicode="&#x397;" horiz-adv-x="1470" 
d="M166 0v1350h246v-557h645v557h248v-1350h-248v584h-645v-584h-246z" />
    <glyph glyph-name="Theta" unicode="&#x398;" horiz-adv-x="1568" 
d="M1071 780v-198h-584v198h584zM362 671q0 -225 117 -355t306 -130t307 129q116 129 116 353t-115 356q-117 131 -307 131t-307 -129t-117 -355zM784 -20q-299 0 -489 190q-191 190 -191 498t190 502q190 192 491 192q299 0 489 -194t190 -500t-190 -497
q-191 -191 -490 -191z" />
    <glyph glyph-name="Iota" unicode="&#x399;" horiz-adv-x="577" 
d="M166 0v1350h246v-1350h-246z" />
    <glyph glyph-name="Kappa" unicode="&#x39a;" horiz-adv-x="1226" 
d="M166 0v1350h246v-576h6l463 576h284l-542 -656l573 -694h-301l-477 592h-6v-592h-246z" />
    <glyph glyph-name="Lambda" unicode="&#x39b;" horiz-adv-x="1306" 
d="M18 0l529 1356h201l538 -1356h-268l-295 801q-8 25 -70 215h-4q-14 -61 -67 -211l-299 -805h-265z" />
    <glyph glyph-name="Mu" unicode="&#x39c;" horiz-adv-x="1685" 
d="M166 0v1350h223l354 -510q84 -123 113 -174h4q53 94 111 182l323 502h226v-1350h-248v762q0 125 4 178h-4q-23 -45 -92 -152l-267 -413h-112l-295 424q-76 111 -92 139h-4q2 -53 2 -170v-768h-246z" />
    <glyph glyph-name="Nu" unicode="&#x39d;" horiz-adv-x="1538" 
d="M1372 0h-223l-586 770q-20 27 -151 205h-4q4 -53 4 -209v-766h-246v1350h244l565 -740q111 -150 149 -209h4q-4 143 -4 228v721h248v-1350z" />
    <glyph glyph-name="Xi" unicode="&#x39e;" horiz-adv-x="1134" 
d="M104 1141v209h949l-70 -209h-879zM215 584v209h698v-209h-698zM78 0v209h977v-209h-977z" />
    <glyph glyph-name="Omicron" unicode="&#x39f;" horiz-adv-x="1568" 
d="M787 186q189 0 305 129q114 129 114 353t-112 356q-112 131 -304 131t-306 -129t-114 -355t114 -356q114 -129 303 -129zM787 -20q-298 0 -488 190t-190 498t189 502q189 192 489 192q301 0 491 -194t190 -500t-191 -497q-192 -191 -490 -191z" />
    <glyph glyph-name="Pi" unicode="&#x3a0;" horiz-adv-x="1411" 
d="M166 0v1350h1079v-1350h-248v1141h-583v-1141h-248z" />
    <glyph glyph-name="Rho" unicode="&#x3a1;" horiz-adv-x="1112" 
d="M485 666q271 0 271 241q0 143 -107 207q-59 35 -168 35h-69v-483h73zM166 0v1350h326q186 0 303 -58q219 -109 219 -385q0 -129 -62 -234t-196 -161q-121 -47 -287 -47h-57v-465h-246z" />
    <glyph glyph-name="Sigma" unicode="&#x3a3;" horiz-adv-x="1118" 
d="M1012 209v-209h-975l414 709l-396 641h987l-67 -209h-514l254 -426l-287 -506h584z" />
    <glyph glyph-name="Tau" unicode="&#x3a4;" horiz-adv-x="1103" 
d="M424 0v1141h-393v209h1067l-68 -209h-360v-1141h-246z" />
    <glyph glyph-name="Upsilon" unicode="&#x3a5;" horiz-adv-x="1257" 
d="M508 0v365q0 190 -119 422t-369 563h277q260 -344 332 -605h6q47 248 330 605h272q-248 -332 -366 -552t-117 -442v-356h-246z" />
    <glyph glyph-name="Phi" unicode="&#x3a6;" horiz-adv-x="1626" 
d="M1268 670q0 160 -87 259t-245 122v-756q164 19 248 117t84 258zM358 670q0 -160 84 -258t248 -117v756q-158 -23 -245 -122t-87 -259zM690 -41v123q-272 30 -429 184t-157 403t159 407t427 186v118h246v-118q268 -29 427 -187q159 -159 159 -407t-157 -403t-429 -183
v-123h-246z" />
    <glyph glyph-name="Chi" unicode="&#x3a7;" horiz-adv-x="1292" 
d="M25 0l483 678l-445 672h279l320 -486l342 486h270l-473 -666l452 -684h-274l-332 498l-352 -498h-270z" />
    <glyph glyph-name="Psi" unicode="&#x3a8;" horiz-adv-x="1591" 
d="M672 0v418q-276 23 -398 189q-121 167 -120 505q0 135 10 238h242q-8 -156 -9 -224q-1 -238 63 -358t212 -127v709h248v-709q147 6 210 126t64 359q0 119 -8 224h244q10 -137 10 -238q0 -338 -122 -505t-398 -189v-418h-248z" />
    <glyph glyph-name="uni03A9" unicode="&#x3a9;" horiz-adv-x="1536" 
d="M883 0v166q143 115 213 245q70 131 70 313t-106 306t-292 125q-186 0 -292 -125t-107 -308t69 -312t215 -244v-166h-553v209h95q86 0 180 -23v7q-123 94 -196 230t-73 298q0 265 176 453t486 188q309 0 485 -187t177 -454q0 -162 -74 -298t-197 -230l2 -7q94 23 178 23
h97v-209h-553z" />
    <glyph glyph-name="Iotadieresis" unicode="&#x3aa;" horiz-adv-x="577" 
d="M482 1436q-52 0 -88 36t-36 88q0 54 37 91t88 37t88 -38t37 -89t-37 -88t-89 -37zM93 1436q-52 0 -89 37t-37 88t37 89t88 38t89 -37t38 -89t-37 -89t-89 -37zM166 0v1350h246v-1350h-246z" />
    <glyph glyph-name="Upsilondieresis" unicode="&#x3ab;" horiz-adv-x="1257" 
d="M826 1436q-52 0 -88 36t-36 88q0 54 37 91t88 37t88 -38t37 -89t-37 -88t-89 -37zM437 1436q-52 0 -89 37t-37 88t37 89t88 38t89 -37t38 -89t-37 -89t-89 -37zM508 0v365q0 190 -119 422t-369 563h277q260 -344 332 -605h6q47 248 330 605h272q-248 -332 -366 -552
t-117 -442v-356h-246z" />
    <glyph glyph-name="alphatonos" unicode="&#x3ac;" horiz-adv-x="1216" 
d="M872 1430l-237 -343h-193l148 343h282zM485 180q156 0 222 316q-84 297 -215 297q-76 0 -125 -84q-49 -85 -49 -221t46 -222q47 -86 121 -86zM459 -20q-170 0 -278 138q-107 138 -107 364t106 368t277 143q242 0 336 -276h4q33 133 94 268l201 -88q-119 -233 -187 -416
q23 -92 45 -147q49 -129 131 -129q33 0 54 10l51 -203q-55 -23 -127 -22q-127 0 -199 114q-35 55 -63 162h-4q-37 -118 -124 -202t-210 -84z" />
    <glyph glyph-name="epsilontonos" unicode="&#x3ad;" horiz-adv-x="960" 
d="M527 -20q-215 0 -331 89t-116 220q0 168 170 215v4q-150 53 -150 205q0 123 109 201t296 79q187 0 337 -57v-197q-154 68 -318 68q-86 0 -135 -30t-49 -81t52 -83q52 -31 136 -31t187 4v-176q-45 6 -158 6q-238 0 -238 -121q0 -129 226 -129q154 0 313 80l74 -160
q-191 -106 -405 -106zM827 1430l-237 -343h-193l148 343h282z" />
    <glyph glyph-name="etatonos" unicode="&#x3ae;" horiz-adv-x="1222" 
d="M979 1430l-238 -343h-192l147 343h283zM219 0v674q0 102 -67 102q-29 0 -58 -12l-49 197q80 33 160 32q174 0 219 -149h4q182 150 358 149q132 0 220 -81t88 -271v-1126h-244v1050q0 103 -32 159t-132 56t-223 -102v-678h-244z" />
    <glyph glyph-name="iotatonos" unicode="&#x3af;" horiz-adv-x="589" 
d="M561 1430l-237 -343h-193l148 343h282zM373 -14q-258 0 -258 247v736h245v-688q0 -84 82 -84q35 0 68 14l49 -193q-75 -32 -186 -32z" />
    <glyph glyph-name="upsilondieresistonos" unicode="&#x3b0;" horiz-adv-x="1191" 
d="M804 1122q-48 0 -80 33t-32 82t32 82t80 33t81 -33t33 -82t-33 -82t-81 -33zM446 1087l91 343h182l-139 -343h-134zM329 1122q-48 0 -80 33t-32 82t32 82t80 33t81 -33q32 -33 32 -82t-32 -82t-81 -33zM608 176q117 0 176 95t60 264q0 94 -35 216t-102 218h251
q136 -199 136 -445t-127 -396t-353 -148q-226 0 -342 116q-117 116 -116 328l14 260q0 90 -61 90q-18 0 -43 -10l-50 197q84 33 172 32q227 0 228 -262l-17 -262q0 -293 209 -293z" />
    <glyph glyph-name="alpha" unicode="&#x3b1;" horiz-adv-x="1216" 
d="M485 180q156 0 222 316q-84 297 -215 297q-76 0 -125 -84q-49 -85 -49 -221t46 -222q47 -86 121 -86zM459 -20q-170 0 -278 138q-107 138 -107 364t106 368t277 143q242 0 336 -276h4q33 133 94 268l201 -88q-119 -233 -187 -416q23 -92 45 -147q49 -129 131 -129
q33 0 54 10l51 -203q-55 -23 -127 -22q-127 0 -199 114q-35 55 -63 162h-4q-37 -118 -124 -202t-210 -84z" />
    <glyph glyph-name="beta" unicode="&#x3b2;" horiz-adv-x="1144" 
d="M582 180q110 0 174 62t63 164q0 104 -68 165q-69 61 -202 62q-31 0 -49 -2v196q12 -2 35 -2q106 -1 166 55q61 56 61 152t-52 156t-140 61q-88 0 -139 -61q-52 -61 -52 -170v-772q93 -66 203 -66zM135 -485v1501q0 218 120 326q121 108 321 108t317 -117t117 -274
q0 -121 -54 -203t-145 -115v-4q115 -27 185 -120t71 -218q0 -188 -126 -304t-325 -115q-135 0 -233 57h-4v-522h-244z" />
    <glyph glyph-name="gamma" unicode="&#x3b3;" horiz-adv-x="1165" 
d="M702 -485h-260q0 209 27 395q-17 519 -147 753q-72 128 -168 128q-31 0 -72 -13l-53 189q68 27 166 27t183 -61q209 -148 238 -640h7q88 406 354 700l168 -159q-160 -188 -271 -402t-172 -514v-403z" />
    <glyph glyph-name="delta" unicode="&#x3b4;" horiz-adv-x="1120" 
d="M553 176q109 0 177 72t67 182q1 110 -57 185t-162 151q-121 -41 -189 -127q-67 -86 -67 -203q0 -116 61 -188t170 -72zM242 1161q0 131 101 210t257 79q225 0 442 -96l-73 -191q-201 88 -341 88t-141 -92q-1 -47 57 -99t139 -108t163 -122t139 -166t57 -220
q0 -190 -133 -327t-353 -137t-351 129t-131 307t90 296t242 177v4q-80 66 -122 126t-42 142z" />
    <glyph glyph-name="epsilon" unicode="&#x3b5;" horiz-adv-x="962" 
d="M527 -20q-215 0 -331 89t-116 220q0 168 170 215v4q-150 53 -150 205q0 123 109 201t296 79q187 0 337 -57v-197q-154 68 -318 68q-86 0 -135 -30t-49 -81t52 -83q52 -31 136 -31t187 4v-176q-45 6 -158 6q-238 0 -238 -121q0 -129 226 -129q154 0 313 80l74 -160
q-191 -106 -405 -106z" />
    <glyph glyph-name="zeta" unicode="&#x3b6;" horiz-adv-x="954" 
d="M668 -82q0 26 -33 54t-84 46t-113 38q-139 43 -239 127q-51 44 -84 122t-33 180q0 246 144 450t388 331v6q-221 -61 -452 -72l-53 195q338 0 784 55l12 -139q-573 -340 -573 -787q0 -108 60 -174t148 -94t174 -56q87 -26 147 -81t61 -150q0 -147 -154 -360l-197 98
q4 6 21 30q16 24 22 35t23 40t24 54t7 52z" />
    <glyph glyph-name="eta" unicode="&#x3b7;" horiz-adv-x="1222" 
d="M219 0v674q0 102 -67 102q-29 0 -58 -12l-49 197q80 33 160 32q174 0 219 -149h4q182 150 358 149q132 0 220 -81t88 -271v-1126h-244v1050q0 103 -32 159t-132 56t-223 -102v-678h-244z" />
    <glyph glyph-name="theta" unicode="&#x3b8;" horiz-adv-x="1124" 
d="M562 1251q-114 1 -168 -105t-62 -323h459q-7 217 -61 323t-168 105zM560 178q118 0 172 111t61 344h-461q4 -231 57 -343t171 -112zM561 -20q-241 0 -361 187t-120 548q0 735 483 735q240 0 361 -187t120 -548q0 -735 -483 -735z" />
    <glyph glyph-name="iota" unicode="&#x3b9;" horiz-adv-x="589" 
d="M373 -14q-258 0 -258 247v736h245v-688q0 -84 82 -84q35 0 68 14l49 -193q-75 -32 -186 -32z" />
    <glyph glyph-name="kappa" unicode="&#x3ba;" horiz-adv-x="1146" 
d="M369 0h-244v969h244v-418h4q121 137 300 258t339 184l75 -213q-188 -63 -413 -231l422 -549h-283l-315 418q-59 -49 -129 -127v-291z" />
    <glyph glyph-name="lambda" unicode="&#x3bb;" horiz-adv-x="1060" 
d="M246 1249q-65 0 -135 -32l-64 186q104 47 213 47q166 0 254 -99t180 -358l359 -993h-256l-228 684h-4l-286 -684h-261l441 969q-59 170 -103 225t-110 55z" />
    <glyph glyph-name="uni03BC" unicode="&#x3bc;" horiz-adv-x="1189" 
d="M735 434v535h244v-633q0 -78 20 -106q19 -28 57 -28t66 13l47 -195q-75 -34 -161 -34t-143 48q-56 48 -70 134h-4q-82 -188 -259 -188q-109 0 -165 69h-5q8 -115 9 -264v-270h-244v1454h244v-586q0 -90 45 -142q45 -53 124 -53t137 62t58 184z" />
    <glyph glyph-name="nu" unicode="&#x3bd;" horiz-adv-x="1024" 
d="M950 713q0 -187 -104 -357t-316 -362h-174l-342 975h248l236 -709h4q197 197 196 442q0 129 -55 267h262q45 -125 45 -256z" />
    <glyph glyph-name="xi" unicode="&#x3be;" horiz-adv-x="962" 
d="M678 -117q0 61 -60 97t-147 60q-86 22 -172 52t-146 102q-61 70 -61 180t71 194t197 124v4q-190 53 -190 211q0 209 344 357v6q-219 -49 -362 -56l-54 197q489 0 803 39l14 -139q-494 -162 -493 -365q0 -152 258 -151q29 0 133 6v-195q-55 8 -167 8t-206 -51
q-96 -51 -96 -151q0 -68 60 -109t146 -65t173 -51q86 -28 146 -90t61 -158q0 -131 -144 -330l-194 100q86 113 86 174z" />
    <glyph glyph-name="omicron" unicode="&#x3bf;" horiz-adv-x="1116" 
d="M557 176q113 0 173 86t61 225q-1 139 -61 225t-173 85q-113 0 -173 -85q-60 -84 -60 -224t60 -226t173 -86zM557 -20q-215 0 -349 143t-134 363t134 364t349 143q215 0 350 -143q135 -142 135 -362t-135 -364t-350 -144z" />
    <glyph glyph-name="pi" unicode="&#x3c0;" horiz-adv-x="1312" 
d="M229 0v778h-182v191h1221l-58 -191h-182v-491q0 -84 68 -84q27 0 51 10l47 -197q-76 -31 -166 -30q-246 0 -246 243v549h-309v-778h-244z" />
    <glyph glyph-name="rho" unicode="&#x3c1;" horiz-adv-x="1128" 
d="M578 795q-207 0 -207 -287v-272q83 -58 195 -58t175 89t63 231t-64 220q-65 77 -162 77zM127 -485v993q0 236 118 360q117 124 333 125q216 0 348 -134t131 -363q0 -228 -132 -372t-343 -144q-117 0 -207 53h-4v-518h-244z" />
    <glyph glyph-name="sigmafinal" unicode="&#x3c2;" horiz-adv-x="915" 
d="M600 -104q0 100 -136 154q-149 62 -254 143q-58 45 -97 129t-39 196q0 217 134 346t345 129q172 0 278 -65v-207q-104 76 -241 76t-202 -74q-64 -74 -64 -179t53 -170t130 -100q77 -36 153 -70t130 -93t54 -150q0 -143 -148 -352l-192 102q96 131 96 185z" />
    <glyph glyph-name="sigma" unicode="&#x3c3;" horiz-adv-x="1196" 
d="M322 464q0 -136 53 -212t158 -76t160 80t55 230t-101 288h-33q-152 0 -222 -87t-70 -223zM991 442q0 -194 -126 -328t-335 -134q-208 0 -332 133t-124 359t137 362q137 135 377 135h616l-59 -199h-105q-79 0 -155 10v-4q106 -140 106 -334z" />
    <glyph glyph-name="tau" unicode="&#x3c4;" horiz-adv-x="940" 
d="M624 -20q-148 0 -236 71q-87 72 -87 209v518h-266v191h895l-60 -191h-323v-487q0 -115 117 -115q82 0 147 43l72 -168q-111 -71 -259 -71z" />
    <glyph glyph-name="upsilon" unicode="&#x3c5;" horiz-adv-x="1191" 
d="M608 176q117 0 176 95t60 264q0 94 -35 216t-102 218h251q136 -199 136 -445t-127 -396t-353 -148q-226 0 -342 116q-117 116 -116 328l14 260q0 90 -61 90q-18 0 -43 -10l-50 197q84 33 172 32q227 0 228 -262l-17 -262q0 -293 209 -293z" />
    <glyph glyph-name="phi" unicode="&#x3c6;" horiz-adv-x="1445" 
d="M844 174q123 16 204 104q80 88 80 212t-80 210q-81 86 -204 103v-629zM317 487q0 -125 81 -211t204 -102v629q-123 -15 -204 -103t-81 -213zM602 -485v465q-238 26 -383 166t-145 342t145 342t383 167v453h242v-453q238 -27 383 -167t145 -342t-145 -342t-383 -166v-465
h-242z" />
    <glyph glyph-name="chi" unicode="&#x3c7;" horiz-adv-x="1097" 
d="M932 -494q-141 0 -227 119t-170 406h-5l-270 -516h-260l428 772q-86 283 -138 391t-130 108q-29 0 -64 -10l-53 189q68 27 152 26q133 -1 218 -109t165 -370h4l241 457h256l-397 -715q119 -356 147 -418q61 -123 138 -127q33 0 61 12l55 -188q-68 -27 -151 -27z" />
    <glyph glyph-name="psi" unicode="&#x3c8;" horiz-adv-x="1480" 
d="M106 442l21 277q0 125 -51 250h239q55 -109 56 -252l-17 -256q0 -125 65 -202t193 -85v1276h242v-1276q145 10 225 108t80 263q0 248 -125 424h252q123 -189 123 -435t-147 -392t-408 -160v-467h-242v465q-240 12 -372 130t-134 332z" />
    <glyph glyph-name="omega" unicode="&#x3c9;" horiz-adv-x="1574" 
d="M74 428q0 307 215 559l235 -45q-211 -250 -211 -504q0 -124 46 -190t130 -66t133 88q48 88 48 230t-13 227h261q-12 -85 -12 -227t48 -230t132 -88t130 67t46 189q0 256 -209 504l233 45q217 -254 217 -559q0 -195 -106 -322t-279 -126q-125 0 -212 72q-86 73 -115 202
h-5q-32 -129 -118 -202t-211 -72q-172 0 -278 126q-105 127 -105 322z" />
    <glyph glyph-name="iotadieresis" unicode="&#x3ca;" horiz-adv-x="589" 
d="M449 1114q-51 0 -89 37q-36 37 -36 89t35 89q37 37 89 37t89 -37t37 -89t-38 -89q-36 -37 -87 -37zM58 1114q-52 0 -89 37t-37 89t37 89t89 37t89 -37t37 -89t-37 -89t-89 -37zM373 -14q-258 0 -258 247v736h245v-688q0 -84 82 -84q35 0 68 14l49 -193q-75 -32 -186 -32z
" />
    <glyph glyph-name="upsilondieresis" unicode="&#x3cb;" horiz-adv-x="1191" 
d="M752 1114q-51 0 -88 37t-37 89t36 89t88 37t89 -37t37 -89t-37 -89t-88 -37zM361 1366q51 0 89 -37t38 -89t-38 -89q-37 -37 -89 -37t-89 37q-36 37 -36 89t36 89q37 37 89 37zM608 176q117 0 176 95t60 264q0 94 -35 216t-102 218h251q136 -199 136 -445t-127 -396
t-353 -148q-226 0 -342 116q-117 116 -116 328l14 260q0 90 -61 90q-18 0 -43 -10l-50 197q84 33 172 32q227 0 228 -262l-17 -262q0 -293 209 -293z" />
    <glyph glyph-name="omicrontonos" unicode="&#x3cc;" horiz-adv-x="1116" 
d="M883 1430l-238 -343h-192l147 343h283zM557 176q113 0 173 86t61 225q-1 139 -61 225t-173 85q-113 0 -173 -85q-60 -84 -60 -224t60 -226t173 -86zM557 -20q-215 0 -349 143t-134 363t134 364t349 143q215 0 350 -143q135 -142 135 -362t-135 -364t-350 -144z" />
    <glyph glyph-name="upsilontonos" unicode="&#x3cd;" horiz-adv-x="1191" 
d="M608 176q117 0 176 95t60 264q0 94 -35 216t-102 218h251q136 -199 136 -445t-127 -396t-353 -148q-226 0 -342 116q-117 116 -116 328l14 260q0 90 -61 90q-18 0 -43 -10l-50 197q84 33 172 32q227 0 228 -262l-17 -262q0 -293 209 -293zM862 1430l-237 -343h-193
l148 343h282z" />
    <glyph glyph-name="omegatonos" unicode="&#x3ce;" horiz-adv-x="1636" 
d="M1151 1430l-238 -343h-192l147 343h283zM342 438q0 -124 46 -190t130 -66t132 88t48 230t-12 227h260q-12 -85 -12 -227t49 -230t132 -88t129 67t46 189q0 256 -209 504l234 45q217 -254 217 -559q0 -195 -106 -322t-279 -126q-125 0 -212 72t-116 202h-4
q-31 -129 -118 -202t-212 -72q-172 0 -277 126t-106 322q0 307 215 559l236 -45q-211 -250 -211 -504z" />
    <glyph glyph-name="uni0400" unicode="&#x400;" horiz-adv-x="1034" 
d="M446 1425l-198 301h266l119 -301h-187zM166 0v1350h745l-67 -209h-432v-353h432v-208h-432v-371h501v-209h-747z" />
    <glyph glyph-name="afii10023" unicode="&#x401;" horiz-adv-x="1034" 
d="M727 1436q-51 0 -88 36t-37 88q0 54 37 91t88 37t88 -38t37 -89t-37 -88t-88 -37zM337 1436q-52 0 -89 37t-37 88t37 89t89 38t89 -37t37 -89t-37 -89t-89 -37zM166 0v1350h745l-67 -209h-432v-353h432v-208h-432v-371h501v-209h-747z" />
    <glyph glyph-name="afii10051" unicode="&#x402;" horiz-adv-x="1499" 
d="M424 0v1149h-393v201h1138l-63 -201h-434v-340q98 8 157 8q571 0 572 -434q-1 -172 -107 -285t-293 -112q-104 0 -180 28l51 195q154 -51 232 35q49 53 49 145q0 123 -84 171t-246 48q-70 0 -151 -8v-600h-248z" />
    <glyph glyph-name="afii10052" unicode="&#x403;" horiz-adv-x="937" 
d="M438 1425l119 301h264l-196 -301h-187zM166 0v1350h766l-68 -209h-450v-1141h-248z" />
    <glyph glyph-name="afii10053" unicode="&#x404;" horiz-adv-x="1298" 
d="M774 -20q-326 0 -496 184t-169 495q0 311 183 507t509 196q213 0 362 -66v-225q-162 86 -354 86t-305 -102t-135 -273h659v-198h-661q14 -186 125 -292t297 -108q186 0 350 95l71 -193q-196 -106 -436 -106z" />
    <glyph glyph-name="afii10054" unicode="&#x405;" horiz-adv-x="1097" 
d="M578 1362q199 0 333 -68v-225q-166 86 -321 86q-80 0 -132 -35q-52 -34 -52 -106t60 -124t145 -92t171 -89t146 -137t61 -205q0 -175 -135 -281q-136 -106 -362 -106t-392 116l97 189q141 -98 305 -99q94 0 160 39t66 116t-61 132q-59 55 -145 96t-172 89t-146 132
t-61 199q0 157 118 265t317 108z" />
    <glyph glyph-name="afii10055" unicode="&#x406;" horiz-adv-x="577" 
d="M166 0v1350h246v-1350h-246z" />
    <glyph glyph-name="afii10056" unicode="&#x407;" horiz-adv-x="577" 
d="M482 1436q-52 0 -88 36t-36 88q0 54 37 91t88 37t88 -38t37 -89t-37 -88t-89 -37zM93 1436q-52 0 -89 37t-37 88t37 89t88 38t89 -37t38 -89t-37 -89t-89 -37zM166 0v1350h246v-1350h-246z" />
    <glyph glyph-name="afii10057" unicode="&#x408;" horiz-adv-x="677" 
d="M121 -172q84 0 115 51t30 148v1323h246v-1356q0 -170 -94 -272t-287 -101q-106 0 -192 33l49 199q49 -25 133 -25z" />
    <glyph glyph-name="afii10058" unicode="&#x409;" horiz-adv-x="1878" 
d="M1223 850q561 0 561 -420q0 -198 -131 -314t-416 -116h-338v1149h-237q-29 -315 -97 -595t-168 -422t-293 -142q-49 0 -69 6v227q18 -4 41 -4q90 0 147 88q160 244 236 1043h688v-500h76zM1147 203h96q151 0 221 55t70 172t-77 167t-230 50h-80v-444z" />
    <glyph glyph-name="afii10059" unicode="&#x40a;" horiz-adv-x="1994" 
d="M1260 203h100q291 0 291 223q0 121 -77 171t-231 50h-83v-444zM1339 850q559 0 559 -420q0 -198 -130 -314t-414 -116h-342v584h-598v-584h-248v1350h248v-557h598v557h248v-500h79z" />
    <glyph glyph-name="afii10060" unicode="&#x40b;" horiz-adv-x="1564" 
d="M424 0v1149h-393v201h1130l-63 -201h-426v-334q111 8 164 8q215 0 347 -54t189 -191q37 -82 37 -232v-346h-248v330q0 102 -22 153q-31 78 -106 106q-117 44 -361 17v-606h-248z" />
    <glyph glyph-name="afii10061" unicode="&#x40c;" horiz-adv-x="1280" 
d="M166 0v1350h248v-568h121q67 0 115 46t71 104t56 148q34 91 61 143q80 139 235 139q76 0 131 -19v-219q-43 16 -94 16t-84 -55q-20 -33 -54 -123t-74 -162q-40 -73 -95 -106v-4q82 -31 153 -168l273 -522h-285l-207 434q-70 147 -135 148h-188v-582h-248zM555 1425
l119 301h264l-197 -301h-186z" />
    <glyph glyph-name="uni040D" unicode="&#x40d;" horiz-adv-x="1531" 
d="M700 1425l-198 301h266l119 -301h-187zM166 0v1350h248v-721q0 -84 -4 -228h4q39 59 149 209l559 740h244v-1350h-248v766q0 156 6 209h-4q-18 -23 -69 -93t-84 -112l-578 -770h-223z" />
    <glyph glyph-name="afii10062" unicode="&#x40e;" horiz-adv-x="1234" 
d="M624 1403q-179 0 -277 96q-97 96 -93 252h205q0 -76 40 -122t126 -46t127 46t41 122h204q4 -154 -95 -251t-278 -97zM303 -18q-61 0 -108 10v209q45 -11 105 -11t104 44q46 44 108 157l-485 959h274l338 -709h4l303 709h271l-476 -1016q-88 -190 -192 -272
q-105 -80 -246 -80z" />
    <glyph glyph-name="afii10145" unicode="&#x40f;" horiz-adv-x="1417" 
d="M166 0v1350h248v-1131h590v1131h247v-1350h-424v-383h-237v383h-424z" />
    <glyph glyph-name="afii10017" unicode="&#x410;" horiz-adv-x="1298" 
d="M473 539h334l-94 268q-43 121 -68 209h-4q-14 -53 -70 -211zM18 0l523 1356h196l543 -1356h-266l-131 338h-482l-127 -338h-256z" />
    <glyph glyph-name="afii10018" unicode="&#x411;" horiz-adv-x="1165" 
d="M166 0v1350h854l-66 -201h-540v-322h98q242 0 369 -67q190 -100 190 -340q0 -420 -545 -420h-360zM414 203h118q150 0 220 51t70 168t-87 164q-72 41 -219 41h-102v-424z" />
    <glyph glyph-name="afii10019" unicode="&#x412;" horiz-adv-x="1165" 
d="M412 786h116q100 0 154 50t55 130q0 81 -53 131t-158 50h-114v-361zM412 203h157q252 0 252 196q0 85 -60 135t-165 50h-184v-381zM166 0v1350h395q205 0 313 -100t107 -242q0 -90 -43 -165t-121 -114v-4q117 -29 185 -118t69 -208q0 -167 -125 -283t-348 -116h-432z" />
    <glyph glyph-name="afii10020" unicode="&#x413;" horiz-adv-x="937" 
d="M166 0v1350h766l-68 -209h-450v-1141h-248z" />
    <glyph glyph-name="afii10021" unicode="&#x414;" horiz-adv-x="1435" 
d="M948 211v938h-237q-84 -594 -303 -934v-4h540zM51 -383v594h84q256 313 383 1139h678v-1139h178v-594h-237v383h-848v-383h-238z" />
    <glyph glyph-name="afii10022" unicode="&#x415;" horiz-adv-x="1034" 
d="M166 0v1350h745l-67 -209h-432v-353h432v-208h-432v-371h501v-209h-747z" />
    <glyph glyph-name="afii10024" unicode="&#x416;" horiz-adv-x="1873" 
d="M713 774h104v576h240v-576h106q86 0 131 67t82 195t68 187q76 139 231 139q70 0 125 -19v-217q-39 14 -93 14q-53 0 -79 -44q-26 -46 -53 -136t-63 -164q-36 -75 -91 -110v-4q84 -29 160 -188l244 -494h-279l-188 428q-39 84 -68 116t-61 31h-172v-575h-240v575h-170
q-33 1 -61 -31t-68 -116l-190 -428h-277l242 494q43 88 80 131t82 57v4q-55 35 -91 110t-63 165t-49 126q-31 53 -85 53t-93 -14v217q55 18 125 19q154 0 233 -139q31 -57 68 -187t82 -196t131 -66z" />
    <glyph glyph-name="afii10025" unicode="&#x417;" horiz-adv-x="1083" 
d="M696 973q0 182 -252 182q-136 0 -294 -82l-66 191q184 98 410 98t343 -106q118 -106 117 -259q0 -219 -225 -303v-4q123 -22 190 -102t66 -201q0 -183 -133 -295t-387 -112q-197 0 -354 65v213q154 -72 311 -72q305 0 305 209q0 193 -303 193q-96 0 -154 -4v202
q45 -4 125 -4q301 0 301 191z" />
    <glyph glyph-name="afii10026" unicode="&#x418;" horiz-adv-x="1531" 
d="M166 0v1350h248v-721q0 -84 -4 -228h4q39 59 149 209l559 740h244v-1350h-248v766q0 156 6 209h-4q-18 -23 -69 -93t-84 -112l-578 -770h-223z" />
    <glyph glyph-name="afii10027" unicode="&#x419;" horiz-adv-x="1531" 
d="M771 1403q-179 0 -276 96t-94 252h205q0 -76 40 -122t126 -46t127 46t41 122h205q5 -154 -95 -251t-279 -97zM166 0v1350h248v-721q0 -84 -4 -228h4q39 59 149 209l559 740h244v-1350h-248v766q0 156 6 209h-4q-18 -23 -69 -93t-84 -112l-578 -770h-223z" />
    <glyph glyph-name="afii10028" unicode="&#x41a;" horiz-adv-x="1280" 
d="M166 0v1350h248v-568h121q67 0 115 46t71 104t56 148q34 91 61 143q80 139 235 139q76 0 131 -19v-219q-43 16 -94 16t-84 -55q-20 -33 -54 -123t-74 -162q-40 -73 -95 -106v-4q82 -31 153 -168l273 -522h-285l-207 434q-70 147 -135 148h-188v-582h-248z" />
    <glyph glyph-name="afii10029" unicode="&#x41b;" horiz-adv-x="1337" 
d="M104 -10q-49 0 -69 6v227q18 -4 41 -4q90 0 147 88q160 244 236 1043h712v-1350h-245v1149h-264q-29 -315 -97 -595t-168 -422t-293 -142z" />
    <glyph glyph-name="afii10030" unicode="&#x41c;" horiz-adv-x="1685" 
d="M166 0v1350h223l354 -510q84 -123 113 -174h4q53 94 111 182l323 502h226v-1350h-248v762q0 125 4 178h-4q-23 -45 -92 -152l-267 -413h-112l-295 424q-76 111 -92 139h-4q2 -53 2 -170v-768h-246z" />
    <glyph glyph-name="afii10031" unicode="&#x41d;" horiz-adv-x="1470" 
d="M166 0v1350h246v-557h645v557h248v-1350h-248v584h-645v-584h-246z" />
    <glyph glyph-name="afii10032" unicode="&#x41e;" horiz-adv-x="1576" 
d="M787 186q189 0 305 129q114 129 114 353t-112 356q-112 131 -304 131t-306 -129t-114 -355t114 -356q114 -129 303 -129zM787 -20q-298 0 -488 190t-190 498t189 502q189 192 489 192q301 0 491 -194t190 -500t-191 -497q-192 -191 -490 -191z" />
    <glyph glyph-name="afii10033" unicode="&#x41f;" horiz-adv-x="1411" 
d="M166 0v1350h1079v-1350h-248v1141h-583v-1141h-248z" />
    <glyph glyph-name="afii10034" unicode="&#x420;" horiz-adv-x="1112" 
d="M485 666q271 0 271 241q0 143 -107 207q-59 35 -168 35h-69v-483h73zM166 0v1350h326q186 0 303 -58q219 -109 219 -385q0 -129 -62 -234t-196 -161q-121 -47 -287 -47h-57v-465h-246z" />
    <glyph glyph-name="afii10035" unicode="&#x421;" horiz-adv-x="1288" 
d="M799 -20q-324 0 -503 187t-179 489t196 504q197 202 516 202q205 0 355 -66v-229q-166 88 -364 88t-320 -140q-121 -140 -121 -352q0 -213 122 -345t308 -132t350 95l68 -195q-195 -106 -428 -106z" />
    <glyph glyph-name="afii10036" unicode="&#x422;" horiz-adv-x="1103" 
d="M424 0v1141h-393v209h1067l-68 -209h-360v-1141h-246z" />
    <glyph glyph-name="afii10037" unicode="&#x423;" horiz-adv-x="1234" 
d="M303 -18q-61 0 -108 10v209q45 -11 105 -11t104 44q46 44 108 157l-485 959h274l338 -709h4l303 709h271l-476 -1016q-88 -190 -192 -272q-105 -80 -246 -80z" />
    <glyph glyph-name="afii10038" unicode="&#x424;" horiz-adv-x="1601" 
d="M1241 678q0 291 -315 323v-641q315 27 315 318zM678 360v641q-319 -33 -320 -323q1 -293 320 -318zM678 -37v184q-274 23 -422 156q-147 133 -147 373t150 377q151 137 419 159v168h248v-168q268 -22 418 -160t149 -378q0 -240 -147 -372t-420 -155v-184h-248z" />
    <glyph glyph-name="afii10039" unicode="&#x425;" horiz-adv-x="1300" 
d="M25 0l483 678l-445 672h279l320 -486l342 486h270l-473 -666l452 -684h-274l-332 498l-352 -498h-270z" />
    <glyph glyph-name="afii10040" unicode="&#x426;" horiz-adv-x="1474" 
d="M166 0v1350h248v-1139h573v1139h246v-1139h180v-594h-239v383h-1008z" />
    <glyph glyph-name="afii10041" unicode="&#x427;" horiz-adv-x="1304" 
d="M891 0v535q-111 -8 -168 -9q-215 0 -349 54q-229 93 -229 424v346h248v-330q0 -96 23 -154q53 -133 303 -133q80 0 172 10v607h248v-1350h-248z" />
    <glyph glyph-name="afii10042" unicode="&#x428;" horiz-adv-x="1941" 
d="M166 0v1350h248v-1139h434v1139h246v-1139h434v1139h248v-1350h-1610z" />
    <glyph glyph-name="afii10043" unicode="&#x429;" horiz-adv-x="2009" 
d="M166 0v1350h248v-1139h430v1139h248v-1139h430v1139h247v-1139h179v-594h-240v383h-1542z" />
    <glyph glyph-name="afii10044" unicode="&#x42a;" horiz-adv-x="1458" 
d="M725 203h100q291 0 291 223q0 119 -77 170t-230 51h-84v-444zM477 0v1149h-411l-64 201h723v-500h80q248 0 381 -82q178 -102 178 -338q0 -198 -130 -314t-415 -116h-342z" />
    <glyph glyph-name="afii10045" unicode="&#x42b;" horiz-adv-x="1607" 
d="M1194 0v1350h248v-1350h-248zM791 433q0 214 -308 214h-69v-444h86q152 0 222 55t69 175zM479 850q563 0 561 -420q0 -198 -131 -314t-415 -116h-328v1350h248v-500h65z" />
    <glyph glyph-name="afii10046" unicode="&#x42c;" horiz-adv-x="1165" 
d="M506 850q565 0 565 -420q0 -198 -130 -314t-415 -116h-360v1350h248v-500h92zM414 203h118q150 0 220 55t70 173t-78 167q-77 49 -232 49h-98v-444z" />
    <glyph glyph-name="afii10047" unicode="&#x42d;" horiz-adv-x="1265" 
d="M481 -20q-205 0 -358 63v215q157 -74 349 -74t302 104t123 296h-631v198h629q-18 168 -127 272t-285 103q-176 0 -329 -80l-66 189q197 96 406 96q311 0 487 -196t176 -504t-174 -494q-174 -188 -502 -188z" />
    <glyph glyph-name="afii10048" unicode="&#x42e;" horiz-adv-x="2080" 
d="M973 670q0 -228 97 -356t270 -128t271 128q97 128 97 356t-95 356q-95 129 -271 129t-272 -129q-97 -129 -97 -356zM166 0v1350h248v-557h303q35 257 201 413t439 156t444 -193t171 -501t-172 -498t-448 -190t-446 164q-169 164 -193 440h-299v-584h-248z" />
    <glyph glyph-name="afii10049" unicode="&#x42f;" horiz-adv-x="1243" 
d="M682 1149q-110 1 -176 -55t-66 -161t67 -155t181 -51h143v422h-149zM1079 1350v-1350h-248v526h-194q-33 0 -61 -32t-66 -115l-172 -379h-287l225 446q41 78 68 114t66 56v5q-111 39 -169 125t-59 202q0 190 129 296t336 106h432z" />
    <glyph glyph-name="afii10065" unicode="&#x430;" horiz-adv-x="1013" 
d="M478 172q83 0 171 72v207l-131 -5q-92 -2 -146 -32t-55 -109q0 -133 161 -133zM70 289q0 180 163 264q94 49 250 55l166 6v31q0 162 -186 162q-127 0 -254 -68l-80 158q174 96 375 96q389 0 389 -352v-393q0 -182 18 -248h-204l-37 92q-122 -112 -270 -112t-239 86
t-91 223z" />
    <glyph glyph-name="afii10066" unicode="&#x431;" horiz-adv-x="1099" 
d="M322 604q0 -212 61 -320t173 -108t165 80t53 205t-48 204t-160 79t-242 -70q-2 -27 -2 -70zM553 -20q-225 0 -349 154t-124 480q0 178 46 341t122 239q73 80 165 115q45 16 69 25q24 10 90 26t125 31q58 15 253 59v-219q-384 -94 -450 -120t-108 -80t-62 -177h4
q133 78 280 78q202 0 306 -126t104 -337t-123 -350t-348 -139z" />
    <glyph glyph-name="afii10067" unicode="&#x432;" horiz-adv-x="995" 
d="M356 571h162q139 0 139 112t-147 112h-154v-224zM356 174h176q150 0 150 118t-143 118h-183v-236zM121 0v969h387q203 0 297 -76t94 -184q0 -160 -164 -209v-4q82 -16 135 -72q54 -56 54 -160q0 -102 -96 -183t-306 -81h-401z" />
    <glyph glyph-name="afii10068" unicode="&#x433;" horiz-adv-x="862" 
d="M121 0v969h706l-69 -217h-393v-752h-244z" />
    <glyph glyph-name="afii10069" unicode="&#x434;" horiz-adv-x="1187" 
d="M737 197v573h-174q-61 -362 -190 -569v-4h364zM47 -342v539h64q100 123 158 291t116 481h596v-772h137v-539h-225v342h-621v-342h-225z" />
    <glyph glyph-name="afii10070" unicode="&#x435;" horiz-adv-x="1015" 
d="M319 588h375q-2 92 -49 155t-135 63t-138 -62q-50 -64 -53 -156zM942 418h-620q4 -114 78 -180t199 -66q124 0 241 66l73 -168q-145 -90 -342 -90q-247 0 -371 144t-124 363t117 363t319 143q202 0 316 -138t114 -380v-57z" />
    <glyph glyph-name="afii10072" unicode="&#x436;" horiz-adv-x="1480" 
d="M162 993q115 0 172 -84q30 -43 58 -132t59 -142t84 -53h88v387h237v-387h88q53 0 83 53t58 142t58 132q61 84 172 84q63 0 100 -14v-207q-27 10 -63 10t-56 -28q-22 -28 -57 -131q-35 -104 -80 -134v-4q66 -23 111 -118l170 -367h-260l-121 305q-37 94 -84 94h-119v-399
h-237v399h-121q-43 0 -84 -94l-121 -305h-260l170 367q45 96 112 118v4q-47 29 -83 133t-56 133q-36 48 -119 17v207q37 14 101 14z" />
    <glyph glyph-name="afii10073" unicode="&#x437;" horiz-adv-x="903" 
d="M567 696q1 111 -185 111q-100 0 -226 -59l-66 167q160 78 334 78t278 -78t105 -200q0 -74 -39 -129t-111 -80v-4q172 -47 172 -213q0 -125 -107 -217q-106 -92 -292 -92t-326 65v186q145 -68 285 -67q199 0 199 129q0 117 -236 117q-57 0 -121 -7v175q49 -2 134 -3
q203 0 202 121z" />
    <glyph glyph-name="afii10074" unicode="&#x438;" horiz-adv-x="1146" 
d="M121 0v969h239v-430q0 -94 -8 -209h4q55 92 129 202l303 437h238v-969h-240v430q0 94 9 209h-4q-70 -119 -129 -203l-304 -436h-237z" />
    <glyph glyph-name="afii10075" unicode="&#x439;" horiz-adv-x="1146" 
d="M582 1108q-170 0 -261 95t-88 251h203q0 -172 146 -172t147 172h203q4 -156 -88 -251t-262 -95zM121 0v969h239v-430q0 -94 -8 -209h4q55 92 129 202l303 437h238v-969h-240v430q0 94 9 209h-4q-70 -119 -129 -203l-304 -436h-237z" />
    <glyph glyph-name="afii10076" unicode="&#x43a;" horiz-adv-x="1015" 
d="M121 0v969h244v-381h112q53 0 84 51t59 138t56 130q63 86 178 86q59 0 100 -14v-207q-22 8 -60 8t-58 -25t-58 -129q-39 -104 -86 -132v-5q68 -25 113 -118l176 -371h-264l-123 309q-41 92 -84 92h-145v-401h-244z" />
    <glyph glyph-name="afii10077" unicode="&#x43b;" horiz-adv-x="1079" 
d="M84 -14q-39 0 -61 6v215q14 -2 32 -2q61 0 103 63q127 184 192 701h608v-969h-243v754h-180q-55 -461 -209 -656q-88 -112 -242 -112z" />
    <glyph glyph-name="afii10078" unicode="&#x43c;" horiz-adv-x="1275" 
d="M121 0v969h239l148 -242q35 -53 129 -229h4q78 150 129 229l145 242h240v-969h-237v426q0 70 6 186h-6q-25 -53 -91 -159l-137 -224h-104l-137 226q-66 104 -91 157h-6q6 -59 6 -194v-418h-237z" />
    <glyph glyph-name="afii10079" unicode="&#x43d;" horiz-adv-x="1112" 
d="M121 0v969h244v-348h380v348h246v-969h-246v408h-380v-408h-244z" />
    <glyph glyph-name="afii10080" unicode="&#x43e;" horiz-adv-x="1116" 
d="M557 176q113 0 173 86t61 225q-1 139 -61 225t-173 85q-113 0 -173 -85q-60 -84 -60 -224t60 -226t173 -86zM557 -20q-215 0 -349 143t-134 363t134 364t349 143q215 0 350 -143q135 -142 135 -362t-135 -364t-350 -144z" />
    <glyph glyph-name="afii10081" unicode="&#x43f;" horiz-adv-x="1093" 
d="M121 0v969h852v-969h-244v752h-364v-752h-244z" />
    <glyph glyph-name="afii10082" unicode="&#x440;" horiz-adv-x="1085" 
d="M489 182q133 0 203 81t70 229t-77 224q-77 77 -212 77q-55 0 -115 -17v-569q63 -25 131 -25zM115 -485v1417q178 61 366 61q256 0 393 -135q138 -136 138 -366t-140 -371t-364 -141q-76 0 -150 22v-487h-243z" />
    <glyph glyph-name="afii10083" unicode="&#x441;" horiz-adv-x="921" 
d="M546 -20q-212 0 -342 140t-130 360t146 366t366 147q158 0 260 -65v-207q-104 76 -236 76t-210 -88q-76 -89 -76 -231t74 -222t188 -80q116 0 237 66l72 -168q-137 -94 -349 -94z" />
    <glyph glyph-name="afii10084" unicode="&#x442;" horiz-adv-x="960" 
d="M342 0v766h-295v203h889l-64 -203h-286v-766h-244z" />
    <glyph glyph-name="afii10085" unicode="&#x443;" horiz-adv-x="1067" 
d="M176 -485q-96 0 -199 45l62 192q71 -39 151 -39t145 67t120 226l-437 963h261l286 -684h4l232 684h252l-371 -1000q-55 -145 -114 -240q-96 -159 -242 -199q-54 -15 -150 -15z" />
    <glyph glyph-name="afii10086" unicode="&#x444;" horiz-adv-x="1370" 
d="M1055 486q0 118 -68 204t-186 101v-609q119 14 187 100t67 204zM315 485q-1 -119 67 -204t187 -99v609q-119 -15 -187 -101t-67 -205zM567 -485v467q-235 24 -363 162t-128 341t128 342t363 162v420h234v-420q237 -23 365 -162t128 -342t-129 -342t-364 -161v-467h-234z
" />
    <glyph glyph-name="afii10087" unicode="&#x445;" horiz-adv-x="1017" 
d="M16 0l363 487l-350 482h256l227 -316l229 316h254l-354 -482l358 -487h-256l-233 324l-238 -324h-256z" />
    <glyph glyph-name="afii10088" unicode="&#x446;" horiz-adv-x="1163" 
d="M121 0v969h244v-758h348v758h245v-758h136v-553h-226v342h-747z" />
    <glyph glyph-name="afii10089" unicode="&#x447;" horiz-adv-x="1046" 
d="M348 674q0 -140 173 -140q87 0 161 15v420h244v-969h-244v352q-92 -14 -174 -14q-199 0 -301 78t-103 225v328h244v-295z" />
    <glyph glyph-name="afii10090" unicode="&#x448;" horiz-adv-x="1511" 
d="M121 0v969h237v-760h279v760h237v-760h277v760h240v-969h-1270z" />
    <glyph glyph-name="afii10091" unicode="&#x449;" horiz-adv-x="1570" 
d="M121 0v969h237v-760h267v760h235v-760h266v760h240v-760h135v-551h-225v342h-1155z" />
    <glyph glyph-name="afii10092" unicode="&#x44a;" horiz-adv-x="1247" 
d="M641 186h100q113 0 153 34t40 94t-41 94t-152 32q-39 0 -100 -4v-250zM397 0v766h-319l-58 203h621v-344q70 4 111 4q225 0 325 -86t101 -224q0 -319 -430 -319h-351z" />
    <glyph glyph-name="afii10093" unicode="&#x44b;" horiz-adv-x="1378" 
d="M1012 0v969h245v-969h-245zM365 186h92q111 0 149 34t37 94q0 60 -39 94t-145 32q-29 0 -94 -4v-250zM121 0v969h244v-344q74 4 106 4q217 0 316 -86q99 -85 99 -227t-98 -229q-100 -87 -325 -87h-342z" />
    <glyph glyph-name="afii10094" unicode="&#x44c;" horiz-adv-x="987" 
d="M365 186h104q119 0 162 34t43 94t-45 94t-162 32q-37 0 -102 -4v-250zM121 0v969h244v-344q74 4 112 4q233 0 337 -87t104 -223q0 -319 -443 -319h-354z" />
    <glyph glyph-name="afii10095" unicode="&#x44d;" horiz-adv-x="942" 
d="M383 -20q-145 0 -266 57v186q119 -61 241 -61q246 0 271 248h-387v170h381q-16 102 -83 164q-66 62 -172 62t-208 -52l-66 168q143 72 295 71q213 0 345 -142q132 -143 132 -367t-127 -364t-356 -140z" />
    <glyph glyph-name="afii10096" unicode="&#x44e;" horiz-adv-x="1533" 
d="M1004 176q206 0 206 310t-206 311q-207 -1 -207 -311t207 -310zM121 0v969h244v-361h194q33 174 150 280t311 105q194 0 316 -141q122 -140 122 -364t-123 -366t-319 -142t-317 114q-120 115 -144 301h-190v-395h-244z" />
    <glyph glyph-name="afii10097" unicode="&#x44f;" horiz-adv-x="1013" 
d="M512 782q-74 0 -110 -37t-35 -96t37 -94t106 -35h139v262h-137zM125 668q0 133 89 217t273 84h406v-969h-244v340h-151q-49 0 -86 -92l-97 -248h-264l135 291q45 96 105 121v4q-166 68 -166 252z" />
    <glyph glyph-name="uni0450" unicode="&#x450;" horiz-adv-x="1015" 
d="M455 1087l-199 302h266l119 -302h-186zM319 588h375q-2 92 -49 155t-135 63t-138 -62q-50 -64 -53 -156zM942 418h-620q4 -114 78 -180t199 -66q124 0 241 66l73 -168q-145 -90 -342 -90q-247 0 -371 144t-124 363t117 363t319 143q202 0 316 -138t114 -380v-57z" />
    <glyph glyph-name="afii10071" unicode="&#x451;" horiz-adv-x="1015" 
d="M712 1114q-52 0 -88 37t-36 89t36 89t88 37t89 -37t37 -89t-37 -89t-89 -37zM323 1114q-52 0 -90 37q-37 37 -37 89t37 89t89 37t90 -37q37 -37 37 -89t-37 -89t-89 -37zM319 588h375q-2 92 -49 155t-135 63t-138 -62q-50 -64 -53 -156zM942 418h-620q4 -114 78 -180
t199 -66q124 0 241 66l73 -168q-145 -90 -342 -90q-247 0 -371 144t-124 363t117 363t319 143q202 0 316 -138t114 -380v-57z" />
    <glyph glyph-name="afii10099" unicode="&#x452;" horiz-adv-x="1120" 
d="M131 0v1114h-117v186h117v150h244v-150h293v-186h-293v-293q143 133 302 133t262 -152t103 -411q0 -260 -96 -434t-293 -279l-118 177q147 84 202 210t55 304t-52 275t-152 97t-213 -102v-639h-244z" />
    <glyph glyph-name="afii10100" unicode="&#x453;" horiz-adv-x="862" 
d="M121 0v969h706l-69 -217h-393v-752h-244zM365 1087l118 302h265l-197 -302h-186z" />
    <glyph glyph-name="afii10101" unicode="&#x454;" horiz-adv-x="948" 
d="M541 -20q-213 0 -339 138t-126 363t137 369t356 143q164 0 271 -65v-197q-104 76 -232 76q-128 1 -200 -61t-91 -166h379v-170h-383q10 -119 80 -184q70 -64 189 -64t235 67l74 -155q-137 -94 -350 -94z" />
    <glyph glyph-name="afii10102" unicode="&#x455;" horiz-adv-x="864" 
d="M385 172q170 0 170 102q0 45 -47 76q-47 32 -114 54q-68 22 -134 53t-113 92t-47 151q0 131 100 212t260 81q161 0 292 -47v-207q-144 61 -278 61t-134 -87q0 -41 47 -70t114 -53t133 -54q66 -32 114 -97q47 -65 47 -158q0 -152 -112 -227q-112 -74 -298 -74t-340 94
l76 178q125 -80 264 -80z" />
    <glyph glyph-name="afii10103" unicode="&#x456;" horiz-adv-x="487" 
d="M244 1126q-63 0 -107 42q-43 42 -43 104t43 104q43 43 108 43t107 -42t43 -103q0 -60 -44 -104t-107 -44zM121 0v969h246v-969h-246z" />
    <glyph glyph-name="afii10104" unicode="&#x457;" horiz-adv-x="487" 
d="M121 0v969h246v-969h-246zM440 1114q-51 0 -88 37t-37 89t36 89t88 37t89 -37t37 -89t-37 -89t-88 -37zM50 1114q-52 0 -89 37t-37 89t37 89t89 37t89 -37t37 -89t-37 -89t-89 -37z" />
    <glyph glyph-name="afii10105" unicode="&#x458;" horiz-adv-x="516" 
d="M272 1126q-63 0 -106 42t-43 104t43 104q44 43 108 43t107 -42t43 -103t-44 -105q-45 -43 -108 -43zM150 -106v1075h245v-1112q0 -162 -89 -252t-245 -90q-106 -1 -186 34l45 201q47 -22 110 -22q64 0 92 39t28 127z" />
    <glyph glyph-name="afii10106" unicode="&#x459;" horiz-adv-x="1544" 
d="M84 -14q-39 0 -61 6v215q14 -2 32 -2q61 0 103 63q127 184 192 701h584v-344q70 4 113 4q225 0 325 -86q100 -85 100 -227t-100 -229q-102 -87 -328 -87h-348v754h-161q-55 -461 -209 -656q-88 -112 -242 -112zM934 186h106q109 0 149 34t40 94t-42 94t-151 32
q-41 0 -102 -4v-250z" />
    <glyph glyph-name="afii10107" unicode="&#x45a;" horiz-adv-x="1576" 
d="M967 186h104q111 0 151 34t40 94t-42 94t-153 32q-39 0 -100 -4v-250zM121 0v969h244v-348h358v348h244v-344q70 4 110 4q225 0 327 -86q102 -85 101 -227q0 -142 -100 -229t-328 -87h-354v408h-358v-408h-244z" />
    <glyph glyph-name="afii10108" unicode="&#x45b;" horiz-adv-x="1134" 
d="M131 0v1114h-117v186h117v150h244v-150h272v-186h-272v-293q156 133 309 133q154 0 242 -81t88 -273v-600h-244v530q0 102 -32 156t-120 55q-121 0 -243 -102v-639h-244z" />
    <glyph glyph-name="afii10109" unicode="&#x45c;" horiz-adv-x="1015" 
d="M121 0v969h244v-381h112q53 0 84 51t59 138t56 130q63 86 178 86q59 0 100 -14v-207q-22 8 -60 8t-58 -25t-58 -129q-39 -104 -86 -132v-5q68 -25 113 -118l176 -371h-264l-123 309q-41 92 -84 92h-145v-401h-244zM414 1087l118 302h265l-197 -302h-186z" />
    <glyph glyph-name="uni045D" unicode="&#x45d;" horiz-adv-x="1146" 
d="M121 0v969h239v-430q0 -94 -8 -209h4q55 92 129 202l303 437h238v-969h-240v430q0 94 9 209h-4q-70 -119 -129 -203l-304 -436h-237zM508 1087l-199 302h266l119 -302h-186z" />
    <glyph glyph-name="afii10110" unicode="&#x45e;" horiz-adv-x="1067" 
d="M545 1108q-170 0 -261 95t-87 251h202q1 -172 147 -172t146 172h203q4 -156 -88 -251t-262 -95zM176 -485q-96 0 -199 45l62 192q71 -39 151 -39t145 67t120 226l-437 963h261l286 -684h4l232 684h252l-371 -1000q-55 -145 -114 -240q-96 -159 -242 -199
q-54 -15 -150 -15z" />
    <glyph glyph-name="afii10193" unicode="&#x45f;" horiz-adv-x="1097" 
d="M434 -342v342h-313v969h244v-758h366v758h246v-969h-315v-342h-228z" />
    <glyph glyph-name="afii10146" unicode="&#x462;" horiz-adv-x="1275" 
d="M524 203h119q151 0 221 50t70 163t-86 159q-63 39 -221 39h-103v-411zM276 0v1038h-260v201h260v178h248v-178h350l-63 -201h-287v-221h99q221 0 350 -57q209 -96 209 -346q0 -194 -130 -304t-415 -110h-361z" />
    <glyph glyph-name="afii10194" unicode="&#x463;" horiz-adv-x="1126" 
d="M504 184h102q117 0 161 32t44 91t-45 91t-162 32q-39 0 -100 -4v-242zM258 0v788h-258v181h258v276h246v-276h354l-57 -181h-297v-182q70 4 110 4q440 0 441 -299q0 -311 -443 -311h-354z" />
    <glyph glyph-name="afii10147" unicode="&#x472;" horiz-adv-x="1568" 
d="M786 1157q-172 0 -278 -95t-131 -269h815q-23 174 -128 269q-106 95 -278 95zM784 184q180 0 289 104t123 296h-823q15 -196 123 -298t288 -102zM784 -20q-307 0 -491 186t-184 502t184 506q184 188 491 188q308 0 492 -190t184 -504q0 -315 -184 -502
q-185 -186 -492 -186z" />
    <glyph glyph-name="afii10195" unicode="&#x473;" horiz-adv-x="1107" 
d="M319 575h465q-10 105 -68 167t-160 62t-164 -61q-61 -62 -73 -168zM553 168q104 0 164 64q59 65 69 178h-467q10 -114 70 -178t164 -64zM553 -20q-221 0 -349 139t-128 367t128 368t349 139q221 0 350 -139q129 -140 129 -368t-129 -367t-350 -139z" />
    <glyph glyph-name="afii10148" unicode="&#x474;" horiz-adv-x="1363" 
d="M1196 1362q82 0 145 -19v-217q-128 42 -190 -24q-39 -42 -83 -144t-327 -966h-219l-504 1358h267l256 -734q47 -135 88 -274h4q129 508 219 737q59 147 139 215t205 68z" />
    <glyph glyph-name="afii10196" unicode="&#x475;" horiz-adv-x="1024" 
d="M891 993q59 0 119 -16v-205q-29 12 -72 12t-77 -41q-33 -41 -81 -170t-180 -579h-205l-381 975h246l229 -660h5q68 301 110 431t109 192q66 62 178 61z" />
    <glyph glyph-name="afii10050" unicode="&#x490;" horiz-adv-x="1048" 
d="M166 0v1350h602v311l223 57v-569h-577v-1149h-248z" />
    <glyph glyph-name="afii10098" unicode="&#x491;" horiz-adv-x="886" 
d="M121 0v969h497v286l220 56v-557h-473v-754h-244z" />
    <glyph glyph-name="Wgrave" unicode="&#x1e80;" horiz-adv-x="1933" 
d="M881 1425l-199 301h266l119 -301h-186zM492 -8l-478 1358h279l248 -777q20 -61 65 -227h4q27 94 70 225l182 543l-84 236h250l260 -764q55 -156 76 -238h6q45 180 62 234l233 768h254l-455 -1358h-209l-202 571q-55 156 -74 225h-6q-29 -104 -72 -223l-205 -573h-204z
" />
    <glyph glyph-name="wgrave" unicode="&#x1e81;" horiz-adv-x="1531" 
d="M709 1087l-199 302h266l119 -302h-186zM365 -6l-351 975h248l205 -658h4l205 658h190l213 -658h4l201 658h242l-359 -975h-180l-213 657h-4l-217 -657h-188z" />
    <glyph glyph-name="Wacute" unicode="&#x1e82;" horiz-adv-x="1933" 
d="M852 1425l119 301h264l-197 -301h-186zM492 -8l-478 1358h279l248 -777q20 -61 65 -227h4q27 94 70 225l182 543l-84 236h250l260 -764q55 -156 76 -238h6q45 180 62 234l233 768h254l-455 -1358h-209l-202 571q-55 156 -74 225h-6q-29 -104 -72 -223l-205 -573h-204z
" />
    <glyph glyph-name="wacute" unicode="&#x1e83;" horiz-adv-x="1531" 
d="M647 1087l119 302h264l-196 -302h-187zM365 -6l-351 975h248l205 -658h4l205 658h190l213 -658h4l201 658h242l-359 -975h-180l-213 657h-4l-217 -657h-188z" />
    <glyph glyph-name="Wdieresis" unicode="&#x1e84;" horiz-adv-x="1933" 
d="M1171 1688q51 0 89 -38t36 -89q0 -51 -37 -88t-89 -37t-88 36t-36 88q0 54 37 91t88 37zM781 1436q-52 0 -89 37t-37 88t37 89t88 38t89 -37t38 -89t-37 -89t-89 -37zM492 -8l-478 1358h279l248 -777q20 -61 65 -227h4q27 94 70 225l182 543l-84 236h250l260 -764
q55 -156 76 -238h6q45 180 62 234l233 768h254l-455 -1358h-209l-202 571q-55 156 -74 225h-6q-29 -104 -72 -223l-205 -573h-204z" />
    <glyph glyph-name="wdieresis" unicode="&#x1e85;" horiz-adv-x="1531" 
d="M966 1114q-52 0 -88 37t-36 89t36 89t88 37t89 -37t37 -89t-37 -89t-89 -37zM576 1366q52 0 90 -37t36 -89q0 -52 -37 -89t-89 -37t-89 37t-37 89t37 89t89 37zM365 -6l-351 975h248l205 -658h4l205 658h190l213 -658h4l201 658h242l-359 -975h-180l-213 657h-4
l-217 -657h-188z" />
    <glyph glyph-name="Ygrave" unicode="&#x1ef2;" horiz-adv-x="1200" 
d="M541 1425l-199 301h266l119 -301h-186zM475 0v535l-461 815h271l315 -596h4l314 596h266l-461 -818v-532h-248z" />
    <glyph glyph-name="ygrave" unicode="&#x1ef3;" horiz-adv-x="1060" 
d="M485 1087l-198 302h266l119 -302h-187zM174 -485q-96 0 -199 45l62 192q71 -39 151 -39t145 67t120 226l-437 963h260l287 -684h4l232 684h252l-371 -1000q-55 -145 -114 -240q-96 -159 -242 -199q-54 -15 -150 -15z" />
    <glyph glyph-name="endash" unicode="&#x2013;" horiz-adv-x="921" 
d="M0 424v180h922v-180h-922z" />
    <glyph glyph-name="emdash" unicode="&#x2014;" horiz-adv-x="1638" 
d="M0 424v180h1638v-180h-1638z" />
    <glyph glyph-name="quoteleft" unicode="&#x2018;" horiz-adv-x="471" 
d="M94 1172q0 148 78 303l154 -25q-25 -84 -25 -196t70 -263l-205 -98q-72 131 -72 279z" />
    <glyph glyph-name="quoteright" unicode="&#x2019;" horiz-adv-x="471" 
d="M379 1193q0 -145 -78 -300l-154 25q25 94 25 200t-72 258l207 99q72 -137 72 -282z" />
    <glyph glyph-name="quotesinglbase" unicode="&#x201a;" horiz-adv-x="471" 
d="M379 -36q0 -145 -78 -300l-154 25q25 97 25 201t-72 257l207 99q72 -137 72 -282z" />
    <glyph glyph-name="quotedblleft" unicode="&#x201c;" horiz-adv-x="858" 
d="M481 1172q0 148 78 303l154 -25q-25 -84 -25 -196t70 -263l-205 -98q-72 131 -72 279zM94 1172q0 148 78 303l154 -25q-25 -84 -25 -196t70 -263l-205 -98q-72 131 -72 279z" />
    <glyph glyph-name="quotedblright" unicode="&#x201d;" horiz-adv-x="858" 
d="M379 1193q0 -145 -78 -300l-154 25q25 94 25 200t-72 258l207 99q72 -137 72 -282zM766 1193q0 -145 -78 -300l-153 25q25 96 24 176q0 129 -72 282l207 99q72 -137 72 -282z" />
    <glyph glyph-name="quotedblbase" unicode="&#x201e;" horiz-adv-x="858" 
d="M379 -36q0 -145 -78 -300l-154 25q25 97 25 201t-72 257l207 99q72 -137 72 -282zM766 -36q0 -145 -78 -300l-153 25q25 94 24 176q0 129 -72 282l207 99q72 -137 72 -282z" />
    <glyph glyph-name="dagger" unicode="&#x2020;" horiz-adv-x="1077" 
d="M655 -100h-233v327l12 564q-30 1 -146 -13t-165 -14v246l313 -33q2 43 -10 161t-12 165h250q0 -47 -12 -165t-11 -161l315 33v-246q-50 0 -166 13t-147 14l12 -564v-327z" />
    <glyph glyph-name="daggerdbl" unicode="&#x2021;" horiz-adv-x="1077" 
d="M956 438v-245q-51 0 -169 14t-146 16q-2 -43 10 -161t13 -162h-250q0 44 12 162t10 161q-28 -2 -146 -16t-167 -14v245q49 0 165 -14t146 -14l-4 186l4 195q-30 1 -146 -13t-165 -14v246l313 -33q2 43 -10 161t-12 165h250q0 -47 -12 -165t-11 -161l315 33v-246
q-50 0 -166 13t-147 14l6 -195l-6 -186q31 0 147 14t166 14z" />
    <glyph glyph-name="bullet" unicode="&#x2022;" horiz-adv-x="669" 
d="M335 397q-105 0 -176 74q-71 73 -71 181t70 182t176 74t177 -74t71 -182t-71 -182q-71 -73 -176 -73z" />
    <glyph glyph-name="ellipsis" unicode="&#x2026;" horiz-adv-x="1847" 
d="M1493 -18q-57 0 -97 41t-40 100t40 99t97 40t97 -40t40 -99t-40 -100t-97 -41zM924 -18q-57 0 -98 41q-40 41 -40 100t40 99t98 40t97 -40q40 -40 40 -99t-40 -100t-97 -41zM354 -18q-57 0 -97 41t-40 100t40 99t97 40q58 0 98 -40t40 -99t-40 -100t-98 -41z" />
    <glyph glyph-name="perthousand" unicode="&#x2030;" horiz-adv-x="2574" 
d="M383 0l852 1350h199l-850 -1350h-201zM2136 127q66 0 100 58q34 59 33 157q0 98 -34 156q-33 58 -99 57q-66 0 -100 -57q-34 -58 -35 -156q1 -98 35 -156t100 -59zM2136 -20q-145 0 -236 93q-92 93 -92 268t92 268t236 93t236 -93t92 -268t-92 -268t-236 -93zM1382 127
q66 0 100 58q34 59 34 157t-34 156t-100 57q-66 0 -100 -57q-34 -58 -35 -156q1 -98 35 -156t100 -59zM1382 -20q-145 0 -236 93t-91 268t91 268t236 93q144 0 236 -93t92 -268t-92 -268t-236 -93zM438 786q66 0 100 58t33 157q0 98 -33 156q-34 57 -100 57t-100 -57
t-35 -155q1 -98 35 -158q34 -58 100 -58zM438 639q-145 0 -236 93t-91 268q0 174 91 268t236 94q144 0 236 -93t92 -269t-92 -268q-92 -93 -236 -93z" />
    <glyph glyph-name="guilsinglleft" unicode="&#x2039;" horiz-adv-x="733" 
d="M600 823l-254 -329l254 -330l-176 -98l-348 428l348 428z" />
    <glyph glyph-name="guilsinglright" unicode="&#x203a;" horiz-adv-x="733" 
d="M387 494l-254 329l176 99l348 -428l-348 -428l-176 98z" />
    <glyph glyph-name="fraction" unicode="&#x2044;" horiz-adv-x="321" 
d="M-365 0l850 1350h201l-852 -1350h-199z" />
    <glyph glyph-name="zerosuperior" unicode="&#x2070;" horiz-adv-x="792" 
d="M396 969q118 0 118 254t-118 254t-118 -254t118 -254zM721 1222q1 -196 -89 -304t-236 -107q-146 0 -234 108q-88 107 -88 305t88 304t234 106t236 -107q89 -109 89 -305z" />
    <glyph glyph-name="foursuperior" unicode="&#x2074;" horiz-adv-x="792" 
d="M395 1139h49v55q0 96 7 197l-191 -254q35 2 135 2zM57 995v117l396 518h182v-491h108v-144h-108v-172h-191v172h-387z" />
    <glyph glyph-name="fivesuperior" unicode="&#x2075;" horiz-adv-x="729" 
d="M291 969q141 0 141 108q0 66 -63 88q-33 12 -115 13h-148v438h537l-39 -162h-307v-133h39q96 0 158 -25q147 -51 147 -219q0 -119 -86 -193t-244 -73q-158 0 -264 53l53 150q100 -45 191 -45z" />
    <glyph glyph-name="sixsuperior" unicode="&#x2076;" horiz-adv-x="753" 
d="M397 965q51 1 78 31t27 81t-31 82t-83 31t-107 -39q-3 -88 31 -137t85 -49zM391 811q-135 0 -226 96q-91 97 -91 287t104 315t281 125q109 0 203 -41l-50 -149q-70 33 -140 33t-123 -43q-52 -43 -66 -127h4q70 37 168 37t170 -70q71 -68 71 -190t-85 -197
q-85 -76 -220 -76z" />
    <glyph glyph-name="sevensuperior" unicode="&#x2077;" horiz-adv-x="681" 
d="M651 1616v-107q-133 -153 -206 -311t-115 -375h-221q82 362 290 631h-325l-43 162h620z" />
    <glyph glyph-name="eightsuperior" unicode="&#x2078;" horiz-adv-x="792" 
d="M394 1481q-42 -1 -68 -21t-25 -55q0 -72 115 -105q74 37 73 101q-1 35 -27 57t-68 23zM274 1061q0 -43 34 -67t83 -25q49 1 85 23t36 65q0 74 -152 112q-34 -9 -60 -37t-26 -71zM721 1053q0 -111 -90 -177q-91 -66 -241 -65q-150 0 -234 60t-84 165q0 143 139 199v4
q-113 55 -113 163t80 170t217 62t215 -62t78 -173t-108 -156v-4q141 -49 141 -186z" />
    <glyph glyph-name="ninesuperior" unicode="&#x2079;" horiz-adv-x="753" 
d="M358 1481q-50 0 -78 -31t-28 -83t30 -83t90 -31t109 54q-2 174 -123 174zM293 811q-117 0 -213 43l49 154q68 -39 158 -39q174 0 194 178h-4q-73 -45 -173 -45t-172 63t-73 189q0 126 83 202q83 78 222 78q138 0 228 -97t90 -298t-104 -315t-285 -113z" />
    <glyph glyph-name="plussuperior" unicode="&#x207a;" horiz-adv-x="817" 
d="M326 889v256h-234v151h234v248h163v-248h236v-151h-236v-256h-163z" />
    <glyph glyph-name="minussuperior" unicode="&#x207b;" horiz-adv-x="817" 
d="M92 1145v151h633v-151h-633z" />
    <glyph glyph-name="equalsuperior" unicode="&#x207c;" horiz-adv-x="817" 
d="M92 1284v152h633v-152h-633zM92 1006v151h633v-151h-633z" />
    <glyph glyph-name="parenleftsuperior" unicode="&#x207d;" horiz-adv-x="468" 
d="M82 1220q0 310 211 490l117 -92q-140 -158 -140 -400t140 -395l-117 -92q-211 179 -211 489z" />
    <glyph glyph-name="parenrightsuperior" unicode="&#x207e;" horiz-adv-x="468" 
d="M387 1221q0 -309 -211 -490l-117 92q139 154 139 396t-139 399l117 92q211 -180 211 -489z" />
    <glyph glyph-name="n.superior" unicode="&#x207f;" horiz-adv-x="806" 
d="M92 553v680h160l14 -70q114 88 220 88t170 -60t65 -190v-448h-186v405q0 127 -99 127q-70 0 -157 -61v-471h-187z" />
    <glyph glyph-name="zeroinferior" unicode="&#x2080;" horiz-adv-x="792" 
d="M396 -223q118 0 118 254t-118 254t-118 -254t118 -254zM721 30q1 -196 -89 -304t-236 -107q-146 0 -234 108q-88 107 -88 305t88 304t234 106t236 -107q89 -109 89 -305z" />
    <glyph glyph-name="oneinferior" unicode="&#x2081;" horiz-adv-x="714" 
d="M360 -369v609l-237 -88l-64 153l338 133h154v-807h-191z" />
    <glyph glyph-name="twoinferior" unicode="&#x2082;" horiz-adv-x="714" 
d="M426 199q0 78 -100 77q-74 0 -207 -59l-49 150q160 75 295 75t203 -59t67 -166q0 -107 -108 -194q-46 -37 -93 -70q-119 -83 -139 -156h346v-166h-596q4 105 44 189t95 135q54 51 110 92t94 79t38 73z" />
    <glyph glyph-name="threeinferior" unicode="&#x2083;" horiz-adv-x="712" 
d="M225 106q160 0 160 97q0 80 -102 80q-76 0 -185 -45l-47 145q150 59 277 59q126 0 196 -57t70 -147q0 -131 -135 -187v-4q78 -14 121 -62t43 -124q0 -106 -89 -174q-88 -68 -240 -68t-263 53l51 146q88 -41 186 -41q143 0 144 98q0 57 -60 78q-33 12 -104 12h-101v141h78
z" />
    <glyph glyph-name="fourinferior" unicode="&#x2084;" horiz-adv-x="792" 
d="M395 -53h49v55q0 96 7 197l-191 -254q35 2 135 2zM57 -197v117l396 518h182v-491h108v-144h-108v-172h-191v172h-387z" />
    <glyph glyph-name="fiveinferior" unicode="&#x2085;" horiz-adv-x="729" 
d="M291 -223q141 0 141 108q0 66 -63 88q-33 12 -115 13h-148v438h537l-39 -162h-307v-133h39q96 0 158 -25q147 -51 147 -219q0 -119 -86 -193t-244 -73q-158 0 -264 53l53 150q100 -45 191 -45z" />
    <glyph glyph-name="sixinferior" unicode="&#x2086;" horiz-adv-x="753" 
d="M397 -227q51 1 78 31t27 81t-31 82t-83 31t-107 -39q-3 -88 31 -137t85 -49zM391 -381q-135 0 -226 96q-91 97 -91 287t104 315t281 125q109 0 203 -41l-50 -149q-70 33 -140 33t-123 -43q-52 -43 -66 -127h4q70 37 168 37t170 -69q71 -69 71 -191t-85 -197
q-85 -76 -220 -76z" />
    <glyph glyph-name="seveninferior" unicode="&#x2087;" horiz-adv-x="681" 
d="M651 424v-107q-133 -153 -206 -311t-115 -375h-221q82 362 290 631h-325l-43 162h620z" />
    <glyph glyph-name="eightinferior" unicode="&#x2088;" horiz-adv-x="792" 
d="M394 289q-42 -1 -68 -21t-25 -55q0 -71 115 -104q74 37 73 100q-1 35 -27 57t-68 23zM274 -131q0 -43 34 -67t83 -25q49 1 85 23t36 65q0 74 -152 112q-34 -9 -60 -37t-26 -71zM721 -139q0 -111 -90 -177q-91 -66 -241 -65q-150 0 -234 60t-84 165q0 143 139 199v4
q-113 55 -113 163t80 170t217 62t215 -62t78 -173t-108 -156v-4q141 -49 141 -186z" />
    <glyph glyph-name="nineinferior" unicode="&#x2089;" horiz-adv-x="753" 
d="M358 289q-50 0 -78 -31t-28 -83t30 -83t90 -31t109 54q-2 174 -123 174zM293 -381q-117 0 -213 43l49 154q68 -39 158 -39q174 0 194 178h-4q-73 -45 -173 -45t-172 63t-73 189q0 126 83 203t222 77q138 0 228 -97t90 -298t-104 -315t-285 -113z" />
    <glyph glyph-name="parenleftinferior" unicode="&#x208d;" horiz-adv-x="468" 
d="M82 28q0 310 211 490l117 -92q-140 -158 -140 -400t140 -395l-117 -92q-211 179 -211 489z" />
    <glyph glyph-name="parenrightinferior" unicode="&#x208e;" horiz-adv-x="468" 
d="M387 29q0 -309 -211 -490l-117 92q139 154 139 396t-139 399l117 92q211 -180 211 -489z" />
    <glyph glyph-name="Euro" unicode="&#x20ac;" horiz-adv-x="1116" 
d="M727 -20q-215 0 -355 120t-188 328h-141v154h119q-4 53 -4 91t6 87h-121v153h150q57 203 201 326t351 123q162 0 279 -62v-229q-126 78 -242 78q-231 0 -317 -236h498l-52 -153h-483q-6 -37 -6 -89t4 -89h471l-53 -154h-385q82 -236 299 -235q129 -1 233 71l92 -192
q-141 -92 -356 -92z" />
    <glyph glyph-name="afii61289" unicode="&#x2113;" horiz-adv-x="1050" 
d="M453 793v-154q233 158 233 410q0 119 -78 118q-68 0 -112 -94t-43 -280zM211 795q0 295 114 431q115 136 281 136t246 -87t80 -226q0 -197 -127 -364t-344 -282q25 -207 188 -206q117 0 225 84l93 -191q-169 -110 -339 -110q-339 1 -401 323q-42 -16 -155 -47l-54 211
q94 20 193 53v275z" />
    <glyph glyph-name="afii61352" unicode="&#x2116;" horiz-adv-x="2193" 
d="M1714 694q72 0 115 56t43 145q0 88 -43 144q-43 57 -115 57t-114 -56t-41 -145q-1 -89 41 -145t114 -56zM1715 539q-153 0 -250 100t-97 256t97 256t250 100t250 -100t97 -256t-97 -256t-250 -100zM1378 270v146h674v-146h-674zM135 0v1350h244l461 -705
q74 -117 131 -221h6q-8 96 -8 231v695h245v-1350h-225l-479 735q-74 113 -133 219h-6q10 -84 10 -213v-741h-246z" />
    <glyph glyph-name="uni2117" unicode="&#x2117;" horiz-adv-x="1576" 
d="M815 936h-96v-274h84q150 0 149 135q0 139 -137 139zM571 266v801h224q151 0 229 -72q78 -71 78 -195t-79 -198t-226 -74h-78v-262h-148zM788 104q233 0 386 159q152 159 151 407q1 248 -151 406t-386 159q-234 0 -386 -159q-152 -158 -152 -406t152 -407t386 -159z
M787 -20q-298 0 -488 196t-190 494t190 494t488 196q299 0 489 -197t190 -493t-190 -494q-191 -196 -489 -196z" />
    <glyph glyph-name="trademark" unicode="&#x2122;" horiz-adv-x="1777" 
d="M770 541v809h172l174 -246q43 -61 90 -143h4q35 63 84 137l172 252h183v-809h-199v360q0 82 6 148h-4q-29 -55 -70 -115l-129 -184h-88l-127 184q-49 72 -71 115h-4q6 -43 6 -148v-360h-199zM262 541v647h-229v162h684l-39 -162h-217v-647h-199z" />
    <glyph glyph-name="estimated" unicode="&#x212e;" horiz-adv-x="1544" 
d="M352 664h848v311q-139 199 -423 199t-425 -199v-311zM770 -20q-299 0 -509 173t-210 465t211 462q211 171 516 171q176 0 316 -57q140 -56 227 -152q178 -198 170 -458h-1139v-328q66 -94 180 -146t248 -53q274 1 428 187h185q-211 -264 -623 -264z" />
    <glyph glyph-name="onethird" unicode="&#x2153;" horiz-adv-x="1931" 
d="M1413 469q158 0 160 96q0 80 -103 80q-76 0 -184 -45l-47 145q150 59 277 59q126 0 196 -56q70 -57 70 -148q0 -131 -135 -186v-4q79 -14 121 -62t42 -125q0 -106 -89 -174q-89 -67 -240 -67t-262 53l51 145q88 -41 186 -41q143 0 143 99q0 57 -59 77q-33 12 -104 13
h-101v141h78zM414 553v608l-238 -88l-63 154l338 133h153v-807h-190zM420 0l850 1350h200l-852 -1350h-198z" />
    <glyph glyph-name="twothirds" unicode="&#x2154;" horiz-adv-x="1931" 
d="M1413 469q158 0 160 96q0 80 -103 80q-76 0 -184 -45l-47 145q150 59 277 59q126 0 196 -56q70 -57 70 -148q0 -131 -135 -186v-4q79 -14 121 -62t42 -125q0 -106 -89 -174q-89 -67 -240 -67t-262 53l51 145q88 -41 186 -41q143 0 143 99q0 57 -59 77q-33 12 -104 13
h-101v141h78zM457 1120q0 78 -101 78q-74 0 -206 -59l-50 149q160 76 295 76t203 -59t68 -167t-108 -194q-46 -37 -93 -70q-119 -84 -139 -155h346v-166h-596q4 104 44 188q40 83 95 135t111 93t93 79q38 38 38 72zM440 0l850 1350h201l-852 -1350h-199z" />
    <glyph glyph-name="oneeighth" unicode="&#x215b;" horiz-adv-x="1931" 
d="M1542 571q0 35 -26 58q-27 23 -69 23t-68 -21q-26 -20 -25 -56q-1 -71 114 -104q74 37 74 100zM1327 231q0 -43 34 -67t83 -25q49 0 85 23t36 65q0 74 -152 113q-35 -10 -61 -38t-25 -71zM1444 -18q-150 0 -236 60q-84 60 -84 165q0 143 140 199v4q-113 58 -113 164
t80 168t217 62t215 -62t78 -172t-109 -156v-4q141 -49 142 -187q0 -111 -90 -176t-240 -65zM375 553v608l-238 -88l-63 154l338 133h153v-807h-190zM369 0l850 1350h200l-852 -1350h-198z" />
    <glyph glyph-name="threeeighths" unicode="&#x215c;" horiz-adv-x="1931" 
d="M299 1026q158 0 160 96q0 80 -103 80q-76 0 -184 -45l-47 146q151 59 277 59t196 -57t70 -148q0 -131 -136 -186v-4q78 -15 121 -63t43 -124q0 -106 -89 -174t-241 -68t-262 54l52 145q88 -41 186 -41q143 0 143 99q0 57 -59 77q-33 12 -104 13h-101v141h78zM1583 571
q0 35 -27 58q-26 23 -68 23t-68 -21q-26 -20 -25 -56q-1 -71 114 -104q74 37 74 100zM1368 231q0 -43 34 -67t83 -25q49 0 85 23t36 65q0 74 -152 113q-34 -10 -60 -38t-26 -71zM1484 -18q-150 0 -235 60q-84 60 -84 165q0 143 140 199v4q-113 58 -113 164t80 168t217 62
t215 -62t78 -172t-109 -156v-4q141 -49 142 -187q0 -111 -90 -176q-91 -65 -241 -65zM422 0l850 1350h201l-852 -1350h-199z" />
    <glyph glyph-name="fiveeighths" unicode="&#x215d;" horiz-adv-x="1931" 
d="M1581 571q0 35 -27 58q-26 23 -68 23t-68 -21q-26 -20 -25 -56q-1 -71 114 -104q74 37 74 100zM1366 231q0 -43 34 -67t83 -25q49 0 85 23t36 65q0 74 -152 113q-34 -10 -60 -38t-26 -71zM1812 223q0 -111 -90 -176t-240 -65t-235 60q-84 60 -84 165q0 143 140 199v4
q-113 58 -113 164t80 168t217 62t215 -62t78 -172t-109 -156v-4q141 -49 141 -187zM332 696q141 0 141 109q0 66 -63 88q-33 12 -115 12h-148v438h537l-39 -161h-307v-133h39q96 0 158 -25q147 -51 147 -219q0 -119 -86 -193t-244 -74t-264 54l53 149q100 -45 191 -45z
M408 0l849 1350h201l-852 -1350h-198z" />
    <glyph glyph-name="seveneighths" unicode="&#x215e;" horiz-adv-x="1931" 
d="M817 1346v-107q-133 -153 -206 -311t-115 -375h-222q82 362 291 631h-325l-43 162h620zM1571 571q0 35 -27 58q-26 23 -68 23t-68 -21q-26 -20 -26 -56q0 -71 115 -104q74 37 74 100zM1473 139q49 0 85 23t35 65q0 74 -151 113q-35 -10 -61 -38q-25 -28 -25 -71t34 -67
t83 -25zM1472 -18q-150 0 -235 60q-84 60 -84 165q0 143 139 199v4q-112 58 -112 164t80 168t217 62t215 -62t78 -172t-109 -156v-4q141 -49 141 -187q0 -111 -90 -176t-240 -65zM379 0l850 1350h201l-852 -1350h-199z" />
    <glyph glyph-name="partialdiff" unicode="&#x2202;" horiz-adv-x="1093" 
d="M487 174q109 0 188 120t87 353q-82 49 -190 49t-185 -84q-76 -84 -76 -204t49 -176q49 -58 127 -58zM467 -20q-186 0 -296 110t-110 316q1 206 139 346t347 139q111 0 198 -43l5 2q-23 147 -101 232q-77 85 -205 85t-260 -71l-67 174q162 92 350 92q262 0 404 -174
t143 -465q0 -339 -152 -541t-395 -202z" />
    <glyph glyph-name="Delta" unicode="&#x2206;" horiz-adv-x="1320" 
d="M604 860l-239 -651h593l-237 651q-41 111 -57 184h-2q-23 -82 -58 -184zM18 0l533 1356h219l533 -1356h-1285z" />
    <glyph glyph-name="product" unicode="&#x220f;" horiz-adv-x="1406" 
d="M211 -369v1510h-182v209h1374l-66 -209h-178v-1510h-248v1510h-454v-1510h-246z" />
    <glyph glyph-name="summation" unicode="&#x2211;" horiz-adv-x="1247" 
d="M1182 -160v-211h-1164l566 879l-533 842h1161l-65 -209h-662l389 -629l-417 -672h725z" />
    <glyph glyph-name="minus" unicode="&#x2212;" horiz-adv-x="1126" 
d="M82 412v202h965v-202h-965z" />
    <glyph glyph-name="radical" unicode="&#x221a;" horiz-adv-x="1421" 
d="M641 -250l-279 852l-200 -72l-66 189l424 155l170 -546q47 -162 74 -291h4q25 141 66 293l354 1364h244l-539 -1944h-252z" />
    <glyph glyph-name="infinity" unicode="&#x221e;" horiz-adv-x="1572" 
d="M1128 412q59 0 99 40q39 40 39 104t-38 104t-98 40t-112 -36q-51 -36 -111 -109q121 -143 221 -143zM444 412q102 0 220 143q-119 145 -220 145q-61 0 -99 -40t-38 -104t39 -104t98 -40zM420 195q-166 0 -262 104t-96 257t96 257q96 105 273 105t353 -207q82 96 169 151
t200 56q166 0 262 -104t96 -258q0 -153 -96 -257t-262 -104q-197 0 -369 206q-84 -98 -168 -152t-196 -54z" />
    <glyph glyph-name="integral" unicode="&#x222b;" horiz-adv-x="681" 
d="M182 -135v1239q0 168 88 257t222 89t221 -43l-47 -201q-68 27 -121 27q-119 0 -119 -133v-1239q0 -168 -88 -257t-221 -89t-221 43l47 200q68 -27 120 -26q119 0 119 133z" />
    <glyph glyph-name="approxequal" unicode="&#x2248;" horiz-adv-x="1126" 
d="M787 772q79 0 174 86l118 -156q-147 -145 -313 -145q-82 0 -215 58q-133 59 -211 59t-174 -86l-117 155q145 145 311 146q82 -1 215 -59t212 -58zM787 342q79 0 174 86l118 -156q-147 -145 -313 -145q-82 0 -215 58q-133 59 -211 59t-174 -86l-117 155q145 145 311 146
q82 -1 215 -59t212 -58z" />
    <glyph glyph-name="notequal" unicode="&#x2260;" horiz-adv-x="1126" 
d="M82 203v203h313l103 210h-416v203h514l86 174h244l-84 -174h205v-203h-304l-102 -210h406v-203h-504l-90 -187h-246l90 187h-215z" />
    <glyph glyph-name="lessequal" unicode="&#x2264;" horiz-adv-x="1126" 
d="M82 0v203h965v-203h-965zM123 580v208l876 291v-202l-639 -191v-4l639 -193v-204z" />
    <glyph glyph-name="greaterequal" unicode="&#x2265;" horiz-adv-x="1126" 
d="M82 0v203h965v-203h-965zM129 285v204l637 193v4l-637 191v202l875 -291v-208z" />
    <glyph glyph-name="lozenge" unicode="&#x25ca;" horiz-adv-x="983" 
d="M492 201h4l180 391l-182 391h-5l-180 -391zM383 0l-281 592l281 592h217l281 -592l-281 -592h-217z" />
    <glyph glyph-name="Imacron" horiz-adv-x="573" 
d="M-8 1442v186h583v-186h-583zM164 0v1350h246v-1350h-246z" />
    <glyph glyph-name="ibreve" horiz-adv-x="487" 
d="M121 0v969h246v-969h-246zM245 1108q-130 0 -211 76t-89 209h170q6 -61 40 -97t91 -36t91 36t40 97h168q-8 -133 -89 -209t-211 -76z" />
    <glyph glyph-name="zero.numr" horiz-adv-x="792" 
d="M396 696q118 0 118 254t-118 254t-118 -254t118 -254zM721 950q1 -196 -89 -304q-90 -107 -236 -107q-146 -1 -234 107t-88 306t88 303q88 107 234 107t236 -108t89 -304z" />
    <glyph glyph-name="Adieresis.small" horiz-adv-x="1130" 
d="M757 1180q-52 0 -88 37t-36 89t36 89t88 37t89 -37t37 -89t-37 -89t-89 -37zM368 1180q-52 0 -89 37t-37 89t37 89t89 37t89 -37t37 -89t-37 -89t-89 -37zM422 406h283l-78 208q-43 123 -60 181h-6q-35 -106 -61 -181zM14 0l451 1094h201l450 -1094h-260l-82 219h-422
l-82 -219h-256z" />
    <glyph glyph-name="Atilde.small" horiz-adv-x="1130" 
d="M422 406h283l-78 208q-43 123 -60 181h-6q-35 -106 -61 -181zM14 0l451 1094h201l450 -1094h-260l-82 219h-422l-82 -219h-256zM246 1192v80q0 80 47 125t117 45t158 -45t116 -45q27 0 35 17t8 61h160v-80q0 -80 -47 -125q-48 -45 -116 -45t-158 45t-118 45
q-26 0 -34 -18t-8 -60h-160z" />
    <glyph glyph-name="Acircumflex.small" horiz-adv-x="1130" 
d="M262 1153l205 301h197l206 -301h-192l-113 162l-110 -162h-193zM422 406h283l-78 208q-43 123 -60 181h-6q-35 -106 -61 -181zM14 0l451 1094h201l450 -1094h-260l-82 219h-422l-82 -219h-256z" />
    <glyph glyph-name="Aacute.small" horiz-adv-x="1130" 
d="M422 406h283l-78 208q-43 123 -60 181h-6q-35 -106 -61 -181zM14 0l451 1094h201l450 -1094h-260l-82 219h-422l-82 -219h-256zM463 1157l119 301h264l-197 -301h-186z" />
    <glyph glyph-name="Agrave.small" horiz-adv-x="1130" 
d="M422 406h283l-78 208q-43 123 -60 181h-6q-35 -106 -61 -181zM14 0l451 1094h201l450 -1094h-260l-82 219h-422l-82 -219h-256zM477 1159l-198 301h266l119 -301h-187z" />
    <glyph glyph-name="Z.small" horiz-adv-x="983" 
d="M938 197v-197h-891l524 889h-452l-66 196h887l-520 -888h518z" />
    <glyph glyph-name="Y.small" horiz-adv-x="1015" 
d="M629 0h-246v416l-371 669h252l142 -274q49 -96 98 -205h4q45 96 100 205l142 274h254l-375 -669v-416z" />
    <glyph glyph-name="X.small" horiz-adv-x="1126" 
d="M39 1085h264l264 -366l264 366h267l-396 -534l408 -551h-264l-281 389l-284 -389h-265l414 553z" />
    <glyph glyph-name="W.small" horiz-adv-x="1624" 
d="M1114 315h4q25 109 66 236l170 534h258l-391 -1091h-199l-125 354q-35 96 -76 234h-4q-29 -92 -84 -240l-135 -348h-199l-387 1091h260l174 -534q35 -106 66 -238h6q31 115 80 242l119 322l-70 208h234l166 -526q42 -142 67 -244z" />
    <glyph glyph-name="V.small" horiz-adv-x="1150" 
d="M573 285h5q47 137 86 231l221 569h254l-469 -1091h-189l-469 1091h256l221 -565q59 -159 84 -235z" />
    <glyph glyph-name="U.small" horiz-adv-x="1290" 
d="M1130 1085v-663q0 -221 -132 -332q-132 -110 -354 -110t-353 110t-131 332v663h243v-651q-1 -126 63 -194t179 -68t178 68t64 194v651h243z" />
    <glyph glyph-name="T.small" horiz-adv-x="960" 
d="M352 0v889h-327v196h938l-68 -196h-299v-889h-244z" />
    <glyph glyph-name="S.small" horiz-adv-x="958" 
d="M432 168q76 0 129 31t53 91t-49 101t-120 71t-141 66t-120 106q-49 69 -49 165q-1 137 101 222t270 85t303 -51v-201q-145 66 -274 66q-63 0 -107 -28t-45 -82q0 -54 49 -91t120 -65q72 -28 142 -64t119 -106q49 -71 49 -173q0 -151 -117 -241t-306 -90t-347 88l80 172
q137 -72 260 -72z" />
    <glyph glyph-name="R.small" horiz-adv-x="1101" 
d="M408 573h127q84 0 131 45t47 118t-46 118t-132 45h-127v-326zM408 387v-387h-244v1085h389q211 0 306 -94t95 -229q0 -217 -215 -289v-4q57 -37 131 -160l189 -309h-262l-156 260q-70 117 -119 127h-114z" />
    <glyph glyph-name="Q.small" horiz-adv-x="1333" 
d="M667 174q144 0 230 98t86 270t-86 271q-86 98 -230 98q-145 0 -231 -98t-86 -270t86 -271q87 -98 231 -98zM667 1106q253 0 409 -157t157 -393q0 -236 -128 -386t-339 -178v-4q78 -102 227 -103q59 0 107 19l53 -178q-82 -29 -182 -29q-314 0 -482 305q-180 50 -284 194
t-105 347q0 251 157 407t410 156z" />
    <glyph glyph-name="P.small" horiz-adv-x="1019" 
d="M408 541h92q94 0 140 49t46 131t-44 130t-136 48h-98v-358zM164 0v1085h346q200 0 308 -96t108 -264t-110 -269t-316 -102h-92v-354h-244z" />
    <glyph glyph-name="O.small" horiz-adv-x="1333" 
d="M100 543q0 251 157 407t410 156t409 -157t157 -407q0 -250 -157 -406q-158 -156 -410 -156t-409 156t-157 407zM667 174q144 0 230 98t86 270t-86 271q-86 98 -230 98q-145 0 -231 -98t-86 -270t86 -271q87 -98 231 -98z" />
    <glyph glyph-name="N.small" horiz-adv-x="1370" 
d="M963 608v477h245v-1085h-225l-405 514q-106 139 -172 238h-3q4 -156 5 -244v-508h-244v1085h235l385 -489q89 -109 179 -242h4q-4 119 -4 254z" />
    <glyph glyph-name="M.small" horiz-adv-x="1497" 
d="M164 0v1085h213l196 -284q82 -113 175 -260h4q53 90 172 260l194 284h217v-1085h-243v471q0 176 6 246h-6q-39 -70 -136 -209l-155 -234h-105l-155 234q-96 139 -135 209h-5q6 -70 7 -246v-471h-244z" />
    <glyph glyph-name="L.small" horiz-adv-x="845" 
d="M164 0v1085h244v-888h413v-197h-657z" />
    <glyph glyph-name="K.small" 
d="M164 0v1085h244v-477h4l381 477h264l-443 -546l467 -539h-282l-387 453h-4v-453h-244z" />
    <glyph glyph-name="J.small" horiz-adv-x="610" 
d="M203 57v1028h246v-1065q-1 -164 -93 -248t-272 -85q-104 -1 -174 30l49 185q49 -14 113 -14q132 -2 131 169z" />
    <glyph glyph-name="I.small" horiz-adv-x="569" 
d="M164 0v1085h244v-1085h-244z" />
    <glyph glyph-name="H.small" horiz-adv-x="1325" 
d="M164 0v1085h244v-436h512v436h243v-1085h-243v451h-512v-451h-244z" />
    <glyph glyph-name="G.small" horiz-adv-x="1228" 
d="M1079 524v-479q-164 -66 -383 -65q-280 0 -438 147t-158 404t170 416t435 159q178 0 323 -59v-207q-127 72 -304 72t-275 -108q-99 -108 -99 -272t94 -260q94 -98 256 -98q74 0 134 19v331h245z" />
    <glyph glyph-name="F.small" horiz-adv-x="923" 
d="M164 0v1085h690l-68 -196h-378v-273h380v-186h-380v-430h-244z" />
    <glyph glyph-name="E.small" horiz-adv-x="966" 
d="M164 0v1085h690l-66 -186h-380v-258h380v-186h-380v-269h432v-186h-676z" />
    <glyph glyph-name="D.small" horiz-adv-x="1243" 
d="M408 199h112q195 0 284 93t89 251q0 344 -383 344h-102v-688zM164 0v1085h354q295 0 460 -144t165 -395q0 -250 -169 -398t-458 -148h-352z" />
    <glyph glyph-name="C.small" horiz-adv-x="1089" 
d="M670 -20q-264 0 -417 150t-153 404q0 256 166 414t418 158q176 0 289 -62v-194q-121 61 -254 61q-177 0 -273 -106t-96 -270q0 -165 92 -263t247 -98t274 70l67 -176q-162 -88 -360 -88z" />
    <glyph glyph-name="B.small" horiz-adv-x="1081" 
d="M408 629h122q78 0 120 39t42 102t-42 102t-118 39h-124v-282zM408 174h141q195 0 194 150q0 143 -176 143h-159v-293zM993 319q0 -133 -104 -226t-318 -93h-407v1085h426q162 0 254 -84t92 -198q0 -154 -152 -230v-4q100 -25 155 -90q54 -66 54 -160z" />
    <glyph glyph-name="A.small" horiz-adv-x="1130" 
d="M422 406h283l-78 208q-43 123 -60 181h-6q-35 -106 -61 -181zM14 0l451 1094h201l450 -1094h-260l-82 219h-422l-82 -219h-256z" />
    <glyph glyph-name="four.OT" 
d="M498 186h135v187q0 143 8 274l-322 -469q106 8 179 8zM72 0v137l606 858h196v-805h183v-190h-183v-326l-241 -73v399h-561z" />
    <glyph glyph-name="three.OT" 
d="M391 -205q141 1 235 59t93 173q0 190 -299 190h-187v186h64q104 0 184 19q209 55 209 225q0 82 -53 126t-135 44q-135 0 -309 -96l-82 168q197 123 407 123t316 -96t106 -228q0 -133 -63 -216t-156 -116v-4q117 -18 183 -104t65 -188q0 -102 -28 -174
q-109 -285 -548 -285q-186 0 -307 43l53 188q111 -37 252 -37z" />
    <glyph glyph-name="two.OT" 
d="M514 817q-133 0 -289 -96l-78 170q180 121 416 121q162 0 257 -77t95 -215t-132 -244q-58 -46 -118 -88q-162 -113 -204 -198h479v-190h-811q12 129 73 229q60 101 136 161t150 110t125 99t51 103t-38 84t-112 31z" />
    <glyph glyph-name="one.OT" 
d="M580 0v762l-338 -139l-72 182l463 190h188v-995h-241z" />
    <glyph glyph-name="zero.OT" 
d="M555 174q213 0 213 322t-213 321q-213 1 -213 -321t213 -322zM555 -20q-211 0 -337 144t-126 372t126 371q126 145 337 145t337 -144t126 -372t-126 -372t-337 -144z" />
    <glyph glyph-name="yen.OP" 
d="M434 0v154h-237v151h237v121h-237v149h157l-250 469h246l203 -415h4l203 415h244l-250 -469h159v-149h-239v-121h239v-151h-239v-154h-240z" />
    <glyph glyph-name="sterling.OP" 
d="M178 0v139q133 41 137 307h-116v164h116v99q1 152 101 253t297 101q133 0 239 -47l-47 -187q-82 39 -165 39t-135 -47t-52 -145v-66h324l-56 -164h-268q-4 -188 -72 -276l2 -4q70 12 174 12h285v-178h-764z" />
    <glyph glyph-name="dollar.OP" 
d="M449 -139v170q-160 16 -279 80l76 170q121 -70 264 -70q174 0 174 100q0 77 -169 139q-71 26 -141 58t-118 95q-49 61 -49 159t71 169t205 91v158h166v-156q113 -6 219 -43v-201q-144 66 -284 66t-140 -86q0 -41 50 -71q50 -31 120 -55t140 -56t118 -96q48 -65 50 -169
q0 -104 -84 -182t-224 -96v-174h-165z" />
    <glyph glyph-name="Euro.OP" 
d="M125 315v138h100q-4 45 -4 64t4 73h-100v137h127q49 160 175 248q127 88 283 88t267 -51v-197q-106 59 -229 59q-176 0 -246 -147h393l-53 -137h-379q-4 -27 -4 -69t4 -68h379l-54 -138h-290q63 -147 235 -147q125 0 223 61l64 -170q-127 -79 -305 -79t-298 89t-167 246
h-125z" />
    <glyph glyph-name="nine.OP" horiz-adv-x="1155" 
d="M570 322q108 0 218 69q8 39 9 96q0 152 -66 241t-168 89t-163 -68q-60 -69 -60 -184t61 -179t169 -64zM502 127q-174 0 -293 111q-119 112 -119 316t134 331t348 127t346 -144t133 -393q-1 -299 -181 -537t-561 -358l-71 178q176 59 317 169t186 259l-4 2
q-111 -61 -235 -61z" />
    <glyph glyph-name="eight.OP" horiz-adv-x="1171" 
d="M772 991q0 78 -52 129t-137 51t-137 -47q-52 -46 -53 -126t63 -127t175 -80q141 74 141 200zM590 170q98 0 163 49t64 137q0 114 -101 168q-65 36 -194 76q-68 -29 -116 -86t-50 -145q0 -87 68 -143t166 -56zM1075 377q1 -177 -129 -287t-362 -110t-361 102
q-127 102 -127 272q0 119 65 207t171 133v4q-197 111 -197 297q0 160 125 263q125 104 332 104q206 0 322 -104t116 -244q0 -201 -205 -307v-5q250 -96 250 -325z" />
    <glyph glyph-name="seven.OP" horiz-adv-x="1003" 
d="M971 995v-86q-344 -451 -522 -1224l-275 -93q137 692 469 1213h-567l-53 190h948z" />
    <glyph glyph-name="six.OP" horiz-adv-x="1155" 
d="M813 422q0 244 -230 244q-118 0 -227 -95v-45q0 -170 69 -261t170 -91t160 67q58 67 58 181zM677 866q157 0 273 -112t115 -316q0 -206 -134 -332t-347 -126t-346 145t-134 420q0 322 199 552t541 308l55 -182q-203 -53 -340 -169t-176 -280l2 -2q135 94 292 94z" />
    <glyph glyph-name="five.OP" horiz-adv-x="1013" 
d="M339 -205q142 0 231 76q89 75 89 195t-88 170q-78 49 -252 49h-169l65 710h756l-45 -190h-486l-30 -342h34q180 0 285 -60q182 -100 182 -323q0 -174 -121 -318q-62 -74 -182 -118t-288 -43q-168 0 -295 47l55 190q117 -43 259 -43z" />
    <glyph glyph-name="four.OP" 
d="M498 186h135v187q0 143 8 274l-322 -469q106 8 179 8zM72 0v137l606 858h196v-805h183v-190h-183v-326l-241 -73v399h-561z" />
    <glyph glyph-name="three.OP" horiz-adv-x="1073" 
d="M369 -205q141 1 234 59t93 173q0 190 -299 190h-188v186h65q106 0 183 19q211 55 211 225q0 82 -54 126t-135 44q-135 0 -309 -96l-82 168q196 123 406 123t316 -96t108 -228q0 -133 -64 -216t-156 -116v-4q117 -18 183 -104q65 -86 65 -188t-28 -174t-90 -140t-180 -106
t-292 -39q-174 0 -293 43l54 188q111 -37 252 -37z" />
    <glyph glyph-name="two.OP" horiz-adv-x="1011" 
d="M616 702q0 54 -38 84t-111 31q-133 0 -289 -96l-78 170q182 121 416 121q162 0 257 -77t95 -215t-132 -244q-58 -46 -118 -88q-160 -111 -204 -198h479v-190h-811q12 129 73 229q60 101 136 161q77 60 151 110t124 99t50 103z" />
    <glyph glyph-name="one.OP" horiz-adv-x="880" 
d="M424 0v762l-266 -117l-72 180l389 170h191v-995h-242z" />
    <glyph glyph-name="zero.OP" 
d="M555 174q207 0 207 322t-207 321q-207 1 -207 -321t207 -322zM555 -20q-209 0 -333 144t-124 372t123 372t334 144t334 -144t123 -371q0 -229 -124 -373t-333 -144z" />
    <glyph glyph-name="yen.LT" horiz-adv-x="1116" 
d="M436 0v229h-319v154h319v152h-319v153h245l-313 662h262l246 -594h2l244 594h264l-315 -662h247v-153h-319v-152h319v-154h-319v-229h-244z" />
    <glyph glyph-name="sterling.LT" horiz-adv-x="1116" 
d="M123 0v156q186 57 186 432h-145v200h145v123q0 105 30 189t76 132q125 130 335 130q137 0 274 -53l-53 -197q-81 43 -187 43t-170 -68t-63 -204v-95h385l-64 -200h-321q-4 -305 -121 -406v-4q131 23 252 23h334v-201h-893z" />
    <glyph glyph-name="five.OT" 
d="M378 -205q142 0 231 76q89 77 89 195t-88 170q-78 49 -254 49h-168l66 710h756l-47 -190h-484l-33 -342h37q178 0 285 -60q180 -100 180 -323q0 -147 -76 -259q-147 -223 -505 -220q-177 0 -304 47l56 190q117 -43 259 -43z" />
    <glyph glyph-name="six.OT" 
d="M330 526q0 -170 70 -261t170 -91q101 0 160 67q58 67 58 181t-57 180q-57 64 -173 64t-228 -95v-45zM653 866q156 0 271 -112q114 -112 114 -316q0 -206 -134 -332t-346 -126t-346 145t-134 420q0 322 198 552q199 230 541 308l55 -182q-203 -53 -340 -169t-176 -280
l2 -2q139 94 295 94z" />
    <glyph glyph-name="seven.OT" 
d="M1055 995v-86q-195 -257 -338 -581t-217 -643l-273 -93q121 614 500 1213h-588l-55 190h971z" />
    <glyph glyph-name="eight.OT" 
d="M745 991q0 78 -51 129t-137 51t-138 -47q-52 -46 -52 -126t63 -127t174 -80q141 74 141 200zM563 170q98 0 163 49t65 137q0 113 -101 168q-51 29 -89 42t-105 34q-68 -29 -117 -86t-49 -145t67 -144q68 -55 166 -55zM1049 377q0 -177 -130 -287q-131 -110 -363 -110
t-358 102t-126 272q0 119 64 207q65 88 169 133v4q-197 111 -196 297q0 160 124 263q125 104 332 104t324 -104t117 -244q0 -201 -205 -307v-5q248 -98 248 -325z" />
    <glyph glyph-name="nine.OT" 
d="M554 322q108 0 216 69q10 35 10 96q0 152 -66 241q-67 89 -169 89t-162 -68q-59 -69 -59 -184t61 -179t169 -64zM483 127q-174 0 -293 111q-118 112 -118 316t135 331t348 127t346 -144t133 -393q0 -193 -72 -359t-241 -310q-170 -144 -428 -226l-74 178q174 59 317 169
q142 110 189 259l-4 2q-111 -61 -238 -61z" />
    <glyph glyph-name="Euro.OT" 
d="M125 315v138h100q-4 45 -4 64t4 73h-100v137h127q49 160 175 248q127 88 283 88t267 -51v-197q-106 59 -229 59q-176 0 -246 -147h393l-53 -137h-379q-4 -27 -4 -69t4 -68h379l-54 -138h-290q63 -147 235 -147q125 0 223 61l64 -170q-127 -79 -305 -79t-298 89t-167 246
h-125z" />
    <glyph glyph-name="dollar.OT" 
d="M449 -139v170q-160 16 -279 80l76 170q121 -70 264 -70q174 0 174 100q0 77 -169 139q-71 26 -141 58t-118 95q-49 61 -49 159t71 169t205 91v158h166v-156q113 -6 219 -43v-201q-144 66 -284 66t-140 -86q0 -41 50 -71q50 -31 120 -55t140 -56t118 -96q48 -65 50 -169
q0 -104 -84 -182t-224 -96v-174h-165z" />
    <glyph glyph-name="sterling.OT" 
d="M178 0v139q133 41 137 307h-116v164h116v99q1 152 101 253t297 101q133 0 239 -47l-47 -187q-82 39 -165 39t-135 -47t-52 -145v-66h324l-56 -164h-268q-4 -188 -72 -276l2 -4q70 12 174 12h285v-178h-764z" />
    <glyph glyph-name="yen.OT" 
d="M434 0v154h-237v151h237v121h-237v149h157l-250 469h246l203 -415h4l203 415h244l-250 -469h159v-149h-239v-121h239v-151h-239v-154h-240z" />
    <glyph glyph-name="zero.small" horiz-adv-x="1036" 
d="M516 174q178 0 178 369t-178 368t-178 -369t178 -368zM516 -20q-202 0 -314 146t-112 416t113 417t313 147t314 -146q112 -146 112 -417t-112 -417t-314 -146z" />
    <glyph glyph-name="one.small" horiz-adv-x="802" 
d="M375 0v842l-258 -115l-80 186l401 181h178v-1094h-241z" />
    <glyph glyph-name="two.small" horiz-adv-x="966" 
d="M860 0h-809q12 218 122 358q84 107 221 200q56 38 104 73q104 77 104 157q0 60 -44 92t-118 31q-127 0 -290 -80l-66 181q201 94 388 94q186 0 282 -82t96 -231t-149 -265q-65 -51 -133 -98q-179 -124 -224 -244h516v-186z" />
    <glyph glyph-name="three.small" horiz-adv-x="948" 
d="M840 324q0 -152 -117 -248t-350 -96q-180 0 -342 65l69 180q121 -51 256 -51q236 0 236 150q0 72 -56 102t-167 31h-174v182h145q219 0 219 143q0 56 -40 94t-116 37q-127 0 -276 -71l-68 176q185 88 371 88t282 -87t95 -210q0 -162 -158 -240v-4q91 -27 141 -90t50 -151
z" />
    <glyph glyph-name="four.small" horiz-adv-x="1058" 
d="M451 434h124v168q1 74 7 172l-260 -344q74 4 129 4zM80 244v149l536 701h193v-660h168v-190h-168v-244h-240v244h-489z" />
    <glyph glyph-name="five.small" horiz-adv-x="940" 
d="M338 174q116 0 185 44t69 135t-96 122q-63 20 -187 21h-176v589h727l-61 -186h-430v-223h26q150 0 242 -37q203 -78 203 -287q0 -166 -121 -269t-361 -103q-172 -1 -319 65l67 180q116 -51 232 -51z" />
    <glyph glyph-name="six.small" horiz-adv-x="1003" 
d="M529 168q161 0 161 172q0 82 -46 130t-135 48t-175 -63q2 -127 58 -207t137 -80zM518 -20q-186 0 -308 138q-120 138 -120 388t141 425t381 175q145 0 279 -57l-70 -177q-99 46 -205 46t-187 -77t-95 -206q112 65 254 65t242 -91t102 -257q0 -166 -114 -269t-300 -103z
" />
    <glyph glyph-name="seven.small" horiz-adv-x="897" 
d="M868 1085v-92q-366 -387 -489 -993h-248q106 502 412 889h-461l-62 196h848z" />
    <glyph glyph-name="eight.small" horiz-adv-x="1019" 
d="M365 801q0 -117 178 -164q47 23 77 65t30 94t-39 90q-38 38 -103 38t-104 -34t-39 -89zM332 301q0 -63 51 -101t128 -38t126 35t49 96q0 121 -225 182q-53 -23 -91 -67t-38 -107zM928 299q0 -137 -112 -228t-306 -91t-306 87t-112 224q0 184 191 268v4q-158 82 -158 240
q0 131 105 217q106 86 286 86t276 -87t97 -208q0 -160 -162 -242v-4q201 -78 201 -266z" />
    <glyph glyph-name="nine.small" horiz-adv-x="997" 
d="M311 739q0 -172 179 -172q91 0 174 78q-2 133 -58 203t-133 70q-78 0 -120 -50t-42 -129zM382 168q116 0 198 77t86 218q-111 -78 -251 -78t-241 87q-100 87 -100 253q0 165 112 273t296 108t304 -138t121 -400q0 -262 -133 -426q-133 -163 -389 -162q-160 0 -293 61
l62 176q112 -49 228 -49z" />
    <glyph glyph-name="Euro.small" horiz-adv-x="968" 
d="M37 330v139h104q-6 76 2 143h-106v142h131q49 168 175 260q125 92 283 92t267 -47v-201q-111 53 -212 53q-203 0 -257 -157h383l-53 -142h-367q-10 -74 0 -143h365l-56 -139h-276q55 -156 231 -156q127 0 219 53l72 -174q-127 -73 -308 -73t-301 93t-167 257h-129z" />
    <glyph glyph-name="dollar.small" horiz-adv-x="972" 
d="M360 -145v174q-143 18 -258 90l86 168q129 -74 252 -74q152 0 152 100q0 49 -47 86t-115 67t-136 66t-114 100q-47 64 -47 158t67 174t197 97v166h183v-162q119 -12 200 -55v-197q-152 70 -276 70t-125 -88q0 -45 47 -81t115 -67q67 -31 135 -67t115 -100q47 -65 47 -168
t-77 -182t-218 -99v-176h-183z" />
    <glyph glyph-name="sterling.small" horiz-adv-x="978" 
d="M92 0v154q158 45 158 303h-123v186h123v92q0 193 117 282t258 89t268 -51l-57 -183q-82 41 -168 41t-133 -51t-48 -143v-76h330l-65 -186h-265q-4 -184 -86 -275l2 -4q57 8 215 8h265v-186h-791z" />
    <glyph glyph-name="yen.small" horiz-adv-x="950" 
d="M860 569v-145h-268v-115h268v-145h-268v-164h-238v164h-268v145h268v115h-268v145h201l-246 516h256l174 -450h4l176 450h256l-245 -516h198z" />
    <glyph glyph-name="six.LT" horiz-adv-x="1116" 
d="M592 178q102 0 156 62t53 177q1 115 -59 181t-158 66q-61 0 -131 -27t-115 -66q4 -189 78 -291t176 -102zM652 864q175 0 291 -112t116 -315q0 -205 -131 -331t-346 -126t-360 161q-144 162 -144 479q0 318 166 530t444 212q166 0 301 -64l-63 -190q-109 55 -239 55
t-230 -99t-125 -298q145 98 320 98z" />
    <glyph glyph-name="seven.LT" horiz-adv-x="1116" 
d="M1079 1350v-86q-428 -494 -577 -1264h-256q139 680 497 1141h-561l-61 209h958z" />
    <glyph glyph-name="eight.LT" horiz-adv-x="1116" 
d="M565 1171q-86 0 -138 -47q-52 -46 -52 -126t63 -127t176 -80q139 74 140 200q0 78 -52 129t-137 51zM338 370q0 -88 68 -144t167 -56q98 0 162 49q63 49 64 137q0 125 -134 188q-46 22 -76 30t-83 26q-70 -29 -119 -85t-49 -145zM1059 377q0 -177 -130 -287
q-129 -110 -363 -110t-360 102t-126 272q0 119 64 207q65 88 169 133v4q-197 113 -196 297q0 160 125 263q126 104 332 104t323 -104t117 -244q0 -201 -205 -307v-5q250 -98 250 -325z" />
    <glyph glyph-name="nine.LT" horiz-adv-x="1116" 
d="M553 678q143 0 246 115q0 164 -69 267t-173 103t-162 -67q-57 -68 -57 -180t56 -176q57 -62 159 -62zM444 -20q-180 0 -321 67l59 197q127 -66 256 -66q315 0 359 397h-4q-123 -96 -297 -96q-174 -1 -292 105t-118 314t131 336t348 128t353 -159t135 -497
q0 -338 -155 -532t-454 -194z" />
    <glyph glyph-name="Euro.LT" horiz-adv-x="1116" 
d="M727 -20q-215 0 -355 120t-188 328h-141v154h119q-4 53 -4 91t6 87h-121v153h150q57 203 201 326t351 123q162 0 279 -62v-229q-126 78 -242 78q-231 0 -317 -236h498l-52 -153h-483q-6 -37 -6 -89t4 -89h471l-53 -154h-385q82 -236 299 -235q129 -1 233 71l92 -192
q-141 -92 -356 -92z" />
    <glyph glyph-name="dollar.LT" horiz-adv-x="1116" 
d="M432 -176v211q-170 18 -307 108l96 183q147 -96 283 -97q207 0 207 144q-1 67 -57 117t-137 92t-162 88q-81 47 -137 128q-56 80 -56 196t82 212t233 115v201h178v-197q139 -14 238 -68v-204q-160 82 -305 82q-80 0 -127 -34t-47 -97q0 -64 56 -114t137 -90t161 -86
t136 -127t56 -208t-92 -222t-258 -120v-213h-178z" />
    <glyph glyph-name="plusinferior" horiz-adv-x="817" 
d="M326 -303v256h-234v151h234v248h163v-248h236v-151h-236v-256h-163z" />
    <glyph glyph-name="minusinferior" horiz-adv-x="817" 
d="M92 -47v151h633v-151h-633z" />
    <glyph glyph-name="equalinferior" horiz-adv-x="817" 
d="M92 92v152h633v-152h-633zM92 -186v151h633v-151h-633z" />
    <glyph glyph-name="five.LT" horiz-adv-x="1116" 
d="M739 420q0 141 -125 188q-78 31 -245 31h-168v711h809l-62 -209h-508v-307h54q323 0 443 -186q62 -95 62 -214q0 -203 -138 -329t-417 -125q-203 -1 -346 73l68 193q129 -60 267 -60t222 60t84 174z" />
    <glyph glyph-name="four.LT" horiz-adv-x="1116" 
d="M649 530v193q0 70 10 264l-321 -461l168 4h143zM76 330v164l633 866h182v-830h186v-200h-186v-330h-242v330h-573z" />
    <glyph glyph-name="three.LT" horiz-adv-x="1116" 
d="M745 395q0 133 -143 170q-57 16 -164 17h-180v196h145q301 0 302 197q1 84 -53 132t-154 48q-154 0 -328 -92l-66 190q213 109 425 109t323 -104t111 -259q0 -205 -207 -292v-5q116 -24 182 -104t66 -199q0 -186 -140 -303t-407 -116q-221 -1 -387 75l67 195
q145 -63 303 -64q305 0 305 209z" />
    <glyph glyph-name="two.LT" horiz-adv-x="1116" 
d="M743 990q0 82 -59 123q-59 42 -149 42q-156 0 -349 -92l-63 190q221 109 441 109t330 -97t110 -257q0 -106 -54 -196t-137 -155q-82 -66 -167 -128t-157 -145t-94 -175h623v-209h-942q16 188 91 332t170 227q95 82 187 148t156 133q63 68 63 150z" />
    <glyph glyph-name="Amacron.small" horiz-adv-x="1130" 
d="M422 406h283l-78 208q-43 123 -60 181h-6q-35 -106 -61 -181zM14 0l451 1094h201l450 -1094h-260l-82 219h-422l-82 -219h-256zM272 1237v184h584v-184h-584z" />
    <glyph glyph-name="Ccircumflex.small" horiz-adv-x="1089" 
d="M338 1159l205 301h196l207 -301h-192l-113 162l-111 -162h-192zM670 -20q-264 0 -417 150t-153 404q0 256 166 414t418 158q176 0 289 -62v-194q-121 61 -254 61q-177 0 -273 -106t-96 -270q0 -165 92 -263t247 -98t274 70l67 -176q-162 -88 -360 -88z" />
    <glyph glyph-name="Abreve.small" horiz-adv-x="1130" 
d="M422 406h283l-78 208q-43 123 -60 181h-6q-35 -106 -61 -181zM14 0l451 1094h201l450 -1094h-260l-82 219h-422l-82 -219h-256zM563 1331q57 0 91 36t40 97h168q-8 -133 -89 -209q-81 -75 -211 -75t-211 76t-89 208h170q6 -61 40 -97t91 -36z" />
    <glyph glyph-name="Ccaron.small" horiz-adv-x="1089" 
d="M670 -20q-264 0 -417 150t-153 404q0 256 166 414t418 158q176 0 289 -62v-194q-121 61 -254 61q-177 0 -273 -106t-96 -270q0 -165 92 -263t247 -98t274 70l67 -176q-162 -88 -360 -88zM532 1159l-206 301h194l113 -160l110 160h191l-205 -301h-197z" />
    <glyph glyph-name="Cdotaccent.small" horiz-adv-x="1089" 
d="M627 1192q-63 0 -108 42q-44 42 -44 103t44 105q43 44 107 43q64 0 107 -42q43 -43 43 -105t-43 -104t-106 -42zM670 -20q-264 0 -417 150t-153 404q0 256 166 414t418 158q176 0 289 -62v-194q-121 61 -254 61q-177 0 -273 -106t-96 -270q0 -165 92 -263t247 -98t274 70
l67 -176q-162 -88 -360 -88z" />
    <glyph glyph-name="Ccedilla.small" horiz-adv-x="1089" 
d="M530 -315q100 0 101 65q0 41 -42 55t-126 15l53 174q-196 39 -306 181t-110 349q0 266 166 424t418 158q176 0 289 -62v-194q-121 61 -254 61q-177 0 -273 -106t-96 -270q0 -165 92 -263t247 -98t274 70l67 -176q-158 -84 -338 -88l-24 -80q172 -14 172 -152
q0 -82 -73 -132t-214 -50q-86 -1 -154 22l33 113q53 -16 98 -16z" />
    <glyph glyph-name="Dcaron.small" horiz-adv-x="1243" 
d="M408 199h112q195 0 284 93t89 251q0 344 -383 344h-102v-688zM164 0v1085h354q295 0 460 -144t165 -395q0 -250 -169 -398t-458 -148h-352zM492 1159l-207 301h194l113 -160l110 160h191l-205 -301h-196z" />
    <glyph glyph-name="Dcroat.small" horiz-adv-x="1243" 
d="M408 199h112q195 0 284 93t89 251q0 344 -383 344h-102v-248h227v-186h-227v-254zM164 0v453h-125v186h125v446h354q295 0 460 -144t165 -395q0 -250 -169 -398t-458 -148h-352z" />
    <glyph glyph-name="Egrave.small" horiz-adv-x="966" 
d="M164 0v1085h690l-66 -186h-380v-258h380v-186h-380v-269h432v-186h-676zM434 1159l-198 301h266l119 -301h-187z" />
    <glyph glyph-name="Eacute.small" horiz-adv-x="966" 
d="M164 0v1085h690l-66 -186h-380v-258h380v-186h-380v-269h432v-186h-676zM383 1159l119 301h264l-197 -301h-186z" />
    <glyph glyph-name="Ecircumflex.small" horiz-adv-x="966" 
d="M199 1159l204 301h197l207 -301h-193l-112 162l-111 -162h-192zM164 0v1085h690l-66 -186h-380v-258h380v-186h-380v-269h432v-186h-676z" />
    <glyph glyph-name="Ecaron.small" horiz-adv-x="966" 
d="M164 0v1085h690l-66 -186h-380v-258h380v-186h-380v-269h432v-186h-676zM401 1159l-206 301h194l113 -160l110 160h191l-205 -301h-197z" />
    <glyph glyph-name="Edieresis.small" horiz-adv-x="966" 
d="M699 1180q-52 0 -88 37t-36 89t36 89t88 37t89 -37t37 -89t-37 -89t-89 -37zM310 1180q-52 0 -89 37t-37 89t37 89t89 37t89 -37t37 -89t-37 -89t-89 -37zM164 0v1085h690l-66 -186h-380v-258h380v-186h-380v-269h432v-186h-676z" />
    <glyph glyph-name="Emacron.small" horiz-adv-x="966" 
d="M164 0v1085h690l-66 -186h-380v-258h380v-186h-380v-269h432v-186h-676zM205 1237v184h583v-184h-583z" />
    <glyph glyph-name="Aring.small" horiz-adv-x="1130" 
d="M564 1368q-38 0 -60 -25t-23 -69q1 -44 23 -70q22 -24 60 -24t61 24t22 70t-23 70t-60 24zM567 795h-6q-35 -106 -61 -181l-78 -208h283l-78 208q-44 124 -60 181zM803 1274q0 -139 -137 -182l450 -1092h-260l-82 219h-422l-82 -219h-256l449 1092q-137 40 -137 194
q0 80 66 133q67 53 173 53t172 -54t66 -144z" />
    <glyph glyph-name="Ebreve.small" horiz-adv-x="966" 
d="M164 0v1085h690l-66 -186h-380v-258h380v-186h-380v-269h432v-186h-676zM504 1331q57 0 91 36t40 97h168q-8 -133 -89 -209q-81 -75 -211 -75t-211 76t-89 208h170q6 -61 40 -97t91 -36z" />
    <glyph glyph-name="Aringacute.small" horiz-adv-x="1130" 
d="M481 1274q0 -45 23 -70q22 -24 60 -24t61 24t22 70t-23 70t-60 24t-60 -24t-23 -70zM422 406h283l-78 208q-43 123 -60 181h-6q-35 -106 -61 -181zM803 1265q0 -130 -137 -173l450 -1092h-260l-82 219h-422l-82 -219h-256l449 1092q-63 18 -101 66q-36 48 -36 122t52 126
t140 62l100 263h267l-191 -287q109 -49 109 -179z" />
    <glyph glyph-name="Aogonek.small" horiz-adv-x="1130" 
d="M422 406h283l-78 208q-43 123 -60 181h-6q-35 -106 -61 -181zM866 -223q0 -72 70 -72q33 0 76 12l28 -131q-86 -24 -174 -24t-146 47q-56 47 -56 127q0 135 190 270l-80 213h-422l-82 -219h-256l451 1094h201l450 -1094q-110 -32 -180 -96t-70 -127z" />
    <glyph glyph-name="Edotaccent.small" horiz-adv-x="966" 
d="M506 1192q-63 0 -108 42q-44 42 -44 103t44 105t108 43q64 0 106 -42q43 -43 43 -105t-43 -104t-106 -42zM164 0v1085h690l-66 -186h-380v-258h380v-186h-380v-269h432v-186h-676z" />
    <glyph glyph-name="Eogonek.small" horiz-adv-x="966" 
d="M840 0h-45q-91 -45 -147 -103t-56 -120q0 -72 70 -72q33 0 75 12l27 -131q-82 -24 -172 -24t-147 47q-56 47 -56 127q0 139 180 264h-405v1085h690l-66 -186h-380v-258h380v-186h-380v-269h432v-186z" />
    <glyph glyph-name="Gcircumflex.small" horiz-adv-x="1228" 
d="M338 1159l205 301h196l207 -301h-192l-113 162l-111 -162h-192zM1079 524v-479q-164 -66 -383 -65q-280 0 -438 147t-158 404t170 416t435 159q178 0 323 -59v-207q-127 72 -304 72t-275 -108q-99 -108 -99 -272t94 -260q94 -98 256 -98q74 0 134 19v331h245z" />
    <glyph glyph-name="Gbreve.small" horiz-adv-x="1228" 
d="M1079 524v-479q-164 -66 -383 -65q-280 0 -438 147t-158 404t170 416t435 159q178 0 323 -59v-207q-127 72 -304 72t-275 -108q-99 -108 -99 -272t94 -260q94 -98 256 -98q74 0 134 19v331h245zM645 1331q57 0 91 36t40 97h168q-8 -133 -89 -209q-81 -75 -211 -75
t-211 76t-89 208h170q6 -61 40 -97t91 -36z" />
    <glyph glyph-name="Gdotaccent.small" horiz-adv-x="1228" 
d="M657 1192q-63 0 -107 42t-44 103t44 105t107 43q63 0 107 -42q44 -43 43 -105q1 -62 -43 -104t-107 -42zM1079 524v-479q-164 -66 -383 -65q-280 0 -438 147t-158 404t170 416t435 159q178 0 323 -59v-207q-127 72 -304 72t-275 -108q-99 -108 -99 -272t94 -260
q94 -98 256 -98q74 0 134 19v331h245z" />
    <glyph glyph-name="Gcommaaccent.small" horiz-adv-x="1228" 
d="M827 -254q0 -194 -307 -231l-59 147q152 31 151 125q0 51 -41 107h209q47 -70 47 -148zM1079 524v-479q-164 -66 -383 -65q-280 0 -438 147t-158 404t170 416t435 159q178 0 323 -59v-207q-127 72 -304 72t-275 -108q-99 -108 -99 -272t94 -260q94 -98 256 -98
q74 0 134 19v331h245z" />
    <glyph glyph-name="Hcircumflex.small" horiz-adv-x="1325" 
d="M358 1159l205 301h197l207 -301h-193l-112 162l-111 -162h-193zM164 0v1085h244v-436h512v436h243v-1085h-243v451h-512v-451h-244z" />
    <glyph glyph-name="Hbar.small" horiz-adv-x="1325" 
d="M408 649h512v146h-512v-146zM164 0v795h-109v157h109v133h244v-133h512v133h243v-133h109v-157h-109v-795h-243v451h-512v-451h-244z" />
    <glyph glyph-name="Igrave.small" horiz-adv-x="569" 
d="M164 0v1085h244v-1085h-244zM217 1159l-199 301h267l118 -301h-186z" />
    <glyph glyph-name="Iacute.small" horiz-adv-x="569" 
d="M164 0v1085h244v-1085h-244zM166 1159l119 301h264l-197 -301h-186z" />
    <glyph glyph-name="Icircumflex.small" horiz-adv-x="569" 
d="M-20 1159l204 301h197l207 -301h-193l-112 162l-111 -162h-192zM164 0v1085h244v-1085h-244z" />
    <glyph glyph-name="Itilde.small" horiz-adv-x="569" 
d="M164 0v1085h244v-1085h-244zM-37 1192v80q0 80 47 125t117 45t159 -45q90 -45 116 -45t34 17t8 61h160v-80q0 -80 -47 -125t-115 -45t-159 45q-90 45 -117 45t-35 -18t-8 -60h-160z" />
    <glyph glyph-name="AE.small" horiz-adv-x="1556" 
d="M483 406h281l-45 208q-27 106 -35 181h-4q-25 -57 -86 -181zM1378 641v-186h-401l61 -269h392v-186h-578l-47 219h-420l-115 -219h-258l602 1085h830l-68 -186h-502l60 -258h444z" />
    <glyph glyph-name="Idieresis.small" horiz-adv-x="569" 
d="M481 1180q-51 0 -88 37t-37 89t36 89t88 37t89 -37t37 -89t-37 -89t-88 -37zM91 1180q-52 0 -89 37t-37 89t37 89t89 37t89 -37t37 -89t-37 -89t-89 -37zM164 0v1085h244v-1085h-244z" />
    <glyph glyph-name="Imacron.small" horiz-adv-x="569" 
d="M164 0v1085h244v-1085h-244zM-6 1237v184h584v-184h-584z" />
    <glyph glyph-name="AEacute.small" horiz-adv-x="1556" 
d="M483 406h281l-45 208q-27 106 -35 181h-4q-25 -57 -86 -181zM1378 641v-186h-401l61 -269h392v-186h-578l-47 219h-420l-115 -219h-258l602 1085h830l-68 -186h-502l60 -258h444zM760 1159l119 301h264l-197 -301h-186z" />
    <glyph glyph-name="Ibreve.small" horiz-adv-x="569" 
d="M164 0v1085h244v-1085h-244zM282 1331q58 0 92 36t40 97h168q-8 -133 -89 -209q-81 -75 -211 -75t-211 76t-89 208h170q6 -61 40 -97q32 -36 90 -36z" />
    <glyph glyph-name="Iogonek.small" horiz-adv-x="569" 
d="M305 -295q31 0 74 12l27 -131q-80 -24 -170 -24t-148 49q-57 49 -57 139q0 141 133 254v1081h244v-1085q-175 -94 -177 -219q0 -76 74 -76z" />
    <glyph glyph-name="IJ.small" horiz-adv-x="1179" 
d="M772 57v1028h246v-1065q0 -164 -92 -248t-273 -85q-104 -1 -174 30l49 185q49 -14 113 -14q131 -2 131 169zM164 0v1085h244v-1085h-244z" />
    <glyph glyph-name="Jcircumflex.small" horiz-adv-x="610" 
d="M18 1159l205 301h197l207 -301h-193l-112 162l-111 -162h-193zM203 57v1028h246v-1065q-1 -164 -93 -248t-272 -85q-104 -1 -174 30l49 185q49 -14 113 -14q132 -2 131 169z" />
    <glyph glyph-name="Kcommaaccent.small" 
d="M504 -213q0 51 -41 107h209q47 -70 47 -148q0 -194 -307 -231l-60 147q152 31 152 125zM164 0v1085h244v-477h4l381 477h264l-443 -546l467 -539h-282l-387 453h-4v-453h-244z" />
    <glyph glyph-name="Lacute.small" horiz-adv-x="845" 
d="M164 0v1085h244v-888h413v-197h-657zM168 1159l119 301h264l-197 -301h-186z" />
    <glyph glyph-name="Lcaron.small" horiz-adv-x="845" 
d="M520 784l74 402h242l-131 -402h-185zM164 0v1085h244v-888h413v-197h-657z" />
    <glyph glyph-name="Lcommaaccent.small" horiz-adv-x="845" 
d="M651 -254q0 -194 -307 -231l-59 147q152 31 151 125q0 51 -41 107h209q47 -70 47 -148zM164 0v1085h244v-888h413v-197h-657z" />
    <glyph glyph-name="Lslash.small" horiz-adv-x="843" 
d="M406 197h413v-197h-657v381l-115 -68v217l115 66v489h244v-350l231 133v-217l-231 -133v-321z" />
    <glyph glyph-name="Ldot.small" horiz-adv-x="845" 
d="M164 0v1085h244v-888h413v-197h-657zM706 469q-56 0 -97 41q-40 41 -40 100q0 60 40 100q41 40 97 40t96 -40t40 -100t-40 -100q-40 -41 -96 -41z" />
    <glyph glyph-name="Nacute.small" horiz-adv-x="1370" 
d="M963 608v477h245v-1085h-225l-405 514q-106 139 -172 238h-3q4 -156 5 -244v-508h-244v1085h235l385 -489q89 -109 179 -242h4q-4 119 -4 254zM578 1159l118 301h265l-197 -301h-186z" />
    <glyph glyph-name="Ncaron.small" horiz-adv-x="1370" 
d="M963 608v477h245v-1085h-225l-405 514q-106 139 -172 238h-3q4 -156 5 -244v-508h-244v1085h235l385 -489q89 -109 179 -242h4q-4 119 -4 254zM580 1159l-207 301h194l113 -160l111 160h190l-205 -301h-196z" />
    <glyph glyph-name="Cacute.small" horiz-adv-x="1089" 
d="M670 -20q-264 0 -417 150t-153 404q0 256 166 414t418 158q176 0 289 -62v-194q-121 61 -254 61q-177 0 -273 -106t-96 -270q0 -165 92 -263t247 -98t274 70l67 -176q-162 -88 -360 -88zM551 1159l119 301h264l-197 -301h-186z" />
    <glyph glyph-name="Ntilde.small" horiz-adv-x="1370" 
d="M963 608v477h245v-1085h-225l-405 514q-106 139 -172 238h-3q4 -156 5 -244v-508h-244v1085h235l385 -489q89 -109 179 -242h4q-4 119 -4 254zM365 1192v80q0 80 47 125q46 45 116 45t159 -45t116 -45t35 17t8 61h160v-80q0 -80 -48 -125t-115 -45q-69 0 -159 45t-117 45
t-35 -18t-8 -60h-159z" />
    <glyph glyph-name="Ncommaaccent.small" horiz-adv-x="1370" 
d="M625 -213q0 51 -41 107h209q47 -70 47 -148q-1 -194 -308 -231l-59 147q152 31 152 125zM963 608v477h245v-1085h-225l-405 514q-106 139 -172 238h-3q4 -156 5 -244v-508h-244v1085h235l385 -489q89 -109 179 -242h4q-4 119 -4 254z" />
    <glyph glyph-name="Ograve.small" horiz-adv-x="1333" 
d="M100 543q0 251 157 407t410 156t409 -157t157 -407q0 -250 -157 -406q-158 -156 -410 -156t-409 156t-157 407zM667 174q144 0 230 98t86 270t-86 271q-86 98 -230 98q-145 0 -231 -98t-86 -270t86 -271q87 -98 231 -98zM571 1159l-198 301h266l119 -301h-187z" />
    <glyph glyph-name="Oacute.small" horiz-adv-x="1333" 
d="M100 543q0 251 157 407t410 156t409 -157t157 -407q0 -250 -157 -406q-158 -156 -410 -156t-409 156t-157 407zM667 174q144 0 230 98t86 270t-86 271q-86 98 -230 98q-145 0 -231 -98t-86 -270t86 -271q87 -98 231 -98zM573 1159l119 301h264l-196 -301h-187z" />
    <glyph glyph-name="Ocircumflex.small" horiz-adv-x="1333" 
d="M358 1159l205 301h197l207 -301h-193l-112 162l-111 -162h-193zM100 543q0 251 157 407t410 156t409 -157t157 -407q0 -250 -157 -406q-158 -156 -410 -156t-409 156t-157 407zM667 174q144 0 230 98t86 270t-86 271q-86 98 -230 98q-145 0 -231 -98t-86 -270t86 -271
q87 -98 231 -98z" />
    <glyph glyph-name="Otilde.small" horiz-adv-x="1333" 
d="M100 543q0 251 157 407t410 156t409 -157t157 -407q0 -250 -157 -406q-158 -156 -410 -156t-409 156t-157 407zM667 174q144 0 230 98t86 270t-86 271q-86 98 -230 98q-145 0 -231 -98t-86 -270t86 -271q87 -98 231 -98zM340 1192v80q0 80 47 125t117 45t159 -45t115 -45
t35 17q8 17 8 61h160v-80q0 -80 -47 -125q-48 -45 -116 -45t-158 45t-118 45q-26 0 -34 -18t-8 -60h-160z" />
    <glyph glyph-name="Odieresis.small" horiz-adv-x="1333" 
d="M855 1180q-52 0 -88 37t-36 89t36 89t88 37t89 -37t37 -89t-37 -89t-89 -37zM466 1180q-52 0 -89 37t-37 89t37 89t89 37t89 -37t37 -89t-37 -89t-89 -37zM100 543q0 251 157 407t410 156t409 -157t157 -407q0 -250 -157 -406q-158 -156 -410 -156t-409 156t-157 407z
M667 174q144 0 230 98t86 270t-86 271q-86 98 -230 98q-145 0 -231 -98t-86 -270t86 -271q87 -98 231 -98z" />
    <glyph glyph-name="Omacron.small" horiz-adv-x="1333" 
d="M100 543q0 251 157 407t410 156t409 -157t157 -407q0 -250 -157 -406q-158 -156 -410 -156t-409 156t-157 407zM667 174q144 0 230 98t86 270t-86 271q-86 98 -230 98q-145 0 -231 -98t-86 -270t86 -271q87 -98 231 -98zM373 1237v184h583v-184h-583z" />
    <glyph glyph-name="Obreve.small" horiz-adv-x="1333" 
d="M100 543q0 251 157 407t410 156t409 -157t157 -407q0 -250 -157 -406q-158 -156 -410 -156t-409 156t-157 407zM667 174q144 0 230 98t86 270t-86 271q-86 98 -230 98q-145 0 -231 -98t-86 -270t86 -271q87 -98 231 -98zM659 1331q57 0 92 36q34 36 40 97h167
q-8 -133 -89 -209q-81 -75 -211 -75t-211 76t-89 208h170q6 -61 40 -97t91 -36z" />
    <glyph glyph-name="Ohungarumlaut.small" horiz-adv-x="1333" 
d="M745 1159l119 301h266l-198 -301h-187zM391 1159l119 301h266l-198 -301h-187zM100 543q0 251 157 407t410 156t409 -157t157 -407q0 -250 -157 -406q-158 -156 -410 -156t-409 156t-157 407zM667 174q144 0 230 98t86 270t-86 271q-86 98 -230 98q-145 0 -231 -98
t-86 -270t86 -271q87 -98 231 -98z" />
    <glyph glyph-name="Oslash.small" horiz-adv-x="1333" 
d="M666 174q143 0 231 99t88 270q0 121 -51 211l-436 -535q74 -45 168 -45zM348 543q0 -121 49 -213l437 534q-72 47 -168 47q-142 0 -230 -99t-88 -269zM666 1106q168 0 301 -78l92 113l117 -86l-93 -115q150 -154 150 -400t-157 -404q-157 -157 -410 -156q-168 0 -301 75
l-91 -110l-116 86l90 114q-148 154 -148 401q0 248 157 404t409 156z" />
    <glyph glyph-name="Oslashacute.small" horiz-adv-x="1333" 
d="M666 174q143 0 231 99t88 270q0 121 -51 211l-436 -535q74 -45 168 -45zM348 543q0 -121 49 -213l437 534q-72 47 -168 47q-142 0 -230 -99t-88 -269zM666 1106q168 0 301 -78l92 113l117 -86l-93 -115q150 -154 150 -400t-157 -404q-157 -157 -410 -156q-168 0 -301 75
l-91 -110l-116 86l90 114q-148 154 -148 401q0 248 157 404t409 156zM567 1159l119 301h264l-196 -301h-187z" />
    <glyph glyph-name="OE.small" horiz-adv-x="1654" 
d="M676 909q-154 0 -240 -101t-86 -268q0 -168 83 -266t245 -98q82 0 172 33v663q-76 37 -174 37zM1096 897v-258h381v-186h-381v-267h432v-186h-457q-96 0 -228 -8t-181 -8q-256 0 -409 156t-153 400q0 246 156 404t414 158l377 -17h495l-67 -188h-379z" />
    <glyph glyph-name="Racute.small" horiz-adv-x="1101" 
d="M408 573h127q84 0 131 45t47 118t-46 118t-132 45h-127v-326zM408 387v-387h-244v1085h389q211 0 306 -94t95 -229q0 -217 -215 -289v-4q57 -37 131 -160l189 -309h-262l-156 260q-70 117 -119 127h-114zM406 1159l118 301h264l-196 -301h-186z" />
    <glyph glyph-name="Rcaron.small" horiz-adv-x="1101" 
d="M408 573h127q84 0 131 45t47 118t-46 118t-132 45h-127v-326zM408 387v-387h-244v1085h389q211 0 306 -94t95 -229q0 -217 -215 -289v-4q57 -37 131 -160l189 -309h-262l-156 260q-70 117 -119 127h-114zM430 1159l-207 301h195l112 -160l111 160h190l-204 -301h-197z
" />
    <glyph glyph-name="Rcommaaccent.small" horiz-adv-x="1101" 
d="M512 -213q0 51 -41 107h209q47 -70 47 -148q0 -194 -307 -231l-60 147q152 31 152 125zM408 573h127q84 0 131 45t47 118t-46 118t-132 45h-127v-326zM408 387v-387h-244v1085h389q211 0 306 -94t95 -229q0 -217 -215 -289v-4q57 -37 131 -160l189 -309h-262l-156 260
q-70 117 -119 127h-114z" />
    <glyph glyph-name="Sacute.small" horiz-adv-x="958" 
d="M432 168q76 0 129 31t53 91t-49 101t-120 71t-141 66t-120 106q-49 69 -49 165q-1 137 101 222t270 85t303 -51v-201q-145 66 -274 66q-63 0 -107 -28t-45 -82q0 -54 49 -91t120 -65q72 -28 142 -64t119 -106q49 -71 49 -173q0 -151 -117 -241t-306 -90t-347 88l80 172
q137 -72 260 -72zM406 1159l118 301h264l-196 -301h-186z" />
    <glyph glyph-name="Scircumflex.small" horiz-adv-x="958" 
d="M182 1159l205 301h197l207 -301h-193l-113 162l-110 -162h-193zM432 168q76 0 129 31t53 91t-49 101t-120 71t-141 66t-120 106q-49 69 -49 165q-1 137 101 222t270 85t303 -51v-201q-145 66 -274 66q-63 0 -107 -28t-45 -82q0 -54 49 -91t120 -65q72 -28 142 -64
t119 -106q49 -71 49 -173q0 -151 -117 -241t-306 -90t-347 88l80 172q137 -72 260 -72z" />
    <glyph glyph-name="Scaron.small" horiz-adv-x="958" 
d="M432 168q76 0 129 31t53 91t-49 101t-120 71t-141 66t-120 106q-49 69 -49 165q-1 137 101 222t270 85t303 -51v-201q-145 66 -274 66q-63 0 -107 -28t-45 -82q0 -54 49 -91t120 -65q72 -28 142 -64t119 -106q49 -71 49 -173q0 -151 -117 -241t-306 -90t-347 88l80 172
q137 -72 260 -72zM399 1159l-206 301h194l113 -160l110 160h191l-205 -301h-197z" />
    <glyph glyph-name="Scedilla.small" horiz-adv-x="958" 
d="M369 -315q100 0 100 65q0 41 -41 55t-125 15l51 166q-152 16 -262 82l80 172q137 -72 260 -72q76 0 129 31t53 91t-49 101t-120 71t-141 66t-120 106q-49 69 -49 165q-1 137 101 222t270 85t303 -51v-201q-145 66 -274 66q-63 0 -107 -28t-45 -82q0 -54 49 -91t120 -65
q72 -28 142 -64t119 -106t49 -188t-90 -204t-240 -106l-26 -86q172 -14 172 -152q0 -82 -73 -132t-214 -50q-85 -1 -153 22l34 113q49 -16 97 -16z" />
    <glyph glyph-name="Scommaaccent.small" horiz-adv-x="958" 
d="M412 -213q0 51 -41 107h209q47 -70 47 -148q-1 -194 -308 -231l-59 147q152 31 152 125zM432 168q76 0 129 31t53 91t-49 101t-120 71t-141 66t-120 106q-49 69 -49 165q-1 137 101 222t270 85t303 -51v-201q-145 66 -274 66q-63 0 -107 -28t-45 -82q0 -54 49 -91
t120 -65q72 -28 142 -64t119 -106q49 -71 49 -173q0 -151 -117 -241t-306 -90t-347 88l80 172q137 -72 260 -72z" />
    <glyph glyph-name="Tcaron.small" horiz-adv-x="960" 
d="M352 0v889h-327v196h938l-68 -196h-299v-889h-244zM375 1159l-207 301h194l113 -160l111 160h190l-205 -301h-196z" />
    <glyph glyph-name="Tcommaaccent.small" horiz-adv-x="960" 
d="M410 -213q0 51 -41 107h209q47 -70 47 -148q-1 -194 -308 -231l-59 147q152 31 152 125zM352 0v889h-327v196h938l-68 -196h-299v-889h-244z" />
    <glyph glyph-name="Tbar.small" horiz-adv-x="960" 
d="M166 403v187h186v299h-327v196h938l-68 -196h-299v-299h186v-187h-186v-403h-244v403h-186z" />
    <glyph glyph-name="Ugrave.small" horiz-adv-x="1290" 
d="M1130 1085v-663q0 -221 -132 -332q-132 -110 -354 -110t-353 110t-131 332v663h243v-651q-1 -126 63 -194t179 -68t178 68t64 194v651h243zM567 1159l-198 301h266l119 -301h-187z" />
    <glyph glyph-name="Uacute.small" horiz-adv-x="1290" 
d="M1130 1085v-663q0 -221 -132 -332q-132 -110 -354 -110t-353 110t-131 332v663h243v-651q-1 -126 63 -194t179 -68t178 68t64 194v651h243zM547 1159l119 301h264l-197 -301h-186z" />
    <glyph glyph-name="Ucircumflex.small" horiz-adv-x="1290" 
d="M344 1159l205 301h196l207 -301h-192l-113 162l-110 -162h-193zM1130 1085v-663q0 -221 -132 -332q-132 -110 -354 -110t-353 110t-131 332v663h243v-651q-1 -126 63 -194t179 -68t178 68t64 194v651h243z" />
    <glyph glyph-name="Utilde.small" horiz-adv-x="1290" 
d="M1130 1085v-663q0 -221 -132 -332q-132 -110 -354 -110t-353 110t-131 332v663h243v-651q-1 -126 63 -194t179 -68t178 68t64 194v651h243zM328 1192v80q0 80 47 125t117 45t158 -45t116 -45q27 0 35 17t8 61h160v-80q0 -80 -47 -125q-48 -45 -116 -45t-158 45t-118 45
q-26 0 -34 -18t-9 -60h-159z" />
    </font>
</defs>
</svg>
