<?xml version="1.0" encoding="UTF-8" standalone="no"?>
<svg width="412px" height="160px" viewBox="0 0 412 160" version="1.1" xmlns="http://www.w3.org/2000/svg" xmlns:xlink="http://www.w3.org/1999/xlink" xmlns:sketch="http://www.bohemiancoding.com/sketch/ns">
    <!-- Generator: Sketch 3.1.1 (8761) - http://www.bohemiancoding.com/sketch -->
    <title>path-2</title>
    <desc>Created with Sketch.</desc>
    <defs></defs>
    <g id="Page-1" stroke="none" stroke-width="1" fill="none" fill-rule="evenodd" sketch:type="MSPage">
        <g id="site_26.10.14" sketch:type="MSLayerGroup" transform="translate(-1056.000000, -1147.000000)">
            <g id="enter_hover" transform="translate(93.000000, 0.000000)" sketch:type="MSShapeGroup">
                <g id="path-2" transform="translate(963.000000, 1147.000000)">
                    <g id="Group" transform="translate(37.000000, 0.000000)" fill="#9B9B9B">
                        <path d="M3.8,149.6 C3.8,150.6 3,151.6 2,151.6 C1,151.6 0.1,150.8 0.1,149.7 C0.1,148.7 0.9,147.8 1.9,147.8 C2.9,147.8 3.7,148.6 3.8,149.6 L3.8,149.6 Z" id="Shape"></path>
                        <path d="M11.2,149.2 C11.3,150.2 10.5,151.2 9.5,151.2 C8.5,151.3 7.6,150.5 7.5,149.4 C7.4,148.4 8.2,147.5 9.2,147.4 C10.3,147.4 11.1,148.1 11.2,149.2 L11.2,149.2 Z" id="Shape"></path>
                        <path d="M18.7,148.4 C18.8,149.4 18.1,150.4 17.1,150.5 C16.1,150.6 15.1,149.9 15,148.8 C14.9,147.8 15.6,146.8 16.6,146.7 C17.6,146.6 18.6,147.4 18.7,148.4 L18.7,148.4 Z" id="Shape"></path>
                        <path d="M26.1,147.3 C26.3,148.3 25.6,149.3 24.5,149.5 C23.5,149.7 22.5,149 22.4,147.9 C22.3,146.9 22.9,145.9 24,145.8 C25,145.6 25.9,146.3 26.1,147.3 L26.1,147.3 Z" id="Shape"></path>
                        <path d="M33.4,145.9 C33.6,146.9 33,147.9 31.9,148.1 C30.9,148.3 29.9,147.6 29.7,146.6 C29.5,145.6 30.2,144.6 31.2,144.4 C32.2,144.3 33.2,144.9 33.4,145.9 L33.4,145.9 Z" id="Shape"></path>
                        <path d="M40.7,144.2 C41,145.2 40.4,146.2 39.3,146.5 C38.3,146.8 37.3,146.1 37,145.1 C36.8,144.1 37.4,143.1 38.4,142.8 C39.4,142.6 40.5,143.2 40.7,144.2 L40.7,144.2 Z" id="Shape"></path>
                        <path d="M47.9,142.2 C48.2,143.2 47.6,144.2 46.6,144.5 C45.6,144.8 44.6,144.2 44.3,143.2 C44,142.2 44.6,141.2 45.6,140.9 C46.6,140.6 47.6,141.2 47.9,142.2 L47.9,142.2 Z" id="Shape"></path>
                        <path d="M55,139.8 C55.4,140.8 54.8,141.9 53.9,142.2 C52.9,142.5 51.8,142 51.5,141 C51.2,140 51.7,138.9 52.7,138.6 C53.6,138.3 54.7,138.8 55,139.8 L55,139.8 Z" id="Shape"></path>
                        <path d="M62,137.1 C62.4,138.1 61.9,139.2 61,139.6 C60,140 58.9,139.5 58.6,138.5 C58.2,137.5 58.7,136.5 59.7,136.1 C60.5,135.7 61.6,136.1 62,137.1 L62,137.1 Z" id="Shape"></path>
                        <path d="M68.9,134.2 C69.3,135.1 68.9,136.3 68,136.7 C67,137.1 65.9,136.7 65.5,135.7 C65.1,134.7 65.5,133.6 66.4,133.2 C67.4,132.8 68.5,133.2 68.9,134.2 L68.9,134.2 Z" id="Shape"></path>
                        <path d="M75.6,130.9 C76.1,131.8 75.7,133 74.8,133.4 C73.9,133.9 72.7,133.5 72.3,132.5 C71.8,131.6 72.2,130.4 73.2,130 C74,129.6 75.2,130 75.6,130.9 L75.6,130.9 Z" id="Shape"></path>
                        <path d="M82.2,127.4 C82.7,128.3 82.4,129.5 81.5,130 C80.6,130.5 79.4,130.2 79,129.2 C78.5,128.3 78.8,127.1 79.7,126.6 C80.6,126.1 81.7,126.5 82.2,127.4 L82.2,127.4 Z" id="Shape"></path>
                        <path d="M88.7,123.6 C89.2,124.5 89,125.7 88.1,126.2 C87.2,126.7 86,126.4 85.5,125.5 C85,124.6 85.3,123.5 86.2,122.9 C87,122.4 88.2,122.7 88.7,123.6 L88.7,123.6 Z" id="Shape"></path>
                        <path d="M95,119.6 C95.6,120.5 95.3,121.6 94.5,122.2 C93.6,122.8 92.5,122.5 91.9,121.6 C91.3,120.7 91.6,119.6 92.5,119 C93.3,118.5 94.5,118.7 95,119.6 L95,119.6 Z" id="Shape"></path>
                        <path d="M101.2,115.4 C101.8,116.3 101.6,117.4 100.7,118 C99.8,118.6 98.7,118.4 98.1,117.5 C97.5,116.6 97.7,115.5 98.6,114.9 C99.5,114.3 100.6,114.5 101.2,115.4 L101.2,115.4 Z" id="Shape"></path>
                        <path d="M107.3,111 C107.9,111.8 107.8,113 106.9,113.6 C106.1,114.2 104.9,114 104.3,113.2 C103.7,112.4 103.9,111.2 104.7,110.6 C105.5,109.9 106.6,110.1 107.3,111 L107.3,111 Z" id="Shape"></path>
                        <path d="M113.2,106.4 C113.9,107.2 113.7,108.4 112.9,109 C112.1,109.6 110.9,109.5 110.3,108.7 C109.7,107.9 109.8,106.7 110.6,106.1 C111.4,105.4 112.6,105.6 113.2,106.4 L113.2,106.4 Z" id="Shape"></path>
                        <path d="M119,101.6 C119.7,102.4 119.6,103.6 118.8,104.3 C118,105 116.8,104.8 116.1,104 C115.4,103.2 115.6,102 116.4,101.4 C117.1,100.7 118.3,100.8 119,101.6 L119,101.6 Z" id="Shape"></path>
                        <path d="M124.7,96.8 C125.4,97.6 125.3,98.8 124.5,99.5 C123.7,100.2 122.5,100.1 121.9,99.3 C121.2,98.5 121.3,97.3 122.1,96.6 C122.8,95.9 124,96 124.7,96.8 L124.7,96.8 Z" id="Shape"></path>
                        <path d="M130.3,91.8 C131,92.6 130.9,93.8 130.2,94.5 C129.4,95.2 128.2,95.1 127.5,94.3 C126.8,93.5 126.9,92.3 127.6,91.7 C128.4,91 129.6,91 130.3,91.8 L130.3,91.8 Z" id="Shape"></path>
                        <path d="M135.8,86.7 C136.5,87.5 136.5,88.6 135.7,89.4 C134.9,90.1 133.8,90.1 133,89.3 C132.3,88.5 132.3,87.3 133.1,86.6 C133.9,85.9 135.1,86 135.8,86.7 L135.8,86.7 Z" id="Shape"></path>
                        <path d="M141.2,81.6 C141.9,82.4 141.9,83.5 141.2,84.3 C140.4,85 139.3,85 138.5,84.2 C137.8,83.4 137.8,82.3 138.6,81.5 C139.3,80.8 140.5,80.8 141.2,81.6 L141.2,81.6 Z" id="Shape"></path>
                        <path d="M146.6,76.3 C147.3,77 147.3,78.2 146.6,79 C145.9,79.7 144.7,79.7 143.9,79 C143.2,78.3 143.2,77.1 143.9,76.3 C144.6,75.5 145.8,75.6 146.6,76.3 L146.6,76.3 Z" id="Shape"></path>
                        <path d="M151.9,71.1 C152.6,71.8 152.6,73 151.9,73.8 C151.2,74.5 150,74.5 149.2,73.8 C148.5,73.1 148.5,71.9 149.2,71.1 C150,70.3 151.2,70.3 151.9,71.1 L151.9,71.1 Z" id="Shape"></path>
                        <circle id="Oval" transform="translate(155.722080, 66.968360) rotate(-45.145852) translate(-155.722080, -66.968360) " cx="155.72208" cy="66.96836" r="1.89998793"></circle>
                        <circle id="Oval" transform="translate(161.024180, 62.088540) rotate(-45.218778) translate(-161.024180, -62.088540) " cx="161.02418" cy="62.08854" r="1.89999563"></circle>
                        <circle id="Oval" transform="translate(167.058980, 56.413440) rotate(-45.137749) translate(-167.058980, -56.413440) " cx="167.05898" cy="56.41344" r="1.89998727"></circle>
                        <path d="M173,49.9 C173.7,50.6 173.7,51.8 173,52.6 C172.3,53.3 171.1,53.3 170.3,52.6 C169.6,51.9 169.6,50.7 170.3,49.9 C171.1,49.1 172.3,49.1 173,49.9 L173,49.9 Z" id="Shape"></path>
                        <path d="M178.4,44.6 C179.1,45.4 179.1,46.5 178.4,47.3 C177.7,48 176.5,48 175.7,47.3 C175,46.6 175,45.4 175.7,44.6 C176.5,43.8 177.7,43.9 178.4,44.6 L178.4,44.6 Z" id="Shape"></path>
                        <path d="M183.8,39.5 C184.5,40.3 184.5,41.5 183.7,42.2 C183,42.9 181.8,42.9 181,42.1 C180.3,41.3 180.3,40.2 181.1,39.4 C181.9,38.7 183.1,38.7 183.8,39.5 L183.8,39.5 Z" id="Shape"></path>
                        <path d="M189.3,34.4 C190,35.2 189.9,36.4 189.2,37 C188.4,37.7 187.3,37.6 186.5,36.9 C185.8,36.1 185.8,34.9 186.6,34.2 C187.5,33.6 188.7,33.6 189.3,34.4 L189.3,34.4 Z" id="Shape"></path>
                        <path d="M195,29.5 C195.7,30.3 195.6,31.5 194.8,32.1 C194,32.8 192.8,32.7 192.2,31.9 C191.5,31.1 191.6,29.9 192.4,29.2 C193.1,28.6 194.3,28.7 195,29.5 L195,29.5 Z" id="Shape"></path>
                        <path d="M200.8,24.8 C201.4,25.6 201.3,26.8 200.5,27.4 C199.7,28 198.5,27.9 197.9,27.1 C197.2,26.3 197.4,25.1 198.2,24.5 C199,23.8 200.1,23.9 200.8,24.8 L200.8,24.8 Z" id="Shape"></path>
                        <path d="M206.8,20.3 C207.4,21.1 207.2,22.3 206.4,22.9 C205.6,23.5 204.4,23.3 203.8,22.5 C203.2,21.7 203.3,20.5 204.2,19.9 C205,19.2 206.2,19.4 206.8,20.3 L206.8,20.3 Z" id="Shape"></path>
                        <path d="M213,16.1 C213.6,17 213.3,18.1 212.5,18.7 C211.6,19.2 210.5,19 209.9,18.2 C209.3,17.3 209.5,16.2 210.4,15.6 C211.3,14.9 212.4,15.2 213,16.1 L213,16.1 Z" id="Shape"></path>
                        <path d="M219.4,12.3 C219.9,13.2 219.6,14.4 218.7,14.8 C217.8,15.3 216.7,15 216.1,14.1 C215.6,13.2 215.9,12 216.8,11.5 C217.8,11 218.9,11.3 219.4,12.3 L219.4,12.3 Z" id="Shape"></path>
                        <path d="M226.1,8.9 C226.5,9.9 226.1,11 225.2,11.4 C224.3,11.8 223.2,11.5 222.7,10.5 C222.2,9.6 222.6,8.4 223.6,8 C224.6,7.5 225.7,8 226.1,8.9 L226.1,8.9 Z" id="Shape"></path>
                        <path d="M233.1,6.1 C233.4,7.1 233,8.2 232,8.5 C231.1,8.9 230,8.4 229.6,7.4 C229.2,6.4 229.7,5.3 230.7,4.9 C231.6,4.6 232.7,5.1 233.1,6.1 L233.1,6.1 Z" id="Shape"></path>
                        <path d="M240.2,4 C240.4,5 239.9,6 238.9,6.3 C237.9,6.6 236.9,6 236.6,5 C236.3,4 236.9,2.9 237.9,2.6 C239,2.3 240,3 240.2,4 L240.2,4 Z" id="Shape"></path>
                        <path d="M247.6,2.6 C247.7,3.6 247,4.6 246.1,4.7 C245.1,4.9 244.2,4.2 244,3.2 C243.8,2.2 244.5,1.2 245.5,1 C246.5,0.8 247.4,1.5 247.6,2.6 L247.6,2.6 Z" id="Shape"></path>
                        <path d="M255,2 C255,3 254.2,3.9 253.2,3.9 C252.2,4 251.3,3.2 251.2,2.2 C251.1,1.2 251.9,0.3 253,0.2 C254.1,0.1 255,0.9 255,2 L255,2 Z" id="Shape"></path>
                        <path d="M262.5,2 C262.4,3 261.6,3.8 260.6,3.8 C259.6,3.8 258.8,2.9 258.8,1.9 C258.8,0.9 259.7,-2.77555756e-13 260.7,0.1 C261.8,0.1 262.6,1 262.5,2 L262.5,2 Z" id="Shape"></path>
                        <path d="M270,2.6 C269.9,3.6 269,4.4 268,4.3 C267,4.2 266.2,3.3 266.3,2.2 C266.4,1.2 267.3,0.4 268.3,0.5 C269.4,0.7 270.1,1.6 270,2.6 L270,2.6 Z" id="Shape"></path>
                        <path d="M277.4,3.7 C277.2,4.7 276.3,5.4 275.3,5.2 C274.3,5.1 273.6,4.1 273.7,3.1 C273.8,2.1 274.8,1.4 275.9,1.5 C276.9,1.7 277.6,2.7 277.4,3.7 L277.4,3.7 Z" id="Shape"></path>
                        <path d="M284.7,5.2 C284.5,6.2 283.5,6.9 282.5,6.6 C281.5,6.3 280.9,5.4 281.1,4.4 C281.3,3.4 282.3,2.7 283.3,3 C284.3,3.2 285,4.2 284.7,5.2 L284.7,5.2 Z" id="Shape"></path>
                        <path d="M291.9,7.2 C291.6,8.2 290.6,8.8 289.6,8.5 C288.6,8.2 288,7.2 288.3,6.2 C288.6,5.2 289.6,4.6 290.6,4.9 C291.7,5.1 292.3,6.2 291.9,7.2 L291.9,7.2 Z" id="Shape"></path>
                        <path d="M299,9.6 C298.6,10.6 297.6,11.1 296.6,10.7 C295.6,10.4 295.1,9.3 295.4,8.3 C295.7,7.3 296.8,6.8 297.8,7.1 C298.9,7.5 299.4,8.6 299,9.6 L299,9.6 Z" id="Shape"></path>
                        <path d="M306,12.3 C305.6,13.3 304.5,13.7 303.6,13.3 C302.7,12.9 302.2,11.8 302.6,10.9 C303,9.9 304.1,9.5 305.1,9.9 C306,10.2 306.4,11.4 306,12.3 L306,12.3 Z" id="Shape"></path>
                        <path d="M312.8,15.5 C312.3,16.4 311.2,16.8 310.3,16.4 C309.4,16 309,14.8 309.4,13.9 C309.8,13 311,12.5 311.9,13 C312.9,13.4 313.3,14.5 312.8,15.5 L312.8,15.5 Z" id="Shape"></path>
                        <path d="M319.4,18.9 C318.9,19.8 317.8,20.1 316.9,19.7 C316,19.2 315.7,18.1 316.1,17.2 C316.6,16.3 317.7,15.9 318.6,16.4 C319.6,16.9 319.9,18 319.4,18.9 L319.4,18.9 Z" id="Shape"></path>
                        <path d="M325.9,22.7 C325.3,23.6 324.2,23.9 323.3,23.3 C322.4,22.8 322.1,21.6 322.7,20.7 C323.2,19.8 324.4,19.5 325.3,20 C326.2,20.7 326.4,21.9 325.9,22.7 L325.9,22.7 Z" id="Shape"></path>
                        <path d="M332.1,26.9 C331.5,27.8 330.3,28 329.5,27.4 C328.7,26.8 328.4,25.7 329,24.8 C329.6,23.9 330.8,23.7 331.6,24.3 C332.5,24.8 332.7,26 332.1,26.9 L332.1,26.9 Z" id="Shape"></path>
                        <path d="M338.2,31.3 C337.6,32.1 336.4,32.3 335.6,31.7 C334.8,31.1 334.6,29.9 335.2,29.1 C335.8,28.3 337,28.1 337.8,28.7 C338.7,29.3 338.8,30.5 338.2,31.3 L338.2,31.3 Z" id="Shape"></path>
                        <path d="M344,36 C343.3,36.8 342.1,36.9 341.4,36.2 C340.6,35.5 340.5,34.4 341.2,33.6 C341.9,32.8 343.1,32.7 343.9,33.4 C344.6,34.1 344.6,35.3 344,36 L344,36 Z" id="Shape"></path>
                    </g>
                    <path d="M13.3,149.8 L20,143.1 C20.8,142.3 20.8,141.1 20,140.3 C19.2,139.5 18,139.5 17.2,140.3 L10.5,147 L3.8,140.3 C3,139.5 1.8,139.5 1,140.3 C0.2,141.1 0.2,142.3 1,143.1 L7.7,149.8 L1,156.5 C0.2,157.3 0.2,158.5 1,159.3 C1.4,159.7 1.9,159.9 2.4,159.9 C2.9,159.9 3.4,159.7 3.8,159.3 L10.5,152.6 L17.2,159.3 C17.6,159.7 18.1,159.9 18.6,159.9 C19.1,159.9 19.6,159.7 20,159.3 C20.8,158.5 20.8,157.3 20,156.5 L13.3,149.8 L13.3,149.8 Z" id="Shape" fill="#8E8E8E"></path>
                    <path d="M404.2,57.4 L410.9,50.7 C411.7,49.9 411.7,48.7 410.9,47.9 C410.1,47.1 408.9,47.1 408.1,47.9 L401.4,54.6 L394.7,47.9 C393.9,47.1 392.7,47.1 391.9,47.9 C391.1,48.7 391.1,49.9 391.9,50.7 L398.6,57.4 L391.9,64.1 C391.1,64.9 391.1,66.1 391.9,66.9 C392.3,67.3 392.8,67.5 393.3,67.5 C393.8,67.5 394.3,67.3 394.7,66.9 L401.4,60.2 L408.1,66.9 C408.5,67.3 409,67.5 409.5,67.5 C410,67.5 410.5,67.3 410.9,66.9 C411.7,66.1 411.7,64.9 410.9,64.1 L404.2,57.4 L404.2,57.4 Z" id="Shape" fill="#8E8E8E"></path>
                </g>
            </g>
        </g>
    </g>
</svg>