<?xml version="1.0" encoding="UTF-8" standalone="no"?>
<svg width="507px" height="186px" viewBox="0 0 507 186" version="1.1" xmlns="http://www.w3.org/2000/svg" xmlns:xlink="http://www.w3.org/1999/xlink" xmlns:sketch="http://www.bohemiancoding.com/sketch/ns">
    <!-- Generator: Sketch 3.1.1 (8761) - http://www.bohemiancoding.com/sketch -->
    <title>path-3</title>
    <desc>Created with Sketch.</desc>
    <defs></defs>
    <g id="Page-1" stroke="none" stroke-width="1" fill="none" fill-rule="evenodd" sketch:type="MSPage">
        <g id="site_26.10.14" sketch:type="MSLayerGroup" transform="translate(-1226.000000, -1340.000000)">
            <g id="enter_hover" transform="translate(93.000000, 0.000000)" sketch:type="MSShapeGroup">
                <g id="path-3" transform="translate(1133.000000, 1340.000000)">
                    <g id="Group" transform="translate(32.000000, 0.000000)" fill="#9B9B9B">
                        <path d="M340.7,175.3 C340.7,176.3 339.9,177.2 338.9,177.2 C337.8,177.2 337,176.4 337,175.3 C337,174.3 337.8,173.4 338.8,173.4 C339.8,173.4 340.7,174.2 340.7,175.3 L340.7,175.3 Z" id="Shape"></path>
                        <path d="M348.2,175 C348.3,176 347.5,176.9 346.4,177 C345.3,177.1 344.5,176.3 344.4,175.2 C344.4,174.2 345.2,173.3 346.2,173.2 C347.3,173.1 348.2,173.9 348.2,175 L348.2,175 Z" id="Shape"></path>
                        <path d="M355.8,174.4 C355.9,175.4 355.1,176.3 354.1,176.4 C353.1,176.5 352.1,175.7 352.1,174.7 C352,173.7 352.8,172.8 353.8,172.7 C354.8,172.6 355.7,173.4 355.8,174.4 L355.8,174.4 Z" id="Shape"></path>
                        <path d="M363.3,173.7 C363.4,174.7 362.7,175.7 361.6,175.8 C360.6,175.9 359.6,175.1 359.5,174.1 C359.4,173.1 360.2,172.1 361.2,172 C362.3,171.9 363.2,172.7 363.3,173.7 L363.3,173.7 Z" id="Shape"></path>
                        <path d="M370.8,172.7 C371,173.7 370.2,174.7 369.2,174.8 C368.2,175 367.2,174.2 367.1,173.2 C367,172.2 367.7,171.2 368.7,171.1 C369.7,171 370.7,171.7 370.8,172.7 L370.8,172.7 Z" id="Shape"></path>
                        <path d="M378.3,171.5 C378.5,172.5 377.8,173.5 376.8,173.7 C375.8,173.9 374.8,173.2 374.6,172.2 C374.4,171.2 375.1,170.2 376.1,170 C377.1,169.8 378.1,170.5 378.3,171.5 L378.3,171.5 Z" id="Shape"></path>
                        <path d="M385.7,170.1 C385.9,171.1 385.3,172.1 384.2,172.3 C383.2,172.5 382.2,171.9 382,170.8 C381.8,169.8 382.5,168.8 383.5,168.6 C384.5,168.4 385.5,169 385.7,170.1 L385.7,170.1 Z" id="Shape"></path>
                        <path d="M393,168.3 C393.3,169.3 392.6,170.4 391.6,170.6 C390.6,170.8 389.5,170.2 389.3,169.2 C389.1,168.2 389.7,167.2 390.7,166.9 C391.8,166.7 392.8,167.3 393,168.3 L393,168.3 Z" id="Shape"></path>
                        <path d="M400.3,166.3 C400.6,167.3 400,168.4 399,168.7 C398,169 396.9,168.4 396.7,167.4 C396.4,166.4 397,165.4 398,165.1 C399,164.7 400,165.3 400.3,166.3 L400.3,166.3 Z" id="Shape"></path>
                        <path d="M407.5,164 C407.8,165 407.3,166.1 406.3,166.4 C405.3,166.7 404.2,166.2 403.9,165.2 C403.6,164.2 404.1,163.1 405.1,162.8 C406.1,162.5 407.2,163 407.5,164 L407.5,164 Z" id="Shape"></path>
                        <path d="M414.6,161.3 C415,162.3 414.5,163.4 413.5,163.7 C412.5,164.1 411.4,163.6 411,162.6 C410.6,161.6 411.1,160.5 412.1,160.2 C413.1,159.9 414.2,160.4 414.6,161.3 L414.6,161.3 Z" id="Shape"></path>
                        <path d="M421.5,158.3 C421.9,159.2 421.5,160.4 420.6,160.8 C419.6,161.2 418.5,160.8 418.1,159.8 C417.7,158.8 418.1,157.7 419.1,157.3 C420,156.9 421.1,157.3 421.5,158.3 L421.5,158.3 Z" id="Shape"></path>
                        <path d="M428.2,154.8 C428.7,155.7 428.4,156.9 427.4,157.4 C426.5,157.9 425.3,157.6 424.9,156.6 C424.4,155.7 424.8,154.5 425.7,154 C426.6,153.6 427.7,153.9 428.2,154.8 L428.2,154.8 Z" id="Shape"></path>
                        <path d="M434.8,151 C435.4,151.9 435.1,153 434.2,153.6 C433.3,154.2 432.1,153.9 431.6,153 C431.1,152.1 431.4,150.9 432.2,150.4 C433,149.9 434.2,150.1 434.8,151 L434.8,151 Z" id="Shape"></path>
                        <path d="M441,146.7 C441.6,147.5 441.5,148.7 440.6,149.4 C439.7,150 438.5,149.8 437.9,148.9 C437.3,148 437.5,146.9 438.4,146.3 C439.2,145.7 440.3,145.9 441,146.7 L441,146.7 Z" id="Shape"></path>
                        <path d="M446.8,141.9 C447.5,142.7 447.4,143.9 446.6,144.6 C445.8,145.3 444.6,145.2 443.9,144.4 C443.3,143.6 443.3,142.4 444.1,141.7 C444.9,141.1 446.1,141.1 446.8,141.9 L446.8,141.9 Z" id="Shape"></path>
                        <path d="M452.2,136.7 C453,137.4 453,138.6 452.2,139.4 C451.4,140.2 450.2,140.2 449.5,139.4 C448.8,138.7 448.8,137.5 449.5,136.7 C450.3,136 451.5,136 452.2,136.7 L452.2,136.7 Z" id="Shape"></path>
                        <path d="M457.1,130.9 C457.9,131.5 458.1,132.7 457.4,133.6 C456.7,134.4 455.5,134.5 454.7,133.8 C453.9,133.1 453.8,132 454.5,131.2 C455.1,130.4 456.3,130.3 457.1,130.9 L457.1,130.9 Z" id="Shape"></path>
                        <path d="M461.4,124.7 C462.3,125.2 462.5,126.4 462,127.3 C461.4,128.2 460.3,128.5 459.4,127.9 C458.5,127.3 458.3,126.1 458.8,125.3 C459.3,124.4 460.5,124.1 461.4,124.7 L461.4,124.7 Z" id="Shape"></path>
                        <path d="M465,118.1 C465.9,118.5 466.4,119.7 465.8,120.6 C465.3,121.5 464.1,121.9 463.2,121.4 C462.3,120.9 461.9,119.8 462.4,118.9 C463,118 464.1,117.6 465,118.1 L465,118.1 Z" id="Shape"></path>
                        <path d="M467.9,111.1 C468.9,111.4 469.4,112.5 469,113.6 C468.7,114.6 467.5,115.1 466.5,114.7 C465.5,114.3 465.1,113.2 465.5,112.3 C465.8,111.2 466.9,110.7 467.9,111.1 L467.9,111.1 Z" id="Shape"></path>
                        <path d="M470.1,103.8 C471.1,104 471.7,105.1 471.4,106.1 C471.1,107.1 470.1,107.7 469.1,107.4 C468.1,107.1 467.5,106.1 467.8,105.1 C468,104.2 469.1,103.6 470.1,103.8 L470.1,103.8 Z" id="Shape"></path>
                        <path d="M471.5,96.4 C472.5,96.5 473.2,97.5 473,98.6 C472.8,99.7 471.8,100.3 470.8,100.1 C469.8,99.9 469.1,98.9 469.3,97.9 C469.5,97 470.5,96.3 471.5,96.4 L471.5,96.4 Z" id="Shape"></path>
                        <path d="M472.3,88.9 C473.3,89 474.2,89.9 474.1,90.9 C474,92 473.1,92.7 472,92.6 C471,92.5 470.2,91.6 470.3,90.6 C470.4,89.6 471.2,88.8 472.3,88.9 L472.3,88.9 Z" id="Shape"></path>
                        <path d="M472.4,81.4 C473.4,81.4 474.3,82.2 474.3,83.3 C474.3,84.4 473.4,85.2 472.4,85.2 C471.4,85.2 470.6,84.3 470.6,83.3 C470.5,82.2 471.4,81.4 472.4,81.4 L472.4,81.4 Z" id="Shape"></path>
                        <path d="M472,73.8 C473,73.7 473.9,74.5 474,75.5 C474.1,76.6 473.3,77.5 472.3,77.5 C471.3,77.6 470.4,76.8 470.3,75.8 C470.2,74.8 470.9,73.9 472,73.8 L472,73.8 Z" id="Shape"></path>
                        <path d="M470.8,66.3 C471.8,66.1 472.8,66.8 473,67.8 C473.2,68.9 472.5,69.8 471.4,70 C470.4,70.2 469.4,69.5 469.2,68.5 C469.1,67.5 469.8,66.6 470.8,66.3 L470.8,66.3 Z" id="Shape"></path>
                        <path d="M469,59 C470,58.7 471.1,59.3 471.4,60.3 C471.7,61.3 471.1,62.4 470,62.6 C469,62.8 468,62.3 467.7,61.3 C467.4,60.3 468,59.3 469,59 L469,59 Z" id="Shape"></path>
                        <path d="M466.5,51.9 C467.5,51.5 468.6,52 468.9,53 C469.3,54 468.8,55.1 467.8,55.4 C466.8,55.7 465.7,55.3 465.4,54.3 C465,53.4 465.5,52.3 466.5,51.9 L466.5,51.9 Z" id="Shape"></path>
                        <path d="M463.2,45.1 C464.1,44.6 465.3,45 465.7,45.9 C466.2,46.9 465.8,48 464.9,48.4 C464,48.8 462.8,48.5 462.4,47.6 C461.9,46.7 462.3,45.6 463.2,45.1 L463.2,45.1 Z" id="Shape"></path>
                        <path d="M459.2,38.6 C460.1,38 461.2,38.2 461.8,39.1 C462.4,40 462.1,41.2 461.2,41.7 C460.3,42.2 459.2,42 458.6,41.1 C458.2,40.4 458.4,39.2 459.2,38.6 L459.2,38.6 Z" id="Shape"></path>
                        <path d="M454.7,32.6 C455.5,31.9 456.7,32 457.4,32.9 C458.1,33.7 457.9,35 457.1,35.6 C456.3,36.2 455.1,36.1 454.5,35.3 C453.8,34.5 453.9,33.3 454.7,32.6 L454.7,32.6 Z" id="Shape"></path>
                        <path d="M449.5,27.1 C450.2,26.3 451.4,26.3 452.2,27.1 C452.9,27.9 452.9,29.1 452.2,29.8 C451.4,30.5 450.3,30.5 449.6,29.8 C448.8,29.1 448.8,27.9 449.5,27.1 L449.5,27.1 Z" id="Shape"></path>
                        <path d="M443.8,22.2 C444.4,21.4 445.7,21.2 446.5,21.9 C447.3,22.6 447.4,23.8 446.7,24.6 C446,25.4 444.8,25.5 444.1,24.8 C443.3,24.1 443.1,23 443.8,22.2 L443.8,22.2 Z" id="Shape"></path>
                        <path d="M437.7,17.8 C438.3,16.9 439.5,16.7 440.3,17.3 C441.2,17.9 441.4,19.1 440.8,19.9 C440.2,20.7 439,21 438.2,20.4 C437.3,19.8 437.1,18.6 437.7,17.8 L437.7,17.8 Z" id="Shape"></path>
                        <path d="M431.2,13.9 C431.7,13 432.8,12.7 433.8,13.2 C434.7,13.7 435.1,14.9 434.5,15.8 C433.9,16.7 432.8,17 431.9,16.5 C431,16 430.7,14.8 431.2,13.9 L431.2,13.9 Z" id="Shape"></path>
                        <path d="M424.3,10.6 C424.7,9.6 425.8,9.2 426.8,9.7 C427.8,10.1 428.2,11.3 427.7,12.2 C427.2,13.1 426.1,13.5 425.2,13.1 C424.4,12.7 423.9,11.6 424.3,10.6 L424.3,10.6 Z" id="Shape"></path>
                        <path d="M417.3,7.9 C417.6,6.9 418.7,6.4 419.7,6.7 C420.7,7.1 421.2,8.2 420.8,9.1 C420.4,10.1 419.4,10.5 418.4,10.2 C417.5,10 417,8.9 417.3,7.9 L417.3,7.9 Z" id="Shape"></path>
                        <path d="M410.1,5.7 C410.4,4.7 411.4,4.1 412.4,4.4 C413.4,4.7 414,5.8 413.7,6.8 C413.4,7.8 412.4,8.4 411.4,8.1 C410.4,7.7 409.8,6.7 410.1,5.7 L410.1,5.7 Z" id="Shape"></path>
                        <path d="M402.7,4 C402.9,3 403.9,2.3 404.9,2.5 C405.9,2.7 406.6,3.7 406.4,4.7 C406.2,5.7 405.2,6.4 404.2,6.1 C403.2,6 402.5,5 402.7,4 L402.7,4 Z" id="Shape"></path>
                        <path d="M395.2,2.9 C395.3,1.9 396.3,1.1 397.3,1.3 C398.4,1.4 399.1,2.4 398.9,3.4 C398.7,4.4 397.8,5.2 396.8,5 C395.8,4.9 395.1,3.9 395.2,2.9 L395.2,2.9 Z" id="Shape"></path>
                        <path d="M387.7,2.2 C387.8,1.2 388.7,0.4 389.7,0.4 C390.8,0.5 391.5,1.4 391.5,2.4 C391.4,3.4 390.5,4.2 389.5,4.1 C388.4,4.2 387.7,3.3 387.7,2.2 L387.7,2.2 Z" id="Shape"></path>
                        <path d="M380.1,2.1 C380.1,1.1 380.9,0.2 382,0.2 C383.1,0.2 383.9,1.1 383.9,2.1 C383.9,3.1 383,4 382,3.9 C381,3.9 380.2,3.1 380.1,2.1 L380.1,2.1 Z" id="Shape"></path>
                        <path d="M372.6,2.5 C372.5,1.5 373.3,0.6 374.4,0.5 C375.5,0.4 376.4,1.2 376.4,2.2 C376.4,3.2 375.7,4.1 374.6,4.2 C373.6,4.3 372.7,3.5 372.6,2.5 L372.6,2.5 Z" id="Shape"></path>
                        <path d="M365.1,3.5 C364.9,2.5 365.6,1.5 366.7,1.3 C367.8,1.1 368.7,1.9 368.9,2.9 C369,3.9 368.3,4.8 367.3,5 C366.3,5.2 365.3,4.5 365.1,3.5 L365.1,3.5 Z" id="Shape"></path>
                        <path d="M357.7,5 C357.4,4 358.1,2.9 359.1,2.7 C360.1,2.5 361.2,3.1 361.4,4.1 C361.6,5.1 361,6.1 360,6.3 C359,6.6 358,6.1 357.7,5 L357.7,5 Z" id="Shape"></path>
                        <path d="M350.5,7.2 C350.2,6.2 350.7,5.1 351.7,4.8 C352.7,4.5 353.8,5 354.1,6 C354.4,7 353.9,8.1 352.9,8.4 C351.9,8.7 350.8,8.2 350.5,7.2 L350.5,7.2 Z" id="Shape"></path>
                        <path d="M343.4,10 C343,9 343.4,7.9 344.4,7.5 C345.4,7.1 346.5,7.5 346.9,8.5 C347.3,9.5 346.8,10.6 345.9,11 C345,11.4 343.9,10.9 343.4,10 L343.4,10 Z" id="Shape"></path>
                        <path d="M336.6,13.2 C336.1,12.3 336.5,11.1 337.4,10.6 C338.3,10.1 339.5,10.5 339.9,11.5 C340.4,12.5 339.9,13.5 339,14 C338.2,14.5 337.1,14.1 336.6,13.2 L336.6,13.2 Z" id="Shape"></path>
                        <path d="M330,16.9 C329.5,16 329.8,14.8 330.7,14.3 C331.6,13.8 332.8,14.1 333.3,15 C333.8,15.9 333.5,17.1 332.6,17.6 C331.7,18.1 330.6,17.8 330,16.9 L330,16.9 Z" id="Shape"></path>
                        <path d="M323.7,21 C323.1,20.1 323.3,19 324.2,18.4 C325.1,17.8 326.3,18.1 326.8,18.9 C327.4,19.8 327.1,20.9 326.3,21.5 C325.4,22.1 324.3,21.9 323.7,21 L323.7,21 Z" id="Shape"></path>
                        <path d="M317.5,25.4 C316.9,24.6 317,23.4 317.9,22.8 C318.8,22.2 319.9,22.3 320.5,23.2 C321.1,24 320.9,25.2 320.1,25.8 C319.4,26.4 318.2,26.2 317.5,25.4 L317.5,25.4 Z" id="Shape"></path>
                        <path d="M311.6,30.1 C310.9,29.3 311.1,28.1 311.9,27.4 C312.7,26.7 313.9,26.9 314.6,27.7 C315.2,28.5 315.1,29.7 314.3,30.3 C313.5,31 312.3,30.9 311.6,30.1 L311.6,30.1 Z" id="Shape"></path>
                        <path d="M305.9,35 C305.2,34.2 305.3,33 306.1,32.3 C306.9,31.6 308.1,31.7 308.8,32.5 C309.5,33.3 309.4,34.5 308.6,35.2 C307.7,35.9 306.6,35.8 305.9,35 L305.9,35 Z" id="Shape"></path>
                        <path d="M300.3,40.1 C299.6,39.3 299.6,38.1 300.4,37.4 C301.2,36.7 302.4,36.7 303.1,37.5 C303.8,38.3 303.7,39.5 303,40.2 C302.2,40.9 301,40.8 300.3,40.1 L300.3,40.1 Z" id="Shape"></path>
                        <path d="M294.8,45.3 C294.1,44.6 294.1,43.4 294.8,42.6 C295.5,41.9 296.8,41.9 297.5,42.6 C298.2,43.4 298.2,44.5 297.4,45.3 C296.7,46.1 295.5,46.1 294.8,45.3 L294.8,45.3 Z" id="Shape"></path>
                        <path d="M289.4,50.6 C288.7,49.9 288.7,48.7 289.4,47.9 C290.1,47.2 291.3,47.2 292.1,47.9 C292.8,48.6 292.8,49.8 292.1,50.6 C291.4,51.4 290.2,51.4 289.4,50.6 L289.4,50.6 Z" id="Shape"></path>
                        <path d="M284.2,56 C283.4,55.3 283.4,54.1 284.2,53.3 C284.9,52.5 286.1,52.5 286.9,53.3 C287.6,54 287.7,55.2 286.9,56 C286.1,56.7 284.9,56.8 284.2,56 L284.2,56 Z" id="Shape"></path>
                        <path d="M278.9,61.5 C278.1,60.8 278.1,59.6 278.8,58.8 C279.5,58 280.7,58 281.5,58.7 C282.3,59.4 282.3,60.6 281.6,61.4 C280.9,62.2 279.7,62.2 278.9,61.5 L278.9,61.5 Z" id="Shape"></path>
                        <circle id="Oval" cx="274.9" cy="65.9" r="1.9"></circle>
                        <circle id="Oval" cx="269.9" cy="70.9" r="1.9"></circle>
                        <path d="M263.3,77.9 C262.5,77.2 262.5,76 263.2,75.2 C263.9,74.4 265.1,74.4 265.9,75.1 C266.7,75.8 266.7,77 266,77.8 C265.3,78.6 264.1,78.7 263.3,77.9 L263.3,77.9 Z" id="Shape"></path>
                        <path d="M258.1,83.4 C257.4,82.7 257.3,81.5 258.1,80.7 C258.8,80 260,79.9 260.8,80.7 C261.5,81.4 261.6,82.6 260.8,83.4 C260,84.1 258.8,84.1 258.1,83.4 L258.1,83.4 Z" id="Shape"></path>
                        <path d="M252.8,88.8 C252.1,88.1 252.1,86.9 252.8,86.1 C253.5,85.4 254.7,85.4 255.5,86.1 C256.2,86.8 256.2,88 255.5,88.8 C254.7,89.5 253.5,89.5 252.8,88.8 L252.8,88.8 Z" id="Shape"></path>
                        <path d="M247.4,94.1 C246.7,93.4 246.7,92.2 247.4,91.4 C248.1,90.7 249.3,90.7 250.1,91.4 C250.8,92.1 250.8,93.3 250.1,94.1 C249.3,94.8 248.1,94.8 247.4,94.1 L247.4,94.1 Z" id="Shape"></path>
                        <path d="M241.9,99.3 C241.2,98.5 241.2,97.3 242,96.6 C242.8,95.9 243.9,95.9 244.7,96.7 C245.4,97.5 245.4,98.6 244.6,99.4 C243.8,100.1 242.6,100 241.9,99.3 L241.9,99.3 Z" id="Shape"></path>
                        <path d="M236.3,104.4 C235.6,103.6 235.7,102.4 236.4,101.7 C237.2,101 238.4,101.1 239.1,101.8 C239.8,102.6 239.8,103.8 239,104.5 C238.2,105.2 237,105.2 236.3,104.4 L236.3,104.4 Z" id="Shape"></path>
                        <path d="M230.6,109.3 C229.9,108.5 230,107.3 230.8,106.6 C231.6,105.9 232.8,106 233.5,106.8 C234.2,107.6 234.1,108.8 233.3,109.5 C232.5,110.2 231.3,110.1 230.6,109.3 L230.6,109.3 Z" id="Shape"></path>
                        <path d="M224.8,114.1 C224.2,113.3 224.3,112.1 225.1,111.5 C225.9,110.9 227.1,111 227.8,111.8 C228.5,112.6 228.3,113.8 227.5,114.5 C226.6,115.1 225.4,115 224.8,114.1 L224.8,114.1 Z" id="Shape"></path>
                        <path d="M218.8,118.8 C218.2,118 218.3,116.8 219.2,116.2 C220,115.6 221.2,115.7 221.8,116.6 C222.4,117.4 222.3,118.6 221.4,119.3 C220.6,119.8 219.4,119.6 218.8,118.8 L218.8,118.8 Z" id="Shape"></path>
                        <path d="M212.7,123.2 C212.1,122.3 212.3,121.2 213.2,120.6 C214.1,120 215.2,120.2 215.8,121 C216.4,121.8 216.2,123 215.3,123.6 C214.4,124.2 213.3,124 212.7,123.2 L212.7,123.2 Z" id="Shape"></path>
                        <path d="M206.4,127.4 C205.8,126.5 206.1,125.4 207,124.8 C207.9,124.2 209,124.5 209.6,125.3 C210.2,126.2 209.9,127.3 209.1,127.9 C208.1,128.5 206.9,128.3 206.4,127.4 L206.4,127.4 Z" id="Shape"></path>
                        <path d="M199.9,131.3 C199.4,130.4 199.7,129.2 200.6,128.7 C201.5,128.2 202.6,128.4 203.2,129.3 C203.7,130.2 203.5,131.4 202.5,131.9 C201.6,132.5 200.4,132.2 199.9,131.3 L199.9,131.3 Z" id="Shape"></path>
                        <path d="M193.3,135 C192.8,134.1 193.2,132.9 194.1,132.4 C195,131.9 196.1,132.2 196.7,133.2 C197.2,134.1 196.9,135.3 195.9,135.8 C194.9,136.2 193.8,135.9 193.3,135 L193.3,135 Z" id="Shape"></path>
                        <path d="M186.5,138.3 C186.1,137.4 186.5,136.2 187.4,135.8 C188.3,135.3 189.4,135.7 189.9,136.7 C190.4,137.6 190,138.8 189,139.2 C188.1,139.7 187,139.3 186.5,138.3 L186.5,138.3 Z" id="Shape"></path>
                        <path d="M179.6,141.4 C179.2,140.4 179.7,139.3 180.6,138.9 C181.5,138.5 182.7,138.9 183.1,139.9 C183.5,140.9 183.1,142 182.1,142.4 C181.1,142.8 180,142.3 179.6,141.4 L179.6,141.4 Z" id="Shape"></path>
                        <path d="M172.6,144.1 C172.2,143.1 172.8,142.1 173.7,141.7 C174.7,141.3 175.7,141.8 176.1,142.8 C176.5,143.8 176,144.9 175,145.2 C174,145.6 172.9,145 172.6,144.1 L172.6,144.1 Z" id="Shape"></path>
                        <path d="M165.4,146.4 C165.1,145.4 165.6,144.3 166.6,144 C167.6,143.7 168.6,144.2 169,145.2 C169.3,146.2 168.8,147.3 167.8,147.6 C166.8,148 165.7,147.4 165.4,146.4 L165.4,146.4 Z" id="Shape"></path>
                        <path d="M158.1,148.5 C157.8,147.5 158.4,146.5 159.4,146.2 C160.4,145.9 161.4,146.5 161.7,147.5 C162,148.5 161.4,149.5 160.4,149.8 C159.4,150.1 158.4,149.5 158.1,148.5 L158.1,148.5 Z" id="Shape"></path>
                        <path d="M150.8,150.2 C150.6,149.2 151.2,148.2 152.3,148 C153.3,147.8 154.3,148.4 154.5,149.4 C154.7,150.4 154.1,151.4 153.1,151.7 C152,151.9 151,151.2 150.8,150.2 L150.8,150.2 Z" id="Shape"></path>
                        <path d="M143.3,151.5 C143.1,150.5 143.8,149.5 144.9,149.3 C145.9,149.2 146.9,149.8 147.1,150.8 C147.3,151.8 146.6,152.8 145.6,153 C144.5,153.2 143.5,152.5 143.3,151.5 L143.3,151.5 Z" id="Shape"></path>
                        <path d="M135.8,152.5 C135.7,151.5 136.4,150.5 137.4,150.4 C138.4,150.3 139.4,151 139.5,152 C139.6,153 138.9,154 137.9,154.1 C136.9,154.3 135.9,153.6 135.8,152.5 L135.8,152.5 Z" id="Shape"></path>
                        <path d="M128.3,153.2 C128.2,152.2 129,151.2 130,151.2 C131,151.1 131.9,151.9 132,152.9 C132.1,153.9 131.3,154.9 130.3,154.9 C129.3,155 128.4,154.3 128.3,153.2 L128.3,153.2 Z" id="Shape"></path>
                        <path d="M120.8,153.6 C120.8,152.5 121.6,151.7 122.6,151.7 C123.6,151.6 124.5,152.4 124.6,153.5 C124.7,154.5 123.8,155.4 122.8,155.5 C121.7,155.5 120.8,154.6 120.8,153.6 L120.8,153.6 Z" id="Shape"></path>
                        <path d="M113.2,153.6 C113.2,152.6 114.1,151.7 115.1,151.8 C116.1,151.8 117,152.6 117,153.7 C117,154.7 116.2,155.6 115.1,155.6 C114,155.5 113.2,154.6 113.2,153.6 L113.2,153.6 Z" id="Shape"></path>
                        <path d="M105.6,153.4 C105.6,152.4 106.5,151.5 107.6,151.6 C108.6,151.6 109.4,152.5 109.4,153.5 C109.4,154.5 108.5,155.4 107.4,155.3 C106.4,155.3 105.6,154.4 105.6,153.4 L105.6,153.4 Z" id="Shape"></path>
                        <path d="M98.1,152.9 C98.2,151.9 99.1,151.1 100.1,151.2 C101.1,151.3 101.9,152.2 101.9,153.2 C101.8,154.2 100.9,155.1 99.9,154.9 C98.8,154.9 98,154 98.1,152.9 L98.1,152.9 Z" id="Shape"></path>
                        <path d="M90.6,152.2 C90.7,151.2 91.7,150.4 92.7,150.5 C93.7,150.6 94.5,151.5 94.4,152.6 C94.3,153.6 93.4,154.4 92.3,154.3 C91.2,154.1 90.5,153.2 90.6,152.2 L90.6,152.2 Z" id="Shape"></path>
                        <path d="M83.1,151.2 C83.3,150.2 84.2,149.5 85.2,149.6 C86.2,149.8 86.9,150.7 86.8,151.8 C86.7,152.8 85.7,153.5 84.7,153.4 C83.6,153.2 82.9,152.2 83.1,151.2 L83.1,151.2 Z" id="Shape"></path>
                        <path d="M75.6,150 C75.8,149 76.8,148.3 77.8,148.4 C78.8,148.6 79.5,149.5 79.3,150.6 C79.1,151.6 78.1,152.3 77.1,152.2 C76.1,152 75.4,151 75.6,150 L75.6,150 Z" id="Shape"></path>
                        <path d="M68.2,148.3 C68.4,147.3 69.4,146.6 70.5,146.9 C71.5,147.1 72.1,148.1 71.9,149.2 C71.7,150.2 70.7,150.9 69.6,150.6 C68.7,150.3 68,149.3 68.2,148.3 L68.2,148.3 Z" id="Shape"></path>
                        <path d="M60.9,146.5 C61.2,145.5 62.2,144.9 63.2,145.2 C64.2,145.5 64.8,146.5 64.5,147.5 C64.2,148.5 63.2,149.1 62.2,148.8 C61.2,148.5 60.6,147.5 60.9,146.5 L60.9,146.5 Z" id="Shape"></path>
                        <path d="M53.7,144.4 C54,143.4 55.1,142.8 56.1,143.1 C57.1,143.4 57.7,144.4 57.4,145.4 C57.1,146.4 56,147 55,146.7 C53.9,146.4 53.3,145.4 53.7,144.4 L53.7,144.4 Z" id="Shape"></path>
                        <path d="M46.5,141.9 C46.9,140.9 47.9,140.4 48.9,140.7 C49.9,141 50.4,142.1 50.1,143.1 C49.8,144.1 48.7,144.6 47.7,144.2 C46.7,143.9 46.2,142.9 46.5,141.9 L46.5,141.9 Z" id="Shape"></path>
                        <path d="M39.5,139.1 C39.9,138.1 41,137.7 42,138.1 C43,138.5 43.4,139.6 43,140.6 C42.6,141.6 41.5,142 40.5,141.6 C39.6,141.2 39.1,140.1 39.5,139.1 L39.5,139.1 Z" id="Shape"></path>
                        <path d="M32.6,136.1 C33,135.2 34.2,134.8 35.1,135.2 C36,135.7 36.5,136.7 36,137.7 C35.6,138.6 34.4,139.1 33.5,138.6 C32.5,138.2 32.1,137 32.6,136.1 L32.6,136.1 Z" id="Shape"></path>
                        <path d="M25.8,132.8 C26.3,131.9 27.4,131.5 28.3,132 C29.2,132.4 29.6,133.6 29.1,134.5 C28.6,135.4 27.5,135.8 26.5,135.4 C25.7,134.8 25.3,133.7 25.8,132.8 L25.8,132.8 Z" id="Shape"></path>
                        <path d="M19.2,129.1 C19.7,128.2 20.9,127.9 21.8,128.4 C22.7,128.9 23,130 22.5,130.9 C22,131.8 20.8,132.1 19.9,131.6 C19,131.2 18.7,130 19.2,129.1 L19.2,129.1 Z" id="Shape"></path>
                        <path d="M12.8,125.1 C13.4,124.2 14.5,124 15.4,124.6 C16.3,125.1 16.5,126.3 16,127.2 C15.5,128.1 14.3,128.4 13.4,127.8 C12.4,127.1 12.2,125.9 12.8,125.1 L12.8,125.1 Z" id="Shape"></path>
                        <path d="M6.6,120.7 C7.2,119.9 8.4,119.7 9.2,120.3 C10,120.9 10.2,122.1 9.6,122.9 C9,123.8 7.8,124 7,123.3 C6.1,122.8 6,121.6 6.6,120.7 L6.6,120.7 Z" id="Shape"></path>
                        <path d="M0.7,116 C1.4,115.2 2.6,115.1 3.3,115.8 C4.1,116.4 4.2,117.6 3.6,118.4 C3,119.2 1.8,119.3 0.9,118.7 C0.1,118 -3.38618023e-14,116.8 0.7,116 L0.7,116 Z" id="Shape"></path>
                    </g>
                    <path d="M342.3,172.6 L335.6,165.9 C334.8,165.1 333.6,165.1 332.8,165.9 C332,166.7 332,167.9 332.8,168.7 L339.5,175.4 L332.8,182.1 C332,182.9 332,184.1 332.8,184.9 C333.6,185.7 334.8,185.7 335.6,184.9 L342.3,178.2 L349,184.9 C349.8,185.7 351,185.7 351.8,184.9 C352.2,184.5 352.4,184 352.4,183.5 C352.4,183 352.2,182.5 351.8,182.1 L345.1,175.4 L351.8,168.7 C352.2,168.3 352.4,167.8 352.4,167.3 C352.4,166.8 352.2,166.3 351.8,165.9 C351,165.1 349.8,165.1 349,165.9 L342.3,172.6 L342.3,172.6 Z" id="Shape" fill="#8E8E8E"></path>
                    <path d="M10.4,95.1 L3.7,88.4 C2.9,87.6 1.7,87.6 0.9,88.4 C0.1,89.2 0.1,90.4 0.9,91.2 L7.6,97.9 L0.9,104.6 C0.1,105.4 0.1,106.6 0.9,107.4 C1.7,108.2 2.9,108.2 3.7,107.4 L10.4,100.7 L17.1,107.4 C17.9,108.2 19.1,108.2 19.9,107.4 C20.3,107 20.5,106.5 20.5,106 C20.5,105.5 20.3,105 19.9,104.6 L13.2,97.9 L19.9,91.2 C20.3,90.8 20.5,90.3 20.5,89.8 C20.5,89.3 20.3,88.8 19.9,88.4 C19.1,87.6 17.9,87.6 17.1,88.4 L10.4,95.1 L10.4,95.1 Z" id="Shape" fill="#8E8E8E"></path>
                </g>
            </g>
        </g>
    </g>
</svg>