<?xml version="1.0" encoding="UTF-8" standalone="no"?>
<svg width="244px" height="134px" viewBox="0 0 244 134" version="1.1" xmlns="http://www.w3.org/2000/svg" xmlns:xlink="http://www.w3.org/1999/xlink" xmlns:sketch="http://www.bohemiancoding.com/sketch/ns">
    <!-- Generator: Sketch 3.1.1 (8761) - http://www.bohemiancoding.com/sketch -->
    <title>path-4</title>
    <desc>Created with Sketch.</desc>
    <defs></defs>
    <g id="Page-1" stroke="none" stroke-width="1" fill="none" fill-rule="evenodd" sketch:type="MSPage">
        <g id="site_26.10.14" sketch:type="MSLayerGroup" transform="translate(-1165.000000, -1613.000000)">
            <g id="enter_hover" transform="translate(93.000000, 0.000000)" sketch:type="MSShapeGroup">
                <g id="path-4" transform="translate(1072.000000, 1614.000000)">
                    <path d="M13.4,122.3 L20,115.5 C20.8,114.7 20.7,113.4 20,112.7 C19.2,111.9 17.9,112 17.2,112.7 L10.6,119.5 L3.8,112.9 C3,112.1 1.7,112.2 1,112.9 C0.2,113.7 0.3,115 1,115.7 L7.8,122.3 L1.2,129.1 C0.4,129.9 0.5,131.2 1.3,131.9 C1.7,132.3 2.2,132.5 2.7,132.5 C3.2,132.5 3.7,132.3 4.1,131.9 L10.7,125.1 L17.5,131.7 C17.9,132.1 18.4,132.3 18.9,132.3 C19.4,132.3 19.9,132.1 20.3,131.7 C21.1,130.9 21,129.6 20.3,128.9 L13.4,122.3 L13.4,122.3 Z" id="Shape" fill="#8E8E8E"></path>
                    <path d="M236.3,42.2 L242.9,35.4 C243.7,34.6 243.6,33.3 242.9,32.6 C242.1,31.8 240.8,31.9 240.1,32.7 L233.5,39.5 L226.7,32.9 C225.9,32.1 224.6,32.2 223.9,33 C223.1,33.8 223.2,35.1 224,35.8 L230.8,42.4 L224.2,49.2 C223.4,50 223.5,51.3 224.2,52 C224.6,52.4 225.1,52.6 225.6,52.6 C226.1,52.6 226.6,52.4 227,52 L233.6,45.2 L240.4,51.8 C240.8,52.2 241.3,52.4 241.8,52.4 C242.3,52.4 242.8,52.2 243.2,51.8 C244,51 243.9,49.7 243.2,49 L236.3,42.2 L236.3,42.2 Z" id="Shape" fill="#8E8E8E"></path>
                    <g id="Group" transform="translate(9.000000, 0.000000)" fill="#9B9B9B">
                        <path d="M1.8,98.2 C2.8,98.2 3.6,99.1 3.6,100.1 C3.6,101.1 2.7,101.9 1.7,101.9 C0.7,101.9 -0.2,101 -0.1,100 C-0.2,99 0.7,98.2 1.8,98.2 L1.8,98.2 Z" id="Shape"></path>
                        <path d="M2.3,90.8 C3.3,90.9 4.1,91.8 4,92.8 C3.9,93.8 3,94.6 2,94.5 C1,94.4 0.2,93.5 0.3,92.5 C0.3,91.4 1.2,90.7 2.3,90.8 L2.3,90.8 Z" id="Shape"></path>
                        <path d="M3.1,83.3 C4.1,83.4 4.8,84.4 4.7,85.4 C4.6,86.4 3.7,87.1 2.6,87 C1.6,86.9 0.8,85.9 0.9,84.9 C1.1,83.9 2.1,83.2 3.1,83.3 L3.1,83.3 Z" id="Shape"></path>
                        <path d="M4.3,76 C5.3,76.2 6,77.2 5.8,78.2 C5.6,79.2 4.6,79.9 3.6,79.7 C2.6,79.5 1.9,78.6 2.1,77.5 C2.3,76.4 3.3,75.8 4.3,76 L4.3,76 Z" id="Shape"></path>
                        <path d="M5.9,68.6 C6.9,68.9 7.5,69.8 7.3,70.8 C7.1,71.8 6.1,72.4 5.1,72.2 C4.1,72 3.4,71 3.7,69.9 C3.9,69 4.9,68.4 5.9,68.6 L5.9,68.6 Z" id="Shape"></path>
                        <path d="M7.9,61.4 C8.9,61.7 9.5,62.7 9.2,63.7 C8.9,64.7 7.9,65.2 6.9,65 C5.9,64.7 5.3,63.7 5.6,62.7 C5.9,61.7 6.9,61.1 7.9,61.4 L7.9,61.4 Z" id="Shape"></path>
                        <path d="M10.3,54.3 C11.3,54.7 11.8,55.7 11.4,56.7 C11.1,57.7 10,58.2 9,57.9 C8,57.6 7.5,56.5 7.8,55.5 C8.2,54.5 9.3,54 10.3,54.3 L10.3,54.3 Z" id="Shape"></path>
                        <path d="M13,47.4 C13.9,47.8 14.4,48.9 14,49.9 C13.6,50.8 12.5,51.3 11.5,50.9 C10.5,50.5 10.1,49.4 10.5,48.4 C11,47.4 12.1,46.9 13,47.4 L13,47.4 Z" id="Shape"></path>
                        <path d="M16.3,40.6 C17.2,41.1 17.6,42.2 17.1,43.1 C16.6,44 15.5,44.4 14.6,43.9 C13.7,43.5 13.3,42.3 13.7,41.4 C14.2,40.5 15.4,40.1 16.3,40.6 L16.3,40.6 Z" id="Shape"></path>
                        <path d="M20,34.1 C20.9,34.6 21.2,35.8 20.6,36.6 C20.1,37.5 19,37.8 18.1,37.3 C17.2,36.8 16.9,35.6 17.4,34.7 C17.9,33.8 19.1,33.6 20,34.1 L20,34.1 Z" id="Shape"></path>
                        <path d="M24.1,27.9 C24.9,28.5 25.1,29.7 24.6,30.5 C24,31.3 22.9,31.5 22,31 C21.1,30.4 20.9,29.2 21.5,28.4 C22.1,27.5 23.3,27.3 24.1,27.9 L24.1,27.9 Z" id="Shape"></path>
                        <path d="M28.8,22.1 C29.6,22.8 29.7,24 29,24.7 C28.4,25.5 27.2,25.6 26.4,24.9 C25.6,24.3 25.5,23.1 26.2,22.2 C26.8,21.5 28,21.4 28.8,22.1 L28.8,22.1 Z" id="Shape"></path>
                        <path d="M34,16.7 C34.7,17.5 34.7,18.7 34,19.4 C33.3,20.1 32.1,20.1 31.3,19.4 C30.5,18.7 30.6,17.5 31.3,16.7 C32.1,15.9 33.3,15.9 34,16.7 L34,16.7 Z" id="Shape"></path>
                        <path d="M39.8,11.9 C40.4,12.7 40.3,13.9 39.5,14.5 C38.7,15.1 37.5,15 36.9,14.2 C36.2,13.4 36.4,12.2 37.2,11.6 C38,10.9 39.2,11.1 39.8,11.9 L39.8,11.9 Z" id="Shape"></path>
                        <path d="M46.1,7.9 C46.6,8.8 46.3,10 45.5,10.5 C44.6,11 43.5,10.7 42.9,9.8 C42.3,8.9 42.6,7.8 43.5,7.2 C44.5,6.7 45.6,7 46.1,7.9 L46.1,7.9 Z" id="Shape"></path>
                        <path d="M52.9,4.8 C53.3,5.8 52.8,6.9 51.9,7.3 C51,7.7 49.9,7.2 49.4,6.3 C49,5.4 49.4,4.3 50.4,3.8 C51.4,3.3 52.5,3.8 52.9,4.8 L52.9,4.8 Z" id="Shape"></path>
                        <path d="M60.1,2.6 C60.3,3.6 59.7,4.6 58.8,4.9 C57.8,5.2 56.8,4.5 56.5,3.6 C56.2,2.6 56.8,1.6 57.8,1.3 C58.8,1 59.8,1.6 60.1,2.6 L60.1,2.6 Z" id="Shape"></path>
                        <path d="M67.5,1.6 C67.6,2.6 66.8,3.5 65.8,3.6 C64.8,3.7 63.9,3 63.8,1.9 C63.7,0.9 64.4,-0.1 65.5,-0.2 C66.5,-0.2 67.4,0.6 67.5,1.6 L67.5,1.6 Z" id="Shape"></path>
                        <path d="M74.9,1.9 C74.8,2.4 74.5,2.8 74.2,3.1 C73.8,3.4 73.4,3.6 72.9,3.5 C72,3.4 71.2,2.6 71.2,1.5 C71.2,0.5 72.1,-0.4 73.3,-0.3 C73.9,-0.2 74.3,-5.01820807e-14 74.6,0.4 C74.9,0.9 75,1.4 74.9,1.9 L74.9,1.9 Z" id="Shape"></path>
                        <path d="M82,4.2 C81.8,4.7 81.4,5 81,5.2 C80.6,5.4 80.1,5.4 79.6,5.2 C78.7,4.8 78.2,3.8 78.6,2.8 C78.9,1.8 80,1.3 81.1,1.7 C81.6,1.9 82,2.3 82.2,2.7 C82.3,3.2 82.2,3.8 82,4.2 L82,4.2 Z" id="Shape"></path>
                        <path d="M88.4,8.2 C87.8,9 86.6,9.2 85.8,8.6 C85,8 84.8,6.9 85.3,6 C85.8,5.1 87,4.9 87.9,5.5 C88.8,6.2 89,7.4 88.4,8.2 L88.4,8.2 Z" id="Shape"></path>
                        <path d="M93.9,13.2 C93.1,13.9 92,13.9 91.3,13.2 C90.6,12.5 90.6,11.3 91.2,10.6 C91.9,9.8 93.1,9.8 93.9,10.5 C94.7,11.2 94.7,12.5 93.9,13.2 L93.9,13.2 Z" id="Shape"></path>
                        <path d="M98.9,18.8 C98.1,19.5 96.9,19.3 96.3,18.6 C95.7,17.8 95.7,16.7 96.5,16 C97.3,15.3 98.5,15.4 99.2,16.2 C99.8,17 99.7,18.1 98.9,18.8 L98.9,18.8 Z" id="Shape"></path>
                        <path d="M103.4,24.8 C102.6,25.4 101.4,25.2 100.8,24.4 C100.2,23.6 100.4,22.4 101.2,21.8 C102,21.2 103.2,21.3 103.8,22.2 C104.4,23 104.2,24.2 103.4,24.8 L103.4,24.8 Z" id="Shape"></path>
                        <path d="M107.6,31 C106.7,31.6 105.6,31.3 105,30.5 C104.4,29.6 104.7,28.5 105.5,27.9 C106.4,27.3 107.5,27.5 108.1,28.4 C108.7,29.3 108.4,30.4 107.6,31 L107.6,31 Z" id="Shape"></path>
                        <path d="M111.5,37.3 C110.6,37.8 109.5,37.6 108.9,36.7 C108.4,35.8 108.6,34.7 109.5,34.1 C110.4,33.5 111.5,33.8 112.1,34.7 C112.7,35.6 112.4,36.8 111.5,37.3 L111.5,37.3 Z" id="Shape"></path>
                        <path d="M115.4,43.7 C114.5,44.2 113.4,43.9 112.8,43.1 C112.3,42.2 112.6,41.1 113.5,40.5 C114.4,40 115.5,40.3 116.1,41.1 C116.6,42.1 116.3,43.2 115.4,43.7 L115.4,43.7 Z" id="Shape"></path>
                        <circle id="Oval" transform="translate(117.787550, 48.390350) rotate(59.601272) translate(-117.787550, -48.390350) " cx="117.78755" cy="48.39035" r="1.89994514"></circle>
                        <path d="M123,56.6 C122.1,57.1 120.9,56.8 120.4,56 C119.9,55.1 120.2,54 121.1,53.4 C122,52.9 123.1,53.2 123.7,54 C124.2,55 123.9,56.1 123,56.6 L123,56.6 Z" id="Shape"></path>
                        <path d="M126.9,63 C126,63.5 124.9,63.3 124.3,62.4 C123.8,61.5 124,60.4 124.9,59.8 C125.8,59.3 126.9,59.5 127.5,60.4 C128,61.3 127.7,62.5 126.9,63 L126.9,63 Z" id="Shape"></path>
                        <path d="M130.9,69.4 C130,70 128.9,69.7 128.3,68.9 C127.7,68 128,66.9 128.9,66.3 C129.8,65.7 130.9,66 131.5,66.9 C132,67.6 131.8,68.8 130.9,69.4 L130.9,69.4 Z" id="Shape"></path>
                        <path d="M135.1,75.5 C134.3,76.1 133.1,75.9 132.5,75.1 C131.9,74.2 132.1,73.1 133,72.5 C133.9,71.9 135,72.1 135.6,73 C136.2,73.8 136,74.9 135.1,75.5 L135.1,75.5 Z" id="Shape"></path>
                        <path d="M139.7,81.5 C138.9,82.2 137.7,82 137,81.2 C136.4,80.4 136.5,79.2 137.3,78.6 C138.1,78 139.3,78.1 139.9,78.9 C140.6,79.6 140.5,80.8 139.7,81.5 L139.7,81.5 Z" id="Shape"></path>
                        <path d="M144.6,87.1 C143.9,87.8 142.7,87.8 141.9,87 C141.2,86.2 141.3,85 142,84.3 C142.8,83.6 144,83.7 144.6,84.4 C145.4,85.2 145.4,86.4 144.6,87.1 L144.6,87.1 Z" id="Shape"></path>
                        <path d="M150.1,92.2 C149.4,93 148.2,93.1 147.4,92.4 C146.6,91.7 146.5,90.5 147.3,89.7 C148,88.9 149.2,88.9 149.9,89.5 C150.7,90.2 150.8,91.4 150.1,92.2 L150.1,92.2 Z" id="Shape"></path>
                        <path d="M156.2,96.5 C155.7,97.4 154.5,97.7 153.6,97.1 C152.7,96.5 152.5,95.3 153.1,94.5 C153.7,93.7 154.8,93.4 155.7,94 C156.5,94.4 156.8,95.5 156.2,96.5 L156.2,96.5 Z" id="Shape"></path>
                        <path d="M163,99.6 C162.7,100.6 161.6,101.1 160.5,100.7 C159.5,100.3 159,99.1 159.5,98.2 C159.9,97.2 161,96.8 161.9,97.2 C162.9,97.5 163.3,98.6 163,99.6 L163,99.6 Z" id="Shape"></path>
                        <path d="M170.3,101.1 C170.2,102.1 169.3,102.9 168.2,102.7 C167.1,102.5 166.4,101.5 166.6,100.5 C166.8,99.5 167.8,98.8 168.7,99 C169.7,99.2 170.4,100 170.3,101.1 L170.3,101.1 Z" id="Shape"></path>
                        <path d="M177.8,101 C177.9,102 177.1,103 176.1,103.1 C175,103.1 174.1,102.3 174.1,101.3 C174.1,100.3 174.9,99.4 175.9,99.3 C176.8,99.2 177.7,99.9 177.8,101 L177.8,101 Z" id="Shape"></path>
                        <path d="M185.1,99.5 C185.4,100.5 184.8,101.5 183.8,101.8 C182.8,102.1 181.7,101.4 181.5,100.4 C181.3,99.4 181.9,98.4 182.9,98.2 C183.8,97.9 184.8,98.5 185.1,99.5 L185.1,99.5 Z" id="Shape"></path>
                        <path d="M192.1,96.7 C192.6,97.6 192.2,98.8 191.2,99.2 C190.2,99.6 189.1,99.2 188.7,98.2 C188.3,97.2 188.7,96.1 189.6,95.8 C190.5,95.4 191.6,95.8 192.1,96.7 L192.1,96.7 Z" id="Shape"></path>
                        <path d="M198.4,92.8 C199,93.6 198.8,94.9 197.9,95.4 C197,96 195.8,95.8 195.3,94.9 C194.8,94 195,92.9 195.8,92.3 C196.7,91.8 197.8,92 198.4,92.8 L198.4,92.8 Z" id="Shape"></path>
                        <path d="M204.2,88 C204.9,88.8 204.9,89.9 204.1,90.7 C203.3,91.4 202.1,91.3 201.4,90.5 C200.7,89.7 200.8,88.6 201.5,87.9 C202.3,87.2 203.5,87.3 204.2,88 L204.2,88 Z" id="Shape"></path>
                        <path d="M209.3,82.5 C210.1,83.2 210.2,84.4 209.5,85.2 C208.8,86 207.6,86.1 206.8,85.3 C206,84.6 206,83.4 206.6,82.7 C207.3,81.9 208.5,81.9 209.3,82.5 L209.3,82.5 Z" id="Shape"></path>
                        <path d="M213.7,76.5 C214.6,77.1 214.8,78.3 214.2,79.1 C213.6,80 212.4,80.1 211.6,79.5 C210.8,78.9 210.6,77.7 211.2,76.9 C211.7,76.2 212.9,76 213.7,76.5 L213.7,76.5 Z" id="Shape"></path>
                        <path d="M217.6,70.1 C218.5,70.6 218.8,71.8 218.3,72.7 C217.8,73.6 216.6,73.9 215.7,73.4 C214.8,72.9 214.5,71.7 215,70.8 C215.6,70 216.7,69.6 217.6,70.1 L217.6,70.1 Z" id="Shape"></path>
                        <path d="M221,63.5 C222,63.9 222.4,65 221.9,66 C221.4,67 220.3,67.3 219.4,66.9 C218.5,66.4 218.1,65.3 218.5,64.4 C218.9,63.4 220,63 221,63.5 L221,63.5 Z" id="Shape"></path>
                    </g>
                </g>
            </g>
        </g>
    </g>
</svg>