<?xml version="1.0" encoding="UTF-8" standalone="no"?>
<svg width="350px" height="111px" viewBox="0 0 350 111" version="1.1" xmlns="http://www.w3.org/2000/svg" xmlns:xlink="http://www.w3.org/1999/xlink" xmlns:sketch="http://www.bohemiancoding.com/sketch/ns">
    <!-- Generator: Sketch 3.1 (8751) - http://www.bohemiancoding.com/sketch -->
    <title>logo-white</title>
    <desc>Created with Sketch.</desc>
    <defs></defs>
    <g id="Page-1" stroke="none" stroke-width="1" fill="none" fill-rule="evenodd" sketch:type="MSPage">
        <g id="main_top" sketch:type="MSLayerGroup" transform="translate(-338.000000, -196.000000)" fill="#FFFFFF">
            <g id="menu" transform="translate(183.000000, 196.000000)" sketch:type="MSShapeGroup">
                <g id="logo-white" transform="translate(156.000000, 0.000000)">
                    <g id="Group" transform="translate(76.000000, 91.000000)">
                        <path d="M-0.2,0.3 L2.1,0.3 L2.1,6.5 L3.4,6.5 C5.5,6.5 5.7,3.7 6.7,1.7 C7.2,0.7 8,0.2 9.1,0.2 C9.5,0.2 10,0.3 10.3,0.4 L10.3,2.4 C10,2.3 9.7,2.3 9.5,2.3 C9,2.3 8.7,2.5 8.5,2.9 C7.8,4.1 7.5,6.5 6,7.3 L6,7.3 C6.6,7.5 7.2,8.2 7.7,9.3 L10.5,14.6 L7.9,14.6 L5.6,10 C5,8.7 4.5,8.3 4.1,8.3 L2,8.3 L2,14.6 L-0.3,14.6 L-0.3,0.3 L-0.2,0.3 Z" id="Shape"></path>
                        <path d="M12.6,4.3 L16.5,4.3 C19.6,4.3 20.5,5.7 20.5,7.1 C20.5,8.3 19.8,9 18.8,9.3 L18.8,9.3 C19.9,9.5 20.8,10.3 20.8,11.6 C20.8,13 19.8,14.5 16.7,14.5 L12.6,14.5 L12.6,4.3 L12.6,4.3 Z M16.7,8.6 C17.8,8.6 18.3,8.2 18.3,7.3 C18.3,6.5 17.8,6 16.5,6 L14.7,6 L14.7,8.6 L16.7,8.6 L16.7,8.6 Z M16.8,12.9 C18,12.9 18.6,12.4 18.6,11.5 C18.6,10.6 18,10.1 16.9,10.1 L14.8,10.1 L14.8,12.9 L16.8,12.9 L16.8,12.9 Z" id="Shape"></path>
                        <path d="M25,10 C25,11.8 26.2,13 28.1,13 C29.1,13 29.9,12.7 30.7,12.3 L31.4,13.8 C30.4,14.4 29.1,14.8 27.9,14.8 C24.3,14.8 22.8,12.3 22.8,9.4 C22.8,6.3 24.5,4 27.3,4 C30.1,4 31.7,6.1 31.7,9.4 L31.7,9.9 L25,9.9 L25,10 Z M29.3,8.4 C29.3,7.1 28.6,5.8 27.2,5.8 C25.8,5.8 25,7 25,8.4 L29.3,8.4 L29.3,8.4 Z" id="Shape"></path>
                        <path d="M33.4,9.5 C33.4,6.4 35.6,4 38.7,4 C39.9,4 40.8,4.3 41.4,4.7 L41.4,6.6 C40.7,6.1 39.9,5.8 38.9,5.8 C36.9,5.8 35.7,7.3 35.7,9.4 C35.7,11.6 36.9,12.9 38.8,12.9 C39.8,12.9 40.5,12.6 41.2,12.2 L41.9,13.8 C41.1,14.3 39.9,14.8 38.5,14.8 C35.3,14.8 33.4,12.5 33.4,9.5 L33.4,9.5 Z" id="Shape"></path>
                        <path d="M46.4,6.2 L43.2,6.2 L43.2,4.3 L52.4,4.3 L51.8,6.2 L48.7,6.2 L48.7,14.6 L46.4,14.6 L46.4,6.2 L46.4,6.2 Z" id="Shape"></path>
                        <path d="M54.2,4.3 L56.5,4.3 L56.5,8.1 C56.9,8.1 57.3,8 57.7,8 C61,8 62.1,9.5 62.1,11.2 C62.1,13 61.1,14.5 57.7,14.5 L54.3,14.5 L54.3,4.3 L54.2,4.3 Z M57.5,12.8 C59.3,12.8 59.7,12.1 59.7,11.3 C59.7,10.4 59.3,9.8 57.5,9.8 C57.2,9.8 56.8,9.8 56.4,9.9 L56.4,12.9 L57.5,12.9 L57.5,12.8 Z M63.4,4.3 L65.7,4.3 L65.7,14.6 L63.4,14.6 L63.4,4.3 L63.4,4.3 Z" id="Shape"></path>
                        <path d="M73.1,4.3 L77,4.3 C80.1,4.3 81,5.7 81,7.1 C81,8.3 80.3,9 79.3,9.3 L79.3,9.3 C80.4,9.5 81.3,10.3 81.3,11.6 C81.3,13 80.3,14.5 77.2,14.5 L73.1,14.5 L73.1,4.3 L73.1,4.3 Z M77.2,8.6 C78.3,8.6 78.9,8.2 78.9,7.3 C78.9,6.5 78.4,6 77.1,6 L75.3,6 L75.3,8.6 L77.2,8.6 L77.2,8.6 Z M77.3,12.9 C78.5,12.9 79.1,12.4 79.1,11.5 C79.1,10.6 78.5,10.1 77.4,10.1 L75.3,10.1 L75.3,12.9 L77.3,12.9 L77.3,12.9 Z" id="Shape"></path>
                        <path d="M88.3,4.7 C89.4,4.3 90.7,4 92,4 C95.5,4 97.5,6 97.5,9.4 C97.5,12.6 95.3,14.8 92.2,14.8 C91.6,14.8 91,14.7 90.5,14.5 L90.5,19.7 L88.2,19.7 L88.2,4.7 L88.3,4.7 Z M92,12.9 C94,12.9 95.1,11.5 95.1,9.4 C95.1,7 93.8,5.9 91.9,5.9 C91.4,5.9 91,6 90.5,6.1 L90.5,12.6 C91,12.8 91.4,12.9 92,12.9 L92,12.9 Z" id="Shape"></path>
                        <path d="M101.7,10 C101.7,11.8 102.9,13 104.8,13 C105.8,13 106.6,12.7 107.4,12.3 L108.1,13.8 C107.1,14.4 105.8,14.8 104.6,14.8 C101,14.8 99.5,12.3 99.5,9.4 C99.5,6.3 101.2,4 104,4 C106.8,4 108.4,6.1 108.4,9.4 L108.4,9.9 L101.7,9.9 L101.7,10 Z M106,8.4 C106,7.1 105.3,5.8 103.9,5.8 C102.5,5.8 101.7,7 101.7,8.4 L106,8.4 L106,8.4 Z" id="Shape"></path>
                        <path d="M116.4,13.5 C115.6,14.2 114.7,14.8 113.4,14.8 C111.5,14.8 110.1,13.5 110.1,11.5 C110.1,10.1 110.8,9.2 111.8,8.7 C112.5,8.3 113.4,8.2 114.4,8.1 L116.2,8 L116.2,7.6 C116.2,6.3 115.4,5.7 114.1,5.7 C113,5.7 112.1,6 111.4,6.4 L110.6,4.9 C111.8,4.2 113.1,3.9 114.5,3.9 C117,3.9 118.5,5.1 118.5,7.6 L118.5,11.6 C118.5,13.1 118.5,14 118.7,14.5 L116.8,14.5 L116.4,13.5 L116.4,13.5 Z M114.7,9.7 C114,9.7 113.4,9.8 113.1,10 C112.6,10.3 112.4,10.7 112.4,11.3 C112.4,12.3 113.1,12.9 114.1,12.9 C115.1,12.9 115.9,12.3 116.3,11.9 L116.3,9.6 L114.7,9.7 L114.7,9.7 Z" id="Shape"></path>
                        <path d="M120.4,14.7 L120.4,12.7 L120.7,12.7 C121.1,12.7 121.5,12.5 121.8,12 C122.6,10.8 123.5,8 123.9,4.3 L130,4.3 L130,14.6 L127.7,14.6 L127.7,6.3 L125.6,6.3 C125.2,9.5 124.4,12.2 123.3,13.5 C122.7,14.3 121.9,14.7 120.9,14.7 L120.4,14.7 L120.4,14.7 Z" id="Shape"></path>
                        <path d="M133,4.3 L135.3,4.3 L135.3,8.1 C135.7,8.1 136.1,8 136.5,8 C140,8 141.1,9.5 141.1,11.3 C141.1,13.1 140.1,14.6 136.5,14.6 L133,14.6 L133,4.3 L133,4.3 Z M136.4,12.8 C138.4,12.8 138.7,12.1 138.7,11.3 C138.7,10.4 138.3,9.8 136.3,9.8 C135.9,9.8 135.5,9.8 135.1,9.9 L135.1,12.9 L136.4,12.9 L136.4,12.8 Z" id="Shape"></path>
                        <path d="M143.2,4.3 L145.5,4.3 L145.5,8.1 L149.8,8.1 L149.8,4.3 L152.1,4.3 L152.1,14.6 L149.8,14.6 L149.8,10.1 L145.5,10.1 L145.5,14.6 L143.2,14.6 L143.2,4.3 L143.2,4.3 Z" id="Shape"></path>
                        <path d="M154.5,9.4 C154.5,6.3 156.5,4 159.5,4 C162.5,4 164.5,6.3 164.5,9.4 C164.5,12.5 162.5,14.8 159.5,14.8 C156.5,14.8 154.5,12.5 154.5,9.4 L154.5,9.4 Z M162.2,9.4 C162.2,7.4 161.3,5.9 159.5,5.9 C157.7,5.9 156.8,7.4 156.8,9.4 C156.8,11.5 157.8,12.9 159.5,12.9 C161.2,12.9 162.2,11.5 162.2,9.4 L162.2,9.4 Z" id="Shape"></path>
                        <path d="M166.4,9.5 C166.4,6.4 168.6,4 171.7,4 C172.9,4 173.8,4.3 174.4,4.7 L174.4,6.6 C173.7,6.1 172.9,5.8 171.9,5.8 C169.9,5.8 168.7,7.3 168.7,9.4 C168.7,11.6 169.9,12.9 171.8,12.9 C172.8,12.9 173.5,12.6 174.2,12.2 L174.8,13.8 C174,14.3 172.8,14.8 171.4,14.8 C168.2,14.8 166.4,12.5 166.4,9.5 L166.4,9.5 Z" id="Shape"></path>
                        <path d="M179.3,6.2 L176.1,6.2 L176.1,4.3 L185.3,4.3 L184.7,6.2 L181.6,6.2 L181.6,14.6 L179.3,14.6 L179.3,6.2 L179.3,6.2 Z" id="Shape"></path>
                        <path d="M187.2,4.3 L189.4,4.3 L189.4,9.3 C189.4,10.1 189.4,10.8 189.3,11.5 L189.3,11.5 C189.6,11 190.1,10.2 190.7,9.3 L194.2,4.3 L196.4,4.3 L196.4,14.6 L194.2,14.6 L194.2,9.6 C194.2,8.8 194.2,8.1 194.3,7.4 L194.2,7.4 C193.9,7.9 193.4,8.7 192.8,9.6 L189.3,14.6 L187.1,14.6 L187.1,4.3 L187.2,4.3 Z" id="Shape"></path>
                    </g>
                    <g id="Shape">
                        <path d="M260.5,0.2 C242.3,0.2 227.5,15 227.5,33.2 C227.5,51.4 242.3,66.2 260.5,66.2 C278.7,66.2 293.5,51.4 293.5,33.2 C293.4,14.9 278.6,0.2 260.5,0.2 L260.5,0.2 Z M260.5,53.8 C249.5,53.8 240.6,44.1 240.6,33.1 C240.6,22.1 249.5,12.4 260.5,12.4 C271.5,12.4 280.4,22.1 280.4,33.1 C280.4,44.1 271.5,53.8 260.5,53.8 L260.5,53.8 Z"></path>
                        <path d="M122.7,1.6 L88.1,1.6 C87.6,1.6 87.3,1.8 87.3,2.4 L87.3,63.7 C87.3,64.3 87.6,64.5 88.1,64.5 L122.7,64.5 C123.3,64.5 123.5,64.2 123.5,63.7 L123.5,52.8 C123.5,52.3 123.2,52 122.7,52 L101.2,52 C100.6,52 100.3,51.6 100.3,51.1 L100.3,51.1 L100.3,39.4 C100.3,38.8 100.5,38.5 101.2,38.5 L118.6,38.5 C119.2,38.5 119.4,38.2 119.4,37.7 L119.4,27 C119.4,26.5 119.2,26.2 118.6,26.2 L101,26.2 C100.5,26.1 100.3,25.8 100.3,25.3 L100.3,25.3 L100.3,14.7 C100.3,14.1 100.5,13.8 101.2,13.8 L122.7,13.8 C123.3,13.8 123.5,13.5 123.5,13 L123.5,2.3 C123.5,1.9 123.2,1.6 122.7,1.6 L122.7,1.6 Z"></path>
                        <path d="M217.7,1.6 L206.3,1.6 L206.3,1.6 C206.1,1.6 206,1.6 205.8,1.8 C205.8,1.8 205.8,1.8 205.7,1.9 C205.7,2 205.6,2 205.5,2.1 L169.3,63.3 C169,63.8 169.1,64.2 169.6,64.4 C169.8,64.5 172.1,65.9 172.3,66 C172.7,66.2 173.1,66.2 173.4,65.7 C173.4,65.7 204.5,13.1 204.8,12.6 C205.1,12.1 205.5,12.3 205.5,12.8 L205.5,63.8 C205.5,64.4 205.8,64.6 206.3,64.6 L217.7,64.6 C218.2,64.6 218.5,64.4 218.5,63.8 L218.5,2.5 C218.5,1.9 218.2,1.6 217.7,1.6 L217.7,1.6 Z"></path>
                        <path d="M348,56.7 C346.7,55.4 343.5,52.2 343.1,51.8 C342.6,51.3 342.3,50.8 342.3,50.1 L342.3,21.2 C342.3,20.5 342,20 341.5,19.5 C341.1,19.1 335.7,13.7 333.3,11.3 C332.9,11 332.9,10.5 333.3,10.2 L338.4,5.1 C338.8,4.7 338.8,4.3 338.4,4 C338.2,3.8 336.4,2 336.2,1.8 C335.8,1.5 335.5,1.4 335.1,1.8 L314.6,22.1 C314.3,22.4 314,22.2 314,21.9 L314,2.3 C314,1.7 313.7,1.5 313.2,1.5 L301.7,1.5 C301.2,1.5 300.9,1.7 300.9,2.3 L300.9,63.6 C300.9,64.2 301.2,64.4 301.7,64.4 L313.2,64.4 C313.7,64.4 314,64.2 314,63.6 L314,30.2 C314,29.7 314,29.4 314.5,28.9 L314.5,28.9 L323,20.5 C323.3,20.2 323.8,20.1 324.2,20.5 L324.2,20.5 C325.7,22 328.2,24.5 328.5,24.8 C329,25.3 329.3,25.8 329.3,26.5 L329.3,55.4 C329.3,56.1 329.6,56.6 330.1,57.1 C330.5,57.5 336.7,63.7 338.8,65.7 C339.2,66.1 339.6,66.1 340,65.7 L348,57.9 C348.4,57.6 348.4,57.1 348,56.7 L348,56.7 Z"></path>
                        <path d="M74.4,1.8 L62.9,1.8 C62.4,1.8 62.1,2 62.1,2.6 L62.1,40.9 C62.1,41.3 62.1,41.6 61.8,42 C60.2,43.6 53.2,50.6 53.2,50.6 C53.2,50.6 50.7,53.1 50.6,53.2 C50.1,53.6 49.8,53.5 49.5,53.2 L47.8,51.5 C47.3,51 47,50.5 47,49.8 L47,2.5 C47,1.9 46.7,1.7 46.2,1.7 L34.7,1.7 C34.2,1.7 33.9,1.9 33.9,2.5 L33.9,41.1 C33.9,41.3 33.8,41.5 33.7,41.7 C28.7,46.6 22.6,52.8 22.3,53 C21.8,53.4 21.5,53.3 21.2,53 L19.5,51.3 C19,50.8 18.7,50.3 18.7,49.6 L18.7,10.8 C18.7,10.1 18.4,9.6 17.9,9.1 C17.5,8.7 11.3,2.5 9.2,0.5 C8.8,0.1 8.3,0.1 8,0.4 L-1.12021503e-13,8.2 C-0.5,8.7 -0.4,9.2 -1.12021503e-13,9.6 C1.3,10.9 4.5,14.1 4.9,14.5 C5.4,15 5.7,15.5 5.7,16.2 L5.7,55 C5.7,55.7 6,56.2 6.5,56.7 C6.9,57.1 13.1,63.3 15.2,65.3 C15.6,65.7 16.3,65.7 16.6,65.3 L33.2,48.7 C33.5,48.4 33.8,48.6 33.8,48.9 L33.8,54.9 C33.8,55.6 34.1,56.1 34.6,56.6 C35,57 41.2,63.2 43.3,65.2 C43.8,65.7 44.4,65.6 44.7,65.3 L61.4,48.6 C61.7,48.5 61.9,48.7 61.9,48.9 L61.9,63.6 C61.9,64.2 62.2,64.4 62.7,64.4 L74.2,64.4 C74.7,64.4 75,64.1 75,63.6 L75,2.3 C75.2,2 74.9,1.8 74.4,1.8 L74.4,1.8 Z"></path>
                        <path d="M151.8,1.6 L146.9,1.6 L146.9,1.6 L135.4,1.6 C134.9,1.6 134.6,1.8 134.6,2.4 L134.6,63.7 C134.6,64.3 134.9,64.5 135.4,64.5 L146.9,64.5 C147.4,64.5 147.7,64.3 147.7,63.7 L147.7,48.7 C147.7,48.2 148,47.8 148.6,47.8 L148.6,47.8 L151.8,47.8 C163.4,47.8 177.5,42 177.5,24.7 C177.5,7.4 163.4,1.6 151.8,1.6 L151.8,1.6 Z M150.3,35.6 L148.5,35.6 L148.5,35.6 C147.9,35.6 147.7,35.2 147.6,34.7 L147.6,14.9 C147.6,14.4 147.8,14 148.5,14 L150.2,14 C159.6,14 164.4,18.6 164.4,24.8 C164.5,31 159.7,35.6 150.3,35.6 L150.3,35.6 Z"></path>
                    </g>
                </g>
            </g>
        </g>
    </g>
</svg>