<?xml version="1.0" encoding="UTF-8" standalone="no"?>
<svg width="70px" height="14px" viewBox="0 0 70 14" version="1.1" xmlns="http://www.w3.org/2000/svg" xmlns:xlink="http://www.w3.org/1999/xlink" xmlns:sketch="http://www.bohemiancoding.com/sketch/ns">
    <!-- Generator: Sketch 3.1 (8751) - http://www.bohemiancoding.com/sketch -->
    <title>logo-sm</title>
    <desc>Created with Sketch.</desc>
    <defs></defs>
    <g id="Page-1" stroke="none" stroke-width="1" fill="none" fill-rule="evenodd" sketch:type="MSPage">
        <g id="Главная" sketch:type="MSArtboardGroup" transform="translate(-38.000000, -11.000000)" fill="#FFFFFF">
            <g id="Header" sketch:type="MSLayerGroup" transform="translate(-4.000000, -2.000000)">
                <g id="logo-sm" transform="translate(42.000000, 13.000000)" sketch:type="MSShapeGroup">
                    <g id="Group">
                        <path d="M51.9,0.4 C48.3,0.4 45.3,3.3 45.3,7 C45.3,10.7 48.2,13.6 51.9,13.6 C55.5,13.6 58.5,10.7 58.5,7 C58.5,3.3 55.6,0.4 51.9,0.4 L51.9,0.4 Z M51.9,11.1 C49.7,11.1 47.9,9.2 47.9,7 C47.9,4.8 49.7,2.9 51.9,2.9 C54.1,2.9 55.9,4.8 55.9,7 C55.9,9.2 54.1,11.1 51.9,11.1 L51.9,11.1 Z" id="Shape"></path>
                        <path d="M24.5,0.7 L17.6,0.7 C17.5,0.7 17.4,0.7 17.4,0.9 L17.4,13.1 C17.4,13.2 17.5,13.3 17.6,13.3 L24.5,13.3 C24.6,13.3 24.7,13.2 24.7,13.1 L24.7,10.9 C24.7,10.8 24.7,10.7 24.5,10.7 L20.2,10.7 C20.1,10.7 20,10.6 20,10.5 L20,10.5 L20,8.2 C20,8.1 20,8 20.2,8 L23.7,8 C23.8,8 23.9,7.9 23.9,7.8 L23.9,5.7 C23.9,5.6 23.9,5.5 23.7,5.5 L20.2,5.5 C20.1,5.5 20.1,5.4 20.1,5.3 L20.1,5.3 L20.1,3.2 C20.1,3.1 20.1,3 20.3,3 L24.6,3 C24.7,3 24.8,2.9 24.8,2.8 L24.8,0.7 C24.6,0.8 24.6,0.7 24.5,0.7 L24.5,0.7 Z" id="Shape"></path>
                        <path d="M43.4,0.7 L41.1,0.7 L41.1,0.7 L41,0.7 L41,0.7 L33.8,13 C33.7,13.1 33.8,13.2 33.8,13.2 L34.3,13.5 C34.4,13.5 34.5,13.5 34.5,13.4 C34.5,13.4 40.7,2.9 40.8,2.8 C40.9,2.7 40.9,2.8 40.9,2.8 L40.9,13 C40.9,13.1 41,13.2 41.1,13.2 L43.4,13.2 C43.5,13.2 43.6,13.2 43.6,13 L43.6,0.9 C43.6,0.8 43.5,0.7 43.4,0.7 L43.4,0.7 Z" id="Shape"></path>
                        <path d="M69.4,11.7 C69.1,11.4 68.5,10.8 68.4,10.7 C68.3,10.6 68.2,10.5 68.2,10.4 L68.2,4.6 C68.2,4.5 68.1,4.4 68,4.3 C67.9,4.2 66.8,3.1 66.4,2.7 C66.3,2.6 66.3,2.6 66.4,2.5 L67.4,1.5 C67.5,1.4 67.5,1.3 67.4,1.3 L67,0.9 C66.9,0.8 66.9,0.8 66.8,0.9 L62.7,5 C62.6,5.1 62.6,5 62.6,5 L62.6,1.1 C62.6,1 62.5,0.9 62.4,0.9 L60.1,0.9 C60,0.9 59.9,0.9 59.9,1.1 L59.9,13.3 C59.9,13.4 60,13.5 60.1,13.5 L62.4,13.5 C62.5,13.5 62.6,13.5 62.6,13.3 L62.6,6.7 C62.6,6.6 62.6,6.5 62.7,6.4 L62.7,6.4 L64.4,4.7 C64.5,4.6 64.6,4.6 64.6,4.7 L64.6,4.7 C64.9,5 65.4,5.5 65.5,5.6 C65.6,5.7 65.7,5.8 65.7,5.9 L65.7,11.7 C65.7,11.8 65.8,11.9 65.9,12 C66,12.1 67.2,13.3 67.6,13.7 C67.7,13.8 67.8,13.8 67.8,13.7 L69.4,12.1 C69.5,11.9 69.5,11.8 69.4,11.7 L69.4,11.7 Z" id="Shape"></path>
                        <path d="M14.9,0.7 L12.6,0.7 C12.5,0.7 12.4,0.7 12.4,0.9 L12.4,8.5 C12.4,8.6 12.4,8.6 12.3,8.7 C12,9 10.6,10.4 10.6,10.4 L10.1,11 C10,11.1 9.9,11.1 9.9,11 C9.7,10.8 9.6,10.7 9.6,10.7 C9.5,10.6 9.4,10.5 9.4,10.4 L9.4,1 C9.4,0.9 9.3,0.8 9.2,0.8 L6.9,0.8 C6.8,0.8 6.7,0.8 6.7,1 L6.7,8.7 L6.7,8.8 C5.7,9.8 4.5,11 4.4,11.1 C4.3,11.2 4.2,11.2 4.2,11.1 C4,10.9 3.9,10.8 3.9,10.8 C3.8,10.7 3.7,10.6 3.7,10.5 L3.7,2.8 C3.7,2.7 3.6,2.6 3.5,2.5 C3.4,2.4 2.2,1.2 1.8,0.8 C1.7,0.7 1.6,0.7 1.6,0.8 L-1.59872116e-14,2.4 C-0.1,2.5 -0.1,2.6 -1.59872116e-14,2.7 C0.3,3 0.9,3.6 1,3.7 C1.1,3.8 1.2,3.9 1.2,4 L1.2,11.7 C1.2,11.8 1.3,11.9 1.4,12 C1.5,12.1 2.7,13.3 3.1,13.7 C3.2,13.8 3.3,13.8 3.4,13.7 L6.7,10.4 C6.8,10.3 6.8,10.4 6.8,10.4 L6.8,11.6 C6.8,11.7 6.9,11.8 7,11.9 C7.1,12 8.3,13.2 8.7,13.6 C8.8,13.7 8.9,13.7 9,13.6 L12.3,10.3 C12.4,10.3 12.4,10.3 12.4,10.4 L12.4,13.3 C12.4,13.4 12.5,13.5 12.6,13.5 L14.9,13.5 C15,13.5 15.1,13.5 15.1,13.3 L15.1,0.9 C15,0.8 15,0.7 14.9,0.7 L14.9,0.7 Z" id="Shape"></path>
                        <path d="M30.3,0.7 L29.3,0.7 L29.3,0.7 L27,0.7 C26.9,0.7 26.8,0.7 26.8,0.9 L26.8,13.1 C26.8,13.2 26.9,13.3 27,13.3 L29.3,13.3 C29.4,13.3 29.5,13.3 29.5,13.1 L29.5,10.1 C29.5,10 29.6,9.9 29.7,9.9 L29.7,9.9 L30.3,9.9 C32.6,9.9 35.4,8.7 35.4,5.3 C35.4,1.9 32.6,0.7 30.3,0.7 L30.3,0.7 Z M30,7.5 L29.6,7.5 L29.6,7.5 C29.5,7.5 29.4,7.4 29.4,7.3 L29.4,3.3 C29.4,3.2 29.5,3.1 29.6,3.1 L29.9,3.1 C31.8,3.1 32.7,4 32.7,5.3 C32.8,6.6 31.9,7.5 30,7.5 L30,7.5 Z" id="Shape"></path>
                    </g>
                </g>
            </g>
        </g>
    </g>
</svg>