<?xml version="1.0" encoding="UTF-8" standalone="no"?>
<svg width="274px" height="87px" viewBox="0 0 274 87" version="1.1" xmlns="http://www.w3.org/2000/svg" xmlns:xlink="http://www.w3.org/1999/xlink" xmlns:sketch="http://www.bohemiancoding.com/sketch/ns">
    <!-- Generator: Sketch 3.1 (8751) - http://www.bohemiancoding.com/sketch -->
    <title>logo</title>
    <desc>Created with Sketch.</desc>
    <defs></defs>
    <g id="Page-1" stroke="none" stroke-width="1" fill="none" fill-rule="evenodd" sketch:type="MSPage">
        <g id="Главная" sketch:type="MSArtboardGroup" transform="translate(-581.000000, -97.000000)" fill="#2C3236">
            <g id="logo" sketch:type="MSLayerGroup" transform="translate(582.000000, 97.000000)">
                <g id="Group" transform="translate(59.000000, 71.000000)" sketch:type="MSShapeGroup">
                    <path d="M0.2,0.2 L2,0.2 L2,5 L3.1,5 C4.8,5 4.9,2.8 5.7,1.2 C6.1,0.5 6.7,0 7.6,0 C7.9,0 8.3,0.1 8.6,0.2 L8.6,1.8 C8.3,1.7 8.2,1.7 8,1.7 C7.6,1.7 7.4,1.9 7.2,2.2 C6.7,3.1 6.4,5 5.3,5.6 L5.3,5.6 C5.8,5.8 6.2,6.3 6.7,7.1 L8.9,11.3 L6.8,11.3 L5,7.7 C4.5,6.7 4.2,6.4 3.8,6.4 L2,6.4 L2,11.3 L0.2,11.3 L0.2,0.2 L0.2,0.2 Z" id="Shape"></path>
                    <path d="M10.3,3.3 L13.4,3.3 C15.8,3.3 16.6,4.4 16.6,5.5 C16.6,6.4 16,7 15.3,7.2 L15.3,7.2 C16.1,7.4 16.8,8 16.8,9 C16.8,10.1 16,11.3 13.6,11.3 L10.4,11.3 L10.4,3.3 L10.3,3.3 Z M13.4,6.7 C14.3,6.7 14.7,6.4 14.7,5.7 C14.7,5.1 14.3,4.7 13.3,4.7 L12,4.7 L12,6.8 L13.4,6.8 L13.4,6.7 Z M13.5,10.1 C14.5,10.1 14.9,9.7 14.9,9 C14.9,8.3 14.4,7.9 13.6,7.9 L12,7.9 L12,10.1 L13.5,10.1 L13.5,10.1 Z" id="Shape"></path>
                    <path d="M19.9,7.8 C19.9,9.2 20.8,10.1 22.3,10.1 C23.1,10.1 23.7,9.9 24.3,9.6 L24.8,10.8 C24,11.3 23,11.5 22.1,11.5 C19.3,11.5 18.1,9.5 18.1,7.3 C18.1,4.9 19.4,3.1 21.6,3.1 C23.8,3.1 25,4.7 25,7.3 L25,7.7 L19.9,7.7 L19.9,7.8 Z M23.3,6.5 C23.3,5.5 22.8,4.5 21.6,4.5 C20.5,4.5 19.9,5.4 19.9,6.5 L23.3,6.5 L23.3,6.5 Z" id="Shape"></path>
                    <path d="M26.6,7.4 C26.6,5 28.3,3.1 30.8,3.1 C31.7,3.1 32.5,3.4 32.9,3.6 L32.9,5.1 C32.3,4.7 31.7,4.5 30.9,4.5 C29.3,4.5 28.4,5.7 28.4,7.3 C28.4,9 29.4,10 30.8,10 C31.6,10 32.1,9.8 32.7,9.5 L33.2,10.7 C32.6,11.1 31.6,11.5 30.5,11.5 C28,11.5 26.6,9.7 26.6,7.4 L26.6,7.4 Z" id="Shape"></path>
                    <path d="M36.7,4.8 L34.2,4.8 L34.2,3.3 L41.4,3.3 L40.9,4.8 L38.5,4.8 L38.5,11.3 L36.7,11.3 L36.7,4.8 L36.7,4.8 Z" id="Shape"></path>
                    <path d="M42.8,3.3 L44.6,3.3 L44.6,6.2 L45.5,6.2 C48.1,6.2 48.9,7.4 48.9,8.7 C48.9,10.1 48.1,11.3 45.5,11.3 L42.9,11.3 L42.9,3.3 L42.8,3.3 Z M45.4,10 C46.8,10 47.1,9.5 47.1,8.8 C47.1,8.1 46.8,7.6 45.4,7.6 C45.1,7.6 44.9,7.6 44.6,7.7 L44.6,10 L45.4,10 L45.4,10 Z M49.9,3.3 L51.7,3.3 L51.7,11.3 L49.9,11.3 L49.9,3.3 L49.9,3.3 Z" id="Shape"></path>
                    <path d="M57.6,3.3 L60.7,3.3 C63.1,3.3 63.8,4.4 63.8,5.5 C63.8,6.4 63.2,7 62.5,7.2 L62.5,7.2 C63.3,7.4 64,8 64,9 C64,10.1 63.2,11.3 60.8,11.3 L57.6,11.3 L57.6,3.3 L57.6,3.3 Z M60.8,6.7 C61.6,6.7 62.1,6.4 62.1,5.7 C62.1,5.1 61.7,4.7 60.7,4.7 L59.3,4.7 L59.3,6.8 L60.8,6.8 L60.8,6.7 Z M60.8,10.1 C61.8,10.1 62.2,9.7 62.2,9 C62.2,8.3 61.7,7.9 60.9,7.9 L59.2,7.9 L59.2,10.1 L60.8,10.1 L60.8,10.1 Z" id="Shape"></path>
                    <path d="M69.4,3.6 C70.3,3.3 71.3,3.1 72.3,3.1 C75.1,3.1 76.6,4.7 76.6,7.3 C76.6,9.8 74.9,11.5 72.5,11.5 C72,11.5 71.6,11.4 71.2,11.3 L71.2,15.4 L69.4,15.4 L69.4,3.6 L69.4,3.6 Z M72.3,10.1 C73.9,10.1 74.7,9 74.7,7.4 C74.7,5.5 73.7,4.7 72.2,4.7 C71.8,4.7 71.5,4.8 71.1,4.8 L71.1,9.9 C71.5,10 71.9,10.1 72.3,10.1 L72.3,10.1 Z" id="Shape"></path>
                    <path d="M79.9,7.8 C79.9,9.2 80.8,10.1 82.3,10.1 C83.1,10.1 83.7,9.9 84.3,9.6 L84.8,10.8 C84,11.3 83,11.5 82.1,11.5 C79.3,11.5 78.1,9.5 78.1,7.3 C78.1,4.9 79.4,3.1 81.6,3.1 C83.8,3.1 85,4.7 85,7.3 L85,7.7 L79.9,7.7 L79.9,7.8 Z M83.2,6.5 C83.2,5.5 82.7,4.5 81.5,4.5 C80.4,4.5 79.8,5.4 79.8,6.5 L83.2,6.5 L83.2,6.5 Z" id="Shape"></path>
                    <path d="M91.4,10.5 C90.8,11.1 90.1,11.5 89.1,11.5 C87.6,11.5 86.5,10.5 86.5,9 C86.5,7.9 87,7.2 87.8,6.8 C88.4,6.5 89,6.4 89.9,6.4 L91.3,6.4 L91.3,6 C91.3,5 90.6,4.5 89.7,4.5 C88.9,4.5 88.1,4.8 87.6,5.1 L87,3.9 C88,3.4 89,3.1 90,3.1 C92,3.1 93.1,4 93.1,6 L93.1,9.1 C93.1,10.2 93.1,11 93.3,11.4 L91.8,11.4 L91.4,10.5 L91.4,10.5 Z M90,7.6 C89.4,7.6 89,7.7 88.7,7.9 C88.3,8.1 88.1,8.5 88.1,8.9 C88.1,9.7 88.6,10.1 89.4,10.1 C90.2,10.1 90.8,9.6 91.1,9.3 L91.1,7.5 L90,7.6 L90,7.6 Z" id="Shape"></path>
                    <path d="M94.5,11.4 L94.5,9.8 L94.8,9.8 C95.1,9.8 95.4,9.6 95.7,9.2 C96.3,8.3 97,6 97.3,3.2 L102.1,3.2 L102.1,11.2 L100.3,11.2 L100.3,4.7 L98.7,4.7 C98.4,7.2 97.7,9.3 96.9,10.4 C96.4,11 95.8,11.3 95,11.3 C94.9,11.5 94.7,11.5 94.5,11.4 L94.5,11.4 Z" id="Shape"></path>
                    <path d="M104.4,3.3 L106.2,3.3 L106.2,6.2 L107.1,6.2 C109.9,6.2 110.7,7.4 110.7,8.7 C110.7,10.1 109.9,11.3 107.1,11.3 L104.3,11.3 L104.3,3.3 L104.4,3.3 Z M107.1,10 C108.6,10 108.9,9.5 108.9,8.8 C108.9,8.1 108.6,7.6 107,7.6 C106.7,7.6 106.4,7.6 106.1,7.7 L106.1,10 L107.1,10 L107.1,10 Z" id="Shape"></path>
                    <path d="M112.4,3.3 L114.2,3.3 L114.2,6.3 L117.6,6.3 L117.6,3.3 L119.4,3.3 L119.4,11.3 L117.6,11.3 L117.6,7.8 L114.2,7.8 L114.2,11.3 L112.4,11.3 L112.4,3.3 L112.4,3.3 Z" id="Shape"></path>
                    <path d="M121.2,7.3 C121.2,4.9 122.8,3.1 125.1,3.1 C127.4,3.1 129,4.9 129,7.3 C129,9.7 127.4,11.5 125.1,11.5 C122.7,11.5 121.2,9.7 121.2,7.3 L121.2,7.3 Z M127.2,7.3 C127.2,5.7 126.5,4.6 125.1,4.6 C123.7,4.6 123,5.8 123,7.3 C123,8.9 123.8,10.1 125.1,10.1 C126.4,10.1 127.2,8.9 127.2,7.3 L127.2,7.3 Z" id="Shape"></path>
                    <path d="M130.5,7.4 C130.5,5 132.2,3.1 134.7,3.1 C135.7,3.1 136.4,3.4 136.8,3.6 L136.8,5.1 C136.2,4.7 135.6,4.5 134.8,4.5 C133.2,4.5 132.3,5.7 132.3,7.3 C132.3,9 133.3,10 134.7,10 C135.5,10 136,9.8 136.6,9.5 L137.1,10.7 C136.5,11.1 135.5,11.5 134.5,11.5 C131.9,11.5 130.5,9.7 130.5,7.4 L130.5,7.4 Z" id="Shape"></path>
                    <path d="M140.6,4.8 L138.1,4.8 L138.1,3.3 L145.3,3.3 L144.8,4.8 L142.4,4.8 L142.4,11.3 L140.6,11.3 L140.6,4.8 L140.6,4.8 Z" id="Shape"></path>
                    <path d="M146.7,3.3 L148.4,3.3 L148.4,7.2 C148.4,7.8 148.4,8.4 148.3,8.9 L148.3,8.9 C148.6,8.5 148.9,7.9 149.4,7.2 L152.1,3.3 L153.8,3.3 L153.8,11.3 L152.1,11.3 L152.1,7.4 C152.1,6.8 152.1,6.2 152.2,5.7 L152.2,5.7 C152,6.1 151.6,6.7 151.1,7.4 L148.4,11.3 L146.7,11.3 L146.7,3.3 L146.7,3.3 Z" id="Shape"></path>
                </g>
                <g id="Group" sketch:type="MSShapeGroup">
                    <path d="M203.6,0 C189.4,0 177.8,11.6 177.8,25.8 C177.8,40 189.4,51.6 203.6,51.6 C217.8,51.6 229.4,40 229.4,25.8 C229.4,11.5 217.8,0 203.6,0 L203.6,0 Z M203.6,41.9 C195,41.9 188,34.3 188,25.7 C188,17.1 195,9.5 203.6,9.5 C212.2,9.5 219.2,17.1 219.2,25.7 C219.2,34.3 212.2,41.9 203.6,41.9 L203.6,41.9 Z" id="Shape"></path>
                    <path d="M95.9,1.1 L68.9,1.1 C68.5,1.1 68.3,1.3 68.3,1.8 L68.3,49.7 C68.3,50.2 68.5,50.4 68.9,50.4 L95.9,50.4 C96.4,50.4 96.6,50.2 96.6,49.8 L96.6,41.3 C96.6,40.9 96.4,40.7 95.9,40.7 L79.1,40.7 C78.6,40.7 78.4,40.4 78.4,40 L78.4,40 L78.4,30.8 C78.4,30.4 78.6,30.1 79.1,30.1 L92.7,30.1 C93.2,30.1 93.4,29.9 93.4,29.5 L93.4,21.1 C93.4,20.7 93.2,20.5 92.7,20.5 L79,20.5 C78.6,20.5 78.4,20.2 78.4,19.8 L78.4,19.8 L78.4,11.6 C78.4,11.2 78.6,10.9 79.1,10.9 L95.9,10.9 C96.4,10.9 96.6,10.7 96.6,10.3 L96.6,2 C96.5,1.4 96.3,1.1 95.9,1.1 L95.9,1.1 Z" id="Shape"></path>
                    <path d="M170.2,1.1 L161.3,1.1 L161.3,1.1 C161.2,1.1 161,1.1 160.9,1.2 L160.9,1.2 C160.9,1.2 160.8,1.3 160.8,1.4 L132.5,49.2 C132.3,49.6 132.4,49.9 132.7,50.1 C132.9,50.2 134.6,51.2 134.8,51.3 C135.1,51.5 135.4,51.4 135.7,51 C135.7,51 160,9.9 160.2,9.5 C160.4,9.1 160.7,9.3 160.7,9.6 L160.7,49.4 C160.7,49.9 160.9,50.1 161.3,50.1 L170.2,50.1 C170.6,50.1 170.8,49.9 170.8,49.4 L170.8,1.5 C170.8,1.3 170.6,1.1 170.2,1.1 L170.2,1.1 Z" id="Shape"></path>
                    <path d="M272,44.2 C271,43.2 268.5,40.7 268.2,40.4 C267.8,40 267.6,39.6 267.6,39.1 L267.6,16.5 C267.6,16 267.3,15.5 267,15.2 C266.7,14.9 262.5,10.7 260.6,8.8 C260.3,8.5 260.3,8.2 260.6,7.9 L264.6,3.9 C264.9,3.6 264.9,3.3 264.6,3 C264.5,2.9 263,1.4 262.9,1.3 C262.6,1 262.3,1 262,1.3 L246,17.2 C245.8,17.4 245.5,17.3 245.5,17 L245.5,1.7 C245.5,1.2 245.3,1 244.9,1 L235.9,1 C235.5,1 235.3,1.2 235.3,1.7 L235.3,49.6 C235.3,50.1 235.5,50.3 235.9,50.3 L244.9,50.3 C245.3,50.3 245.5,50.1 245.5,49.6 L245.5,23.5 C245.5,23.1 245.5,22.9 245.9,22.5 L245.9,22.5 L252.5,15.9 C252.7,15.7 253.1,15.6 253.4,15.9 L253.4,15.9 C254.6,17.1 256.5,19 256.8,19.3 C257.2,19.7 257.4,20.1 257.4,20.6 L257.4,43.2 C257.4,43.7 257.7,44.2 258,44.5 C258.3,44.8 263.2,49.7 264.8,51.3 C265.1,51.6 265.5,51.6 265.8,51.3 L272,45.2 C272.4,44.9 272.3,44.5 272,44.2 L272,44.2 Z" id="Shape"></path>
                    <path d="M58.2,1.2 L49.2,1.2 C48.8,1.2 48.6,1.4 48.6,1.8 L48.6,31.7 C48.6,32 48.6,32.2 48.3,32.5 C47.1,33.7 41.6,39.2 41.6,39.2 C41.6,39.2 39.7,41.2 39.6,41.2 C39.2,41.5 39,41.5 38.7,41.2 C38,40.6 37.5,40 37.4,39.9 C37,39.5 36.8,39.1 36.8,38.6 L36.8,1.6 C36.8,1.1 36.6,1 36.2,1 L27.2,1 C26.8,1 26.6,1.2 26.6,1.6 L26.6,31.8 C26.6,32 26.5,32.1 26.4,32.3 C22.5,36.2 17.7,41 17.5,41.2 C17.1,41.5 16.9,41.5 16.6,41.2 C16,40.6 15.4,40 15.3,39.9 C14.9,39.5 14.7,39.1 14.7,38.6 L14.7,8.2 C14.7,7.7 14.5,7.3 14.1,6.9 C13.8,6.6 8.9,1.7 7.3,0.2 C7,-0.1 6.6,-0.1 6.3,0.2 L0.1,6.3 C-0.3,6.7 -0.2,7.1 0.1,7.4 C1.1,8.4 3.6,10.9 3.9,11.2 C4.3,11.6 4.5,12 4.5,12.5 L4.5,42.9 C4.5,43.4 4.7,43.9 5.1,44.2 C5.4,44.5 10.3,49.4 11.9,51 C12.2,51.3 12.7,51.3 13,51 L26,38.1 C26.2,37.9 26.5,38 26.5,38.3 L26.5,43 C26.5,43.5 26.8,44 27.1,44.3 C27.4,44.6 32.3,49.5 33.9,51.1 C34.3,51.5 34.8,51.4 35,51.2 L48.1,38.1 C48.3,38 48.5,38.1 48.5,38.3 L48.5,49.8 C48.5,50.3 48.7,50.5 49.1,50.5 L58.1,50.5 C58.5,50.5 58.7,50.3 58.7,49.8 L58.7,1.9 C58.8,1.4 58.6,1.2 58.2,1.2 L58.2,1.2 Z" id="Shape"></path>
                    <path d="M118.7,1.1 L114.9,1.1 L114.9,1.1 L105.9,1.1 C105.5,1.1 105.3,1.3 105.3,1.8 L105.3,49.7 C105.3,50.2 105.5,50.4 105.9,50.4 L114.9,50.4 C115.3,50.4 115.5,50.2 115.5,49.7 L115.5,38 C115.5,37.6 115.7,37.3 116.2,37.3 L116.2,37.3 L118.7,37.3 C127.7,37.3 138.8,32.8 138.8,19.2 C138.8,5.6 127.7,1.1 118.7,1.1 L118.7,1.1 Z M117.5,27.6 L116.1,27.6 L116.1,27.6 C115.6,27.6 115.4,27.3 115.4,26.9 L115.4,11.4 C115.4,11 115.6,10.7 116.1,10.7 L117.5,10.7 C124.8,10.7 128.6,14.3 128.6,19.2 C128.6,24 124.9,27.6 117.5,27.6 L117.5,27.6 Z" id="Shape"></path>
                </g>
            </g>
        </g>
    </g>
</svg>