<?xml version="1.0" encoding="utf-8"?>
<!-- Generator: Adobe Illustrator 16.0.0, SVG Export Plug-In . SVG Version: 6.00 Build 0)  -->
<!DOCTYPE svg PUBLIC "-//W3C//DTD SVG 1.1//EN" "http://www.w3.org/Graphics/SVG/1.1/DTD/svg11.dtd">
<svg version="1.1" id="Layer_1" xmlns="http://www.w3.org/2000/svg" xmlns:xlink="http://www.w3.org/1999/xlink" x="0px" y="0px"
	 width="230px" height="180px" viewBox="0 0 230 180" enable-background="new 0 0 230 180" xml:space="preserve">
<g>
	<path fill="#FFFFFF" d="M108.851,72.002c-1.053-0.657-2.544-1.685-3.82-2.928c-1.332-1.298-2.402-2.876-3.055-3.949
		c-0.242-0.39-0.486-0.528-0.704-0.544c-0.219,0.016-0.463,0.154-0.705,0.544c-0.652,1.073-1.722,2.651-3.054,3.949
		c-1.277,1.243-2.769,2.271-3.822,2.928c-0.42,0.251-0.57,0.521-0.564,0.787c-0.006,0.267,0.145,0.536,0.564,0.788
		c1.054,0.656,2.545,1.684,3.822,2.927c1.332,1.298,2.401,2.876,3.054,3.949c0.242,0.39,0.486,0.528,0.705,0.544
		c0.218-0.016,0.462-0.154,0.704-0.544c0.652-1.073,1.723-2.651,3.055-3.949c1.276-1.243,2.768-2.271,3.82-2.927
		c0.421-0.252,0.572-0.521,0.565-0.788C109.423,72.522,109.272,72.253,108.851,72.002z"/>
	<path fill="#2C3236" d="M101.272,77.915c-0.647-0.918-1.452-1.928-2.376-2.829c-0.911-0.888-1.912-1.668-2.809-2.297
		c0.904-0.635,1.9-1.412,2.809-2.297c0.924-0.9,1.727-1.909,2.376-2.829c0.647,0.918,1.451,1.929,2.376,2.829
		c0.91,0.888,1.912,1.668,2.808,2.297c-0.903,0.635-1.9,1.413-2.808,2.297C102.724,75.987,101.921,76.995,101.272,77.915z"/>
</g>
<g>
	<path fill="#FFFFFF" d="M126.306,49.808c-0.636-0.396-1.537-1.017-2.307-1.768c-0.804-0.782-1.448-1.734-1.842-2.382
		c-0.146-0.236-0.294-0.319-0.426-0.327c-0.133,0.008-0.279,0.091-0.426,0.327c-0.393,0.647-1.039,1.6-1.842,2.382
		c-0.77,0.751-1.67,1.371-2.307,1.768c-0.254,0.151-0.344,0.314-0.34,0.475c-0.004,0.16,0.086,0.323,0.34,0.475
		c0.637,0.396,1.537,1.017,2.307,1.767c0.803,0.783,1.449,1.735,1.842,2.383c0.146,0.235,0.293,0.319,0.426,0.327
		c0.132-0.008,0.279-0.092,0.426-0.327c0.394-0.647,1.038-1.6,1.842-2.383c0.77-0.75,1.671-1.37,2.307-1.767
		c0.253-0.151,0.345-0.314,0.34-0.475C126.65,50.122,126.559,49.959,126.306,49.808z"/>
	<path fill="#2C3236" d="M121.731,53.374c-0.391-0.553-0.877-1.162-1.434-1.706c-0.55-0.536-1.154-1.007-1.694-1.386
		c0.546-0.383,1.146-0.853,1.694-1.386c0.557-0.543,1.042-1.152,1.434-1.707c0.391,0.554,0.876,1.163,1.434,1.707
		c0.55,0.535,1.153,1.006,1.693,1.386c-0.544,0.383-1.146,0.852-1.693,1.386C122.607,52.21,122.122,52.819,121.731,53.374z"/>
</g>
<g>
	<path fill="#FFFFFF" d="M192.605,115.116c-0.652,1.055-1.673,2.551-2.91,3.833c-1.292,1.338-2.865,2.415-3.936,3.072
		c-0.389,0.244-0.526,0.489-0.541,0.706c0.017,0.219,0.156,0.463,0.547,0.703c1.076,0.647,2.659,1.71,3.963,3.036
		c1.249,1.271,2.283,2.759,2.945,3.809c0.252,0.419,0.522,0.568,0.789,0.562c0.267,0.004,0.535-0.147,0.785-0.568
		c0.652-1.057,1.673-2.553,2.91-3.835c1.292-1.338,2.865-2.415,3.936-3.071c0.389-0.244,0.526-0.489,0.541-0.708
		c-0.017-0.218-0.156-0.461-0.547-0.701c-1.076-0.647-2.66-1.711-3.963-3.037c-1.25-1.271-2.283-2.758-2.944-3.808
		c-0.254-0.42-0.524-0.569-0.791-0.562C193.123,114.541,192.854,114.693,192.605,115.116z"/>
	<path fill="#2C3236" d="M198.553,122.668c-0.915,0.651-1.922,1.461-2.818,2.389c-0.884,0.915-1.66,1.92-2.285,2.819
		c-0.639-0.901-1.42-1.895-2.309-2.799c-0.904-0.92-1.917-1.718-2.84-2.363c0.915-0.651,1.922-1.459,2.818-2.389
		c0.884-0.914,1.659-1.919,2.284-2.817c0.639,0.9,1.421,1.894,2.31,2.797C196.618,121.225,197.63,122.022,198.553,122.668z"/>
</g>
<g>
	<path fill="#FFFFFF" d="M218.905,1.875c-0.394,0.638-1.01,1.542-1.757,2.314c-0.779,0.808-1.729,1.456-2.374,1.853
		c-0.235,0.147-0.318,0.296-0.325,0.428c0.008,0.133,0.092,0.278,0.329,0.424c0.649,0.39,1.604,1.032,2.39,1.831
		c0.755,0.767,1.379,1.664,1.778,2.299c0.152,0.253,0.315,0.343,0.476,0.338c0.16,0.003,0.323-0.088,0.474-0.342
		c0.394-0.639,1.01-1.542,1.756-2.314c0.78-0.807,1.729-1.457,2.375-1.853c0.234-0.147,0.317-0.295,0.325-0.428
		c-0.009-0.132-0.094-0.278-0.329-0.424c-0.649-0.391-1.604-1.031-2.392-1.831c-0.753-0.767-1.377-1.665-1.776-2.299
		c-0.153-0.252-0.316-0.344-0.477-0.338C219.218,1.529,219.055,1.621,218.905,1.875z"/>
	<path fill="#2C3236" d="M222.492,6.434c-0.551,0.393-1.158,0.882-1.699,1.441c-0.534,0.552-1.002,1.158-1.379,1.7
		c-0.385-0.544-0.857-1.143-1.393-1.688c-0.546-0.554-1.158-1.037-1.714-1.426c0.552-0.393,1.159-0.881,1.7-1.441
		c0.533-0.552,1.001-1.157,1.379-1.699c0.385,0.542,0.855,1.142,1.393,1.688C221.324,5.562,221.936,6.045,222.492,6.434z"/>
</g>
<g>
	<path fill="#FFFFFF" d="M60.37,144.256c0.637,0.396,1.537,1.017,2.307,1.768c0.805,0.782,1.449,1.734,1.843,2.382
		c0.146,0.236,0.294,0.319,0.425,0.327c0.133-0.008,0.279-0.091,0.426-0.327c0.393-0.647,1.039-1.6,1.843-2.382
		c0.77-0.751,1.669-1.371,2.306-1.768c0.254-0.151,0.345-0.314,0.34-0.475c0.005-0.16-0.086-0.323-0.34-0.475
		c-0.637-0.396-1.536-1.017-2.306-1.767c-0.804-0.783-1.45-1.735-1.843-2.383c-0.146-0.235-0.293-0.319-0.426-0.327
		c-0.131,0.008-0.279,0.092-0.425,0.327c-0.394,0.647-1.038,1.6-1.843,2.383c-0.77,0.75-1.67,1.37-2.307,1.767
		c-0.252,0.151-0.344,0.314-0.34,0.475C60.026,143.941,60.118,144.104,60.37,144.256z"/>
	<path fill="#2C3236" d="M64.944,140.689c0.391,0.553,0.877,1.162,1.434,1.706c0.551,0.536,1.154,1.007,1.695,1.386
		c-0.546,0.383-1.146,0.853-1.695,1.386c-0.557,0.543-1.041,1.152-1.434,1.707c-0.391-0.554-0.875-1.163-1.433-1.707
		c-0.55-0.535-1.153-1.006-1.694-1.386c0.545-0.383,1.146-0.852,1.694-1.386C64.069,141.854,64.553,141.244,64.944,140.689z"/>
</g>
<g>
	<path fill="#FFFFFF" d="M216.392,143.904c0.637,0.396,1.537,1.017,2.307,1.768c0.805,0.782,1.449,1.734,1.843,2.382
		c0.146,0.236,0.294,0.319,0.425,0.327c0.133-0.008,0.279-0.091,0.426-0.327c0.393-0.647,1.039-1.6,1.843-2.382
		c0.77-0.751,1.669-1.371,2.306-1.768c0.254-0.151,0.345-0.314,0.34-0.475c0.005-0.16-0.086-0.323-0.34-0.475
		c-0.637-0.396-1.536-1.017-2.306-1.767c-0.804-0.783-1.45-1.735-1.843-2.383c-0.146-0.235-0.293-0.319-0.426-0.327
		c-0.131,0.008-0.279,0.092-0.425,0.327c-0.394,0.647-1.038,1.6-1.843,2.383c-0.77,0.75-1.67,1.37-2.307,1.767
		c-0.252,0.151-0.344,0.314-0.34,0.475C216.048,143.59,216.14,143.753,216.392,143.904z"/>
	<path fill="#2C3236" d="M220.966,140.338c0.391,0.553,0.877,1.162,1.434,1.706c0.551,0.536,1.154,1.007,1.695,1.386
		c-0.546,0.383-1.146,0.853-1.695,1.386c-0.557,0.543-1.041,1.152-1.434,1.707c-0.391-0.554-0.875-1.163-1.433-1.707
		c-0.55-0.535-1.153-1.006-1.694-1.386c0.545-0.383,1.146-0.852,1.694-1.386C220.091,141.502,220.575,140.893,220.966,140.338z"/>
</g>
<g>
	<path fill="#FFFFFF" d="M57.242,12.545c0.636,0.396,1.537,1.017,2.307,1.768c0.804,0.782,1.448,1.734,1.842,2.382
		c0.146,0.236,0.294,0.319,0.426,0.327c0.133-0.008,0.279-0.091,0.426-0.327c0.393-0.647,1.039-1.6,1.842-2.382
		c0.77-0.751,1.67-1.371,2.307-1.768c0.254-0.151,0.344-0.314,0.34-0.475c0.004-0.16-0.086-0.323-0.34-0.475
		c-0.637-0.396-1.537-1.017-2.307-1.767c-0.803-0.783-1.449-1.735-1.842-2.383c-0.146-0.235-0.293-0.319-0.426-0.327
		c-0.132,0.008-0.279,0.092-0.426,0.327c-0.394,0.647-1.038,1.6-1.842,2.383c-0.77,0.75-1.671,1.37-2.307,1.767
		c-0.253,0.151-0.345,0.314-0.34,0.475C56.897,12.23,56.989,12.394,57.242,12.545z"/>
	<path fill="#2C3236" d="M61.816,8.979c0.391,0.553,0.877,1.162,1.434,1.706c0.55,0.536,1.154,1.007,1.694,1.386
		c-0.546,0.383-1.146,0.853-1.694,1.386c-0.557,0.543-1.042,1.152-1.434,1.707c-0.391-0.554-0.876-1.163-1.434-1.707
		c-0.55-0.535-1.153-1.006-1.693-1.386c0.544-0.383,1.146-0.852,1.693-1.386C60.94,10.143,61.425,9.533,61.816,8.979z"/>
</g>
<g>
	<g>
		<path fill="#FFFFFF" d="M188.811,11.466c-11.375,0-20.631,9.255-20.631,20.631c0,4.858,3.953,8.812,8.812,8.812
			s8.812-3.953,8.812-8.812c0-1.657,1.349-3.006,3.006-3.006c1.713,0,3.005,1.293,3.005,3.006c0,0.891-0.5,1.529-3.81,4.034
			c-3.889,2.942-9.764,7.388-9.764,15.849c0,3.035,1.543,5.717,3.884,7.303c-3.822,2.85-4.734,8.252-1.995,12.199
			c1.662,2.396,4.397,3.826,7.316,3.826c1.818,0,3.57-0.549,5.068-1.587c4.031-2.798,5.035-8.355,2.238-12.387
			c-0.649-0.937-1.466-1.718-2.389-2.333c1.999-1.517,3.338-3.859,3.488-6.52c0.578-0.622,2.152-1.814,2.787-2.295
			c4.039-3.057,10.801-8.172,10.801-18.09C209.441,20.527,200.38,11.466,188.811,11.466z"/>
	</g>
	<g>
		<g>
			<path fill="#2C3236" d="M187.437,61.702c1.491,0,2.957,0.706,3.871,2.024c1.481,2.135,0.952,5.066-1.184,6.549
				c-0.817,0.567-1.752,0.839-2.677,0.839c-1.49,0-2.956-0.706-3.871-2.022c-1.482-2.137-0.951-5.067,1.184-6.55
				C185.577,61.974,186.512,61.702,187.437,61.702 M187.438,59.482L187.438,59.482c-1.415,0-2.778,0.427-3.943,1.235
				c-3.137,2.178-3.918,6.502-1.742,9.639c1.296,1.865,3.425,2.977,5.695,2.977c1.414,0,2.777-0.427,3.942-1.235
				c3.138-2.178,3.919-6.501,1.741-9.638C191.838,60.595,189.709,59.482,187.438,59.482L187.438,59.482z"/>
		</g>
	</g>
	<g>
		<circle fill="#FC633F" cx="187.442" cy="66.407" r="4.706"/>
	</g>
	<path fill="none" stroke="#2C3236" stroke-width="0.9619" stroke-linecap="round" stroke-miterlimit="10" d="M186.584,67.786
		c-0.461-0.287-0.768-0.798-0.768-1.379c0-0.895,0.729-1.624,1.626-1.624c0.573,0,1.079,0.299,1.368,0.749"/>
	<g>
		<path fill="#FC633F" d="M187.055,56.599c-2.551,0-4.619-2.068-4.619-4.619c0-6.373,4.492-9.772,8.102-12.503
			c3.495-2.646,5.473-4.292,5.473-7.38c0-4.038-3.162-7.2-7.199-7.2c-3.971,0-7.2,3.229-7.2,7.2c0,2.55-2.067,4.617-4.618,4.617
			c-2.55,0-4.618-2.067-4.618-4.617c0-9.063,7.374-16.437,16.437-16.437c9.217,0,16.437,7.219,16.437,16.437
			c0,7.831-5.282,11.827-9.138,14.744c-3.084,2.336-4.438,3.527-4.438,5.139C191.672,54.53,189.605,56.599,187.055,56.599z"/>
	</g>
	<g>
		<path fill="#2C3236" d="M188.811,15.66c9.217,0,16.437,7.219,16.437,16.437c0,7.831-5.282,11.827-9.138,14.744
			c-3.084,2.336-4.438,3.527-4.438,5.139c0,2.551-2.066,4.619-4.617,4.619s-4.619-2.068-4.619-4.619
			c0-6.373,4.492-9.772,8.102-12.503c3.495-2.646,5.473-4.292,5.473-7.38c0-4.038-3.162-7.2-7.199-7.2c-3.971,0-7.2,3.229-7.2,7.2
			c0,2.55-2.067,4.617-4.618,4.617c-2.55,0-4.618-2.067-4.618-4.617C172.374,23.033,179.748,15.66,188.811,15.66 M188.811,13.44
			c-10.287,0-18.656,8.369-18.656,18.656c0,3.77,3.067,6.837,6.838,6.837s6.838-3.067,6.838-6.837c0-2.746,2.234-4.98,4.98-4.98
			c2.792,0,4.979,2.188,4.979,4.98c0,1.854-1.034,2.917-4.593,5.61c-3.79,2.867-8.981,6.794-8.981,14.273
			c0,3.771,3.068,6.839,6.839,6.839c3.77,0,6.837-3.068,6.837-6.839c0-0.674,2.142-2.296,3.558-3.369
			c3.989-3.018,10.018-7.579,10.018-16.514C207.467,21.635,199.272,13.44,188.811,13.44L188.811,13.44z"/>
	</g>
	<path fill="none" stroke="#2C3236" stroke-width="0.9619" stroke-linecap="round" stroke-miterlimit="10" d="M187.055,53.519
		c-0.849,0-1.539-0.691-1.539-1.539c0-4.842,3.498-7.487,6.88-10.046c3.442-2.606,6.694-5.068,6.694-9.837"/>
	<path fill="none" stroke="#2C3236" stroke-width="0.9619" stroke-linecap="round" stroke-miterlimit="10" d="M176.086,28.457
		c1.589-5.601,6.75-9.717,12.853-9.717"/>
	<circle fill="#2C3236" cx="190.87" cy="19.063" r="0.485"/>
</g>
<g>
	<g>
		<path fill="#FFFFFF" d="M25.708,38.523c-11.375,0-20.63,9.255-20.63,20.631c0,4.859,3.954,8.812,8.812,8.812
			c4.859,0,8.813-3.952,8.813-8.812c0-1.656,1.348-3.006,3.005-3.006c1.713,0,3.005,1.293,3.005,3.006c0,0.892-0.5,1.53-3.81,4.034
			c-3.888,2.942-9.764,7.389-9.764,15.849c0,3.035,1.542,5.718,3.884,7.303c-3.822,2.85-4.734,8.252-1.996,12.199
			c1.663,2.396,4.398,3.827,7.317,3.827c1.817,0,3.57-0.549,5.068-1.588c4.031-2.798,5.036-8.355,2.238-12.387
			c-0.649-0.937-1.466-1.718-2.389-2.333c2-1.516,3.338-3.859,3.488-6.52c0.579-0.622,2.153-1.814,2.788-2.295
			c4.04-3.057,10.801-8.171,10.801-18.09C46.339,47.585,37.277,38.523,25.708,38.523z"/>
	</g>
	<g>
		<g>
			<path fill="#2C3236" d="M24.333,88.76c1.491,0,2.957,0.706,3.872,2.023c1.481,2.135,0.951,5.067-1.184,6.549
				c-0.817,0.567-1.752,0.839-2.677,0.839c-1.491,0-2.957-0.706-3.871-2.022c-1.482-2.137-0.951-5.067,1.183-6.55
				C22.474,89.032,23.409,88.76,24.333,88.76 M24.333,86.54L24.333,86.54c-1.414,0-2.777,0.427-3.942,1.235
				c-3.137,2.178-3.917,6.501-1.742,9.638c1.295,1.865,3.423,2.978,5.695,2.978c1.414,0,2.777-0.427,3.942-1.234
				c3.137-2.178,3.919-6.501,1.742-9.638C28.734,87.653,26.605,86.54,24.333,86.54L24.333,86.54z"/>
		</g>
	</g>
	<g>
		<circle fill="#FBAA00" cx="24.339" cy="93.465" r="4.706"/>
	</g>
	<path fill="none" stroke="#2C3236" stroke-width="0.9619" stroke-linecap="round" stroke-miterlimit="10" d="M23.48,94.844
		c-0.459-0.286-0.767-0.798-0.767-1.379c0-0.895,0.729-1.624,1.626-1.624c0.574,0,1.08,0.299,1.368,0.749"/>
	<g>
		<path fill="#FBAA00" d="M23.952,83.656c-2.551,0-4.618-2.068-4.618-4.619c0-6.373,4.492-9.771,8.101-12.503
			c3.495-2.646,5.473-4.292,5.473-7.38c0-4.038-3.162-7.2-7.2-7.2c-3.97,0-7.2,3.229-7.2,7.2c0,2.55-2.067,4.617-4.618,4.617
			c-2.55,0-4.618-2.067-4.618-4.617c0-9.062,7.374-16.437,16.436-16.437c9.217,0,16.437,7.219,16.437,16.437
			c0,7.831-5.282,11.827-9.138,14.744c-3.085,2.336-4.437,3.527-4.437,5.139C28.57,81.588,26.502,83.656,23.952,83.656z"/>
	</g>
	<g>
		<path fill="#2C3236" d="M25.708,42.718c9.217,0,16.437,7.219,16.437,16.437c0,7.831-5.282,11.827-9.138,14.744
			c-3.085,2.336-4.437,3.527-4.437,5.139c0,2.551-2.067,4.619-4.618,4.619s-4.618-2.068-4.618-4.619
			c0-6.373,4.492-9.771,8.101-12.503c3.495-2.646,5.473-4.292,5.473-7.38c0-4.038-3.162-7.2-7.2-7.2c-3.97,0-7.2,3.229-7.2,7.2
			c0,2.55-2.067,4.617-4.618,4.617c-2.55,0-4.618-2.067-4.618-4.617C9.271,50.092,16.646,42.718,25.708,42.718 M25.708,40.498
			c-10.287,0-18.656,8.369-18.656,18.656c0,3.77,3.067,6.837,6.838,6.837s6.838-3.067,6.838-6.837c0-2.746,2.234-4.98,4.98-4.98
			c2.792,0,4.98,2.188,4.98,4.98c0,1.854-1.035,2.917-4.593,5.61c-3.791,2.869-8.981,6.797-8.981,14.273
			c0,3.771,3.067,6.839,6.838,6.839s6.838-3.068,6.838-6.839c0-0.675,2.141-2.296,3.557-3.369
			c3.989-3.017,10.018-7.578,10.018-16.514C44.364,48.693,36.169,40.498,25.708,40.498L25.708,40.498z"/>
	</g>
	<path fill="none" stroke="#2C3236" stroke-width="0.9619" stroke-linecap="round" stroke-miterlimit="10" d="M23.952,80.576
		c-0.848,0-1.538-0.691-1.538-1.539c0-4.842,3.498-7.487,6.879-10.046c3.442-2.606,6.695-5.068,6.695-9.837"/>
	<path fill="none" stroke="#2C3236" stroke-width="0.9619" stroke-linecap="round" stroke-miterlimit="10" d="M12.983,55.515
		c1.589-5.601,6.75-9.717,12.853-9.717"/>
	<circle fill="#2C3236" cx="27.767" cy="46.122" r="0.486"/>
</g>
<g>
	<g>
		<path fill="#FFFFFF" d="M125.742,115.58c-11.375,0-20.629,9.255-20.629,20.63c0,4.859,3.953,8.812,8.812,8.812
			c4.86,0,8.813-3.953,8.813-8.812c0-1.656,1.348-3.006,3.004-3.006c1.715,0,3.006,1.293,3.006,3.006c0,0.892-0.5,1.53-3.81,4.035
			c-3.888,2.941-9.764,7.388-9.764,15.849c0,3.035,1.542,5.717,3.884,7.303c-3.822,2.85-4.734,8.252-1.996,12.199
			c1.664,2.396,4.398,3.826,7.318,3.826c1.817,0,3.569-0.549,5.067-1.588c4.031-2.798,5.036-8.354,2.238-12.386
			c-0.649-0.937-1.466-1.719-2.39-2.333c2-1.517,3.339-3.859,3.488-6.52c0.579-0.622,2.154-1.814,2.789-2.295
			c4.039-3.057,10.8-8.172,10.8-18.091C146.374,124.642,137.312,115.58,125.742,115.58z"/>
	</g>
	<g>
		<g>
			<path fill="#2C3236" d="M124.369,165.815c1.49,0,2.957,0.707,3.871,2.024c1.48,2.135,0.951,5.066-1.184,6.549
				c-0.817,0.566-1.752,0.839-2.677,0.839c-1.491,0-2.957-0.706-3.87-2.023c-1.482-2.136-0.951-5.066,1.183-6.549
				C122.51,166.088,123.444,165.815,124.369,165.815 M124.369,163.596L124.369,163.596c-1.415,0-2.778,0.428-3.942,1.236
				c-3.137,2.179-3.917,6.502-1.74,9.638c1.292,1.864,3.421,2.978,5.693,2.978c1.413,0,2.776-0.427,3.941-1.234
				c3.137-2.179,3.918-6.502,1.743-9.638C128.771,164.709,126.642,163.596,124.369,163.596L124.369,163.596z"/>
		</g>
	</g>
	<g>
		<circle fill="#8ECC00" cx="124.375" cy="170.521" r="4.706"/>
	</g>
	<path fill="none" stroke="#2C3236" stroke-width="0.9619" stroke-linecap="round" stroke-miterlimit="10" d="M123.516,171.9
		c-0.459-0.287-0.766-0.798-0.766-1.379c0-0.895,0.729-1.624,1.625-1.624c0.574,0,1.08,0.299,1.367,0.749"/>
	<g>
		<path fill="#8ECC00" d="M123.986,160.713c-2.551,0-4.617-2.068-4.617-4.619c0-6.373,4.491-9.772,8.101-12.504
			c3.495-2.645,5.473-4.291,5.473-7.38c0-4.037-3.161-7.2-7.2-7.2c-3.969,0-7.199,3.23-7.199,7.2c0,2.551-2.067,4.618-4.618,4.618
			c-2.549,0-4.618-2.067-4.618-4.618c0-9.062,7.374-16.437,16.435-16.437c9.218,0,16.438,7.22,16.438,16.437
			c0,7.832-5.281,11.827-9.137,14.745c-3.086,2.336-4.438,3.527-4.438,5.139C128.605,158.645,126.537,160.713,123.986,160.713z"/>
	</g>
	<g>
		<path fill="#2C3236" d="M125.742,119.773c9.218,0,16.438,7.22,16.438,16.437c0,7.832-5.281,11.827-9.137,14.745
			c-3.086,2.336-4.438,3.527-4.438,5.139c0,2.551-2.068,4.619-4.619,4.619s-4.617-2.068-4.617-4.619
			c0-6.373,4.491-9.772,8.101-12.504c3.495-2.645,5.473-4.291,5.473-7.38c0-4.037-3.161-7.2-7.2-7.2c-3.969,0-7.199,3.23-7.199,7.2
			c0,2.551-2.067,4.618-4.618,4.618c-2.549,0-4.618-2.067-4.618-4.618C109.307,127.147,116.681,119.773,125.742,119.773
			 M125.742,117.554c-10.286,0-18.655,8.369-18.655,18.656c0,3.771,3.067,6.838,6.837,6.838c3.771,0,6.838-3.067,6.838-6.838
			c0-2.746,2.233-4.98,4.979-4.98c2.793,0,4.98,2.188,4.98,4.98c0,1.854-1.034,2.918-4.593,5.609
			c-3.79,2.869-8.98,6.797-8.98,14.274c0,3.771,3.067,6.839,6.837,6.839c3.771,0,6.839-3.068,6.839-6.839
			c0-0.676,2.141-2.297,3.558-3.369c3.99-3.02,10.017-7.581,10.017-16.515C144.399,125.748,136.204,117.554,125.742,117.554
			L125.742,117.554z"/>
	</g>
	<path fill="none" stroke="#2C3236" stroke-width="0.9619" stroke-linecap="round" stroke-miterlimit="10" d="M123.986,157.633
		c-0.848,0-1.537-0.691-1.537-1.539c0-4.842,3.498-7.487,6.879-10.046c3.442-2.606,6.695-5.068,6.695-9.838"/>
	<path fill="none" stroke="#2C3236" stroke-width="0.9619" stroke-linecap="round" stroke-miterlimit="10" d="M113.019,132.571
		c1.588-5.602,6.75-9.717,12.852-9.717"/>
	<circle fill="#2C3236" cx="127.802" cy="123.178" r="0.486"/>
</g>
</svg>
