<?xml version="1.0" encoding="utf-8"?>
<!-- Generator: Adobe Illustrator 16.0.0, SVG Export Plug-In . SVG Version: 6.00 Build 0)  -->
<!DOCTYPE svg PUBLIC "-//W3C//DTD SVG 1.1//EN" "http://www.w3.org/Graphics/SVG/1.1/DTD/svg11.dtd">
<svg version="1.1" id="Layer_1" xmlns="http://www.w3.org/2000/svg" xmlns:xlink="http://www.w3.org/1999/xlink" x="0px" y="0px"
	 width="280px" height="219.131px" viewBox="-25 -19.565 280 219.131" enable-background="new -25 -19.565 280 219.131"
	 xml:space="preserve">
<g>
	<g>
		<path fill="#FFFFFF" d="M107.128,68.061c-1.25-0.779-3.021-2-4.536-3.477c-1.582-1.542-2.853-3.415-3.628-4.689
			c-0.288-0.463-0.577-0.626-0.836-0.646c-0.26,0.019-0.55,0.182-0.837,0.646c-0.774,1.274-2.045,3.148-3.626,4.689
			c-1.517,1.476-3.288,2.697-4.539,3.477c-0.499,0.298-0.677,0.619-0.669,0.935c-0.007,0.317,0.172,0.637,0.669,0.936
			c1.252,0.779,3.022,1.999,4.539,3.476c1.582,1.541,2.851,3.415,3.626,4.69c0.288,0.462,0.578,0.626,0.837,0.646
			c0.259-0.019,0.548-0.183,0.836-0.646c0.774-1.275,2.046-3.149,3.628-4.69c1.515-1.477,3.287-2.697,4.536-3.476
			c0.5-0.299,0.679-0.619,0.671-0.936C107.807,68.678,107.628,68.358,107.128,68.061z"/>
		<path fill="#2C3236" d="M98.128,75.083c-0.769-1.09-1.725-2.29-2.822-3.359c-1.082-1.054-2.27-1.981-3.335-2.728
			c1.074-0.754,2.256-1.677,3.335-2.728c1.097-1.069,2.051-2.267,2.822-3.36c0.768,1.09,1.723,2.291,2.821,3.36
			c1.081,1.054,2.271,1.98,3.334,2.728c-1.072,0.753-2.255,1.678-3.334,2.728C99.853,72.793,98.898,73.99,98.128,75.083z"/>
	</g>
	<g>
		<path fill="#FFFFFF" d="M127.855,41.706c-0.755-0.47-1.825-1.208-2.739-2.1c-0.954-0.929-1.72-2.059-2.188-2.828
			c-0.173-0.281-0.349-0.379-0.506-0.389c-0.158,0.009-0.331,0.108-0.506,0.389c-0.467,0.768-1.233,1.899-2.188,2.828
			c-0.914,0.892-1.982,1.628-2.739,2.1c-0.301,0.179-0.408,0.373-0.403,0.564c-0.005,0.19,0.103,0.383,0.403,0.564
			c0.757,0.47,1.825,1.208,2.739,2.098c0.954,0.93,1.721,2.06,2.188,2.83c0.174,0.279,0.348,0.379,0.506,0.388
			c0.157-0.009,0.331-0.109,0.506-0.388c0.468-0.769,1.233-1.9,2.188-2.83c0.914-0.89,1.984-1.627,2.739-2.098
			c0.3-0.179,0.409-0.373,0.404-0.564C128.265,42.079,128.155,41.885,127.855,41.706z"/>
		<path fill="#2C3236" d="M122.423,45.941c-0.464-0.657-1.042-1.38-1.703-2.026c-0.652-0.637-1.37-1.196-2.011-1.646
			c0.647-0.455,1.36-1.013,2.011-1.646c0.661-0.645,1.237-1.368,1.703-2.027c0.465,0.658,1.04,1.381,1.703,2.027
			c0.652,0.636,1.369,1.194,2.01,1.646c-0.646,0.455-1.36,1.012-2.01,1.646C123.463,44.558,122.888,45.281,122.423,45.941z"/>
	</g>
	<g>
		<path fill="#FFFFFF" d="M206.584,119.258c-0.774,1.253-1.987,3.028-3.455,4.552c-1.536,1.589-3.402,2.867-4.675,3.647
			c-0.462,0.291-0.625,0.58-0.643,0.837c0.021,0.261,0.186,0.551,0.65,0.835c1.276,0.77,3.156,2.032,4.706,3.606
			c1.482,1.509,2.71,3.276,3.496,4.523c0.3,0.496,0.62,0.674,0.937,0.667c0.317,0.005,0.636-0.175,0.933-0.674
			c0.773-1.256,1.987-3.032,3.456-4.555c1.534-1.59,3.401-2.867,4.673-3.646c0.463-0.289,0.625-0.581,0.643-0.84
			c-0.02-0.26-0.184-0.549-0.649-0.833c-1.276-0.77-3.158-2.032-4.705-3.607c-1.484-1.508-2.712-3.274-3.496-4.521
			c-0.302-0.498-0.622-0.676-0.939-0.667C207.198,118.574,206.879,118.756,206.584,119.258z"/>
		<path fill="#2C3236" d="M213.646,128.225c-1.085,0.772-2.282,1.735-3.347,2.837c-1.048,1.088-1.971,2.28-2.713,3.348
			c-0.76-1.07-1.688-2.251-2.742-3.322c-1.073-1.094-2.275-2.04-3.372-2.807c1.086-0.774,2.282-1.733,3.346-2.837
			c1.05-1.086,1.97-2.278,2.712-3.346c0.76,1.069,1.689,2.25,2.744,3.321C211.349,126.512,212.55,127.457,213.646,128.225z"/>
	</g>
	<g>
		<path fill="#FFFFFF" d="M237.813-15.213c-0.466,0.758-1.199,1.832-2.085,2.748c-0.926,0.959-2.054,1.729-2.82,2.2
			c-0.278,0.175-0.377,0.352-0.385,0.509c0.009,0.158,0.108,0.33,0.389,0.503c0.771,0.463,1.906,1.226,2.84,2.175
			c0.896,0.911,1.637,1.976,2.11,2.729c0.181,0.301,0.375,0.408,0.565,0.401c0.19,0.004,0.384-0.104,0.564-0.406
			c0.467-0.759,1.198-1.831,2.084-2.748c0.926-0.958,2.053-1.73,2.82-2.2c0.277-0.175,0.376-0.35,0.386-0.509
			c-0.011-0.156-0.111-0.33-0.39-0.503c-0.771-0.464-1.906-1.224-2.842-2.175c-0.895-0.91-1.635-1.977-2.108-2.729
			c-0.182-0.299-0.375-0.409-0.566-0.401C238.186-15.624,237.991-15.515,237.813-15.213z"/>
		<path fill="#2C3236" d="M242.073-9.799c-0.653,0.467-1.375,1.047-2.018,1.711c-0.634,0.655-1.189,1.375-1.637,2.019
			c-0.458-0.646-1.019-1.357-1.653-2.004c-0.649-0.658-1.376-1.231-2.037-1.694c0.656-0.467,1.376-1.045,2.019-1.71
			c0.634-0.656,1.189-1.375,1.638-2.018c0.458,0.644,1.017,1.356,1.655,2.004C240.687-10.835,241.413-10.262,242.073-9.799z"/>
	</g>
	<g>
		<path fill="#FFFFFF" d="M49.559,153.86c0.755,0.471,1.825,1.209,2.739,2.099c0.956,0.93,1.721,2.06,2.189,2.83
			c0.173,0.28,0.349,0.378,0.504,0.387c0.158-0.009,0.332-0.106,0.506-0.387c0.467-0.77,1.234-1.9,2.188-2.83
			c0.915-0.89,1.982-1.628,2.739-2.099c0.301-0.179,0.41-0.373,0.403-0.564c0.006-0.189-0.102-0.383-0.403-0.562
			c-0.757-0.471-1.824-1.209-2.739-2.1c-0.955-0.93-1.721-2.059-2.188-2.829c-0.173-0.279-0.348-0.379-0.506-0.389
			c-0.155,0.01-0.332,0.109-0.504,0.389c-0.468,0.768-1.233,1.899-2.189,2.829c-0.914,0.891-1.983,1.628-2.739,2.1
			c-0.3,0.179-0.409,0.372-0.404,0.562C49.149,153.487,49.259,153.68,49.559,153.86z"/>
		<path fill="#2C3236" d="M54.99,149.626c0.464,0.655,1.041,1.379,1.703,2.023c0.655,0.639,1.371,1.197,2.013,1.646
			c-0.649,0.455-1.361,1.013-2.013,1.646c-0.662,0.645-1.236,1.367-1.703,2.027c-0.464-0.658-1.04-1.382-1.701-2.027
			c-0.654-0.636-1.37-1.194-2.012-1.646c0.647-0.453,1.361-1.01,2.012-1.646C53.95,151.007,54.526,150.284,54.99,149.626z"/>
	</g>
	<g>
		<path fill="#FFFFFF" d="M234.83,153.442c0.757,0.47,1.826,1.208,2.74,2.1c0.955,0.929,1.72,2.059,2.188,2.829
			c0.173,0.279,0.35,0.379,0.505,0.388c0.157-0.009,0.331-0.108,0.505-0.388c0.468-0.769,1.234-1.9,2.19-2.829
			c0.913-0.892,1.98-1.629,2.737-2.1c0.302-0.18,0.41-0.373,0.403-0.563c0.007-0.189-0.102-0.385-0.403-0.564
			c-0.757-0.47-1.824-1.207-2.737-2.098c-0.956-0.93-1.723-2.061-2.19-2.83c-0.172-0.28-0.348-0.38-0.505-0.389
			c-0.155,0.009-0.332,0.108-0.505,0.389c-0.468,0.768-1.232,1.9-2.188,2.83c-0.914,0.891-1.983,1.625-2.74,2.098
			c-0.298,0.18-0.409,0.373-0.404,0.564C234.421,153.069,234.532,153.263,234.83,153.442z"/>
		<path fill="#2C3236" d="M240.262,149.208c0.465,0.655,1.041,1.38,1.703,2.026c0.654,0.636,1.371,1.194,2.014,1.645
			c-0.649,0.455-1.361,1.015-2.014,1.646c-0.662,0.646-1.236,1.367-1.703,2.028c-0.464-0.66-1.04-1.383-1.701-2.028
			c-0.654-0.635-1.369-1.193-2.012-1.646c0.646-0.454,1.36-1.011,2.012-1.645C239.222,150.59,239.798,149.867,240.262,149.208z"/>
	</g>
	<g>
		<path fill="#FFFFFF" d="M45.844-2.543c0.754,0.471,1.825,1.208,2.739,2.1c0.955,0.929,1.72,2.059,2.188,2.829
			c0.173,0.281,0.35,0.379,0.506,0.389c0.158-0.01,0.332-0.108,0.506-0.389c0.467-0.769,1.234-1.899,2.188-2.829
			c0.915-0.892,1.983-1.628,2.74-2.1c0.301-0.179,0.408-0.373,0.403-0.564c0.004-0.19-0.102-0.383-0.403-0.564
			c-0.757-0.47-1.825-1.208-2.74-2.098c-0.954-0.93-1.72-2.062-2.188-2.831c-0.173-0.279-0.348-0.379-0.506-0.388
			c-0.156,0.009-0.331,0.109-0.506,0.388c-0.468,0.768-1.232,1.9-2.188,2.831c-0.914,0.89-1.984,1.626-2.739,2.098
			c-0.301,0.18-0.41,0.373-0.405,0.564C45.434-2.917,45.543-2.722,45.844-2.543z"/>
		<path fill="#2C3236" d="M51.275-6.777c0.464,0.657,1.041,1.38,1.703,2.026c0.653,0.637,1.37,1.196,2.012,1.646
			c-0.648,0.455-1.361,1.013-2.012,1.646c-0.662,0.645-1.237,1.368-1.703,2.027c-0.464-0.658-1.041-1.381-1.703-2.027
			c-0.653-0.635-1.369-1.194-2.01-1.646c0.646-0.455,1.361-1.012,2.01-1.646C50.235-5.395,50.811-6.119,51.275-6.777z"/>
	</g>
	<g>
		<g>
			<path fill="#FFFFFF" d="M202.078-3.824c-13.508,0-24.499,10.991-24.499,24.5c0,5.768,4.694,10.464,10.465,10.464
				s10.464-4.694,10.464-10.464c0-1.968,1.601-3.57,3.57-3.57c2.034,0,3.566,1.535,3.566,3.57c0,1.057-0.594,1.815-4.523,4.79
				c-4.617,3.494-11.595,8.773-11.595,18.821c0,3.604,1.832,6.788,4.612,8.672c-4.538,3.384-5.621,9.799-2.369,14.486
				c1.975,2.845,5.223,4.543,8.687,4.543c2.159,0,4.24-0.652,6.02-1.884c4.787-3.323,5.979-9.921,2.657-14.71
				c-0.77-1.113-1.74-2.04-2.836-2.771c2.372-1.801,3.963-4.582,4.142-7.742c0.687-0.739,2.556-2.154,3.31-2.725
				c4.797-3.631,12.825-9.704,12.825-21.481C226.576,6.936,215.816-3.824,202.078-3.824z"/>
		</g>
		<g>
			<g>
				<path fill="#2C3236" d="M200.447,55.83c1.77,0,3.512,0.838,4.598,2.403c1.758,2.535,1.129,6.016-1.407,7.777
					c-0.971,0.673-2.081,0.996-3.179,0.996c-1.77,0-3.511-0.837-4.597-2.401c-1.761-2.537-1.13-6.017,1.405-7.778
					C198.238,56.153,199.349,55.83,200.447,55.83 M200.447,53.193L200.447,53.193c-1.679,0-3.298,0.507-4.682,1.467
					c-3.727,2.586-4.651,7.721-2.068,11.446c1.539,2.215,4.066,3.535,6.764,3.535c1.678,0,3.296-0.506,4.681-1.466
					c3.725-2.586,4.652-7.719,2.066-11.445C205.673,54.516,203.145,53.193,200.447,53.193L200.447,53.193z"/>
			</g>
		</g>
		<g>
			<circle fill="#FC633F" cx="200.452" cy="61.417" r="5.588"/>
		</g>
		<path fill="none" stroke="#2C3236" stroke-width="1.1422" stroke-linecap="round" stroke-miterlimit="10" d="M199.434,63.055
			c-0.547-0.341-0.911-0.948-0.911-1.637c0-1.063,0.865-1.929,1.93-1.929c0.682,0,1.282,0.355,1.626,0.89"/>
		<g>
			<path fill="#FC633F" d="M199.992,49.771c-3.028,0-5.484-2.456-5.484-5.485c0-7.568,5.335-11.604,9.621-14.847
				c4.15-3.142,6.5-5.097,6.5-8.763c0-4.795-3.755-8.55-8.549-8.55c-4.716,0-8.551,3.834-8.551,8.55
				c0,3.027-2.454,5.482-5.483,5.482c-3.028,0-5.484-2.455-5.484-5.482c0-10.763,8.757-19.519,19.519-19.519
				c10.945,0,19.52,8.572,19.52,19.519c0,9.299-6.272,14.043-10.853,17.507c-3.661,2.773-5.269,4.188-5.269,6.103
				C205.476,47.313,203.021,49.771,199.992,49.771z"/>
		</g>
		<g>
			<path fill="#2C3236" d="M202.078,1.156c10.945,0,19.52,8.572,19.52,19.519c0,9.299-6.273,14.043-10.853,17.507
				c-3.662,2.773-5.27,4.188-5.27,6.103c0,3.029-2.454,5.485-5.483,5.485c-3.028,0-5.484-2.456-5.484-5.485
				c0-7.568,5.335-11.604,9.621-14.847c4.15-3.142,6.5-5.097,6.5-8.763c0-4.795-3.755-8.55-8.549-8.55
				c-4.716,0-8.551,3.834-8.551,8.55c0,3.027-2.454,5.482-5.483,5.482c-3.028,0-5.484-2.455-5.484-5.482
				C182.56,9.912,191.316,1.156,202.078,1.156 M202.078-1.48c-12.216,0-22.154,9.938-22.154,22.154c0,4.477,3.645,8.119,8.121,8.119
				c4.478,0,8.12-3.642,8.12-8.119c0-3.261,2.651-5.914,5.913-5.914c3.316,0,5.913,2.599,5.913,5.914
				c0,2.202-1.229,3.463-5.454,6.662c-4.501,3.404-10.665,8.068-10.665,16.948c0,4.479,3.644,8.121,8.12,8.121
				c4.478,0,8.12-3.643,8.12-8.121c0-0.8,2.543-2.726,4.225-4c4.737-3.584,11.896-9,11.896-19.609
				C224.231,8.251,214.5-1.48,202.078-1.48L202.078-1.48z"/>
		</g>
		<path fill="none" stroke="#2C3236" stroke-width="1.1422" stroke-linecap="round" stroke-miterlimit="10" d="M199.992,46.113
			c-1.007,0-1.827-0.82-1.827-1.827c0-5.75,4.154-8.891,8.171-11.93c4.086-3.094,7.948-6.018,7.948-11.681"/>
		<path fill="none" stroke="#2C3236" stroke-width="1.1422" stroke-linecap="round" stroke-miterlimit="10" d="M186.968,16.352
			c1.887-6.651,8.016-11.538,15.264-11.538"/>
		<circle fill="#2C3236" cx="204.523" cy="5.197" r="0.576"/>
	</g>
	<g>
		<g>
			<path fill="#FFFFFF" d="M8.398,28.306c-13.508,0-24.498,10.99-24.498,24.498c0,5.771,4.696,10.464,10.464,10.464
				c5.77,0,10.465-4.692,10.465-10.464c0-1.966,1.6-3.569,3.569-3.569c2.034,0,3.568,1.536,3.568,3.569
				c0,1.06-0.594,1.817-4.524,4.791c-4.617,3.493-11.594,8.774-11.594,18.82c0,3.604,1.832,6.79,4.612,8.671
				c-4.538,3.385-5.621,9.799-2.37,14.486c1.975,2.846,5.223,4.545,8.688,4.545c2.158,0,4.24-0.652,6.019-1.887
				c4.787-3.321,5.98-9.92,2.658-14.708c-0.771-1.113-1.741-2.041-2.837-2.771c2.375-1.8,3.964-4.582,4.142-7.743
				c0.687-0.738,2.556-2.154,3.311-2.725c4.797-3.63,12.826-9.703,12.826-21.481C32.896,39.066,22.136,28.306,8.398,28.306z"/>
		</g>
		<g>
			<g>
				<path fill="#2C3236" d="M6.765,87.96c1.771,0,3.512,0.838,4.598,2.403c1.759,2.536,1.129,6.016-1.406,7.777
					c-0.97,0.673-2.08,0.996-3.179,0.996c-1.77,0-3.511-0.839-4.596-2.401c-1.76-2.537-1.129-6.017,1.405-7.777
					C4.558,88.284,5.668,87.96,6.765,87.96 M6.765,85.324L6.765,85.324c-1.679,0-3.297,0.507-4.681,1.467
					c-3.725,2.586-4.651,7.719-2.068,11.444c1.538,2.215,4.064,3.536,6.762,3.536c1.679,0,3.298-0.507,4.682-1.465
					c3.725-2.587,4.653-7.719,2.068-11.445C11.991,86.646,9.463,85.324,6.765,85.324L6.765,85.324z"/>
			</g>
		</g>
		<g>
			<circle fill="#FBAA00" cx="6.772" cy="93.547" r="5.588"/>
		</g>
		<path fill="none" stroke="#2C3236" stroke-width="1.1422" stroke-linecap="round" stroke-miterlimit="10" d="M5.752,95.186
			c-0.545-0.339-0.911-0.948-0.911-1.638c0-1.063,0.866-1.93,1.931-1.93c0.682,0,1.283,0.356,1.625,0.89"/>
		<g>
			<path fill="#FBAA00" d="M6.313,81.9c-3.03,0-5.484-2.457-5.484-5.485c0-7.568,5.334-11.603,9.62-14.847
				c4.15-3.143,6.499-5.097,6.499-8.765c0-4.794-3.755-8.549-8.549-8.549c-4.715,0-8.55,3.834-8.55,8.549
				c0,3.029-2.455,5.483-5.483,5.483c-3.028,0-5.484-2.454-5.484-5.483c0-10.76,8.757-19.518,19.518-19.518
				c10.944,0,19.518,8.573,19.518,19.518c0,9.299-6.272,14.045-10.851,17.509c-3.664,2.773-5.269,4.188-5.269,6.103
				C11.796,79.444,9.34,81.9,6.313,81.9z"/>
		</g>
		<g>
			<path fill="#2C3236" d="M8.398,33.287c10.944,0,19.518,8.573,19.518,19.519c0,9.299-6.272,14.044-10.851,17.508
				c-3.664,2.774-5.269,4.188-5.269,6.103c0,3.029-2.454,5.485-5.483,5.485c-3.03,0-5.484-2.457-5.484-5.485
				c0-7.568,5.334-11.603,9.62-14.847c4.15-3.143,6.499-5.097,6.499-8.764c0-4.795-3.755-8.549-8.549-8.549
				c-4.715,0-8.55,3.834-8.55,8.549c0,3.028-2.455,5.483-5.483,5.483c-3.028,0-5.484-2.455-5.484-5.483
				C-11.121,42.043-2.363,33.287,8.398,33.287 M8.398,30.65c-12.216,0-22.154,9.938-22.154,22.153c0,4.477,3.643,8.12,8.121,8.12
				s8.12-3.643,8.12-8.12c0-3.26,2.653-5.913,5.914-5.913c3.315,0,5.913,2.598,5.913,5.913c0,2.202-1.229,3.464-5.454,6.663
				C4.356,62.873-1.807,67.537-1.807,76.415c0,4.478,3.642,8.121,8.12,8.121s8.12-3.643,8.12-8.121c0-0.802,2.542-2.727,4.224-4.001
				c4.736-3.583,11.896-8.999,11.896-19.61C30.551,40.382,20.82,30.65,8.398,30.65L8.398,30.65z"/>
		</g>
		<path fill="none" stroke="#2C3236" stroke-width="1.1422" stroke-linecap="round" stroke-miterlimit="10" d="M6.313,78.242
			c-1.007,0-1.826-0.821-1.826-1.827c0-5.75,4.153-8.892,8.168-11.93c4.087-3.095,7.95-6.019,7.95-11.682"/>
		<path fill="none" stroke="#2C3236" stroke-width="1.1422" stroke-linecap="round" stroke-miterlimit="10" d="M-6.713,48.483
			c1.887-6.651,8.016-11.54,15.263-11.54"/>
		<circle fill="#2C3236" cx="10.843" cy="37.329" r="0.577"/>
	</g>
	<g>
		<g>
			<path fill="#FFFFFF" d="M127.187,119.809c-13.508,0-24.498,10.989-24.498,24.498c0,5.769,4.694,10.463,10.464,10.463
				c5.771,0,10.466-4.694,10.466-10.463c0-1.967,1.6-3.569,3.567-3.569c2.036,0,3.568,1.534,3.568,3.569
				c0,1.058-0.593,1.817-4.524,4.791c-4.616,3.492-11.595,8.772-11.595,18.82c0,3.604,1.831,6.788,4.613,8.671
				c-4.54,3.385-5.622,9.8-2.369,14.486c1.976,2.846,5.221,4.544,8.689,4.544c2.157,0,4.237-0.651,6.017-1.886
				c4.787-3.322,5.979-9.919,2.657-14.707c-0.771-1.112-1.741-2.043-2.839-2.771c2.375-1.802,3.965-4.583,4.143-7.741
				c0.687-0.74,2.559-2.155,3.312-2.727c4.797-3.629,12.824-9.704,12.824-21.482C151.686,130.57,140.926,119.809,127.187,119.809z"
				/>
		</g>
		<g>
			<g>
				<path fill="#2C3236" d="M125.556,179.461c1.77,0,3.512,0.839,4.597,2.404c1.758,2.535,1.13,6.015-1.405,7.777
					c-0.971,0.672-2.08,0.994-3.181,0.994c-1.77,0-3.511-0.837-4.595-2.401c-1.76-2.536-1.128-6.015,1.404-7.777
					C123.348,179.785,124.457,179.461,125.556,179.461 M125.556,176.826L125.556,176.826c-1.68,0-3.3,0.508-4.682,1.468
					c-3.725,2.588-4.65,7.722-2.065,11.445c1.533,2.214,4.061,3.535,6.761,3.535c1.678,0,3.296-0.506,4.679-1.465
					c3.725-2.588,4.651-7.722,2.07-11.444C130.783,178.147,128.255,176.826,125.556,176.826L125.556,176.826z"/>
			</g>
		</g>
		<g>
			<circle fill="#8ECC00" cx="125.562" cy="185.049" r="5.588"/>
		</g>
		<path fill="none" stroke="#2C3236" stroke-width="1.1422" stroke-linecap="round" stroke-miterlimit="10" d="M124.542,186.688
			c-0.545-0.342-0.909-0.948-0.909-1.638c0-1.063,0.865-1.93,1.93-1.93c0.682,0,1.283,0.355,1.624,0.891"/>
		<g>
			<path fill="#8ECC00" d="M125.101,173.402c-3.028,0-5.482-2.456-5.482-5.484c0-7.568,5.333-11.604,9.62-14.849
				c4.149-3.14,6.499-5.096,6.499-8.763c0-4.795-3.754-8.55-8.55-8.55c-4.715,0-8.549,3.836-8.549,8.55
				c0,3.028-2.455,5.483-5.484,5.483c-3.027,0-5.483-2.455-5.483-5.483c0-10.761,8.756-19.519,19.517-19.519
				c10.946,0,19.521,8.573,19.521,19.519c0,9.3-6.272,14.044-10.852,17.509c-3.664,2.773-5.27,4.188-5.27,6.103
				C130.587,170.946,128.13,173.402,125.101,173.402z"/>
		</g>
		<g>
			<path fill="#2C3236" d="M127.187,124.788c10.944,0,19.519,8.573,19.519,19.519c0,9.3-6.271,14.044-10.85,17.509
				c-3.664,2.773-5.269,4.188-5.269,6.103c0,3.028-2.457,5.484-5.486,5.484c-3.028,0-5.482-2.456-5.482-5.484
				c0-7.568,5.333-11.604,9.62-14.849c4.149-3.14,6.499-5.096,6.499-8.763c0-4.795-3.754-8.55-8.55-8.55
				c-4.715,0-8.549,3.836-8.549,8.55c0,3.028-2.455,5.483-5.484,5.483c-3.027,0-5.483-2.455-5.483-5.483
				C107.669,133.543,116.427,124.788,127.187,124.788 M127.187,122.153c-12.215,0-22.153,9.937-22.153,22.153
				c0,4.478,3.642,8.119,8.119,8.119c4.479,0,8.121-3.642,8.121-8.119c0-3.262,2.651-5.913,5.913-5.913
				c3.316,0,5.912,2.598,5.912,5.913c0,2.201-1.227,3.465-5.453,6.659c-4.501,3.407-10.663,8.072-10.663,16.951
				c0,4.477,3.642,8.12,8.117,8.12c4.479,0,8.122-3.642,8.122-8.12c0-0.803,2.542-2.728,4.225-4
				c4.737-3.587,11.895-9.003,11.895-19.612C149.34,131.883,139.608,122.153,127.187,122.153L127.187,122.153z"/>
		</g>
		<path fill="none" stroke="#2C3236" stroke-width="1.1422" stroke-linecap="round" stroke-miterlimit="10" d="M125.101,169.745
			c-1.006,0-1.825-0.821-1.825-1.827c0-5.75,4.154-8.89,8.169-11.93c4.086-3.096,7.95-6.018,7.95-11.682"/>
		<path fill="none" stroke="#2C3236" stroke-width="1.1422" stroke-linecap="round" stroke-miterlimit="10" d="M112.078,139.983
			c1.885-6.651,8.016-11.538,15.262-11.538"/>
		<circle fill="#2C3236" cx="129.632" cy="128.83" r="0.577"/>
	</g>
</g>
</svg>
