<?xml version="1.0" encoding="UTF-8" standalone="no"?>
<svg width="11px" height="11px" viewBox="0 0 11 11" version="1.1" xmlns="http://www.w3.org/2000/svg" xmlns:xlink="http://www.w3.org/1999/xlink" xmlns:sketch="http://www.bohemiancoding.com/sketch/ns">
    <!-- Generator: Sketch 3.1.1 (8761) - http://www.bohemiancoding.com/sketch -->
    <title>star-small</title>
    <desc>Created with Sketch.</desc>
    <defs></defs>
    <g id="Page-1" stroke="none" stroke-width="1" fill="none" fill-rule="evenodd" sketch:type="MSPage">
        <g id="main_top-copy" sketch:type="MSLayerGroup" transform="translate(-66.000000, -1016.000000)">
            <g id="enter_hover" transform="translate(1.000000, 40.000000)" sketch:type="MSShapeGroup">
                <g id="layout-0-all-stars" transform="translate(66.000000, 876.000000)">
                    <g id="star-small" transform="translate(0.000000, 101.000000)">
                        <path d="M9,4.3 C8.4,3.9 7.5,3.3 6.7,2.5 C5.9,1.7 5.3,0.8 4.9,0.1 C4.8,-0.1 4.6,-0.2 4.5,-0.2 C4.4,-0.2 4.2,-0.1 4.1,0.1 C3.7,0.7 3.1,1.7 2.3,2.5 C1.5,3.3 0.6,3.9 0,4.3 C-0.3,4.5 -0.3,4.6 -0.3,4.8 C-0.3,5 -0.2,5.1 0,5.3 C0.6,5.7 1.5,6.3 2.3,7.1 C3.1,7.9 3.7,8.8 4.1,9.5 C4.2,9.7 4.4,9.8 4.5,9.8 C4.6,9.8 4.8,9.7 4.9,9.5 C5.3,8.9 5.9,7.9 6.7,7.1 C7.5,6.3 8.4,5.7 9,5.3 C9.3,5.1 9.3,5 9.3,4.8 C9.3,4.6 9.2,4.4 9,4.3 L9,4.3 Z" id="Shape" fill="#FFFFFF"></path>
                        <path d="M4.4,7.8 C4,7.2 3.5,6.6 3,6.1 C2.5,5.6 1.8,5.1 1.3,4.7 C1.8,4.3 2.4,3.8 3,3.3 C3.6,2.8 4,2.1 4.4,1.6 C4.8,2.2 5.3,2.8 5.8,3.3 C6.4,3.8 7,4.3 7.5,4.7 C7,5.1 6.4,5.6 5.8,6.1 C5.3,6.7 4.8,7.3 4.4,7.8 L4.4,7.8 Z" id="Shape" fill="#2C3236"></path>
                    </g>
                </g>
            </g>
        </g>
    </g>
</svg>