<?xml version="1.0" encoding="UTF-8" standalone="no"?>
<svg width="350px" height="67px" viewBox="0 0 350 67" version="1.1" xmlns="http://www.w3.org/2000/svg" xmlns:xlink="http://www.w3.org/1999/xlink" xmlns:sketch="http://www.bohemiancoding.com/sketch/ns">
    <!-- Generator: Sketch 3.1 (8751) - http://www.bohemiancoding.com/sketch -->
    <title>logo-white</title>
    <desc>Created with Sketch.</desc>
    <defs></defs>
    <g id="Page-1" stroke="none" stroke-width="1" fill="none" fill-rule="evenodd" sketch:type="MSPage">
        <g id="main_top" sketch:type="MSLayerGroup" transform="translate(-338.000000, -196.000000)" fill="#FFFFFF">
            <g id="menu" transform="translate(183.000000, 196.000000)" sketch:type="MSShapeGroup">
                <g id="logo_26_" transform="translate(156.000000, 0.000000)">
                    <g id="logo-white">
                        <path d="M260.5,0.2 C242.3,0.2 227.5,15 227.5,33.2 C227.5,51.4 242.3,66.2 260.5,66.2 C278.7,66.2 293.5,51.4 293.5,33.2 C293.4,14.9 278.6,0.2 260.5,0.2 L260.5,0.2 Z M260.5,53.8 C249.5,53.8 240.6,44.1 240.6,33.1 C240.6,22.1 249.5,12.4 260.5,12.4 C271.5,12.4 280.4,22.1 280.4,33.1 C280.4,44.1 271.5,53.8 260.5,53.8 L260.5,53.8 Z" id="Shape"></path>
                        <path d="M122.7,1.6 L88.1,1.6 C87.6,1.6 87.3,1.8 87.3,2.4 L87.3,63.7 C87.3,64.3 87.6,64.5 88.1,64.5 L122.7,64.5 C123.3,64.5 123.5,64.2 123.5,63.7 L123.5,52.8 C123.5,52.3 123.2,52 122.7,52 L101.2,52 C100.6,52 100.3,51.6 100.3,51.1 L100.3,51.1 L100.3,39.4 C100.3,38.8 100.5,38.5 101.2,38.5 L118.6,38.5 C119.2,38.5 119.4,38.2 119.4,37.7 L119.4,27 C119.4,26.5 119.2,26.2 118.6,26.2 L101,26.2 C100.5,26.1 100.3,25.8 100.3,25.3 L100.3,25.3 L100.3,14.7 C100.3,14.1 100.5,13.8 101.2,13.8 L122.7,13.8 C123.3,13.8 123.5,13.5 123.5,13 L123.5,2.3 C123.5,1.9 123.2,1.6 122.7,1.6 L122.7,1.6 Z" id="Shape"></path>
                        <path d="M217.7,1.6 L206.3,1.6 L206.3,1.6 C206.1,1.6 206,1.6 205.8,1.8 C205.8,1.8 205.8,1.8 205.7,1.9 C205.7,2 205.6,2 205.5,2.1 L169.3,63.3 C169,63.8 169.1,64.2 169.6,64.4 C169.8,64.5 172.1,65.9 172.3,66 C172.7,66.2 173.1,66.2 173.4,65.7 C173.4,65.7 204.5,13.1 204.8,12.6 C205.1,12.1 205.5,12.3 205.5,12.8 L205.5,63.8 C205.5,64.4 205.8,64.6 206.3,64.6 L217.7,64.6 C218.2,64.6 218.5,64.4 218.5,63.8 L218.5,2.5 C218.5,1.9 218.2,1.6 217.7,1.6 L217.7,1.6 Z" id="Shape"></path>
                        <path d="M348,56.7 C346.7,55.4 343.5,52.2 343.1,51.8 C342.6,51.3 342.3,50.8 342.3,50.1 L342.3,21.2 C342.3,20.5 342,20 341.5,19.5 C341.1,19.1 335.7,13.7 333.3,11.3 C332.9,11 332.9,10.5 333.3,10.2 L338.4,5.1 C338.8,4.7 338.8,4.3 338.4,4 C338.2,3.8 336.4,2 336.2,1.8 C335.8,1.5 335.5,1.4 335.1,1.8 L314.6,22.1 C314.3,22.4 314,22.2 314,21.9 L314,2.3 C314,1.7 313.7,1.5 313.2,1.5 L301.7,1.5 C301.2,1.5 300.9,1.7 300.9,2.3 L300.9,63.6 C300.9,64.2 301.2,64.4 301.7,64.4 L313.2,64.4 C313.7,64.4 314,64.2 314,63.6 L314,30.2 C314,29.7 314,29.4 314.5,28.9 L314.5,28.9 L323,20.5 C323.3,20.2 323.8,20.1 324.2,20.5 L324.2,20.5 C325.7,22 328.2,24.5 328.5,24.8 C329,25.3 329.3,25.8 329.3,26.5 L329.3,55.4 C329.3,56.1 329.6,56.6 330.1,57.1 C330.5,57.5 336.7,63.7 338.8,65.7 C339.2,66.1 339.6,66.1 340,65.7 L348,57.9 C348.4,57.6 348.4,57.1 348,56.7 L348,56.7 Z" id="Shape"></path>
                        <path d="M74.4,1.8 L62.9,1.8 C62.4,1.8 62.1,2 62.1,2.6 L62.1,40.9 C62.1,41.3 62.1,41.6 61.8,42 C60.2,43.6 53.2,50.6 53.2,50.6 C53.2,50.6 50.7,53.1 50.6,53.2 C50.1,53.6 49.8,53.5 49.5,53.2 L47.8,51.5 C47.3,51 47,50.5 47,49.8 L47,2.5 C47,1.9 46.7,1.7 46.2,1.7 L34.7,1.7 C34.2,1.7 33.9,1.9 33.9,2.5 L33.9,41.1 C33.9,41.3 33.8,41.5 33.7,41.7 C28.7,46.6 22.6,52.8 22.3,53 C21.8,53.4 21.5,53.3 21.2,53 L19.5,51.3 C19,50.8 18.7,50.3 18.7,49.6 L18.7,10.8 C18.7,10.1 18.4,9.6 17.9,9.1 C17.5,8.7 11.3,2.5 9.2,0.5 C8.8,0.1 8.3,0.1 8,0.4 L-1.12021503e-13,8.2 C-0.5,8.7 -0.4,9.2 -1.12021503e-13,9.6 C1.3,10.9 4.5,14.1 4.9,14.5 C5.4,15 5.7,15.5 5.7,16.2 L5.7,55 C5.7,55.7 6,56.2 6.5,56.7 C6.9,57.1 13.1,63.3 15.2,65.3 C15.6,65.7 16.3,65.7 16.6,65.3 L33.2,48.7 C33.5,48.4 33.8,48.6 33.8,48.9 L33.8,54.9 C33.8,55.6 34.1,56.1 34.6,56.6 C35,57 41.2,63.2 43.3,65.2 C43.8,65.7 44.4,65.6 44.7,65.3 L61.4,48.6 C61.7,48.5 61.9,48.7 61.9,48.9 L61.9,63.6 C61.9,64.2 62.2,64.4 62.7,64.4 L74.2,64.4 C74.7,64.4 75,64.1 75,63.6 L75,2.3 C75.2,2 74.9,1.8 74.4,1.8 L74.4,1.8 Z" id="Shape"></path>
                        <path d="M151.8,1.6 L146.9,1.6 L146.9,1.6 L135.4,1.6 C134.9,1.6 134.6,1.8 134.6,2.4 L134.6,63.7 C134.6,64.3 134.9,64.5 135.4,64.5 L146.9,64.5 C147.4,64.5 147.7,64.3 147.7,63.7 L147.7,48.7 C147.7,48.2 148,47.8 148.6,47.8 L148.6,47.8 L151.8,47.8 C163.4,47.8 177.5,42 177.5,24.7 C177.5,7.4 163.4,1.6 151.8,1.6 L151.8,1.6 Z M150.3,35.6 L148.5,35.6 L148.5,35.6 C147.9,35.6 147.7,35.2 147.6,34.7 L147.6,14.9 C147.6,14.4 147.8,14 148.5,14 L150.2,14 C159.6,14 164.4,18.6 164.4,24.8 C164.5,31 159.7,35.6 150.3,35.6 L150.3,35.6 Z" id="Shape"></path>
                    </g>
                </g>
            </g>
        </g>
    </g>
</svg>