<?xml version="1.0" encoding="utf-8"?>
<!-- Generator: Adobe Illustrator 17.1.0, SVG Export Plug-In . SVG Version: 6.00 Build 0)  -->
<!DOCTYPE svg PUBLIC "-//W3C//DTD SVG 1.1//EN" "http://www.w3.org/Graphics/SVG/1.1/DTD/svg11.dtd">
<svg version="1.1" id="Слой_1" xmlns="http://www.w3.org/2000/svg" xmlns:xlink="http://www.w3.org/1999/xlink" x="0px" y="0px"
	 viewBox="0 0 230 180" enable-background="new 0 0 230 180" xml:space="preserve">
<g>
	<path fill="#FFFFFF" d="M107.915,71.469c-1.053-0.657-2.544-1.685-3.82-2.928c-1.332-1.298-2.402-2.876-3.055-3.949
		c-0.242-0.39-0.486-0.528-0.704-0.544c-0.219,0.016-0.463,0.154-0.705,0.544c-0.652,1.073-1.722,2.651-3.054,3.949
		c-1.277,1.243-2.769,2.271-3.822,2.928c-0.42,0.251-0.57,0.521-0.564,0.787c-0.006,0.267,0.145,0.536,0.564,0.788
		c1.054,0.656,2.545,1.684,3.822,2.927c1.332,1.298,2.401,2.876,3.054,3.949c0.242,0.39,0.486,0.528,0.705,0.544
		c0.218-0.016,0.462-0.154,0.704-0.544c0.652-1.073,1.723-2.651,3.055-3.949c1.276-1.243,2.768-2.271,3.82-2.927
		c0.421-0.252,0.572-0.521,0.565-0.788C108.487,71.99,108.335,71.72,107.915,71.469z"/>
	<path fill="#2A3035" d="M100.335,77.382c-0.647-0.918-1.452-1.928-2.376-2.829c-0.911-0.888-1.912-1.668-2.809-2.297
		c0.904-0.635,1.9-1.412,2.809-2.297c0.924-0.9,1.727-1.909,2.376-2.829c0.647,0.918,1.451,1.929,2.376,2.829
		c0.91,0.888,1.912,1.668,2.808,2.297c-0.903,0.635-1.9,1.413-2.808,2.297C101.788,75.454,100.985,76.462,100.335,77.382z"/>
</g>
<g>
	<path fill="#FFFFFF" d="M125.369,49.275c-0.636-0.396-1.537-1.017-2.307-1.768c-0.804-0.782-1.448-1.734-1.842-2.382
		c-0.146-0.236-0.294-0.319-0.426-0.327c-0.133,0.008-0.279,0.091-0.426,0.327c-0.393,0.647-1.039,1.6-1.842,2.382
		c-0.77,0.751-1.67,1.371-2.307,1.768c-0.254,0.151-0.344,0.315-0.34,0.475c-0.004,0.16,0.086,0.323,0.34,0.475
		c0.637,0.396,1.537,1.017,2.307,1.767c0.803,0.783,1.449,1.735,1.842,2.383c0.146,0.235,0.293,0.319,0.426,0.327
		c0.132-0.008,0.279-0.092,0.426-0.327c0.394-0.647,1.038-1.6,1.842-2.383c0.77-0.75,1.671-1.37,2.307-1.767
		c0.253-0.151,0.345-0.314,0.34-0.475C125.714,49.589,125.622,49.426,125.369,49.275z"/>
	<path fill="#2A3035" d="M120.795,52.841c-0.391-0.553-0.877-1.162-1.433-1.706c-0.55-0.536-1.154-1.007-1.694-1.386
		c0.546-0.383,1.146-0.853,1.694-1.386c0.557-0.543,1.042-1.152,1.433-1.707c0.391,0.554,0.876,1.163,1.434,1.707
		c0.55,0.535,1.153,1.006,1.693,1.386c-0.544,0.383-1.146,0.852-1.693,1.386C121.671,51.677,121.186,52.286,120.795,52.841z"/>
</g>
<g>
	<path fill="#FFFFFF" d="M191.669,114.583c-0.652,1.055-1.673,2.551-2.911,3.833c-1.291,1.338-2.865,2.415-3.935,3.072
		c-0.388,0.244-0.526,0.489-0.541,0.706c0.017,0.219,0.156,0.463,0.547,0.703c1.076,0.647,2.659,1.71,3.963,3.036
		c1.249,1.271,2.283,2.759,2.945,3.809c0.253,0.419,0.523,0.568,0.79,0.562c0.267,0.004,0.536-0.147,0.786-0.568
		c0.652-1.057,1.672-2.553,2.91-3.835c1.292-1.338,2.865-2.415,3.936-3.071c0.389-0.244,0.526-0.489,0.541-0.708
		c-0.017-0.218-0.157-0.461-0.547-0.701c-1.076-0.647-2.659-1.711-3.963-3.037c-1.249-1.271-2.283-2.758-2.944-3.808
		c-0.254-0.42-0.524-0.569-0.791-0.562C192.186,114.008,191.918,114.161,191.669,114.583z"/>
	<path fill="#2A3035" d="M197.616,122.135c-0.915,0.651-1.921,1.461-2.819,2.389c-0.883,0.915-1.659,1.92-2.284,2.819
		c-0.639-0.901-1.42-1.895-2.309-2.799c-0.905-0.92-1.917-1.718-2.84-2.363c0.915-0.651,1.922-1.459,2.818-2.389
		c0.884-0.914,1.659-1.919,2.284-2.817c0.639,0.9,1.421,1.894,2.31,2.797C195.682,120.692,196.693,121.49,197.616,122.135z"/>
</g>
<g>
	<path fill="#FFFFFF" d="M217.969,1.342c-0.394,0.638-1.01,1.542-1.757,2.315c-0.779,0.808-1.728,1.456-2.374,1.852
		c-0.236,0.148-0.318,0.296-0.325,0.428c0.008,0.133,0.092,0.278,0.329,0.424c0.649,0.39,1.604,1.032,2.39,1.831
		c0.755,0.767,1.379,1.664,1.778,2.299c0.152,0.253,0.316,0.343,0.476,0.338c0.16,0.003,0.323-0.088,0.473-0.342
		c0.394-0.639,1.01-1.542,1.756-2.314c0.78-0.807,1.729-1.457,2.375-1.853c0.234-0.147,0.318-0.295,0.325-0.428
		c-0.009-0.132-0.093-0.278-0.329-0.424c-0.65-0.391-1.605-1.031-2.391-1.831c-0.753-0.767-1.378-1.665-1.777-2.299
		c-0.153-0.252-0.316-0.344-0.477-0.338C218.281,0.996,218.119,1.088,217.969,1.342z"/>
	<path fill="#2A3035" d="M221.556,5.901c-0.551,0.393-1.158,0.882-1.7,1.441c-0.534,0.552-1.001,1.158-1.378,1.7
		c-0.385-0.544-0.858-1.143-1.393-1.689c-0.545-0.554-1.157-1.037-1.713-1.426c0.552-0.392,1.159-0.881,1.7-1.441
		c0.533-0.552,1.001-1.157,1.378-1.699c0.385,0.542,0.857,1.142,1.393,1.687C220.388,5.03,220.999,5.512,221.556,5.901z"/>
</g>
<g>
	<path fill="#FFFFFF" d="M59.433,143.723c0.637,0.396,1.537,1.017,2.307,1.768c0.805,0.782,1.449,1.734,1.843,2.382
		c0.146,0.236,0.294,0.319,0.425,0.327c0.133-0.008,0.279-0.091,0.426-0.327c0.393-0.647,1.039-1.6,1.843-2.382
		c0.77-0.751,1.669-1.371,2.306-1.768c0.254-0.151,0.345-0.314,0.34-0.475c0.005-0.16-0.086-0.323-0.34-0.475
		c-0.637-0.396-1.536-1.017-2.306-1.767c-0.804-0.783-1.45-1.735-1.843-2.383c-0.146-0.235-0.293-0.319-0.426-0.327
		c-0.131,0.008-0.279,0.092-0.425,0.327c-0.394,0.648-1.038,1.6-1.843,2.383c-0.77,0.75-1.67,1.37-2.307,1.767
		c-0.252,0.151-0.344,0.314-0.34,0.475C59.089,143.409,59.181,143.572,59.433,143.723z"/>
	<path fill="#2A3035" d="M64.007,140.157c0.391,0.553,0.877,1.162,1.434,1.706c0.551,0.536,1.154,1.007,1.695,1.386
		c-0.546,0.383-1.146,0.852-1.695,1.386c-0.557,0.543-1.041,1.152-1.434,1.707c-0.391-0.554-0.875-1.163-1.433-1.707
		c-0.55-0.535-1.153-1.006-1.694-1.386c0.545-0.383,1.146-0.852,1.694-1.386C63.132,141.321,63.617,140.711,64.007,140.157z"/>
</g>
<g>
	<path fill="#FFFFFF" d="M215.455,143.371c0.637,0.396,1.537,1.017,2.307,1.768c0.805,0.782,1.449,1.734,1.843,2.382
		c0.146,0.236,0.294,0.319,0.425,0.327c0.133-0.008,0.279-0.091,0.426-0.327c0.393-0.647,1.039-1.6,1.843-2.382
		c0.77-0.751,1.669-1.371,2.306-1.768c0.254-0.151,0.345-0.314,0.34-0.475c0.005-0.16-0.086-0.323-0.34-0.475
		c-0.637-0.396-1.536-1.017-2.306-1.767c-0.804-0.783-1.45-1.735-1.843-2.383c-0.146-0.235-0.293-0.319-0.426-0.327
		c-0.131,0.008-0.279,0.092-0.425,0.327c-0.393,0.647-1.038,1.6-1.843,2.383c-0.77,0.75-1.67,1.37-2.307,1.767
		c-0.252,0.151-0.344,0.314-0.34,0.475C215.111,143.057,215.203,143.22,215.455,143.371z"/>
	<path fill="#2A3035" d="M220.029,139.805c0.391,0.553,0.877,1.162,1.434,1.706c0.551,0.536,1.154,1.007,1.695,1.386
		c-0.546,0.383-1.146,0.852-1.695,1.386c-0.557,0.543-1.041,1.152-1.434,1.707c-0.391-0.554-0.875-1.163-1.433-1.707
		c-0.55-0.535-1.153-1.006-1.694-1.386c0.545-0.383,1.146-0.852,1.694-1.386C219.154,140.969,219.639,140.36,220.029,139.805z"/>
</g>
<g>
	<path fill="#FFFFFF" d="M56.305,12.012c0.636,0.396,1.537,1.017,2.307,1.768c0.804,0.782,1.448,1.734,1.842,2.382
		c0.146,0.236,0.294,0.319,0.426,0.327c0.133-0.008,0.279-0.091,0.426-0.327c0.393-0.647,1.039-1.6,1.842-2.382
		c0.77-0.751,1.67-1.371,2.307-1.768c0.254-0.151,0.344-0.314,0.34-0.475c0.004-0.16-0.086-0.323-0.34-0.475
		c-0.637-0.396-1.537-1.017-2.307-1.767c-0.803-0.783-1.449-1.735-1.842-2.383c-0.147-0.235-0.293-0.319-0.426-0.327
		c-0.132,0.008-0.279,0.092-0.426,0.327c-0.394,0.648-1.038,1.6-1.842,2.383c-0.77,0.75-1.671,1.37-2.307,1.767
		c-0.253,0.151-0.345,0.315-0.34,0.475C55.96,11.698,56.052,11.861,56.305,12.012z"/>
	<path fill="#2A3035" d="M60.879,8.446c0.391,0.553,0.877,1.162,1.434,1.706c0.55,0.536,1.154,1.007,1.694,1.386
		c-0.546,0.383-1.146,0.853-1.694,1.386c-0.557,0.543-1.042,1.152-1.434,1.707c-0.391-0.554-0.876-1.163-1.434-1.707
		c-0.55-0.535-1.153-1.006-1.693-1.386c0.544-0.383,1.145-0.852,1.693-1.386C60.003,9.61,60.489,9,60.879,8.446z"/>
</g>
<g>
	<g>
		<path fill="#FFFFFF" d="M187.874,10.933c-11.375,0-20.63,9.255-20.63,20.631c0,4.858,3.954,8.811,8.812,8.811
			c4.859,0,8.813-3.953,8.813-8.811c0-1.657,1.348-3.006,3.005-3.006c1.713,0,3.005,1.293,3.005,3.006
			c0,0.891-0.5,1.529-3.809,4.034c-3.888,2.942-9.764,7.388-9.764,15.849c0,3.035,1.543,5.717,3.884,7.303
			c-3.822,2.85-4.734,8.252-1.996,12.199c1.663,2.396,4.398,3.826,7.317,3.826c1.817,0,3.57-0.549,5.068-1.587
			c4.031-2.798,5.036-8.355,2.238-12.387c-0.649-0.937-1.466-1.718-2.389-2.333c2-1.517,3.338-3.859,3.488-6.52
			c0.579-0.622,2.153-1.814,2.788-2.295c4.039-3.057,10.8-8.172,10.8-18.09C208.505,19.994,199.443,10.933,187.874,10.933z"/>
	</g>
	<g>
		<g>
			<path fill="#2A3035" d="M186.5,61.169c1.49,0,2.957,0.706,3.871,2.024c1.481,2.135,0.952,5.066-1.184,6.549
				c-0.817,0.567-1.752,0.839-2.677,0.839c-1.49,0-2.956-0.706-3.871-2.023c-1.482-2.137-0.951-5.067,1.184-6.55
				C184.64,61.441,185.575,61.169,186.5,61.169 M186.501,58.949C186.501,58.949,186.501,58.949,186.501,58.949
				c-1.415,0-2.778,0.427-3.943,1.235c-3.137,2.178-3.918,6.502-1.742,9.639c1.295,1.865,3.424,2.977,5.695,2.977
				c1.414,0,2.777-0.427,3.942-1.235c3.137-2.178,3.918-6.501,1.742-9.638C190.901,60.063,188.773,58.949,186.501,58.949
				L186.501,58.949z"/>
		</g>
	</g>
	<g>
		<circle fill="#D96D56" cx="186.505" cy="65.874" r="4.706"/>
	</g>
	<path fill="none" stroke="#2A3035" stroke-width="0.9619" stroke-linecap="round" stroke-miterlimit="10" d="M185.647,67.253
		c-0.46-0.287-0.767-0.798-0.767-1.379c0-0.895,0.729-1.624,1.626-1.624c0.574,0,1.08,0.299,1.368,0.749"/>
	<g>
		<path fill="#D96D56" d="M186.118,56.066c-2.551,0-4.618-2.068-4.618-4.619c0-6.373,4.492-9.772,8.101-12.503
			c3.495-2.646,5.473-4.292,5.473-7.38c0-4.038-3.162-7.2-7.2-7.2c-3.97,0-7.2,3.229-7.2,7.2c0,2.55-2.067,4.617-4.618,4.617
			c-2.55,0-4.618-2.067-4.618-4.617c0-9.064,7.374-16.437,16.436-16.437c9.217,0,16.437,7.219,16.437,16.437
			c0,7.831-5.282,11.827-9.138,14.744c-3.085,2.336-4.437,3.527-4.437,5.139C190.736,53.997,188.668,56.066,186.118,56.066z"/>
	</g>
	<g>
		<path fill="#2A3035" d="M187.874,15.127c9.217,0,16.437,7.219,16.437,16.437c0,7.831-5.282,11.827-9.138,14.744
			c-3.085,2.336-4.437,3.527-4.437,5.139c0,2.551-2.067,4.619-4.618,4.619s-4.618-2.068-4.618-4.619
			c0-6.373,4.492-9.773,8.101-12.503c3.495-2.646,5.473-4.292,5.473-7.38c0-4.038-3.162-7.2-7.2-7.2c-3.97,0-7.2,3.229-7.2,7.2
			c0,2.55-2.067,4.617-4.618,4.617c-2.55,0-4.618-2.067-4.618-4.617C171.437,22.5,178.811,15.127,187.874,15.127 M187.874,12.908
			c-10.287,0-18.656,8.369-18.656,18.656c0,3.77,3.067,6.837,6.838,6.837s6.838-3.067,6.838-6.837c0-2.746,2.234-4.98,4.98-4.98
			c2.792,0,4.98,2.188,4.98,4.98c0,1.854-1.035,2.917-4.593,5.61c-3.79,2.867-8.981,6.794-8.981,14.273
			c0,3.771,3.067,6.839,6.838,6.839s6.838-3.068,6.838-6.839c0-0.675,2.141-2.296,3.557-3.369
			c3.988-3.017,10.017-7.578,10.017-16.514C206.53,21.102,198.335,12.908,187.874,12.908L187.874,12.908z"/>
	</g>
	<path fill="none" stroke="#2A3035" stroke-width="0.9619" stroke-linecap="round" stroke-miterlimit="10" d="M186.118,52.986
		c-0.848,0-1.538-0.692-1.538-1.539c0-4.842,3.498-7.487,6.879-10.046c3.442-2.607,6.695-5.068,6.695-9.837"/>
	<path fill="none" stroke="#2A3035" stroke-width="0.9619" stroke-linecap="round" stroke-miterlimit="10" d="M175.149,27.924
		c1.589-5.601,6.75-9.717,12.853-9.717"/>
	<circle fill="#2A3035" cx="189.933" cy="18.531" r="0.485"/>
</g>
<g>
	<g>
		<path fill="#FFFFFF" d="M24.771,37.991c-11.375,0-20.63,9.255-20.63,20.631c0,4.859,3.954,8.812,8.812,8.812
			c4.859,0,8.813-3.952,8.813-8.812c0-1.656,1.348-3.006,3.005-3.006c1.713,0,3.005,1.293,3.005,3.006c0,0.892-0.5,1.53-3.81,4.034
			c-3.888,2.942-9.764,7.389-9.764,15.849c0,3.035,1.542,5.718,3.884,7.303c-3.822,2.85-4.734,8.252-1.996,12.199
			c1.663,2.396,4.398,3.827,7.317,3.827c1.817,0,3.57-0.549,5.068-1.588c4.031-2.798,5.036-8.355,2.238-12.387
			c-0.649-0.937-1.466-1.718-2.389-2.333c2-1.516,3.338-3.859,3.488-6.52c0.579-0.622,2.153-1.814,2.788-2.295
			c4.04-3.057,10.801-8.171,10.801-18.09C45.402,47.052,36.34,37.991,24.771,37.991z"/>
	</g>
	<g>
		<g>
			<path fill="#2A3035" d="M23.397,88.227c1.491,0,2.957,0.706,3.872,2.024c1.481,2.135,0.951,5.067-1.184,6.549
				c-0.817,0.567-1.752,0.839-2.677,0.839c-1.491,0-2.956-0.706-3.871-2.023c-1.482-2.137-0.951-5.067,1.183-6.55
				C21.537,88.499,22.472,88.227,23.397,88.227 M23.397,86.007C23.397,86.007,23.397,86.007,23.397,86.007
				c-1.414,0-2.778,0.427-3.942,1.235c-3.136,2.179-3.917,6.502-1.742,9.639c1.295,1.865,3.423,2.977,5.695,2.977
				c1.414,0,2.777-0.427,3.942-1.235c3.137-2.177,3.919-6.501,1.743-9.638C27.798,87.12,25.669,86.007,23.397,86.007L23.397,86.007z
				"/>
		</g>
	</g>
	<g>
		<circle fill="#E9A944" cx="23.403" cy="92.932" r="4.706"/>
	</g>
	<path fill="none" stroke="#2A3035" stroke-width="0.9619" stroke-linecap="round" stroke-miterlimit="10" d="M22.544,94.311
		c-0.459-0.286-0.767-0.798-0.767-1.379c0-0.895,0.729-1.624,1.626-1.624c0.574,0,1.08,0.299,1.368,0.749"/>
	<g>
		<path fill="#E9A944" d="M23.015,83.123c-2.551,0-4.618-2.068-4.618-4.619c0-6.373,4.492-9.771,8.101-12.503
			c3.495-2.646,5.473-4.292,5.473-7.38c0-4.038-3.162-7.2-7.2-7.2c-3.97,0-7.2,3.229-7.2,7.2c0,2.55-2.067,4.617-4.618,4.617
			c-2.55,0-4.618-2.067-4.618-4.617c0-9.062,7.374-16.437,16.436-16.437c9.217,0,16.437,7.219,16.437,16.437
			c0,7.831-5.282,11.827-9.138,14.744c-3.085,2.336-4.437,3.527-4.437,5.139C27.633,81.055,25.566,83.123,23.015,83.123z"/>
	</g>
	<g>
		<path fill="#2A3035" d="M24.771,42.185c9.217,0,16.437,7.219,16.437,16.437c0,7.831-5.282,11.827-9.138,14.744
			c-3.085,2.336-4.437,3.527-4.437,5.139c0,2.551-2.067,4.619-4.618,4.619c-2.551,0-4.618-2.068-4.618-4.619
			c0-6.373,4.492-9.771,8.101-12.503c3.495-2.646,5.473-4.292,5.473-7.38c0-4.038-3.162-7.2-7.2-7.2c-3.97,0-7.2,3.229-7.2,7.2
			c0,2.55-2.067,4.617-4.618,4.617c-2.55,0-4.618-2.067-4.618-4.617C8.335,49.559,15.709,42.185,24.771,42.185 M24.771,39.965
			c-10.287,0-18.656,8.369-18.656,18.656c0,3.77,3.067,6.837,6.838,6.837c3.77,0,6.838-3.067,6.838-6.837
			c0-2.746,2.234-4.98,4.98-4.98c2.792,0,4.98,2.188,4.98,4.98c0,1.854-1.034,2.917-4.593,5.61
			c-3.791,2.869-8.981,6.796-8.981,14.273c0,3.771,3.067,6.839,6.838,6.839c3.77,0,6.838-3.068,6.838-6.839
			c0-0.675,2.141-2.296,3.557-3.369c3.989-3.017,10.017-7.578,10.017-16.514C43.428,48.16,35.233,39.965,24.771,39.965
			L24.771,39.965z"/>
	</g>
	<path fill="none" stroke="#2A3035" stroke-width="0.9619" stroke-linecap="round" stroke-miterlimit="10" d="M23.015,80.043
		c-0.848,0-1.538-0.691-1.538-1.539c0-4.842,3.497-7.487,6.879-10.046c3.442-2.606,6.695-5.068,6.695-9.837"/>
	<path fill="none" stroke="#2A3035" stroke-width="0.9619" stroke-linecap="round" stroke-miterlimit="10" d="M12.047,54.982
		c1.589-5.6,6.75-9.717,12.852-9.717"/>
	<circle fill="#2A3035" cx="26.83" cy="45.589" r="0.486"/>
</g>
<g>
	<g>
		<path fill="#FFFFFF" d="M124.806,115.047c-11.375,0-20.63,9.255-20.63,20.63c0,4.859,3.953,8.812,8.812,8.812
			c4.86,0,8.813-3.953,8.813-8.812c0-1.656,1.349-3.006,3.005-3.006c1.714,0,3.005,1.293,3.005,3.006c0,0.892-0.5,1.53-3.81,4.035
			c-3.888,2.941-9.764,7.388-9.764,15.849c0,3.035,1.542,5.717,3.884,7.303c-3.822,2.85-4.735,8.252-1.996,12.199
			c1.663,2.395,4.398,3.826,7.317,3.826c1.818,0,3.57-0.549,5.068-1.588c4.031-2.798,5.036-8.355,2.238-12.386
			c-0.649-0.936-1.466-1.719-2.389-2.333c2-1.517,3.338-3.859,3.488-6.519c0.579-0.622,2.153-1.814,2.788-2.295
			c4.039-3.057,10.8-8.172,10.8-18.091C145.437,124.109,136.376,115.047,124.806,115.047z"/>
	</g>
	<g>
		<g>
			<path fill="#2A3035" d="M123.433,165.283c1.49,0,2.957,0.707,3.871,2.024c1.481,2.135,0.952,5.066-1.184,6.549
				c-0.817,0.567-1.752,0.839-2.677,0.839c-1.49,0-2.956-0.706-3.871-2.023c-1.482-2.136-0.951-5.066,1.183-6.549
				C121.573,165.555,122.508,165.283,123.433,165.283 M123.433,163.063C123.433,163.063,123.433,163.063,123.433,163.063
				c-1.415,0-2.778,0.427-3.943,1.236c-3.137,2.179-3.918,6.502-1.741,9.638c1.294,1.864,3.422,2.977,5.694,2.977
				c1.414,0,2.777-0.427,3.941-1.234c3.138-2.178,3.919-6.502,1.743-9.638C127.834,164.177,125.705,163.063,123.433,163.063
				L123.433,163.063z"/>
		</g>
	</g>
	<g>
		<circle fill="#8CBF5C" cx="123.438" cy="169.989" r="4.706"/>
	</g>
	<path fill="none" stroke="#2A3035" stroke-width="0.9619" stroke-linecap="round" stroke-miterlimit="10" d="M122.58,171.368
		c-0.46-0.287-0.767-0.798-0.767-1.379c0-0.895,0.729-1.624,1.625-1.624c0.574,0,1.08,0.299,1.368,0.749"/>
	<g>
		<path fill="#8CBF5C" d="M123.05,160.18c-2.551,0-4.618-2.068-4.618-4.619c0-6.373,4.492-9.773,8.101-12.504
			c3.495-2.645,5.473-4.291,5.473-7.38c0-4.037-3.162-7.2-7.2-7.2c-3.969,0-7.2,3.23-7.2,7.2c0,2.551-2.067,4.618-4.618,4.618
			c-2.549,0-4.618-2.067-4.618-4.618c0-9.062,7.374-16.437,16.436-16.437c9.217,0,16.437,7.22,16.437,16.437
			c0,7.832-5.282,11.827-9.137,14.745c-3.085,2.336-4.437,3.527-4.437,5.139C127.668,158.112,125.601,160.18,123.05,160.18z"/>
	</g>
	<g>
		<path fill="#2A3035" d="M124.806,119.241c9.217,0,16.437,7.22,16.437,16.437c0,7.832-5.282,11.827-9.137,14.745
			c-3.085,2.336-4.437,3.527-4.437,5.139c0,2.551-2.067,4.619-4.618,4.619c-2.551,0-4.618-2.068-4.618-4.619
			c0-6.373,4.492-9.773,8.101-12.504c3.495-2.645,5.473-4.291,5.473-7.38c0-4.037-3.162-7.2-7.2-7.2c-3.969,0-7.2,3.23-7.2,7.2
			c0,2.551-2.067,4.618-4.618,4.618c-2.549,0-4.618-2.067-4.618-4.618C108.371,126.615,115.744,119.241,124.806,119.241
			 M124.806,117.021c-10.287,0-18.655,8.369-18.655,18.656c0,3.77,3.067,6.838,6.837,6.838c3.77,0,6.838-3.067,6.838-6.838
			c0-2.746,2.234-4.98,4.98-4.98c2.792,0,4.98,2.188,4.98,4.98c0,1.855-1.034,2.918-4.592,5.61
			c-3.79,2.869-8.981,6.797-8.981,14.274c0,3.771,3.067,6.839,6.838,6.839c3.77,0,6.838-3.068,6.838-6.839
			c0-0.675,2.141-2.296,3.558-3.369c3.991-3.021,10.017-7.581,10.017-16.515C143.463,125.216,135.268,117.021,124.806,117.021
			L124.806,117.021z"/>
	</g>
	<path fill="none" stroke="#2A3035" stroke-width="0.9619" stroke-linecap="round" stroke-miterlimit="10" d="M123.05,157.1
		c-0.848,0-1.538-0.691-1.538-1.539c0-4.842,3.498-7.487,6.879-10.046c3.442-2.607,6.695-5.068,6.695-9.838"/>
	<path fill="none" stroke="#2A3035" stroke-width="0.9619" stroke-linecap="round" stroke-miterlimit="10" d="M112.082,132.038
		c1.588-5.602,6.75-9.717,12.853-9.717"/>
	<circle fill="#2A3035" cx="126.866" cy="122.645" r="0.486"/>
</g>
</svg>
