<?xml version="1.0" encoding="UTF-8" standalone="no"?>
<svg width="17px" height="18px" viewBox="0 0 17 18" version="1.1" xmlns="http://www.w3.org/2000/svg" xmlns:xlink="http://www.w3.org/1999/xlink" xmlns:sketch="http://www.bohemiancoding.com/sketch/ns">
    <!-- Generator: Sketch 3.1.1 (8761) - http://www.bohemiancoding.com/sketch -->
    <title>star-big</title>
    <desc>Created with Sketch.</desc>
    <defs></defs>
    <g id="Page-1" stroke="none" stroke-width="1" fill="none" fill-rule="evenodd" sketch:type="MSPage">
        <g id="main_top-copy" sketch:type="MSLayerGroup" transform="translate(-89.000000, -1026.000000)">
            <g id="enter_hover" transform="translate(1.000000, 40.000000)" sketch:type="MSShapeGroup">
                <g id="layout-0-all-stars" transform="translate(66.000000, 876.000000)">
                    <g id="star-big" transform="translate(22.000000, 111.000000)">
                        <path d="M15.9,7.2 C14.8,6.5 13.4,5.5 12.1,4.3 C10.8,3 9.7,1.4 9,0.4 C8.8,-2.27373675e-13 8.5,-0.1 8.3,-0.1 C8.1,-0.1 7.8,0.1 7.6,0.4 C6.9,1.5 5.9,3.1 4.5,4.3 C3.2,5.5 1.7,6.6 0.7,7.2 C0.3,7.5 0.1,7.7 0.1,8 C0.1,8.3 0.2,8.5 0.7,8.8 C1.8,9.5 3.2,10.5 4.5,11.7 C5.8,13 6.9,14.6 7.6,15.6 C7.8,16 8.1,16.1 8.3,16.1 C8.5,16.1 8.8,15.9 9,15.6 C9.7,14.5 10.7,12.9 12.1,11.7 C13.4,10.5 14.9,9.4 15.9,8.8 C16.3,8.5 16.5,8.3 16.5,8 C16.4,7.7 16.3,7.4 15.9,7.2 L15.9,7.2 Z" id="Shape" fill="#FFFFFF"></path>
                        <path d="M8.3,13.1 C7.7,12.2 6.8,11.2 5.9,10.3 C5,9.4 4,8.6 3.1,8 C4,7.4 5,6.6 5.9,5.7 C6.8,4.8 7.6,3.8 8.3,2.9 C8.9,3.8 9.8,4.8 10.7,5.7 C11.6,6.6 12.6,7.4 13.5,8 C12.6,8.6 11.6,9.4 10.7,10.3 C9.7,11.2 8.9,12.2 8.3,13.1 L8.3,13.1 Z" id="Shape" fill="#2C3236"></path>
                    </g>
                </g>
            </g>
        </g>
    </g>
</svg>