<?xml version="1.0" encoding="UTF-8" standalone="no"?>
<svg width="42px" height="42px" viewBox="0 0 42 42" version="1.1" xmlns="http://www.w3.org/2000/svg" xmlns:xlink="http://www.w3.org/1999/xlink" xmlns:sketch="http://www.bohemiancoding.com/sketch/ns">
    <!-- Generator: Sketch 3.1 (8751) - http://www.bohemiancoding.com/sketch -->
    <title>18plus</title>
    <desc>Created with Sketch.</desc>
    <defs></defs>
    <g id="Page-1" stroke="none" stroke-width="1" fill="none" fill-rule="evenodd" sketch:type="MSPage">
        <g id="18plus" sketch:type="MSLayerGroup" transform="translate(1.000000, 1.000000)">
            <g id="Group" transform="translate(7.000000, 15.000000)" fill="#26C0D5" sketch:type="MSShapeGroup">
                <path d="M3.3,1.7 L0.9,2.8 L0.3,1.4 L3.7,-0.1 L5.1,-0.1 L5.1,10.2 L3.3,10.2 L3.3,1.7 L3.3,1.7 Z" id="Shape"></path>
                <path d="M7.5,7.4 C7.5,6.2 8.3,5.3 9.3,4.8 L9.3,4.8 C8.5,4.4 7.8,3.7 7.8,2.6 C7.8,1 9.1,-0.2 11.3,-0.2 C13.5,-0.2 14.6,1.1 14.6,2.4 C14.6,3.7 13.8,4.3 13.1,4.7 L13.1,4.7 C14.1,5.1 15,5.8 15,7.2 C15,8.9 13.7,10.2 11.2,10.2 C8.8,10.2 7.5,9.1 7.5,7.4 L7.5,7.4 Z M12.9,7.4 C12.9,6.2 11.7,5.9 10.7,5.6 C10.1,5.8 9.4,6.4 9.4,7.3 C9.4,8.4 10.2,8.9 11.2,8.9 C12.2,8.8 12.9,8.3 12.9,7.4 L12.9,7.4 Z M12.6,2.6 C12.6,1.9 12.1,1.2 11.1,1.2 C10.3,1.2 9.7,1.7 9.7,2.5 C9.7,3.5 10.6,3.9 11.5,4.1 C12.1,3.8 12.6,3.3 12.6,2.6 L12.6,2.6 Z" id="Shape"></path>
                <path d="M19.7,7 L16.9,7 L16.9,5.5 L19.7,5.5 L19.7,2.5 L21.4,2.5 L21.4,5.5 L24.2,5.5 L24.2,7 L21.4,7 L21.4,10.1 L19.7,10.1 L19.7,7 L19.7,7 Z" id="Shape"></path>
            </g>
            <circle id="Oval" stroke="#26C0D5" stroke-width="1.5694" sketch:type="MSShapeGroup" cx="19.7" cy="19.7" r="19.7"></circle>
        </g>
    </g>
</svg>