<?xml version="1.0" encoding="UTF-8" standalone="no"?>
<svg width="15px" height="20px" viewBox="0 0 15 20" version="1.1" xmlns="http://www.w3.org/2000/svg" xmlns:xlink="http://www.w3.org/1999/xlink" xmlns:sketch="http://www.bohemiancoding.com/sketch/ns">
    <!-- Generator: Sketch 3.1 (8751) - http://www.bohemiancoding.com/sketch -->
    <title>icon-marker</title>
    <desc>Created with Sketch.</desc>
    <defs></defs>
    <g id="Page-1" stroke="none" stroke-width="1" fill="none" fill-rule="evenodd" sketch:type="MSPage">
        <g id="main_top" sketch:type="MSLayerGroup" transform="translate(-631.000000, -732.000000)" fill="#505050">
            <g id="Layer_5" transform="translate(297.000000, 731.000000)" sketch:type="MSShapeGroup">
                <g id="Group">
                    <g id="icon-marker" transform="translate(335.000000, 1.000000)">
                        <path d="M6.7,19.9 C6.5,19.9 6.4,19.8 6.3,19.7 C6,19.5 -0.1,14.1 -0.4,7.8 L-0.4,7.4 C-0.4,3.5 2.8,0.3 6.7,0.3 C10.6,0.3 13.8,3.5 13.8,7.4 L13.8,7.8 C13.5,14.1 7.4,19.5 7.1,19.7 C7,19.8 6.9,19.9 6.7,19.9 L6.7,19.9 Z M6.7,1.5 C3.5,1.5 0.9,4.1 0.9,7.3 L0.9,7.7 C1.1,12.6 5.4,17 6.7,18.3 C8.1,17 12.3,12.5 12.5,7.7 L12.5,7.3 C12.6,4.2 9.9,1.5 6.7,1.5 L6.7,1.5 Z" id="Shape"></path>
                        <path d="M6.7,11.2 C4.9,11.2 3.4,9.7 3.4,7.9 C3.4,6.1 4.9,4.6 6.7,4.6 C8.5,4.6 10,6.1 10,7.9 C10,9.7 8.5,11.2 6.7,11.2 L6.7,11.2 Z M6.7,5.9 C5.6,5.9 4.7,6.8 4.7,7.9 C4.7,9 5.6,9.9 6.7,9.9 C7.8,9.9 8.7,9 8.7,7.9 C8.7,6.8 7.8,5.9 6.7,5.9 L6.7,5.9 Z" id="Shape"></path>
                    </g>
                </g>
            </g>
        </g>
    </g>
</svg>