<?xml version="1.0" encoding="utf-8"?>
<!-- Generator: Adobe Illustrator 18.1.0, SVG Export Plug-In . SVG Version: 6.00 Build 0)  -->
<!DOCTYPE svg PUBLIC "-//W3C//DTD SVG 1.1//EN" "http://www.w3.org/Graphics/SVG/1.1/DTD/svg11.dtd">
<svg version="1.1" id="Layer_1" xmlns="http://www.w3.org/2000/svg" xmlns:xlink="http://www.w3.org/1999/xlink" x="0px" y="0px"
	 width="20.6px" height="20.6px" viewBox="0 0 20.6 20.6" enable-background="new 0 0 20.6 20.6" xml:space="preserve">
<g>
	<g>
		<path fill="#515151" d="M5,5c0.1,0.1,0.3,0.2,0.5,0.2c0.2,0,0.3-0.1,0.5-0.2c0.3-0.3,0.3-0.7,0-0.9L4.6,2.7l1.4-1.4
			c0.3-0.3,0.3-0.7,0-0.9S5.3,0.2,5,0.4L3.7,1.8L2.3,0.4c-0.3-0.3-0.7-0.3-0.9,0s-0.3,0.7,0,0.9l1.4,1.4L1.4,4
			C1.1,4.3,1.1,4.7,1.4,5c0.1,0.1,0.3,0.2,0.5,0.2S2.2,5.1,2.3,5l1.4-1.4L5,5z"/>
		<path fill="#515151" d="M18,18l1.4-1.4c0.3-0.3,0.3-0.7,0-0.9c-0.3-0.3-0.7-0.3-0.9,0L17.1,17l-1.4-1.4c-0.3-0.3-0.7-0.3-0.9,0
			c-0.3,0.3-0.3,0.7,0,0.9l1.4,1.4l-1.4,1.4c-0.3,0.3-0.3,0.7,0,0.9c0.1,0.1,0.3,0.2,0.5,0.2c0.2,0,0.3-0.1,0.5-0.2l1.4-1.4l1.4,1.4
			c0.1,0.1,0.3,0.2,0.5,0.2c0.2,0,0.3-0.1,0.5-0.2c0.3-0.3,0.3-0.7,0-0.9L18,18z"/>
		<circle fill="#515151" cx="11.9" cy="2.7" r="0.9"/>
		<circle fill="#515151" cx="8.5" cy="2.7" r="0.9"/>
		<circle fill="#515151" cx="15.3" cy="3.3" r="0.9"/>
		<circle fill="#515151" cx="16.9" cy="6.3" r="0.9"/>
		<circle fill="#515151" cx="15.5" cy="9.4" r="0.9"/>
		<circle fill="#515151" cx="12.2" cy="10.3" r="0.9"/>
		<circle fill="#515151" cx="8.7" cy="10.3" r="0.9"/>
		<circle fill="#515151" cx="5.3" cy="11.1" r="0.9"/>
		<circle fill="#515151" cx="3.8" cy="14.1" r="0.9"/>
		<circle fill="#515151" cx="5.3" cy="16.9" r="0.9"/>
		<circle fill="#515151" cx="8.5" cy="18" r="0.9"/>
		<circle fill="#515151" cx="11.7" cy="18" r="0.9"/>
	</g>
</g>
</svg>
