<?xml version="1.0" encoding="UTF-8" standalone="no"?>
<svg width="20px" height="20px" viewBox="0 0 20 20" version="1.1" xmlns="http://www.w3.org/2000/svg" xmlns:xlink="http://www.w3.org/1999/xlink" xmlns:sketch="http://www.bohemiancoding.com/sketch/ns">
    <!-- Generator: Sketch 3.1 (8751) - http://www.bohemiancoding.com/sketch -->
    <title>clock</title>
    <desc>Created with Sketch.</desc>
    <defs></defs>
    <g id="Page-1" stroke="none" stroke-width="1" fill="none" fill-rule="evenodd" sketch:type="MSPage">
        <g id="Group" sketch:type="MSLayerGroup" transform="translate(0.000000, -4.000000)" fill="#26C0D5">
            <g id="clock" transform="translate(0.000000, 4.000000)" sketch:type="MSShapeGroup">
                <path d="M9.7,0.3 C4.4,0.3 0,4.6 0,10 C0,15.3 4.3,19.7 9.7,19.7 C15,19.7 19.4,15.4 19.4,10 C19.4,4.7 15,0.3 9.7,0.3 L9.7,0.3 Z M9.7,17.9 C5.4,17.9 1.9,14.4 1.9,10.1 C1.9,5.8 5.4,2.3 9.7,2.3 C14,2.3 17.5,5.8 17.5,10.1 C17.5,14.3 14,17.9 9.7,17.9 L9.7,17.9 Z" id="Shape"></path>
                <path d="M13.5,9.5 L10.6,9.5 L10.6,5.2 C10.6,4.7 10.2,4.3 9.7,4.3 C9.2,4.3 8.8,4.7 8.8,5.2 L8.8,10.4 C8.8,10.9 9.2,11.3 9.7,11.3 L13.5,11.3 C14,11.3 14.4,10.9 14.4,10.4 C14.4,9.9 14,9.5 13.5,9.5 L13.5,9.5 Z" id="Shape"></path>
            </g>
        </g>
    </g>
</svg>