<?xml version="1.0" encoding="UTF-8" standalone="no"?>
<svg width="13px" height="13px" viewBox="0 0 13 13" version="1.1" xmlns="http://www.w3.org/2000/svg" xmlns:xlink="http://www.w3.org/1999/xlink" xmlns:sketch="http://www.bohemiancoding.com/sketch/ns">
    <!-- Generator: Sketch 3.1 (8751) - http://www.bohemiancoding.com/sketch -->
    <title>facebook</title>
    <desc>Created with Sketch.</desc>
    <defs></defs>
    <g id="Page-1" stroke="none" stroke-width="1" fill="none" fill-rule="evenodd" sketch:type="MSPage">
        <g id="facebook" sketch:type="MSLayerGroup" fill="#000000">
            <g id="Page-1" sketch:type="MSShapeGroup">
                <g id="Главная">
                    <g id="bottom">
                        <path d="M11.4,0.3 L0.7,0.3 C0.3,0.3 0,0.6 0,1 L0,11.7 C0,12.1 0.3,12.4 0.7,12.4 L6.5,12.4 L6.5,7.7 L4.9,7.7 L4.9,5.9 L6.5,5.9 L6.5,4.6 C6.5,3 7.5,2.2 8.8,2.2 C9.5,2.2 10,2.3 10.2,2.3 L10.2,3.9 L9.2,3.9 C8.4,3.9 8.3,4.3 8.3,4.8 L8.3,6 L10.1,6 L9.9,7.8 L8.3,7.8 L8.3,12.5 L11.4,12.5 C11.8,12.5 12.1,12.2 12.1,11.8 L12.1,1.1 C12,0.6 11.7,0.3 11.4,0.3 L11.4,0.3 L11.4,0.3 Z" id="facebook"></path>
                    </g>
                </g>
            </g>
        </g>
    </g>
</svg>