<?xml version="1.0" encoding="UTF-8" standalone="no"?>
<svg width="10px" height="14px" viewBox="0 0 10 14" version="1.1" xmlns="http://www.w3.org/2000/svg" xmlns:xlink="http://www.w3.org/1999/xlink" xmlns:sketch="http://www.bohemiancoding.com/sketch/ns">
    <!-- Generator: Sketch 3.1 (8751) - http://www.bohemiancoding.com/sketch -->
    <title>lock</title>
    <desc>Created with Sketch.</desc>
    <defs></defs>
    <g id="Page-1" stroke="none" stroke-width="1" fill="none" fill-rule="evenodd" sketch:type="MSPage">
        <g id="Главная" sketch:type="MSArtboardGroup" transform="translate(-1118.000000, -110.000000)" fill="#505050">
            <g id="enter_hover" sketch:type="MSLayerGroup" transform="translate(1076.000000, 38.000000)">
                <g id="lock" transform="translate(42.000000, 72.000000)" sketch:type="MSShapeGroup">
                    <path d="M9.4,8.7 L9.4,6 C9.4,5.22385763 8.87614237,4.7 8.1,4.7 L4.9,4.7 L1.7,4.7 C0.849026137,4.7 0.4,5.19392875 0.4,6 L0.4,8.7 C0.287331736,11.167344 2.3199877,13.2 4.9,13.2 C7.37614237,13.2 9.4,11.1761424 9.4,8.7 Z M1.39948427,8.72270383 L1.4,6 C1.4,5.72607125 1.42370114,5.7 1.7,5.7 L4.9,5.7 L8.1,5.7 C8.32385763,5.7 8.4,5.77614237 8.4,6 L8.4,8.7 C8.4,10.6238576 6.82385763,12.2 4.9,12.2 C2.8800123,12.2 1.31266826,10.632656 1.39948427,8.72270383 Z" id="Shape"></path>
                    <path d="M4.4,9.8 L5.4,9.8 L5.4,7.4 L4.4,7.4 L4.4,9.8 Z" id="Shape"></path>
                    <path d="M4.9,0.2 C3.12385763,0.2 1.7,1.62385763 1.7,3.4 L1.7,5.1 L2.7,5.1 L2.7,3.4 C2.7,2.17614237 3.67614237,1.2 4.9,1.2 C6.12385763,1.2 7.1,2.17614237 7.1,3.4 L8.1,3.4 C8.1,1.62385763 6.67614237,0.2 4.9,0.2 Z" id="Shape"></path>
                </g>
            </g>
        </g>
    </g>
</svg>