<?xml version="1.0" encoding="UTF-8" standalone="no"?>
<svg width="25px" height="20px" viewBox="0 0 25 20" version="1.1" xmlns="http://www.w3.org/2000/svg" xmlns:xlink="http://www.w3.org/1999/xlink" xmlns:sketch="http://www.bohemiancoding.com/sketch/ns">
    <!-- Generator: Sketch 3.1.1 (8761) - http://www.bohemiancoding.com/sketch -->
    <title>photo</title>
    <desc>Created with Sketch.</desc>
    <defs></defs>
    <g id="Page-1" stroke="none" stroke-width="1" fill="none" fill-rule="evenodd" sketch:type="MSPage">
        <g id="photo" sketch:type="MSLayerGroup" transform="translate(1.000000, 0.000000)" fill="#FFFFFF">
            <path d="M7.2453,2.4 C7.2453,1.80116087 7.70116087,1.3453 8.3,1.3453 L11.7,1.3453 L15.1,1.3453 C15.6988391,1.3453 16.1547,1.80116087 16.1547,2.4 L16.1547,3.9 L17.2453,3.9 L17.2453,2.4 C17.2453,1.19883913 16.3011609,0.2547 15.1,0.2547 L11.7,0.2547 L8.3,0.2547 C7.09883913,0.2547 6.1547,1.19883913 6.1547,2.4 L6.1547,3.9 L7.2453,3.9 L7.2453,2.4 Z" id="Shape" sketch:type="MSShapeGroup"></path>
            <path d="M22.6547,16.3 C22.6547,17.5988391 21.5988391,18.6547 20.3,18.6547 L11.7,18.6547 L3.1,18.6547 C1.80116087,18.6547 0.7453,17.5988391 0.7453,16.3 L0.7453,11.8 L0.7453,7.3 C0.7453,6.00116087 1.80116087,4.9453 3.1,4.9453 L11.7,4.9453 L20.3,4.9453 C21.5988391,4.9453 22.6547,6.00116087 22.6547,7.3 L22.6547,11.8 L22.6547,16.3 Z M23.7453,7.3 C23.7453,5.39883913 22.2011609,3.8547 20.3,3.8547 L11.7,3.8547 L3.1,3.8547 C1.19883913,3.8547 -0.3453,5.39883913 -0.3453,7.3 L-0.3453,11.8 L-0.3453,16.3 C-0.3453,18.2011609 1.19883913,19.7453 3.1,19.7453 L11.7,19.7453 L20.3,19.7453 C22.2011609,19.7453 23.7453,18.2011609 23.7453,16.3 L23.7453,11.8 L23.7453,7.3 Z" id="Shape" sketch:type="MSShapeGroup"></path>
            <path d="M15.9453,11.7 C15.9453,9.35538555 14.0446144,7.4547 11.7,7.4547 C9.35538555,7.4547 7.4547,9.35538555 7.4547,11.7 C7.4547,14.0446144 9.35538555,15.9453 11.7,15.9453 C14.0446144,15.9453 15.9453,14.0446144 15.9453,11.7 Z M8.5453,11.7 C8.5453,9.9577073 9.9577073,8.5453 11.7,8.5453 C13.4422927,8.5453 14.8547,9.9577073 14.8547,11.7 C14.8547,13.4422927 13.4422927,14.8547 11.7,14.8547 C9.9577073,14.8547 8.5453,13.4422927 8.5453,11.7 Z" id="Oval" sketch:type="MSShapeGroup"></path>
        </g>
    </g>
</svg>