<?xml version="1.0" encoding="UTF-8" standalone="no"?>
<svg width="24px" height="19px" viewBox="0 0 24 19" version="1.1" xmlns="http://www.w3.org/2000/svg" xmlns:xlink="http://www.w3.org/1999/xlink" xmlns:sketch="http://www.bohemiancoding.com/sketch/ns">
    <!-- Generator: Sketch 3.1.1 (8761) - http://www.bohemiancoding.com/sketch -->
    <title>photo-fill</title>
    <desc>Created with Sketch.</desc>
    <defs></defs>
    <g id="Page-1" stroke="none" stroke-width="1" fill="none" fill-rule="evenodd" sketch:type="MSPage">
        <g id="Shape-+-Oval" sketch:type="MSLayerGroup" fill="#505050">
            <path d="M20.145,3.614 L16.494,3.614 L16.494,1.579 C16.494,0.706 15.788,0 14.915,0 L8.138,0 C7.266,0 6.559,0.706 6.559,1.579 L6.559,3.614 L2.908,3.614 C1.302,3.614 0,4.916 0,6.524 L0,15.479 C0,17.085 1.302,18.387 2.908,18.387 L20.145,18.387 C21.751,18.387 23.053,17.085 23.053,15.479 L23.053,6.524 C23.053,4.916 21.751,3.614 20.145,3.614 L20.145,3.614 Z M11.525,14.656 C9.505,14.656 7.869,13.021 7.869,11.002 C7.869,8.983 9.505,7.344 11.525,7.344 C13.545,7.344 15.184,8.983 15.184,11.002 C15.184,13.021 13.545,14.656 11.525,14.656 L11.525,14.656 Z" id="photo-fill" sketch:type="MSShapeGroup"></path>
        </g>
    </g>
</svg>