<?xml version="1.0" encoding="UTF-8" standalone="no"?>
<svg width="16px" height="13px" viewBox="0 0 16 13" version="1.1" xmlns="http://www.w3.org/2000/svg" xmlns:xlink="http://www.w3.org/1999/xlink" xmlns:sketch="http://www.bohemiancoding.com/sketch/ns">
    <!-- Generator: Sketch 3.1 (8751) - http://www.bohemiancoding.com/sketch -->
    <title>twitter</title>
    <desc>Created with Sketch.</desc>
    <defs></defs>
    <g id="Page-1" stroke="none" stroke-width="1" fill="none" fill-rule="evenodd" sketch:type="MSPage">
        <g id="Главная" sketch:type="MSArtboardGroup" transform="translate(-745.000000, -2228.000000)" fill="#848484">
            <g id="bottom" sketch:type="MSLayerGroup" transform="translate(-2.000000, 2109.000000)">
                <path d="M760.7,121.2 C761.3,120.8 761.8,120.2 762,119.5 C761.4,119.8 760.8,120.1 760.1,120.2 C759.5,119.6 758.8,119.2 757.9,119.2 C756.2,119.2 754.9,120.6 754.9,122.3 C754.9,122.5 754.9,122.8 755,123 C752.5,122.9 750.2,121.7 748.7,119.8 C748.4,120.3 748.3,120.8 748.3,121.3 C748.3,122.4 748.8,123.3 749.7,123.8 C749.2,123.8 748.7,123.6 748.3,123.4 C748.3,124.9 749.4,126.1 750.7,126.4 C750.4,126.5 750.2,126.5 749.9,126.5 C749.7,126.5 749.5,126.5 749.3,126.4 C749.7,127.6 750.8,128.5 752.2,128.5 C751.2,129.3 749.8,129.8 748.4,129.8 L747.7,129.8 C749,130.7 750.7,131.2 752.4,131.2 C758,131.2 761.1,126.6 761.1,122.5 L761.1,122.1 C761.6,121.8 762.1,121.3 762.5,120.7 C762,120.9 761.4,121.1 760.7,121.2 Z" id="twitter" sketch:type="MSShapeGroup"></path>
            </g>
        </g>
    </g>
</svg>