<?xml version="1.0" encoding="UTF-8" standalone="no"?>
<svg width="11px" height="14px" viewBox="0 0 11 14" version="1.1" xmlns="http://www.w3.org/2000/svg" xmlns:xlink="http://www.w3.org/1999/xlink" xmlns:sketch="http://www.bohemiancoding.com/sketch/ns">
    <!-- Generator: Sketch 3.1 (8751) - http://www.bohemiancoding.com/sketch -->
    <title>user</title>
    <desc>Created with Sketch.</desc>
    <defs></defs>
    <g id="Page-1" stroke="none" stroke-width="1" fill="none" fill-rule="evenodd" sketch:type="MSPage">
        <g id="Главная" sketch:type="MSArtboardGroup" transform="translate(-1117.000000, -70.000000)" fill="#505050">
            <g id="enter_hover" sketch:type="MSLayerGroup" transform="translate(1076.000000, 38.000000)">
                <g id="user" transform="translate(42.000000, 33.000000)" sketch:type="MSShapeGroup">
                    <path d="M8.1,2.8 C8.1,0.977460326 6.62253967,-0.5 4.8,-0.5 C2.97746033,-0.5 1.5,0.977460326 1.5,2.8 C1.5,4.62253967 2.97746033,6.1 4.8,6.1 C6.62253967,6.1 8.1,4.62253967 8.1,2.8 Z M2.5,2.8 C2.5,1.52974508 3.52974508,0.5 4.8,0.5 C6.07025492,0.5 7.1,1.52974508 7.1,2.8 C7.1,4.07025492 6.07025492,5.1 4.8,5.1 C3.52974508,5.1 2.5,4.07025492 2.5,2.8 Z" id="Oval"></path>
                    <path d="M8,12.7 C10.1595709,12.7 10.7035379,10.2521487 9.18673117,9.19038404 C8.74844757,8.93752306 8.51484986,8.81125403 8.1906763,8.65870176 C7.16999202,8.17837975 6.12606796,7.9 5,7.9 C3.41894566,7.9 1.91069533,8.45861123 0.822649902,9.18397485 C-0.813119948,10.2247852 -0.263072215,12.7 2,12.7 L4.9,12.7 L8,12.7 Z M2,11.7 C0.785294437,11.7 0.530819063,10.5548608 1.36843775,10.0218307 C2.31430467,9.39138877 3.64105434,8.9 5,8.9 C5.96282093,8.9 6.86761481,9.14127837 7.76487926,9.56352046 C8.05888751,9.70187729 8.27377466,9.8180325 8.65193053,10.0341216 C9.37530829,10.5430436 9.11820687,11.7 8,11.7 L4.9,11.7 L2,11.7 Z" id="Shape"></path>
                </g>
            </g>
        </g>
    </g>
</svg>