<?xml version="1.0" encoding="UTF-8" standalone="no"?>
<svg width="863px" height="468px" viewBox="0 0 863 468" version="1.1" xmlns="http://www.w3.org/2000/svg" xmlns:xlink="http://www.w3.org/1999/xlink" xmlns:sketch="http://www.bohemiancoding.com/sketch/ns">
    <!-- Generator: Sketch 3.1.1 (8761) - http://www.bohemiancoding.com/sketch -->
    <title>layout-0-all-stars</title>
    <desc>Created with Sketch.</desc>
    <defs></defs>
    <g id="Page-1" stroke="none" stroke-width="1" fill="none" fill-rule="evenodd" sketch:type="MSPage">
        <g id="main_top-copy" sketch:type="MSLayerGroup" transform="translate(-66.000000, -916.000000)">
            <g id="enter_hover" transform="translate(1.000000, 40.000000)" sketch:type="MSShapeGroup">
                <g id="layout-0-all-stars" transform="translate(66.000000, 876.000000)">
                    <g id="Group" transform="translate(250.000000, 173.000000)">
                        <path d="M15.7,7.8 C14.6,7.1 13.2,6.1 11.9,4.9 C10.6,3.6 9.5,2 8.8,1 C8.6,0.6 8.3,0.5 8.1,0.5 C7.9,0.5 7.6,0.7 7.4,1 C6.7,2.1 5.7,3.7 4.3,4.9 C3,6.1 1.5,7.2 0.5,7.8 C0.1,8.1 -0.1,8.3 -0.1,8.6 C-0.1,8.9 -5.68434189e-14,9.1 0.5,9.4 C1.6,10.1 3,11.1 4.3,12.3 C5.6,13.6 6.7,15.2 7.4,16.2 C7.6,16.6 7.9,16.7 8.1,16.7 C8.3,16.7 8.6,16.5 8.8,16.2 C9.5,15.1 10.5,13.5 11.9,12.3 C13.2,11.1 14.7,10 15.7,9.4 C16.1,9.1 16.3,8.9 16.3,8.6 C16.2,8.3 16.1,8 15.7,7.8 L15.7,7.8 Z" id="Shape" fill="#FFFFFF"></path>
                        <path d="M8.1,13.7 C7.5,12.8 6.6,11.8 5.7,10.9 C4.8,10 3.8,9.2 2.9,8.6 C3.8,8 4.8,7.2 5.7,6.3 C6.6,5.4 7.4,4.4 8.1,3.5 C8.7,4.4 9.6,5.4 10.5,6.3 C11.4,7.2 12.4,8 13.3,8.6 C12.4,9.2 11.4,10 10.5,10.9 C9.5,11.8 8.7,12.8 8.1,13.7 L8.1,13.7 Z" id="Shape" fill="#2C3236"></path>
                    </g>
                    <g id="Group" transform="translate(703.000000, 64.000000)">
                        <path d="M15.7,7.1 C14.6,6.4 13.2,5.4 11.9,4.2 C10.6,2.9 9.5,1.3 8.8,0.3 C8.6,-0.1 8.3,-0.2 8.1,-0.2 C7.9,-0.2 7.6,1.13686838e-13 7.4,0.3 C6.7,1.4 5.7,3 4.3,4.2 C3,5.4 1.5,6.5 0.5,7.1 C0.1,7.4 -0.1,7.6 -0.1,7.9 C-0.1,8.2 0,8.4 0.5,8.7 C1.6,9.4 3,10.4 4.3,11.6 C5.6,12.9 6.7,14.5 7.4,15.5 C7.6,15.9 7.9,16 8.1,16 C8.3,16 8.6,15.8 8.8,15.5 C9.5,14.4 10.5,12.8 11.9,11.6 C13.2,10.4 14.7,9.3 15.7,8.7 C16.1,8.4 16.3,8.2 16.3,7.9 C16.3,7.6 16.1,7.3 15.7,7.1 L15.7,7.1 Z" id="Shape" fill="#FFFFFF"></path>
                        <path d="M8.1,13 C7.5,12.1 6.6,11.1 5.7,10.2 C4.8,9.3 3.8,8.5 2.9,7.9 C3.8,7.3 4.8,6.5 5.7,5.6 C6.6,4.7 7.4,3.7 8.1,2.8 C8.7,3.7 9.6,4.7 10.5,5.6 C11.4,6.5 12.4,7.3 13.3,7.9 C12.4,8.5 11.4,9.3 10.5,10.2 C9.6,11.1 8.8,12.1 8.1,13 L8.1,13 Z" id="Shape" fill="#2C3236"></path>
                    </g>
                    <g id="Group" transform="translate(22.000000, 111.000000)">
                        <path d="M15.9,7.2 C14.8,6.5 13.4,5.5 12.1,4.3 C10.8,3 9.7,1.4 9,0.4 C8.8,-2.27373675e-13 8.5,-0.1 8.3,-0.1 C8.1,-0.1 7.8,0.1 7.6,0.4 C6.9,1.5 5.9,3.1 4.5,4.3 C3.2,5.5 1.7,6.6 0.7,7.2 C0.3,7.5 0.1,7.7 0.1,8 C0.1,8.3 0.2,8.5 0.7,8.8 C1.8,9.5 3.2,10.5 4.5,11.7 C5.8,13 6.9,14.6 7.6,15.6 C7.8,16 8.1,16.1 8.3,16.1 C8.5,16.1 8.8,15.9 9,15.6 C9.7,14.5 10.7,12.9 12.1,11.7 C13.4,10.5 14.9,9.4 15.9,8.8 C16.3,8.5 16.5,8.3 16.5,8 C16.4,7.7 16.3,7.4 15.9,7.2 L15.9,7.2 Z" id="Shape" fill="#FFFFFF"></path>
                        <path d="M8.3,13.1 C7.7,12.2 6.8,11.2 5.9,10.3 C5,9.4 4,8.6 3.1,8 C4,7.4 5,6.6 5.9,5.7 C6.8,4.8 7.6,3.8 8.3,2.9 C8.9,3.8 9.8,4.8 10.7,5.7 C11.6,6.6 12.6,7.4 13.5,8 C12.6,8.6 11.6,9.4 10.7,10.3 C9.7,11.2 8.9,12.2 8.3,13.1 L8.3,13.1 Z" id="Shape" fill="#2C3236"></path>
                    </g>
                    <g id="Group" transform="translate(268.000000, 158.000000)">
                        <path d="M9.3,4.8 C8.7,4.4 7.8,3.8 7,3 C6.2,2.2 5.6,1.3 5.2,0.6 C5.1,0.4 4.9,0.3 4.8,0.3 C4.7,0.3 4.5,0.4 4.4,0.6 C4,1.2 3.4,2.2 2.6,3 C1.8,3.8 0.9,4.4 0.3,4.8 C0,5 0,5.1 0,5.3 C0,5.5 0.1,5.6 0.3,5.8 C0.9,6.2 1.8,6.8 2.6,7.6 C3.4,8.4 4,9.3 4.4,10 C4.5,10.2 4.7,10.3 4.8,10.3 C4.9,10.3 5.1,10.2 5.2,10 C5.6,9.4 6.2,8.4 7,7.6 C7.8,6.8 8.7,6.2 9.3,5.8 C9.6,5.6 9.6,5.5 9.6,5.3 C9.6,5.2 9.5,5 9.3,4.8 L9.3,4.8 Z" id="Shape" fill="#FFFFFF"></path>
                        <path d="M4.7,8.4 C4.3,7.8 3.8,7.2 3.3,6.7 C2.8,6.2 2.1,5.7 1.6,5.3 C2.1,4.9 2.7,4.4 3.3,3.9 C3.9,3.4 4.3,2.7 4.7,2.2 C5.1,2.8 5.6,3.4 6.1,3.9 C6.7,4.4 7.3,4.9 7.8,5.3 C7.3,5.7 6.7,6.2 6.1,6.7 C5.6,7.2 5.1,7.9 4.7,8.4 L4.7,8.4 Z" id="Shape" fill="#2C3236"></path>
                    </g>
                    <g id="Group" transform="translate(0.000000, 101.000000)">
                        <path d="M9,4.3 C8.4,3.9 7.5,3.3 6.7,2.5 C5.9,1.7 5.3,0.8 4.9,0.1 C4.8,-0.1 4.6,-0.2 4.5,-0.2 C4.4,-0.2 4.2,-0.1 4.1,0.1 C3.7,0.7 3.1,1.7 2.3,2.5 C1.5,3.3 0.6,3.9 0,4.3 C-0.3,4.5 -0.3,4.6 -0.3,4.8 C-0.3,5 -0.2,5.1 0,5.3 C0.6,5.7 1.5,6.3 2.3,7.1 C3.1,7.9 3.7,8.8 4.1,9.5 C4.2,9.7 4.4,9.8 4.5,9.8 C4.6,9.8 4.8,9.7 4.9,9.5 C5.3,8.9 5.9,7.9 6.7,7.1 C7.5,6.3 8.4,5.7 9,5.3 C9.3,5.1 9.3,5 9.3,4.8 C9.3,4.6 9.2,4.4 9,4.3 L9,4.3 Z" id="Shape" fill="#FFFFFF"></path>
                        <path d="M4.4,7.8 C4,7.2 3.5,6.6 3,6.1 C2.5,5.6 1.8,5.1 1.3,4.7 C1.8,4.3 2.4,3.8 3,3.3 C3.6,2.8 4,2.1 4.4,1.6 C4.8,2.2 5.3,2.8 5.8,3.3 C6.4,3.8 7,4.3 7.5,4.7 C7,5.1 6.4,5.6 5.8,6.1 C5.3,6.7 4.8,7.3 4.4,7.8 L4.4,7.8 Z" id="Shape" fill="#2C3236"></path>
                    </g>
                    <g id="Group" transform="translate(190.000000, 437.000000)">
                        <path d="M0.4,8.4 C1.5,9.1 2.9,10.1 4.2,11.3 C5.5,12.6 6.6,14.2 7.3,15.2 C7.5,15.6 7.8,15.7 8,15.7 C8.2,15.7 8.5,15.5 8.7,15.2 C9.4,14.1 10.4,12.5 11.8,11.3 C13.1,10.1 14.6,9 15.6,8.4 C16,8.1 16.2,7.9 16.2,7.6 C16.2,7.3 16.1,7.1 15.6,6.8 C14.5,6.1 13.1,5.1 11.8,3.9 C10.5,2.6 9.4,1 8.7,0 C8.5,-0.4 8.2,-0.5 8,-0.5 C7.8,-0.5 7.5,-0.3 7.3,0 C6.6,1.1 5.6,2.7 4.2,3.9 C2.9,5.1 1.4,6.2 0.4,6.8 C-2.84217094e-14,7.1 -0.2,7.3 -0.2,7.6 C-0.2,7.9 0,8.1 0.4,8.4 L0.4,8.4 Z" id="Shape" fill="#FFFFFF"></path>
                        <path d="M8,2.5 C8.6,3.4 9.5,4.4 10.4,5.3 C11.3,6.2 12.3,7 13.2,7.6 C12.3,8.2 11.3,9 10.4,9.9 C9.5,10.8 8.7,11.8 8,12.7 C7.4,11.8 6.5,10.8 5.6,9.9 C4.7,9 3.7,8.2 2.8,7.6 C3.7,7 4.7,6.2 5.6,5.3 C6.5,4.4 7.3,3.4 8,2.5 L8,2.5 Z" id="Shape" fill="#2C3236"></path>
                    </g>
                    <g id="Group" transform="translate(320.000000, 253.000000)">
                        <path d="M0.6,9.2 C1.7,9.9 3.1,10.9 4.4,12.1 C5.7,13.4 6.8,15 7.5,16 C7.7,16.4 8,16.5 8.2,16.5 C8.4,16.5 8.7,16.3 8.9,16 C9.6,14.9 10.6,13.3 12,12.1 C13.3,10.9 14.8,9.8 15.8,9.2 C16.2,8.9 16.4,8.7 16.4,8.4 C16.4,8.1 16.3,7.9 15.8,7.6 C14.7,6.9 13.3,5.9 12,4.7 C10.7,3.4 9.6,1.8 8.9,0.8 C8.7,0.4 8.4,0.3 8.2,0.3 C8,0.3 7.7,0.5 7.5,0.8 C6.8,1.9 5.8,3.5 4.4,4.7 C3.1,5.9 1.6,7 0.6,7.6 C0.2,7.9 0,8.1 0,8.4 C0,8.7 0.2,8.9 0.6,9.2 L0.6,9.2 Z" id="Shape" fill="#FFFFFF"></path>
                        <path d="M8.2,3.3 C8.8,4.2 9.7,5.2 10.6,6.1 C11.5,7 12.5,7.8 13.4,8.4 C12.5,9 11.5,9.8 10.6,10.7 C9.7,11.6 8.9,12.6 8.2,13.5 C7.6,12.6 6.7,11.6 5.8,10.7 C4.9,9.8 3.9,9 3,8.4 C3.9,7.8 4.9,7 5.8,6.1 C6.7,5.2 7.6,4.2 8.2,3.3 L8.2,3.3 Z" id="Shape" fill="#2C3236"></path>
                    </g>
                    <g id="Group" transform="translate(178.000000, 458.000000)">
                        <path d="M0.8,5.3 C1.4,5.7 2.3,6.3 3.1,7.1 C3.9,7.9 4.5,8.8 4.9,9.5 C5,9.7 5.2,9.8 5.3,9.8 C5.4,9.8 5.6,9.7 5.7,9.5 C6.1,8.9 6.7,7.9 7.5,7.1 C8.3,6.3 9.2,5.7 9.8,5.3 C10.1,5.1 10.1,5 10.1,4.8 C10.1,4.6 10,4.5 9.8,4.3 C9.2,3.9 8.3,3.3 7.5,2.5 C6.7,1.7 6.1,0.8 5.7,0.1 C5.6,-0.1 5.4,-0.2 5.3,-0.2 C5.2,-0.2 5,-0.1 4.9,0.1 C4.5,0.7 3.9,1.7 3.1,2.5 C2.3,3.3 1.4,3.9 0.8,4.3 C0.5,4.5 0.5,4.6 0.5,4.8 C0.4,5 0.5,5.2 0.8,5.3 L0.8,5.3 Z" id="Shape" fill="#FFFFFF"></path>
                        <path d="M5.4,1.8 C5.8,2.4 6.3,3 6.8,3.5 C7.3,4 8,4.5 8.5,4.9 C8,5.3 7.4,5.8 6.8,6.3 C6.2,6.8 5.8,7.5 5.4,8 C5,7.4 4.5,6.8 4,6.3 C3.4,5.8 2.8,5.3 2.3,4.9 C2.8,4.5 3.4,4 4,3.5 C4.5,2.9 5,2.3 5.4,1.8 L5.4,1.8 Z" id="Shape" fill="#2C3236"></path>
                    </g>
                    <g id="Group" transform="translate(553.000000, 228.000000)">
                        <path d="M15.7,7 C14.6,6.3 13.2,5.3 11.9,4.1 C10.6,2.8 9.5,1.2 8.8,0.1 C8.6,-0.3 8.3,-0.4 8.1,-0.4 C7.9,-0.4 7.6,-0.2 7.4,0.1 C6.7,1.2 5.7,2.8 4.3,4.1 C3,5.3 1.5,6.4 0.5,7 C0.1,7.2 -0.1,7.5 -0.1,7.8 C-0.1,8.1 0,8.3 0.5,8.6 C1.6,9.3 3,10.3 4.3,11.5 C5.6,12.8 6.7,14.4 7.4,15.4 C7.6,15.8 7.9,15.9 8.1,15.9 C8.3,15.9 8.6,15.7 8.8,15.4 C9.5,14.3 10.5,12.7 11.9,11.5 C13.2,10.3 14.7,9.2 15.7,8.6 C16.1,8.3 16.3,8.1 16.3,7.8 C16.3,7.6 16.2,7.3 15.7,7 L15.7,7 Z" id="Shape" fill="#FFFFFF"></path>
                        <path d="M8.2,13 C7.6,12.1 6.7,11.1 5.8,10.2 C4.9,9.3 3.9,8.5 3,7.9 C3.9,7.3 4.9,6.5 5.8,5.6 C6.7,4.7 7.5,3.7 8.2,2.8 C8.8,3.7 9.7,4.7 10.6,5.6 C11.5,6.5 12.5,7.3 13.4,7.9 C12.5,8.5 11.5,9.3 10.6,10.2 C9.6,11 8.8,12 8.2,13 L8.2,13 Z" id="Shape" fill="#2C3236"></path>
                    </g>
                    <g id="Group" transform="translate(571.000000, 213.000000)">
                        <path d="M9.4,4.1 C8.8,3.7 7.9,3.1 7.1,2.3 C6.3,1.5 5.7,0.6 5.3,-0.1 C5.2,-0.3 5,-0.4 4.9,-0.4 C4.8,-0.4 4.6,-0.3 4.5,-0.1 C4.1,0.5 3.5,1.5 2.7,2.3 C1.9,3.1 1,3.7 0.4,4.1 C0.1,4.3 0.1,4.4 0.1,4.6 C0.1,4.8 0.2,4.9 0.4,5.1 C1,5.5 1.9,6.1 2.7,6.9 C3.5,7.7 4.1,8.6 4.5,9.3 C4.6,9.5 4.8,9.6 4.9,9.6 C5,9.6 5.2,9.5 5.3,9.3 C5.7,8.7 6.3,7.7 7.1,6.9 C7.9,6.1 8.8,5.5 9.4,5.1 C9.7,4.9 9.7,4.8 9.7,4.6 C9.7,4.4 9.6,4.2 9.4,4.1 L9.4,4.1 Z" id="Shape" fill="#FFFFFF"></path>
                        <path d="M4.8,7.7 C4.4,7.1 3.9,6.5 3.4,6 C2.9,5.5 2.2,5 1.7,4.6 C2.2,4.2 2.8,3.7 3.4,3.2 C4,2.7 4.4,2 4.8,1.5 C5.2,2.1 5.7,2.7 6.2,3.2 C6.7,3.7 7.4,4.2 7.9,4.6 C7.4,5 6.8,5.5 6.2,6 C5.7,6.5 5.2,7.1 4.8,7.7 L4.8,7.7 Z" id="Shape" fill="#2C3236"></path>
                    </g>
                    <g id="Group" transform="translate(852.000000, 118.000000)">
                        <path d="M9,4 C8.4,3.6 7.5,3 6.7,2.2 C5.9,1.4 5.3,0.5 4.9,-0.2 C4.8,-0.4 4.6,-0.5 4.5,-0.5 C4.4,-0.5 4.2,-0.4 4.1,-0.2 C3.7,0.4 3.1,1.4 2.3,2.2 C1.5,3 0.6,3.6 2.27373675e-13,4 C-0.3,4.2 -0.3,4.3 -0.3,4.5 C-0.3,4.7 -0.2,4.8 2.27373675e-13,5 C0.6,5.4 1.5,6 2.3,6.8 C3.1,7.6 3.7,8.5 4.1,9.2 C4.2,9.4 4.4,9.5 4.5,9.5 C4.6,9.5 4.8,9.4 4.9,9.2 C5.3,8.6 5.9,7.6 6.7,6.8 C7.5,6 8.4,5.4 9,5 C9.3,4.8 9.3,4.7 9.3,4.5 C9.3,4.3 9.2,4.2 9,4 L9,4 Z" id="Shape" fill="#FFFFFF"></path>
                        <path d="M4.4,7.6 C4,7 3.5,6.4 3,5.9 C2.5,5.4 1.8,4.9 1.3,4.5 C1.8,4.1 2.4,3.6 3,3.1 C3.6,2.6 4,1.9 4.4,1.4 C4.8,2 5.3,2.6 5.8,3.1 C6.3,3.6 7,4.1 7.5,4.5 C7,4.9 6.4,5.4 5.8,5.9 C5.3,6.4 4.8,7 4.4,7.6 L4.4,7.6 Z" id="Shape" fill="#2C3236"></path>
                    </g>
                    <g id="Group" transform="translate(403.000000, 426.000000)">
                        <path d="M0.1,5.4 C0.7,5.8 1.6,6.4 2.4,7.2 C3.2,8 3.8,8.9 4.2,9.6 C4.3,9.8 4.5,9.9 4.6,9.9 C4.7,9.9 4.9,9.8 5,9.6 C5.4,9 6,8 6.8,7.2 C7.6,6.4 8.5,5.8 9.1,5.4 C9.4,5.2 9.4,5.1 9.4,4.9 C9.4,4.7 9.3,4.6 9.1,4.4 C8.5,4 7.6,3.4 6.8,2.6 C6,1.8 5.4,0.9 5,0.2 C4.9,0 4.7,-0.1 4.6,-0.1 C4.5,-0.1 4.3,0 4.2,0.2 C3.8,0.8 3.2,1.8 2.4,2.6 C1.6,3.4 0.7,4 0.1,4.4 C-0.2,4.6 -0.2,4.7 -0.2,4.9 C-0.3,5.1 -0.2,5.2 0.1,5.4 L0.1,5.4 Z" id="Shape" fill="#FFFFFF"></path>
                        <path d="M4.7,1.8 C5.1,2.4 5.6,3 6.1,3.5 C6.6,4 7.3,4.5 7.8,4.9 C7.3,5.3 6.7,5.8 6.1,6.3 C5.5,6.8 5.1,7.5 4.7,8 C4.3,7.4 3.8,6.8 3.3,6.3 C2.7,5.8 2.1,5.3 1.6,4.9 C2.1,4.5 2.7,4 3.3,3.5 C3.8,3 4.3,2.4 4.7,1.8 L4.7,1.8 Z" id="Shape" fill="#2C3236"></path>
                    </g>
                    <g id="Group" transform="translate(759.000000, 281.000000)">
                        <path d="M0.2,5.2 C0.8,5.6 1.7,6.2 2.5,7 C3.3,7.8 3.9,8.7 4.3,9.4 C4.4,9.6 4.6,9.7 4.7,9.7 C4.8,9.7 5,9.6 5.1,9.4 C5.5,8.8 6.1,7.8 6.9,7 C7.7,6.2 8.6,5.6 9.2,5.2 C9.5,5 9.5,4.9 9.5,4.7 C9.5,4.5 9.4,4.4 9.2,4.2 C8.6,3.8 7.7,3.2 6.9,2.4 C6.1,1.6 5.5,0.7 5.1,0 C5,-0.2 4.8,-0.3 4.7,-0.3 C4.6,-0.3 4.4,-0.2 4.3,0 C3.9,0.6 3.3,1.6 2.5,2.4 C1.7,3.2 0.8,3.8 0.2,4.2 C-0.1,4.4 -0.1,4.5 -0.1,4.7 C-0.1,4.9 -0.1,5.1 0.2,5.2 L0.2,5.2 Z" id="Shape" fill="#FFFFFF"></path>
                        <path d="M4.8,1.6 C5.2,2.2 5.7,2.8 6.2,3.3 C6.7,3.8 7.4,4.3 7.9,4.7 C7.4,5.1 6.8,5.6 6.2,6.1 C5.6,6.6 5.2,7.3 4.8,7.8 C4.4,7.2 3.9,6.6 3.4,6.1 C2.9,5.6 2.2,5.1 1.7,4.7 C2.2,4.3 2.8,3.8 3.4,3.3 C3.9,2.8 4.4,2.2 4.8,1.6 L4.8,1.6 Z" id="Shape" fill="#2C3236"></path>
                    </g>
                    <g id="Group" transform="translate(685.000000, 46.000000)">
                        <path d="M0.6,5.9 C1.2,6.3 2.1,6.9 2.9,7.7 C3.7,8.5 4.3,9.4 4.7,10.1 C4.8,10.3 5,10.4 5.1,10.4 C5.2,10.4 5.4,10.3 5.5,10.1 C5.9,9.5 6.5,8.5 7.3,7.7 C8.1,6.9 9,6.3 9.6,5.9 C9.9,5.7 9.9,5.6 9.9,5.4 C9.9,5.2 9.8,5.1 9.6,4.9 C9,4.5 8.1,3.9 7.3,3.1 C6.5,2.3 5.9,1.4 5.5,0.7 C5.4,0.5 5.2,0.4 5.1,0.4 C5,0.4 4.8,0.5 4.7,0.7 C4.3,1.3 3.7,2.3 2.9,3.1 C2.1,3.9 1.2,4.5 0.6,4.9 C0.3,5.1 0.3,5.2 0.3,5.4 C0.2,5.6 0.3,5.7 0.6,5.9 L0.6,5.9 Z" id="Shape" fill="#FFFFFF"></path>
                        <path d="M5.1,2.3 C5.5,2.9 6,3.5 6.5,4 C7,4.5 7.7,5 8.2,5.4 C7.7,5.8 7.1,6.3 6.5,6.8 C5.9,7.3 5.5,8 5.1,8.5 C4.7,7.9 4.2,7.3 3.7,6.8 C3.2,6.3 2.5,5.8 2,5.4 C2.5,5 3.1,4.5 3.7,4 C4.3,3.5 4.7,2.9 5.1,2.3 L5.1,2.3 Z" id="Shape" fill="#2C3236"></path>
                    </g>
                    <g id="Group" transform="translate(127.000000, 221.000000)">
                        <path d="M9.1,4.9 C8.5,4.5 7.6,3.9 6.8,3.1 C6,2.3 5.4,1.4 5,0.7 C4.9,0.5 4.7,0.4 4.6,0.4 C4.5,0.4 4.3,0.5 4.2,0.7 C3.8,1.3 3.2,2.3 2.4,3.1 C1.6,3.9 0.7,4.5 0.1,4.9 C-0.2,5.1 -0.2,5.2 -0.2,5.4 C-0.2,5.6 -0.1,5.7 0.1,5.9 C0.7,6.3 1.6,6.9 2.4,7.7 C3.2,8.5 3.8,9.4 4.2,10.1 C4.3,10.3 4.5,10.4 4.6,10.4 C4.7,10.4 4.9,10.3 5,10.1 C5.4,9.5 6,8.5 6.8,7.7 C7.6,6.9 8.5,6.3 9.1,5.9 C9.4,5.7 9.4,5.6 9.4,5.4 C9.5,5.2 9.4,5.1 9.1,4.9 L9.1,4.9 Z" id="Shape" fill="#FFFFFF"></path>
                        <path d="M4.6,8.5 C4.2,7.9 3.7,7.3 3.2,6.8 C2.7,6.3 2,5.8 1.5,5.4 C2,5 2.6,4.5 3.2,4 C3.8,3.5 4.2,2.8 4.6,2.3 C5,2.9 5.5,3.5 6,4 C6.6,4.5 7.2,5 7.7,5.4 C7.2,5.8 6.6,6.3 6,6.8 C5.4,7.3 5,7.9 4.6,8.5 L4.6,8.5 Z" id="Shape" fill="#2C3236"></path>
                    </g>
                    <g id="Group" transform="translate(284.000000, 0.000000)">
                        <path d="M8.8,4.5 C8.2,4.1 7.3,3.5 6.5,2.7 C5.7,1.9 5.1,1 4.7,0.3 C4.6,0.1 4.4,1.13686838e-13 4.3,1.13686838e-13 C4.2,1.13686838e-13 4,0.1 3.9,0.3 C3.5,0.9 2.9,1.9 2.1,2.7 C1.3,3.5 0.4,4.1 -0.2,4.5 C-0.5,4.7 -0.5,4.8 -0.5,5 C-0.5,5.2 -0.4,5.3 -0.2,5.5 C0.4,5.9 1.3,6.5 2.1,7.3 C2.9,8.1 3.5,9 3.9,9.7 C4,9.9 4.2,10 4.3,10 C4.4,10 4.6,9.9 4.7,9.7 C5.1,9.1 5.7,8.1 6.5,7.3 C7.3,6.5 8.2,5.9 8.8,5.5 C9.1,5.3 9.1,5.2 9.1,5 C9.2,4.8 9.1,4.7 8.8,4.5 L8.8,4.5 Z" id="Shape" fill="#FFFFFF"></path>
                        <path d="M4.3,8.1 C3.9,7.5 3.4,6.9 2.9,6.4 C2.4,5.9 1.7,5.4 1.2,5 C1.7,4.6 2.3,4.1 2.9,3.6 C3.5,3.1 3.9,2.4 4.3,1.9 C4.7,2.5 5.2,3.1 5.7,3.6 C6.3,4.1 6.9,4.6 7.4,5 C6.9,5.4 6.3,5.9 5.7,6.4 C5.1,6.9 4.7,7.5 4.3,8.1 L4.3,8.1 Z" id="Shape" fill="#2C3236"></path>
                    </g>
                </g>
            </g>
        </g>
    </g>
</svg>