<?xml version="1.0" encoding="UTF-8" standalone="no"?>
<svg width="221px" height="94px" viewBox="0 0 221 94" version="1.1" xmlns="http://www.w3.org/2000/svg" xmlns:xlink="http://www.w3.org/1999/xlink" xmlns:sketch="http://www.bohemiancoding.com/sketch/ns">
    <!-- Generator: Sketch 3.1.1 (8761) - http://www.bohemiancoding.com/sketch -->
    <title>layout-0-path-1</title>
    <desc>Created with Sketch.</desc>
    <defs></defs>
    <g id="Page-1" stroke="none" stroke-width="1" fill="none" fill-rule="evenodd" sketch:type="MSPage">
        <g id="main_top-copy" sketch:type="MSLayerGroup" transform="translate(-433.000000, -946.000000)" fill="#FFFFFF">
            <g id="enter_hover" transform="translate(1.000000, 40.000000)" sketch:type="MSShapeGroup">
                <g id="layout-0-path-1" transform="translate(432.000000, 907.000000)">
                    <g id="Group" transform="translate(25.000000, 0.000000)">
                        <path d="M4,82.2 C4.1,83.2 3.2,84.1 2.1,84.2 C1,84.2 0.2,83.3 0.2,82.3 C0.3,81.3 1.1,80.4 2.1,80.5 C3.1,80.3 4,81.1 4,82.2 L4,82.2 Z" id="Shape"></path>
                        <path d="M11.4,81 C11.7,82 11,83.1 10,83.3 C8.9,83.5 7.9,82.9 7.8,81.8 C7.6,80.8 8.3,79.8 9.3,79.6 C10.2,79.4 11.2,80 11.4,81 L11.4,81 Z" id="Shape"></path>
                        <path d="M18.5,78.4 C19,79.4 18.5,80.5 17.5,80.9 C16.5,81.3 15.4,80.8 15,79.8 C14.7,78.8 15.1,77.8 16,77.4 C16.9,77.1 18,77.5 18.5,78.4 L18.5,78.4 Z" id="Shape"></path>
                        <path d="M25,74.7 C25.6,75.6 25.3,76.7 24.4,77.3 C23.5,77.9 22.3,77.5 21.8,76.6 C21.3,75.7 21.6,74.6 22.4,74 C23.3,73.6 24.4,73.9 25,74.7 L25,74.7 Z" id="Shape"></path>
                        <path d="M31,70.2 C31.7,71 31.6,72.2 30.7,72.9 C29.9,73.6 28.7,73.4 28,72.6 C27.4,71.8 27.5,70.6 28.3,70 C29.2,69.3 30.3,69.4 31,70.2 L31,70.2 Z" id="Shape"></path>
                        <path d="M36.6,65.2 C37.3,65.9 37.3,67.1 36.5,67.9 C35.7,68.6 34.5,68.6 33.8,67.8 C33.1,67 33.2,65.9 33.9,65.2 C34.7,64.4 35.8,64.4 36.6,65.2 L36.6,65.2 Z" id="Shape"></path>
                        <path d="M41.8,59.7 C42.6,60.4 42.6,61.6 41.9,62.4 C41.2,63.2 40,63.2 39.2,62.5 C38.5,61.8 38.4,60.6 39.1,59.8 C39.8,59.1 41,59 41.8,59.7 L41.8,59.7 Z" id="Shape"></path>
                        <path d="M46.8,54.1 C47.6,54.8 47.7,56 47,56.8 C46.3,57.6 45.1,57.7 44.3,57 C43.5,56.3 43.4,55.1 44.1,54.4 C44.8,53.5 46,53.4 46.8,54.1 L46.8,54.1 Z" id="Shape"></path>
                        <path d="M51.6,48.4 C52.4,49.1 52.5,50.3 51.9,51.1 C51.2,51.9 50,52 49.2,51.3 C48.4,50.6 48.3,49.4 49,48.7 C49.6,47.8 50.8,47.7 51.6,48.4 L51.6,48.4 Z" id="Shape"></path>
                        <circle id="Oval" transform="translate(54.901490, 44.098230) rotate(-50.734379) translate(-54.901490, -44.098230) " cx="54.90149" cy="44.09823" r="1.89995065"></circle>
                        <path d="M61.1,36.7 C61.9,37.4 62,38.6 61.4,39.3 C60.7,40.1 59.6,40.2 58.8,39.5 C58,38.8 57.9,37.7 58.5,36.8 C59.1,36.2 60.3,36.1 61.1,36.7 L61.1,36.7 Z" id="Shape"></path>
                        <path d="M66,31 C66.8,31.7 66.9,32.9 66.2,33.7 C65.5,34.5 64.3,34.6 63.5,33.9 C62.7,33.2 62.6,32 63.3,31.2 C64,30.4 65.2,30.3 66,31 L66,31 Z" id="Shape"></path>
                        <path d="M71,25.4 C71.8,26.1 71.8,27.3 71.1,28.1 C70.4,28.9 69.2,28.9 68.4,28.2 C67.6,27.5 67.6,26.3 68.3,25.5 C69.1,24.8 70.3,24.7 71,25.4 L71,25.4 Z" id="Shape"></path>
                        <path d="M76.3,20.1 C77,20.9 77,22 76.3,22.7 C75.6,23.4 74.4,23.4 73.7,22.7 C73,22 72.9,20.8 73.7,20 C74.4,19.3 75.6,19.3 76.3,20.1 L76.3,20.1 Z" id="Shape"></path>
                        <path d="M81.9,15.1 C82.6,15.9 82.5,17.1 81.7,17.7 C80.9,18.4 79.7,18.3 79.1,17.5 C78.4,16.7 78.5,15.5 79.3,14.8 C80.1,14.2 81.3,14.3 81.9,15.1 L81.9,15.1 Z" id="Shape"></path>
                        <path d="M87.9,10.6 C88.5,11.5 88.3,12.6 87.4,13.2 C86.6,13.8 85.4,13.6 84.8,12.8 C84.2,12 84.4,10.8 85.2,10.1 C86.2,9.5 87.4,9.7 87.9,10.6 L87.9,10.6 Z" id="Shape"></path>
                        <path d="M94.4,6.8 C94.9,7.7 94.5,8.9 93.7,9.3 C92.8,9.8 91.7,9.5 91.2,8.6 C90.7,7.7 91,6.5 91.9,6 C92.8,5.5 93.9,5.8 94.4,6.8 L94.4,6.8 Z" id="Shape"></path>
                        <path d="M101.3,3.9 C101.6,4.9 101.1,6 100.2,6.3 C99.3,6.7 98.2,6.2 97.8,5.2 C97.4,4.2 97.9,3.1 98.9,2.7 C99.9,2.4 101,2.9 101.3,3.9 L101.3,3.9 Z" id="Shape"></path>
                        <path d="M108.6,2.1 C108.7,2.6 108.6,3.1 108.3,3.5 C108,3.9 107.6,4.2 107.1,4.3 C106.1,4.5 105.1,3.8 104.9,2.8 C104.6,1.8 105.3,0.8 106.4,0.6 C106.9,0.5 107.4,0.6 107.8,0.9 C108.3,1.1 108.5,1.6 108.6,2.1 L108.6,2.1 Z" id="Shape"></path>
                        <path d="M116.1,1.5 C116.1,2.5 115.3,3.4 114.3,3.4 C113.3,3.5 112.4,2.7 112.4,1.6 C112.3,0.6 113.1,-0.3 114.2,-0.4 C115.2,-0.4 116.1,0.5 116.1,1.5 L116.1,1.5 Z" id="Shape"></path>
                        <path d="M123.6,2.1 C123.4,3.1 122.5,3.9 121.5,3.7 C120.5,3.5 119.8,2.7 119.8,1.6 C119.9,0.6 120.8,-0.2 121.9,-0.1 C123,0.1 123.7,1.1 123.6,2.1 L123.6,2.1 Z" id="Shape"></path>
                        <path d="M130.9,3.7 C130.6,4.7 129.6,5.3 128.6,5.1 C127.6,4.8 127,3.8 127.2,2.8 C127.4,1.8 128.4,1.2 129.5,1.4 C130.6,1.6 131.2,2.7 130.9,3.7 L130.9,3.7 Z" id="Shape"></path>
                        <path d="M138,6.1 C137.6,7.1 136.5,7.6 135.6,7.2 C134.7,6.8 134.2,5.8 134.5,4.8 C134.8,3.8 135.9,3.3 136.9,3.7 C137.9,4.1 138.4,5.2 138,6.1 L138,6.1 Z" id="Shape"></path>
                        <path d="M144.9,9.2 C144.4,10.1 143.3,10.5 142.4,10.1 C141.5,9.6 141.1,8.6 141.5,7.6 C141.9,6.7 143.1,6.2 144,6.7 C144.9,7.2 145.3,8.3 144.9,9.2 L144.9,9.2 Z" id="Shape"></path>
                        <path d="M151.5,12.8 C151,13.7 149.8,14 148.9,13.5 C148,13 147.7,11.9 148.2,11 C148.7,10.1 149.9,9.8 150.8,10.3 C151.7,10.8 152,12 151.5,12.8 L151.5,12.8 Z" id="Shape"></path>
                        <path d="M157.8,16.9 C157.2,17.8 156.1,18 155.2,17.4 C154.3,16.8 154.1,15.7 154.7,14.8 C155.3,13.9 156.4,13.7 157.3,14.3 C158.1,14.8 158.4,16 157.8,16.9 L157.8,16.9 Z" id="Shape"></path>
                        <path d="M163.9,21.2 C163.3,22 162.1,22.2 161.3,21.6 C160.5,21 160.3,19.8 160.9,19 C161.5,18.1 162.7,18 163.5,18.6 C164.4,19.2 164.6,20.4 163.9,21.2 L163.9,21.2 Z" id="Shape"></path>
                        <path d="M169.9,25.8 C169.2,26.6 168.1,26.7 167.3,26.1 C166.5,25.5 166.3,24.3 167,23.5 C167.6,22.7 168.8,22.5 169.7,23.2 C170.4,23.8 170.5,25 169.9,25.8 L169.9,25.8 Z" id="Shape"></path>
                    </g>
                    <path d="M13.4,82.8 L20.1,76.1 C20.9,75.3 20.9,74.1 20.1,73.3 C19.3,72.5 18.1,72.5 17.3,73.3 L10.6,80 L3.9,73.3 C3.1,72.5 1.9,72.5 1.1,73.3 C0.3,74.1 0.3,75.3 1.1,76.1 L7.8,82.8 L1.1,89.5 C0.3,90.3 0.3,91.5 1.1,92.3 C1.5,92.7 2,92.9 2.5,92.9 C3,92.9 3.5,92.7 3.9,92.3 L10.6,85.6 L17.3,92.3 C17.7,92.7 18.2,92.9 18.7,92.9 C19.2,92.9 19.7,92.7 20.1,92.3 C20.9,91.5 20.9,90.3 20.1,89.5 L13.4,82.8 L13.4,82.8 Z" id="Shape"></path>
                    <path d="M213.7,41.3 L220.4,34.6 C221.2,33.8 221.2,32.6 220.4,31.8 C219.6,31 218.4,31 217.6,31.8 L210.9,38.5 L204.2,31.8 C203.4,31 202.2,31 201.4,31.8 C200.6,32.6 200.6,33.8 201.4,34.6 L208.1,41.3 L201.4,48 C200.6,48.8 200.6,50 201.4,50.8 C201.8,51.2 202.3,51.4 202.8,51.4 C203.3,51.4 203.8,51.2 204.2,50.8 L210.9,44.1 L217.6,50.8 C218,51.2 218.5,51.4 219,51.4 C219.5,51.4 220,51.2 220.4,50.8 C221.2,50 221.2,48.8 220.4,48 L213.7,41.3 L213.7,41.3 Z" id="Shape"></path>
                </g>
            </g>
        </g>
    </g>
</svg>