<?xml version="1.0" encoding="UTF-8" standalone="no"?>
<svg width="101px" height="172px" viewBox="0 0 101 172" version="1.1" xmlns="http://www.w3.org/2000/svg" xmlns:xlink="http://www.w3.org/1999/xlink" xmlns:sketch="http://www.bohemiancoding.com/sketch/ns">
    <!-- Generator: Sketch 3.1.1 (8761) - http://www.bohemiancoding.com/sketch -->
    <title>layout-0-path-first</title>
    <desc>Created with Sketch.</desc>
    <defs></defs>
    <g id="Page-1" stroke="none" stroke-width="1" fill="none" fill-rule="evenodd" sketch:type="MSPage">
        <g id="main_top-copy" sketch:type="MSLayerGroup" transform="translate(-127.000000, -764.000000)" fill="#FFFFFF">
            <g id="enter_hover" transform="translate(1.000000, 40.000000)" sketch:type="MSShapeGroup">
                <g id="layout-0-path-first" transform="translate(126.000000, 724.000000)">
                    <g id="Group">
                        <path d="M92.2,144.7 C93.2,144.9 93.8,146 93.5,147 C93.2,148 92.2,148.6 91.2,148.3 C90.2,148 89.6,147 89.9,146 C90.2,145.1 91.2,144.5 92.2,144.7 L92.2,144.7 Z" id="Shape"></path>
                        <path d="M93.5,137.3 C94.5,137.4 95.3,138.4 95.1,139.4 C94.9,140.5 94,141.2 92.9,141 C91.9,140.8 91.2,139.9 91.3,138.9 C91.6,137.9 92.4,137.2 93.5,137.3 L93.5,137.3 Z" id="Shape"></path>
                        <path d="M93.8,129.8 C94.8,129.8 95.7,130.6 95.7,131.7 C95.7,132.8 94.8,133.6 93.8,133.6 C92.8,133.6 92,132.7 92,131.7 C91.9,130.7 92.7,129.8 93.8,129.8 L93.8,129.8 Z" id="Shape"></path>
                        <path d="M92.9,122.3 C93.9,122.1 95,122.8 95.1,123.9 C95.3,125 94.5,125.9 93.5,126.1 C92.5,126.2 91.5,125.5 91.4,124.5 C91.3,123.5 91.9,122.5 92.9,122.3 L92.9,122.3 Z" id="Shape"></path>
                        <path d="M90.9,115.1 C91.9,114.7 92.9,115.3 93.3,116.3 C93.7,117.3 93,118.4 92.1,118.7 C91.1,119 90.1,118.4 89.8,117.5 C89.4,116.5 89.9,115.4 90.9,115.1 L90.9,115.1 Z" id="Shape"></path>
                        <path d="M87.8,108.2 C88.7,107.7 89.9,108.1 90.4,109 C90.9,110 90.5,111.1 89.5,111.5 C88.5,111.9 87.4,111.5 87,110.6 C86.5,109.8 86.8,108.7 87.8,108.2 L87.8,108.2 Z" id="Shape"></path>
                        <path d="M83.8,101.8 C84.6,101.2 85.9,101.4 86.4,102.3 C87,103.2 86.8,104.4 85.9,104.9 C85,105.4 83.8,105.2 83.3,104.4 C82.7,103.6 82.9,102.4 83.8,101.8 L83.8,101.8 Z" id="Shape"></path>
                        <path d="M79.1,95.9 C79.9,95.2 81.1,95.3 81.8,96.1 C82.5,96.9 82.3,98.1 81.5,98.8 C80.7,99.4 79.5,99.3 78.9,98.5 C78.2,97.7 78.4,96.5 79.1,95.9 L79.1,95.9 Z" id="Shape"></path>
                        <path d="M74,90.3 C74.7,89.6 76,89.6 76.7,90.3 C77.4,91.1 77.4,92.3 76.6,93 C75.8,93.7 74.6,93.7 73.9,92.9 C73.3,92.2 73.3,91.1 74,90.3 L74,90.3 Z" id="Shape"></path>
                        <path d="M68.6,85.1 C69.3,84.3 70.5,84.3 71.3,85 C72.1,85.7 72.1,86.9 71.4,87.7 C70.7,88.5 69.5,88.5 68.7,87.8 C67.9,87.1 67.9,85.9 68.6,85.1 L68.6,85.1 Z" id="Shape"></path>
                        <path d="M62.9,80.2 C63.6,79.4 64.8,79.3 65.6,80 C66.4,80.7 66.5,81.9 65.8,82.7 C65.1,83.5 63.9,83.6 63.1,82.9 C62.3,82.2 62.2,81 62.9,80.2 L62.9,80.2 Z" id="Shape"></path>
                        <path d="M57,75.5 C57.6,74.7 58.8,74.5 59.7,75.2 C60.5,75.9 60.6,77 60,77.9 C59.3,78.7 58.2,78.8 57.4,78.2 C56.5,77.5 56.4,76.3 57,75.5 L57,75.5 Z" id="Shape"></path>
                        <path d="M51.1,70.8 C51.7,70 52.9,69.8 53.7,70.5 C54.5,71.1 54.7,72.3 54,73.1 C53.4,73.9 52.2,74.1 51.4,73.4 C50.6,72.8 50.4,71.7 51.1,70.8 L51.1,70.8 Z" id="Shape"></path>
                        <circle id="Oval" cx="46.9" cy="67.9" r="1.9"></circle>
                        <path d="M39.1,61.6 C39.7,60.8 40.9,60.6 41.7,61.3 C42.5,61.9 42.7,63.1 42,63.9 C41.4,64.7 40.2,64.9 39.4,64.2 C38.6,63.6 38.5,62.5 39.1,61.6 L39.1,61.6 Z" id="Shape"></path>
                        <path d="M33.2,56.9 C33.9,56.1 35,56 35.8,56.6 C36.6,57.2 36.7,58.4 36.1,59.2 C35.5,60 34.3,60.1 33.4,59.5 C32.7,58.9 32.6,57.7 33.2,56.9 L33.2,56.9 Z" id="Shape"></path>
                        <path d="M27.5,52.1 C28.2,51.3 29.4,51.2 30.1,51.9 C30.9,52.6 31,53.8 30.3,54.5 C29.6,55.3 28.4,55.4 27.6,54.7 C26.9,54.1 26.8,52.9 27.5,52.1 L27.5,52.1 Z" id="Shape"></path>
                        <path d="M21.9,47 C22.6,46.3 23.8,46.2 24.6,46.9 C25.3,47.6 25.4,48.8 24.7,49.6 C24,50.4 22.8,50.4 22,49.7 C21.2,48.9 21.2,47.7 21.9,47 L21.9,47 Z" id="Shape"></path>
                        <path d="M16.7,41.5 C17.5,40.8 18.7,40.9 19.3,41.6 C20,42.3 20,43.5 19.2,44.2 C18.5,44.9 17.3,44.9 16.5,44.1 C15.9,43.4 15.9,42.2 16.7,41.5 L16.7,41.5 Z" id="Shape"></path>
                        <path d="M11.9,35.7 C12.7,35.1 13.9,35.3 14.5,36 C15.1,36.8 15,38 14.2,38.6 C13.4,39.3 12.2,39.1 11.5,38.3 C10.9,37.5 11.1,36.3 11.9,35.7 L11.9,35.7 Z" id="Shape"></path>
                        <path d="M7.8,29.4 C8.7,28.9 9.9,29.2 10.4,30.1 C10.9,31 10.7,32.1 9.8,32.7 C8.9,33.3 7.7,33 7.2,32.1 C6.6,31 6.9,29.9 7.8,29.4 L7.8,29.4 Z" id="Shape"></path>
                        <path d="M4.7,22.5 C5.7,22.1 6.8,22.6 7.1,23.5 C7.5,24.4 7.1,25.5 6.1,25.9 C5.2,26.3 4,25.9 3.6,24.9 C3.2,24 3.7,22.9 4.7,22.5 L4.7,22.5 Z" id="Shape"></path>
                        <path d="M2.7,15.3 C3.7,15.1 4.7,15.8 4.9,16.7 C5.1,17.7 4.5,18.7 3.5,18.9 C2.5,19.2 1.5,18.6 1.2,17.5 C1,16.5 1.7,15.4 2.7,15.3 L2.7,15.3 Z" id="Shape"></path>
                        <path d="M2,7.8 C3,7.8 3.9,8.6 3.9,9.6 C4,10.6 3.1,11.5 2.1,11.6 C1,11.7 0.2,10.9 0.1,9.8 C0.1,8.7 1,7.8 2,7.8 L2,7.8 Z" id="Shape"></path>
                        <path d="M2.6,0.3 C3.6,0.5 4.4,1.4 4.2,2.4 C4.1,3.4 3.2,4.1 2.1,4.1 C1.1,4 0.2,3.1 0.4,2 C0.6,0.8 1.6,0.1 2.6,0.3 L2.6,0.3 Z" id="Shape"></path>
                    </g>
                    <path d="M93.6,161.2 L100.3,154.5 C101.1,153.7 101.1,152.5 100.3,151.7 C99.5,150.9 98.3,150.9 97.5,151.7 L90.8,158.4 L84.1,151.7 C83.3,150.9 82.1,150.9 81.3,151.7 C80.5,152.5 80.5,153.7 81.3,154.5 L88,161.2 L81.3,167.9 C80.5,168.7 80.5,169.9 81.3,170.7 C81.7,171.1 82.2,171.3 82.7,171.3 C83.2,171.3 83.7,171.1 84.1,170.7 L90.8,164 L97.5,170.7 C97.9,171.1 98.4,171.3 98.9,171.3 C99.4,171.3 99.9,171.1 100.3,170.7 C101.1,169.9 101.1,168.7 100.3,167.9 L93.6,161.2 L93.6,161.2 Z" id="Shape"></path>
                </g>
            </g>
        </g>
    </g>
</svg>