<?xml version="1.0" encoding="UTF-8" standalone="no"?>
<svg width="184px" height="163px" viewBox="0 0 184 163" version="1.1" xmlns="http://www.w3.org/2000/svg" xmlns:xlink="http://www.w3.org/1999/xlink" xmlns:sketch="http://www.bohemiancoding.com/sketch/ns">
    <!-- Generator: Sketch 3.1.1 (8761) - http://www.bohemiancoding.com/sketch -->
    <title>layout-0-path-last</title>
    <desc>Created with Sketch.</desc>
    <defs></defs>
    <g id="Page-1" stroke="none" stroke-width="1" fill="none" fill-rule="evenodd" sketch:type="MSPage">
        <g id="main_top-copy" sketch:type="MSLayerGroup" transform="translate(-100.000000, -1294.000000)" fill="#FFFFFF">
            <g id="enter_hover" transform="translate(1.000000, 40.000000)" sketch:type="MSShapeGroup">
                <g id="layout-0-path-last" transform="translate(100.000000, 1254.000000)">
                    <g id="Group" transform="translate(0.000000, 8.000000)">
                        <path d="M154.5,2.4 C154.4,1.4 155.3,0.4 156.3,0.5 C157.4,0.5 158.2,1.3 158.2,2.4 C158.2,3.4 157.4,4.3 156.4,4.3 C155.4,4.2 154.5,3.4 154.5,2.4 L154.5,2.4 Z" id="Shape"></path>
                        <path d="M146.9,3 C146.8,2 147.6,1 148.6,0.9 C149.7,0.8 150.6,1.6 150.7,2.7 C150.8,3.7 150,4.6 149,4.7 C148,4.7 147,4 146.9,3 L146.9,3 Z" id="Shape"></path>
                        <path d="M139.4,4 C139.2,3 139.9,2 141,1.8 C142.1,1.7 143,2.4 143.1,3.4 C143.2,4.4 142.5,5.4 141.5,5.5 C140.6,5.7 139.6,5 139.4,4 L139.4,4 Z" id="Shape"></path>
                        <path d="M132,5.3 C131.8,4.3 132.4,3.3 133.5,3 C134.5,2.8 135.5,3.5 135.7,4.5 C135.9,5.5 135.2,6.5 134.2,6.7 C133.2,7 132.2,6.4 132,5.3 L132,5.3 Z" id="Shape"></path>
                        <path d="M124.7,7.1 C124.4,6.1 125,5.1 126.1,4.8 C127.1,4.5 128.2,5.1 128.4,6.2 C128.6,7.2 128,8.2 127,8.5 C125.9,8.7 124.9,8.1 124.7,7.1 L124.7,7.1 Z" id="Shape"></path>
                        <path d="M117.4,9.2 C117.1,8.2 117.6,7.1 118.6,6.8 C119.6,6.5 120.7,7 121,8 C121.3,9 120.7,10.1 119.8,10.4 C118.8,10.8 117.7,10.2 117.4,9.2 L117.4,9.2 Z" id="Shape"></path>
                        <path d="M110.3,11.7 C109.9,10.7 110.4,9.6 111.4,9.3 C112.4,8.9 113.5,9.4 113.8,10.4 C114.1,11.4 113.6,12.5 112.7,12.8 C111.7,13.2 110.6,12.7 110.3,11.7 L110.3,11.7 Z" id="Shape"></path>
                        <path d="M103.2,14.6 C102.8,13.6 103.2,12.5 104.2,12.1 C105.2,11.7 106.3,12.1 106.7,13.1 C107.1,14.1 106.6,15.2 105.7,15.6 C104.8,16 103.7,15.5 103.2,14.6 L103.2,14.6 Z" id="Shape"></path>
                        <path d="M96.4,17.7 C95.9,16.8 96.3,15.6 97.3,15.2 C98.3,14.7 99.4,15.1 99.8,16.1 C100.2,17 99.8,18.2 98.9,18.6 C98,19 96.8,18.7 96.4,17.7 L96.4,17.7 Z" id="Shape"></path>
                        <path d="M89.7,21.2 C89.2,20.3 89.5,19.1 90.5,18.6 C91.4,18.1 92.6,18.4 93.1,19.4 C93.6,20.3 93.2,21.5 92.3,22 C91.3,22.5 90.2,22.1 89.7,21.2 L89.7,21.2 Z" id="Shape"></path>
                        <path d="M83.1,25 C82.6,24.1 82.9,23 83.8,22.4 C84.7,21.9 85.9,22.2 86.4,23.1 C86.9,24 86.6,25.2 85.7,25.7 C84.8,26.2 83.7,25.9 83.1,25 L83.1,25 Z" id="Shape"></path>
                        <path d="M76.7,29.1 C76.1,28.2 76.4,27.1 77.2,26.5 C78.1,25.9 79.3,26.2 79.8,27 C80.4,27.9 80.1,29 79.3,29.6 C78.5,30.2 77.3,29.9 76.7,29.1 L76.7,29.1 Z" id="Shape"></path>
                        <path d="M70.6,33.4 C70,32.6 70.2,31.4 71,30.8 C71.9,30.2 73,30.4 73.6,31.2 C74.2,32.1 74,33.2 73.2,33.8 C72.4,34.4 71.2,34.3 70.6,33.4 L70.6,33.4 Z" id="Shape"></path>
                        <path d="M64.6,38 C63.9,37.2 64.1,36 64.9,35.3 C65.7,34.6 66.9,34.8 67.6,35.6 C68.2,36.4 68.1,37.6 67.3,38.3 C66.4,39 65.2,38.9 64.6,38 L64.6,38 Z" id="Shape"></path>
                        <path d="M58.8,42.9 C58.1,42.1 58.2,40.9 59,40.2 C59.8,39.5 61,39.6 61.7,40.4 C62.4,41.2 62.3,42.4 61.5,43.1 C60.7,43.8 59.5,43.7 58.8,42.9 L58.8,42.9 Z" id="Shape"></path>
                        <path d="M53.3,48.1 C52.6,47.4 52.6,46.2 53.4,45.4 C54.2,44.7 55.4,44.7 56.1,45.5 C56.8,46.3 56.8,47.5 56,48.2 C55.2,48.9 54,48.8 53.3,48.1 L53.3,48.1 Z" id="Shape"></path>
                        <path d="M48,53.5 C47.2,52.8 47.2,51.6 48,50.8 C48.7,50 49.9,50 50.7,50.8 C51.4,51.5 51.5,52.7 50.7,53.5 C49.9,54.3 48.7,54.2 48,53.5 L48,53.5 Z" id="Shape"></path>
                        <path d="M42.9,59.1 C42.1,58.4 42,57.2 42.7,56.4 C43.4,55.6 44.6,55.5 45.4,56.2 C46.2,56.9 46.2,58.1 45.6,58.9 C44.9,59.7 43.7,59.8 42.9,59.1 L42.9,59.1 Z" id="Shape"></path>
                        <path d="M38.1,64.9 C37.3,64.3 37.2,63.1 37.8,62.2 C38.5,61.4 39.7,61.2 40.5,61.9 C41.3,62.6 41.4,63.8 40.8,64.6 C40.1,65.4 38.9,65.6 38.1,64.9 L38.1,64.9 Z" id="Shape"></path>
                        <path d="M33.5,70.9 C32.7,70.3 32.5,69.1 33.1,68.3 C33.7,67.4 34.9,67.3 35.7,67.9 C36.5,68.5 36.7,69.7 36.1,70.5 C35.5,71.4 34.4,71.6 33.5,70.9 L33.5,70.9 Z" id="Shape"></path>
                        <path d="M29.2,77.2 C28.3,76.6 28.1,75.5 28.7,74.6 C29.3,73.7 30.5,73.5 31.3,74.1 C32.2,74.7 32.4,75.9 31.8,76.7 C31.3,77.5 30.1,77.7 29.2,77.2 L29.2,77.2 Z" id="Shape"></path>
                        <path d="M25.2,83.6 C24.3,83.1 24,81.9 24.6,81 C25.1,80.1 26.3,79.8 27.2,80.4 C28.1,81 28.4,82.1 27.8,83 C27.3,83.8 26.1,84.1 25.2,83.6 L25.2,83.6 Z" id="Shape"></path>
                        <path d="M21.5,90.2 C20.6,89.7 20.2,88.6 20.7,87.6 C21.2,86.7 22.3,86.3 23.3,86.8 C24.2,87.3 24.5,88.5 24.1,89.4 C23.5,90.3 22.4,90.7 21.5,90.2 L21.5,90.2 Z" id="Shape"></path>
                        <path d="M18.1,96.9 C17.2,96.4 16.8,95.3 17.2,94.4 C17.7,93.4 18.8,93.1 19.7,93.5 C20.6,94 21,95.1 20.6,96 C20.1,97 19,97.4 18.1,96.9 L18.1,96.9 Z" id="Shape"></path>
                        <path d="M14.9,103.8 C13.9,103.4 13.5,102.3 13.9,101.3 C14.3,100.3 15.4,99.9 16.4,100.3 C17.3,100.7 17.8,101.8 17.4,102.8 C17,103.8 15.9,104.2 14.9,103.8 L14.9,103.8 Z" id="Shape"></path>
                        <path d="M12.1,110.8 C11.1,110.4 10.6,109.3 11,108.3 C11.3,107.3 12.5,106.8 13.5,107.2 C14.5,107.6 14.9,108.7 14.5,109.6 C14.1,110.7 13,111.2 12.1,110.8 L12.1,110.8 Z" id="Shape"></path>
                        <path d="M9.5,117.9 C8.5,117.6 8,116.5 8.3,115.5 C8.7,114.5 9.8,114 10.7,114.3 C11.7,114.6 12.2,115.7 11.8,116.7 C11.6,117.7 10.5,118.2 9.5,117.9 L9.5,117.9 Z" id="Shape"></path>
                        <path d="M7.3,125.1 C6.3,124.8 5.7,123.8 6,122.7 C6.3,121.7 7.4,121.1 8.4,121.4 C9.4,121.7 9.9,122.8 9.6,123.7 C9.3,124.8 8.3,125.4 7.3,125.1 L7.3,125.1 Z" id="Shape"></path>
                        <path d="M5.4,132.5 C4.4,132.3 3.8,131.2 4.1,130.2 C4.4,129.2 5.4,128.6 6.4,128.8 C7.4,129.1 8,130.1 7.7,131.1 C7.4,132.1 6.4,132.7 5.4,132.5 L5.4,132.5 Z" id="Shape"></path>
                        <path d="M3.8,139.9 C2.8,139.7 2.1,138.7 2.3,137.7 C2.5,136.7 3.5,136 4.5,136.2 C5.5,136.4 6.2,137.4 6,138.4 C5.8,139.4 4.8,140.1 3.8,139.9 L3.8,139.9 Z" id="Shape"></path>
                        <path d="M2.5,147.3 C1.5,147.1 0.8,146.2 0.9,145.1 C1.1,144.1 2,143.4 3.1,143.5 C4.1,143.7 4.8,144.7 4.7,145.7 C4.5,146.8 3.5,147.5 2.5,147.3 L2.5,147.3 Z" id="Shape"></path>
                        <path d="M1.5,154.8 C0.5,154.7 -0.3,153.7 -0.2,152.7 C-0.1,151.7 0.9,150.9 1.9,151 C2.9,151.1 3.7,152.1 3.6,153.1 C3.5,154.2 2.6,154.9 1.5,154.8 L1.5,154.8 Z" id="Shape"></path>
                    </g>
                    <path d="M174.9,10.3 L181.6,3.6 C182.4,2.8 182.4,1.6 181.6,0.8 C180.8,5.68434189e-14 179.6,5.68434189e-14 178.8,0.8 L172.1,7.5 L165.4,0.8 C164.6,5.68434189e-14 163.4,5.68434189e-14 162.6,0.8 C161.8,1.6 161.8,2.8 162.6,3.6 L169.3,10.3 L162.6,17 C161.8,17.8 161.8,19 162.6,19.8 C163,20.2 163.5,20.4 164,20.4 C164.5,20.4 165,20.2 165.4,19.8 L172.1,13.1 L178.8,19.8 C179.2,20.2 179.7,20.4 180.2,20.4 C180.7,20.4 181.2,20.2 181.6,19.8 C182.4,19 182.4,17.8 181.6,17 L174.9,10.3 L174.9,10.3 Z" id="Shape"></path>
                </g>
            </g>
        </g>
    </g>
</svg>