<?xml version="1.0" encoding="UTF-8" standalone="no"?>
<svg width="280px" height="187px" viewBox="0 0 280 187" version="1.1" xmlns="http://www.w3.org/2000/svg" xmlns:xlink="http://www.w3.org/1999/xlink" xmlns:sketch="http://www.bohemiancoding.com/sketch/ns">
    <!-- Generator: Sketch 3.1.1 (8761) - http://www.bohemiancoding.com/sketch -->
    <title>layout-0-path-2</title>
    <desc>Created with Sketch.</desc>
    <defs></defs>
    <g id="Page-1" stroke="none" stroke-width="1" fill="none" fill-rule="evenodd" sketch:type="MSPage">
        <g id="main_top-copy" sketch:type="MSLayerGroup" transform="translate(-589.000000, -1201.000000)" fill="#FFFFFF">
            <g id="enter_hover" transform="translate(1.000000, 40.000000)" sketch:type="MSShapeGroup">
                <g id="layout-0-path-2" transform="translate(588.000000, 1161.000000)">
                    <g id="Group" transform="translate(25.000000, 24.000000)">
                        <path d="M3.1,51.4 C3.8,52.2 3.8,53.4 3,54.1 C2.3,54.8 1.1,54.8 0.3,54.1 C-0.4,53.4 -0.4,52.2 0.3,51.4 C1.2,50.6 2.4,50.7 3.1,51.4 L3.1,51.4 Z" id="Shape"></path>
                        <path d="M8.8,46.4 C9.5,47.2 9.4,48.4 8.6,49.1 C7.8,49.8 6.6,49.7 5.9,48.9 C5.2,48.1 5.3,46.9 6.1,46.2 C6.9,45.5 8.1,45.6 8.8,46.4 L8.8,46.4 Z" id="Shape"></path>
                        <path d="M14.6,41.6 C15.2,42.4 15.1,43.6 14.3,44.3 C13.5,44.9 12.3,44.8 11.6,44 C10.9,43.2 11.1,42 11.9,41.3 C12.8,40.6 14,40.7 14.6,41.6 L14.6,41.6 Z" id="Shape"></path>
                        <path d="M20.6,37 C21.2,37.8 21,39 20.2,39.6 C19.4,40.2 18.2,40 17.6,39.2 C17,38.4 17.2,37.2 18,36.6 C18.9,36 20,36.2 20.6,37 L20.6,37 Z" id="Shape"></path>
                        <path d="M26.9,32.7 C27.5,33.6 27.2,34.7 26.4,35.3 C25.5,35.9 24.4,35.6 23.8,34.8 C23.2,33.9 23.4,32.8 24.3,32.2 C25.1,31.6 26.3,31.9 26.9,32.7 L26.9,32.7 Z" id="Shape"></path>
                        <path d="M33.3,28.7 C33.8,29.6 33.5,30.8 32.6,31.3 C31.7,31.8 30.6,31.6 30,30.7 C29.5,29.8 29.7,28.6 30.6,28.1 C31.6,27.5 32.8,27.8 33.3,28.7 L33.3,28.7 Z" id="Shape"></path>
                        <path d="M39.9,25.1 C40.4,26 40,27.1 39.1,27.6 C38.2,28.1 37.1,27.8 36.5,26.8 C36,25.9 36.3,24.7 37.3,24.2 C38.3,23.8 39.4,24.1 39.9,25.1 L39.9,25.1 Z" id="Shape"></path>
                        <path d="M46.7,21.8 C47.1,22.8 46.7,23.9 45.8,24.3 C44.9,24.7 43.7,24.3 43.3,23.4 C42.8,22.5 43.3,21.3 44.2,20.9 C45.2,20.4 46.3,20.8 46.7,21.8 L46.7,21.8 Z" id="Shape"></path>
                        <path d="M53.7,18.9 C54.1,19.9 53.6,20.9 52.6,21.3 C51.7,21.7 50.6,21.2 50.2,20.3 C49.8,19.3 50.3,18.2 51.3,17.8 C52.3,17.4 53.4,17.9 53.7,18.9 L53.7,18.9 Z" id="Shape"></path>
                        <path d="M60.9,16.5 C61.2,17.5 60.6,18.6 59.7,18.9 C58.7,19.2 57.7,18.7 57.3,17.7 C57,16.7 57.5,15.7 58.5,15.3 C59.6,15 60.6,15.5 60.9,16.5 L60.9,16.5 Z" id="Shape"></path>
                        <path d="M68.2,14.7 C68.4,15.7 67.8,16.7 66.8,16.9 C65.8,17.1 64.8,16.5 64.5,15.5 C64.2,14.5 64.9,13.5 65.9,13.2 C67,13 68,13.7 68.2,14.7 L68.2,14.7 Z" id="Shape"></path>
                        <path d="M75.7,13.4 C75.8,14.4 75.1,15.4 74.1,15.5 C73.1,15.6 72.1,14.9 72,13.9 C71.8,12.9 72.5,11.9 73.6,11.8 C74.6,11.7 75.6,12.4 75.7,13.4 L75.7,13.4 Z" id="Shape"></path>
                        <path d="M83.2,12.9 C83.2,13.9 82.4,14.8 81.4,14.8 C80.4,14.9 79.5,14.1 79.4,13.1 C79.3,12.1 80.1,11.1 81.2,11.1 C82.3,11 83.2,11.8 83.2,12.9 L83.2,12.9 Z" id="Shape"></path>
                        <path d="M90.8,13 C90.7,14 89.8,14.8 88.8,14.8 C87.8,14.8 87,13.9 87,12.8 C87,11.8 87.9,11 89,11 C90.1,11 90.9,12 90.8,13 L90.8,13 Z" id="Shape"></path>
                        <path d="M98.3,14 C98.1,15 97.2,15.7 96.2,15.5 C95.2,15.4 94.5,14.4 94.6,13.4 C94.7,12.4 95.7,11.6 96.8,11.8 C97.8,12 98.5,13 98.3,14 L98.3,14 Z" id="Shape"></path>
                        <path d="M105.7,15.7 C105.4,16.7 104.4,17.3 103.4,17 C102.4,16.7 101.8,15.7 102.1,14.7 C102.3,13.7 103.4,13.1 104.4,13.4 C105.4,13.7 106,14.7 105.7,15.7 L105.7,15.7 Z" id="Shape"></path>
                        <path d="M112.7,18.4 C112.2,19.3 111.1,19.7 110.2,19.3 C109.3,18.9 108.9,17.8 109.2,16.8 C109.6,15.8 110.7,15.4 111.7,15.8 C112.8,16.3 113.2,17.5 112.7,18.4 L112.7,18.4 Z" id="Shape"></path>
                        <path d="M119,22.5 C118.3,23.3 117.2,23.4 116.4,22.8 C115.6,22.2 115.4,21.1 116,20.2 C116.6,19.3 117.8,19.1 118.7,19.8 C119.6,20.5 119.7,21.8 119,22.5 L119,22.5 Z" id="Shape"></path>
                        <path d="M124.2,28 C123.4,28.6 122.2,28.5 121.6,27.7 C120.9,27 121,25.8 121.8,25.1 C122.6,24.4 123.8,24.5 124.5,25.3 C125.2,26.2 125.1,27.4 124.2,28 L124.2,28 Z" id="Shape"></path>
                        <path d="M128.1,34.5 C127.2,34.9 126,34.6 125.6,33.7 C125.1,32.8 125.4,31.7 126.3,31.2 C127.2,30.7 128.4,31 128.9,31.9 C129.4,32.9 129.1,34 128.1,34.5 L128.1,34.5 Z" id="Shape"></path>
                        <path d="M130.9,41.5 C129.9,41.8 128.8,41.3 128.5,40.3 C128.2,39.3 128.6,38.3 129.6,37.9 C130.6,37.5 131.7,38 132,39 C132.5,40.1 131.9,41.2 130.9,41.5 L130.9,41.5 Z" id="Shape"></path>
                        <path d="M132.9,48.8 C131.9,49 130.9,48.4 130.6,47.4 C130.4,46.4 131,45.4 132,45.1 C133,44.8 134.1,45.4 134.3,46.5 C134.5,47.6 133.9,48.6 132.9,48.8 L132.9,48.8 Z" id="Shape"></path>
                        <path d="M134.2,56.3 C133.2,56.5 132.2,55.8 132,54.7 C131.8,53.7 132.5,52.7 133.5,52.5 C134.5,52.3 135.5,53 135.7,54.1 C136,55.1 135.3,56.1 134.2,56.3 L134.2,56.3 Z" id="Shape"></path>
                        <path d="M135.2,63.8 C134.2,63.9 133.2,63.2 133.1,62.1 C133,61.1 133.7,60.1 134.7,60 C135.7,59.9 136.7,60.6 136.8,61.7 C137,62.7 136.2,63.7 135.2,63.8 L135.2,63.8 Z" id="Shape"></path>
                        <path d="M135.9,71.3 C134.9,71.4 134,70.6 133.9,69.6 C133.8,68.6 134.6,67.7 135.6,67.6 C136.6,67.5 137.6,68.3 137.6,69.3 C137.7,70.3 136.9,71.2 135.9,71.3 L135.9,71.3 Z" id="Shape"></path>
                        <path d="M136.4,78.8 C135.4,78.9 134.5,78.1 134.4,77 C134.3,76 135.1,75.1 136.2,75 C137.2,74.9 138.1,75.7 138.2,76.8 C138.2,77.9 137.4,78.8 136.4,78.8 L136.4,78.8 Z" id="Shape"></path>
                        <circle id="Oval" cx="136.9" cy="84.9" r="1.9"></circle>
                        <path d="M137.5,93.9 C136.5,94 135.6,93.2 135.5,92.2 C135.4,91.2 136.2,90.2 137.2,90.2 C138.2,90.1 139.1,90.9 139.2,91.9 C139.3,92.9 138.5,93.8 137.5,93.9 L137.5,93.9 Z" id="Shape"></path>
                        <path d="M138.2,101.5 C137.2,101.6 136.2,100.9 136.1,99.8 C136,98.8 136.8,97.8 137.8,97.7 C138.8,97.6 139.8,98.4 139.9,99.4 C139.9,100.4 139.2,101.4 138.2,101.5 L138.2,101.5 Z" id="Shape"></path>
                        <path d="M139.1,109 C138.1,109.2 137.1,108.4 137,107.4 C136.8,106.4 137.6,105.4 138.6,105.3 C139.6,105.2 140.6,105.9 140.7,106.9 C140.9,107.9 140.2,108.8 139.1,109 L139.1,109 Z" id="Shape"></path>
                        <path d="M140.5,116.4 C139.5,116.6 138.5,116 138.3,114.9 C138.1,113.9 138.8,112.9 139.8,112.7 C140.8,112.5 141.8,113.2 142,114.2 C142.2,115.2 141.5,116.2 140.5,116.4 L140.5,116.4 Z" id="Shape"></path>
                        <path d="M142.4,123.7 C141.4,124 140.3,123.4 140.1,122.4 C139.8,121.4 140.4,120.3 141.4,120.1 C142.4,119.9 143.4,120.4 143.7,121.4 C143.9,122.4 143.4,123.4 142.4,123.7 L142.4,123.7 Z" id="Shape"></path>
                        <path d="M144.9,130.9 C143.9,131.3 142.8,130.8 142.4,129.8 C142,128.8 142.5,127.7 143.5,127.3 C144.5,127 145.5,127.5 145.9,128.4 C146.3,129.4 145.9,130.5 144.9,130.9 L144.9,130.9 Z" id="Shape"></path>
                        <path d="M148.3,137.6 C147.4,138.1 146.2,137.8 145.7,136.9 C145.2,136 145.6,134.8 146.5,134.3 C147.4,133.8 148.5,134.2 149,135.1 C149.5,135.9 149.2,137.1 148.3,137.6 L148.3,137.6 Z" id="Shape"></path>
                        <path d="M152.7,143.8 C151.9,144.5 150.7,144.3 150,143.5 C149.3,142.6 149.5,141.4 150.4,140.8 C151.3,140.2 152.4,140.4 153,141.2 C153.6,141.9 153.4,143.1 152.7,143.8 L152.7,143.8 Z" id="Shape"></path>
                        <path d="M158,149.1 C157.3,149.9 156.1,150 155.3,149.3 C154.5,148.5 154.5,147.3 155.2,146.6 C155.9,145.9 157.1,145.8 157.8,146.5 C158.6,147.2 158.7,148.3 158,149.1 L158,149.1 Z" id="Shape"></path>
                        <path d="M164.2,153.4 C163.7,154.3 162.5,154.6 161.6,154 C160.7,153.4 160.4,152.2 161,151.4 C161.6,150.6 162.8,150.3 163.6,150.8 C164.4,151.4 164.7,152.5 164.2,153.4 L164.2,153.4 Z" id="Shape"></path>
                        <path d="M171,156.7 C170.6,157.7 169.5,158.1 168.5,157.7 C167.5,157.3 167.1,156.1 167.5,155.2 C168,154.3 169,153.9 170,154.2 C170.9,154.6 171.4,155.7 171,156.7 L171,156.7 Z" id="Shape"></path>
                        <path d="M178.2,158.9 C178,159.9 176.9,160.6 175.9,160.2 C174.9,159.9 174.3,158.8 174.6,157.9 C174.9,156.9 176,156.3 176.9,156.6 C177.9,156.9 178.5,157.9 178.2,158.9 L178.2,158.9 Z" id="Shape"></path>
                        <path d="M185.7,160.3 C185.6,161.3 184.6,162.1 183.5,161.9 C182.4,161.7 181.7,160.7 181.9,159.7 C182.1,158.7 183.1,158 184.1,158.2 C185.1,158.4 185.8,159.3 185.7,160.3 L185.7,160.3 Z" id="Shape"></path>
                        <path d="M193.2,160.9 C193.2,161.9 192.3,162.8 191.2,162.7 C190.1,162.7 189.3,161.8 189.4,160.7 C189.5,159.7 190.4,158.9 191.4,158.9 C192.4,159 193.2,159.9 193.2,160.9 L193.2,160.9 Z" id="Shape"></path>
                        <path d="M200.8,160.5 C200.9,161.5 200.2,162.5 199.1,162.6 C198,162.7 197.1,161.9 197.1,160.8 C197.1,159.7 197.8,158.9 198.8,158.8 C199.7,158.7 200.6,159.5 200.8,160.5 L200.8,160.5 Z" id="Shape"></path>
                        <path d="M208.2,159.2 C208.5,160.2 207.8,161.2 206.8,161.5 C205.7,161.8 204.7,161 204.5,160 C204.3,159 205,158.1 205.9,157.8 C206.9,157.5 207.9,158.1 208.2,159.2 L208.2,159.2 Z" id="Shape"></path>
                        <path d="M215.4,156.7 C215.8,157.7 215.3,158.8 214.3,159.2 C213.3,159.6 212.2,159.1 211.8,158.1 C211.5,157.1 212,156.1 212.9,155.7 C213.8,155.3 214.9,155.8 215.4,156.7 L215.4,156.7 Z" id="Shape"></path>
                        <path d="M222.1,153.3 C222.6,154.2 222.3,155.3 221.4,155.9 C220.9,156.2 220.4,156.2 219.9,156.1 C219.4,156 219,155.6 218.8,155.2 C218.6,154.7 218.5,154.2 218.7,153.8 C218.8,153.3 219.1,152.9 219.6,152.7 C220.4,152.1 221.5,152.4 222.1,153.3 L222.1,153.3 Z" id="Shape"></path>
                        <path d="M228.3,148.9 C228.6,149.3 228.8,149.8 228.7,150.3 C228.6,150.8 228.4,151.2 227.9,151.6 C227,152.3 225.8,152.1 225.2,151.2 C224.6,150.3 224.8,149.2 225.6,148.6 C226,148.3 226.5,148.2 227,148.3 C227.5,148.3 227.9,148.5 228.3,148.9 L228.3,148.9 Z" id="Shape"></path>
                        <path d="M233.8,143.8 C234.5,144.5 234.6,145.8 233.8,146.5 C233,147.2 231.8,147.2 231.1,146.5 C230.4,145.7 230.4,144.5 231.2,143.9 C231.9,143.1 233,143.1 233.8,143.8 L233.8,143.8 Z" id="Shape"></path>
                        <path d="M238.7,138 C239.5,138.6 239.7,139.8 239,140.7 C238.3,141.6 237.1,141.6 236.3,141 C235.5,140.3 235.4,139.2 236,138.4 C236.7,137.5 237.9,137.4 238.7,138 L238.7,138 Z" id="Shape"></path>
                        <path d="M243,131.8 C243.9,132.3 244.2,133.5 243.6,134.4 C243,135.3 241.9,135.6 241,135 C240.2,134.4 239.9,133.3 240.4,132.4 C240.9,131.5 242.1,131.2 243,131.8 L243,131.8 Z" id="Shape"></path>
                        <path d="M246.5,125.1 C247.4,125.5 247.8,126.7 247.4,127.7 C246.9,128.7 245.8,129 244.8,128.5 C243.9,128 243.5,126.9 244,126 C244.4,125.1 245.6,124.7 246.5,125.1 L246.5,125.1 Z" id="Shape"></path>
                        <path d="M249.4,118.1 C250.4,118.4 250.9,119.5 250.5,120.5 C250.1,121.5 249,122 248.1,121.6 C247.1,121.2 246.7,120.1 247,119.2 C247.3,118.3 248.4,117.8 249.4,118.1 L249.4,118.1 Z" id="Shape"></path>
                        <path d="M251.4,110.8 C252.4,111 253,112 252.8,113.1 C252.6,114.2 251.5,114.8 250.5,114.5 C249.5,114.2 248.9,113.2 249.2,112.2 C249.4,111.2 250.4,110.6 251.4,110.8 L251.4,110.8 Z" id="Shape"></path>
                        <path d="M252.4,103.3 C253.4,103.3 254.3,104.3 254.2,105.4 C254.1,106.5 253.1,107.3 252.1,107.1 C251.1,107 250.4,106 250.4,105.1 C250.5,104.1 251.4,103.3 252.4,103.3 L252.4,103.3 Z" id="Shape"></path>
                        <path d="M252,95.8 C253,95.7 254,96.4 254.1,97.5 C254.2,98.6 253.4,99.5 252.3,99.6 C251.3,99.6 250.4,98.9 250.3,97.9 C250.3,96.8 250.9,95.9 252,95.8 L252,95.8 Z" id="Shape"></path>
                        <path d="M250.5,88.4 C251.5,88.1 252.5,88.7 252.8,89.8 C253.1,90.9 252.4,91.9 251.4,92.1 C250.4,92.3 249.4,91.7 249.1,90.7 C248.9,89.7 249.5,88.7 250.5,88.4 L250.5,88.4 Z" id="Shape"></path>
                        <path d="M247.7,81.4 C248.6,80.9 249.8,81.4 250.2,82.4 C250.4,82.9 250.4,83.4 250.3,83.9 C250.1,84.4 249.7,84.7 249.2,84.9 C248.7,85.1 248.2,85.1 247.8,84.9 C247.4,84.7 247,84.4 246.8,83.9 C246.3,82.9 246.7,81.8 247.7,81.4 L247.7,81.4 Z" id="Shape"></path>
                        <path d="M243.8,74.9 C244.7,74.3 245.8,74.5 246.5,75.4 C247.1,76.3 246.8,77.5 245.9,78 C245,78.5 243.9,78.2 243.3,77.4 C242.8,76.6 243,75.5 243.8,74.9 L243.8,74.9 Z" id="Shape"></path>
                        <path d="M239.2,68.9 C240,68.2 241.2,68.3 241.9,69.1 C242.6,69.9 242.5,71.1 241.6,71.8 C240.8,72.4 239.6,72.3 239,71.5 C238.3,70.8 238.4,69.6 239.2,68.9 L239.2,68.9 Z" id="Shape"></path>
                        <path d="M233.9,63.5 C234.6,62.7 235.8,62.7 236.6,63.5 C237.4,64.3 237.4,65.4 236.6,66.2 C235.9,66.9 234.7,66.9 233.9,66.2 C233.2,65.5 233.2,64.3 233.9,63.5 L233.9,63.5 Z" id="Shape"></path>
                        <path d="M228.1,58.6 C228.8,57.8 229.9,57.7 230.8,58.4 C231.6,59.1 231.7,60.3 231,61.1 C230.3,61.9 229.1,62 228.3,61.3 C227.6,60.6 227.5,59.4 228.1,58.6 L228.1,58.6 Z" id="Shape"></path>
                        <path d="M222.2,53.9 C222.8,53.1 224,52.9 224.9,53.5 C225.7,54.1 225.9,55.3 225.3,56.2 C224.7,57 223.5,57.2 222.7,56.5 C221.7,56 221.5,54.8 222.2,53.9 L222.2,53.9 Z" id="Shape"></path>
                        <path d="M216,49.5 C216.6,48.6 217.8,48.4 218.6,49.1 C219.5,49.7 219.7,50.9 219.1,51.7 C218.5,52.5 217.3,52.7 216.5,52.1 C215.6,51.6 215.4,50.4 216,49.5 L216,49.5 Z" id="Shape"></path>
                        <circle id="Oval" cx="211.9" cy="45.9" r="1.9"></circle>
                        <path d="M203.6,40.9 C204.2,40.1 205.4,39.9 206.2,40.5 C207.1,41.1 207.3,42.3 206.7,43.1 C206.1,44 204.9,44.2 204.1,43.6 C203.2,42.9 203,41.7 203.6,40.9 L203.6,40.9 Z" id="Shape"></path>
                        <path d="M197.5,36.4 C198.1,35.6 199.3,35.4 200.1,36 C200.9,36.6 201.1,37.8 200.5,38.6 C199.9,39.4 198.7,39.6 197.9,39 C197,38.4 196.9,37.2 197.5,36.4 L197.5,36.4 Z" id="Shape"></path>
                        <path d="M191.6,31.6 C192.3,30.8 193.5,30.7 194.3,31.4 C195.1,32.1 195.2,33.3 194.5,34.1 C193.8,34.9 192.7,35 191.8,34.3 C191,33.6 190.9,32.4 191.6,31.6 L191.6,31.6 Z" id="Shape"></path>
                        <path d="M186.1,26.5 C186.9,25.8 188,25.8 188.7,26.5 C189.4,27.2 189.5,28.4 188.8,29.2 C188.1,30 186.9,30 186.1,29.2 C185.4,28.4 185.3,27.2 186.1,26.5 L186.1,26.5 Z" id="Shape"></path>
                        <path d="M181.2,20.8 C182,20.2 183.2,20.3 183.8,21.1 C184.5,21.9 184.4,23 183.6,23.7 C182.8,24.4 181.6,24.3 180.9,23.5 C180.2,22.6 180.3,21.4 181.2,20.8 L181.2,20.8 Z" id="Shape"></path>
                        <path d="M177.1,14.4 C178,13.9 179.1,14.3 179.6,15.1 C180.1,15.9 179.9,17.1 179,17.6 C178.1,18.2 176.9,17.9 176.4,17 C175.8,16.1 176.2,14.9 177.1,14.4 L177.1,14.4 Z" id="Shape"></path>
                        <path d="M174.2,7.4 C174.7,7.3 175.2,7.3 175.6,7.5 C176,7.7 176.3,8.1 176.5,8.5 C176.9,9.4 176.4,10.5 175.4,10.9 C174.4,11.3 173.3,10.8 172.9,9.8 C172.7,9.3 172.7,8.8 173,8.3 C173.3,7.9 173.7,7.6 174.2,7.4 L174.2,7.4 Z" id="Shape"></path>
                        <path d="M172.8,0 C173.3,0 173.8,0.1 174.2,0.4 C174.6,0.7 174.9,1.1 175,1.6 C175.2,2.6 174.5,3.5 173.4,3.7 C172.4,3.9 171.4,3.2 171.2,2.1 C171.1,1.6 171.2,1 171.5,0.7 C171.8,0.3 172.3,0 172.8,0 L172.8,0 Z" id="Shape"></path>
                    </g>
                    <path d="M200.4,10.2 L207.1,3.5 C207.9,2.7 207.9,1.5 207.1,0.7 C206.3,-0.1 205.1,-0.1 204.3,0.7 L197.6,7.4 L190.9,0.7 C190.1,-0.1 188.9,-0.1 188.1,0.7 C187.3,1.5 187.3,2.7 188.1,3.5 L194.8,10.2 L188.1,16.9 C187.3,17.7 187.3,18.9 188.1,19.7 C188.5,20.1 189,20.3 189.5,20.3 C190,20.3 190.5,20.1 190.9,19.7 L197.6,13 L204.3,19.7 C204.7,20.1 205.2,20.3 205.7,20.3 C206.2,20.3 206.7,20.1 207.1,19.7 C207.9,18.9 207.9,17.7 207.1,16.9 L200.4,10.2 L200.4,10.2 Z" id="Shape"></path>
                    <path d="M13.4,93.3 L20.1,86.6 C20.9,85.8 20.9,84.6 20.1,83.8 C19.3,83 18.1,83 17.3,83.8 L10.6,90.5 L3.9,83.8 C3.1,83 1.9,83 1.1,83.8 C0.3,84.6 0.3,85.8 1.1,86.6 L7.8,93.3 L1.1,100 C0.3,100.8 0.3,102 1.1,102.8 C1.5,103.2 2,103.4 2.5,103.4 C3,103.4 3.5,103.2 3.9,102.8 L10.6,96.1 L17.3,102.8 C17.7,103.2 18.2,103.4 18.7,103.4 C19.2,103.4 19.7,103.2 20.1,102.8 C20.9,102 20.9,100.8 20.1,100 L13.4,93.3 L13.4,93.3 Z" id="Shape"></path>
                </g>
            </g>
        </g>
    </g>
</svg>