<?xml version="1.0" encoding="UTF-8" standalone="no"?>
<svg width="413px" height="143px" viewBox="0 0 413 143" version="1.1" xmlns="http://www.w3.org/2000/svg" xmlns:xlink="http://www.w3.org/1999/xlink" xmlns:sketch="http://www.bohemiancoding.com/sketch/ns">
    <!-- Generator: Sketch 3.1.1 (8761) - http://www.bohemiancoding.com/sketch -->
    <title>path-6</title>
    <desc>Created with Sketch.</desc>
    <defs></defs>
    <g id="Page-1" stroke="none" stroke-width="1" fill="none" fill-rule="evenodd" sketch:type="MSPage">
        <g id="site_26.10.14" sketch:type="MSLayerGroup" transform="translate(-1055.000000, -2046.000000)">
            <g id="enter_hover" transform="translate(93.000000, 0.000000)" sketch:type="MSShapeGroup">
                <g id="path-6" transform="translate(963.000000, 2047.000000)">
                    <path d="M12.9,117.1 L19.5,110.3 C20.3,109.5 20.2,108.2 19.5,107.5 C18.8,106.8 17.4,106.8 16.7,107.5 L10.1,114.3 L3.3,107.7 C2.5,106.9 1.2,107 0.5,107.7 C-0.3,108.5 -0.2,109.8 0.5,110.5 L7.3,117.1 L0.7,123.9 C-0.1,124.7 -1.23789867e-13,126 0.8,126.7 C1.2,127.1 1.7,127.3 2.2,127.3 C2.7,127.3 3.2,127.1 3.6,126.7 L10.2,119.9 L17,126.5 C17.4,126.9 17.9,127.1 18.4,127.1 C18.9,127.1 19.4,126.9 19.8,126.5 C20.6,125.7 20.5,124.4 19.8,123.7 L12.9,117.1 L12.9,117.1 Z" id="Shape" fill="#8E8E8E"></path>
                    <g id="Group" transform="translate(37.000000, 0.000000)" fill="#9B9B9B">
                        <path d="M2.9,113.9 C3.3,114.2 3.5,114.7 3.5,115.2 C3.5,115.7 3.2,116.3 2.7,116.6 C1.7,117.4 0.4,117.1 -0.1,116.1 C-0.5,115.1 -0.3,114.1 0.3,113.6 C0.6,113.3 1.1,113.2 1.5,113.2 C2,113.4 2.5,113.6 2.9,113.9 L2.9,113.9 Z" id="Shape"></path>
                        <path d="M6.8,107.5 C7.8,107.9 8.2,109.1 7.7,110.1 C7.2,111.1 6,111.5 5.1,110.9 C4.2,110.4 3.9,109.3 4.3,108.4 C4.8,107.5 5.8,107.1 6.8,107.5 L6.8,107.5 Z" id="Shape"></path>
                        <path d="M9.4,100.3 C10.4,100.6 11,101.7 10.6,102.7 C10.3,103.7 9.2,104.3 8.2,103.9 C7.2,103.5 6.7,102.5 7,101.5 C7.3,100.6 8.4,100 9.4,100.3 L9.4,100.3 Z" id="Shape"></path>
                        <path d="M11.3,93 C12.3,93.2 12.9,94.3 12.7,95.3 C12.4,96.3 11.4,96.9 10.4,96.7 C9.4,96.4 8.8,95.4 9.1,94.4 C9.3,93.4 10.3,92.8 11.3,93 L11.3,93 Z" id="Shape"></path>
                        <path d="M13.1,85.6 C14.1,85.8 14.8,86.8 14.5,87.9 C14.3,88.9 13.2,89.6 12.2,89.3 C11.2,89.1 10.6,88 10.8,87 C11,86 12.1,85.4 13.1,85.6 L13.1,85.6 Z" id="Shape"></path>
                        <circle id="Oval" transform="translate(14.060920, 80.524020) rotate(-77.420233) translate(-14.060920, -80.524020) " cx="14.06092" cy="80.52402" r="1.9000122"></circle>
                        <path d="M16.4,70.8 C17.4,71 18,72.1 17.8,73.1 C17.6,74.1 16.6,74.8 15.5,74.5 C14.5,74.3 13.9,73.3 14.1,72.2 C14.4,71.2 15.4,70.6 16.4,70.8 L16.4,70.8 Z" id="Shape"></path>
                        <path d="M18.2,63.4 C19.2,63.7 19.8,64.7 19.6,65.7 C19.3,66.7 18.3,67.3 17.3,67.1 C16.3,66.9 15.7,65.8 15.9,64.8 C16.2,63.8 17.2,63.2 18.2,63.4 L18.2,63.4 Z" id="Shape"></path>
                        <path d="M20.2,56.1 C21.2,56.4 21.8,57.4 21.5,58.4 C21.2,59.4 20.2,60 19.2,59.7 C18.2,59.4 17.6,58.4 17.9,57.4 C18.2,56.4 19.2,55.8 20.2,56.1 L20.2,56.1 Z" id="Shape"></path>
                        <path d="M22.5,48.9 C23.5,49.2 24,50.3 23.7,51.3 C23.4,52.3 22.3,52.8 21.3,52.5 C20.3,52.2 19.8,51.1 20.1,50.1 C20.5,49.1 21.6,48.6 22.5,48.9 L22.5,48.9 Z" id="Shape"></path>
                        <path d="M25.2,41.8 C26.2,42.2 26.6,43.3 26.3,44.2 C25.9,45.2 24.8,45.7 23.9,45.3 C22.9,44.9 22.4,43.8 22.8,42.8 C23.1,41.9 24.2,41.4 25.2,41.8 L25.2,41.8 Z" id="Shape"></path>
                        <path d="M28.3,34.9 C29.2,35.4 29.6,36.5 29.2,37.4 C28.8,38.3 27.6,38.7 26.7,38.3 C25.7,37.9 25.3,36.7 25.8,35.8 C26.2,34.8 27.4,34.4 28.3,34.9 L28.3,34.9 Z" id="Shape"></path>
                        <path d="M31.9,28.2 C32.8,28.7 33.1,29.9 32.6,30.8 C32.1,31.7 31,32 30,31.5 C29.1,31 28.7,29.8 29.3,28.9 C29.9,28 31.1,27.7 31.9,28.2 L31.9,28.2 Z" id="Shape"></path>
                        <path d="M36.2,22 C37,22.6 37.2,23.8 36.6,24.6 C36,25.4 34.9,25.6 34,25 C33.1,24.4 32.9,23.2 33.6,22.3 C34.2,21.5 35.4,21.3 36.2,22 L36.2,22 Z" id="Shape"></path>
                        <path d="M41.3,16.3 C42,17 42,18.2 41.3,18.9 C40.6,19.7 39.4,19.7 38.7,19 C37.9,18.3 37.9,17.1 38.6,16.3 C39.3,15.5 40.5,15.5 41.3,16.3 L41.3,16.3 Z" id="Shape"></path>
                        <path d="M47,11.3 C47.6,12.2 47.4,13.3 46.7,13.9 C45.9,14.5 44.7,14.4 44.1,13.6 C43.4,12.8 43.5,11.6 44.4,10.9 C45.2,10.3 46.4,10.5 47,11.3 L47,11.3 Z" id="Shape"></path>
                        <path d="M53.4,7.3 C53.9,8.2 53.5,9.3 52.7,9.8 C51.8,10.3 50.7,10 50.1,9.1 C49.5,8.2 49.9,7.1 50.8,6.5 C51.8,6 53,6.4 53.4,7.3 L53.4,7.3 Z" id="Shape"></path>
                        <path d="M60.4,4.4 C60.7,5.4 60.2,6.5 59.3,6.8 C58.3,7.1 57.3,6.7 56.9,5.7 C56.5,4.8 57,3.6 58,3.2 C59,2.9 60.1,3.4 60.4,4.4 L60.4,4.4 Z" id="Shape"></path>
                        <path d="M67.8,2.5 C68,3.5 67.3,4.5 66.3,4.7 C65.3,4.9 64.3,4.3 64.1,3.3 C63.8,2.3 64.5,1.3 65.5,1 C66.6,0.8 67.6,1.5 67.8,2.5 L67.8,2.5 Z" id="Shape"></path>
                        <path d="M75.3,1.6 C75.4,2.6 74.6,3.5 73.6,3.6 C72.6,3.7 71.7,3 71.6,1.9 C71.5,0.9 72.2,-0.1 73.3,-0.2 C74.3,-0.2 75.3,0.6 75.3,1.6 L75.3,1.6 Z" id="Shape"></path>
                        <path d="M82.9,1.6 C82.8,2.6 82,3.5 81,3.4 C80,3.4 79.2,2.5 79.2,1.5 C79.2,0.4 80.1,-0.4 81.1,-0.3 C82.1,-0.3 83,0.6 82.9,1.6 L82.9,1.6 Z" id="Shape"></path>
                        <path d="M90.4,2.6 C90.2,3.6 89.2,4.3 88.2,4.1 C87.2,4 86.5,3 86.6,2 C86.7,1 87.7,0.3 88.8,0.4 C89.9,0.5 90.6,1.5 90.4,2.6 L90.4,2.6 Z" id="Shape"></path>
                        <path d="M97.8,4.4 C97.5,5.4 96.4,5.9 95.5,5.7 C94.5,5.4 93.9,4.4 94.2,3.4 C94.4,2.4 95.5,1.8 96.6,2.1 C97.5,2.3 98.1,3.4 97.8,4.4 L97.8,4.4 Z" id="Shape"></path>
                        <path d="M104.9,7.1 C104.5,8.1 103.4,8.5 102.4,8.1 C101.5,7.7 101,6.7 101.3,5.7 C101.7,4.7 102.8,4.2 103.8,4.6 C104.8,5 105.3,6.1 104.9,7.1 L104.9,7.1 Z" id="Shape"></path>
                        <path d="M111.7,10.5 C111.2,11.4 110,11.8 109.1,11.3 C108.2,10.8 107.8,9.7 108.3,8.8 C108.8,7.9 109.9,7.5 110.9,8 C111.8,8.4 112.2,9.5 111.7,10.5 L111.7,10.5 Z" id="Shape"></path>
                        <path d="M118.2,14.4 C117.6,15.3 116.5,15.5 115.6,15 C114.7,14.5 114.5,13.3 115,12.4 C115.5,11.5 116.7,11.2 117.6,11.8 C118.5,12.4 118.7,13.5 118.2,14.4 L118.2,14.4 Z" id="Shape"></path>
                        <path d="M124.3,18.8 C123.7,19.6 122.5,19.8 121.7,19.2 C120.9,18.6 120.7,17.4 121.3,16.6 C121.9,15.8 123.1,15.6 123.9,16.2 C124.8,16.8 125,18 124.3,18.8 L124.3,18.8 Z" id="Shape"></path>
                        <path d="M130.2,23.6 C129.5,24.4 128.3,24.5 127.5,23.8 C126.7,23.1 126.6,22 127.2,21.1 C127.9,20.3 129,20.2 129.9,20.9 C130.8,21.6 130.9,22.8 130.2,23.6 L130.2,23.6 Z" id="Shape"></path>
                        <path d="M135.9,28.6 C135.2,29.4 134,29.4 133.2,28.7 C132.4,28 132.4,26.8 133.1,26 C133.8,25.2 135,25.2 135.8,25.9 C136.6,26.7 136.6,27.9 135.9,28.6 L135.9,28.6 Z" id="Shape"></path>
                        <path d="M141.3,33.9 C140.6,34.6 139.4,34.6 138.6,33.9 C137.9,33.2 137.9,32 138.6,31.2 C139.3,30.5 140.5,30.4 141.3,31.2 C142.1,32 142.1,33.2 141.3,33.9 L141.3,33.9 Z" id="Shape"></path>
                        <path d="M146.6,39.4 C145.8,40.1 144.6,40.1 143.9,39.3 C143.2,38.5 143.2,37.3 144,36.6 C144.8,35.9 145.9,35.9 146.7,36.7 C147.4,37.5 147.4,38.7 146.6,39.4 L146.6,39.4 Z" id="Shape"></path>
                        <path d="M151.7,45 C150.9,45.7 149.7,45.6 149,44.8 C148.3,44 148.4,42.8 149.1,42.1 C149.9,41.4 151.1,41.5 151.8,42.3 C152.5,43.1 152.5,44.3 151.7,45 L151.7,45 Z" id="Shape"></path>
                        <path d="M156.7,50.7 C155.9,51.4 154.7,51.3 154,50.5 C153.3,49.7 153.4,48.5 154.2,47.8 C155,47.1 156.2,47.2 156.9,48 C157.6,48.9 157.5,50.1 156.7,50.7 L156.7,50.7 Z" id="Shape"></path>
                        <path d="M161.5,56.6 C160.7,57.3 159.5,57.1 158.8,56.3 C158.1,55.5 158.2,54.3 159,53.6 C159.8,52.9 161,53 161.7,53.9 C162.5,54.7 162.3,55.9 161.5,56.6 L161.5,56.6 Z" id="Shape"></path>
                        <path d="M166.3,62.5 C165.5,63.2 164.3,63 163.6,62.2 C162.9,61.4 163.1,60.2 163.9,59.5 C164.7,58.8 165.9,59 166.6,59.8 C167.3,60.6 167.1,61.8 166.3,62.5 L166.3,62.5 Z" id="Shape"></path>
                        <path d="M171.1,68.4 C170.3,69 169.1,68.9 168.4,68.1 C167.7,67.3 167.9,66.1 168.7,65.4 C169.5,64.8 170.7,64.9 171.4,65.7 C172,66.5 171.9,67.7 171.1,68.4 L171.1,68.4 Z" id="Shape"></path>
                        <circle id="Oval" transform="translate(174.684310, 73.059670) rotate(51.785814) translate(-174.684310, -73.059670) " cx="174.68431" cy="73.05967" r="1.89999093"></circle>
                        <circle id="Oval" transform="translate(179.033220, 78.659780) rotate(51.830545) translate(-179.033220, -78.659780) " cx="179.03322" cy="78.65978" r="1.90003272"></circle>
                        <circle id="Oval" transform="translate(183.858320, 84.713040) rotate(51.667705) translate(-183.858320, -84.713040) " cx="183.85832" cy="84.71304" r="1.89993483"></circle>
                        <path d="M189.9,92.2 C189.1,92.9 187.9,92.7 187.2,91.9 C186.5,91.1 186.7,89.9 187.5,89.2 C188.3,88.5 189.5,88.7 190.2,89.5 C190.8,90.4 190.7,91.5 189.9,92.2 L189.9,92.2 Z" id="Shape"></path>
                        <path d="M194.7,98.1 C193.9,98.8 192.7,98.6 192,97.8 C191.3,97 191.4,95.8 192.3,95.1 C193.1,94.4 194.3,94.6 195,95.4 C195.6,96.2 195.5,97.4 194.7,98.1 L194.7,98.1 Z" id="Shape"></path>
                        <path d="M199.6,103.9 C198.8,104.6 197.6,104.5 196.9,103.7 C196.2,102.9 196.3,101.7 197.1,101 C197.9,100.3 199.1,100.4 199.8,101.2 C200.5,102 200.4,103.2 199.6,103.9 L199.6,103.9 Z" id="Shape"></path>
                        <path d="M204.6,109.5 C203.8,110.2 202.6,110.1 201.9,109.4 C201.2,108.6 201.3,107.4 202,106.7 C202.8,106 204,106.1 204.7,106.9 C205.5,107.7 205.4,108.8 204.6,109.5 L204.6,109.5 Z" id="Shape"></path>
                        <path d="M209.8,115.1 C209.1,115.8 207.9,115.8 207.1,115 C206.4,114.2 206.4,113 207.2,112.3 C208,111.6 209.1,111.6 209.9,112.4 C210.6,113.2 210.6,114.3 209.8,115.1 L209.8,115.1 Z" id="Shape"></path>
                        <path d="M215.3,120.4 C214.6,121.2 213.4,121.2 212.6,120.5 C211.8,119.8 211.8,118.6 212.5,117.8 C213.2,117.1 214.4,117.1 215.2,117.8 C215.9,118.4 216,119.6 215.3,120.4 L215.3,120.4 Z" id="Shape"></path>
                        <path d="M220.9,125.4 C220.2,126.2 219,126.3 218.2,125.6 C217.4,124.9 217.3,123.7 218,122.9 C218.7,122.1 219.9,122 220.7,122.7 C221.5,123.4 221.6,124.6 220.9,125.4 L220.9,125.4 Z" id="Shape"></path>
                        <path d="M227,130 C226.4,130.9 225.2,131.1 224.3,130.4 C223.4,129.8 223.3,128.6 223.9,127.7 C224.5,126.9 225.7,126.7 226.5,127.3 C227.4,128 227.6,129.1 227,130 L227,130 Z" id="Shape"></path>
                        <path d="M233.4,134 C232.9,134.9 231.7,135.2 230.8,134.7 C229.9,134.2 229.6,133 230.1,132.1 C230.7,131.2 231.8,131 232.7,131.5 C233.6,132 233.9,133.1 233.4,134 L233.4,134 Z" id="Shape"></path>
                        <path d="M240.3,137.2 C239.9,138.2 238.8,138.6 237.8,138.2 C236.8,137.8 236.4,136.6 236.8,135.7 C237.2,134.8 238.3,134.3 239.3,134.7 C240.2,135.1 240.7,136.2 240.3,137.2 L240.3,137.2 Z" id="Shape"></path>
                        <path d="M247.6,139.3 C247.4,140.3 246.4,141 245.3,140.8 C244.2,140.5 243.6,139.5 243.9,138.5 C244.2,137.5 245.2,136.9 246.2,137.1 C247.1,137.3 247.8,138.2 247.6,139.3 L247.6,139.3 Z" id="Shape"></path>
                        <path d="M255.1,139.9 C255.1,140.9 254.3,141.8 253.1,141.8 C252,141.8 251.2,140.9 251.3,139.8 C251.4,138.8 252.3,138 253.2,138 C254.3,138 255.1,138.8 255.1,139.9 L255.1,139.9 Z" id="Shape"></path>
                        <path d="M262.6,138.5 C263,139.5 262.4,140.6 261.3,140.9 C260.2,141.2 259.1,140.5 259,139.5 C258.8,138.5 259.4,137.5 260.3,137.3 C261.2,137 262.2,137.5 262.6,138.5 L262.6,138.5 Z" id="Shape"></path>
                        <path d="M269.2,134.8 C269.8,135.6 269.6,136.9 268.7,137.5 C267.8,138.1 266.5,137.8 266,136.9 C265.5,136 265.8,134.9 266.6,134.3 C267.4,133.8 268.6,134 269.2,134.8 L269.2,134.8 Z" id="Shape"></path>
                        <path d="M274.7,129.7 C275.5,130.4 275.5,131.6 274.8,132.4 C274,133.2 272.8,133.2 272.1,132.4 C271.4,131.6 271.4,130.5 272.1,129.8 C272.8,129 273.9,129 274.7,129.7 L274.7,129.7 Z" id="Shape"></path>
                        <path d="M279.4,123.6 C280.3,124.2 280.5,125.4 279.9,126.3 C279.3,127.2 278.1,127.4 277.2,126.7 C276.4,126.1 276.2,124.9 276.8,124.1 C277.3,123.3 278.5,123.1 279.4,123.6 L279.4,123.6 Z" id="Shape"></path>
                        <path d="M283.3,117.2 C284.2,117.7 284.5,118.9 284,119.8 C283.5,120.7 282.3,121 281.4,120.5 C280.5,120 280.2,118.8 280.7,117.9 C281.2,117 282.4,116.7 283.3,117.2 L283.3,117.2 Z" id="Shape"></path>
                        <path d="M286.8,110.4 C287.7,110.9 288.1,112 287.6,112.9 C287.1,113.8 286,114.2 285.1,113.7 C284.2,113.2 283.8,112.1 284.3,111.2 C284.7,110.4 285.9,110 286.8,110.4 L286.8,110.4 Z" id="Shape"></path>
                        <path d="M290,103.6 C291,104 291.4,105.1 290.9,106.1 C290.5,107.1 289.3,107.5 288.4,107 C287.5,106.6 287,105.4 287.5,104.5 C287.9,103.6 289,103.1 290,103.6 L290,103.6 Z" id="Shape"></path>
                        <path d="M293,96.6 C294,97 294.4,98.1 294,99.1 C293.6,100.1 292.5,100.5 291.5,100.1 C290.5,99.7 290.1,98.6 290.5,97.6 C291,96.6 292.1,96.2 293,96.6 L293,96.6 Z" id="Shape"></path>
                        <circle id="Oval" transform="translate(295.688710, 91.811770) rotate(-67.039893) translate(-295.688710, -91.811770) " cx="295.68871" cy="91.81177" r="1.90004812"></circle>
                        <path d="M299,82.6 C300,83 300.4,84.1 300,85.1 C299.6,86.1 298.5,86.5 297.5,86.1 C296.5,85.7 296.1,84.6 296.5,83.6 C296.9,82.7 298,82.2 299,82.6 L299,82.6 Z" id="Shape"></path>
                        <path d="M302.1,75.7 C303,76.1 303.5,77.3 303,78.2 C302.6,79.1 301.5,79.6 300.5,79.1 C299.6,78.7 299.1,77.6 299.6,76.6 C300,75.7 301.1,75.3 302.1,75.7 L302.1,75.7 Z" id="Shape"></path>
                        <path d="M305.4,68.9 C306.3,69.4 306.7,70.5 306.2,71.4 C305.7,72.3 304.6,72.7 303.7,72.3 C302.8,71.8 302.4,70.7 302.9,69.8 C303.3,68.8 304.5,68.4 305.4,68.9 L305.4,68.9 Z" id="Shape"></path>
                        <path d="M309.1,62.2 C310,62.7 310.3,63.9 309.8,64.8 C309.3,65.7 308.2,66 307.2,65.5 C306.3,65 305.9,63.8 306.5,62.9 C307,62 308.2,61.7 309.1,62.2 L309.1,62.2 Z" id="Shape"></path>
                        <path d="M313.2,55.9 C314,56.5 314.2,57.7 313.7,58.5 C313.1,59.3 312,59.6 311.1,59 C310.2,58.4 310,57.2 310.6,56.4 C311.2,55.5 312.4,55.3 313.2,55.9 L313.2,55.9 Z" id="Shape"></path>
                        <path d="M318,50 C318.8,50.7 318.8,51.9 318.1,52.6 C317.5,53.4 316.3,53.5 315.5,52.8 C314.7,52.1 314.6,50.9 315.3,50.1 C316,49.3 317.2,49.3 318,50 L318,50 Z" id="Shape"></path>
                        <path d="M323.7,44.9 C324.3,45.8 324.1,46.9 323.4,47.5 C322.6,48.1 321.5,48 320.8,47.3 C320.1,46.5 320.2,45.3 321.1,44.6 C321.8,43.9 323.1,44.1 323.7,44.9 L323.7,44.9 Z" id="Shape"></path>
                        <path d="M330.2,41.2 C330.6,42.2 330.2,43.2 329.3,43.7 C328.4,44.1 327.3,43.8 326.8,42.9 C326.3,42 326.6,40.8 327.7,40.3 C328.7,39.8 329.9,40.3 330.2,41.2 L330.2,41.2 Z" id="Shape"></path>
                        <path d="M337.6,39.3 C337.7,40.3 337,41.3 336.1,41.5 C335.1,41.7 334.2,41.1 333.9,40.1 C333.6,39.1 334.3,38 335.4,37.8 C336.4,37.5 337.4,38.3 337.6,39.3 L337.6,39.3 Z" id="Shape"></path>
                    </g>
                    <path d="M401.2,36.2 L394.5,29.5 C393.7,28.7 392.5,28.7 391.7,29.5 C390.9,30.3 390.9,31.5 391.7,32.3 L398.4,39 L391.7,45.7 C390.9,46.5 390.9,47.7 391.7,48.5 C392.5,49.3 393.7,49.3 394.5,48.5 L401.2,41.8 L407.9,48.5 C408.7,49.3 409.9,49.3 410.7,48.5 C411.1,48.1 411.3,47.6 411.3,47.1 C411.3,46.6 411.1,46.1 410.7,45.7 L404,39 L410.7,32.3 C411.1,31.9 411.3,31.4 411.3,30.9 C411.3,30.4 411.1,29.9 410.7,29.5 C409.9,28.7 408.7,28.7 407.9,29.5 L401.2,36.2 L401.2,36.2 Z" id="Shape" fill="#8E8E8E"></path>
                </g>
            </g>
        </g>
    </g>
</svg>