<?xml version="1.0" encoding="UTF-8" standalone="no"?>
<svg width="303px" height="104px" viewBox="0 0 303 104" version="1.1" xmlns="http://www.w3.org/2000/svg" xmlns:xlink="http://www.w3.org/1999/xlink" xmlns:sketch="http://www.bohemiancoding.com/sketch/ns">
    <!-- Generator: Sketch 3.1.1 (8761) - http://www.bohemiancoding.com/sketch -->
    <title>path-5</title>
    <desc>Created with Sketch.</desc>
    <defs></defs>
    <g id="Page-1" stroke="none" stroke-width="1" fill="none" fill-rule="evenodd" sketch:type="MSPage">
        <g id="site_26.10.14" sketch:type="MSLayerGroup" transform="translate(-1335.000000, -1866.000000)">
            <g id="enter_hover" transform="translate(93.000000, 0.000000)" sketch:type="MSShapeGroup">
                <g id="path-5" transform="translate(1243.000000, 1867.000000)">
                    <path d="M9.7,6.9 L3,0.2 C2.2,-0.6 1,-0.6 0.2,0.2 C-0.6,1 -0.6,2.2 0.2,3 L6.9,9.7 L0.2,16.4 C-0.6,17.2 -0.6,18.4 0.2,19.2 C1,20 2.2,20 3,19.2 L9.7,12.5 L16.4,19.2 C17.2,20 18.4,20 19.2,19.2 C19.6,18.8 19.8,18.3 19.8,17.8 C19.8,17.3 19.6,16.8 19.2,16.4 L12.5,9.7 L19.2,3 C19.6,2.6 19.8,2.1 19.8,1.6 C19.8,1.1 19.6,0.6 19.2,0.2 C18.4,-0.6 17.2,-0.6 16.4,0.2 L9.7,6.9 L9.7,6.9 Z" id="Shape" fill="#8E8E8E"></path>
                    <path d="M284.6,83.3 C283.8,82.5 282.6,82.5 281.8,83.3 C281,84.1 281,85.3 281.8,86.1 L288.5,92.8 L281.8,99.5 C281,100.3 281,101.5 281.8,102.3 C282.6,103.1 283.8,103.1 284.6,102.3 L291.3,95.6 L298,102.3 C298.8,103.1 300,103.1 300.8,102.3 C301.2,101.9 301.4,101.4 301.4,100.9 C301.4,100.4 301.2,99.9 300.8,99.5 L294.1,92.8 L300.8,86.1 C301.2,85.7 301.4,85.2 301.4,84.7 C301.4,84.2 301.2,83.7 300.8,83.3 C300,82.5 298.8,82.5 298,83.3 L291.3,90 L284.6,83.3 Z" id="Shape" fill="#8E8E8E"></path>
                    <g id="Group" transform="translate(26.000000, 7.000000)" fill="#9B9B9B">
                        <path d="M234.9,85.7 C234.9,84.7 235.8,83.8 236.8,83.9 C237.8,83.9 238.7,84.8 238.6,85.8 C238.6,86.8 237.7,87.7 236.7,87.6 C235.7,87.6 234.9,86.7 234.9,85.7 L234.9,85.7 Z" id="Shape"></path>
                        <path d="M227.4,85.4 C227.5,84.4 228.3,83.6 229.4,83.6 C230.4,83.7 231.2,84.5 231.2,85.6 C231.2,86.6 230.3,87.5 229.2,87.4 C228.1,87.3 227.3,86.4 227.4,85.4 L227.4,85.4 Z" id="Shape"></path>
                        <path d="M219.8,84.9 C219.9,83.9 220.8,83.1 221.8,83.1 C222.8,83.2 223.6,84.1 223.5,85.1 C223.4,86.1 222.5,86.9 221.5,86.9 C220.5,86.8 219.7,85.9 219.8,84.9 L219.8,84.9 Z" id="Shape"></path>
                        <path d="M212.3,84 C212.4,83 213.4,82.2 214.4,82.3 C215.4,82.4 216.2,83.4 216.1,84.4 C216,85.4 215.1,86.2 214,86.1 C212.9,86 212.2,85.1 212.3,84 L212.3,84 Z" id="Shape"></path>
                        <path d="M204.9,82.9 C205.1,81.9 206,81.2 207,81.4 C208,81.6 208.7,82.6 208.6,83.6 C208.5,84.6 207.5,85.3 206.4,85.2 C205.4,84.9 204.7,84 204.9,82.9 L204.9,82.9 Z" id="Shape"></path>
                        <path d="M197.4,81.6 C197.6,80.6 198.6,80 199.6,80.1 C200.6,80.3 201.3,81.2 201.1,82.3 C200.9,83.3 199.9,84 198.9,83.8 C197.9,83.6 197.2,82.6 197.4,81.6 L197.4,81.6 Z" id="Shape"></path>
                        <path d="M190.1,79.8 C190.4,78.8 191.4,78.2 192.4,78.4 C193.4,78.6 194,79.6 193.8,80.7 C193.6,81.7 192.5,82.3 191.5,82.1 C190.4,81.9 189.8,80.9 190.1,79.8 L190.1,79.8 Z" id="Shape"></path>
                        <path d="M182.9,77.7 C183.2,76.7 184.3,76.1 185.3,76.4 C186.3,76.7 186.8,77.7 186.5,78.7 C186.2,79.7 185.1,80.3 184.1,80 C183.1,79.7 182.5,78.7 182.9,77.7 L182.9,77.7 Z" id="Shape"></path>
                        <path d="M175.8,75.1 C176.2,74.1 177.3,73.6 178.2,74 C179.2,74.4 179.7,75.4 179.3,76.4 C179,77.4 177.9,77.9 176.9,77.5 C175.9,77.2 175.4,76.1 175.8,75.1 L175.8,75.1 Z" id="Shape"></path>
                        <path d="M168.8,72.2 C169.2,71.3 170.4,70.8 171.3,71.2 C172.2,71.6 172.7,72.7 172.3,73.7 C171.9,74.7 170.8,75.1 169.8,74.7 C168.8,74.2 168.4,73.1 168.8,72.2 L168.8,72.2 Z" id="Shape"></path>
                        <path d="M162.1,68.8 C162.6,67.9 163.7,67.5 164.7,68 C165.6,68.5 166,69.6 165.5,70.5 C165,71.4 163.9,71.8 162.9,71.3 C161.9,70.8 161.6,69.7 162.1,68.8 L162.1,68.8 Z" id="Shape"></path>
                        <path d="M155.6,65 C156.2,64.1 157.3,63.8 158.2,64.4 C159.1,64.9 159.4,66.1 158.8,67 C158.3,67.9 157.1,68.2 156.2,67.6 C155.3,67 155,65.9 155.6,65 L155.6,65 Z" id="Shape"></path>
                        <path d="M149.3,60.8 C149.9,60 151.1,59.7 151.9,60.3 C152.8,60.9 153,62 152.4,62.9 C151.8,63.8 150.6,64 149.8,63.4 C148.9,62.8 148.7,61.7 149.3,60.8 L149.3,60.8 Z" id="Shape"></path>
                        <path d="M143.2,56.3 C143.8,55.5 145,55.3 145.8,56 C146.6,56.6 146.8,57.8 146.2,58.6 C145.6,59.4 144.4,59.6 143.5,59 C142.7,58.3 142.6,57.1 143.2,56.3 L143.2,56.3 Z" id="Shape"></path>
                        <path d="M137.3,51.6 C138,50.8 139.1,50.7 139.9,51.3 C140.7,52 140.8,53.1 140.2,53.9 C139.6,54.7 138.3,54.9 137.5,54.2 C136.8,53.6 136.7,52.4 137.3,51.6 L137.3,51.6 Z" id="Shape"></path>
                        <path d="M131.6,46.7 C132.3,45.9 133.5,45.8 134.3,46.5 C135.1,47.2 135.2,48.4 134.5,49.2 C133.8,50 132.6,50.1 131.8,49.4 C131,48.7 130.9,47.5 131.6,46.7 L131.6,46.7 Z" id="Shape"></path>
                        <circle id="Oval" cx="126.9" cy="42.9" r="1.9"></circle>
                        <path d="M120.1,36.8 C120.8,36 122,35.9 122.8,36.6 C123.6,37.3 123.7,38.5 123,39.3 C122.3,40.1 121.1,40.2 120.3,39.5 C119.6,38.8 119.5,37.6 120.1,36.8 L120.1,36.8 Z" id="Shape"></path>
                        <path d="M114.3,32.1 C114.9,31.3 116.2,31.1 117,31.8 C117.8,32.5 117.9,33.7 117.3,34.5 C116.6,35.3 115.5,35.4 114.7,34.8 C113.8,34.1 113.6,32.9 114.3,32.1 L114.3,32.1 Z" id="Shape"></path>
                        <path d="M108.3,27.5 C108.9,26.7 110.1,26.5 111,27.1 C111.9,27.7 112,28.9 111.4,29.8 C110.8,30.6 109.6,30.8 108.8,30.2 C107.8,29.5 107.7,28.4 108.3,27.5 L108.3,27.5 Z" id="Shape"></path>
                        <path d="M102,23.3 C102.6,22.4 103.7,22.2 104.6,22.7 C105.5,23.3 105.7,24.4 105.1,25.3 C104.5,26.2 103.4,26.4 102.5,25.8 C101.7,25.3 101.5,24.2 102,23.3 L102,23.3 Z" id="Shape"></path>
                        <path d="M95.6,19.4 C96.1,18.5 97.3,18.2 98.2,18.7 C99.1,19.2 99.4,20.4 98.9,21.3 C98.4,22.2 97.2,22.5 96.3,22 C95.4,21.4 95.1,20.3 95.6,19.4 L95.6,19.4 Z" id="Shape"></path>
                        <path d="M88.9,15.9 C89.3,15 90.5,14.6 91.4,15 C92.4,15.5 92.7,16.6 92.2,17.5 C91.7,18.4 90.6,18.8 89.7,18.4 C88.8,18 88.4,16.8 88.9,15.9 L88.9,15.9 Z" id="Shape"></path>
                        <path d="M82,12.9 C82.4,11.9 83.5,11.5 84.5,11.9 C85.5,12.3 85.9,13.4 85.5,14.4 C85.1,15.4 84,15.8 83,15.4 C82,14.9 81.6,13.8 82,12.9 L82,12.9 Z" id="Shape"></path>
                        <path d="M74.9,10.3 C75.2,9.3 76.3,8.8 77.3,9.1 C78.3,9.4 78.8,10.5 78.5,11.5 C78.1,12.5 77.1,13 76.1,12.7 C75.1,12.3 74.6,11.2 74.9,10.3 L74.9,10.3 Z" id="Shape"></path>
                        <path d="M67.7,8.1 C68,7.1 69,6.5 70,6.8 C71,7.1 71.6,8.1 71.3,9.1 C71,10.1 69.9,10.7 69,10.4 C68,10.1 67.4,9.1 67.7,8.1 L67.7,8.1 Z" id="Shape"></path>
                        <path d="M60.3,6.3 C60.5,5.3 61.5,4.6 62.6,4.8 C63.6,5 64.3,6 64,7 C63.8,8 62.7,8.6 61.7,8.4 C60.8,8.3 60.1,7.3 60.3,6.3 L60.3,6.3 Z" id="Shape"></path>
                        <path d="M52.9,4.9 C53.1,3.9 54.1,3.2 55.1,3.3 C56.1,3.5 56.8,4.5 56.6,5.5 C56.4,6.5 55.4,7.2 54.4,7 C53.5,6.8 52.8,5.9 52.9,4.9 L52.9,4.9 Z" id="Shape"></path>
                        <path d="M45.5,3.7 C45.6,2.7 46.6,2 47.6,2.1 C48.6,2.2 49.4,3.2 49.2,4.2 C49,5.2 48.1,5.9 47.1,5.8 C46.1,5.7 45.3,4.8 45.5,3.7 L45.5,3.7 Z" id="Shape"></path>
                        <path d="M38,3 C38.1,2 39,1.2 40.1,1.3 C41.1,1.4 41.9,2.3 41.8,3.4 C41.7,4.4 40.8,5.2 39.7,5.1 C38.6,5 37.9,4 38,3 L38,3 Z" id="Shape"></path>
                        <path d="M30.4,2.5 C30.5,1.5 31.3,0.7 32.4,0.7 C33.5,0.7 34.2,1.6 34.2,2.7 C34.1,3.7 33.2,4.5 32.2,4.5 C31.2,4.4 30.4,3.5 30.4,2.5 L30.4,2.5 Z" id="Shape"></path>
                        <path d="M22.9,2.1 C22.9,1.1 23.8,0.3 24.8,0.3 C25.9,0.3 26.7,1.2 26.6,2.3 C26.6,3.3 25.7,4.1 24.7,4.1 C23.7,4.1 22.9,3.2 22.9,2.1 L22.9,2.1 Z" id="Shape"></path>
                        <path d="M15.4,2.1 C15.4,1.1 16.2,0.2 17.3,0.2 C18.4,0.2 19.2,1 19.2,2.1 C19.2,3.1 18.3,4 17.3,4 C16.2,4 15.4,3.2 15.4,2.1 L15.4,2.1 Z" id="Shape"></path>
                        <path d="M7.8,2.2 C7.8,1.2 8.6,0.3 9.6,0.2 C10.6,0.2 11.5,1 11.5,2.1 C11.5,3.1 10.7,4 9.7,4 C8.7,4.1 7.8,3.3 7.8,2.2 L7.8,2.2 Z" id="Shape"></path>
                        <path d="M0.3,2.6 C0.2,1.6 1.1,0.7 2.1,0.6 C3.1,0.6 4,1.4 4.1,2.4 C4.1,3.4 3.3,4.3 2.3,4.4 C1.2,4.4 0.3,3.6 0.3,2.6 L0.3,2.6 Z" id="Shape"></path>
                    </g>
                </g>
            </g>
        </g>
    </g>
</svg>