<?xml version="1.0" encoding="UTF-8" standalone="no"?>
<svg width="300px" height="139px" viewBox="0 0 300 139" version="1.1" xmlns="http://www.w3.org/2000/svg" xmlns:xlink="http://www.w3.org/1999/xlink" xmlns:sketch="http://www.bohemiancoding.com/sketch/ns">
    <!-- Generator: Sketch 3.1.1 (8761) - http://www.bohemiancoding.com/sketch -->
    <title>path-1</title>
    <desc>Created with Sketch.</desc>
    <defs></defs>
    <g id="Page-1" stroke="none" stroke-width="1" fill="none" fill-rule="evenodd" sketch:type="MSPage">
        <g id="site_26.10.14" sketch:type="MSLayerGroup" transform="translate(-1338.000000, -949.000000)">
            <g id="enter_hover" transform="translate(93.000000, 0.000000)" sketch:type="MSShapeGroup">
                <g id="path-1" transform="translate(1245.000000, 950.000000)">
                    <g id="Group" transform="translate(37.000000, 0.000000)" fill="#9B9B9B">
                        <path d="M252,97.3 C253,97.3 253.9,98.1 253.9,99.1 C253.9,100.1 253.1,101 252,101 C251,101 250.1,100.2 250.1,99.2 C250.1,98.2 250.9,97.3 252,97.3 L252,97.3 Z" id="Shape"></path>
                        <path d="M251.7,89.8 C252.7,89.7 253.6,90.6 253.7,91.6 C253.7,92.6 252.9,93.5 251.9,93.6 C250.9,93.6 250,92.8 249.9,91.8 C249.9,90.7 250.7,89.8 251.7,89.8 L251.7,89.8 Z" id="Shape"></path>
                        <path d="M251.2,82.3 C252.2,82.2 253.1,83 253.2,84 C253.3,85 252.5,85.9 251.4,86 C250.4,86.1 249.5,85.3 249.4,84.3 C249.4,83.3 250.2,82.4 251.2,82.3 L251.2,82.3 Z" id="Shape"></path>
                        <path d="M250.5,74.8 C251.5,74.7 252.5,75.4 252.6,76.5 C252.7,77.5 252,78.5 250.9,78.6 C249.9,78.7 248.9,77.9 248.8,76.9 C248.8,75.8 249.5,74.9 250.5,74.8 L250.5,74.8 Z" id="Shape"></path>
                        <path d="M249.6,67.3 C250.6,67.1 251.6,67.9 251.7,68.9 C251.8,69.9 251.1,70.9 250.1,71 C249.1,71.1 248.1,70.4 248,69.4 C247.9,68.4 248.5,67.5 249.6,67.3 L249.6,67.3 Z" id="Shape"></path>
                        <path d="M248.3,59.9 C249.3,59.7 250.3,60.4 250.5,61.4 C250.7,62.4 250,63.4 249,63.6 C248,63.8 247,63.1 246.8,62.1 C246.6,61.1 247.3,60.1 248.3,59.9 L248.3,59.9 Z" id="Shape"></path>
                        <path d="M246.6,52.6 C247.6,52.3 248.7,52.9 248.9,54 C249.1,55 248.5,56 247.5,56.3 C246.5,56.5 245.5,55.9 245.3,54.9 C245.1,53.9 245.6,52.9 246.6,52.6 L246.6,52.6 Z" id="Shape"></path>
                        <path d="M244.5,45.4 C245.5,45.1 246.6,45.6 246.9,46.6 C247.2,47.6 246.6,48.7 245.6,49 C244.6,49.3 243.6,48.7 243.3,47.8 C243,46.8 243.6,45.7 244.5,45.4 L244.5,45.4 Z" id="Shape"></path>
                        <path d="M242,38.3 C243,37.9 244.1,38.4 244.4,39.4 C244.8,40.4 244.3,41.5 243.3,41.8 C242.3,42.2 241.2,41.7 240.9,40.7 C240.5,39.8 241,38.7 242,38.3 L242,38.3 Z" id="Shape"></path>
                        <path d="M238.8,31.5 C239.7,31 240.9,31.4 241.4,32.3 C241.9,33.3 241.4,34.4 240.5,34.8 C239.6,35.2 238.5,34.8 238,33.9 C237.5,33.1 237.9,32 238.8,31.5 L238.8,31.5 Z" id="Shape"></path>
                        <path d="M234.9,25.1 C235.8,24.5 236.9,24.8 237.5,25.7 C238.1,26.6 237.8,27.8 236.9,28.3 C236,28.8 234.8,28.6 234.3,27.7 C233.8,26.8 234.1,25.7 234.9,25.1 L234.9,25.1 Z" id="Shape"></path>
                        <path d="M230.3,19.2 C231.1,18.5 232.3,18.6 233,19.4 C233.7,20.2 233.6,21.4 232.8,22.1 C232,22.7 230.8,22.6 230.2,21.9 C229.4,21 229.5,19.9 230.3,19.2 L230.3,19.2 Z" id="Shape"></path>
                        <path d="M224.9,14 C225.6,13.2 226.8,13.1 227.6,13.8 C228.4,14.5 228.4,15.8 227.7,16.5 C227,17.3 225.9,17.2 225.1,16.6 C224.3,15.9 224.2,14.8 224.9,14 L224.9,14 Z" id="Shape"></path>
                        <path d="M218.7,9.6 C219.2,8.7 220.4,8.4 221.3,9 C222.2,9.6 222.4,10.8 221.8,11.7 C221.2,12.6 220.1,12.7 219.2,12.2 C218.4,11.7 218.2,10.5 218.7,9.6 L218.7,9.6 Z" id="Shape"></path>
                        <path d="M212,6.3 C212.4,5.3 213.5,4.9 214.5,5.3 C215.5,5.8 215.9,6.9 215.4,7.9 C214.9,8.8 213.8,9.2 212.9,8.8 C212,8.4 211.6,7.3 212,6.3 L212,6.3 Z" id="Shape"></path>
                        <path d="M204.9,3.9 C205.2,2.9 206.2,2.3 207.2,2.6 C208.2,2.9 208.8,4 208.5,5 C208.2,6 207.1,6.5 206.2,6.2 C205.2,6 204.6,5 204.9,3.9 L204.9,3.9 Z" id="Shape"></path>
                        <path d="M197.5,2.5 C197.6,1.5 198.6,0.7 199.7,0.9 C200.8,1.1 201.4,2.1 201.2,3.1 C201,4.1 200,4.8 199,4.6 C198,4.4 197.3,3.5 197.5,2.5 L197.5,2.5 Z" id="Shape"></path>
                        <path d="M190,1.8 C190,0.8 190.9,-0.1 192,-6.57243357e-14 C193.1,0.1 193.8,1 193.7,2 C193.6,3 192.7,3.8 191.7,3.7 C190.7,3.7 190,2.8 190,1.8 L190,1.8 Z" id="Shape"></path>
                        <path d="M182.5,1.7 C182.5,0.7 183.3,-0.2 184.4,-0.2 C185.5,-0.2 186.3,0.6 186.3,1.7 C186.3,2.7 185.5,3.6 184.4,3.6 C183.4,3.6 182.5,2.8 182.5,1.7 L182.5,1.7 Z" id="Shape"></path>
                        <path d="M175,2.2 C174.9,1.2 175.7,0.2 176.7,0.1 C177.7,9.88098492e-15 178.7,0.8 178.7,1.9 C178.8,2.9 178,3.8 177,3.9 C176,4 175.1,3.3 175,2.2 L175,2.2 Z" id="Shape"></path>
                        <path d="M167.5,3.1 C167.3,2.1 168.1,1.1 169.1,1 C170.1,0.9 171.1,1.6 171.2,2.6 C171.3,3.6 170.6,4.6 169.6,4.7 C168.6,4.8 167.7,4.1 167.5,3.1 L167.5,3.1 Z" id="Shape"></path>
                        <path d="M160.1,4.3 C159.9,3.3 160.6,2.3 161.6,2.1 C162.6,1.9 163.6,2.6 163.8,3.6 C164,4.6 163.3,5.6 162.3,5.8 C161.3,6 160.3,5.3 160.1,4.3 L160.1,4.3 Z" id="Shape"></path>
                        <path d="M152.7,5.8 C152.5,4.8 153.1,3.8 154.1,3.6 C155.1,3.4 156.1,4.1 156.3,5.1 C156.5,6.1 155.9,7.1 154.8,7.3 C153.9,7.5 152.9,6.8 152.7,5.8 L152.7,5.8 Z" id="Shape"></path>
                        <path d="M145.4,7.5 C145.2,6.5 145.8,5.5 146.8,5.2 C147.8,5 148.8,5.6 149.1,6.6 C149.3,7.6 148.7,8.6 147.7,8.9 C146.7,9.1 145.6,8.5 145.4,7.5 L145.4,7.5 Z" id="Shape"></path>
                        <path d="M138.1,9.4 C137.8,8.4 138.4,7.4 139.4,7.1 C140.4,6.8 141.4,7.4 141.7,8.5 C142,9.5 141.4,10.5 140.4,10.8 C139.4,11 138.4,10.4 138.1,9.4 L138.1,9.4 Z" id="Shape"></path>
                        <path d="M130.9,11.4 C130.6,10.4 131.2,9.4 132.2,9.1 C133.2,8.8 134.2,9.4 134.5,10.4 C134.8,11.4 134.2,12.4 133.2,12.7 C132.2,13 131.2,12.4 130.9,11.4 L130.9,11.4 Z" id="Shape"></path>
                        <path d="M123.7,13.5 C123.4,12.5 124,11.5 125,11.2 C126,10.9 127,11.5 127.3,12.5 C127.6,13.5 127,14.5 126,14.8 C125,15.1 124,14.5 123.7,13.5 L123.7,13.5 Z" id="Shape"></path>
                        <path d="M116.5,15.7 C116.2,14.7 116.7,13.6 117.7,13.3 C118.7,13 119.7,13.6 120.1,14.6 C120.4,15.6 119.8,16.6 118.9,16.9 C117.8,17.2 116.8,16.7 116.5,15.7 L116.5,15.7 Z" id="Shape"></path>
                        <circle id="Oval" transform="translate(111.091460, 16.866660) rotate(162.481908) translate(-111.091460, -16.866660) " cx="111.09146" cy="16.86666" r="1.89995626"></circle>
                        <circle id="Oval" transform="translate(103.877750, 19.435190) rotate(162.313393) translate(-103.877750, -19.435190) " cx="103.87775" cy="19.43519" r="1.89993514"></circle>
                        <circle id="Oval" transform="translate(96.625150, 22.004610) rotate(162.230008) translate(-96.625150, -22.004610) " cx="96.62515" cy="22.00461" r="1.90002121"></circle>
                        <circle id="Oval" transform="translate(89.422350, 24.678290) rotate(162.313393) translate(-89.422350, -24.678290) " cx="89.42235" cy="24.67829" r="1.89993514"></circle>
                        <circle id="Oval" transform="translate(81.835660, 26.336560) rotate(162.481908) translate(-81.835660, -26.336560) " cx="81.83566" cy="26.33656" r="1.89995626"></circle>
                        <path d="M73.4,29.3 C73.1,28.3 73.7,27.3 74.6,26.9 C75.6,26.6 76.6,27.1 77,28.1 C77.3,29.1 76.8,30.2 75.8,30.5 C74.8,30.9 73.7,30.3 73.4,29.3 L73.4,29.3 Z" id="Shape"></path>
                        <path d="M66.2,31.5 C65.9,30.5 66.5,29.5 67.5,29.2 C68.5,28.9 69.5,29.5 69.8,30.5 C70.1,31.5 69.5,32.5 68.5,32.8 C67.6,33 66.5,32.5 66.2,31.5 L66.2,31.5 Z" id="Shape"></path>
                        <path d="M59,33.6 C58.7,32.6 59.3,31.6 60.3,31.3 C61.3,31 62.3,31.6 62.6,32.6 C62.9,33.6 62.3,34.6 61.3,34.9 C60.3,35.1 59.3,34.6 59,33.6 L59,33.6 Z" id="Shape"></path>
                        <path d="M51.8,35.5 C51.5,34.5 52.1,33.5 53.1,33.2 C54.1,32.9 55.1,33.5 55.4,34.5 C55.7,35.5 55.1,36.5 54.1,36.8 C53.1,37.1 52,36.5 51.8,35.5 L51.8,35.5 Z" id="Shape"></path>
                        <path d="M44.5,37.4 C44.3,36.4 44.9,35.4 45.9,35.1 C46.9,34.9 47.9,35.5 48.2,36.5 C48.5,37.5 47.8,38.5 46.8,38.8 C45.7,39 44.7,38.4 44.5,37.4 L44.5,37.4 Z" id="Shape"></path>
                        <path d="M37.1,39.1 C36.9,38.1 37.5,37.1 38.5,36.8 C39.5,36.6 40.5,37.2 40.7,38.2 C40.9,39.2 40.3,40.2 39.3,40.5 C38.4,40.8 37.4,40.1 37.1,39.1 L37.1,39.1 Z" id="Shape"></path>
                        <path d="M29.8,40.6 C29.6,39.6 30.3,38.6 31.3,38.4 C32.3,38.2 33.3,38.8 33.5,39.9 C33.7,40.9 33.1,41.9 32,42.1 C31,42.3 30,41.6 29.8,40.6 L29.8,40.6 Z" id="Shape"></path>
                        <path d="M22.4,41.9 C22.2,40.9 22.9,39.9 23.9,39.7 C24.9,39.5 25.9,40.2 26.1,41.2 C26.3,42.2 25.6,43.2 24.6,43.4 C23.5,43.6 22.5,42.9 22.4,41.9 L22.4,41.9 Z" id="Shape"></path>
                        <path d="M14.9,43 C14.8,42 15.5,41 16.5,40.9 C17.5,40.8 18.5,41.5 18.6,42.5 C18.7,43.5 18,44.5 17,44.6 C16,44.7 15,44 14.9,43 L14.9,43 Z" id="Shape"></path>
                        <path d="M7.4,43.7 C7.3,42.7 8.1,41.7 9.1,41.7 C10.1,41.6 11,42.4 11.1,43.4 C11.2,44.4 10.4,45.3 9.4,45.4 C8.4,45.5 7.5,44.8 7.4,43.7 L7.4,43.7 Z" id="Shape"></path>
                        <path d="M-0.1,44.1 C-0.1,43 0.7,42.2 1.7,42.2 C2.7,42.1 3.6,42.9 3.7,44 C3.8,45 3,45.9 1.9,46 C0.8,46 1.13686838e-13,45.1 -0.1,44.1 L-0.1,44.1 Z" id="Shape"></path>
                    </g>
                    <path d="M292.1,127.4 L298.8,120.7 C299.6,119.9 299.6,118.7 298.8,117.9 C298,117.1 296.8,117.1 296,117.9 L289.3,124.6 L282.6,117.9 C281.8,117.1 280.6,117.1 279.8,117.9 C279,118.7 279,119.9 279.8,120.7 L286.5,127.4 L279.8,134.1 C279,134.9 279,136.1 279.8,136.9 C280.2,137.3 280.7,137.5 281.2,137.5 C281.7,137.5 282.2,137.3 282.6,136.9 L289.3,130.2 L296,136.9 C296.4,137.3 296.9,137.5 297.4,137.5 C297.9,137.5 298.4,137.3 298.8,136.9 C299.6,136.1 299.6,134.9 298.8,134.1 L292.1,127.4 L292.1,127.4 Z" id="Shape" fill="#8E8E8E"></path>
                    <path d="M13.2,44.2 L19.9,37.5 C20.7,36.7 20.7,35.5 19.9,34.7 C19.1,33.9 17.9,33.9 17.1,34.7 L10.4,41.4 L3.7,34.7 C2.9,33.9 1.7,33.9 0.9,34.7 C0.1,35.5 0.1,36.7 0.9,37.5 L7.6,44.2 L0.9,50.9 C0.1,51.7 0.1,52.9 0.9,53.7 C1.3,54.1 1.8,54.3 2.3,54.3 C2.8,54.3 3.3,54.1 3.7,53.7 L10.4,47 L17.1,53.7 C17.5,54.1 18,54.3 18.5,54.3 C19,54.3 19.5,54.1 19.9,53.7 C20.7,52.9 20.7,51.7 19.9,50.9 L13.2,44.2 L13.2,44.2 Z" id="Shape" fill="#8E8E8E"></path>
                </g>
            </g>
        </g>
    </g>
</svg>