<?xml version="1.0" encoding="UTF-8" standalone="no"?>
<svg width="361px" height="336px" viewBox="0 0 361 336" version="1.1" xmlns="http://www.w3.org/2000/svg" xmlns:xlink="http://www.w3.org/1999/xlink" xmlns:sketch="http://www.bohemiancoding.com/sketch/ns">
    <!-- Generator: Sketch 3.1 (8751) - http://www.bohemiancoding.com/sketch -->
    <title>layout-1-path-2</title>
    <desc>Created with Sketch.</desc>
    <defs></defs>
    <g id="Page-1" stroke="none" stroke-width="1" fill="none" fill-rule="evenodd" sketch:type="MSPage">
        <g id="Главная" sketch:type="MSArtboardGroup" transform="translate(-992.000000, -1504.000000)" fill="#FFFFFF">
            <g id="lines" sketch:type="MSLayerGroup" transform="translate(1.000000, 542.000000)">
                <g id="layout-1" transform="translate(0.000000, 712.000000)" sketch:type="MSShapeGroup">
                    <g id="layout-1-path-2" transform="translate(991.000000, 251.000000)">
                        <g id="Group" transform="translate(37.000000, 28.000000)">
                            <path d="M4.1,185.6 C3.8,186.6 2.7,187.1 1.7,186.8 C0.7,186.5 0.2,185.4 0.5,184.4 C0.8,183.4 1.9,182.8 2.9,183.2 C3.9,183.5 4.5,184.6 4.1,185.6 L4.1,185.6 Z" id="Shape"></path>
                            <path d="M11.2,188.2 C10.8,189.2 9.7,189.7 8.8,189.3 C7.8,188.9 7.4,187.9 7.7,186.9 C8.1,185.9 9.1,185.4 10.1,185.8 C11.1,186.2 11.6,187.2 11.2,188.2 L11.2,188.2 Z" id="Shape"></path>
                            <path d="M18.1,191.1 C17.7,192 16.5,192.5 15.6,192.1 C14.7,191.7 14.2,190.6 14.6,189.6 C15,188.6 16.1,188.2 17.1,188.6 C18.1,189.1 18.6,190.2 18.1,191.1 L18.1,191.1 Z" id="Shape"></path>
                            <path d="M24.9,194.5 C24.4,195.4 23.3,195.8 22.4,195.3 C21.5,194.8 21.1,193.7 21.6,192.8 C22.1,191.9 23.2,191.5 24.1,192 C25,192.5 25.4,193.6 24.9,194.5 L24.9,194.5 Z" id="Shape"></path>
                            <path d="M31.4,198.2 C30.9,199.1 29.7,199.4 28.8,198.9 C27.9,198.4 27.6,197.2 28.1,196.3 C28.6,195.4 29.8,195.1 30.7,195.6 C31.7,196.2 32,197.3 31.4,198.2 L31.4,198.2 Z" id="Shape"></path>
                            <path d="M37.8,202.2 C37.2,203.1 36.1,203.3 35.2,202.7 C34.3,202.1 34.1,201 34.7,200.1 C35.3,199.2 36.4,199 37.3,199.6 C38.2,200.2 38.4,201.4 37.8,202.2 L37.8,202.2 Z" id="Shape"></path>
                            <path d="M44,206.6 C43.4,207.4 42.2,207.6 41.4,207 C40.6,206.4 40.4,205.2 41,204.4 C41.6,203.5 42.8,203.4 43.6,204 C44.4,204.6 44.6,205.8 44,206.6 L44,206.6 Z" id="Shape"></path>
                            <path d="M50,211.2 C49.3,212 48.2,212.1 47.4,211.5 C46.6,210.9 46.5,209.7 47.1,208.8 C47.7,208 48.9,207.8 49.7,208.5 C50.5,209.2 50.6,210.4 50,211.2 L50,211.2 Z" id="Shape"></path>
                            <path d="M55.7,216 C55,216.8 53.8,216.9 53,216.2 C52.2,215.5 52.1,214.3 52.8,213.5 C53.5,212.7 54.7,212.6 55.5,213.3 C56.3,214.1 56.4,215.2 55.7,216 L55.7,216 Z" id="Shape"></path>
                            <path d="M61.4,221.1 C60.7,221.9 59.5,221.9 58.7,221.2 C57.9,220.5 57.9,219.3 58.6,218.5 C59.3,217.7 60.5,217.7 61.3,218.4 C62,219.1 62.1,220.3 61.4,221.1 L61.4,221.1 Z" id="Shape"></path>
                            <path d="M66.8,226.2 C66.1,226.9 64.9,227 64.1,226.3 C63.4,225.6 63.3,224.4 64,223.6 C64.7,222.8 65.9,222.8 66.7,223.5 C67.5,224.2 67.6,225.5 66.8,226.2 L66.8,226.2 Z" id="Shape"></path>
                            <path d="M72.2,231.6 C71.5,232.3 70.3,232.3 69.5,231.6 C68.8,230.9 68.8,229.7 69.5,228.9 C70.2,228.2 71.4,228.2 72.2,228.9 C73,229.6 72.9,230.8 72.2,231.6 L72.2,231.6 Z" id="Shape"></path>
                            <path d="M77.5,237 C76.7,237.7 75.6,237.7 74.8,237 C74.1,236.3 74.1,235.1 74.8,234.3 C75.5,233.6 76.7,233.6 77.5,234.3 C78.2,235 78.2,236.2 77.5,237 L77.5,237 Z" id="Shape"></path>
                            <circle id="Oval" cx="81.9" cy="240.9" r="1.9"></circle>
                            <circle id="Oval" cx="86.9" cy="246.9" r="1.9"></circle>
                            <path d="M93.1,253.3 C92.3,254 91.2,254 90.4,253.2 C89.7,252.4 89.7,251.3 90.5,250.5 C91.3,249.8 92.4,249.8 93.2,250.6 C93.9,251.4 93.9,252.6 93.1,253.3 L93.1,253.3 Z" id="Shape"></path>
                            <path d="M98.4,258.7 C97.7,259.4 96.5,259.4 95.7,258.7 C95,258 95,256.8 95.7,256 C96.4,255.3 97.6,255.3 98.4,256 C99.1,256.8 99.1,258 98.4,258.7 L98.4,258.7 Z" id="Shape"></path>
                            <path d="M103.8,264 C103.1,264.7 101.9,264.8 101.1,264 C100.4,263.3 100.3,262.1 101.1,261.3 C101.8,260.6 103,260.6 103.8,261.3 C104.4,262.1 104.5,263.3 103.8,264 L103.8,264 Z" id="Shape"></path>
                            <path d="M109.3,269.2 C108.6,270 107.4,270 106.6,269.3 C105.8,268.6 105.8,267.4 106.5,266.6 C107.2,265.8 108.4,265.8 109.1,266.5 C109.9,267.2 110,268.4 109.3,269.2 L109.3,269.2 Z" id="Shape"></path>
                            <path d="M114.9,274.2 C114.2,275 113,275.1 112.2,274.4 C111.4,273.7 111.3,272.5 112,271.7 C112.7,270.9 113.9,270.9 114.6,271.5 C115.5,272.2 115.6,273.4 114.9,274.2 L114.9,274.2 Z" id="Shape"></path>
                            <path d="M120.8,278.9 C120.2,279.7 119,279.9 118.1,279.2 C117.3,278.6 117.2,277.3 117.8,276.5 C118.5,275.7 119.6,275.6 120.4,276.2 C121.3,276.9 121.4,278.1 120.8,278.9 L120.8,278.9 Z" id="Shape"></path>
                            <path d="M126.8,283.4 C126.2,284.3 125,284.5 124.2,283.9 C123.3,283.3 123.1,282.1 123.8,281.3 C124.4,280.5 125.6,280.3 126.4,280.9 C127.2,281.4 127.4,282.5 126.8,283.4 L126.8,283.4 Z" id="Shape"></path>
                            <path d="M133.1,287.5 C132.6,288.4 131.4,288.7 130.5,288.1 C129.6,287.5 129.3,286.4 129.9,285.5 C130.5,284.6 131.6,284.4 132.5,284.9 C133.4,285.5 133.7,286.7 133.1,287.5 L133.1,287.5 Z" id="Shape"></path>
                            <path d="M139.7,291.3 C139.2,292.2 138.1,292.6 137.1,292 C136.2,291.5 135.8,290.3 136.4,289.4 C136.9,288.5 138.1,288.2 139,288.7 C139.8,289.2 140.2,290.4 139.7,291.3 L139.7,291.3 Z" id="Shape"></path>
                            <path d="M146.4,294.6 C146,295.6 144.8,296 143.9,295.5 C142.9,295.1 142.5,293.9 143,293 C143.5,292.1 144.6,291.7 145.5,292.1 C146.4,292.6 146.9,293.7 146.4,294.6 L146.4,294.6 Z" id="Shape"></path>
                            <path d="M153.4,297.5 C153,298.5 151.9,299 151,298.6 C150,298.2 149.5,297.1 149.9,296.2 C150.3,295.2 151.4,294.8 152.3,295.1 C153.3,295.4 153.8,296.5 153.4,297.5 L153.4,297.5 Z" id="Shape"></path>
                            <path d="M160.6,299.9 C160.3,300.9 159.2,301.5 158.2,301.1 C157.2,300.7 156.6,299.7 157,298.7 C157.3,297.7 158.4,297.2 159.4,297.5 C160.4,297.8 160.8,298.9 160.6,299.9 L160.6,299.9 Z" id="Shape"></path>
                            <path d="M167.9,301.8 C167.7,302.8 166.7,303.4 165.6,303.2 C164.6,303 163.9,301.9 164.2,300.9 C164.5,299.9 165.5,299.3 166.5,299.5 C167.5,299.7 168.1,300.8 167.9,301.8 L167.9,301.8 Z" id="Shape"></path>
                            <path d="M175.3,303.2 C175.1,304.2 174.2,304.9 173.1,304.8 C172.1,304.6 171.4,303.7 171.6,302.6 C171.8,301.6 172.8,300.9 173.8,301.1 C174.8,301.3 175.4,302.1 175.3,303.2 L175.3,303.2 Z" id="Shape"></path>
                            <path d="M182.8,304.1 C182.7,305.1 181.8,305.9 180.7,305.8 C179.6,305.7 178.9,304.8 179,303.7 C179.1,302.7 180.1,301.9 181.1,302 C182.1,302.1 182.8,303 182.8,304.1 L182.8,304.1 Z" id="Shape"></path>
                            <path d="M190.3,304.5 C190.3,305.5 189.4,306.4 188.3,306.3 C187.2,306.3 186.4,305.4 186.5,304.4 C186.6,303.4 187.5,302.5 188.5,302.6 C189.5,302.6 190.3,303.5 190.3,304.5 L190.3,304.5 Z" id="Shape"></path>
                            <path d="M197.8,304.6 C197.8,305.6 197,306.5 195.9,306.5 C194.8,306.5 194,305.6 194,304.6 C194,303.5 194.9,302.8 195.9,302.7 C196.9,302.8 197.8,303.6 197.8,304.6 L197.8,304.6 Z" id="Shape"></path>
                            <path d="M205.3,304.2 C205.4,305.2 204.6,306.2 203.6,306.2 C202.6,306.2 201.6,305.5 201.6,304.5 C201.5,303.5 202.3,302.5 203.3,302.5 C204.3,302.4 205.2,303.2 205.3,304.2 L205.3,304.2 Z" id="Shape"></path>
                            <path d="M212.8,303.3 C213,304.3 212.3,305.3 211.2,305.4 C210.1,305.5 209.2,304.8 209.1,303.8 C209,302.8 209.7,301.8 210.7,301.7 C211.7,301.5 212.7,302.2 212.8,303.3 L212.8,303.3 Z" id="Shape"></path>
                            <path d="M220.2,301.8 C220.4,302.8 219.8,303.9 218.8,304 C217.8,304.2 216.8,303.5 216.6,302.5 C216.4,301.5 217.1,300.5 218.1,300.3 C219,300.2 220,300.8 220.2,301.8 L220.2,301.8 Z" id="Shape"></path>
                            <path d="M227.5,299.9 C227.8,300.9 227.2,302 226.2,302.3 C225.2,302.6 224.1,302 223.9,301 C223.6,300 224.2,299 225.2,298.7 C226.2,298.3 227.2,298.9 227.5,299.9 L227.5,299.9 Z" id="Shape"></path>
                            <path d="M234.7,297.5 C235.1,298.5 234.6,299.6 233.6,299.9 C232.6,300.3 231.5,299.8 231.2,298.8 C230.9,297.8 231.4,296.7 232.4,296.4 C233.2,296 234.3,296.5 234.7,297.5 L234.7,297.5 Z" id="Shape"></path>
                            <path d="M241.7,294.7 C242.1,295.7 241.7,296.8 240.7,297.2 C239.7,297.6 238.6,297.2 238.2,296.2 C237.8,295.2 238.3,294.1 239.2,293.7 C240.1,293.3 241.2,293.7 241.7,294.7 L241.7,294.7 Z" id="Shape"></path>
                            <path d="M248.5,291.4 C249,292.3 248.6,293.5 247.6,293.9 C246.6,294.3 245.5,294 245.1,293 C244.7,292.1 245,290.9 246,290.5 C246.9,290.1 248,290.5 248.5,291.4 L248.5,291.4 Z" id="Shape"></path>
                            <path d="M255.1,287.8 C255.6,288.7 255.3,289.9 254.4,290.4 C253.5,290.9 252.3,290.6 251.8,289.7 C251.3,288.8 251.6,287.7 252.5,287.2 C253.4,286.6 254.5,286.9 255.1,287.8 L255.1,287.8 Z" id="Shape"></path>
                            <path d="M261.5,283.8 C262.1,284.7 261.8,285.8 261,286.4 C260.1,287 258.9,286.7 258.4,285.8 C257.8,284.9 258.1,283.8 259,283.2 C259.7,282.7 260.9,282.9 261.5,283.8 L261.5,283.8 Z" id="Shape"></path>
                            <path d="M267.6,279.4 C268.2,280.2 268,281.4 267.2,282 C266.3,282.6 265.2,282.4 264.6,281.6 C264,280.7 264.2,279.6 265,279 C265.8,278.4 267,278.6 267.6,279.4 L267.6,279.4 Z" id="Shape"></path>
                            <path d="M273.5,274.7 C274.2,275.5 274.1,276.7 273.2,277.3 C272.4,278 271.2,277.8 270.5,277 C269.9,276.2 270,275 270.8,274.4 C271.7,273.8 272.9,273.9 273.5,274.7 L273.5,274.7 Z" id="Shape"></path>
                            <path d="M279.2,269.7 C279.9,270.5 279.9,271.7 279.1,272.4 C278.3,273.1 277.1,273 276.4,272.3 C275.7,271.5 275.8,270.3 276.5,269.7 C277.3,268.9 278.5,269 279.2,269.7 L279.2,269.7 Z" id="Shape"></path>
                            <path d="M284.5,264.4 C285.3,265.1 285.3,266.3 284.6,267.1 C283.8,267.8 282.6,267.8 281.9,267.1 C281.2,266.4 281.2,265.2 281.9,264.5 C282.6,263.7 283.7,263.7 284.5,264.4 L284.5,264.4 Z" id="Shape"></path>
                            <path d="M289.6,258.8 C290.4,259.5 290.5,260.7 289.8,261.5 C289.1,262.3 287.9,262.4 287.1,261.7 C286.3,261 286.3,259.8 286.9,259 C287.6,258.2 288.8,258.1 289.6,258.8 L289.6,258.8 Z" id="Shape"></path>
                            <path d="M294.3,252.9 C295.1,253.5 295.3,254.7 294.6,255.6 C293.9,256.4 292.8,256.6 292,255.9 C291.2,255.2 291,254.1 291.7,253.2 C292.4,252.3 293.5,252.3 294.3,252.9 L294.3,252.9 Z" id="Shape"></path>
                            <path d="M298.7,246.8 C299.6,247.4 299.8,248.6 299.2,249.4 C298.6,250.2 297.4,250.5 296.6,249.9 C295.8,249.3 295.6,248.1 296.1,247.3 C296.6,246.5 297.9,246.2 298.7,246.8 L298.7,246.8 Z" id="Shape"></path>
                            <path d="M302.8,240.5 C303.7,241 304,242.2 303.4,243.1 C302.8,244 301.7,244.3 300.8,243.7 C299.9,243.1 299.7,242 300.2,241.1 C300.8,240.2 302,240 302.8,240.5 L302.8,240.5 Z" id="Shape"></path>
                            <path d="M306.6,233.9 C307.5,234.4 307.9,235.6 307.4,236.5 C306.9,237.4 305.7,237.7 304.8,237.2 C303.9,236.7 303.6,235.5 304.1,234.7 C304.5,233.8 305.6,233.4 306.6,233.9 L306.6,233.9 Z" id="Shape"></path>
                            <path d="M309.9,227.2 C310.8,227.6 311.3,228.8 310.8,229.7 C310.4,230.7 309.2,231 308.3,230.6 C307.4,230.1 307,229 307.4,228.1 C307.8,227.1 309,226.7 309.9,227.2 L309.9,227.2 Z" id="Shape"></path>
                            <path d="M312.9,220.2 C313.9,220.6 314.3,221.7 313.9,222.7 C313.5,223.7 312.4,224.1 311.5,223.7 C310.5,223.3 310.1,222.2 310.5,221.2 C310.9,220.2 311.9,219.9 312.9,220.2 L312.9,220.2 Z" id="Shape"></path>
                            <path d="M315.5,213.2 C316.5,213.5 317,214.6 316.7,215.6 C316.4,216.6 315.3,217.1 314.3,216.8 C313.3,216.4 312.8,215.4 313.1,214.4 C313.4,213.4 314.5,212.8 315.5,213.2 L315.5,213.2 Z" id="Shape"></path>
                            <path d="M317.7,205.9 C318.7,206.2 319.3,207.2 319,208.2 C318.7,209.2 317.7,209.8 316.7,209.5 C315.7,209.2 315.1,208.2 315.4,207.2 C315.6,206.3 316.7,205.7 317.7,205.9 L317.7,205.9 Z" id="Shape"></path>
                            <path d="M319.4,198.6 C320.4,198.8 321.1,199.8 320.8,200.8 C320.6,201.8 319.5,202.5 318.5,202.2 C317.5,202 316.9,201 317.1,200 C317.4,199 318.4,198.4 319.4,198.6 L319.4,198.6 Z" id="Shape"></path>
                            <path d="M320.7,191.2 C321.7,191.3 322.5,192.3 322.3,193.4 C322.1,194.4 321.1,195.1 320.1,195 C319.1,194.8 318.4,193.9 318.6,192.8 C318.7,191.7 319.6,191 320.7,191.2 L320.7,191.2 Z" id="Shape"></path>
                            <path d="M321.5,183.7 C322.5,183.8 323.3,184.7 323.2,185.8 C323.1,186.9 322.1,187.6 321.1,187.5 C320.1,187.4 319.4,186.5 319.4,185.4 C319.6,184.4 320.5,183.6 321.5,183.7 L321.5,183.7 Z" id="Shape"></path>
                            <path d="M321.9,176.1 C322.9,176.1 323.8,177 323.7,178.1 C323.7,179.2 322.8,180 321.8,179.9 C320.8,179.8 319.9,179 320,177.9 C320,176.9 320.9,176.1 321.9,176.1 L321.9,176.1 Z" id="Shape"></path>
                            <path d="M321.9,168.6 C322.9,168.6 323.8,169.4 323.8,170.4 C323.8,171.5 323,172.3 322,172.3 C321,172.3 320.1,171.5 320.1,170.5 C320,169.5 320.9,168.6 321.9,168.6 L321.9,168.6 Z" id="Shape"></path>
                            <path d="M321.5,161.1 C322.5,161 323.4,161.8 323.5,162.8 C323.6,163.9 322.8,164.8 321.8,164.8 C320.8,164.9 319.9,164.1 319.8,163.1 C319.6,162.1 320.4,161.2 321.5,161.1 L321.5,161.1 Z" id="Shape"></path>
                            <path d="M320.5,153.6 C321.5,153.4 322.5,154.2 322.6,155.2 C322.7,156.3 322,157.2 321,157.3 C320,157.4 319,156.7 318.9,155.7 C318.8,154.7 319.5,153.8 320.5,153.6 L320.5,153.6 Z" id="Shape"></path>
                            <path d="M319.1,146.2 C320.1,146 321.1,146.6 321.4,147.6 C321.6,148.6 320.9,149.6 319.9,149.8 C318.9,150 317.9,149.3 317.7,148.3 C317.5,147.4 318.1,146.4 319.1,146.2 L319.1,146.2 Z" id="Shape"></path>
                            <path d="M317.1,138.9 C318.1,138.6 319.1,139.2 319.4,140.2 C319.7,141.2 319.1,142.3 318.1,142.5 C317.1,142.8 316,142.2 315.8,141.2 C315.6,140.3 316.1,139.2 317.1,138.9 L317.1,138.9 Z" id="Shape"></path>
                            <path d="M314.6,131.8 C315.6,131.4 316.7,131.9 317.1,132.9 C317.5,133.9 317,135 316,135.4 C315,135.7 313.9,135.3 313.6,134.3 C313.2,133.3 313.6,132.2 314.6,131.8 L314.6,131.8 Z" id="Shape"></path>
                            <path d="M311.4,125 C312.3,124.5 313.5,124.9 314,125.8 C314.5,126.7 314.1,127.9 313.1,128.3 C312.2,128.7 311.1,128.3 310.6,127.4 C310.1,126.6 310.5,125.5 311.4,125 L311.4,125 Z" id="Shape"></path>
                            <path d="M307.7,118.4 C308.6,117.8 309.8,118.1 310.3,119 C310.8,119.9 310.6,121.1 309.6,121.6 C308.7,122.1 307.5,121.8 307,121 C306.5,120.1 306.8,119 307.7,118.4 L307.7,118.4 Z" id="Shape"></path>
                            <path d="M303.3,112.3 C304.1,111.7 305.3,111.8 306,112.7 C306.7,113.5 306.5,114.7 305.6,115.3 C304.8,115.9 303.6,115.7 303,114.9 C302.3,114.1 302.5,112.9 303.3,112.3 L303.3,112.3 Z" id="Shape"></path>
                            <path d="M298.4,106.6 C299.2,105.9 300.4,105.9 301.1,106.7 C301.8,107.5 301.7,108.7 300.9,109.4 C300.1,110.1 298.9,110 298.3,109.2 C297.6,108.4 297.6,107.3 298.4,106.6 L298.4,106.6 Z" id="Shape"></path>
                            <path d="M293,101.3 C293.7,100.5 294.9,100.5 295.7,101.2 C296.5,101.9 296.5,103.1 295.8,103.9 C295.1,104.6 293.9,104.7 293.1,104 C292.4,103.2 292.3,102 293,101.3 L293,101.3 Z" id="Shape"></path>
                            <path d="M287.2,96.4 C287.8,95.6 289.1,95.4 289.9,96.1 C290.7,96.8 290.8,98 290.2,98.8 C289.5,99.6 288.4,99.7 287.6,99.1 C286.8,98.4 286.6,97.3 287.2,96.4 L287.2,96.4 Z" id="Shape"></path>
                            <path d="M281.1,92 C281.7,91.1 282.9,90.9 283.7,91.5 C284.6,92.1 284.8,93.3 284.2,94.1 C283.6,94.9 282.4,95.2 281.6,94.6 C280.8,94.1 280.5,92.9 281.1,92 L281.1,92 Z" id="Shape"></path>
                            <path d="M274.7,88 C275.2,87.1 276.4,86.8 277.3,87.3 C278.2,87.9 278.5,89 277.9,89.9 C277.3,90.8 276.2,91.1 275.3,90.5 C274.5,90 274.2,88.9 274.7,88 L274.7,88 Z" id="Shape"></path>
                            <path d="M268.1,84.4 C268.6,83.5 269.7,83.1 270.7,83.6 C271.6,84.1 272,85.2 271.5,86.1 C271,87 269.9,87.4 268.9,86.9 C268,86.5 267.6,85.3 268.1,84.4 L268.1,84.4 Z" id="Shape"></path>
                            <path d="M261.3,81.1 C261.7,80.1 262.9,79.7 263.8,80.2 C264.8,80.7 265.2,81.8 264.7,82.7 C264.2,83.6 263.1,84 262.2,83.6 C261.3,83.2 260.9,82.1 261.3,81.1 L261.3,81.1 Z" id="Shape"></path>
                            <path d="M254.4,78.1 C254.8,77.1 255.9,76.7 256.9,77.1 C257.9,77.5 258.3,78.6 257.9,79.6 C257.5,80.6 256.4,81 255.4,80.6 C254.5,80.2 254,79.1 254.4,78.1 L254.4,78.1 Z" id="Shape"></path>
                            <path d="M247.4,75.4 C247.8,74.4 248.8,73.9 249.8,74.3 C250.8,74.7 251.3,75.8 250.9,76.7 C250.5,77.7 249.4,78.2 248.5,77.8 C247.5,77.5 247,76.4 247.4,75.4 L247.4,75.4 Z" id="Shape"></path>
                            <path d="M240.2,72.9 C240.5,71.9 241.6,71.4 242.6,71.7 C243.6,72.1 244.1,73.1 243.8,74.1 C243.5,75.1 242.4,75.6 241.4,75.3 C240.4,75 239.9,73.9 240.2,72.9 L240.2,72.9 Z" id="Shape"></path>
                            <path d="M233.1,70.6 C233.4,69.6 234.5,69 235.5,69.4 C236.5,69.8 237.1,70.8 236.7,71.8 C236.4,72.8 235.3,73.3 234.3,73 C233.3,72.7 232.7,71.6 233.1,70.6 L233.1,70.6 Z" id="Shape"></path>
                            <path d="M225.8,68.5 C226.1,67.5 227.1,66.9 228.1,67.2 C229.1,67.5 229.7,68.5 229.4,69.5 C229.1,70.5 228.1,71.1 227.1,70.8 C226.1,70.5 225.5,69.5 225.8,68.5 L225.8,68.5 Z" id="Shape"></path>
                            <path d="M218.5,66.5 C218.8,65.5 219.8,64.9 220.8,65.2 C221.8,65.5 222.4,66.5 222.1,67.5 C221.8,68.5 220.8,69.1 219.8,68.8 C218.9,68.5 218.3,67.5 218.5,66.5 L218.5,66.5 Z" id="Shape"></path>
                            <path d="M211.2,64.6 C211.5,63.6 212.5,63 213.5,63.2 C214.5,63.5 215.1,64.5 214.9,65.5 C214.6,66.5 213.6,67.1 212.6,66.9 C211.6,66.6 211,65.6 211.2,64.6 L211.2,64.6 Z" id="Shape"></path>
                            <path d="M203.9,62.8 C204.1,61.8 205.2,61.2 206.2,61.4 C207.2,61.6 207.8,62.7 207.6,63.7 C207.4,64.7 206.3,65.3 205.3,65.1 C204.3,64.8 203.7,63.8 203.9,62.8 L203.9,62.8 Z" id="Shape"></path>
                            <path d="M196.6,61.1 C196.8,60.1 197.8,59.4 198.9,59.7 C199.9,59.9 200.5,61 200.3,62 C200.1,63 199,63.6 198,63.4 C197,63.1 196.3,62.1 196.6,61.1 L196.6,61.1 Z" id="Shape"></path>
                            <circle id="Oval" cx="190.9" cy="59.9" r="1.9"></circle>
                            <circle id="Oval" cx="183.9" cy="57.9" r="1.9"></circle>
                            <circle id="Oval" cx="175.9" cy="56.9" r="1.9"></circle>
                            <circle id="Oval" cx="168.9" cy="54.9" r="1.9"></circle>
                            <path d="M159.8,52.8 C160,51.8 161,51.2 162.1,51.4 C163.2,51.6 163.7,52.6 163.5,53.7 C163.3,54.7 162.3,55.3 161.2,55.1 C160.2,54.8 159.5,53.8 159.8,52.8 L159.8,52.8 Z" id="Shape"></path>
                            <path d="M152.4,51 C152.6,50 153.7,49.4 154.7,49.6 C155.7,49.8 156.3,50.9 156.1,51.9 C155.9,52.9 154.8,53.5 153.8,53.3 C152.8,53.1 152.2,52 152.4,51 L152.4,51 Z" id="Shape"></path>
                            <path d="M145.1,49.2 C145.4,48.2 146.4,47.6 147.4,47.8 C148.4,48 149,49.1 148.8,50.1 C148.6,51.1 147.5,51.7 146.5,51.5 C145.5,51.3 144.9,50.2 145.1,49.2 L145.1,49.2 Z" id="Shape"></path>
                            <path d="M137.8,47.3 C138.1,46.3 139.1,45.7 140.1,46 C141.1,46.3 141.7,47.3 141.4,48.3 C141.1,49.3 140.1,49.9 139.1,49.6 C138.1,49.4 137.5,48.3 137.8,47.3 L137.8,47.3 Z" id="Shape"></path>
                            <path d="M130.5,45.3 C130.8,44.3 131.8,43.7 132.8,44 C133.8,44.3 134.4,45.3 134.1,46.3 C133.8,47.3 132.8,47.9 131.8,47.6 C130.8,47.3 130.3,46.3 130.5,45.3 L130.5,45.3 Z" id="Shape"></path>
                            <path d="M123.3,43.1 C123.6,42.1 124.7,41.6 125.7,41.9 C126.7,42.2 127.3,43.2 127,44.2 C126.7,45.2 125.6,45.8 124.6,45.5 C123.6,45.2 123,44.1 123.3,43.1 L123.3,43.1 Z" id="Shape"></path>
                            <path d="M116.1,40.8 C116.4,39.8 117.5,39.3 118.5,39.6 C119.5,39.9 120,41 119.7,42 C119.4,43 118.3,43.5 117.3,43.2 C116.3,42.8 115.8,41.8 116.1,40.8 L116.1,40.8 Z" id="Shape"></path>
                            <path d="M109,38.3 C109.4,37.3 110.5,36.8 111.4,37.2 C112.4,37.6 112.9,38.6 112.5,39.6 C112.2,40.6 111.1,41.1 110.1,40.7 C109.2,40.3 108.7,39.2 109,38.3 L109,38.3 Z" id="Shape"></path>
                            <path d="M102,35.5 C102.4,34.5 103.5,34.1 104.4,34.5 C105.4,34.9 105.8,36 105.4,36.9 C105,37.9 103.9,38.3 102.9,38 C102.1,37.6 101.6,36.4 102,35.5 L102,35.5 Z" id="Shape"></path>
                            <path d="M95.1,32.4 C95.5,31.5 96.7,31 97.6,31.5 C98.5,31.9 99,33 98.5,34 C98.1,35 97,35.4 96,34.9 C95,34.4 94.7,33.4 95.1,32.4 L95.1,32.4 Z" id="Shape"></path>
                            <path d="M88.4,29.1 C88.9,28.2 90,27.8 90.9,28.3 C91.8,28.8 92.2,29.9 91.7,30.8 C91.2,31.7 90.1,32.1 89.2,31.6 C88.2,31.2 87.9,30 88.4,29.1 L88.4,29.1 Z" id="Shape"></path>
                            <path d="M81.8,25.4 C82.3,24.5 83.5,24.2 84.4,24.7 C85.3,25.2 85.6,26.4 85.1,27.3 C84.6,28.2 83.4,28.5 82.5,28 C81.6,27.5 81.3,26.3 81.8,25.4 L81.8,25.4 Z" id="Shape"></path>
                            <path d="M75.4,21.3 C76,20.4 77.1,20.2 78,20.8 C78.9,21.4 79.1,22.5 78.5,23.4 C77.9,24.3 76.8,24.5 75.9,23.9 C75.1,23.4 74.8,22.2 75.4,21.3 L75.4,21.3 Z" id="Shape"></path>
                            <path d="M69.4,16.8 C70.1,16 71.2,15.8 72,16.5 C72.8,17.1 73,18.3 72.4,19.1 C71.8,19.9 70.6,20.1 69.8,19.5 C68.9,18.9 68.7,17.7 69.4,16.8 L69.4,16.8 Z" id="Shape"></path>
                            <path d="M63.7,11.9 C64.4,11.1 65.6,11.1 66.4,11.8 C67.2,12.5 67.2,13.7 66.6,14.4 C65.9,15.2 64.7,15.3 63.9,14.6 C63,13.9 62.9,12.7 63.7,11.9 L63.7,11.9 Z" id="Shape"></path>
                            <path d="M58.4,6.6 C59.2,5.9 60.4,5.9 61.1,6.7 C61.8,7.4 61.8,8.6 61,9.4 C60.3,10.1 59.1,10.1 58.3,9.3 C57.6,8.5 57.6,7.3 58.4,6.6 L58.4,6.6 Z" id="Shape"></path>
                            <path d="M53.6,0.8 C54.4,0.2 55.6,0.4 56.2,1.1 C56.8,1.9 56.7,3.1 55.9,3.7 C55.1,4.4 53.9,4.2 53.2,3.4 C52.5,2.6 52.7,1.4 53.6,0.8 L53.6,0.8 Z" id="Shape"></path>
                        </g>
                        <g id="Group" transform="translate(58.000000, 0.000000)">
                            <path d="M18.5,20.1 C18,20.1 17.5,19.9 17.1,19.5 L0.9,3.3 C0.1,2.5 0.1,1.3 0.9,0.5 C1.7,-0.3 2.9,-0.3 3.7,0.5 L19.9,16.7 C20.7,17.5 20.7,18.7 19.9,19.5 C19.5,19.9 19,20.1 18.5,20.1 L18.5,20.1 Z" id="Shape"></path>
                            <path d="M2.3,20.1 C1.8,20.1 1.3,19.9 0.9,19.5 C0.1,18.7 0.1,17.5 0.9,16.7 L17.1,0.5 C17.9,-0.3 19.1,-0.3 19.9,0.5 C20.7,1.3 20.7,2.5 19.9,3.3 L3.7,19.5 C3.4,19.9 2.9,20.1 2.3,20.1 L2.3,20.1 Z" id="Shape"></path>
                        </g>
                        <g id="Group" transform="translate(0.000000, 201.000000)">
                            <path d="M18.3,20.4 C17.8,20.4 17.3,20.2 16.9,19.8 L0.7,3.6 C-0.1,2.8 -0.1,1.6 0.7,0.8 C1.5,2.84217094e-13 2.7,2.84217094e-13 3.5,0.8 L19.7,17 C20.5,17.8 20.5,19 19.7,19.8 C19.4,20.2 18.8,20.4 18.3,20.4 L18.3,20.4 Z" id="Shape"></path>
                            <path d="M2.1,20.4 C1.6,20.4 1.1,20.2 0.7,19.8 C-0.1,19 -0.1,17.8 0.7,17 L16.9,0.8 C17.7,2.84217094e-13 18.9,2.84217094e-13 19.7,0.8 C20.5,1.6 20.5,2.8 19.7,3.6 L3.5,19.8 C3.2,20.2 2.7,20.4 2.1,20.4 L2.1,20.4 Z" id="Shape"></path>
                        </g>
                    </g>
                </g>
            </g>
        </g>
    </g>
</svg>