<?xml version="1.0" encoding="UTF-8" standalone="no"?>
<svg width="919px" height="548px" viewBox="0 0 919 548" version="1.1" xmlns="http://www.w3.org/2000/svg" xmlns:xlink="http://www.w3.org/1999/xlink" xmlns:sketch="http://www.bohemiancoding.com/sketch/ns">
    <!-- Generator: Sketch 3.1 (8751) - http://www.bohemiancoding.com/sketch -->
    <title>layout-1-all-stars</title>
    <desc>Created with Sketch.</desc>
    <defs></defs>
    <g id="Page-1" stroke="none" stroke-width="1" fill="none" fill-rule="evenodd" sketch:type="MSPage">
        <g id="Главная" sketch:type="MSArtboardGroup" transform="translate(-226.000000, -1282.000000)">
            <g id="stars" sketch:type="MSLayerGroup" transform="translate(227.000000, 541.000000)">
                <g id="layout-1-all-stars" transform="translate(0.000000, 741.000000)" sketch:type="MSShapeGroup">
                    <g id="Group" transform="translate(155.000000, 52.000000)">
                        <path d="M8.4,17.3 C8,16.7 6.8,15 6.1,14.3 C5.4,13.6 3.7,12.4 3.1,12 L0.4,10.2 L3.1,8.4 C3.7,8 5.3,6.9 6.1,6.1 C6.8,5.4 8,3.7 8.4,3.1 L10.2,0.4 L12,3.1 C12.4,3.7 13.6,5.4 14.3,6.1 C15,6.8 16.7,8 17.3,8.4 L20,10.2 L17.3,12 C16.7,12.4 15.1,13.5 14.3,14.3 C13.6,15 12.4,16.7 12,17.3 L10.2,20 L8.4,17.3 L8.4,17.3 Z" id="Shape" fill="#FEF3E6"></path>
                        <path d="M12.8,7.7 C11.7,6.6 10.2,4.4 10.2,4.4 C10.2,4.4 8.7,6.7 7.6,7.7 C6.5,8.8 4.3,10.3 4.3,10.3 C4.3,10.3 6.5,11.8 7.6,12.9 C8.7,14 10.2,16.2 10.2,16.2 C10.2,16.2 11.7,13.9 12.8,12.9 C13.9,11.8 16.1,10.3 16.1,10.3 C16.1,10.3 13.9,8.7 12.8,7.7 L12.8,7.7 Z" id="Shape" fill="#000000"></path>
                    </g>
                    <g id="Group" transform="translate(0.000000, 255.000000)">
                        <path d="M7.6,16.6 C7.2,16 6,14.3 5.3,13.6 C4.6,12.9 2.9,11.7 2.3,11.3 L-0.4,9.5 L2.3,7.7 C2.9,7.3 4.5,6.2 5.3,5.4 C6,4.7 7.2,3 7.6,2.4 L9.4,-0.3 L11.2,2.4 C11.6,3 12.8,4.7 13.5,5.4 C14.2,6.1 15.9,7.3 16.5,7.7 L19.2,9.5 L16.5,11.3 C15.9,11.7 14.3,12.8 13.5,13.6 C12.8,14.3 11.6,16 11.2,16.6 L9.4,19.3 L7.6,16.6 L7.6,16.6 Z" id="Shape" fill="#FEF3E6"></path>
                        <path d="M12,6.9 C10.9,5.8 9.4,3.6 9.4,3.6 C9.4,3.6 7.9,5.9 6.8,6.9 C5.7,8 3.5,9.5 3.5,9.5 C3.5,9.5 5.7,11 6.8,12 C7.9,13.1 9.4,15.3 9.4,15.3 C9.4,15.3 10.9,13 12,12 C13.1,11 15.3,9.5 15.3,9.5 C15.3,9.5 13,8 12,6.9 L12,6.9 Z" id="Shape" fill="#000000"></path>
                    </g>
                    <g id="Group" transform="translate(22.000000, 239.000000)">
                        <path d="M4.1,9.2 C3.9,8.9 3.5,8.3 3.2,8.1 C3,7.9 2.4,7.5 2.1,7.3 L-0.2,5.8 L2.1,4.3 C2.4,4.1 3,3.7 3.2,3.5 C3.4,3.3 3.8,2.7 4.1,2.4 L5.6,0.2 L7.1,2.4 C7.3,2.7 7.7,3.3 8,3.5 C8.2,3.7 8.8,4.1 9.1,4.3 L11.4,5.8 L9.1,7.3 C8.8,7.5 8.2,7.9 8,8.1 C7.8,8.3 7.4,8.9 7.1,9.2 L5.6,11.4 L4.1,9.2 L4.1,9.2 Z" id="Shape" fill="#FEF3E6"></path>
                        <path d="M6.7,4.7 C6.3,4.3 5.6,3.3 5.6,3.3 C5.6,3.3 5,4.3 4.5,4.7 C4.1,5.1 3.1,5.8 3.1,5.8 C3.1,5.8 4,6.4 4.5,6.9 C4.9,7.3 5.6,8.3 5.6,8.3 C5.6,8.3 6.2,7.3 6.7,6.9 C7.1,6.5 8.1,5.8 8.1,5.8 C8.1,5.8 7.1,5.1 6.7,4.7 L6.7,4.7 Z" id="Shape" fill="#000000"></path>
                    </g>
                    <g id="Group" transform="translate(740.000000, 0.000000)">
                        <path d="M7.3,2.5 C7.5,2.8 7.9,3.4 8.2,3.6 C8.4,3.8 9,4.2 9.3,4.4 L11.6,5.9 L9.3,7.4 C9,7.6 8.4,8 8.2,8.2 C8,8.4 7.6,9 7.3,9.3 L5.8,11.5 L4.3,9.3 C4.1,9 3.7,8.4 3.4,8.2 C3.2,8 2.6,7.6 2.3,7.4 L0,5.9 L2.3,4.4 C2.6,4.2 3.2,3.8 3.4,3.6 C3.6,3.4 4,2.8 4.3,2.5 L5.8,0.3 L7.3,2.5 L7.3,2.5 Z" id="Shape" fill="#FEF3E6"></path>
                        <path d="M4.7,7.1 C5.1,7.5 5.8,8.5 5.8,8.5 C5.8,8.5 6.4,7.5 6.9,7.1 C7.3,6.7 8.3,6 8.3,6 C8.3,6 7.4,5.4 6.9,4.9 C6.5,4.5 5.8,3.5 5.8,3.5 C5.8,3.5 5.2,4.5 4.7,4.9 C4.3,5.3 3.3,6 3.3,6 C3.3,6 4.3,6.6 4.7,7.1 L4.7,7.1 Z" id="Shape" fill="#000000"></path>
                    </g>
                    <g id="Group" transform="translate(701.000000, 12.000000)">
                        <path d="M11.9,2.4 C12.3,3 13.5,4.7 14.2,5.4 C14.9,6.1 16.6,7.3 17.2,7.7 L19.9,9.5 L17.2,11.3 C16.6,11.7 15,12.8 14.2,13.6 C13.5,14.3 12.3,16 11.9,16.6 L10.1,19.3 L8.3,16.6 C7.9,16 6.7,14.3 6,13.6 C5.3,12.9 3.6,11.7 3,11.3 L0.3,9.5 L3,7.7 C3.6,7.3 5.2,6.2 6,5.4 C6.7,4.7 7.9,3 8.3,2.4 L10.1,-0.3 L11.9,2.4 L11.9,2.4 Z" id="Shape" fill="#FEF3E6"></path>
                        <path d="M7.5,12.1 C8.6,13.2 10.1,15.4 10.1,15.4 C10.1,15.4 11.6,13.1 12.7,12.1 C13.8,11 16,9.6 16,9.6 C16,9.6 13.8,8.1 12.7,7 C11.6,5.9 10.1,3.7 10.1,3.7 C10.1,3.7 8.6,6 7.5,7 C6.4,8.1 4.2,9.6 4.2,9.6 C4.2,9.6 6.4,11 7.5,12.1 L7.5,12.1 Z" id="Shape" fill="#000000"></path>
                    </g>
                    <g id="Group" transform="translate(898.000000, 192.000000)">
                        <path d="M8,16.7 C7.6,16.1 6.4,14.4 5.7,13.7 C5,13 3.3,11.8 2.7,11.4 L0,9.6 L2.7,7.8 C3.3,7.4 4.9,6.3 5.7,5.5 C6.4,4.8 7.6,3.1 8,2.5 L9.8,-0.2 L11.6,2.5 C12,3.1 13.2,4.8 13.9,5.5 C14.6,6.2 16.3,7.4 16.9,7.8 L19.6,9.6 L16.9,11.4 C16.3,11.8 14.7,12.9 13.9,13.7 C13.2,14.4 12,16.1 11.6,16.7 L9.8,19.4 L8,16.7 L8,16.7 Z" id="Shape" fill="#FEF3E6"></path>
                        <path d="M12.4,7.1 C11.3,6 9.8,3.8 9.8,3.8 C9.8,3.8 8.3,6.1 7.2,7.1 C6.1,8.2 3.9,9.7 3.9,9.7 C3.9,9.7 6.1,11.2 7.2,12.3 C8.3,13.4 9.8,15.6 9.8,15.6 C9.8,15.6 11.3,13.3 12.4,12.3 C13.5,11.3 15.7,9.7 15.7,9.7 C15.7,9.7 13.5,8.1 12.4,7.1 L12.4,7.1 Z" id="Shape" fill="#000000"></path>
                    </g>
                    <g id="Group" transform="translate(880.000000, 218.000000)">
                        <path d="M4.4,9.4 C4.2,9.1 3.8,8.5 3.5,8.3 C3.3,8.1 2.7,7.7 2.4,7.5 L0.1,6 L2.4,4.5 C2.7,4.3 3.3,3.9 3.5,3.7 C3.7,3.5 4.1,2.9 4.4,2.6 L5.9,0.4 L7.4,2.6 C7.6,2.9 8,3.5 8.3,3.7 C8.5,3.9 9.1,4.3 9.4,4.5 L11.7,6 L9.4,7.5 C9.1,7.7 8.5,8.1 8.3,8.3 C8.1,8.5 7.7,9.1 7.4,9.4 L5.9,11.6 L4.4,9.4 L4.4,9.4 Z" id="Shape" fill="#FEF3E6"></path>
                        <path d="M7,4.8 C6.6,4.4 5.9,3.4 5.9,3.4 C5.9,3.4 5.3,4.4 4.8,4.8 C4.4,5.2 3.4,5.9 3.4,5.9 C3.4,5.9 4.3,6.5 4.8,7 C5.2,7.4 5.9,8.4 5.9,8.4 C5.9,8.4 6.5,7.4 7,7 C7.4,6.6 8.4,5.9 8.4,5.9 C8.4,5.9 7.5,5.3 7,4.8 L7,4.8 Z" id="Shape" fill="#000000"></path>
                    </g>
                    <g id="Group" transform="translate(414.000000, 330.000000)">
                        <path d="M7.6,17.3 C7.2,16.7 6,15 5.3,14.3 C4.6,13.6 2.9,12.4 2.3,12 L-0.4,10.2 L2.3,8.4 C2.9,8 4.5,6.9 5.3,6.1 C6,5.4 7.2,3.7 7.6,3.1 L9.4,0.4 L11.2,3.1 C11.6,3.7 12.8,5.4 13.5,6.1 C14.2,6.8 15.9,8 16.5,8.4 L19.2,10.2 L16.5,12 C15.9,12.4 14.3,13.5 13.5,14.3 C12.8,15 11.6,16.7 11.2,17.3 L9.4,20 L7.6,17.3 L7.6,17.3 Z" id="Shape" fill="#FEF3E6"></path>
                        <path d="M12,7.7 C10.9,6.6 9.4,4.4 9.4,4.4 C9.4,4.4 7.9,6.7 6.8,7.7 C5.7,8.8 3.5,10.3 3.5,10.3 C3.5,10.3 5.7,11.8 6.8,12.9 C7.9,14 9.4,16.2 9.4,16.2 C9.4,16.2 10.9,13.9 12,12.9 C13.1,11.9 15.3,10.3 15.3,10.3 C15.3,10.3 13.1,8.7 12,7.7 L12,7.7 Z" id="Shape" fill="#000000"></path>
                    </g>
                    <g id="Group" transform="translate(445.000000, 308.000000)">
                        <path d="M4.2,9.1 C4,8.8 3.6,8.2 3.3,8 C3.1,7.8 2.5,7.4 2.2,7.2 L-0.1,5.7 L2.2,4.2 C2.5,4 3.1,3.6 3.3,3.4 C3.5,3.2 3.9,2.6 4.2,2.3 L5.7,0.1 L7.2,2.3 C7.4,2.6 7.8,3.2 8.1,3.4 C8.3,3.6 8.9,4 9.2,4.2 L11.5,5.7 L9.2,7.2 C8.9,7.4 8.3,7.8 8.1,8 C7.9,8.2 7.5,8.8 7.2,9.1 L5.7,11.3 L4.2,9.1 L4.2,9.1 Z" id="Shape" fill="#FEF3E6"></path>
                        <path d="M6.8,4.6 C6.4,4.2 5.7,3.2 5.7,3.2 C5.7,3.2 5.1,4.2 4.6,4.6 C4.2,5 3.2,5.7 3.2,5.7 C3.2,5.7 4.1,6.3 4.6,6.8 C5,7.2 5.7,8.2 5.7,8.2 C5.7,8.2 6.3,7.2 6.8,6.8 C7.2,6.4 8.2,5.7 8.2,5.7 C8.2,5.7 7.3,5 6.8,4.6 L6.8,4.6 Z" id="Shape" fill="#000000"></path>
                    </g>
                    <g id="Group" transform="translate(417.000000, 524.000000)">
                        <path d="M4,8.5 C3.8,8.2 3.4,7.6 3.1,7.4 C2.9,7.2 2.3,6.8 2,6.6 L-0.3,5.1 L2,3.6 C2.3,3.4 2.9,3 3.1,2.8 C3.3,2.6 3.7,2 4,1.7 L5.5,-0.5 L7,1.7 C7.2,2 7.6,2.6 7.9,2.8 C8.1,3 8.7,3.4 9,3.6 L11.3,5.1 L9,6.6 C8.7,6.8 8.1,7.2 7.9,7.4 C7.7,7.6 7.3,8.2 7,8.5 L5.5,10.7 L4,8.5 L4,8.5 Z" id="Shape" fill="#FEF3E6"></path>
                        <path d="M6.5,4 C6.1,3.6 5.4,2.6 5.4,2.6 C5.4,2.6 4.8,3.6 4.3,4 C3.9,4.4 2.9,5.1 2.9,5.1 C2.9,5.1 3.8,5.7 4.3,6.2 C4.7,6.6 5.4,7.6 5.4,7.6 C5.4,7.6 6,6.6 6.5,6.2 C6.9,5.8 7.9,5.1 7.9,5.1 C7.9,5.1 7,4.5 6.5,4 L6.5,4 Z" id="Shape" fill="#000000"></path>
                    </g>
                    <g id="Group" transform="translate(570.000000, 190.000000)">
                        <path d="M2.3,7.5 C2.9,7.1 4.6,5.9 5.3,5.2 C6,4.5 7.2,2.8 7.6,2.2 L9.4,-0.5 L11.2,2.2 C11.6,2.8 12.7,4.4 13.5,5.2 C14.2,5.9 15.9,7.1 16.5,7.5 L19.2,9.3 L16.5,11.1 C15.9,11.5 14.2,12.7 13.5,13.4 C12.8,14.1 11.6,15.8 11.2,16.4 L9.4,19.1 L7.6,16.4 C7.2,15.8 6.1,14.2 5.3,13.4 C4.6,12.7 2.9,11.5 2.3,11.1 L-0.4,9.3 L2.3,7.5 L2.3,7.5 Z" id="Shape" fill="#FEF3E6"></path>
                        <path d="M12,11.9 C13.1,10.8 15.3,9.3 15.3,9.3 C15.3,9.3 13,7.8 12,6.7 C10.9,5.6 9.4,3.4 9.4,3.4 C9.4,3.4 7.9,5.6 6.8,6.7 C5.7,7.8 3.5,9.3 3.5,9.3 C3.5,9.3 5.8,10.8 6.8,11.9 C7.8,13 9.4,15.2 9.4,15.2 C9.4,15.2 10.9,13 12,11.9 L12,11.9 Z" id="Shape" fill="#000000"></path>
                    </g>
                    <g id="Group" transform="translate(587.000000, 528.000000)">
                        <path d="M3,8.2 C3.6,7.8 5.3,6.6 6,5.9 C6.7,5.2 7.9,3.5 8.3,2.9 L10.1,0.2 L11.9,2.9 C12.3,3.5 13.4,5.1 14.2,5.9 C14.9,6.6 16.6,7.8 17.2,8.2 L19.9,10 L17.2,11.8 C16.6,12.2 14.9,13.4 14.2,14.1 C13.5,14.8 12.3,16.5 11.9,17.1 L10.1,19.8 L8.3,17.1 C7.9,16.5 6.8,14.9 6,14.1 C5.3,13.4 3.6,12.2 3,11.8 L0.3,10 L3,8.2 L3,8.2 Z" id="Shape" fill="#FEF3E6"></path>
                        <path d="M12.6,12.6 C13.7,11.5 15.9,10 15.9,10 C15.9,10 13.6,8.5 12.6,7.4 C11.5,6.3 10,4.1 10,4.1 C10,4.1 8.5,6.3 7.4,7.4 C6.3,8.5 4.1,10 4.1,10 C4.1,10 6.4,11.5 7.4,12.6 C8.4,13.7 10,15.9 10,15.9 C10,15.9 11.6,13.7 12.6,12.6 L12.6,12.6 Z" id="Shape" fill="#000000"></path>
                    </g>
                    <g id="Group" transform="translate(349.000000, 230.000000)">
                        <path d="M4.5,8.7 C4.3,8.4 3.9,7.8 3.6,7.6 C3.4,7.4 2.8,7 2.5,6.8 L0.2,5.3 L2.5,3.8 C2.8,3.6 3.4,3.2 3.6,3 C3.8,2.8 4.2,2.2 4.5,1.9 L6,-0.3 L7.5,1.9 C7.7,2.2 8.1,2.8 8.4,3 C8.6,3.2 9.2,3.6 9.5,3.8 L11.8,5.3 L9.5,6.8 C9.2,7 8.6,7.4 8.4,7.6 C8.2,7.8 7.8,8.4 7.5,8.7 L6,10.9 L4.5,8.7 L4.5,8.7 Z" id="Shape" fill="#FEF3E6"></path>
                        <path d="M7.1,4.2 C6.7,3.8 6,2.8 6,2.8 C6,2.8 5.4,3.8 4.9,4.2 C4.5,4.6 3.5,5.3 3.5,5.3 C3.5,5.3 4.4,5.9 4.9,6.4 C5.3,6.8 6,7.8 6,7.8 C6,7.8 6.6,6.8 7.1,6.4 C7.5,6 8.5,5.3 8.5,5.3 C8.5,5.3 7.5,4.6 7.1,4.2 L7.1,4.2 Z" id="Shape" fill="#000000"></path>
                    </g>
                </g>
            </g>
        </g>
    </g>
</svg>