<?xml version="1.0" encoding="UTF-8" standalone="no"?>
<svg width="157px" height="348px" viewBox="0 0 157 348" version="1.1" xmlns="http://www.w3.org/2000/svg" xmlns:xlink="http://www.w3.org/1999/xlink" xmlns:sketch="http://www.bohemiancoding.com/sketch/ns">
    <!-- Generator: Sketch 3.1.1 (8761) - http://www.bohemiancoding.com/sketch -->
    <title>layout-path-first</title>
    <desc>Created with Sketch.</desc>
    <defs></defs>
    <g id="Page-1" stroke="none" stroke-width="1" fill="none" fill-rule="evenodd" sketch:type="MSPage">
        <g id="main_top-copy" sketch:type="MSLayerGroup" transform="translate(-79.000000, -1810.000000)" fill="#FFFFFF">
            <g id="enter_hover" transform="translate(1.000000, 40.000000)" sketch:type="MSShapeGroup">
                <g id="layout-path-first" transform="translate(79.000000, 1770.000000)">
                    <path d="M41.6,10.6 L48.3,3.9 C49.1,3.1 49.1,1.9 48.3,1.1 C47.5,0.3 46.3,0.3 45.5,1.1 L38.8,7.8 L32.1,1.1 C31.3,0.3 30.1,0.3 29.3,1.1 C28.5,1.9 28.5,3.1 29.3,3.9 L36,10.6 L29.3,17.3 C28.5,18.1 28.5,19.3 29.3,20.1 C29.7,20.5 30.2,20.7 30.7,20.7 C31.2,20.7 31.7,20.5 32.1,20.1 L38.8,13.4 L45.5,20.1 C45.9,20.5 46.4,20.7 46.9,20.7 C47.4,20.7 47.9,20.5 48.3,20.1 C49.1,19.3 49.1,18.1 48.3,17.3 L41.6,10.6 L41.6,10.6 Z" id="Shape"></path>
                    <g id="Group" transform="translate(0.000000, 32.000000)">
                        <path d="M146.6,311.7 C147.6,312.1 148,313.2 147.6,314.2 C147.2,315.2 146,315.6 145.1,315.1 C144.2,314.7 143.7,313.6 144.2,312.6 C144.6,311.8 145.7,311.3 146.6,311.7 L146.6,311.7 Z" id="Shape"></path>
                        <path d="M149.3,304.7 C150.3,305 150.9,306.1 150.5,307.1 C150.1,308.1 149,308.6 148,308.2 C147,307.8 146.5,306.8 146.9,305.8 C147.3,304.9 148.3,304.4 149.3,304.7 L149.3,304.7 Z" id="Shape"></path>
                        <path d="M151.4,297.5 C152.4,297.8 153,298.8 152.8,299.8 C152.5,300.8 151.4,301.4 150.4,301.1 C149.4,300.8 148.9,299.8 149.1,298.8 C149.4,297.9 150.4,297.3 151.4,297.5 L151.4,297.5 Z" id="Shape"></path>
                        <path d="M153,290.2 C154,290.4 154.7,291.3 154.5,292.4 C154.3,293.5 153.3,294.1 152.3,293.9 C151.3,293.7 150.6,292.7 150.8,291.7 C151,290.7 151.9,290 153,290.2 L153,290.2 Z" id="Shape"></path>
                        <path d="M153.9,282.7 C154.9,282.8 155.7,283.7 155.6,284.7 C155.5,285.8 154.6,286.5 153.5,286.4 C152.5,286.3 151.7,285.4 151.8,284.4 C151.9,283.4 152.8,282.7 153.9,282.7 L153.9,282.7 Z" id="Shape"></path>
                        <path d="M153.9,275.2 C154.9,275.2 155.8,276 155.9,277.1 C155.9,278.2 155,279 154,279 C153,279 152.1,278.2 152.2,277.1 C152.1,276.1 152.9,275.3 153.9,275.2 L153.9,275.2 Z" id="Shape"></path>
                        <path d="M153.2,267.8 C154.2,267.6 155.2,268.4 155.3,269.4 C155.4,270.5 154.7,271.4 153.7,271.5 C152.7,271.6 151.7,270.9 151.6,269.9 C151.5,268.8 152.2,267.9 153.2,267.8 L153.2,267.8 Z" id="Shape"></path>
                        <path d="M151.8,260.4 C152.8,260.1 153.9,260.7 154.1,261.8 C154.3,262.8 153.7,263.9 152.6,264.1 C151.6,264.3 150.6,263.7 150.4,262.7 C150.2,261.7 150.7,260.7 151.8,260.4 L151.8,260.4 Z" id="Shape"></path>
                        <path d="M149.5,253.3 C150.5,252.9 151.6,253.5 151.9,254.5 C152.3,255.5 151.7,256.6 150.7,256.9 C149.7,257.2 148.6,256.7 148.3,255.7 C148,254.7 148.5,253.6 149.5,253.3 L149.5,253.3 Z" id="Shape"></path>
                        <path d="M146.6,246.3 C147.5,245.8 148.7,246.2 149.1,247.2 C149.5,248.2 149.1,249.3 148.1,249.7 C147.1,250.1 146,249.7 145.6,248.8 C145.3,247.9 145.6,246.8 146.6,246.3 L146.6,246.3 Z" id="Shape"></path>
                        <path d="M143,239.7 C143.9,239.2 145.1,239.5 145.6,240.4 C146.2,241.3 145.8,242.5 144.9,243 C144,243.5 142.9,243.1 142.3,242.3 C141.8,241.4 142.1,240.3 143,239.7 L143,239.7 Z" id="Shape"></path>
                        <path d="M139,233.4 C139.9,232.8 141,233 141.6,233.9 C142.2,234.8 141.9,236 141.1,236.5 C140.2,237.1 139.1,236.8 138.5,236 C137.9,235.2 138.2,234 139,233.4 L139,233.4 Z" id="Shape"></path>
                        <path d="M134.5,227.4 C135.3,226.8 136.5,226.9 137.2,227.7 C137.8,228.5 137.6,229.7 136.8,230.4 C136,231 134.8,230.8 134.2,230 C133.6,229.2 133.7,228 134.5,227.4 L134.5,227.4 Z" id="Shape"></path>
                        <path d="M129.8,221.6 C130.6,220.9 131.8,221 132.5,221.8 C133.2,222.6 133.1,223.8 132.3,224.4 C131.5,225.1 130.3,225 129.6,224.2 C128.9,223.5 129,222.3 129.8,221.6 L129.8,221.6 Z" id="Shape"></path>
                        <path d="M124.7,216 C125.5,215.3 126.7,215.3 127.4,216.1 C128.1,216.9 128.1,218.1 127.3,218.8 C126.5,219.5 125.3,219.5 124.7,218.7 C123.9,217.9 124,216.7 124.7,216 L124.7,216 Z" id="Shape"></path>
                        <path d="M119.4,210.7 C120.1,210 121.3,209.9 122.1,210.7 C122.8,211.4 122.8,212.6 122.1,213.4 C121.4,214.1 120.2,214.1 119.5,213.4 C118.7,212.6 118.7,211.4 119.4,210.7 L119.4,210.7 Z" id="Shape"></path>
                        <path d="M114,205.5 C114.7,204.7 115.9,204.7 116.7,205.4 C117.5,206.1 117.5,207.3 116.8,208.1 C116.1,208.9 114.9,208.9 114.1,208.2 C113.3,207.5 113.3,206.3 114,205.5 L114,205.5 Z" id="Shape"></path>
                        <path d="M108.4,200.5 C109.1,199.7 110.3,199.6 111.1,200.3 C111.9,201 111.9,202.2 111.2,203 C110.5,203.8 109.3,203.8 108.5,203.2 C107.8,202.5 107.7,201.3 108.4,200.5 L108.4,200.5 Z" id="Shape"></path>
                        <path d="M102.7,195.6 C103.4,194.8 104.6,194.7 105.4,195.4 C106.2,196.1 106.3,197.3 105.6,198.1 C104.9,198.9 103.7,199 103,198.3 C102.2,197.5 102.1,196.4 102.7,195.6 L102.7,195.6 Z" id="Shape"></path>
                        <path d="M97,190.7 C97.7,189.9 98.9,189.8 99.7,190.4 C100.5,191.1 100.6,192.3 99.9,193.1 C99.2,193.9 98.1,194 97.3,193.3 C96.4,192.7 96.3,191.5 97,190.7 L97,190.7 Z" id="Shape"></path>
                        <circle id="Oval" transform="translate(92.248600, 187.302080) rotate(219.155561) translate(-92.248600, -187.302080) " cx="92.2486" cy="187.30208" r="1.89991556"></circle>
                        <path d="M85.4,181.3 C86.1,180.5 87.2,180.4 88,181 C88.8,181.7 88.9,182.8 88.3,183.6 C87.6,184.4 86.5,184.5 85.7,183.9 C84.8,183.3 84.7,182.1 85.4,181.3 L85.4,181.3 Z" id="Shape"></path>
                        <circle id="Oval" transform="translate(81.046380, 177.641980) rotate(218.756449) translate(-81.046380, -177.641980) " cx="81.04638" cy="177.64198" r="1.89996584"></circle>
                        <path d="M73.7,171.9 C74.4,171.1 75.5,171 76.3,171.6 C77.1,172.2 77.2,173.4 76.6,174.2 C75.9,175 74.8,175.1 74,174.5 C73.1,173.9 73,172.7 73.7,171.9 L73.7,171.9 Z" id="Shape"></path>
                        <path d="M67.8,167.1 C68.5,166.3 69.6,166.2 70.4,166.8 C71.2,167.5 71.3,168.6 70.7,169.4 C70,170.2 68.9,170.3 68.1,169.7 C67.3,169.1 67.2,167.9 67.8,167.1 L67.8,167.1 Z" id="Shape"></path>
                        <path d="M62,162.3 C62.7,161.5 63.9,161.4 64.6,162 C65.4,162.7 65.5,163.8 64.8,164.7 C64.1,165.5 63,165.6 62.2,165 C61.5,164.3 61.4,163.1 62,162.3 L62,162.3 Z" id="Shape"></path>
                        <path d="M56.3,157.5 C57,156.7 58.2,156.6 59,157.3 C59.8,158 59.9,159.2 59.2,160 C58.5,160.8 57.3,160.9 56.5,160.2 C55.7,159.5 55.6,158.3 56.3,157.5 L56.3,157.5 Z" id="Shape"></path>
                        <path d="M50.6,152.6 C51.3,151.8 52.5,151.8 53.3,152.4 C54.1,153.1 54.2,154.3 53.5,155 C52.8,155.8 51.6,155.9 50.8,155.2 C50,154.5 50,153.3 50.6,152.6 L50.6,152.6 Z" id="Shape"></path>
                        <path d="M45.1,147.5 C45.8,146.7 47,146.7 47.7,147.4 C48.5,148.1 48.5,149.3 47.8,150 C47.1,150.8 45.9,150.8 45.1,150.1 C44.4,149.5 44.4,148.3 45.1,147.5 L45.1,147.5 Z" id="Shape"></path>
                        <path d="M39.7,142.3 C40.4,141.6 41.6,141.5 42.4,142.3 C43.1,143 43.1,144.2 42.4,145 C41.7,145.8 40.5,145.8 39.7,145 C39,144.2 38.9,143.1 39.7,142.3 L39.7,142.3 Z" id="Shape"></path>
                        <path d="M34.4,137 C35.2,136.3 36.3,136.3 37.1,137 C37.8,137.7 37.8,138.9 37,139.7 C36.3,140.4 35.1,140.4 34.3,139.7 C33.6,138.9 33.7,137.7 34.4,137 L34.4,137 Z" id="Shape"></path>
                        <path d="M29.3,131.4 C30.1,130.7 31.3,130.8 32,131.5 C32.7,132.3 32.6,133.4 31.9,134.1 C31.1,134.8 29.9,134.7 29.2,134 C28.5,133.3 28.6,132.1 29.3,131.4 L29.3,131.4 Z" id="Shape"></path>
                        <path d="M24.5,125.7 C25.3,125.1 26.5,125.2 27.1,126 C27.7,126.8 27.6,128 26.8,128.6 C26,129.3 24.8,129.2 24.1,128.4 C23.6,127.5 23.7,126.3 24.5,125.7 L24.5,125.7 Z" id="Shape"></path>
                        <path d="M20,119.7 C20.8,119.1 22,119.3 22.6,120.1 C23.2,120.9 23,122.1 22.2,122.7 C21.4,123.3 20.2,123.2 19.6,122.3 C19,121.5 19.2,120.3 20,119.7 L20,119.7 Z" id="Shape"></path>
                        <path d="M15.8,113.5 C16.7,113 17.8,113.2 18.4,114 C19,114.8 18.7,116 17.9,116.6 C17,117.2 15.9,116.9 15.3,116.1 C14.7,115.2 14.9,114 15.8,113.5 L15.8,113.5 Z" id="Shape"></path>
                        <path d="M12.1,107 C13,106.5 14.2,106.8 14.6,107.7 C15.1,108.6 14.8,109.7 13.9,110.2 C13,110.7 11.8,110.4 11.3,109.5 C10.8,108.6 11.1,107.4 12.1,107 L12.1,107 Z" id="Shape"></path>
                        <path d="M8.8,100.2 C9.8,99.8 10.9,100.2 11.3,101.1 C11.7,102 11.3,103.1 10.4,103.6 C9.5,104.1 8.3,103.7 7.9,102.7 C7.4,101.7 7.8,100.6 8.8,100.2 L8.8,100.2 Z" id="Shape"></path>
                        <path d="M6,93.2 C7,92.9 8,93.4 8.4,94.3 C8.8,95.2 8.3,96.3 7.3,96.7 C6.3,97.1 5.2,96.6 4.9,95.6 C4.5,94.7 5,93.6 6,93.2 L6,93.2 Z" id="Shape"></path>
                        <path d="M3.9,86 C4.9,85.8 5.9,86.3 6.2,87.3 C6.4,88.3 5.9,89.3 4.9,89.6 C3.9,89.9 2.8,89.3 2.6,88.3 C2.3,87.3 2.9,86.3 3.9,86 L3.9,86 Z" id="Shape"></path>
                        <path d="M2.4,78.7 C3.4,78.5 4.4,79.2 4.6,80.2 C4.8,81.2 4.1,82.2 3.1,82.4 C2.1,82.6 1.1,81.9 0.9,80.9 C0.7,79.8 1.4,78.8 2.4,78.7 L2.4,78.7 Z" id="Shape"></path>
                        <path d="M1.6,71.2 C2.6,71.1 3.5,71.9 3.6,72.9 C3.7,73.9 3,74.8 1.9,74.9 C0.9,75 -0.1,74.3 -0.2,73.2 C-0.3,72.2 0.6,71.3 1.6,71.2 L1.6,71.2 Z" id="Shape"></path>
                        <path d="M1.5,63.7 C2.5,63.7 3.4,64.6 3.3,65.6 C3.3,66.6 2.5,67.4 1.5,67.5 C0.5,67.5 -0.4,66.7 -0.4,65.6 C-0.4,64.5 0.4,63.7 1.5,63.7 L1.5,63.7 Z" id="Shape"></path>
                        <path d="M2,56.2 C3,56.3 3.8,57.2 3.7,58.2 C3.6,59.2 2.7,60 1.6,59.9 C0.6,59.8 -0.2,58.9 -0.1,57.9 C8.21565038e-15,56.9 0.9,56.1 2,56.2 L2,56.2 Z" id="Shape"></path>
                        <path d="M3.1,48.8 C4.1,49 4.8,50 4.7,51 C4.5,52 3.6,52.7 2.5,52.5 C1.5,52.4 0.8,51.4 0.9,50.3 C1.1,49.3 2,48.6 3.1,48.8 L3.1,48.8 Z" id="Shape"></path>
                        <path d="M4.7,41.5 C5.7,41.8 6.3,42.8 6.1,43.8 C5.9,44.8 4.9,45.4 3.8,45.2 C2.8,45 2.2,44 2.4,42.9 C2.7,41.8 3.7,41.2 4.7,41.5 L4.7,41.5 Z" id="Shape"></path>
                        <path d="M6.8,34.3 C7.8,34.6 8.4,35.7 8.1,36.7 C7.8,37.7 6.8,38.2 5.8,37.9 C4.8,37.6 4.2,36.6 4.5,35.5 C4.7,34.5 5.8,33.9 6.8,34.3 L6.8,34.3 Z" id="Shape"></path>
                        <path d="M9.3,27.2 C10.3,27.6 10.8,28.7 10.4,29.6 C10.1,30.6 9,31.1 8,30.7 C7,30.4 6.5,29.3 6.9,28.3 C7.3,27.3 8.3,26.8 9.3,27.2 L9.3,27.2 Z" id="Shape"></path>
                        <path d="M12.2,20.3 C13.1,20.7 13.6,21.8 13.2,22.8 C12.8,23.7 11.7,24.2 10.7,23.8 C9.7,23.4 9.3,22.3 9.7,21.3 C10.2,20.3 11.3,19.9 12.2,20.3 L12.2,20.3 Z" id="Shape"></path>
                        <path d="M15.5,13.5 C16.4,14 16.8,15.1 16.4,16 C16,16.9 14.8,17.3 13.9,16.9 C13,16.5 12.6,15.3 13,14.4 C13.4,13.4 14.5,13 15.5,13.5 L15.5,13.5 Z" id="Shape"></path>
                        <path d="M19,6.9 C19.9,7.4 20.3,8.5 19.8,9.5 C19.3,10.4 18.2,10.7 17.2,10.3 C16.3,9.8 15.9,8.7 16.4,7.8 C16.9,6.7 18.1,6.4 19,6.9 L19,6.9 Z" id="Shape"></path>
                        <path d="M22.8,0.4 C23.7,0.9 24,2.1 23.5,3 C23,3.9 21.8,4.2 20.9,3.6 C20,3.1 19.7,1.9 20.2,1 C20.7,0.2 21.9,-0.1 22.8,0.4 L22.8,0.4 Z" id="Shape"></path>
                    </g>
                </g>
            </g>
        </g>
    </g>
</svg>